<svg height="512pt" viewBox="0 0 512 512" width="512pt" xmlns="http://www.w3.org/2000/svg"><path d="m492 264c11.046875 0 20-8.953125 20-20v-66c0-16.542969-13.457031-30-30-30h-11.097656c-2.777344-28.316406-12.472656-78.566406-46.046875-112.707031-23.027344-23.417969-52.925781-35.292969-88.859375-35.292969-29.515625 0-56.417969 11.65625-80 34.3125-23.582032-22.65625-50.480469-34.3125-79.996094-34.3125-35.933594 0-65.832031 11.875-88.859375 35.292969-33.574219 34.140625-43.269531 84.390625-46.046875 112.707031h-11.09375c-16.542969 0-30 13.457031-30 30v166c0 33.085938 26.914062 60 60 60s60-26.914062 60-60v-166c0-16.542969-13.457031-30-30-30h-8.648438c2.679688-23.203125 10.667969-60.710938 34.414063-84.769531 15.429687-15.632813 35.132813-23.230469 60.234375-23.230469 20.316406 0 38.457031 9.3125 54.355469 25.21875-11.644531 17.25-22.179688 37.828125-31.488281 61.621094-24.339844 62.242187-38.871094 144.171875-38.871094 219.160156 0 114.054688 49.765625 166 96 166 25.828125 0 50.699218-16.585938 68.230468-45.507812 18.167969-29.96875 27.773438-71.636719 27.773438-120.492188 0-74.988281-14.53125-156.917969-38.875-219.160156-9.304688-23.792969-19.839844-44.371094-31.484375-61.621094 15.898437-15.90625 34.039063-25.21875 54.355469-25.21875 25.101562 0 44.804687 7.597656 60.234375 23.230469 23.746093 24.058593 31.734375 61.566406 34.414062 84.769531h-8.644531c-16.542969 0-30 13.457031-30 30v166c0 33.085938 26.914062 60 60 60s60-26.914062 60-60c0-11.046875-8.953125-20-20-20s-20 8.953125-20 20c0 11.027344-8.972656 20-20 20s-20-8.972656-20-20v-156h40v56c0 11.046875 8.953125 20 20 20zm-412 80c0 11.027344-8.972656 20-20 20s-20-8.972656-20-20v-156h40zm232 2c0 52.484375-11.953125 83.21875-21.976562 99.757812-9.964844 16.429688-22.683594 26.242188-34.027344 26.242188-11.527344 0-24.265625-9.558594-34.070313-25.570312-10.003906-16.332032-21.929687-47.011719-21.929687-100.429688 0-81.691406 19.167968-183.429688 56-246.554688 36.835937 63.125 56.003906 164.863282 56.003906 246.554688zm0 0"/></svg>