<svg height="512pt" viewBox="0 0 512 512" width="512pt" xmlns="http://www.w3.org/2000/svg"><path d="m492 317h-21v-59c0-11.046875-8.953125-20-20-20s-20 8.953125-20 20v59h-35.03125c-.105469-2.058594-.519531-4.136719-1.296875-6.164062l-51.148437-133.328126c-8.835938-23.03125-31.347657-38.507812-56.019532-38.507812h-63.84375c-24.816406 0-47.375 15.597656-56.136718 38.816406l-50.234376 133.121094c-.753906 2-1.160156 4.039062-1.261718 6.0625h-35.027344v-59c0-11.046875-8.953125-20-20-20s-20 8.953125-20 20v59h-21c-11.046875 0-20 8.953125-20 20s8.953125 20 20 20h21v60c0 11.046875 8.953125 20 20 20s20-8.953125 20-20v-60h350v60c0 11.046875 8.953125 20 20 20s20-8.953125 20-20v-60h21c11.046875 0 20-8.953125 20-20s-8.953125-20-20-20zm-137.804688 0h-38.195312v-99.558594zm-118.195312-138h40v138h-40zm-40 36.648438v101.351562h-38.246094zm40 191.351562v85c0 11.046875-8.953125 20-20 20s-20-8.953125-20-20v-85c0-11.046875 8.953125-20 20-20s20 8.953125 20 20zm80 0v85c0 11.046875-8.953125 20-20 20s-20-8.953125-20-20v-85c0-11.046875 8.953125-20 20-20s20 8.953125 20 20zm-60-287c33.085938 0 60-26.914062 60-60s-26.914062-60-60-60-60 26.914062-60 60 26.914062 60 60 60zm0-80c11.027344 0 20 8.972656 20 20s-8.972656 20-20 20-20-8.972656-20-20 8.972656-20 20-20zm0 0"/></svg>