<svg height="512pt" viewBox="-40 0 512 512" width="512pt" xmlns="http://www.w3.org/2000/svg"><path d="m216 120c33.082031 0 60-26.917969 60-60 0-33.085938-26.917969-60-60-60-33.085938 0-60 26.914062-60 60 0 33.082031 26.917969 60 60 60zm0-80c11.027344 0 20 8.972656 20 20s-8.972656 20-20 20-20-8.972656-20-20 8.972656-20 20-20zm216 119c0 11.046875-8.953125 20-20 20h-216v114.273438c0 6.96875-.535156 13.894531-1.574219 20.726562h43.148438c-1.039063-6.832031-1.574219-13.757812-1.574219-20.726562v-54.273438c0-11.046875 8.953125-20 20-20s20 8.953125 20 20v54.273438c0 22.882812 8.066406 45.164062 22.714844 62.746093l102.648437 123.175781c7.070313 8.484376 5.925781 21.097657-2.5625 28.167969-3.738281 3.117188-8.277343 4.636719-12.792969 4.636719-5.730468 0-11.417968-2.449219-15.375-7.195312l-102.644531-123.179688c-7.085937-8.503906-13.082031-17.789062-17.894531-27.625h-68.1875c-4.816406 9.835938-10.808594 19.121094-17.894531 27.625l-102.648438 123.179688c-3.953125 4.746093-9.644531 7.195312-15.375 7.195312-4.511719 0-9.050781-1.519531-12.792969-4.636719-8.484374-7.070312-9.628906-19.683593-2.558593-28.167969l102.644531-123.175781c14.652344-17.582031 22.71875-39.863281 22.71875-62.746093v-114.273438h-136c-11.046875 0-20-8.953125-20-20s8.953125-20 20-20h392c11.046875 0 20 8.953125 20 20zm0 0"/></svg>