<svg height="512pt" viewBox="0 0 512 512" width="512pt" xmlns="http://www.w3.org/2000/svg"><path d="m421.929688 332c-49.625 0-90 40.375-90 90s40.375 90 90 90 90-40.375 90-90-40.375-90-90-90zm0 140c-27.570313 0-50-22.429688-50-50s22.429687-50 50-50c27.570312 0 50 22.429688 50 50s-22.429688 50-50 50zm-246.757813-357.105469c-25.972656 26.074219-41.664063 49.613281-50.335937 70.726563l134.734374 134.738281c7.8125 7.808594 7.8125 20.472656 0 28.285156-3.902343 3.902344-9.019531 5.855469-14.140624 5.855469-5.117188 0-10.238282-1.953125-14.140626-5.855469l-115.382812-115.382812c.960938 21.503906 8.726562 39.335937 16.921875 53.707031 13.507813 23.683594 9.605469 53.691406-9.425781 73.335938-22.269532 26.554687-48.082032 47.195312-73.308594 66.9375l34.628906 34.628906c19.351563-24.5625 40.121094-49.484375 66.828125-73.132813 19.53125-19.105469 49.558594-23.152343 73.273438-9.792969 17.96875 10.121094 36.234375 15.796876 54.289062 16.867188 11.027344.65625 19.4375 10.125 18.78125 21.148438-.65625 11.027343-10.117187 19.441406-21.148437 18.78125-24.171875-1.433594-48.246094-8.816407-71.550782-21.945313-8.339843-4.699219-18.964843-3.175781-25.839843 3.699219-.292969.292968-.59375.574218-.902344.851562-29.394531 25.949219-50.8125 53.457032-73.484375 82.578125l-2.625 3.363281c-3.523438 4.523438-8.816406 7.316407-14.539062 7.671876-.414063.027343-.828126.039062-1.238282.039062-5.285156 0-10.378906-2.097656-14.140625-5.855469l-66.566406-66.570312c-4.035156-4.035157-6.152344-9.601563-5.828125-15.296875.328125-5.691406 3.074219-10.976563 7.546875-14.519532 4.59375-3.640624 9.207031-7.246093 13.820313-10.855468 26.207031-20.484375 50.957031-39.832032 71.8125-64.851563.386718-.464843.792968-.910156 1.222656-1.335937 6.914062-6.914063 8.414062-17.574219 3.648437-25.929688-41.195312-72.222656-24.792969-146.28125 48.746094-220.121094 24.832031-24.929687 52.972656-45.890624 81.378906-60.617187 33.339844-17.28125 66.582031-26.046875 98.792969-26.046875 47.808594 0 91.042969 19.070312 128.503906 56.683594 34.820313 34.957031 53.714844 75.0625 56.15625 119.203125 2.082032 37.574219-7.78125 76.496093-29.316406 115.683593-5.316406 9.683594-17.480469 13.214844-27.160156 7.894532-9.679688-5.320313-13.214844-17.476563-7.894532-27.160156 27.011719-49.152344 45.445313-121.5625-20.125-187.394532-29.679687-29.800781-63.382812-44.910156-100.164062-44.910156-49.082031 0-104.425781 27.296875-151.828125 74.894531zm0 0"/></svg>