<svg height="512pt" viewBox="0 -87 512.00034 512" width="512pt" xmlns="http://www.w3.org/2000/svg"><path d="m427.421875 114.769531c7.847656 3.519531 16.179687 5.285157 24.527344 5.285157 7.210937 0 14.433593-1.320313 21.371093-3.960938 14.976563-5.703125 26.835938-16.894531 33.394532-31.515625 6.558594-14.625 7.027344-30.921875 1.328125-45.898437-5.703125-14.976563-16.898438-26.835938-31.519531-33.394532-14.621094-6.558594-30.921876-7.027344-45.898438-1.324218-30.914062 11.769531-46.488281 46.5-34.71875 77.414062 5.703125 14.976562 16.894531 26.835938 31.515625 33.394531zm17.4375-73.433593c2.3125-.878907 4.71875-1.316407 7.125-1.316407 2.78125 0 5.558594.585938 8.171875 1.761719 4.875 2.183594 8.605469 6.136719 10.507812 11.128906 1.902344 4.992188 1.742188 10.425782-.441406 15.300782-2.1875 4.875-6.140625 8.605468-11.132812 10.507812-4.988282 1.898438-10.421875 1.742188-15.296875-.445312-4.875-2.183594-8.605469-6.136719-10.507813-11.128907-3.925781-10.308593 1.265625-21.882812 11.574219-25.808593zm47.101563 257.65625h-69.867188c1.875-.011719 3.78125-.285157 5.667969-.855469 10.570312-3.203125 16.542969-14.367188 13.34375-24.9375l-52.183594-172.28125c-7.519531-25.285157-30.292969-42.519531-56.664063-42.894531-7.964843-.117188-15.738281 1.339843-23.167968 4.316406l-135.796875 52.675781c-15.070313 5.847656-26.910157 17.234375-33.335938 32.0625-6.410156 14.777344-6.648437 31.144531-.683593 46.097656l6.582031 17.09375-132.894531 50.007813c-10.339844 3.890625-15.5625 15.425781-11.671876 25.761718 3.007813 7.996094 10.585938 12.929688 18.648438 12.957032-11.011719.035156-19.9296875 8.972656-19.9296875 19.996094 0 11.042968 8.9531255 19.996093 19.9960935 19.996093h471.957032c11.042968 0 19.996093-8.953125 19.996093-19.996093 0-11.046876-8.953125-20-19.996093-20zm-177.941407-109.269532c10.335938-3.890625 15.5625-15.421875 11.671875-25.761718-3.886718-10.335938-15.421875-15.5625-25.757812-11.671876l-116.644532 43.890626-6.738281-17.496094c-.035156-.09375-.070312-.1875-.105469-.277344-2.011718-5-1.9375-10.472656.207032-15.417969 2.140625-4.941406 6.085937-8.734375 11.105468-10.683593l135.914063-52.722657c.085937-.03125.171875-.066406.257813-.101562 2.507812-1.011719 5.140624-1.480469 7.757812-1.46875 8.792969.125 16.390625 5.875 18.925781 14.402343l52.210938 172.375c2.605469 8.597657 10.476562 14.148438 19.011719 14.203126h-401.699219c2.300781-.015626 4.632812-.425782 6.910156-1.28125zm0 0"/></svg>