<svg height="512pt" viewBox="0 0 512 512.002" width="512pt" xmlns="http://www.w3.org/2000/svg"><path d="m75.320312 237.851562c-7.808593-7.808593-20.472656-7.808593-28.285156 0-30.328125 30.332032-47.035156 70.660157-47.035156 113.554688s16.703125 83.222656 47.035156 113.554688c30.332032 30.328124 70.660156 47.035156 113.554688 47.035156 42.894531 0 83.222656-16.707032 113.554687-47.035156 7.808594-7.8125 7.808594-20.476563 0-28.285157zm62.65625 232.03125c-17.085937-3.226562-33.179687-10.097656-47.347656-20.230468l47.242188-47.242188zm-95.859374-95.851562 67.460937.101562-47.234375 47.234376c-10.132812-14.164063-17.003906-30.253907-20.226562-47.335938zm20.222656-92.59375 52.699218 52.699219-73.785156-.109375c2.734375-19.03125 9.921875-36.980469 21.085938-52.589844zm115.636718 189.300781-.117187-73.777343 52.699219 52.695312c-15.605469 11.164062-33.554688 18.351562-52.582032 21.082031zm314.019532-470.738281h-102.5c-30.355469 0-55.96875 22.730469-59.574219 52.875l-3.242187 27.125h-183.699219c-5.34375 0-10.460938 2.136719-14.21875 5.933594-3.757813 3.796875-5.839844 8.9375-5.78125 14.277344.023437 2.386718.695312 59.210937 7.570312 128.757812l.304688 3.046875c.09375.925781.273437 1.820313.484375 2.699219.625 3.367187 2.105468 6.621094 4.503906 9.394531 7.226562 8.355469 19.832031 9.289063 28.1875 2.0625.28125-.242187 28.707031-24.171875 60.765625-24.171875 14.890625 0 33.5 7.597656 53.203125 15.644531 9.082031 3.707031 18.59375 7.585938 28.503906 11.054688l-17.09375 142.925781c-1.3125 10.96875 6.515625 20.921875 17.484375 22.234375.804688.097656 1.605469.144531 2.398438.144531 9.984375 0 18.617187-7.46875 19.835937-17.628906l16.46875-137.734375c6.230469.867187 12.574219 1.359375 19.039063 1.359375 25.332031 0 46.527343-7.453125 62.777343-16.304688-6.804687 63.335938-19.691406 133.015626-44.074218 175.992188-9.261719 16.328125-15.15625 34.15625-17.371094 52.316406h-41.972656c-11.046875 0-20 8.953125-20 20 0 11.042969 8.953125 20 20 20h60.980468c11.046876 0 20-8.957031 20-20v-3.773437c0-16.761719 4.550782-33.636719 13.152344-48.800781 58.78125-103.601563 56.953125-330.0625 56.847656-339.648438-.121093-10.960938-9.039062-19.78125-19.996093-19.78125h-88.015625l2.675781-22.375c1.199219-10.046875 9.738281-17.625 19.855469-17.625h102.5c11.046875 0 20-8.953125 20-20s-8.953125-20-20-20zm-198.878906 200.609375c-23.441407-9.570313-45.582032-18.609375-68.320313-18.609375-21.851563 0-41.742187 6.96875-56.972656 14.585938-2.523438-31.699219-3.75-59.105469-4.335938-76.585938h158.40625l-10.511719 87.894531c-6.128906-2.332031-12.222656-4.820312-18.265624-7.285156zm141.734374-80.609375c-.261718 16.3125-.984374 41.511719-2.917968 70.984375-6.566406 6.636719-31.386719 29.015625-67.296875 29.015625-4.761719 0-9.523438-.390625-14.285157-1.085938l11.828126-98.914062zm0 0"/></svg>