<svg height="512pt" viewBox="0 0 512 512" width="512pt" xmlns="http://www.w3.org/2000/svg"><path d="m255.996094 246.996094c11.046875 0 20 8.953125 20 20s-8.953125 20-20 20-20-8.953125-20-20 8.953125-20 20-20zm178.902344 60.609375-19.652344 4.960937c-102.949219 24.296875-209.097656 24.433594-315.546875.429688 10.519531-22.03125 23.851562-41.261719 36.402343-59.367188 20.519532-29.589844 39.898438-57.539062 39.898438-89.628906 0-27.820312-6.339844-47.777344-14.355469-64.238281 18.878907-2.0625 34.582031-6.363281 48.882813-10.296875 16.519531-4.542969 30.785156-8.464844 47.46875-8.464844 16.445312 0 30.222656 3.847656 46.175781 8.300781 13.542969 3.78125 28.332031 7.910157 46.351563 10.109375-8.097657 16.53125-14.527344 36.570313-14.527344 64.589844 0 32.089844 19.378906 60.039062 39.894531 89.628906l1.914063 2.757813c3.882812 5.605469 10.117187 8.613281 16.457031 8.613281 3.929687 0 7.898437-1.15625 11.371093-3.5625 9.078126-6.289062 11.339844-18.75 5.050782-27.828125l-1.921875-2.773437c-17.582031-25.355469-32.765625-47.257813-32.765625-66.835938 0-31.109375 10.089844-47.722656 21.769531-66.960938 11.8125-19.449218 25.195313-41.492187 25.195313-77.039062 0-11.046875-8.953126-20-20-20-11.046876 0-20 8.953125-20 20 0 17.085938-4.214844 29.121094-10.46875 40.941406-23.179688-.566406-40.640626-5.441406-57.558594-10.164062-17.214844-4.808594-35.011719-9.777344-56.9375-9.777344-22.082032 0-40.378906 5.03125-58.078125 9.898438-18.75 5.15625-36.472657 10.023437-60.390625 10.09375-6.265625-11.835938-10.492188-23.878907-10.492188-40.992188 0-11.046875-8.957031-20-20-20-11.046875 0-20 8.953125-20 20 0 35.546875 13.382813 57.589844 25.191406 77.039062 11.683594 19.238282 21.773438 35.851563 21.773438 66.960938 0 19.578125-15.1875 41.480469-32.769531 66.839844-28.796875 41.535156-64.640625 93.226562-63.191407 171.523437.5625 30.601563 7.402344 63.167969 20.324219 96.804688 3.058594 7.949219 10.636719 12.832031 18.675781 12.832031 2.382813 0 4.808594-.429688 7.167969-1.335938 10.3125-3.960937 15.457031-15.53125 11.496094-25.84375-11.246094-29.273437-17.191406-57.265624-17.671875-83.195312-.34375-18.601562 1.878906-35.460938 5.847656-50.960938.859375.324219 1.738282.617188 2.660156.828126 113.265626 25.898437 226.332032 25.890624 336.054688-.03125.101562-.023438.199219-.050782.296875-.074219l1.351563-.339844c4.164062 16.402344 6.042968 33.089844 5.722656 50.578125-.480469 25.929688-6.425782 53.921875-17.671875 83.195312-3.960938 10.3125 1.183593 21.882813 11.496093 25.84375 2.359376.90625 4.78125 1.335938 7.167969 1.335938 8.035157 0 15.617188-4.882812 18.671875-12.832031 12.925782-33.636719 19.761719-66.203125 20.328125-96.804688.527344-28.585937-3.828125-55.433593-13.320312-82.078125-3.460938-9.714844-13.738281-15.203125-23.738281-12.679687zm-178.902344 117.390625c-11.046875 0-20 8.953125-20 20v47c0 11.042968 8.953125 19.996094 20 19.996094s20-8.953126 20-19.996094v-47c0-11.046875-8.953125-20-20-20zm-167.996094-265.996094c0-13.578125-5.402344-26.28125-15.210938-35.769531l-38.886718-37.609375c-7.9375-7.675782-20.601563-7.46875-28.277344.472656-7.679688 7.941406-7.46875 20.601562.472656 28.28125l38.882813 37.609375c2.625 2.539063 3.019531 5.484375 3.019531 7.015625 0 1.527344-.394531 4.472656-3.019531 7.011719l-38.882813 37.609375c-7.941406 7.679687-8.152344 20.339844-.472656 28.28125 3.921875 4.054687 9.144531 6.09375 14.375 6.09375 5.007812 0 10.023438-1.867188 13.902344-5.621094l38.886718-37.609375c9.808594-9.488281 15.210938-22.191406 15.210938-35.765625zm379.011719 7.011719c-2.625-2.539063-3.019531-5.484375-3.019531-7.011719 0-1.53125.394531-4.476562 3.019531-7.015625l38.886719-37.609375c7.9375-7.679688 8.148437-20.339844.472656-28.28125-7.679688-7.9375-20.34375-8.148438-28.28125-.472656l-38.882813 37.609375c-9.808593 9.488281-15.210937 22.191406-15.210937 35.769531 0 13.574219 5.402344 26.277344 15.210937 35.765625l38.882813 37.609375c3.882812 3.753906 8.894531 5.621094 13.902344 5.621094 5.230468 0 10.453124-2.039063 14.378906-6.09375 7.679687-7.941406 7.46875-20.601563-.472656-28.28125zm0 0"/></svg>