<svg height="512pt" viewBox="0 0 512 512" width="512pt" xmlns="http://www.w3.org/2000/svg"><path d="m492 80h-21v-60c0-11.046875-8.953125-20-20-20s-20 8.953125-20 20v60h-40v-20c0-11.046875-8.953125-20-20-20s-20 8.953125-20 20v20h-190v-20c0-11.046875-8.953125-20-20-20s-20 8.953125-20 20v20h-40v-60c0-11.046875-8.953125-20-20-20s-20 8.953125-20 20v60h-21c-11.046875 0-20 8.953125-20 20s8.953125 20 20 20h21v60c0 11.046875 8.953125 20 20 20s20-8.953125 20-20v-60h40v332c0 11.027344-8.972656 20-20 20h-10c-11.046875 0-20 8.953125-20 20s8.953125 20 20 20h10c15.355469 0 29.375-5.804688 40-15.328125 10.625 9.523437 24.644531 15.328125 40 15.328125h11c11.046875 0 20-8.953125 20-20s-8.953125-20-20-20h-11c-11.027344 0-20-8.972656-20-20v-332h190v332c0 11.027344-8.972656 20-20 20h-10c-11.046875 0-20 8.953125-20 20s8.953125 20 20 20h10c15.355469 0 29.375-5.804688 40-15.328125 10.625 9.523437 24.644531 15.328125 40 15.328125h11c11.046875 0 20-8.953125 20-20s-8.953125-20-20-20h-11c-11.027344 0-20-8.972656-20-20v-332h40v60c0 11.046875 8.953125 20 20 20s20-8.953125 20-20v-60h21c11.046875 0 20-8.953125 20-20s-8.953125-20-20-20zm0 0"/></svg>