<svg height="511pt" viewBox="0 0 511 511.99985" width="511pt" xmlns="http://www.w3.org/2000/svg"><path d="m484.5 139.871094c-31.019531-60.902344-83.898438-106.078125-148.894531-127.207032-65-21.128906-134.332031-15.683593-195.234375 15.335938s-106.078125 83.898438-127.207032 148.894531c-21.128906 65-15.683593 134.332031 15.335938 195.234375s83.898438 106.078125 148.894531 127.207032c26.035157 8.464843 52.765625 12.664062 79.375 12.664062 39.816407 0 79.355469-9.40625 115.859375-28 41.125-20.949219 75.800782-52.558594 100.277344-91.410156 5.882812-9.339844 3.082031-21.683594-6.261719-27.566406-4.386719-2.765626-9.429687-3.589844-14.164062-2.742188-1-.15625-2.019531-.261719-3.0625-.261719l-94.527344-.070312-23.824219-34.105469 25.875-79.75 44.019532-12.113281 74.726562 61.445312.109375-.132812c3.117187 3.390625 7.402344 5.734375 12.332031 6.320312 10.972656 1.292969 20.910156-6.53125 22.210938-17.492187 6.015625-50.675782-2.917969-101.246094-25.839844-146.25zm-62.925781-23.039063-28.945313 79.976563-50.414062 13.871094-65.726563-47.816407v-55.214843l69.277344-48.113282c28.757813 13.035156 54.808594 32.378906 75.808594 57.296875zm-127.714844 196.140625h-74.71875l-23.105469-71.21875 60.464844-43.992187 60.464844 43.992187zm-229.734375 41.011719c-10.390625-20.398437-17.203125-41.691406-20.695312-63.167969l66.425781-55.4375 46.203125 12.714844 25.929687 79.917969-23.351562 33.9375-90.191407.0625c-1.484374-2.636719-2.933593-5.304688-4.320312-8.027344zm19.882812-149.109375-42.792968 35.71875c2.195312-30.007812 10.640625-59.261719 24.671875-85.785156zm213.777344-160.691406-41.285156 28.671875-41.414062-28.761719c27.65625-5.394531 55.734374-5.199219 82.699218.089844zm-139.269531 19.4375c2.859375-1.453125 5.738281-2.828125 8.632813-4.144532l69.359374 48.171876v55.214843l-65.722656 47.816407-46.820312-12.882813-30.253906-83.589844c17.648437-20.3125 39.390624-37.640625 64.804687-50.585937zm-61.097656 338.351562 51.449219-.035156 17.71875 50.234375c-25.832032-11.808594-49.449219-28.726563-69.167969-50.199219zm117.027343 65.691406-27.117187-76.878906 26.035156-37.835937h86.472657l26.035156 37.269531-27.253906 77.265625c-.035157.097656-.054688.199219-.085938.296875-28.121094 5.570312-56.6875 5.355469-84.085938-.117188zm140.039063-19.289062c-2.6875 1.367188-5.394531 2.660156-8.109375 3.90625l17.757812-50.34375 51.445313.039062c-17.332031 18.871094-37.996094 34.632813-61.09375 46.398438zm94.570313-289.996094c13.320312 26.273438 20.984374 54.8125 22.734374 84.082032l-40.972656-33.691407zm0 0"/></svg>