<svg height="511pt" viewBox="1 -7 511.9995 511" width="511pt" xmlns="http://www.w3.org/2000/svg"><path d="m296 120.5c33.085938 0 60-26.917969 60-60 0-33.085938-26.914062-60-60-60-33.082031 0-59.996094 26.914062-59.996094 60 0 33.082031 26.914063 60 59.996094 60zm0-80c11.03125 0 20 8.972656 20 20s-8.96875 20-20 20c-11.027344 0-20-8.972656-20-20s8.972656-20 20-20zm216 119c0 11.042969-8.953125 19.996094-20 19.996094h-216v124.003906c0 5.6875 2.398438 10.8125 6.21875 14.457031.949219.644531 1.855469 1.359375 2.695312 2.175781 3.175782 2.125 6.988282 3.367188 11.085938 3.367188h20v-84.003906c0-11.042969 8.957031-20 20-20 11.046875 0 20 8.957031 20 20v84.007812l79.984375.007813h.027344c13.339843 0 25.890625 5.199219 35.335937 14.636719 9.449219 9.445312 14.652344 22.003906 14.652344 35.363281v103.984375c0 11.042968-8.953125 20-20 20s-20-8.957032-20-20v-103.984375c0-3.605469-1.835938-5.980469-2.929688-7.074219-1.09375-1.089844-3.46875-2.925781-7.070312-2.925781h-.003906l-98.09375-.007813c-.625.058594-1.257813.097656-1.902344.097656s-1.277344-.039062-1.90625-.097656l-38.097656-.003906c-8.640625 0-16.855469-1.851562-24.285156-5.15625l-113.308594 78.585938c-1.011719.699218-2.085938 1.308593-3.210938 1.8125l-126.996094 57c-2.660156 1.191406-5.441406 1.757812-8.179687 1.757812-7.636719 0-14.929687-4.398438-18.257813-11.816406-4.523437-10.074219-.019531-21.910156 10.058594-26.433594l125.308594-56.242188 105.117188-72.902343c-3.984376-8.023438-6.238282-17.054688-6.238282-26.605469v-124.003906h-154c-11.046875 0-20-8.953125-20-19.996094 0-11.046875 8.953125-20 20-20h409.996094c11.046875 0 20 8.953125 20 20zm0 0"/></svg>