<svg height="512pt" viewBox="-31 0 512 512" width="512pt" xmlns="http://www.w3.org/2000/svg"><path d="m214.996094 120c33.085937 0 60-26.914062 60-60s-26.914063-60-60-60c-33.082032 0-60 26.914062-60 60s26.917968 60 60 60zm0-80c11.03125 0 20 8.972656 20 20s-8.96875 20-20 20c-11.027344 0-20-8.972656-20-20s8.972656-20 20-20zm223.394531 67.585938-159.148437 63.296874c-13.542969 5.386719-27.800782 8.117188-42.378907 8.117188h-41.863281v123.757812c6.617188.152344 13.289062.242188 20 .242188s13.378906-.089844 20-.242188v-64.757812c0-11.046875 8.953125-20 20-20s20 8.953125 20 20v62.828125c22.488281-1.667969 43.511719-4.257813 61.785156-7.6875 24.582032-4.613281 39.199219-9.808594 47.085938-13.648437-8.550782-4.15625-24.964844-9.875-53.265625-14.746094-10.882813-1.875-18.191407-12.21875-16.316407-23.101563 1.871094-10.886719 12.207032-18.199219 23.101563-16.320312 25.078125 4.316406 45.285156 9.828125 60.054687 16.386719 21.601563 9.585937 32.554688 22.300781 32.554688 37.789062 0 30.519531-41.523438 43.3125-72.761719 50.277344-23.484375 5.242187-51.621093 9.03125-82.238281 11.175781v151.046875c0 11.046875-8.953125 20-20 20s-20-8.953125-20-20v-149.222656c-6.605469.148437-13.28125.222656-20 .222656s-13.394531-.074219-20-.222656v149.222656c0 11.046875-8.953125 20-20 20s-20-8.953125-20-20v-151.046875c-30.617188-2.144531-58.753906-5.933594-82.238281-11.175781-31.234375-6.964844-72.761719-19.757813-72.761719-50.277344 0-15.410156 10.839844-28.074219 32.210938-37.640625 14.589843-6.527344 34.558593-12.027344 59.355468-16.351563 10.882813-1.894531 21.238282 5.386719 23.136719 16.265626 1.898437 10.882812-5.386719 21.242187-16.265625 23.140624-27.722656 4.832032-43.855469 10.472657-52.308594 14.582032 7.890625 3.839844 22.507813 9.035156 47.085938 13.648437 18.273437 3.429688 39.296875 6.019531 61.785156 7.683594v-121.828125h-70.332031c-12.417969 0-23.921875-5.617188-31.554688-15.414062-7.632812-9.796876-10.269531-22.320313-7.230469-34.363282l19.6875-78.113281c2.703126-10.710937 13.582032-17.199219 24.285157-14.503906 10.710937 2.699219 17.203125 13.574219 14.503906 24.285156l-19.691406 78.109375h152.195312c9.492188 0 18.777344-1.777344 27.597657-5.285156l159.144531-63.300782c10.269531-4.078124 21.894531.933594 25.976562 11.195313s-.929687 21.894531-11.191406 25.976563zm0 0"/></svg>