<svg height="512pt" viewBox="0 -70 512.00031 512" width="512pt" xmlns="http://www.w3.org/2000/svg"><path d="m492 332h-212.582031c12.734375-1.945312 24.933593-8.003906 34.492187-18.089844l69.199219-73.007812 95.511719 85.964844c8.210937 7.386718 20.855468 6.722656 28.246094-1.488282 7.386718-8.210937 6.722656-20.855468-1.488282-28.246094l-95.511718-85.960937c-16.25-14.621094-40.753907-13.648437-55.792969 2.214844l-29.453125 31.078125-95.542969-82.59375c-8.355469-7.226563-20.984375-6.308594-28.207031 2.050781-7.226563 8.355469-6.308594 20.984375 2.050781 28.207031l94.152344 81.398438-12.195313 12.867187c-7.398437 7.808594-19.546875 8.386719-27.636718 1.335938l-105.386719-92.15625c-4.050781-3.53125-6.46875-8.429688-6.8125-13.789063-.347657-5.363281 1.425781-10.53125 4.992187-14.550781.027344-.035156.054688-.066406.082032-.097656l77.109374-88.125c9.179688-10.449219 11.316407-24.804688 5.585938-37.472657-5.734375-12.667968-17.933594-20.539062-31.835938-20.539062h-84.4375c-11.011718-12.839844-27.335937-21-45.539062-21-33.085938 0-60 26.917969-60 60 0 33.085938 26.914062 60 60 60 32.75 0 59.4375-26.375 59.976562-59h58.859376l-69.785157 79.753906c-10.660156 12.054688-15.960937 27.535156-14.925781 43.597656 1.035156 16.085938 8.296875 30.78125 20.425781 41.355469l105.386719 92.152344c8.949219 7.804687 19.539062 12.488281 30.453125 14.140625h-241.390625c-11.046875 0-20 8.957031-20 20 0 11.046875 8.953125 20 20 20h472c11.046875 0 20-8.953125 20-20 0-11.042969-8.953125-20-20-20zm-421-252c-11.027344 0-20-8.972656-20-20s8.972656-20 20-20 20 8.972656 20 20-8.972656 20-20 20zm0 0"/></svg>