<svg height="512pt" viewBox="0 0 512 512" width="512pt" xmlns="http://www.w3.org/2000/svg"><path d="m256 120c33.085938 0 60-26.914062 60-60s-26.914062-60-60-60-60 26.914062-60 60 26.914062 60 60 60zm0-80c11.027344 0 20 8.972656 20 20s-8.972656 20-20 20-20-8.972656-20-20 8.972656-20 20-20zm0 0"/><path d="m492 139h-21v-60c0-11.046875-8.953125-20-20-20s-20 8.953125-20 20v60h-133.988281c-.011719 0-.027344 0-.039063 0h-215.972656v-60c0-11.046875-8.953125-20-20-20s-20 8.953125-20 20v60h-21c-11.046875 0-20 8.953125-20 20s8.953125 20 20 20h21v60c0 11.046875 8.953125 20 20 20s20-8.953125 20-20v-48.667969l36.347656 43.273438c7.621094 9.074219 18.78125 14.273437 30.628906 14.273437h.027344c11.859375-.011718 23.023438-5.226562 30.636719-14.316406l17.359375-20.726562v279.164062c0 11.046875 8.953125 20 20 20s20-8.953125 20-20v-125h40v125c0 11.046875 8.953125 20 20 20s20-8.953125 20-20v-218c0-11.046875-8.953125-20-20-20s-20 8.953125-20 20v53h-40v-148h51.570312l44.832032 54.34375c7.546875 9.140625 18.671875 14.441406 30.523437 14.542969h.335938c11.730469 0 22.800781-5.105469 30.425781-14.035157l37.3125-43.726562v48.875c0 11.046875 8.953125 20 20 20s20-8.953125 20-20v-60h21c11.046875 0 20-8.953125 20-20s-8.953125-20-20-20zm-344.023438 68.878906-24.257812-28.878906h48.441406zm215.28125.007813-23.832031-28.886719h48.480469zm0 0"/></svg>