<svg height="512pt" viewBox="-1 0 512 512" width="512pt" xmlns="http://www.w3.org/2000/svg"><path d="m510.007812 490.085938c0 11.003906-8.917968 19.921874-19.921874 19.921874h-70.722657c-32.957031 0-59.769531-26.8125-59.769531-59.765624v-330.710938h-209.179688v330.710938c0 32.953124-26.8125 59.765624-59.769531 59.765624h-70.722656c-11.003906 0-19.921875-8.917968-19.921875-19.921874 0-11.003907 8.917969-19.921876 19.921875-19.921876h70.722656c10.988281 0 19.921875-8.9375 19.921875-19.921874v-330.710938h-39.84375v59.769531c0 11-8.917968 19.921875-19.921875 19.921875-11.003906 0-19.921875-8.921875-19.921875-19.921875v-59.769531h-10.957031c-11.003906 0-19.921875-8.917969-19.921875-19.921875 0-11 8.917969-19.921875 19.921875-19.921875h10.957031v-59.765625c0-11.003906 8.917969-19.921875 19.921875-19.921875 11.003907 0 19.921875 8.917969 19.921875 19.921875v59.765625h39.84375v-19.921875c0-11.003906 8.921875-19.921875 19.925782-19.921875 11 0 19.921874 8.917969 19.921874 19.921875v19.921875h209.179688v-19.921875c0-11.003906 8.921875-19.921875 19.921875-19.921875 11.003906 0 19.925781 8.917969 19.925781 19.921875v19.921875h39.84375v-59.765625c0-11.003906 8.917969-19.921875 19.921875-19.921875 11.003907 0 19.921875 8.917969 19.921875 19.921875v59.765625h10.957032c11.003906 0 19.921874 8.921875 19.921874 19.921875 0 11.003906-8.917968 19.921875-19.921874 19.921875h-10.957032v59.769531c0 11-8.917968 19.921875-19.921875 19.921875-11.003906 0-19.921875-8.921875-19.921875-19.921875v-59.769531h-39.84375v330.710938c0 10.984374 8.933594 19.921874 19.921875 19.921874h70.722657c11.003906 0 19.921874 8.917969 19.921874 19.921876zm-200.21875-168.34375h-109.570312c-11.003906 0-19.921875 8.921874-19.921875 19.921874 0 11.003907 8.917969 19.921876 19.921875 19.921876h34.863281v110.570312h-24.902343c-11.003907 0-19.921876 8.917969-19.921876 19.921875s8.917969 19.921875 19.921876 19.921875h89.648437c11.003906 0 19.921875-8.917969 19.921875-19.921875s-8.917969-19.921875-19.921875-19.921875h-24.902344v-110.570312h34.863281c11.003907 0 19.921876-8.917969 19.921876-19.921876 0-11-8.917969-19.921874-19.921876-19.921874zm0 0"/></svg>