<svg height="512pt" viewBox="-107 0 512 512" width="512pt" xmlns="http://www.w3.org/2000/svg"><path d="m237.464844 154.300781c-33.148438 0-60.117188 26.96875-60.117188 60.117188 0 2.207031.128906 4.382812.359375 6.53125l-43.296875 18.039062-47.625-90.046875c-3.472656-6.5625-10.289062-10.671875-17.714844-10.671875h-8.953124c-33.148438 0-60.117188 26.96875-60.117188 60.117188v118.929687c0 13.101563 4.332031 25.746094 12.023438 36.035156v138.609376c0 11.066406 8.972656 20.039062 20.039062 20.039062s20.039062-8.972656 20.039062-20.039062v-106.03125l41.082032 30.035156v75.996094c0 11.066406 8.96875 20.039062 20.039062 20.039062 11.066406 0 20.039063-8.972656 20.039063-20.039062v-75.996094c0-12.738282-6.140625-24.832032-16.425781-32.351563l-68.546876-50.121093c-5.140624-3.761719-8.210937-9.808594-8.210937-16.175782v-118.929687c0-10.03125 7.410156-18.363281 17.042969-19.816407l41.863281 79.15625c9.746094 18.421876 31.601563 26.273438 50.84375 18.257813l45.339844-18.894531c10.871093 10.777344 25.816406 17.445312 42.296875 17.445312 33.148437 0 60.117187-26.96875 60.117187-60.117187 0-33.148438-26.96875-60.117188-60.117187-60.117188zm0 80.15625c-11.050782 0-20.039063-8.988281-20.039063-20.039062 0-11.046875 8.988281-20.039063 20.039063-20.039063 11.046875 0 20.039062 8.992188 20.039062 20.039063 0 11.050781-8.992187 20.039062-20.039062 20.039062zm-176.34375-114.222656c33.148437 0 60.117187-26.96875 60.117187-60.117187 0-33.148438-26.96875-60.117188-60.117187-60.117188-33.152344 0-60.117188 26.96875-60.117188 60.117188 0 33.148437 26.964844 60.117187 60.117188 60.117187zm0-80.15625c11.046875 0 20.039062 8.988281 20.039062 20.039063 0 11.050781-8.992187 20.039062-20.039062 20.039062-11.050782 0-20.039063-8.988281-20.039063-20.039062 0-11.050782 8.988281-20.039063 20.039063-20.039063zm0 0"/></svg>