<svg height="512pt" viewBox="0 0 511 512" width="512pt" xmlns="http://www.w3.org/2000/svg"><path d="m505.960938 439.160156c-1.570313-10.933594-11.707032-18.535156-22.640626-16.957031-10.933593 1.570313-18.523437 11.703125-16.953124 22.636719 1.515624 10.5625 2.722656 19.714844 3.648437 27.160156h-11.984375c-20.726562 0-37.839844-15.515625-39.808594-36.089844-2.679687-28.007812-17.796875-126.835937-33.714844-183.332031-.03125-.496094-.019531-1.527344-.011718-2.367187.039062-3.542969 2.667968-7.207032 7.007812-7.207032h71.324219c3.378906 0 5.628906 1.542969 6.917969 2.835938 1.730468 1.730468 2.757812 4.019531 2.753906 6.121094-.003906.5625-.542969 2.640624-2.992188 5.433593-1.882812 2.152344-3.730468 4.195313-5.503906 6.15625-12.140625 13.4375-25.90625 28.667969-20.992187 49.945313 2.617187 11.335937 3.871093 18.464844 5.324219 26.714844.875 4.984374 1.78125 10.136718 3.0625 16.644531 2.128906 10.839843 12.644531 17.898437 23.480468 15.769531 10.839844-2.132812 17.898438-12.644531 15.769532-23.480469-1.203126-6.121093-2.074219-11.074219-2.917969-15.863281-1.46875-8.34375-2.855469-16.230469-5.640625-28.34375 1.050781-2.902344 7.117187-9.613281 11.59375-14.570312 1.898437-2.097657 3.855468-4.265626 5.914062-6.613282 8.296875-9.472656 12.878906-20.730468 12.902344-31.707031.027344-12.679687-5.234375-25.238281-14.4375-34.457031-9.386719-9.40625-21.898438-14.585938-35.234375-14.585938h-34.902344c-27.371093-82.714844-73.507812-142.148437-92.238281-164.011718-1.828125-2.136719-4.011719-3.785157-6.386719-4.949219-17.4375-20.796875-43.601562-34.042969-72.800781-34.042969-29.179688 0-55.324219 13.226562-72.761719 33.996094-2.417969 1.164062-4.640625 2.824218-6.5 4.996094-18.726562 21.863281-64.863281 81.296874-92.234375 164.011718h-33.832031c-13.339844 0-25.851563 5.179688-35.234375 14.585938-9.203125 9.21875-14.464844 21.777344-14.4375 34.457031.023438 10.976563 4.605469 22.234375 12.902344 31.707031 2.054687 2.347656 4.015625 4.515625 5.910156 6.613282 4.476562 4.957031 10.542969 11.667968 11.597656 14.570312-24.71875 107.203125-31.082031 182.273438-31.34375 185.421875-.457031 5.570313 1.4375 11.078125 5.222656 15.191406 3.785157 4.109375 9.121094 6.449219 14.710938 6.449219h34.398438c19.917968 0 39.015624-7.367188 53.769531-20.746094 14.773437-13.398437 23.957031-31.699218 25.855469-51.535156 2.476562-25.910156 18.109374-121.878906 33.507812-176.4375l.121094-.445312c1.429687-5.214844 1.378906-9.882813 1.34375-13.042969-.25-24.183594-18.796875-44.144531-42.242188-46.546875 11.28125-30.859375 25.171875-57.804688 38.5625-79.902344 12.085938 38.582031 48.167969 66.65625 90.683594 66.65625 42.488281 0 78.546875-28.039062 90.65625-66.582031 13.394531 22.117187 27.289062 49.082031 38.566406 79.960937-22.960937 2.871094-40.972656 22.589844-41.222656 46.484375-.03125 3.089844-.082031 7.757813 1.367188 13.054688l.109374.394531c14.640626 51.875 29.710938 147.992188 32.429688 176.410156 1.894531 19.832032 11.078125 38.136719 25.851562 51.53125 14.757813 13.378906 33.855469 20.746094 53.773438 20.746094h34.398438c5.632812 0 11.007812-2.375 14.796874-6.546875 3.789063-4.167969 5.644532-9.742187 5.113282-15.351563-.074219-.789062-1.894532-19.710937-6.378906-50.941406zm-376.472657-186.578125c-15.34375 54.433594-31.734375 151.4375-34.785156 183.332031-1.964844 20.570313-19.078125 36.085938-39.804687 36.085938h-12.140626c3.566407-29.582031 11.765626-87.183594 28.230469-158.5 4.910157-21.277344-8.851562-36.511719-20.996093-49.949219-1.769532-1.957031-3.617188-4-5.5-6.152343-2.449219-2.796876-2.992188-4.875-2.992188-5.4375-.003906-2.101563 1.023438-4.390626 2.75-6.117188 1.292969-1.296875 3.542969-2.839844 6.921875-2.839844h71.324219c4.335937 0 6.96875 3.667969 7.007812 7.285156.003906.773438.019532 1.800782-.015625 2.292969zm127.011719-102.582031c-30.328125 0-55-24.671875-55-55s24.671875-55 55-55 55 24.671875 55 55-24.671875 55-55 55zm0 0"/></svg>