<svg height="512pt" viewBox="0 0 512 512.00218" width="512pt" xmlns="http://www.w3.org/2000/svg"><path d="m445.273438 276.484375c-7.007813-7.007813-18.09375-7.8125-26.039063-1.890625-10.882813 8.105469-21.597656 16.5625-32.023437 25.261719-13.277344-15.914063-27.625-31.902344-38.507813-43.765625 14.125-15.347656 27.3125-30.355469 38.925781-44.382813 10.628906 8.890625 21.554688 17.5 32.632813 25.722657 7.945312 5.898437 19.011719 5.082031 26.011719-1.914063l59.882812-59.882813c7.007812-7.007812 7.808594-18.09375 1.890625-26.042968-42.214844-56.65625-91.085937-105.519532-145.265625-145.230469-7.941406-5.820313-18.945312-4.980469-25.914062 1.988281l-59.882813 59.882813c-6.976563 6.976562-7.808594 18-1.960937 25.945312 7.886718 10.71875 16.191406 21.316407 24.808593 31.667969-14.054687 11.632812-29.089843 24.84375-44.46875 38.996094-12.082031-11.070313-27.667969-25.011719-43.1875-37.933594 8.902344-10.640625 17.519531-21.574219 25.753907-32.667969 5.894531-7.945312 5.082031-19.011719-1.914063-26.007812l-60.382813-60.382813c-7.007812-7.007812-18.09375-7.8125-26.042968-1.894531-56.65625 42.21875-105.519532 91.089844-145.230469 145.265625-5.820313 7.945312-4.980469 18.949219 1.984375 25.914062l60.382812 60.382813c6.980469 6.976563 18.003907 7.808594 25.949219 1.960937 10.730469-7.898437 21.34375-16.214843 31.707031-24.839843 13.128907 15.75 27.339844 31.613281 37.960938 43.21875-13.949219 15.15625-26.988281 29.976562-38.488281 43.851562-10.546875-8.792969-21.328125-17.230469-32.210938-25.207031-7.941406-5.824219-18.949219-4.980469-25.914062 1.984375l-59.882813 59.882813c-6.976562 6.976562-7.808594 18.003906-1.960937 25.949218 40.335937 54.792969 89.199219 103.664063 145.238281 145.253906 3.554688 2.636719 7.730469 3.933594 11.890625 3.933594 5.136719 0 10.25-1.980468 14.117187-5.847656l59.882813-59.882812c7.007813-7.007813 7.8125-18.09375 1.894531-26.042969-8.097656-10.867188-16.546875-21.570313-25.234375-31.984375 13.894531-11.515625 28.738281-24.566406 43.917969-38.539063 11.957031 10.972657 27.835938 25.214844 43.644531 38.40625-8.800781 10.554688-17.25 21.347657-25.234375 32.246094-5.824218 7.941406-4.980468 18.949219 1.984375 25.914063l60.378907 60.382812c3.871093 3.867188 8.980468 5.847656 14.121093 5.847656 4.132813 0 8.289063-1.28125 11.828125-3.886718 32.601563-24 63.292969-51.15625 91.21875-80.714844 7.574219-8.011719 7.214844-20.648438-.800781-28.21875-8.011719-7.570313-20.644531-7.210938-28.214844.800781-22.359375 23.664063-46.597656 45.691406-72.21875 65.644531l-35.804687-35.804687c8.339844-10.726563 17.113281-21.285157 26.207031-31.527344 3.660156-4.121094 5.453125-9.570313 4.957031-15.058594-.5-5.488281-3.246094-10.527343-7.589844-13.921875-14.816406-11.578125-34.539062-28.546875-55.386718-47.605468 12.3125-11.9375 24.589844-24.214844 36.527344-36.53125 19.261718 21.066406 35.953124 40.476562 47.6875 55.496093 3.390624 4.339844 8.421874 7.085938 13.902343 7.589844 5.46875.5 10.925781-1.277344 15.050781-4.925781 10.179688-9 20.746094-17.796875 31.546876-26.269532l48.027343 48.027344c3.898438 3.898438 9.003907 5.847656 14.113281 5.847656 5.109376 0 10.21875-1.949218 14.117188-5.847656 7.796875-7.796875 7.796875-20.433594 0-28.230468zm-302.554688-104.65625c-3.390625-4.34375-8.421875-7.097656-13.910156-7.601563-5.480469-.503906-10.9375 1.28125-15.066406 4.933594-10.082032 8.925782-20.488282 17.574219-31.085938 25.828125l-35.800781-35.804687c32.050781-41.242188 69.921875-79.066406 112.898437-112.753906l35.695313 35.691406c-8.597657 10.988281-17.5625 21.742187-26.765625 32.113281-3.660156 4.125-5.449219 9.578125-4.945313 15.070313.5 5.488281 3.253907 10.527343 7.601563 13.917968 14.777344 11.523438 34.277344 28.261719 54.933594 47.113282-12.28125 11.90625-24.527344 24.152343-36.433594 36.433593-19.097656-20.9375-35.605469-40.171875-47.121094-54.941406zm28.105469 197.570313c-4.335938 3.386718-7.082031 8.417968-7.585938 13.902343-.503906 5.480469 1.277344 10.925781 4.921875 15.050781 9.003906 10.175782 17.800782 20.742188 26.273438 31.546876l-35.195313 35.191406c-42.546875-33.28125-80.40625-71.113282-112.867187-112.789063l35.308594-35.308593c10.71875 8.335937 21.277343 17.113281 31.523437 26.210937 4.121094 3.660156 9.578125 5.453125 15.0625 4.953125 5.488281-.5 10.527344-3.246094 13.921875-7.589844 47.25-60.460937 138.144531-151.296875 198.484375-198.347656 4.34375-3.390625 7.09375-8.421875 7.601563-13.910156.503906-5.484375-1.28125-10.9375-4.933594-15.0625-8.925782-10.082032-17.574219-20.492188-25.828125-31.085938l35.304687-35.304687c41.242188 32.050781 79.066406 69.921875 112.753906 112.902343l-35.191406 35.191407c-10.988281-8.597657-21.742187-17.558594-32.113281-26.761719-4.125-3.660156-9.582031-5.457031-15.070313-4.949219-5.492187.503907-10.53125 3.253907-13.921874 7.601563-47.082032 60.378906-137.960938 151.308594-198.449219 198.558594zm0 0"/></svg>