<svg height="512pt" viewBox="0 0 512 512.001" width="512pt" xmlns="http://www.w3.org/2000/svg"><path d="m256 120c33.085938 0 60-26.914062 60-60s-26.914062-60-60-60c-33.082031 0-60 26.914062-60 60s26.917969 60 60 60zm0-80c11.027344 0 20 8.972656 20 20s-8.972656 20-20 20-20-8.972656-20-20 8.972656-20 20-20zm236 60c-11.046875 0-20 8.953125-20 20v19h-174.988281c-.015625 0-.027344 0-.042969 0h-81.808594c-.003906 0-.007812 0-.011718 0h-175.148438v-19c0-11.046875-8.953125-20-20-20s-20 8.953125-20 20v372c0 11.046875 8.953125 20 20 20s20-8.953125 20-20v-313h31.480469l45.867187 54.605469c7.621094 9.070312 18.78125 14.273437 30.628906 14.273437h.03125c11.855469-.011718 23.023438-5.230468 30.636719-14.320312l17.355469-20.722656v121.613281l-16.519531 63.726562c-4.007813 15.453125-.335938 32.03125 9.816406 44.351563l51.273437 62.195312c3.953126 4.796875 9.675782 7.277344 15.441407 7.277344 4.480469 0 8.984375-1.496094 12.710937-4.566406 8.523438-7.027344 9.734375-19.632813 2.710938-28.15625l-51.269532-62.191406c-2.03125-2.464844-2.765624-5.78125-1.964843-8.875l14.574219-56.210938h47.265624l14.945313 57.054688c.777344 2.96875.167969 6.078124-1.675781 8.535156l-6.308594 8.410156c-6.628906 8.835938-4.835938 21.371094 4 28 3.597656 2.699219 7.808594 4 11.984375 4 6.082031 0 12.085937-2.761719 16.015625-8l6.308594-8.410156c9.207031-12.273438 12.257812-27.828125 8.371094-42.671875l-17.679688-67.492188v-57.425781c0-11.046875-8.953125-20-20-20s-20 8.953125-20 20v38h-40v-133h51.574219l44.832031 54.34375c7.542969 9.140625 18.667969 14.441406 30.519531 14.539062.113281 0 .226563.003907.335938.003907 11.730469 0 22.804687-5.105469 30.425781-14.035157l46.804688-54.851562h31.507812v313c0 11.046875 8.953125 20 20 20s20-8.953125 20-20v-372c0-11.046875-8.953125-20-20-20zm-344.023438 107.878906-24.257812-28.878906h48.445312zm215.28125.007813-23.828124-28.886719h48.480468zm0 0"/></svg>