<svg height="512pt" viewBox="0 0 512.0002 512" width="512pt" xmlns="http://www.w3.org/2000/svg"><path d="m438 120c33.085938 0 60-26.914062 60-60 0-33.082031-26.914062-60-60-60-33.082031 0-60 26.917969-60 60 0 33.085938 26.917969 60 60 60zm0-80c11.027344 0 20 8.972656 20 20s-8.972656 20-20 20-20-8.972656-20-20 8.972656-20 20-20zm54 224h-68c-5.515625 0-10-4.484375-10-10v-63.945312c0-17.257813-7.433594-33.6875-20.398438-45.074219l-98.597656-86.628907c-9.898437-8.695312-22.589844-13.085937-35.746094-12.363281-13.152343.722657-25.289062 6.476563-34.113281 16.136719l-52.847656 57.316406c-7.488281 8.121094-6.976563 20.777344 1.144531 28.261719 8.121094 7.488281 20.777344 6.976563 28.261719-1.144531l52.914063-57.390625c3.644531-3.996094 9.921874-4.335938 13.984374-.769531l36.546876 32.113281-94.445313 105.503906c-21.980469 24.453125-20.082031 62.351563 4.234375 84.484375l28.097656 25.574219c.53125.605469 1.09375 1.195312 1.710938 1.746093.535156.480469 1.09375.914063 1.660156 1.324219l50.332031 45.804688c4.007813 3.644531 4.355469 9.925781.722657 14.0625l-69.542969 79.851562c-7.253907 8.328125-6.382813 20.964844 1.945312 28.21875 3.789063 3.300781 8.46875 4.917969 13.125 4.917969 5.585938 0 11.140625-2.324219 15.09375-6.867188l69.488281-79.789062c17.878907-20.351562 16.125-51.742188-3.910156-69.976562l-37.382812-34.023438 87.722656-98.238281v30.894531c0 27.570312 22.429688 50 50 50h68c11.046875 0 20-8.953125 20-20s-8.953125-20-20-20zm-250.136719 16.921875c-8.105469-7.378906-8.738281-20.015625-1.386719-28.195313l94.722657-105.8125 29.816406 26.195313-108.320313 121.308594zm-47.058593 55.605469c7.992187 7.625 8.292968 20.285156.667968 28.277344l-42.019531 44.046874c-9.785156 10.632813-23.296875 16.054688-36.855469 16.054688-11.710937 0-23.457031-4.046875-32.859375-12.269531l-76.785156-66.082031c-8.371094-7.207032-9.316406-19.835938-2.113281-28.207032 7.207031-8.375 19.835937-9.320312 28.207031-2.113281l76.855469 66.144531c.050781.046875.101562.089844.152344.136719 4.070312 3.574219 10.34375 3.226563 13.996093-.785156.101563-.113281.210938-.226563.320313-.34375l42.15625-44.191407c7.625-7.992187 20.285156-8.292968 28.277344-.667968zm0 0"/></svg>