<svg height="512pt" viewBox="-33 0 512 512" width="512pt" xmlns="http://www.w3.org/2000/svg"><path d="m425 234h-150c-6.074219 0-11.820312 2.761719-15.617188 7.507812l-31.410156 39.261719-69.652344-98.328125c-3.589843-5.070312-9.332031-8.183594-15.535156-8.425781-6.21875-.25-12.175781 2.410156-16.148437 7.179687l-44.003907 52.804688h-42.632812v-102c0-22.054688 17.945312-40 40-40h175c22.054688 0 40 17.945312 40 40v41c0 11.046875 8.953125 20 20 20s20-8.953125 20-20v-41c0-36.84375-25.046875-67.933594-59-77.183594v-34.816406c0-11.046875-8.953125-20-20-20s-20 8.953125-20 20v32h-136v-32c0-11.046875-8.953125-20-20-20s-20 8.953125-20 20v34.53125c-34.464844 8.902344-60 40.257812-60 77.46875v247c0 37.210938 25.535156 68.566406 60 77.46875v35.53125c0 11.046875 8.953125 20 20 20s20-8.953125 20-20v-33h136v33c0 11.046875 8.953125 20 20 20s20-8.953125 20-20v-35.816406c33.953125-9.25 59-40.335938 59-77.183594v-44c0-11.046875-8.953125-20-20-20s-20 8.953125-20 20v44c0 22.054688-17.945312 40-40 40h-175c-22.054688 0-40-17.945312-40-40v-105h52c5.9375 0 11.5625-2.636719 15.363281-7.195312l33.351563-40.019532 69.964844 98.777344c3.628906 5.125 9.457031 8.246094 15.734374 8.429688.195313.003906.390626.007812.585938.007812 6.066406 0 11.816406-2.753906 15.617188-7.503906l41.996093-52.496094h140.386719c11.046875 0 20-8.953125 20-20s-8.953125-20-20-20zm0 0"/></svg>