<svg height="512pt" viewBox="0 0 512 512" width="512pt" xmlns="http://www.w3.org/2000/svg"><path d="m387 223.386719v-203.386719c0-11.046875-8.953125-20-20-20s-20 8.953125-20 20v203.386719c-28.210938 3.910156-53.851562 15.957031-74.46875 33.699219-9.78125-18.015626-23.34375-34.007813-39.738281-46.496094-20.058594-15.277344-43.191407-24.863282-67.792969-28.230469v-162.359375c0-11.046875-8.953125-20-20-20s-20 8.953125-20 20v162.386719c-70.523438 9.773437-125 70.445312-125 143.613281 0 79.953125 65.046875 145 145 145 13.386719 0 26.652344-1.828125 39.429688-5.429688 10.628906-3 16.816406-14.046874 13.820312-24.679687-3-10.628906-14.050781-16.820313-24.679688-13.820313-9.242187 2.609376-18.855468 3.929688-28.570312 3.929688-57.898438 0-105-47.101562-105-105 0-51.058594 36.636719-93.714844 85-103.082031v8.082031c0 11.046875 8.953125 20 20 20s20-8.953125 20-20v-8.035156c35.898438 7.046875 66.308594 32.671875 78.847656 67.585937-13.839844 22.210938-21.847656 48.410157-21.847656 76.449219 0 79.953125 65.046875 145 145 145 18.550781 0 36.628906-3.460938 53.730469-10.285156 10.257812-4.097656 15.253906-15.730469 11.160156-25.988282-4.09375-10.261718-15.730469-15.257812-25.988281-11.164062-12.363282 4.933594-25.453125 7.4375-38.902344 7.4375-57.898438 0-105-47.101562-105-105 0-51.058594 36.636719-93.714844 85-103.082031v7.082031c0 11.046875 8.953125 20 20 20s20-8.953125 20-20v-7.082031c48.363281 9.367187 85 52.023437 85 103.082031 0 13.449219-2.503906 26.539062-7.4375 38.898438-4.09375 10.261718.902344 21.898437 11.164062 25.992187 10.253907 4.09375 21.890626-.902344 25.988282-11.164063 6.824218-17.097656 10.285156-35.171874 10.285156-53.726562 0-73.167969-54.476562-133.839844-125-143.613281zm0 0"/></svg>