<svg id="Capa_1" enable-background="new 0 0 512.032 512.032" height="512" viewBox="0 0 512.032 512.032" width="512" xmlns="http://www.w3.org/2000/svg"><g><g><path d="m344.156 189.099 56.041-.013c10.99-.003 19.897-8.914 19.895-19.904-.003-10.99-8.913-19.897-19.904-19.895l-42.498.01-3.474-43.132c-2.237-12.536-10.399-23.799-22.868-29.468-20.142-9.158-43.894-.254-53.052 19.888l-36.896 81.148z" fill="#ff7d99"/></g><circle cx="430.039" cy="318.155" fill="#33d7f6" r="71.993"/><circle cx="219.249" cy="318.155" fill="#33d7f6" r="71.993"/><path d="m246.627 204.414h-39.812c-11.613 0-21.028 9.414-21.028 21.028 0 11.613 9.414 21.028 21.028 21.028h39.812c11.613 0 21.028-9.414 21.028-21.028-.001-11.613-9.415-21.028-21.028-21.028z" fill="#ffdb85"/><g><path d="m241.401 177.731 97.232 10.938c7.236.944 13.643 5.145 17.395 11.404 3.751 6.26 4.434 13.891 1.853 20.718l-39.22 103.757c-3.612 9.556-12.696 15.442-22.34 15.443-2.806 0-5.659-.498-8.44-1.549-12.336-4.663-18.557-18.444-13.894-30.78l27.959-70.192-35.328-2.663c-28.186-2.126-42.625-34.808-25.217-57.076z" fill="#fff"/></g><path d="m139.42 340.482c-8.304 10.175-20.741 16.079-33.874 16.079h-39.808c-26.834 0-48.587 21.753-48.587 48.587 0 8.806 2.393 17.447 6.924 24.998l4.221 7.036-7.696 25.475 7.056 25.531c2.259 8.175 9.698 13.836 18.179 13.836 12.938 0 22.034-12.729 17.844-24.97l-3.485-10.18 9.879-9.954c9.9-9.975 13.845-24.41 10.397-38.034l-.28 27.495h61.218l30.192 46.969c3.475 5.406 9.461 8.674 15.887 8.674 14.238 0 23.356-15.156 16.685-27.735l-19.491-36.752c-2.8-5.28-2.5-11.667.783-16.661 12.846-19.541 13.639-44.638 2.053-64.951z" fill="#ffdb85"/><path d="m154.964 280.824h5.707c13.269 0 25.673 6.585 33.108 17.575l1.819 2.689c2.818 4.166 7.52 6.662 12.549 6.662h7.69c4.87 0 8.818 3.948 8.818 8.818v15.952c0 12.926-10.479 23.405-23.405 23.405h-12.937l-7.766-4.552" fill="#fff"/><g fill="#ffdb85"><path d="m154.964 280.824h5.707c13.269 0 25.673 6.585 33.108 17.575 3.956 5.848 10.555 9.351 17.615 9.351h3.472c5.406 0 9.788 4.382 9.788 9.788v14.981c0 12.926-10.479 23.405-23.405 23.405h-12.937l-48.893-12.036z"/><path d="m139.419 340.482c10.956 0 19.837-8.881 19.837-19.837v-39.821h-10.721c-15.99 0-28.953 12.963-28.953 28.953v10.868c.001 10.956 8.882 19.837 19.837 19.837z"/></g><circle cx="350.123" cy="45.795" fill="#ffd1c8" r="35.762"/><g><path d="m241.401 177.731 97.232 10.938c7.236.944 13.643 5.145 17.395 11.404 3.751 6.26 4.434 13.891 1.853 20.718l-39.22 103.757c-3.612 9.556-12.696 15.442-22.34 15.443-2.806 0-5.659-.498-8.44-1.549-12.336-4.663-18.557-18.444-13.894-30.78l27.959-70.192-35.328-2.663c-28.186-2.126-42.625-34.808-25.217-57.076z" fill="#7aa9bf"/></g><g><path d="m430.039 236.162c-2.534 0-5.037.133-7.513.359l-7.839-41.177c2.409-1.34 4.65-3.017 6.653-5.021 5.646-5.649 8.754-13.158 8.752-21.144-.001-7.986-3.113-15.494-8.762-21.14-5.647-5.645-13.153-8.753-21.139-8.753-.001 0-.004 0-.005 0l-33.27.008s-2.8-34.57-2.856-34.886c-.87-4.875-2.454-9.52-4.634-13.827 13.793-2.884 26.087-12.062 32.354-25.844 5.059-11.127 5.482-23.559 1.191-35.005s-12.782-20.535-23.91-25.594c-11.126-5.059-23.557-5.483-35.004-1.192-11.445 4.291-20.535 12.782-25.595 23.909-5.5 12.098-5.271 25.362-.472 36.736-16.449 2.275-31.432 12.653-38.8 28.854l-36.485 80.244c-4.638 6.298-7.5 13.386-8.498 20.726h-17.395c-17.108 0-31.027 13.919-31.027 31.028 0 7.65 2.789 14.657 7.395 20.072-12.164 5.958-22.825 14.927-30.883 26.31h-3.764c-21.479 0-38.953 17.474-38.953 38.953v10.868c0 9.058 4.062 17.18 10.455 22.657-4.463 2.123-9.396 3.259-14.492 3.259h-39.805c-14.084 0-27.021 4.998-37.137 13.31-8.138-11.239-10.749-25.674-6.729-39.34 1.559-5.299-1.474-10.857-6.772-12.416-5.295-1.558-10.856 1.473-12.415 6.772-6.251 21.253-1.398 43.824 12.63 60.479-5.178 8.734-8.163 18.914-8.163 29.782 0 10.616 2.887 21.039 8.349 30.143l1.943 3.239-6.415 21.236c-.546 1.808-.568 3.734-.065 5.555l7.056 25.531c3.446 12.466 14.885 21.172 27.817 21.172 9.298 0 18.076-4.517 23.482-12.081 5.405-7.565 6.834-17.332 3.822-26.128l-1.474-4.305 5.504-5.547c2.319-2.336 4.376-4.88 6.161-7.583h52.615l27.24 42.375c5.339 8.308 14.423 13.268 24.3 13.268 10.228 0 19.48-5.232 24.753-13.996 5.271-8.764 5.559-19.39.767-28.424l-19.49-36.751c-1.09-2.056-.974-4.54.305-6.483 5.601-8.521 9.235-17.891 10.887-27.523 4.777.856 9.635 1.303 14.541 1.303 17.922 0 34.947-5.679 49.235-16.423 11.568-8.698 20.708-20.484 26.325-33.748.084.002 32.621.013 32.621.013 5.522 0 10-4.477 10-10s-4.478-10-10-10h-.223c.283-.628 29.196-77.01 29.196-77.01h23.964c-19.626 14.995-32.321 38.625-32.321 65.175 0 45.211 36.782 81.993 81.993 81.993 1.721 0 3.459-.054 5.166-.161 5.513-.344 9.702-5.091 9.358-10.603-.344-5.513-5.079-9.706-10.604-9.358-1.294.081-2.613.122-3.921.122-34.184 0-61.993-27.81-61.993-61.993 0-25.957 16.042-48.225 38.727-57.446l10.848 56.98c.912 4.794 5.105 8.132 9.812 8.132.619 0 1.249-.058 1.881-.178 5.426-1.033 8.986-6.269 7.953-11.694l-10.978-57.663c1.242-.075 2.49-.124 3.75-.124 34.184 0 61.993 27.81 61.993 61.993 0 4.912-.574 9.796-1.707 14.519-1.289 5.371 2.021 10.769 7.391 12.057 5.368 1.288 10.77-2.021 12.057-7.391 1.5-6.249 2.26-12.704 2.26-19.185-.001-45.213-36.783-81.995-81.994-81.995zm-29.848-76.876c5.459-.001 9.9 4.438 9.901 9.897.001 2.645-1.028 5.13-2.897 7.001-1.869 1.87-4.355 2.9-7 2.901l-10.654.003 2.509-19.8zm-211.442 186.639-26.135-6.54c4.15-5.126 6.642-11.646 6.642-18.74v-28.557c6.543 1.954 12.31 6.105 16.24 11.915 5.823 8.608 15.505 13.748 25.897 13.748h3.261v14.77c0 7.392-6.014 13.405-13.405 13.405h-12.5zm26.117-48.174h-3.473c-3.745 0-7.233-1.852-9.332-4.954-6.271-9.27-15.347-16.009-25.679-19.428 11.427-10.938 26.714-17.206 42.865-17.206 21.587 0 41.49 11.197 52.761 29.438l-5.619 14.108c-10.533 7.259-21.223 13.496-31.735 18.211v-.38c.001-10.912-8.876-19.789-19.788-19.789zm54.937-52.676 17.813 1.343-6.941 17.427c-4.773-5.398-10.208-10.108-16.146-14.042 1.918-1.359 3.689-2.938 5.274-4.728zm40.623-12.903c-1.686-2.7-4.556-4.436-7.729-4.675l-35.328-2.663c-9.496-.716-17.462-6.343-21.311-15.054-3.119-7.062-2.919-14.76.395-21.418l90.963 10.233c4.199.571 7.854 2.98 10.033 6.618 2.193 3.661 2.586 8.05 1.077 12.042l-2 5.293c-12.8 16.797-29.818 35.424-48.692 52.268l13.402-33.646c1.176-2.957.877-6.298-.81-8.998zm16.245-197.04c4.312-9.485 13.692-15.098 23.489-15.098 3.561 0 7.178.742 10.625 2.31 6.265 2.848 11.045 7.965 13.46 14.409 2.416 6.443 2.178 13.441-.671 19.706-5.88 12.932-21.183 18.666-34.115 12.789-12.93-5.881-18.668-21.185-12.788-34.116zm-39.271 65.591c6.861-15.09 24.72-21.784 39.811-14.924 8.87 4.033 15.228 12.116 17.079 21.682l3.434 42.618c.419 5.195 4.756 9.198 9.968 9.197h.002l14.196-.003-2.509 19.8-25.225.006c-1.425 0-2.804-.298-4.096-.885-2.352-1.069-4.169-2.98-5.116-5.382-.156-.394-14.938-27.305-14.938-27.305-2.663-4.839-8.745-6.6-13.583-3.938-4.838 2.663-6.602 8.745-3.938 13.583l11.365 20.647-57.644-6.485zm-80.585 112.691h19.27c.489 1.494 1.031 2.981 1.679 4.449 3.153 7.138 7.867 13.099 13.668 17.606h-34.617c-6.08 0-11.027-4.947-11.027-11.027s4.947-11.028 11.027-11.028zm-77.233 96.363c0-10.451 8.502-18.953 18.953-18.953h.721v29.821c0 5.424-4.413 9.837-9.837 9.837s-9.837-4.413-9.837-9.837zm65.755 169.197c2.125 4.006.543 7.45-.236 8.744-.778 1.294-3.079 4.306-7.614 4.306-3.038 0-5.833-1.525-7.476-4.082l-30.192-46.969c-1.84-2.862-5.01-4.593-8.412-4.593h-50.357c1.029-6.566.783-13.354-.886-19.949-1.356-5.355-6.798-8.597-12.148-7.24-5.354 1.355-8.596 6.795-7.24 12.148 2.572 10.161-.416 21.095-7.8 28.536l-9.879 9.955c-2.68 2.699-3.595 6.685-2.363 10.283l3.485 10.181c.938 2.74.511 5.664-1.173 8.021-1.685 2.357-4.312 3.709-7.21 3.709-3.971 0-7.482-2.673-8.54-6.5l-6.286-22.744 6.859-22.707c.815-2.7.453-5.618-.998-8.037l-4.222-7.036c-3.598-5.996-5.499-12.861-5.499-19.853 0-21.277 17.31-38.587 38.587-38.587h39.808c12.642 0 24.643-4.399 34.179-12.287l41.001 10.26c7.731 16.386 6.46 35.52-3.617 50.849-5.289 8.046-5.773 18.331-1.262 26.839zm23.911-98.825c-4.743 0-9.426-.543-13.988-1.594-.491-4.267-1.37-8.504-2.635-12.664 15.278-.623 27.935-11.552 31.201-26.007 10.232-3.849 20.28-8.925 29.883-14.667 1.989 7.083 6.256 13.454 12.28 17.98-9.799 22.372-31.766 36.952-56.741 36.952zm77.068-50.158c-1.666 0-3.315-.304-4.9-.903-6.712-2.537-10.312-9.751-8.505-16.543 17.906-12.912 33.207-26.907 43.682-37.265l-17.287 45.733c-2.029 5.37-7.248 8.977-12.987 8.978-.002 0-.003 0-.003 0zm67.911-97.707c9.005-12.102 16.099-23.521 20.518-33.195l10.297-.003 6.453 33.894h-37.531z"/><circle cx="476.363" cy="373.266" r="10"/></g></g></svg>