<svg id="Capa_1" enable-background="new 0 0 512.023 512.023" height="512" viewBox="0 0 512.023 512.023" width="512" xmlns="http://www.w3.org/2000/svg"><g><g><circle cx="122.296" cy="73.481" fill="#ffd1c8" r="36.551"/></g><g><path d="m214.303 217.664-53.522-39.373v50.498l29.418 21.641c9.048 6.656 21.779 4.717 28.435-4.331 1.679-2.282 2.811-4.798 3.42-7.393 1.805-7.691-.985-16.065-7.751-21.042z" fill="#ff7d99"/></g><g><circle cx="260.932" cy="377.129" fill="#33d7f6" r="97.382"/></g><g><path d="m75.019 242.227-14.56 100.585-46.599 72.825c-7.265 11.354-3.951 26.447 7.403 33.712 4.074 2.607 8.629 3.851 13.132 3.851 8.046 0 15.923-3.975 20.581-11.255l49.123-76.77c1.668-2.607 2.825-5.507 3.409-8.546l12.223-63.558 14.324 59.49-12.497 94.334c-1.77 13.362 7.627 25.63 20.989 27.4 1.088.145 2.167.215 3.236.215 12.053 0 22.538-8.929 24.164-21.204l13.094-98.837c.394-2.976.236-6-.467-8.918l-21.793-103.325h-85.762z" fill="#7aa9bf"/></g><g><path d="m236.725 155.353c-5.47-9.811-17.856-13.331-27.667-7.861l-37.938 21.15-10.339-8.473v-7.114c0-23.683-19.198-42.881-42.881-42.881-23.683 0-42.881 19.198-42.881 42.881v89.173h85.762v-30.462c3.099 1.356 6.472 1.926 9.815 1.652 2.838-.232 5.649-1.062 8.241-2.506l50.028-27.89c9.81-5.471 13.33-17.858 7.86-27.669z" fill="#ff7d99"/></g><g><g><g><path d="m341.628 330.259 60.712 55.954" fill="#fff"/></g><g><path d="m382.243 278.889c-6.903-8.631-5.503-21.224 3.128-28.127l33.341-25.88 6.755 8.446c10.076 12.597 8.031 30.977-4.566 41.053l-8.562 6.848c-8.63 6.903-23.193 6.291-30.096-2.34z" fill="#fff"/></g><g><path d="m382.243 278.889c-6.903-8.631-5.503-21.224 3.128-28.127l33.341-25.88 6.755 8.446c10.076 12.597 8.031 30.977-4.566 41.053l-8.562 6.848c-8.63 6.903-23.193 6.291-30.096-2.34z" fill="#fff"/></g></g><g><g><path d="m471.375 354.623-59.035-73.394 9.681-52.21-3.098-3.873c-8.273-10.344-21.112-16.313-34.301-15.094-6.756.624-13.365-2.191-17.595-7.48-3.024-3.781-8.54-4.394-12.32-1.37l-7.083 5.665c-9.908 7.924-11.515 22.38-3.591 32.288l11.31 14.14c3.556 4.446 4.64 10.382 2.884 15.798-3.15 9.717-12.31 15.61-21.745 15.272-5.874-1.628-9.653-2.685-9.653-2.685-4.581-2.533-9.013-5.358-13.267-8.463-4.658-3.4-9.489-6.927-14.1-10.293-11.305-8.254-27.33-1.498-29.327 12.396l-.071.492c-.852 5.926 1.369 11.878 5.894 15.798l12.662 10.958c9.672 8.37 31.966 21.058 53.008 27.692l.001.001 60.712 55.953s.382.63 1.05 1.667c-7.703 16.374-9.543 35.068-4.914 52.857l5.492 21.107c2.03 7.803 9.075 13.249 17.137 13.249 9.78 0 17.708-7.928 17.708-17.708v-23.261c0-7.723 5.124-14.509 12.553-16.623 5.535-1.575 10.661-4.338 15.018-8.097 16.152-13.933 18.36-38.16 4.99-54.782z" fill="#ffdb85"/></g><g><path d="m382.243 278.889c-6.903-8.631-5.503-21.224 3.128-28.127l33.341-25.88 6.755 8.446c10.076 12.597 8.031 30.977-4.566 41.053l-8.562 6.848c-8.63 6.903-23.193 6.291-30.096-2.34z" fill="#ffdb85"/></g></g></g><g><g><path d="m261.151 269.75c-.018 0-.036 0 0 0z"/><path d="m506.017 323.478c-2.839-4.738-8.98-6.278-13.717-3.441-4.738 2.838-6.278 8.979-3.441 13.717 4.855 8.106 3.048 17.695 1.54 22.689-.737 2.439-1.721 4.816-2.874 7.05-1.829-5.342-4.603-10.47-8.358-15.138l-52.75-65.581.731-.584c16.883-13.503 19.633-38.225 6.129-55.109 0 0-6.98-8.7-7.093-8.827-10.626-12.858-26.446-19.647-42.483-18.161-3.414.315-6.726-1.093-8.866-3.769-3.131-3.914-7.599-6.375-12.58-6.929-4.983-.553-9.882.865-13.796 3.996l-7.083 5.665c-6.878 5.501-11.202 13.351-12.175 22.104-.974 8.753 1.52 17.361 7.021 24.239l11.31 14.141c1.46 1.826 1.902 4.244 1.181 6.468-1.119 3.453-3.701 6.199-7.082 7.534-3.332 1.316-6.869 1.098-9.963-.614-4.21-2.329-8.319-4.949-12.21-7.79l-14.099-10.292c-8.165-5.961-18.6-7.178-27.917-3.254-8.012 3.375-13.876 10.001-16.29 18.158.018 0 .036 0 0 0-29.548 0-57.409 11.958-77.44 32.74l-11.089-52.576 11.651 8.571c5.267 3.875 11.496 5.907 17.914 5.907 1.537 0 3.084-.117 4.632-.352 8.011-1.22 15.068-5.487 19.87-12.015 2.447-3.326 4.163-7.039 5.101-11.034 2.782-11.852-1.756-24.171-11.59-31.403l-7.99-5.834 21.524-11.999c7.078-3.946 12.196-10.412 14.41-18.208 2.215-7.795 1.262-15.986-2.685-23.064-8.146-14.61-26.66-19.872-41.271-11.726l-31.994 17.836-1.414-1.158v-2.38c0-17.157-8.218-32.425-20.919-42.092 11.504-8.484 18.984-22.123 18.984-37.481 0-25.668-20.883-46.551-46.551-46.551s-46.55 20.883-46.55 46.551c0 13.513 5.792 25.695 15.019 34.207-15.409 9.252-25.745 26.123-25.745 45.367v88.451l-14.147 97.736-45.435 71.004c-4.953 7.741-6.596 16.948-4.625 25.924 1.971 8.977 7.32 16.648 15.062 21.602 5.549 3.551 11.954 5.428 18.521 5.428 11.805 0 22.647-5.931 29.004-15.865l49.123-76.77c2.362-3.69 3.979-7.744 4.806-12.047l3.497-18.183 3.072 12.759-12.253 92.489c-2.491 18.807 10.783 36.135 29.586 38.626 1.505.2 3.038.301 4.554.301 17.169 0 31.819-12.851 34.077-29.89l.811-6.12c20.059 22.588 48.965 35.944 80.029 36.01h.021c5.513 0 9.988-4.463 10-9.979.012-5.522-4.456-10.009-9.979-10.021-31.804-.067-60.825-17.261-76.231-44.996l8.443-63.73c.552-4.162.342-8.341-.622-12.424l-3.341-15.842c16.359-23.706 43.033-37.77 71.941-37.77.479 0 .959.022 1.439.03 1.618 3.537 3.99 6.748 7.043 9.392l12.662 10.958c8.881 7.686 34.872 25.545 59.972 34.512 4.141 10.32 6.266 21.232 6.266 32.489 0 18.98-5.979 37.028-17.292 52.192-3.302 4.427-2.391 10.692 2.036 13.995 1.795 1.339 3.892 1.985 5.972 1.985 3.049 0 6.06-1.39 8.023-4.021 13.909-18.646 21.261-40.828 21.261-64.151 0-3.029-.131-6.038-.378-9.025l23.709 21.85c-6.392 16.868-7.493 35.443-2.847 53.3l5.492 21.107c3.176 12.206 14.203 20.73 26.815 20.73 15.278 0 27.708-12.43 27.708-27.708v-23.261c0-3.238 2.175-6.119 5.291-7.005 6.885-1.959 13.391-5.467 18.812-10.143 7.873-6.791 13.098-15.471 15.584-24.771 9.322-6.102 17.175-17.171 21.044-29.977 4.254-14.085 3.002-27.847-3.528-38.749zm-293.698-87.057c-.317 1.352-.903 2.614-1.74 3.752-1.636 2.224-4.041 3.678-6.771 4.094-2.729.414-5.458-.256-7.683-1.893l-25.344-18.965c.21-.013.419-.008.629-.026 4.347-.355 8.483-1.613 12.295-3.739l9.272-5.169 15.399 11.244c3.345 2.459 4.892 6.66 3.943 10.702zm-90.023-189.49c14.64 0 26.551 11.911 26.551 26.551s-11.911 26.551-26.551 26.551-26.55-11.911-26.55-26.551 11.91-26.551 26.55-26.551zm-37.277 106.124c0-18.131 14.75-32.881 32.881-32.881 15.522 0 28.557 10.814 31.99 25.302-1.372.614-2.629 1.537-3.647 2.778-3.501 4.271-2.876 10.572 1.396 14.073l17.143 14.049c3.176 2.603 7.62 3 11.208 1l37.938-21.15c4.98-2.775 11.288-.984 14.064 3.996 1.345 2.412 1.669 5.203.915 7.859-.755 2.656-2.499 4.86-4.911 6.205l-50.028 27.891c-1.299.724-2.708 1.153-4.187 1.273-2.684.221-5.316-.6-7.401-2.308l-32.466-26.608c-4.271-3.501-10.572-2.876-14.073 1.396s-2.876 10.572 1.396 14.073c0 0 33.186 27.148 33.545 27.418v14.806h-65.763zm88.108 200.102-13.094 98.837c-.945 7.135-7.071 12.516-14.25 12.517-.638 0-1.284-.043-1.923-.128-7.874-1.043-13.432-8.298-12.389-16.173l12.497-94.333c.161-1.22.097-2.458-.191-3.654l-14.324-59.491c-1.103-4.577-5.234-7.749-9.954-7.657-4.707.109-8.7 3.486-9.589 8.109l-12.222 63.558c-.347 1.802-1.024 3.499-2.013 5.044l-49.123 76.77c-2.662 4.16-7.207 6.644-12.157 6.644-2.74 0-5.417-.787-7.742-2.274-6.691-4.281-8.651-13.208-4.37-19.899l46.599-72.824c.767-1.199 1.27-2.548 1.474-3.957l13.32-92.018h68.994s20.16 95.575 20.182 95.667c.416 1.728.509 3.499.275 5.262zm244.531-113.583c6.615 8.271 5.268 20.383-3.003 26.998l-8.562 6.848c-4.571 3.655-12.816 3.256-16.042-.776-3.435-4.296-2.75-10.579 1.519-14.035l25.488-19.784zm-68.579-16.202c.383-3.444 2.084-6.532 4.79-8.696l6.139-4.91c6.362 7.327 15.819 11.144 25.534 10.243 6.165-.568 12.305.99 17.611 4.292l-23.914 18.562c-.038.03-.077.06-.114.09-5.436 4.348-8.95 10.217-10.436 16.518-.74-4.474-2.605-8.757-5.538-12.424l-11.31-14.141c-2.164-2.704-3.145-6.091-2.762-9.534zm110.774 178.46c-3.234 2.79-7.116 4.882-11.224 6.051-11.667 3.32-19.816 14.111-19.816 26.241v23.261c0 4.25-3.458 7.708-7.708 7.708-3.508 0-6.576-2.372-7.459-5.767l-5.492-21.107c-5.069-19.481-1.296-40.069 10.351-56.487 3.196-4.504 2.135-10.747-2.37-13.942-4.504-3.195-10.746-2.135-13.942 2.37-.333.469-.654.944-.977 1.418l-25.494-23.496c2.695-1.92 4.386-5.127 4.197-8.676-.294-5.515-5.01-9.762-10.518-9.454-19.779 1.062-59.308-22.028-74.237-34.947l-12.658-10.955c-1.962-1.7-2.877-4.496-2.509-7.062.626-4.36 3.862-6.397 5.208-6.964 1.34-.564 4.836-1.598 8.359.975l14.102 10.294c4.564 3.332 9.384 6.406 14.323 9.137 8.294 4.588 18.131 5.212 26.987 1.714 8.956-3.536 15.794-10.814 18.762-19.968.163-.503.307-1.009.44-1.516.729 5.133 2.789 10.142 6.255 14.476 5.716 7.147 14.716 10.858 23.873 10.858 3.867 0 7.755-.687 11.442-2.032l53.834 66.929c10.046 12.489 8.408 30.472-3.729 40.941z"/></g><circle cx="304.539" cy="464.224" r="10"/></g></g></svg>