<svg id="Capa_1" enable-background="new 0 0 512.032 512.032" height="512" viewBox="0 0 512.032 512.032" width="512" xmlns="http://www.w3.org/2000/svg"><g><g fill="#7aa9bf"><path d="m152.87 308.724c5.353 15.798 1.352 33.264-10.345 45.156l-72.553 73.764c-5.028 5.112-11.672 7.675-18.318 7.676-6.504.001-13.011-2.454-18.014-7.375-10.116-9.95-10.251-26.217-.301-36.332l45.222-46.006h-20.775c-26.392 0-47.786-21.395-47.786-47.786v-19.098h101.028c18.936 0 35.765 12.067 41.842 30.001z"/><path d="m78.561 345.607 8.764-8.917"/></g><circle cx="98.368" cy="115.188" fill="#ffd1c8" r="38.476"/><g fill="#ffdb85"><path d="m372.869 273.776c8.304 10.175 20.742 16.079 33.875 16.079h39.808c26.834 0 48.588 21.754 48.588 48.588 0 8.806-2.393 17.447-6.924 24.998l-4.221 7.036 7.696 25.476-7.056 25.531c-2.259 8.175-9.698 13.837-18.179 13.837-12.938 0-22.035-12.73-17.844-24.97l3.486-10.181-9.879-9.954c-9.9-9.975-13.846-24.41-10.397-38.035l.28 27.496h-61.219l-30.192 46.97c-3.475 5.406-9.461 8.674-15.888 8.674-14.239 0-23.357-15.157-16.686-27.736l19.491-36.752c2.8-5.28 2.5-11.667-.783-16.662-12.846-19.541-13.639-44.638-2.053-64.952z"/><path d="m357.325 214.117h-5.707c-13.269 0-25.673 6.585-33.108 17.575-3.956 5.848-10.556 9.351-17.616 9.351-7.324 0-13.261 5.937-13.261 13.261v11.509c0 12.926 10.479 23.405 23.405 23.405h12.937l51.373-12.657z"/><path d="m372.869 273.776c-10.956 0-19.837-8.881-19.837-19.837v-39.822h10.721c15.991 0 28.954 12.963 28.954 28.954v10.868c0 10.955-8.882 19.837-19.838 19.837z"/></g><path d="m162.87 235.903h-57.278l-7.224-13.113v-42.967c0-18.768-15.215-33.983-33.983-33.983-30.036 0-54.385 24.349-54.385 54.385v78.498h152.87c11.824 0 21.41-9.585 21.41-21.41 0-11.824-9.585-21.41-21.41-21.41z" fill="#fff"/><path d="m232.203 254.08-28.59-49.52c5.204-6.483 6.212-15.74 1.805-23.372-5.733-9.93-18.431-13.333-28.361-7.599-4.098 2.366-7.063 5.927-8.754 9.981-4.357-.563-8.923.225-13.021 2.591-9.93 5.733-13.333 18.431-7.599 28.361 4.407 7.633 12.927 11.388 21.143 10.123l28.59 49.52c-5.204 6.484-6.212 15.739-1.805 23.372 5.733 9.93 18.431 13.333 28.361 7.599 4.098-2.366 7.063-5.927 8.754-9.981 4.357.563 8.923-.225 13.021-2.591 9.93-5.733 13.333-18.431 7.599-28.361-4.407-7.633-12.927-11.388-21.143-10.123z" fill="#fff"/><g><path d="m505.141 338.443c0-10.945-3.024-21.194-8.27-29.968 13.909-16.637 18.706-39.12 12.478-60.294-1.559-5.297-7.116-8.333-12.415-6.772-5.299 1.559-8.331 7.117-6.772 12.416 4.004 13.613 1.429 27.992-6.635 39.212-10.092-8.233-22.964-13.181-36.974-13.181h-39.809c-5.096 0-10.03-1.135-14.493-3.259 6.393-5.477 10.456-13.599 10.456-22.657v-10.868c0-21.479-17.475-38.954-38.954-38.954h-12.136c-16.61 0-32.083 8.214-41.392 21.973-2.098 3.102-5.587 4.954-9.332 4.954-12.826 0-23.261 10.435-23.261 23.261v11.509c0 17.959 14.246 32.646 32.03 33.37-6.143 20.218-3.155 42.285 8.805 60.48 1.278 1.944 1.395 4.429.305 6.483l-19.491 36.752c-4.791 9.035-4.504 19.662.768 28.425 5.272 8.764 14.526 13.996 24.753 13.996 9.876 0 18.96-4.959 24.3-13.267l27.24-42.377h52.617c1.785 2.703 3.843 5.247 6.161 7.583l5.504 5.547-1.474 4.305c-3.012 8.796-1.583 18.563 3.822 26.128 5.406 7.565 14.185 12.081 23.482 12.081 12.934 0 24.372-8.707 27.818-21.173l7.056-25.531c.503-1.821.48-3.747-.065-5.555l-6.415-21.237 1.941-3.238c5.464-9.104 8.352-19.528 8.352-30.144zm-142.109-114.326h.721c10.451 0 18.954 8.502 18.954 18.954v10.868c0 5.424-4.413 9.837-9.838 9.837-5.424 0-9.837-4.413-9.837-9.837zm-51.994 55.102c-7.392 0-13.405-6.014-13.405-13.405v-11.509c0-1.798 1.463-3.261 3.261-3.261 10.395 0 20.076-5.14 25.897-13.748 3.931-5.81 9.698-9.961 16.241-11.915v28.558c0 7.094 2.493 13.614 6.642 18.74l-26.135 6.54zm163.384 94.149 6.859 22.708-6.285 22.744c-1.058 3.827-4.57 6.5-8.541 6.5-2.897 0-5.525-1.352-7.21-3.709-1.684-2.357-2.111-5.281-1.173-8.022l3.485-10.181c1.231-3.598.316-7.583-2.363-10.283l-9.879-9.955c-7.384-7.439-10.373-18.374-7.801-28.537 1.355-5.354-1.887-10.793-7.241-12.148-5.353-1.356-10.793 1.887-12.147 7.241-1.669 6.596-1.914 13.384-.886 19.949h-50.358c-3.402 0-6.572 1.73-8.412 4.593l-30.192 46.97c-1.643 2.556-4.438 4.081-7.476 4.081-4.535 0-6.836-3.011-7.615-4.306-.778-1.294-2.36-4.738-.236-8.745l19.492-36.753c4.511-8.508 4.027-18.792-1.262-26.839-10.078-15.33-11.349-34.464-3.617-50.85l41-10.26c9.536 7.888 21.537 12.288 34.18 12.288h39.809c21.277 0 38.588 17.311 38.588 38.588 0 6.992-1.901 13.857-5.5 19.854l-4.221 7.036c-1.451 2.419-1.814 5.337-.998 8.036z"/><path d="m237.886 243.923-22.636-39.206c4.296-9 3.988-19.59-1.172-28.529-8.481-14.689-27.332-19.74-42.022-11.259-3.806 2.197-7.03 5.119-9.543 8.615-4.283.428-8.427 1.76-12.232 3.957-14.688 8.481-19.74 27.332-11.26 42.022 1.373 2.377 3.025 4.508 4.888 6.381h-32.408l-3.133-5.686v-40.394c0-5.886-1.171-11.501-3.277-16.636 23.558-3.284 41.754-23.551 41.754-47.999 0-26.73-21.746-48.476-48.477-48.476-26.729 0-48.476 21.746-48.476 48.476 0 7.663 1.794 14.912 4.974 21.361-31.004 4.613-54.866 31.407-54.866 63.675v97.596c0 30.855 24.312 56.141 54.784 57.708l-28.574 29.071c-6.686 6.797-10.324 15.791-10.245 25.324s3.865 18.465 10.662 25.15c6.718 6.607 15.604 10.246 25.021 10.246h.006c9.646 0 18.684-3.788 25.447-10.664l9.424-9.582c3.872-3.938 3.819-10.269-.118-14.142-3.938-3.875-10.269-3.82-14.142.117l-9.424 9.582c-2.973 3.023-6.946 4.688-11.19 4.688-.001 0-.001 0-.002 0-4.139 0-8.045-1.6-10.998-4.504-2.988-2.939-4.652-6.866-4.688-11.058-.034-4.191 1.565-8.145 4.507-11.135l53.986-54.922c3.871-3.939 3.816-10.27-.122-14.142-3.939-3.873-10.271-3.816-14.142.121l-5.826 5.927h-16.58c-20.835.001-37.786-16.95-37.786-37.785v-9.098h91.028c14.657 0 27.666 9.327 32.371 23.209 4.165 12.295 1.099 25.681-8.004 34.936-3.873 3.937-3.821 10.269.116 14.142 3.939 3.873 10.27 3.82 14.142-.117 14.43-14.669 19.291-35.889 12.688-55.378-2.113-6.234-5.284-11.888-9.27-16.791h9.799c7.852 0 15.034-2.903 20.546-7.682-1.473 7.184-.331 14.803 3.534 21.496 4.107 7.116 10.741 12.207 18.679 14.333 2.649.71 5.339 1.062 8.012 1.062 5.33 0 10.591-1.398 15.332-4.135 3.805-2.197 7.029-5.119 9.542-8.615 4.283-.428 8.427-1.76 12.232-3.957 14.688-8.481 19.74-27.332 11.26-42.022-5.161-8.94-14.179-14.502-24.121-15.281zm-139.518-157.211c15.702 0 28.477 12.774 28.477 28.476s-12.774 28.476-28.477 28.476c-15.701 0-28.476-12.774-28.476-28.476s12.775-28.476 28.476-28.476zm64.502 182.011h-69.926c-4.158 0-7.987-2.263-9.994-5.904l-24.299-44.104c-2.666-4.837-8.749-6.597-13.584-3.933-4.838 2.665-6.599 8.747-3.934 13.584l22.235 40.357h-43.368v-68.498c0-24.474 19.911-44.385 44.385-44.385 13.225 0 23.983 10.759 23.983 23.983v10.519c-2.4-.635-5.036-.392-7.381.9-4.838 2.666-6.599 8.747-3.934 13.584l19.78 35.901c1.759 3.192 5.114 5.174 8.759 5.174h57.277c6.292 0 11.41 5.118 11.41 11.41s-5.117 11.412-11.409 11.412zm77.877 15.181c-2.578 1.488-5.087 1.546-6.741 1.333-4.47-.582-8.774 1.907-10.51 6.067-.641 1.538-1.946 3.683-4.524 5.171-2.488 1.437-5.388 1.82-8.167 1.075-2.776-.744-5.097-2.524-6.534-5.015-2.231-3.864-1.861-8.618.943-12.112 2.581-3.216 2.924-7.688.861-11.26l-28.591-49.52c-1.805-3.125-5.125-5-8.657-5-.505 0-1.015.039-1.524.117-4.426.686-8.731-1.375-10.962-5.239-2.967-5.139-1.199-11.734 3.938-14.701 2.579-1.488 5.088-1.547 6.742-1.334 4.464.575 8.773-1.908 10.51-6.067.641-1.538 1.946-3.683 4.524-5.171 5.14-2.967 11.735-1.199 14.702 3.938 2.23 3.865 1.86 8.62-.944 12.113-2.581 3.216-2.924 7.688-.861 11.26l28.591 49.52c2.062 3.572 6.106 5.508 10.182 4.884 4.436-.682 8.731 1.376 10.962 5.239 2.966 5.14 1.199 11.735-3.94 14.702z"/><circle cx="110.939" cy="385.978" r="10"/></g></g></svg>