<svg id="Capa_1" enable-background="new 0 0 512.01 512.01" height="512" viewBox="0 0 512.01 512.01" width="512" xmlns="http://www.w3.org/2000/svg"><g><path d="m64.872 251.623-8.926 106.294-43.32 91.376c-5.734 12.095-.577 26.548 11.517 32.282 3.353 1.589 6.886 2.342 10.365 2.342 9.072 0 17.771-5.118 21.916-13.859l45.208-95.357c1.248-2.633 2.011-5.469 2.253-8.373l6.367-76.543 32.857 75.255-9.767 91.773c-1.417 13.31 8.225 25.248 21.535 26.665.872.093 1.737.138 2.595.138 12.234 0 22.746-9.235 24.07-21.673l10.446-98.154c.445-4.182-.206-8.408-1.888-12.262l-40.101-99.902h-85.127z" fill="#7aa9bf"/><path d="m419.073 347.248c-9.496-3.1-17.893-8.881-24.177-16.647l-20.334-25.128-39.581-65.167-5.837 1.258c-14.829 3.195-27.106 13.541-32.768 27.614-2.857 7.1-9.051 12.319-16.532 13.931-5.413 1.166-8.856 6.5-7.69 11.913l2.185 10.142c3.057 14.186 17.035 23.208 31.221 20.152l18.149-3.91-6.586 1.685c-11.216 22.235-9.775 48.885 4.005 69.846 3.69 5.614 4.028 12.793.88 18.728l-21.908 41.31c-7.499 14.139 2.751 31.176 18.755 31.176 7.224 0 13.952-3.673 17.858-9.75l15.188-24.041h.241c-2.462 3.498-3.92 7.753-3.92 12.355 0 11.878 9.629 21.508 21.508 21.508h27.555c38.782 0 70.22-31.439 70.22-70.221 0-30.386-19.545-57.325-48.432-66.754z" fill="#ffdb85"/><circle cx="131.75" cy="64.447" fill="#ffd1c8" r="36.661"/><path d="m266.728 163.012c-9.16-6.175-21.589-3.753-27.764 5.406l-4.168 6.184-79.526-39.385c-6.131-19.759-24.554-34.109-46.329-34.109-26.786 0-48.501 21.715-48.501 48.501v102.014h97.002v-70.693l75.283 37.284c2.84 1.407 5.87 2.08 8.864 2.08 6.471 0 12.768-3.144 16.597-8.824l13.948-20.695c6.173-9.16 3.753-21.59-5.406-27.763z" fill="#fff"/><path d="m60.439 149.609c0-14.557 6.422-27.606 16.576-36.496l.006-.034-37.269 32.292c-3.249 2.58-5.631 6.093-6.826 10.066l-22.051 73.322c-3.234 10.753 2.861 22.091 13.614 25.325 2.713.816 5.462 1.038 8.109.742 7.848-.879 14.798-6.316 17.216-14.356l10.624-35.324v-55.537z" fill="#fff"/><path d="m365.934 304.056c-12.358 2.663-24.535-5.197-27.198-17.555l-9.678-44.919 12.093-2.606c18.037-3.886 35.81 7.585 39.697 25.623l2.641 12.259c2.663 12.358-5.197 24.535-17.555 27.198z" fill="#ffdb85"/><g><path d="m266.478 217.058 13.949-20.695c9.244-13.717 5.606-32.399-8.109-41.644-13.356-9.003-31.42-5.789-40.899 7.051l-68.079-33.716c-3.117-7.908-7.82-14.853-13.673-20.528 16.862-7.039 28.745-23.695 28.745-43.079 0-25.729-20.932-46.661-46.66-46.661s-46.662 20.932-46.662 46.661c0 10.683 3.617 20.532 9.679 28.406-8.783 2.194-16.783 6.378-23.498 12.044-.274.193-.541.401-.799.625l-37.124 32.166c-4.774 3.853-8.229 8.989-9.998 14.87l-22.05 73.32c-2.334 7.758-1.507 15.961 2.329 23.097s10.222 12.352 17.98 14.685c2.86.86 5.783 1.292 8.727 1.292 1.123 0 2.249-.063 3.376-.189 6.898-.773 13.134-3.845 17.875-8.497.642 1.221 1.528 2.292 2.595 3.15l-8.05 95.856-42.543 89.737c-8.086 17.058-.787 37.515 16.27 45.602 4.628 2.194 9.557 3.306 14.649 3.306 13.165 0 25.314-7.684 30.951-19.575l3.444-7.264c2.367-4.99.239-10.954-4.751-13.32-4.99-2.367-10.953-.238-13.319 4.751l-3.445 7.264c-2.345 4.947-7.401 8.144-12.88 8.144-2.106 0-4.152-.464-6.081-1.378-7.093-3.362-10.128-11.869-6.766-18.962l43.32-91.375c.514-1.084.828-2.251.929-3.447l8.156-97.131h69.17l37.582 93.627c.037.092.075.185.115.276.987 2.261 1.371 4.751 1.109 7.203l-10.445 98.153c-.773 7.258-6.847 12.731-14.127 12.731-.508 0-1.025-.028-1.536-.082-7.806-.831-13.48-7.857-12.65-15.662l9.768-91.773c.185-1.726-.084-3.469-.778-5.06l-32.856-75.254c-1.833-4.198-6.292-6.615-10.801-5.864-4.519.749-7.95 4.472-8.33 9.036l-6.368 76.545c-.142 1.709-.587 3.364-1.323 4.916l-3.203 6.756c-2.366 4.99-.238 10.954 4.752 13.32 4.994 2.368 10.955.239 13.32-4.751l3.203-6.756c1.77-3.734 2.841-7.713 3.183-11.827l3.084-37.075 15.95 36.532-9.488 89.14c-1.997 18.771 11.65 35.669 30.422 37.667 1.212.129 2.44.194 3.652.194 17.533 0 32.156-13.161 34.015-30.615l10.445-98.153c.622-5.842-.277-11.776-2.603-17.172l-35.476-88.38c2.192-1.834 3.588-4.588 3.588-7.67v-54.581l60.845 30.133c4.118 2.04 8.719 3.119 13.303 3.119 9.998-.004 19.303-4.951 24.89-13.239zm-216.039-67.449v54.065l-10.201 33.917c-1.193 3.971-4.629 6.835-8.751 7.297-1.379.155-2.766.026-4.117-.38-2.643-.795-4.817-2.571-6.124-5.001-1.306-2.431-1.588-5.225-.793-7.868l22.051-73.321c.61-2.029 1.811-3.799 3.47-5.117.111-.088.221-.179.328-.272l4.145-3.591c-.002.09-.008.18-.008.271zm81.311-111.822c14.7 0 26.66 11.96 26.66 26.661s-11.96 26.661-26.66 26.661-26.66-11.96-26.66-26.661 11.96-26.661 26.66-26.661zm109.838 172.506c-1.543 0-3.032-.35-4.426-1.041l-109.509-54.234c-4.953-2.451-10.95-.426-13.399 4.523-2.451 4.949-.426 10.948 4.522 13.399l28.664 14.196v54.486h-77.001v-92.014c0-21.229 17.271-38.501 38.501-38.501 6.883 0 13.405 1.79 19.062 4.996-1.429.942-2.639 2.254-3.453 3.899-2.451 4.949-.426 10.948 4.522 13.399l101.285 50.161c4.491 2.222 9.931.781 12.73-3.373l4.167-6.182c3.084-4.575 9.313-5.787 13.885-2.705s5.784 9.309 2.703 13.881l-13.948 20.694c-1.862 2.766-4.967 4.416-8.305 4.416z"/><g><path d="m368.393 313.803c-.06.013-.03.007 0 0z"/><path d="m503.086 412.18c-5.488-.592-10.424 3.374-11.019 8.865-1.098 10.125-8.851 17.168-13.374 20.465-2.475 1.804-5.168 3.346-7.909 4.584 4.311-9.834 6.72-20.684 6.72-32.091 0-34.812-22.235-65.459-55.329-76.261-7.679-2.506-14.424-7.151-19.506-13.431l-16.902-20.887c6.658-7.568 9.779-18.084 7.498-28.672l-2.642-12.259c-5.042-23.398-28.177-38.331-51.579-33.292l-12.093 2.605c-.055.012-.108.031-.163.044-17.985 3.961-32.812 16.499-39.691 33.595-1.619 4.025-5.119 6.974-9.361 7.888-10.794 2.326-17.684 13-15.358 23.795l2.186 10.142c3.66 16.99 18.736 28.64 35.454 28.639.615 0 1.232-.017 1.851-.049-5.076 21.198-1.334 43.955 10.902 62.569 1.686 2.564 1.84 5.84.402 8.549l-21.909 41.312c-5.18 9.768-4.869 21.256.83 30.73 5.7 9.475 15.704 15.131 26.761 15.131 10.109 0 19.444-4.812 25.345-13.002 5.729 7.913 15.035 13.074 25.529 13.074h27.555c22.734 0 43.274-9.522 57.885-24.768.547.021 1.095.039 1.649.039 10.941 0 23.239-4.23 33.655-11.821 12.423-9.054 20.05-21.297 21.478-34.474.595-5.491-3.373-10.424-8.865-11.019zm-159.829-163.428c12.62-2.719 25.098 5.335 27.815 17.953l2.642 12.259c1.496 6.948-2.938 13.819-9.887 15.316-3.367.726-6.812.096-9.705-1.771s-4.885-4.749-5.61-8.115l-7.572-35.143zm54.027 225.471h-27.555c-6.346 0-11.508-5.163-11.508-11.508s5.162-11.508 11.508-11.508h31.175c5.522 0 10-4.477 10-10s-4.478-10-10-10h-22.222c3.852-16.345 16.916-29.531 33.87-33 5.411-1.107 8.899-6.391 7.792-11.802-1.107-5.412-6.391-8.902-11.802-7.792-17.697 3.621-32.483 14.509-41.509 29.144-.156.209-38.732 61.236-38.732 61.236-2.076 3.229-5.607 5.157-9.446 5.157-5.73 0-8.639-3.805-9.623-5.441-.983-1.636-2.983-5.987-.298-11.049l21.909-41.312c4.858-9.163 4.338-20.239-1.359-28.906-10.94-16.642-12.819-37.7-5.231-55.926l1.562-.337c5.399-1.163 8.833-6.483 7.669-11.882-1.163-5.399-6.481-8.836-11.882-7.669l-18.148 3.91c-8.769 1.889-17.448-3.708-19.339-12.482l-2.165-10.173c10.741-2.314 19.602-9.781 23.703-19.975 3.136-7.795 8.858-14.101 16.045-18.013l7.264 33.71c1.85 8.588 6.934 15.942 14.314 20.706 5.382 3.474 11.515 5.268 17.771 5.268 2.324 0 5.019-.276 7.345-.777.059-.013.03-.006 0 0l18.73 23.088c7.516 9.288 17.491 16.156 28.848 19.863 24.843 8.109 41.534 31.115 41.534 57.249 0 33.206-27.014 60.221-60.22 60.221z"/></g><circle cx="79.069" cy="422.087" r="10"/></g></g></svg>