<svg id="Capa_1" enable-background="new 0 0 512.001 512.001" height="512" viewBox="0 0 512.001 512.001" width="512" xmlns="http://www.w3.org/2000/svg"><g><path d="m401.732 349.109-65.589 10.977c-16.595 2.778-33.64-.274-48.241-8.638l-26.835-56.325-5.914-1.625c-15.025-4.13-31.12-.534-42.959 9.598-5.973 5.111-14.093 6.926-21.673 4.842-5.485-1.507-11.153 1.717-12.66 7.202l-2.824 10.276c-3.95 14.374 4.499 29.228 18.873 33.179 11.025 3.03 18.951 12.67 19.793 24.073l2.079 28.161c.963 13.051-9.367 24.171-22.455 24.171h-19.5c-11.046 0-20 8.954-20 20s8.954 20 20 20h39.759c19.406 0 37.143-10.632 46.353-27.506l-.033.069c8.368 9.567 21.426 16.302 34.442 16.302h55.958c3.27 6.592 10.05 11.135 17.908 11.135h19.972 9.09c38.781 0 70.219-31.438 70.219-70.219.001-34.896-31.346-61.432-65.763-55.672z" fill="#ffdb85"/><path d="m258.999 367.889c-12.522-3.441-19.882-16.382-16.441-28.903l12.508-45.512 12.253 3.368c18.276 5.023 29.02 23.91 23.997 42.186l-3.414 12.421c-3.441 12.521-16.381 19.881-28.903 16.44z" fill="#ffdb85"/><path d="m91.414 449.963v-206.425h-81.414v18.537c0 20.382 13.062 37.681 31.338 43.904v143.985c0 13.793 11.156 24.989 24.949 25.037 13.863.048 25.127-11.176 25.127-25.038z" fill="#7aa9bf"/><circle cx="85.513" cy="75.476" fill="#ffd1c8" r="38.475"/><path d="m147.069 228.119h-6.258s-45.617-97.84-45.723-98.05c-5.456-11.476-17.152-19.411-30.704-19.411-30.035 0-54.384 24.348-54.384 54.383v78.496h88.367v-11.967l11.465 24.91c3.265 7.093 10.359 11.638 18.168 11.638h19.069c11.046 0 20-8.954 20-20 0-11.045-8.954-19.999-20-19.999z" fill="#ff7d99"/><g><path d="m177.069 248.119c0-16.504-13.397-29.938-29.886-30 0 0-42.824-91.832-42.875-91.933-.802-1.734-1.71-3.398-2.713-4.988 18.847-6.649 32.394-24.629 32.394-45.722 0-26.729-21.746-48.476-48.476-48.476s-48.475 21.747-48.475 48.476c0 10.382 3.299 19.998 8.878 27.894-26.527 7.959-45.916 32.588-45.916 61.671v97.033c0 21.68 12.333 41.175 31.338 50.558v137.331c0 19.251 15.662 34.969 34.914 35.037h.127c9.335 0 18.112-3.626 24.729-10.219 6.646-6.622 10.306-15.437 10.306-24.818v-56.643c0-5.522-4.477-10-10-10s-10 4.478-10 10v56.643c0 4.026-1.571 7.81-4.423 10.651-2.84 2.83-6.607 4.386-10.613 4.386-.018 0-.037 0-.055 0-8.262-.029-14.984-6.774-14.984-15.037v-143.985c0-4.28-2.725-8.087-6.777-9.467-14.691-5.001-24.562-18.841-24.562-34.436v-8.537h61.414v49.783c0 5.522 4.477 10 10 10s10-4.478 10-10v-41.342c5.138 9.846 15.407 16.14 26.586 16.14h19.069c16.542 0 30-13.458 30-30zm-91.556-201.119c15.702 0 28.476 12.774 28.476 28.476s-12.774 28.476-28.476 28.476c-15.701 0-28.475-12.774-28.475-28.476s12.774-28.476 28.475-28.476zm33.403 205.3-46.371-100.747c-2.309-5.018-8.249-7.212-13.265-4.903-5.017 2.31-7.212 8.248-4.903 13.265l33.887 73.623h-68.264v-68.496c0-24.474 19.911-44.384 44.384-44.384 9.427 0 18.019 5.558 21.888 14.159.042.093 45.477 97.527 45.477 97.527 1.642 3.522 5.177 5.774 9.063 5.774h6.258c5.514 0 10 4.486 10 10s-4.486 10-10 10h-19.07c-3.891.001-7.457-2.284-9.084-5.818z"/><path d="m503.077 402.958c-5.491-.598-10.424 3.374-11.019 8.864-1.097 10.125-8.849 17.167-13.373 20.464-2.475 1.804-5.167 3.346-7.908 4.584 4.31-9.834 6.719-20.684 6.719-32.09 0-19.579-8.571-38.064-23.515-50.715s-34.588-18.052-53.9-14.82l-65.588 10.978c-11.755 1.969-23.846.514-34.763-4.074l1.229-4.472c3.137-11.415 1.642-23.368-4.212-33.657-5.853-10.29-15.363-17.685-26.777-20.821 0 0-12.366-3.391-12.422-3.406-18.175-4.905-37.541-.545-51.856 11.704-3.455 2.956-8.135 4.006-12.52 2.797-5.23-1.436-10.704-.752-15.417 1.929-4.713 2.682-8.1 7.038-9.537 12.266l-2.824 10.275c-5.405 19.668 6.198 40.066 25.865 45.472 6.93 1.904 11.941 8 12.471 15.167l2.079 28.16c.259 3.509-.917 6.861-3.312 9.439s-5.651 3.998-9.169 3.998h-19.5c-16.542 0-30 13.458-30 30s13.458 30 30 30h39.759c18.631 0 36.089-8.358 47.861-22.172 9.397 7.097 20.923 11.038 32.901 11.038h50.563c5.505 6.787 13.904 11.135 23.303 11.135h29.062c22.734 0 43.273-9.521 57.884-24.767.546.022 1.094.039 1.648.039 10.942 0 23.24-4.23 33.656-11.822 12.422-9.054 20.049-21.296 21.477-34.473.595-5.492-3.374-10.425-8.865-11.02zm-223.714-85.049c3.212 5.646 4.033 12.205 2.311 18.468l-3.414 12.421c-1.975 7.185-9.425 11.424-16.611 9.449-3.48-.956-6.38-3.211-8.165-6.349s-2.241-6.781-1.284-10.262l9.858-35.87 2.611.718c6.264 1.721 11.482 5.778 14.694 11.425zm-82.803 31.042c-9.034-2.482-14.363-11.853-11.88-20.886l2.824-10.276c.012-.045.033-.119.141-.181.107-.062.182-.042.228-.028 10.797 2.965 22.319.392 30.825-6.887 6.7-5.734 15.109-8.79 23.702-8.86l-9.482 34.502c-1.797 6.539-1.512 13.164.44 19.177l-16.251 7.973c-4.847-6.94-12.03-12.193-20.547-14.534zm200.716 116.049h-29.062c-5.514 0-10-4.486-10-10s4.486-10 10-10h22.404c5.523 0 10-4.478 10-10s-4.477-10-10-10h-10.588c3.418-9.397 11.516-16.725 21.708-18.811 5.411-1.107 8.899-6.391 7.792-11.802-1.107-5.41-6.39-8.899-11.802-7.792-20.022 4.097-35.236 20.217-38.71 39.852-11.712 3.781-20.294 14.579-20.775 27.417h-43.895c-8.26 0-16.18-2.958-22.392-8.232l9.478-20.424c2.325-5.01.148-10.955-4.861-13.28-5.011-2.325-10.956-.147-13.28 4.862l-10.865 23.414c-6.991 15.064-22.237 24.796-38.842 24.796h-39.759c-5.514 0-10-4.486-10-10s4.486-10 10-10h19.5c9.009 0 17.692-3.785 23.823-10.386s9.268-15.539 8.604-24.524l-2.036-27.573 21.404-10.501c3.272 2.461 7.045 4.366 11.227 5.516 2.961.813 5.939 1.202 8.871 1.202 10.8 0 20.956-5.274 27.213-13.953 14.269 5.895 30.036 7.737 45.361 5.168l65.588-10.978c13.499-2.256 27.23 1.517 37.676 10.359s16.437 21.764 16.437 35.45c.001 33.206-27.014 60.22-60.219 60.22z"/><circle cx="91.41" cy="348.322" r="10"/></g></g></svg>