<svg id="Capa_1" enable-background="new 0 0 512.001 512.001" height="512" viewBox="0 0 512.001 512.001" width="512" xmlns="http://www.w3.org/2000/svg"><g><path d="m440.167 239.441-8.951-73.112-5.914-1.625c-15.025-4.129-31.12-.534-42.959 9.598-5.973 5.111-14.093 6.926-21.673 4.842-5.485-1.508-11.153 1.717-12.661 7.202l-2.824 10.276c-3.95 14.374 4.499 29.229 18.873 33.179l18.36 5.034c-7.401 11.088-13.614 23.035-18.464 35.658-5.493.93-10.26 2.041-13.885 3.229l-16.495 5.404c-5.896 1.935-10.403 6.736-11.963 12.743l-.129.498c-3.656 14.083 8.958 26.961 23.072 23.598 2.839-.676 5.745-1.369 8.659-2.063-.845 7.098-1.286 14.32-1.286 21.646 0 23.947 11.449 55.536 22.662 67.749h-20.258c-12.202 0-22.093 9.891-22.093 22.093s9.891 22.093 22.093 22.093h45.354c31.456 0 56.956-25.5 56.956-56.956v-35.279-44.825c-.001-24.607-5.636-48.889-16.474-70.982z" fill="#ffdb85"/><path d="m98.973 285.671-12.345 111.569h-51.508c-13.873 0-25.12 11.246-25.12 25.12s11.246 25.12 25.12 25.12h75.731c13.517 0 24.612-10.697 25.103-24.206l9.14-87.363h41.047l-15.58 81.746c-2.598 13.628 6.344 26.781 19.972 29.379 1.589.303 3.17.449 4.73.449 11.82-.001 22.354-8.383 24.647-20.421l21.265-111.569c1.402-7.354-.549-14.949-5.321-20.717-4.772-5.767-11.868-9.106-19.354-9.106h-80.582-36.945z" fill="#7aa9bf"/><circle cx="184.082" cy="104.019" fill="#ffd1c8" r="39.502"/><path d="m283.916 199.873c-1.89-11.949-13.107-20.103-25.057-18.213l-56.913 9.012-18.616-31.586-.013.008c-8.05-12.931-22.385-21.544-38.738-21.544-25.188 0-45.606 20.419-45.606 45.607v102.514h91.213v-49.141c1.284.027 2.582-.053 3.881-.259l71.637-11.341c11.948-1.89 20.102-13.108 18.212-25.057z" fill="#fff"/><path d="m429.147 239.096c-12.522-3.441-19.882-16.382-16.441-28.903l12.508-45.512 12.253 3.368c18.276 5.023 29.02 23.91 23.997 42.186l-3.414 12.421c-3.441 12.52-16.381 19.881-28.903 16.44z" fill="#ffdb85"/><g><path d="m503.077 367.874c-5.485-.596-10.424 3.373-11.019 8.864-1.018 9.389-8.239 15.943-12.454 19.015-4.319 3.147-9.337 5.453-14.034 6.616.69-3.847 1.07-7.8 1.07-11.842v-23.95c0-5.522-4.478-10-10-10s-10 4.478-10 10v23.95c0 25.892-21.064 46.956-46.956 46.956h-45.354c-6.669 0-12.094-5.425-12.094-12.094 0-6.668 5.425-12.093 12.094-12.093h33.66c5.522 0 10-4.478 10-10s-4.478-10-10-10h-8.395c3.027-11.502 11.16-21.212 22.436-26.058 5.074-2.181 7.42-8.062 5.239-13.136-2.182-5.074-8.06-7.417-13.136-5.239-10.707 4.601-19.544 12.106-25.771 21.361-3.794-11.153-6.438-23.746-6.438-34.677 0-4.522.186-9.066.538-13.571l2.008-.478c4.871-1.159 9.863-2.022 14.839-2.563 5.49-.598 9.457-5.533 8.859-11.023s-5.541-9.458-11.023-8.859c-5.803.632-11.626 1.638-17.308 2.991l-17.604 4.192c-4.577 1.094-7.631-1.396-8.729-2.517-1.104-1.126-3.542-4.241-2.351-8.83l.132-.509c.708-2.726 2.728-4.877 5.397-5.753l16.495-5.404c5.388-1.766 22.972-4.176 35.383-5.234 5.502-.47 9.583-5.312 9.113-10.814-.47-5.504-5.323-9.582-10.814-9.113-1.989.17-4.292.391-6.774.654 2.29-4.562 4.781-9.026 7.471-13.371 0 0 44.287 4.46 46.413 4.549 4.044 9.256 7.174 18.905 9.296 28.783 1.008 4.692 5.155 7.902 9.768 7.902.695 0 1.402-.073 2.109-.225 5.4-1.16 8.837-6.478 7.678-11.877-2.195-10.218-5.328-20.227-9.345-29.872 6.72-4.312 11.938-11.016 14.215-19.302l3.413-12.42c6.477-23.563-7.425-48.002-30.989-54.479 0 0-12.333-3.383-12.373-3.394-18.189-4.925-37.576-.567-51.905 11.693-3.454 2.957-8.137 4.003-12.52 2.798-5.228-1.436-10.703-.753-15.417 1.929s-8.101 7.037-9.537 12.265l-2.824 10.276c-2.618 9.528-1.37 19.505 3.516 28.093 4.885 8.589 12.822 14.761 22.355 17.38l5.488 1.505c-3.865 6.795-7.304 13.823-10.304 21.021-3.883.711-7.271 1.471-9.642 2.248l-16.499 5.405c-9.173 3.01-16.099 10.387-18.522 19.722l-.133.509c-2.607 10.046.168 20.464 7.424 27.866 5.595 5.709 13.033 8.785 20.769 8.785.719 0 1.441-.036 2.164-.09-.143 3.044-.23 6.093-.23 9.133 0 18.216 5.932 40.865 14.33 57.749h-1.926c-17.696 0-32.094 14.396-32.094 32.093s14.397 32.094 32.094 32.094h45.354c25.064 0 46.943-13.852 58.418-34.294.36.01.718.025 1.081.025 10.479 0 22.244-4.043 32.201-11.299 11.888-8.665 19.188-20.393 20.557-33.023.597-5.49-3.372-10.424-8.863-11.019zm-80.728-155.031 9.858-35.871 2.61.718c12.93 3.554 20.558 16.964 17.004 29.895l-3.413 12.42c-1.975 7.186-9.43 11.422-16.61 9.449-3.48-.956-6.381-3.211-8.165-6.349-1.785-3.138-2.241-6.781-1.284-10.262zm-55.641 7.315c-9.034-2.482-14.363-11.853-11.881-20.886l2.824-10.277c.013-.045.032-.119.14-.18.109-.062.183-.041.229-.028 10.797 2.966 22.319.392 30.823-6.888 6.702-5.733 15.111-8.789 23.704-8.86l-9.483 34.503c-1.797 6.537-1.512 13.161.439 19.173l-19.299-1.76z"/><path d="m257.296 171.783-50.19 7.947s-15.64-26.469-15.815-26.74c23.89-3.501 42.293-24.124 42.293-48.971 0-27.296-22.207-49.503-49.502-49.503s-49.502 22.207-49.502 49.503c0 8.575 2.194 16.646 6.047 23.687-28.822 2.036-51.653 26.12-51.653 55.451v101.961l-11.301 102.122h-42.553c-19.366 0-35.12 15.754-35.12 35.12s15.754 35.119 35.12 35.119h75.73c18.868 0 34.208-14.674 35.082-33.477l8.17-78.092h19.953l-13.318 69.873c-1.757 9.215.181 18.562 5.455 26.32s13.253 12.997 22.463 14.753c2.177.416 4.4.627 6.608.627 16.822-.001 31.318-12.008 34.47-28.549l21.265-111.567c1.967-10.316-.745-20.874-7.44-28.965-6.694-8.091-16.557-12.731-27.058-12.731h-16.314v-30.244l67.08-10.62c17.375-2.749 29.275-19.121 26.527-36.497-2.749-17.374-19.118-29.275-36.497-26.527zm-73.214-97.266c16.268 0 29.502 13.235 29.502 29.503s-13.235 29.502-29.502 29.502-29.502-13.234-29.502-29.502 13.234-29.503 29.502-29.503zm32.418 221.154c4.521 0 8.767 1.998 11.649 5.481s4.05 8.028 3.203 12.47l-21.265 111.569c-1.357 7.122-7.592 12.291-14.824 12.292-.951 0-1.911-.092-2.858-.272-3.967-.756-7.403-3.012-9.673-6.352s-3.104-7.364-2.348-11.331l15.581-81.746c.558-2.927-.219-5.951-2.119-8.247s-4.725-3.625-7.705-3.625h-41.047c-5.12 0-9.413 3.867-9.946 8.96 0 0-9.179 87.812-9.187 88.039-.297 8.17-6.935 14.569-15.11 14.569h-75.731c-8.337 0-15.12-6.782-15.12-15.119s6.783-15.12 15.12-15.12h51.508c5.097 0 9.379-3.834 9.939-8.9l11.36-102.668zm47.64-80.617-71.635 11.341c-1.691.269-3.385.173-5.031-.284-2.993-.828-5.509-2.757-7.084-5.43l-25.795-43.769c-2.805-4.759-8.936-6.343-13.692-3.538-4.758 2.805-6.342 8.935-3.538 13.692l25.795 43.77c3.875 6.573 9.873 11.458 17.027 13.935v30.9h-71.213v-92.514c0-19.634 15.973-35.607 35.606-35.607 12.388 0 23.699 6.289 30.257 16.823.006.01.014.02.021.03l18.474 31.346c2.086 3.539 6.121 5.446 10.179 4.8l56.911-9.012c6.484-1.021 12.592 3.416 13.618 9.897 1.024 6.484-3.416 12.594-9.9 13.62z"/><circle cx="456.64" cy="321.578" r="10"/></g></g></svg>