<svg id="Capa_1" enable-background="new 0 0 512.001 512.001" height="512" viewBox="0 0 512.001 512.001" width="512" xmlns="http://www.w3.org/2000/svg"><g><path d="m451.096 356.425-4.715-7.811 7.383-24.441-6.769-24.494c-2.168-7.843-9.304-13.274-17.441-13.274-12.412 0-21.139 12.212-17.119 23.956l3.344 9.767-9.478 9.55c-9.498 9.57-13.283 29.936-9.974 43.007-13.889-9.902-31.356-16.458-48.982-18.579-5.035-.606-10.038-.828-14.985-.694l-11.751-36.406c-3.373-10.45-14.878-15.873-25.085-11.824-8.744 3.469-13.633 12.814-11.496 21.975l8.289 35.541c-7.166 3.226-14.021 7.228-20.464 11.934l-28.031-35.96c-9.064-10.627-25.028-11.895-35.655-2.83l-7.598 6.48c-4.055 3.459-4.539 9.55-1.08 13.606 4.78 5.605 6.468 13.216 4.504 20.316-2.406 8.697-2.102 15.597.013 22.869l40.258 43.887h173.071c24.998 0 45.263-20.265 45.263-45.263 0-14.561-3.977-28.846-11.502-41.312z" fill="#ffdb85"/><path d="m264.264 423c0-11.046-8.954-20-20-20h-40.148v10.809c0 16.122 13.069 29.191 29.191 29.191h10.957c11.046 0 20-8.954 20-20z" fill="#ffdb85"/><g fill="#7aa9bf"><path d="m159.002 310.97c5.583 16.476 1.41 34.692-10.789 47.095l-75.667 76.93c-5.245 5.331-12.173 8.005-19.105 8.005-6.784.001-13.569-2.559-18.787-7.692-10.55-10.377-10.691-27.342-.313-37.892l47.163-47.981h-21.667c-27.524.001-49.837-22.311-49.837-49.835v-19.918h105.364c19.748 0 37.3 12.585 43.638 31.288z"/><path d="m81.503 349.436 9.14-9.299z"/></g><circle cx="102.161" cy="109.128" fill="#ffd1c8" r="40.127"/><path d="m169.431 235.024h-59.736l-7.535-31.509v-26.978c0-19.574-15.868-35.442-35.442-35.442-31.324.001-56.718 25.395-56.718 56.72v81.867h86.504 5.657 67.27c12.332 0 22.329-9.997 22.329-22.329s-9.997-22.329-22.329-22.329z" fill="#ff7d99"/><g><path d="m158.29 289.682h11.142c17.826 0 32.328-14.503 32.328-32.329s-14.502-32.328-32.328-32.328h-51.846l-5.425-22.688v-25.8c0-6.278-1.281-12.262-3.593-17.706 24.623-3.158 43.719-24.236 43.719-49.704 0-27.64-22.487-50.127-50.127-50.127-27.641 0-50.128 22.487-50.128 50.127 0 8.139 1.962 15.824 5.419 22.627-32.415 4.526-57.451 32.417-57.451 66.061v101.785c0 32.274 25.686 58.663 57.688 59.798l-30.477 31.006c-6.893 7.008-10.644 16.279-10.562 26.106.082 9.828 3.985 19.036 10.992 25.928 6.924 6.811 16.086 10.562 25.797 10.562h.005c9.945-.001 19.261-3.905 26.233-10.993l8.029-8.164c3.872-3.938 3.819-10.269-.118-14.142-3.938-3.874-10.27-3.818-14.142.118l-8.028 8.163c-3.183 3.235-7.436 5.017-11.977 5.018-.002 0-.002 0-.003 0-4.431 0-8.61-1.712-11.771-4.821-3.198-3.146-4.979-7.349-5.017-11.834-.038-4.486 1.675-8.718 4.823-11.919l56.303-57.279c3.871-3.938 3.817-10.27-.122-14.142-3.939-3.873-10.27-3.817-14.142.122l-6.201 6.309h-17.473c-21.966 0-39.837-17.87-39.837-39.836v-9.918h95.364c15.471 0 29.201 9.845 34.166 24.497 4.396 12.977 1.16 27.105-8.446 36.873l-4.532 4.607c-3.873 3.938-3.821 10.269.116 14.142 3.938 3.875 10.27 3.819 14.142-.116l4.533-4.608c14.933-15.183 19.964-37.145 13.13-57.315-2.289-6.755-5.783-12.845-10.183-18.08zm-56.129-210.682c16.612 0 30.127 13.515 30.127 30.127s-13.515 30.128-30.127 30.128-30.128-13.516-30.128-30.128 13.516-30.127 30.128-30.127zm-5.657 190.682c-4.492 0-8.631-2.445-10.799-6.38l-25.341-45.996c-1.822-3.308-5.241-5.177-8.768-5.177-1.632 0-3.287.4-4.816 1.243-4.838 2.665-6.599 8.747-3.934 13.584l23.539 42.726h-46.385v-71.867c0-25.761 20.958-46.719 46.719-46.719 14.029 0 25.442 11.413 25.442 25.441v26.979c0 .783.092 1.563.274 2.325l7.534 31.509c1.076 4.501 5.099 7.675 9.726 7.675h59.736c6.798 0 12.328 5.53 12.328 12.328s-5.53 12.329-12.328 12.329z"/><path d="m503.077 379.854c-5.483-.599-10.424 3.374-11.019 8.864-.959 8.852-7.795 15.051-11.783 17.958-2.943 2.145-6.225 3.871-9.486 5.087 1.177-4.481 1.809-9.181 1.809-14.026 0-16.381-4.475-32.453-12.94-46.48l-2.418-4.005 6.098-20.187c.547-1.808.569-3.734.066-5.556l-6.77-24.494c-3.354-12.135-14.49-20.61-27.08-20.61-9.051 0-17.596 4.396-22.857 11.76-5.263 7.363-6.654 16.872-3.723 25.437l1.333 3.891-5.103 5.142c-7.884 7.943-12.307 20.332-13.613 32.239-11.503-5.454-24.193-9.148-37.052-10.696-2.942-.353-5.911-.578-8.878-.698l-9.536-29.544c-2.454-7.604-8.007-13.918-15.233-17.324-7.228-3.407-15.632-3.672-23.056-.724-13.239 5.252-20.783 19.671-17.548 33.541l6.485 27.804c-2.287 1.224-4.544 2.525-6.765 3.9l-22.3-28.607c-.09-.116-.183-.23-.278-.342-6.117-7.173-14.661-11.533-24.059-12.279-9.404-.754-18.522 2.212-25.694 8.33l-7.598 6.479c-3.994 3.406-6.422 8.164-6.838 13.396-.415 5.232 1.232 10.314 4.639 14.307 2.63 3.083 3.555 7.256 2.475 11.161-2.71 9.798-2.739 18.399-.095 27.802-.086.529-.143 12.429-.143 12.429 0 21.61 17.581 39.191 39.19 39.191h184.028c16.738 0 31.751-7.49 41.894-19.284.559.024 1.121.04 1.688.04 10.143 0 21.518-3.905 31.139-10.917 11.498-8.381 18.561-19.733 19.886-31.967.595-5.491-3.375-10.423-8.865-11.018zm-258.813 53.146h-10.957c-10.582 0-19.19-8.609-19.19-19.191v-.809h30.147c5.514 0 10 4.486 10 10s-4.487 10-10 10zm14.035-36.503c-4.191-2.229-8.967-3.497-14.036-3.497h-31.438c-.876-4.635-.622-8.932.805-14.091 2.821-10.201.463-21.091-6.308-29.205l7.333-6.254c3.108-2.651 7.064-3.933 11.134-3.609 4.007.317 7.656 2.153 10.297 5.174l25.215 32.347zm159.036 36.503h-144.792c1.012-2.852 1.6-5.901 1.697-9.072l6.831-43.543c1.461-.985 2.941-1.93 4.44-2.836l.392 1.682c1.076 4.614 5.187 7.73 9.729 7.73.752 0 1.517-.085 2.28-.264 5.378-1.254 8.722-6.631 7.467-12.01l-11.615-49.804c-1.004-4.304 1.338-8.778 5.446-10.408 2.338-.928 4.879-.849 7.153.225 2.276 1.072 3.955 2.981 4.728 5.376l16.717 51.79c1.696 5.256 7.334 8.141 12.588 6.445 5.256-1.696 8.142-7.332 6.445-12.588l-.539-1.67c16.096 1.963 31.794 7.915 44.22 16.772 3.414 2.435 7.987 2.479 11.448.112 3.463-2.367 5.08-6.643 4.051-10.709-2.654-10.484 1-27.082 7.378-33.509l9.478-9.55c2.68-2.699 3.596-6.686 2.363-10.284l-3.345-9.766c-.857-2.504-.467-5.175 1.072-7.329 1.539-2.152 3.939-3.388 6.586-3.388 3.628 0 6.836 2.442 7.803 5.938l5.999 21.706-6.547 21.673c-.818 2.708-.451 5.637 1.011 8.06l4.715 7.81c6.584 10.908 10.063 23.407 10.063 36.146.001 19.447-15.818 35.265-35.262 35.265z"/><circle cx="112.13" cy="394.748" r="10"/></g></g></svg>