<svg id="Capa_1" enable-background="new 0 0 511.994 511.994" height="512" viewBox="0 0 511.994 511.994" width="512" xmlns="http://www.w3.org/2000/svg"><g><path d="m418.728 310.23c-8.484 10.397-21.193 16.429-34.612 16.429h-44.499c-27.418 0-49.646 22.227-49.646 49.646 0 8.998 2.445 17.827 7.075 25.542l4.313 7.189-24.5 33.793c-8.641 11.919-.126 28.609 14.595 28.609 4.078 0 8.035-1.383 11.226-3.922l32.455-25.83c3.997-3.181 7.62-6.804 10.801-10.801 9.081-11.41 12.311-26.407 8.732-40.544l-.286 28.094h66.376l30.85 44.741c3.567 5.173 9.448 8.262 15.732 8.262 14.594 0 23.801-15.698 16.678-28.435l-23.683-42.353c6.454-14.333 8.713-30.202 6.516-45.766l-.747-5.29c-1.123-7.954-.235-16.062 2.582-23.585z" fill="#ffdb85"/><path d="m237.926 203.114-17.602-3.689c-18.327-3.842-35.305-12.454-49.21-24.762v50.258c12.694 6.928 26.406 12.031 40.713 15.03l17.602 3.69c1.433.3 2.861.444 4.269.444 9.59 0 18.197-6.702 20.243-16.46 2.347-11.191-4.824-22.164-16.015-24.511z" fill="#fff"/><circle cx="143.812" cy="74.49" fill="#ffd1c8" r="37.208"/><path d="m171.115 257.189h-93.271v-96.379c0-25.756 20.879-46.635 46.635-46.635 25.756 0 46.635 20.879 46.635 46.635v96.379z" fill="#fff"/><path d="m232.199 322.329-61.084-66.822v1.682h-90.528v98.75l-61.181 48.502c-10.752 8.524-12.559 24.151-4.035 34.904 4.905 6.186 12.16 9.411 19.485 9.411 5.406 0 10.852-1.757 15.418-5.377l70.592-55.962c5.944-4.712 9.41-11.883 9.41-19.469l3.241-65.872 53.176 44.119-22.866 98.022c-3.117 13.363 5.189 26.722 18.551 29.839 1.899.443 3.797.655 5.666.655 11.286-.001 21.499-7.742 24.174-19.206l25.84-110.769c1.86-7.978-.331-16.36-5.859-22.407z" fill="#7aa9bf"/><path d="m434.611 249.272h5.832c13.558 0 26.232 6.728 33.829 17.958 4.042 5.975 10.785 9.555 17.999 9.555 5.37 0 9.724 4.353 9.724 9.724v15.586c0 13.208-10.707 23.915-23.915 23.915h-9.393l-52.491-12.932z" fill="#ffdb85"/><path d="m418.728 310.23c11.194 0 20.269-9.075 20.269-20.269v-40.688h-10.954c-16.339 0-29.584 13.245-29.584 29.584v11.104c0 11.194 9.075 20.269 20.269 20.269z" fill="#ffdb85"/><path d="m124.48 114.175c-13.921 0-26.409 6.107-34.954 15.779-.022.02-.047.036-.069.057l-47.075 43.828c-2.1 1.927-3.779 4.268-4.933 6.874l-25.679 58.023c-4.628 10.457.098 22.684 10.554 27.312 2.724 1.206 5.569 1.776 8.368 1.776 7.944 0 15.522-4.598 18.944-12.33l23.93-54.072 4.278-3.927v59.693h2.742 90.528v-1.682-94.696c.001-25.756-20.878-46.635-46.634-46.635z" fill="#fff"/><g><path d="m492.27 266.785c-3.899 0-7.531-1.928-9.716-5.158-9.469-13.998-25.211-22.355-42.111-22.355h-12.4c-21.827 0-39.583 17.757-39.583 39.584v11.104c0 9.306 4.224 17.641 10.853 23.198-4.667 2.275-9.842 3.5-15.196 3.5h-44.499c-16.227 0-30.953 6.521-41.717 17.071-16.884 8.973-38.1 5.157-52.468-9.388-1.476-3.159-3.436-6.118-5.851-8.76l-58.465-63.957v-10.823c9.252 3.875 18.839 6.877 28.661 8.937l17.603 3.69c2.08.436 4.207.657 6.32.657 14.436 0 27.065-10.265 30.03-24.409 3.473-16.569-7.182-32.876-23.751-36.35l-17.601-3.689c-15.075-3.161-29.253-9.921-41.262-19.618v-9.21c0-16.993-7.533-32.25-19.422-42.639 17.188-7.062 29.326-23.977 29.326-43.681 0-26.03-21.177-47.208-47.208-47.208s-47.209 21.179-47.209 47.209c0 12.258 4.698 23.437 12.385 31.838-8.712 2.469-16.755 7.012-23.474 13.384-.01.009-.021.017-.031.027l-49.908 46.774c-3.111 2.867-5.557 6.282-7.271 10.153l-25.679 58.023c-6.851 15.481.17 33.651 15.652 40.504 3.946 1.746 8.123 2.631 12.415 2.631 12.147 0 23.173-7.176 28.088-18.283l9.064-20.481v18.128c0 2.662 1.047 5.074 2.742 6.866v87.051l-57.394 45.5c-15.056 11.936-17.594 33.896-5.659 48.952 6.649 8.388 16.608 13.199 27.321 13.199 7.815 0 15.497-2.678 21.631-7.54l70.592-55.962c8.318-6.594 13.118-16.436 13.197-27.039l2.248-45.674 33.028 27.402-21.462 92.002c-2.114 9.064-.572 18.409 4.342 26.313s12.612 13.422 21.676 15.537c2.608.608 5.278.917 7.938.917 16.267 0 30.212-11.077 33.911-26.935l1.007-4.318c1.255-5.378-2.088-10.756-7.466-12.01-5.376-1.258-10.756 2.088-12.01 7.466l-1.008 4.318c-1.576 6.758-7.512 11.478-14.435 11.478-1.132 0-2.273-.132-3.394-.394-7.972-1.86-12.944-9.858-11.084-17.829l22.866-98.022c.86-3.69-.438-7.549-3.354-9.968l-53.176-44.119c-2.915-2.418-6.948-2.982-10.413-1.457-3.467 1.526-5.774 4.879-5.96 8.662 0 0-3.254 66.2-3.254 66.364 0 4.56-2.049 8.8-5.623 11.633l-70.592 55.962c-2.651 2.102-5.834 3.213-9.206 3.213-4.57 0-8.815-2.05-11.648-5.624-5.085-6.415-4.004-15.77 2.411-20.855l61.181-48.502c2.393-1.897 3.788-4.783 3.788-7.836v-88.75h77.658l56.574 61.887c3.304 3.614 4.613 8.62 3.5 13.388l-4.403 18.876c-1.254 5.378 2.088 10.756 7.467 12.011.765.178 1.528.264 2.281.264 4.542 0 8.653-3.117 9.73-7.73l3.619-15.515c9.793 5.392 20.607 8.196 31.414 8.196 1.431 0 2.862-.054 4.29-.152-1.781 5.651-2.745 11.66-2.745 17.891 0 10.808 2.939 21.419 8.5 30.688l.914 1.523-20.622 28.444c-6.215 8.572-7.086 19.756-2.275 29.188s14.378 15.291 24.966 15.291c6.315 0 12.513-2.166 17.453-6.098l32.455-25.83c4.58-3.646 8.751-7.816 12.398-12.398 2.168-2.725 4.051-5.636 5.661-8.677h56.084l27.869 40.417c5.433 7.88 14.392 12.585 23.964 12.585 10.44 0 19.827-5.376 25.109-14.382s5.394-19.822.298-28.935l-21.312-38.111c5.704-14.787 7.543-30.764 5.318-46.525l-.747-5.289c-.572-4.051-.471-8.175.262-12.187h1.81c18.701 0 33.915-15.214 33.915-33.915v-15.585c.003-10.876-8.845-19.724-19.721-19.724zm-273.997-57.573 17.602 3.689c5.776 1.211 9.491 6.896 8.28 12.672-1.034 4.932-5.432 8.512-10.456 8.512-.738 0-1.484-.078-2.217-.231l-17.602-3.69c-11.346-2.379-22.338-6.188-32.765-11.323v-24.409c11.432 6.991 24.009 12.023 37.158 14.78zm-74.461-161.929c15.002 0 27.208 12.205 27.208 27.208s-12.205 27.208-27.208 27.208-27.208-12.206-27.208-27.208 12.205-27.208 27.208-27.208zm-55.968 199.906v-45.299l21.042-19.313c4.068-3.735 4.339-10.061.605-14.129-3.735-4.069-10.061-4.339-14.129-.605l-28.558 26.212c-1.014.931-1.825 2.062-2.382 3.32l-23.93 54.072c-1.714 3.874-5.561 6.377-9.799 6.377-1.487 0-2.941-.31-4.321-.92-5.397-2.389-7.845-8.723-5.457-14.121l25.679-58.022c.601-1.356 1.459-2.553 2.551-3.556.025-.023.051-.046.076-.07l49.94-46.804c.009-.009.017-.019.027-.028.01-.01.021-.017.031-.027 6.84-6.514 15.811-10.102 25.261-10.102 20.201 0 36.635 16.435 36.635 36.635v86.379h-73.271zm320.615 31.667c0-10.799 8.785-19.584 19.583-19.584h.955v30.688c0 5.662-4.606 10.269-10.269 10.269s-10.269-4.606-10.269-10.269zm66.832 169.027c2.298 4.11.7 7.701-.093 9.054-.794 1.353-3.148 4.5-7.857 4.5-2.995 0-5.798-1.472-7.499-3.938l-30.851-44.741c-1.866-2.707-4.944-4.323-8.232-4.323h-55.105c.812-6.813.422-13.785-1.29-20.548-1.355-5.354-6.792-8.593-12.148-7.24-5.354 1.355-8.595 6.794-7.24 12.148 2.795 11.04.229 22.951-6.862 31.862-2.707 3.401-5.804 6.498-9.204 9.204l-32.456 25.831c-1.415 1.126-3.189 1.746-4.998 1.746-4.438 0-6.479-3.063-7.151-4.38-.671-1.316-1.953-4.767.652-8.36l24.5-33.793c2.352-3.244 2.54-7.579.479-11.015l-4.313-7.189c-3.696-6.16-5.65-13.213-5.65-20.397 0-21.861 17.785-39.646 39.646-39.646h44.499c12.904 0 25.151-4.503 34.869-12.576l37.427 9.366c-.95 5.789-1.032 11.716-.21 17.543l.747 5.289c1.936 13.713-.046 27.635-5.732 40.262-1.301 2.888-1.156 6.222.39 8.987zm16.703-145.789c0 7.672-6.242 13.915-13.915 13.915h-8.975l-27.057-6.771c4.339-5.239 6.95-11.959 6.95-19.277v-29.468c6.849 1.975 12.891 6.28 16.991 12.341 5.858 8.66 15.563 13.86 26.005 13.95v15.31z"/><circle cx="223.484" cy="407.446" r="10"/></g></g></svg>