<svg id="Capa_1" enable-background="new 0 0 512.025 512.025" height="512" viewBox="0 0 512.025 512.025" width="512" xmlns="http://www.w3.org/2000/svg"><g><path d="m189.425 200.259h-10.642l-38.686-17.476-22.9-44.453c-4.581-9.105-13.086-16.136-23.826-18.45-30.146-6.493-59.848 12.681-66.341 42.828l-15.546 72.023c-.471 2.18-.824 4.382-1.062 6.596h80.27l13.905-37.78 2.27 4.406c2.123 4.12 5.577 7.402 9.8 9.31l49.24 22.243c2.657 1.2 5.539 1.821 8.454 1.821h15.065c11.341 0 20.534-9.193 20.534-20.534s-9.194-20.534-20.535-20.534z" fill="#fff"/><path d="m488.21 390.471c4.531-7.551 6.924-16.191 6.924-24.998 0-26.834-21.753-48.587-48.587-48.587h-39.807c-13.133 0-25.571-5.903-33.874-16.079l-48.097 15.443c-11.586 20.313-10.793 45.41 2.053 64.951 3.283 4.994 3.583 11.381.783 16.661l-19.491 36.752c-6.671 12.579 2.447 27.735 16.685 27.735 6.427 0 12.412-3.268 15.887-8.674l30.192-46.969h63.823c1.889 3.843 4.407 7.411 7.511 10.539l9.879 9.955-3.485 10.18c-4.191 12.24 4.906 24.97 17.844 24.97 8.481 0 15.92-5.661 18.179-13.836l7.056-25.531-7.696-25.476z" fill="#ffdb85"/><circle cx="124.582" cy="89.178" fill="#ffd1c8" r="39.503"/><path d="m87.383 359.849-17.22 72.149c-3.695 15.482 8.043 30.351 23.96 30.351 11.352 0 21.234-7.757 23.929-18.784l18.135-74.204c3.69-15.098 2.297-30.992-3.963-45.219l-41.532-82.815h-80.27c-.24 2.24-.362 4.492-.362 6.748-2.517 40.581 77.323 111.774 77.323 111.774z" fill="#7aa9bf"/><path d="m357.321 241.15h-5.707c-13.269 0-25.673 6.585-33.108 17.575l-1.819 2.689c-2.818 4.166-7.52 6.662-12.549 6.662h-7.69c-4.87 0-8.818 3.948-8.818 8.818v15.952c0 12.926 10.479 23.405 23.405 23.405h12.937l51.372-12.656z" fill="#ffdb85"/><path d="m372.865 300.808c-10.956 0-19.837-8.881-19.837-19.837v-39.821h10.721c15.99 0 28.953 12.963 28.953 28.953v10.868c0 10.955-8.881 19.837-19.837 19.837z" fill="#fff"/><path d="m372.865 300.808c-10.956 0-19.837-8.881-19.837-19.837v-39.821h10.721c15.99 0 28.953 12.963 28.953 28.953v10.868c0 10.955-8.881 19.837-19.837 19.837z" fill="#ffdb85"/><path d="m372.865 300.808c-10.956 0-19.837-8.881-19.837-19.837v-39.821h10.721c15.99 0 28.953 12.963 28.953 28.953v10.868c0 10.955-8.881 19.837-19.837 19.837z" fill="#ffdb85"/><g><path d="m505.134 365.473c0-10.945-3.024-21.193-8.27-29.967 13.909-16.636 18.705-39.118 12.478-60.293-1.558-5.299-7.117-8.333-12.415-6.772-5.298 1.559-8.331 7.116-6.772 12.415 4.004 13.615 1.429 27.993-6.635 39.212-10.092-8.232-22.964-13.181-36.973-13.181h-39.807c-5.096 0-10.029-1.136-14.493-3.259 6.393-5.477 10.455-13.599 10.455-22.657v-10.867c0-21.479-17.474-38.953-38.953-38.953h-12.135c-16.611 0-32.084 8.214-41.389 21.971l-1.82 2.689c-.959 1.419-2.555 2.266-4.267 2.266h-7.689c-10.376 0-18.818 8.441-18.818 18.817v15.952c0 17.958 14.246 32.646 32.029 33.37-6.143 20.218-3.155 42.284 8.805 60.479 1.278 1.943 1.395 4.428.305 6.482l-19.491 36.752c-4.792 9.036-4.505 19.662.767 28.426s14.526 13.995 24.753 13.995c9.875 0 18.959-4.96 24.299-13.267l27.24-42.376h52.616c1.785 2.702 3.842 5.246 6.161 7.582l5.504 5.546-1.474 4.306c-3.011 8.797-1.582 18.564 3.824 26.129s14.184 12.08 23.481 12.08c12.934 0 24.373-8.706 27.818-21.172l7.056-25.531c.503-1.821.48-3.747-.066-5.556l-6.415-21.236 1.943-3.238c5.461-9.104 8.348-19.528 8.348-30.144zm-142.106-114.323h.721c10.451 0 18.953 8.502 18.953 18.953v10.867c0 5.424-4.413 9.837-9.837 9.837s-9.837-4.413-9.837-9.837zm-51.993 55.101c-7.392 0-13.405-6.014-13.405-13.405v-14.77h6.507c8.36 0 16.147-4.134 20.831-11.058l1.821-2.69c3.93-5.809 9.695-9.96 16.239-11.914v28.557c0 7.094 2.492 13.613 6.642 18.74l-26.136 6.541h-12.499zm163.381 94.147 6.859 22.707-6.286 22.744c-1.058 3.827-4.57 6.5-8.541 6.5-2.897 0-5.524-1.352-7.209-3.709-1.684-2.356-2.112-5.281-1.174-8.021l3.485-10.181c1.232-3.599.316-7.584-2.363-10.283l-9.879-9.954c-7.384-7.439-10.373-18.374-7.8-28.536 1.355-5.354-1.886-10.793-7.24-12.148-5.353-1.353-10.793 1.887-12.148 7.24-1.67 6.596-1.915 13.384-.886 19.95h-50.357c-3.403 0-6.572 1.73-8.412 4.593l-30.192 46.969c-1.643 2.556-4.437 4.081-7.475 4.081-4.535 0-6.836-3.011-7.615-4.306-.779-1.294-2.361-4.738-.236-8.744l19.491-36.752c4.512-8.509 4.029-18.793-1.262-26.84-10.076-15.329-11.348-34.462-3.617-50.848l41.001-10.261c9.536 7.888 21.537 12.288 34.179 12.288h39.807c21.277 0 38.587 17.31 38.587 38.587 0 6.991-1.902 13.856-5.499 19.853l-4.221 7.035c-1.45 2.418-1.813 5.337-.997 8.036z"/><path d="m258.087 294.954c0-5.522-4.477-10-10-10h-19.428c-5.523 0-10 4.478-10 10s4.477 10 10 10h19.428c5.523 0 10-4.478 10-10z"/><path d="m255.019 239.294c-3.98-3.828-10.311-3.704-14.139.276-3.829 3.98-3.705 10.312.276 14.14l9.154 8.804c1.939 1.865 4.437 2.792 6.93 2.792 2.625 0 5.246-1.027 7.209-3.068 3.829-3.98 3.705-10.312-.276-14.14z"/><path d="m250.309 327.394-9.154 8.805c-3.98 3.828-4.104 10.158-.275 14.139 1.963 2.041 4.584 3.068 7.209 3.068 2.494 0 4.991-.927 6.931-2.793l9.154-8.805c3.98-3.828 4.104-10.158.275-14.139-3.828-3.979-10.159-4.105-14.14-.275z"/><path d="m189.425 190.26h-8.488l-33.547-15.155-18.852-36.595c25.452-2.024 45.547-23.367 45.547-49.331 0-27.296-22.207-49.503-49.503-49.503s-49.503 22.207-49.503 49.503c0 6.913 1.429 13.496 3.999 19.478-11.688.429-23.089 3.989-33.172 10.498-14.774 9.537-24.95 24.258-28.652 41.445l-15.545 72.022c-1.073 4.972-1.627 10.068-1.648 15.153-.519 9.587 2.285 20.34 8.566 32.857 1.755 3.497 5.283 5.518 8.946 5.517 1.507 0 3.038-.342 4.477-1.064 4.937-2.477 6.93-8.486 4.453-13.423-3.939-7.849-6.137-14.804-6.454-20.334h64.471l38.649 77.064c5.261 12.089 6.436 25.785 3.305 38.594l-18.135 74.204c-1.606 6.57-7.452 11.159-14.215 11.159-4.507 0-8.693-2.028-11.485-5.565-2.792-3.538-3.794-8.081-2.748-12.465l17.22-72.149c.854-3.577-.326-7.335-3.07-9.783-.056-.05-5.658-5.059-13.677-13-3.924-3.886-10.257-3.854-14.142.069-3.886 3.924-3.855 10.256.069 14.142 4.056 4.017 7.499 7.296 10.004 9.64l-15.857 66.439c-2.476 10.375-.105 21.128 6.504 29.5 6.609 8.371 16.517 13.173 27.183 13.173 16.007 0 29.842-10.86 33.643-26.41l18.135-74.205c4.189-17.138 2.583-35.47-4.524-51.619-.067-.154-39.804-79.398-39.804-79.398l6.262-17.015c1.487 1.024 3.06 1.927 4.715 2.675l49.239 22.243c3.978 1.797 8.208 2.708 12.571 2.708h15.065c16.836 0 30.534-13.697 30.534-30.534s-13.699-30.535-30.536-30.535zm-64.843-130.584c16.268 0 29.503 13.235 29.503 29.503s-13.235 29.503-29.503 29.503-29.503-13.235-29.503-29.503 13.235-29.503 29.503-29.503zm64.843 171.652h-15.065c-1.505 0-2.964-.314-4.337-.935l-49.239-22.243c-2.158-.975-3.943-2.671-5.028-4.776l-18.156-35.243c-2.529-4.909-8.56-6.84-13.469-4.31-4.91 2.529-6.839 8.56-4.31 13.47l13.872 26.928-9.977 27.109h-61.267l14.357-66.514c5.322-24.708 29.75-40.482 54.46-35.156 7.36 1.584 13.534 6.345 16.952 13.064.021.042 22.989 44.641 22.989 44.641 1.034 2.006 2.716 3.604 4.773 4.533l38.687 17.477c1.293.584 2.697.887 4.117.887h10.642c5.808 0 10.534 4.726 10.534 10.534s-4.726 10.534-10.535 10.534z"/><circle cx="42.883" cy="313.358" r="10"/></g></g></svg>