<svg id="Capa_1" enable-background="new 0 0 512.013 512.013" height="512" viewBox="0 0 512.013 512.013" width="512" xmlns="http://www.w3.org/2000/svg"><g><g><path d="m94.401 369.266-18.783 78.697c-4.03 16.887 8.773 33.106 26.134 33.106 12.382 0 23.161-8.461 26.1-20.489l19.781-80.939c4.025-16.469 2.506-33.805-4.322-49.322l-45.302-90.33h-87.553c-.262 2.443-.395 4.899-.395 7.36-2.745 44.263 84.34 121.917 84.34 121.917z" fill="#7aa9bf"/></g><g><circle cx="134.977" cy="74.031" fill="#ffd1c8" r="43.088"/></g><g><path d="m205.704 195.194h-11.608l-42.197-19.062-24.981-48.491c-4.997-9.93-14.273-17.597-25.986-20.12-32.882-7.082-65.28 13.832-72.362 46.715l-16.956 78.559c-.513 2.378-.899 4.779-1.158 7.194h87.555l15.166-41.209 2.476 4.806c2.315 4.494 6.083 8.073 10.69 10.154l53.708 24.262c2.898 1.309 6.041 1.986 9.221 1.986h16.432c12.37 0 22.398-10.028 22.398-22.398s-10.027-22.396-22.398-22.396z" fill="#fff"/></g><g><g><path d="m385.375 240.799 81.393 101.765c16.635 20.798 13.26 51.143-7.538 67.778-4.636 3.708-9.917 6.528-15.577 8.319l-22.597 7.147-11.456 41.575c-4.04 14.664-23.002 18.564-32.502 6.686-2.632-3.29-4.07-7.376-4.08-11.589l-.103-42.856c-.013-5.277.573-10.539 1.745-15.685 3.346-14.69 13.362-26.975 27.078-33.21l-13.198 8.887-82.323-83.93 29.513 4.85c-27.766 1.48-73.159-22.268-88.855-35.851l-14.175-12.267c-5.066-4.388-7.551-11.052-6.598-17.686l.079-.55c2.235-15.553 20.175-23.117 32.831-13.877 5.161 3.768 10.57 7.716 15.784 11.523 4.762 3.476 9.724 6.638 14.852 9.474 13.469 7.449 30.402.551 35.149-14.091 1.966-6.063.753-12.708-3.228-17.685l-12.661-15.83c-8.871-11.091-7.071-27.274 4.02-36.145l7.929-6.342c4.232-3.385 10.407-2.698 13.792 1.534 4.736 5.922 12.135 9.073 19.698 8.374 14.765-1.364 29.138 5.318 38.399 16.898l3.468 4.336z" fill="#ffdb85"/></g><g><path d="m350.353 237.671c-7.728-9.662-6.16-23.759 3.502-31.487l38.654-28.463 7.562 9.455c11.279 14.102 8.991 34.678-5.112 45.958l-9.585 7.666c-9.661 7.726-27.293 6.533-35.021-3.129z" fill="#ffdb85"/></g></g><g><g><path d="m309.201 286.149c.112.032-.111-.037 0 0z"/><path d="m505.46 305.154c-2.838-4.738-8.981-6.279-13.717-3.44-4.738 2.838-6.278 8.979-3.441 13.718 5.671 9.468 3.588 20.578 1.842 26.358-1.34 4.434-3.386 8.708-5.823 12.407-2.109-6.321-5.345-12.38-9.744-17.88l-5.234-6.544c-3.45-4.314-9.743-5.013-14.056-1.563-4.312 3.45-5.012 9.743-1.562 14.056l5.234 6.544c13.164 16.458 10.483 40.558-5.975 53.722-3.689 2.951-7.844 5.169-12.347 6.594l-22.597 7.147c-3.231 1.021-5.725 3.61-6.625 6.878l-11.456 41.576c-1.267 4.597-5.022 5.838-6.578 6.158-1.557.318-5.497.662-8.474-3.061-1.214-1.519-1.886-3.425-1.891-5.368l-.104-42.856c-.011-4.515.492-9.036 1.495-13.439 2.636-11.573 10.661-21.415 21.466-26.327 5.028-2.286 7.25-8.215 4.965-13.242-2.287-5.028-8.215-7.252-13.242-4.965-2.871 1.305-5.604 2.853-8.197 4.589l-54.59-55.655c.483-.013.972-.012 1.45-.038 5.515-.294 9.748-5.003 9.454-10.518s-5.022-9.769-10.518-9.453c-6.822.358-15.849-1.212-25.996-4.401-5.709-1.811-11.982-4.194-18.368-7.029-17.019-7.556-31.054-16.491-37.415-21.996l-14.171-12.265c-2.505-2.17-3.68-5.699-3.208-8.98.788-5.484 4.854-8.011 6.549-8.725 1.686-.712 6.088-2.014 10.526 1.227l15.785 11.523c5.067 3.698 10.419 7.113 15.908 10.148 8.972 4.961 19.613 5.639 29.194 1.854 9.693-3.827 17.095-11.704 20.306-21.61.563-1.736.956-3.501 1.183-5.272.268 6.663 2.578 13.298 7.053 18.893 5.36 6.702 14.027 11.005 23.777 11.806 1.102.09 2.2.135 3.292.135 4.602 0 9.08-.797 13.156-2.307l14.752 18.444c1.975 2.47 4.882 3.754 7.816 3.754 2.19 0 4.396-.716 6.24-2.19 4.313-3.45 5.013-9.742 1.563-14.056l-13.709-17.141 1.775-1.42c18.386-14.706 21.38-41.628 6.674-60.014 0 0-7.813-9.74-7.94-9.882-11.642-14.078-28.948-21.515-46.516-19.887-4.213.39-8.32-1.353-10.967-4.663-6.823-8.531-19.316-9.921-27.848-3.097l-7.929 6.342c-15.379 12.301-17.884 34.82-5.584 50.2l12.661 15.83c1.886 2.358 2.457 5.481 1.525 8.354-1.363 4.206-4.507 7.551-8.626 9.177-4.068 1.606-8.389 1.339-12.17-.753-4.76-2.633-9.401-5.593-13.796-8.801l-15.783-11.521c-8.266-6.036-18.693-7.558-28.25-4.211-4.093-13.205-16.42-22.823-30.953-22.823h-9.454l-37.058-16.741-21.336-41.415c27.938-1.501 50.207-24.701 50.207-53.007 0-29.272-23.815-53.088-53.088-53.088s-53.083 23.815-53.083 53.087c0 7.903 1.749 15.401 4.859 22.147-32.136.612-60.899 23.199-67.952 55.948l-16.957 78.56c-.585 2.711-1.033 5.5-1.328 8.255-.287 2.685-.44 5.423-.45 8.111-1.138 21.015 13.514 49.397 43.555 84.371 16.069 18.707 32.135 34.193 39.693 41.241l-17.418 72.979c-2.636 11.045-.112 22.491 6.923 31.404 7.036 8.912 17.583 14.023 28.938 14.023 17.041 0 31.769-11.562 35.814-28.115l19.781-80.939c4.522-18.501 2.788-38.291-4.883-55.724-.067-.153-.139-.306-.214-.456l-43.36-86.458 7.383-20.059c1.851 1.376 3.835 2.58 5.952 3.536l53.707 24.261c4.22 1.907 8.708 2.874 13.339 2.874h16.433c4.229 0 8.267-.823 11.974-2.303 1.699 4.671 4.573 8.912 8.476 12.293l14.175 12.268c9.131 7.901 25.769 17.774 42.388 25.152 5.325 2.364 11.515 4.863 18.082 7.046l74.131 75.577c-4.752 6.41-8.22 13.783-10.022 21.696-1.337 5.874-2.009 11.906-1.994 17.93l.104 42.856c.016 6.447 2.242 12.772 6.271 17.811 5.514 6.895 13.708 10.755 22.294 10.754 1.932 0 3.884-.195 5.83-.596 10.592-2.179 18.957-10.009 21.829-20.435l10.012-36.337 17.415-5.509c6.86-2.169 13.188-5.548 18.809-10.043 12.267-9.812 19.495-23.615 21.343-38.088 9.941-6.754 18.301-18.689 22.47-32.488 4.664-15.442 3.304-30.507-3.831-42.42zm-113.199-111.733c7.817 9.773 6.226 24.085-3.548 31.902l-9.585 7.666c-2.6 2.08-6.878 3.155-11.172 2.8-4.224-.347-7.886-1.978-9.794-4.364-4.236-5.296-3.416-13.03 1.806-17.324l30.732-22.63zm-73.088-28.061 7.783-6.226c6.865 8.484 17.432 12.94 28.31 11.94 7.622-.711 15.212 1.374 21.626 5.727 0 0-29.178 21.489-29.282 21.572-6.922 5.537-10.965 13.355-11.923 21.532-.298-5.978-2.447-11.797-6.309-16.625l-12.661-15.83c-5.414-6.768-4.312-16.677 2.456-22.09zm-184.196-124.417c18.245 0 33.088 14.843 33.088 33.088s-14.843 33.088-33.088 33.088-33.088-14.843-33.088-33.088 14.843-33.088 33.088-33.088zm-.72 293.626c5.825 13.373 7.127 28.527 3.664 42.698l-19.782 80.939c-1.851 7.573-8.589 12.863-16.386 12.863-5.195 0-10.021-2.339-13.24-6.416-3.219-4.078-4.374-9.315-3.167-14.369l18.783-78.697c.854-3.578-.326-7.337-3.072-9.785-31.527-28.112-80.486-82.548-81.056-111.813h71.838zm71.448-104.58h-16.433c-1.772 0-3.489-.37-5.104-1.1l-53.708-24.262c-2.539-1.146-4.64-3.144-5.917-5.622-.085-.165-.175-.328-.269-.488l-23.764-40.412c-2.8-4.761-8.93-6.352-13.689-3.551-4.761 2.8-6.351 8.929-3.551 13.689l18.754 31.892-10.987 29.854h-68.587l15.897-73.648c5.91-27.438 33.044-44.956 60.481-39.045 8.295 1.787 15.254 7.152 19.107 14.724.023.046.039.093.063.139l25.013 48.554c1.034 2.006 2.716 3.604 4.773 4.533l42.197 19.062c1.293.584 2.697.887 4.117.887h11.608c6.836 0 12.397 5.562 12.397 12.397s-5.563 12.397-12.398 12.397z"/></g><circle cx="433.427" cy="300.889" r="10"/></g></g></svg>