<svg id="Capa_1" enable-background="new 0 0 512.012 512.012" height="512" viewBox="0 0 512.012 512.012" width="512" xmlns="http://www.w3.org/2000/svg"><g><circle cx="135.738" cy="68.444" fill="#ffd1c8" r="38.447"/><path d="m233.721 451.092-18.769-95.483c-.396-2.016-1.033-3.977-1.896-5.84l-51.905-101.686h-75.897l-73.722 199.567c-4.796 13.343 2.132 28.048 15.474 32.843 2.869 1.031 5.8 1.521 8.683 1.521 10.524 0 20.395-6.521 24.16-16.996l65.543-157.006 39.776 60.534 18.172 92.448c2.406 12.241 13.141 20.727 25.162 20.726 1.641-.001 3.308-.159 4.979-.488 13.913-2.733 22.975-16.228 20.24-30.14z" fill="#7aa9bf"/><ellipse cx="459.855" cy="130.692" fill="#33d7f6" rx="42.157" ry="24.497"/><path d="m85.254 147.127c0-7.596 2.24-14.664 6.084-20.598-.154.193-.321.368-.47.566l-42.395 56.712c-1.895 2.535-3.246 5.433-3.969 8.515l-16.092 68.6c-2.899 12.362 4.77 24.735 17.133 27.634 3.221.755 6.442.793 9.496.218 8.669-1.633 15.993-8.21 18.137-17.35l12.075-51.474v-72.823z" fill="#ff7d99"/><g><g fill="#fff"><path d="m422.021 259.376-60.692 55.935"/><path d="m381.253 208.66c6.901-8.628 5.501-21.217-3.127-28.118l-33.164-26.509-6.753 8.443c-10.072 12.593-8.029 30.967 4.565 41.04l8.559 6.846c8.628 6.9 23.019 6.926 29.92-1.702z"/><path d="m381.253 208.66c6.901-8.628 5.501-21.217-3.127-28.118l-33.164-26.509-6.753 8.443c-10.072 12.593-8.029 30.967 4.565 41.04l8.559 6.846c8.628 6.9 23.019 6.926 29.92-1.702z"/></g><g fill="#ffdb85"><path d="m292.317 283.732 59.016-73.37-9.678-52.193 3.097-3.872c8.27-10.34 21.105-16.308 34.29-15.09 6.754.624 13.36-2.19 17.59-7.478 3.023-3.779 8.537-4.393 12.316-1.37l7.081 5.663c9.904 7.922 11.512 22.373 3.59 32.277l-11.306 14.136c-3.555 4.445-4.638 10.379-2.883 15.793 3.149 9.714 12.306 15.605 21.737 15.267 5.872-1.627 9.65-2.684 9.65-2.684 4.579-2.533 9.01-5.356 13.263-8.461 4.657-3.399 9.486-6.925 14.095-10.29 11.301-8.251 27.321-1.497 29.317 12.392l.071.491c.851 5.924-1.368 11.874-5.892 15.793l-12.658 10.955c-9.669 8.368-31.956 21.051-52.991 27.683l-.001.001-60.692 55.935s-.382.63-1.049 1.666c7.701 16.369 9.54 35.056 4.913 52.84l-5.49 21.1c-2.03 7.8-9.072 13.244-17.132 13.244-9.777 0-17.702-7.925-17.702-17.702v-23.253c0-7.721-5.123-14.505-12.549-16.618-5.533-1.575-10.657-4.337-15.014-8.094-16.148-13.926-18.354-38.145-4.989-54.761z"/><path d="m381.253 208.66c6.901-8.628 5.501-21.217-3.127-28.118l-33.164-26.509-6.753 8.443c-10.072 12.593-8.029 30.967 4.565 41.04l8.559 6.846c8.628 6.9 23.019 6.926 29.92-1.702z"/></g></g><path d="m257.623 133.422h-61.645l-58.278-21.401c-.191-.07-9.581-2.842-14.498-2.842-20.958 0-37.948 16.99-37.948 37.948v100.956h75.897v-81.869l23.649 8.684c2.362.867 4.858 1.311 7.374 1.311h65.449c11.815 0 21.393-9.578 21.393-21.394.001-11.815-9.577-21.393-21.393-21.393z" fill="#ff7d99"/><g><path d="m224.765 353.685c-.549-2.8-1.436-5.532-2.636-8.122-.053-.114-.108-.228-.166-.341l-50.812-99.544v-65.139l10.206 3.748c3.478 1.275 7.117 1.922 10.817 1.922h65.449c17.311 0 31.394-14.083 31.394-31.394s-14.083-31.394-31.394-31.394h-59.868l-36.922-13.551c13.989-8.505 23.352-23.893 23.352-41.427 0-26.713-21.733-48.446-48.447-48.446s-48.447 21.735-48.447 48.447c0 13.939 5.926 26.515 15.381 35.361-6.482 3.084-12.165 7.581-16.653 13.09-.252.27-45.556 60.925-45.556 60.925-2.735 3.66-4.651 7.771-5.695 12.218l-16.092 68.601c-2.012 8.579-.563 17.428 4.08 24.917 4.644 7.49 11.926 12.724 20.505 14.735 2.502.587 5.025.881 7.549.881 1.689 0 3.377-.14 5.06-.403l-53.748 145.498c-3.223 8.967-2.762 18.652 1.299 27.271 4.061 8.62 11.236 15.143 20.203 18.365 3.895 1.4 7.955 2.11 12.066 2.11 14.913 0 28.33-9.374 33.477-23.356l12.755-30.555c2.128-5.097-.279-10.953-5.376-13.081-5.095-2.126-10.953.279-13.08 5.376l-12.844 30.769c-.065.155-.126.312-.183.471-2.231 6.207-8.158 10.377-14.749 10.377-1.799 0-3.582-.313-5.301-.931-3.939-1.416-7.091-4.281-8.875-8.068s-1.987-8.043-.601-11.9l71.307-193.032h62.807l49.025 96.043c.491 1.09.856 2.235 1.087 3.412l18.769 95.482c.807 4.107-.033 8.284-2.367 11.759-2.333 3.476-5.881 5.834-9.993 6.642-1.007.198-2.034.299-3.047.3-7.452.001-13.907-5.321-15.349-12.654l-18.173-92.449c-.25-1.271-.744-2.48-1.455-3.562l-39.776-60.534c-2.031-3.092-5.603-4.796-9.286-4.466-3.683.344-6.875 2.691-8.3 6.104l-18.02 43.165c-2.128 5.097.279 10.953 5.375 13.081 5.095 2.124 10.953-.28 13.081-5.376l10.77-25.797 28.364 43.166 17.795 90.525c3.28 16.688 17.989 28.798 34.98 28.797 2.309-.001 4.632-.229 6.901-.676 9.35-1.837 17.424-7.205 22.736-15.116 5.312-7.91 7.225-17.416 5.387-26.766zm-149.511-134.881c-.004.017-.01.033-.015.051l-11.795 50.285c-1.174 5.005-5.199 8.854-10.255 9.807-1.773.334-3.576.292-5.36-.127-3.378-.792-6.246-2.853-8.074-5.802s-2.399-6.434-1.606-9.812l16.092-68.601c.411-1.751 1.165-3.369 2.247-4.816l18.767-25.144v54.159zm60.484-178.806c15.686 0 28.447 12.761 28.447 28.446s-12.761 28.446-28.447 28.446-28.447-12.761-28.447-28.446 12.761-28.446 28.447-28.446zm6.127 129.786 9.285 3.41v64.889h-55.896v-90.956c0-15.411 12.538-27.948 27.948-27.948 3.72 0 7.311.705 10.673 2.095.124.052 58.658 21.536 58.658 21.536 1.104.405 2.27.612 3.445.612h61.645c6.282 0 11.394 5.111 11.394 11.394s-5.111 11.394-11.394 11.394h-65.449c-1.344 0-2.666-.235-3.927-.697l-39.487-14.501c-5.184-1.905-10.931.755-12.834 5.939s.755 10.93 5.939 12.833z"/><path d="m486.189 180.732c-9.312-3.923-19.747-2.707-27.91 3.253l-14.095 10.288c-3.892 2.841-7.998 5.46-12.207 7.787-3.093 1.71-6.628 1.928-9.957.613-3.379-1.334-5.959-4.079-7.077-7.53-.721-2.222-.28-4.638 1.18-6.462l11.306-14.135c3.33-4.164 5.475-8.896 6.499-13.79 7.597 2.824 16.424 4.433 25.928 4.433 29.247 0 52.157-15.153 52.157-34.497s-22.91-34.496-52.157-34.496c-23.422 0-42.767 9.723-49.548 23.529-2.795-1.096-5.832-1.51-8.906-1.17-4.98.555-9.447 3.015-12.579 6.929-2.138 2.674-5.455 4.086-8.859 3.767-16.067-1.483-31.884 5.316-42.506 18.196-.101.115-7.056 8.785-7.056 8.785-13.5 16.88-10.751 41.595 6.128 55.096l.728.582-52.73 65.557c-3.752 4.665-6.526 9.788-8.354 15.126-1.15-2.23-2.133-4.604-2.868-7.04-1.509-4.992-3.314-14.577 1.538-22.679 2.838-4.738 1.297-10.88-3.44-13.718-4.741-2.839-10.881-1.296-13.718 3.44-6.528 10.9-7.78 24.658-3.525 38.74 3.868 12.801 11.719 23.867 21.037 29.968 2.486 9.297 7.709 17.975 15.58 24.764 5.418 4.674 11.921 8.18 18.81 10.141 3.111.886 5.284 3.764 5.284 6.999v23.254c0 15.274 12.427 27.701 27.702 27.701 12.61 0 23.635-8.522 26.81-20.726l5.49-21.102c4.645-17.851 3.544-36.419-2.845-53.282l55.164-50.839c5.905-1.962 11.466-4.207 16.249-6.33 14.929-6.627 29.891-15.51 38.118-22.63l12.662-10.958c7.129-6.176 10.548-15.688 9.208-25.015-1.446-10.033-7.912-18.62-17.241-22.549zm-26.334-64.537c19.63 0 32.157 8.586 32.157 14.496 0 5.911-12.527 14.497-32.157 14.497s-32.156-8.586-32.156-14.497c-.001-5.91 12.526-14.496 32.156-14.496zm-81.734 32.97c9.712.89 19.165-2.916 25.526-10.239l6.135 4.906c5.582 4.465 6.491 12.639 2.026 18.222l-11.306 14.135c-3.098 3.873-5.005 8.433-5.652 13.18-1.51-6.553-5.148-12.372-10.481-16.638l-24-19.184c5.338-3.365 11.532-4.959 17.752-4.382zm-32.102 19.557.508-.636 25.354 20.266c2.087 1.669 3.399 4.051 3.694 6.707.296 2.656-.461 5.269-2.131 7.355-1.397 1.748-3.905 2.814-6.881 2.928-3.274.104-6.645-.919-8.984-2.79l-8.559-6.846c-8.267-6.612-9.614-18.717-3.001-26.984zm135.108 44.454-12.658 10.954c-12.434 10.76-49.094 29.637-70.487 29.637-.606 0-1.201-.016-1.783-.046-5.502-.307-10.224 3.937-10.518 9.453-.243 4.536 2.581 8.521 6.659 9.958l-29.886 27.543c-.322-.473-.642-.946-.974-1.414-3.196-4.504-9.438-5.566-13.942-2.37-4.505 3.196-5.565 9.438-2.37 13.942 11.643 16.411 15.414 36.991 10.348 56.465l-5.49 21.102c-.883 3.393-3.948 5.762-7.454 5.762-4.247 0-7.702-3.455-7.702-7.701v-23.254c0-12.129-8.147-22.918-19.811-26.235-4.108-1.169-7.988-3.261-11.221-6.049-12.132-10.464-13.77-28.439-3.728-40.923l53.783-66.866c3.843 1.445 7.987 2.219 12.152 2.219.425 0 .85-.009 1.273-.024 8.788-.332 16.713-4.131 21.744-10.421v-.001c3.568-4.461 5.737-9.723 6.373-15.262.142.559.302 1.115.482 1.668 2.967 9.151 9.804 16.428 18.758 19.964 8.855 3.496 18.689 2.871 26.98-1.713 4.938-2.73 9.755-5.804 14.318-9.135l14.099-10.291c3.52-2.569 7.013-1.539 8.353-.974 1.346.566 4.579 2.606 5.204 6.954.369 2.566-.546 5.363-2.502 7.058z"/><circle cx="90.042" cy="392.713" r="10"/></g></g></svg>