<svg id="Capa_1" enable-background="new 0 0 512.001 512.001" height="512" viewBox="0 0 512.001 512.001" width="512" xmlns="http://www.w3.org/2000/svg"><g><g fill="#ffdb85"><path d="m423.44 297.761c-8.996-2.936-16.949-8.413-22.902-15.768l-19.26-23.802-50.128 9.006-2.673 4.687c-12.336 21.628-11.492 48.349 2.186 69.156 3.496 5.318 3.815 12.118.834 17.74l-20.752 39.131c-7.103 13.393 2.605 29.531 17.766 29.531 6.843 0 13.216-3.48 16.916-9.236l15.657-24.798.972-.414c-3.54 3.665-5.728 8.645-5.728 14.143 0 11.252 9.121 20.373 20.373 20.373h26.101c36.735 0 66.515-29.78 66.515-66.515-.001-28.785-18.515-54.303-45.877-63.234z"/><path d="m357.304 194.347h-5.656c-14.369 0-27.801 7.131-35.852 19.032-4.062 6.004-10.839 9.602-18.088 9.602-5.245 0-9.497 4.252-9.497 9.497v9.827c0 13.746 11.143 24.889 24.889 24.889h17.586l50.592-9.006z"/><path d="m373.247 259.555c-11.975 0-21.682-9.707-21.682-21.682v-43.525h11.718c17.478 0 31.646 14.169 31.646 31.646v11.879c.001 11.974-9.707 21.682-21.682 21.682z"/></g><path d="m94.149 281.345-10.68 106.97h-49.385c-13.301 0-24.084 10.783-24.084 24.085s10.783 24.084 24.084 24.084h72.609c12.96 0 23.597-10.257 24.069-23.208l8.763-83.762h39.355l-14.938 78.377c-2.491 13.066 6.083 25.677 19.149 28.168 1.524.291 3.039.43 4.535.43 11.333-.001 21.432-8.037 23.631-19.579l20.389-106.97c1.345-7.051-.526-14.333-5.102-19.863s-11.379-8.731-18.556-8.731h-77.261-36.578z" fill="#7aa9bf"/><circle cx="157.105" cy="111.581" fill="#ffd1c8" r="36.069"/><path d="m321.466 319.232-54.875-22.872c-6.316-2.633-10.86-8.296-12.061-15.033-2.66-14.925 11.523-27.315 25.955-22.672l42.165 13.564z" fill="#ffdb85"/><path d="m244.951 239.098-53.715-20.011-3.043-2.94v-23.026c0-25.969-21.052-47.022-47.022-47.022-25.969 0-47.022 21.052-47.022 47.022v88.224h94.043v-20.556l42.744 15.924c2.31.86 4.677 1.268 7.004 1.268 8.142 0 15.801-4.992 18.81-13.069 3.871-10.387-1.413-21.945-11.799-25.814z" fill="#ff7d99"/><g><path d="m503.077 358.742c-5.485-.591-10.424 3.374-11.019 8.865-1.018 9.389-8.24 15.944-12.455 19.016-1.937 1.412-4.015 2.652-6.141 3.698 3.765-9.038 5.854-18.942 5.854-29.328 0-33.204-21.208-62.436-52.774-72.739-7.177-2.343-13.481-6.684-18.23-12.553l-12.574-15.539c5.678-5.729 9.193-13.606 9.193-22.29v-11.878c0-22.964-18.683-41.646-41.646-41.646 0 0-11.804.006-11.848.007-17.632.07-34.039 8.811-43.923 23.423-2.204 3.259-5.869 5.205-9.805 5.205-10.751 0-19.497 8.747-19.497 19.498v9.827c0 1.943.167 3.847.474 5.705-4.094-.613-8.209-.382-12.126.667-.359-1.106-.776-2.201-1.267-3.275-3.34-7.306-9.324-12.873-16.85-15.676l-50.249-18.72v-17.886c0-16.412-6.97-31.226-18.105-41.64 13.784-7.971 23.086-22.865 23.086-39.901 0-25.402-20.666-46.068-46.068-46.068s-46.069 20.666-46.069 46.068c0 10.662 3.646 20.485 9.749 28.301-21.401 8.222-36.636 28.979-36.636 53.24v87.724l-9.731 97.47h-40.336c-18.794-.002-34.084 15.288-34.084 34.083 0 18.794 15.29 34.084 34.084 34.084h72.61c18.308 0 33.192-14.236 34.046-32.478l7.793-74.493h18.261l-12.675 66.504c-1.705 8.943.175 18.015 5.294 25.544 5.118 7.529 12.862 12.614 21.806 14.319 2.113.403 4.269.607 6.409.607 16.326-.001 30.396-11.654 33.454-27.707l2.087-10.948c1.034-5.425-2.525-10.662-7.951-11.696-5.42-1.033-10.661 2.525-11.696 7.951l-2.087 10.95c-1.264 6.634-7.071 11.45-13.808 11.45-.885 0-1.781-.085-2.663-.253-3.696-.705-6.896-2.806-9.011-5.917s-2.892-6.859-2.187-10.555l14.938-78.377c.558-2.927-.219-5.951-2.119-8.247s-4.725-3.625-7.705-3.625h-39.355c-5.12 0-9.413 3.867-9.946 8.959 0 0-8.803 84.213-8.811 84.439-.277 7.61-6.459 13.572-14.075 13.572h-72.61c-7.765.001-14.083-6.317-14.083-14.083s6.318-14.084 14.084-14.084h49.386c5.138 0 9.44-3.894 9.951-9.006l9.781-97.964h104.788c4.211 0 8.167 1.861 10.852 5.106s3.772 7.478 2.983 11.616l-1.452 7.62c-1.034 5.425 2.526 10.661 7.951 11.695.632.121 1.262.179 1.883.179 4.706 0 8.898-3.337 9.812-8.13l1.452-7.618c1.581-8.287.042-16.729-4.217-23.847.229.005.458.015.688.015 2.64 0 5.22-.371 7.701-1.035 2.659 8.384 8.838 15.2 17.101 18.645l50.208 20.927c2.099 6.969 5.213 13.713 9.355 20.014 1.491 2.267 1.627 5.165.355 7.562l-20.751 39.13c-4.995 9.417-4.696 20.493.799 29.627 5.495 9.135 15.141 14.589 25.801 14.589 9.502 0 18.295-4.413 24.005-11.957 5.552 7.301 14.325 12.026 24.185 12.026h26.102c21.601 0 41.126-9.012 55.052-23.457.442.015.884.031 1.332.031 10.479 0 22.243-4.042 32.199-11.298 11.889-8.665 19.189-20.393 20.558-33.024.593-5.492-3.376-10.425-8.867-11.02zm-118.147-132.748v11.878c0 4.874-3.003 9.055-7.253 10.804l-4.785.86c-6.276-.191-11.325-5.343-11.325-11.664v-33.525h1.718c11.934 0 21.645 9.711 21.645 21.647zm-86.719 6.983c10.392-.163 20.033-5.368 25.868-13.995 4.254-6.29 10.444-10.839 17.486-13.075v31.964c0 6.025 1.691 11.661 4.622 16.462l-15.928 2.862h-17.159c-8.21 0-14.889-6.68-14.889-14.89zm-141.106-147.464c14.374 0 26.068 11.694 26.068 26.068 0 14.375-11.694 26.069-26.068 26.069-14.375 0-26.069-11.694-26.069-26.069.001-14.374 11.695-26.068 26.069-26.068zm77.323 181.829-57.639-21.474c-1.308-.487-2.479-1.226-3.482-2.194l-35.028-33.84c-3.973-3.837-10.303-3.728-14.14.244s-3.728 10.303.244 14.14l35.028 33.84c2.995 2.893 6.492 5.098 10.396 6.552l8.387 3.125v3.611h-74.043v-78.224c0-20.414 16.608-37.021 37.021-37.021 20.229 0 36.71 16.31 37.008 36.468l-5.602-5.412c-3.972-3.837-10.302-3.729-14.14.244-3.837 3.972-3.728 10.303.244 14.14l25.607 24.739c.99.957 2.167 1.698 3.457 2.179l53.716 20.012c2.52.938 4.524 2.803 5.642 5.249s1.217 5.182.277 7.704c-1.461 3.923-5.254 6.559-9.438 6.559-1.195-.002-2.378-.217-3.515-.641zm29.947 12.231c-.905-5.079 2.008-8.257 3.302-9.388 1.295-1.131 4.835-3.59 9.746-2.01l36.485 11.737c-2.655 7.672-4.04 15.634-4.165 23.601l-39.304-16.382c-3.191-1.331-5.458-4.156-6.064-7.558zm138.426 137.936h-26.102c-5.72 0-10.373-4.653-10.373-10.373s4.653-10.373 10.373-10.373h18.282c5.522 0 10-4.477 10-10s-4.478-10-10-10h-9.129c3.791-14.985 15.885-27.016 31.516-30.214 5.41-1.107 8.899-6.391 7.792-11.802-1.107-5.412-6.394-8.902-11.802-7.792-16.052 3.285-29.598 12.828-38.308 25.75-.256.313-38.037 60.092-38.037 60.092-1.868 2.907-5.048 4.643-8.504 4.643-5.159 0-7.777-3.426-8.663-4.898s-2.686-5.39-.268-9.947l20.752-39.131c4.693-8.85 4.19-19.548-1.312-27.918-11.672-17.755-12.383-40.251-1.856-58.707l.357-.626s39.009-6.824 39.865-6.936l15.38 19.007c7.183 8.876 16.717 15.441 27.572 18.984 23.314 7.61 38.979 29.201 38.979 53.726.001 31.162-25.351 56.515-56.514 56.515z"/><circle cx="221.709" cy="361.761" r="10"/></g></g></svg>