<svg id="Capa_1" enable-background="new 0 0 512 512" height="512" viewBox="0 0 512 512" width="512" xmlns="http://www.w3.org/2000/svg"><g><g><path d="m213.926 245.291v231.964c0 13.666-11.079 24.745-24.745 24.745s-24.745-11.079-24.745-24.745v-164.789 10.448 154.341c0 13.666-11.079 24.745-24.745 24.745s-24.745-11.079-24.745-24.745v-231.964z" fill="#7aa9bf"/></g><circle cx="164.436" cy="51.096" fill="#ffd1c8" r="41.096"/><path d="m359.917 354.383c-10.234-3.341-19.284-9.571-26.056-17.94l-15.917-19.671-12.739-76.488-6.205-1.705c-15.763-4.332-32.649-.56-45.07 10.069-6.266 5.363-14.786 7.266-22.738 5.08-5.754-1.582-11.701 1.801-13.283 7.556l-2.963 10.781c-4.145 15.08 4.72 30.665 19.8 34.809l19.292 5.302-5.277 11.143c-12.271 25.911-10.149 56.345 5.6 80.302 3.977 6.05 4.341 13.787.948 20.183l-23.61 44.52c-8.081 15.238 2.964 33.598 20.212 33.598 7.785 0 15.036-3.959 19.246-10.508l22.596-35.767h12.778c-12.705.112-22.971 10.442-22.971 23.174 0 12.801 10.377 23.179 23.179 23.179h29.696c41.795 0 75.676-33.881 75.676-75.676 0-32.748-21.063-61.78-52.194-71.941z" fill="#ffdb85"/><path d="m313.154 183.635-62.193-23.17-42.143-55.746c-5.056-7.156-13.387-11.834-22.816-11.834h-43.133c-8.872 0-16.771 4.142-21.886 10.592l-.001-.003-48.182 59.028c-2.101 2.565-3.565 5.591-4.27 8.832l-15.868 72.892c-2.465 11.323 4.717 22.501 16.04 24.965 2.294.5 4.583.603 6.793.356 8.702-.971 16.207-7.367 18.173-16.396l14.794-67.963 6.482-7.875v67.978h98.981v-64.226l7.244 9.582c2.407 3.184 5.672 5.616 9.413 7.009l67.921 25.304c2.415.9 4.889 1.326 7.322 1.326 8.512 0 16.52-5.219 19.665-13.663 4.046-10.86-1.477-22.942-12.336-26.988z" fill="#ff7d99"/><path d="m303.034 316.626c-13.137-3.61-20.859-17.187-17.249-30.324l13.123-47.749 12.855 3.533c19.174 5.27 30.446 25.085 25.176 44.259l-3.581 13.031c-3.611 13.138-17.187 20.86-30.324 17.25z" fill="#ffdb85"/><g><path d="m460.904 406.993c-5.479-.593-10.424 3.374-11.019 8.865-1.088 10.038-8.778 17.023-13.266 20.294-4.989 3.636-10.867 6.214-16.236 7.321 1.131-5.542 1.727-11.277 1.727-17.148 0-37.18-23.747-69.911-59.091-81.447-8.42-2.749-15.814-7.84-21.385-14.725l-9.152-11.31c4.911-4.313 8.66-10.055 10.518-16.815l3.582-13.032c3.256-11.849 1.704-24.257-4.372-34.938-5.905-10.38-15.4-17.91-26.805-21.315 8.812-2.892 16.117-9.663 19.456-18.628 5.964-16.009-2.208-33.886-18.217-39.85l-59.464-22.154-41.216-54.521c-.082-.113-.156-.23-.243-.34-3.855-4.859-8.734-8.602-14.205-11.053 8.677-9.162 14.016-21.515 14.016-35.1 0-28.175-22.922-51.097-51.096-51.097s-51.097 22.922-51.097 51.096c0 13.584 5.339 25.938 14.016 35.099-5.474 2.452-10.354 6.197-14.211 11.061-.012.016-.022.032-.034.048l-48.044 58.86c-3.087 3.769-5.268 8.277-6.307 13.042l-15.867 72.892c-1.76 8.086-.266 16.374 4.208 23.337 4.474 6.962 11.391 11.766 19.476 13.526 2.185.476 4.396.714 6.608.714 1.142 0 2.283-.063 3.422-.19 13.221-1.476 24.005-11.204 26.835-24.207l1.505-6.914v71.22c0 5.523 4.478 10 10 10s10-4.477 10-10v-64.294h78.98v221.964c0 8.13-6.614 14.745-14.745 14.745s-14.745-6.615-14.745-14.745v-164.788c0-5.523-4.478-10-10-10s-10 4.477-10 10v164.789c0 8.13-6.614 14.745-14.745 14.745s-14.745-6.615-14.745-14.745v-67.67c0-5.523-4.478-10-10-10s-10 4.477-10 10v67.67c0 19.159 15.587 34.745 34.745 34.745 9.677 0 18.439-3.98 24.745-10.385 6.306 6.405 15.068 10.385 24.745 10.385 14.371 0 26.732-8.77 32.012-21.239.69 1.791 1.53 3.543 2.545 5.231 6.001 9.975 16.533 15.93 28.174 15.93 11.008 0 21.141-5.424 27.304-14.591 5.966 8.843 16.076 14.669 27.523 14.669h29.695c33.715 0 62.931-19.582 76.906-47.963.522.02 1.046.037 1.575.037 10.889 0 23.123-4.208 33.485-11.76 12.359-9.008 19.948-21.19 21.368-34.302.596-5.491-3.373-10.425-8.864-11.019zm-136.079-143.047c3.435 6.038 4.312 13.052 2.472 19.749l-3.582 13.032c-1.038 3.778-3.485 6.925-6.891 8.862-3.407 1.938-7.364 2.432-11.14 1.394-7.799-2.143-12.4-10.232-10.257-18.031l10.473-38.106 3.213.883c6.699 1.841 12.279 6.18 15.712 12.217zm-160.389-243.946c17.146 0 31.097 13.95 31.097 31.096 0 17.147-13.95 31.097-31.097 31.097s-31.097-13.95-31.097-31.097c0-17.146 13.95-31.096 31.097-31.096zm41.116 133.404c-3.331-4.405-9.602-5.279-14.008-1.947-4.405 3.33-5.277 9.602-1.947 14.007l14.329 18.955v50.871h-78.98v-54.392l12.508-15.195c3.51-4.264 2.898-10.566-1.365-14.076-4.265-3.51-10.567-2.898-14.076 1.365l-21.27 25.84c-1.01 1.227-1.713 2.676-2.051 4.229l-14.794 67.963c-1.003 4.611-4.825 8.061-9.513 8.584-1.174.133-2.372.068-3.555-.189-2.866-.624-5.318-2.327-6.904-4.795s-2.115-5.406-1.491-8.272l15.866-72.89c.368-1.689 1.142-3.288 2.247-4.638l48.182-59.029c.029-.035.052-.073.08-.109.001-.002.003-.003.004-.004 3.427-4.321 8.55-6.799 14.056-6.799h43.133c5.406 0 10.439 2.394 13.865 6.572.012.016.021.032.033.048l43.083 56.991c1.147 1.518 2.704 2.676 4.486 3.34l62.193 23.17c5.675 2.114 8.571 8.452 6.457 14.127-1.594 4.279-5.73 7.153-10.294 7.153-1.303 0-2.592-.234-3.832-.696l-67.921-25.304c-1.96-.73-3.664-1.999-4.926-3.668zm75.254 73.635c-12.145 1.055-23.841 5.848-33.379 14.011-3.749 3.208-8.828 4.344-13.586 3.036-3.35-.921-6.735-.952-9.916-.257v-38.207c1.028.52 2.078 1 3.165 1.405zm-56.88 234.598v-148.412c2.56 1.387 5.292 2.5 8.17 3.291l7.807 2.146-.179.376c-13.671 28.868-11.265 63.383 6.282 90.076 1.972 2.999 2.151 6.833.471 10.004zm112.509 30.363h-29.695c-7.267 0-13.179-5.912-13.179-13.179s5.912-13.179 13.179-13.179h23.283c5.522 0 10-4.477 10-10s-4.478-10-10-10h-14.607c3.928-18.344 18.418-33.234 37.318-37.102 5.41-1.107 8.899-6.391 7.792-11.802s-6.395-8.901-11.802-7.792c-18.894 3.866-34.673 15.507-44.284 31.148-.175.23-41.693 65.912-41.693 65.912-2.381 3.704-6.431 5.915-10.834 5.915-4.628 0-8.65-2.274-11.036-6.24s-2.511-8.585-.343-12.673l23.612-44.521c5.104-9.625 4.556-21.259-1.428-30.36-13.738-20.901-15.623-47.926-4.918-70.53l5.276-11.143c1.265-2.671 1.283-5.764.051-8.45s-3.589-4.689-6.438-5.472l-19.292-5.302c-9.739-2.677-15.485-12.777-12.809-22.517l2.963-10.78c.117-.429.56-.682.99-.564 11.173 3.07 23.092.406 31.891-7.125 7.288-6.237 16.476-9.497 25.832-9.418l-10.121 36.824c-5.065 18.433 5.81 37.55 24.241 42.616 3.063.842 6.144 1.243 9.178 1.243 1.35 0 2.69-.083 4.015-.239l12.51 15.46c8.004 9.892 18.629 17.208 30.728 21.157 27.093 8.843 45.296 33.934 45.296 62.434-.001 36.217-29.463 65.679-65.676 65.679z"/><circle cx="114.945" cy="364.587" r="10"/></g></g></svg>