<svg id="Capa_1" enable-background="new 0 0 511.999 511.999" height="512" viewBox="0 0 511.999 511.999" width="512" xmlns="http://www.w3.org/2000/svg"><g><g fill="#7aa9bf"><path d="m176.886 481.49c-.662.054.652 0 0 0z"/><path d="m199.846 455.582-8.546-104.987c-.194-2.391-.746-4.739-1.638-6.966l-38.72-96.803v.275h-79.725l-10.985 100.806-47.546 99.585c-5.711 11.961-.644 26.288 11.317 31.999 3.337 1.593 6.857 2.347 10.324 2.347 8.959 0 17.557-5.041 21.675-13.665l49.305-103.268c1.164-2.438 1.908-5.055 2.2-7.741l6.54-64.36 29.705 65.292 8.252 101.38c.368 4.526 2.098 8.651 4.74 12.076 9.663 12.525 29.035 12.4 38.476-.293 3.289-4.422 5.097-9.897 4.626-15.677z"/></g><g><path d="m103.291 179.339 24.987 38.697c3.088 4.782 7.857 8.032 13.177 9.274 2.93.684 6.027.758 9.101.142l59.352-11.888c11.639-2.331 19.185-13.657 16.854-25.296-2.331-11.64-13.656-19.185-25.296-16.854l-45.008 9.015s-5.938-37.68-5.937-37.68c-2.951-21.025-21.011-37.203-42.85-37.203-23.898 0-43.272 19.373-43.272 43.272v96.282h86.544v-17.801" fill="#fff"/></g><path d="m64.399 150.819c0-8.145 2.254-15.762 6.167-22.268-.562.596-1.103 1.219-1.605 1.891l-39.634 53.018c-1.772 2.37-3.035 5.08-3.711 7.96l-15.044 64.131c-2.71 11.557 4.46 23.124 16.017 25.834 3.011.706 6.022.742 8.878.204 8.104-1.527 14.951-7.675 16.956-16.22l11.975-51.05v-63.5z" fill="#fff"/><path d="m484.4 258.978c0-26.89-21.798-48.688-48.688-48.688h-39.89c-13.16 0-25.624-5.916-33.945-16.112l-48.197 15.475-4.982 8.735c-8.553 14.995-7.967 33.522 1.515 47.947l10.859 16.518-6.603 49.889c-1.634 12.348 7.974 23.312 20.43 23.312 10.429 0 19.215-7.791 20.46-18.146l4.526-37.612h63.955c1.893 3.851 4.416 7.426 7.527 10.561l9.899 9.975-3.493 10.201c-4.199 12.266 4.916 25.021 17.881 25.021 8.499 0 15.953-5.673 18.217-13.865l7.071-25.584-7.712-25.528 4.23-7.05c4.541-7.566 6.94-16.224 6.94-25.049z" fill="#ffdb85"/><path d="m346.301 134.397h-5.719c-13.296 0-25.726 6.598-33.176 17.611-3.964 5.86-10.577 9.37-17.652 9.37-7.339 0-13.288 5.949-13.288 13.288v10.25c0 13.662 11.075 24.736 24.736 24.736h11.681z" fill="#ffdb85"/><path d="m281.267 481.837v-85.409h180.732v85.409l40 .018v-125.427h-260.732v125.427z" fill="#33d7f6"/><circle cx="123.666" cy="68.771" fill="#ffd1c8" r="38.627"/><path d="m346.301 134.397h-5.719c-13.296 0-25.726 6.598-33.176 17.611-3.964 5.86-10.577 9.37-17.652 9.37-7.339 0-13.288 5.949-13.288 13.288v10.25c0 13.662 11.075 24.736 24.736 24.736h11.681l51.478-12.683z" fill="#ffdb85"/><path d="m361.878 194.179c-10.978 0-19.878-8.9-19.878-19.878v-39.903h10.743c16.023 0 29.013 12.99 29.013 29.013v10.89c-.001 10.978-8.9 19.878-19.878 19.878z" fill="#ffdb85"/><g><path d="m236.567 188.305c-3.41-17.026-20.036-28.104-37.065-24.695l-34.788 6.968c-1.691-10.728-4.12-26.144-4.302-27.3-1.706-12.022-7.448-22.671-15.719-30.666 16.314-7.856 27.6-24.555 27.6-43.84 0-26.813-21.813-48.626-48.626-48.626s-48.628 21.812-48.628 48.625c0 12.569 4.794 24.039 12.648 32.679-9.673 3.93-17.936 10.617-23.811 19.088-.225.246-42.56 56.934-42.56 56.934-2.61 3.493-4.439 7.417-5.436 11.664l-15.045 64.132c-3.964 16.908 6.564 33.889 23.472 37.854 2.388.56 4.796.84 7.204.84 1.939 0 3.879-.182 5.808-.545 8.557-1.612 15.886-6.661 20.502-13.691l-7.345 67.408-46.814 98.048c-3.913 8.195-4.4 17.424-1.372 25.986s9.209 15.433 17.406 19.347c4.619 2.204 9.541 3.322 14.631 3.322 13.033 0 25.084-7.597 30.7-19.355l49.305-103.268c1.654-3.466 2.703-7.158 3.124-11.039l2.802-27.573 13.67 30.046 8.11 99.64c.51 6.271 2.858 12.278 6.789 17.373 6.483 8.403 16.326 13.203 27.05 13.203.104 0 .212 0 .317-.001 10.817-.095 20.677-5.065 27.051-13.636 4.879-6.561 7.212-14.536 6.568-22.456l-8.546-104.981c-.274-3.389-1.055-6.71-2.319-9.874l-38.005-95.016v-9.33l50.929-10.2c17.027-3.41 28.104-20.038 24.695-37.065zm-182.168 24.922c-.025.094-.058.183-.08.278l-11.631 49.58c-1.039 4.429-4.601 7.835-9.072 8.677-1.568.296-3.164.258-4.743-.112-6.17-1.447-10.012-7.645-8.565-13.814l15.045-64.131c.364-1.55 1.031-2.982 1.988-4.263l17.059-22.854v46.639zm69.267-173.083c15.784 0 28.626 12.842 28.626 28.626s-12.842 28.626-28.626 28.626c-15.785 0-28.627-12.842-28.627-28.626s12.842-28.626 28.627-28.626zm56.712 307.198c.521 1.302.842 2.667.955 4.064l8.547 104.985c.32 3.942-1.282 7.016-2.684 8.899-2.604 3.501-6.678 5.532-11.179 5.572-.045 0-.09 0-.135 0-4.476 0-8.56-1.97-11.221-5.42-1.564-2.027-2.494-4.37-2.69-6.777l-8.252-101.381c-.094-1.151-.386-2.278-.864-3.33l-29.706-65.292c-1.871-4.111-6.263-6.462-10.724-5.727-4.458.732-7.871 4.362-8.328 8.857l-6.532 64.293c-.17 1.567-.602 3.084-1.282 4.51l-49.303 103.267c-2.313 4.844-7.28 7.974-12.652 7.974-2.085 0-4.11-.461-6.016-1.371-6.966-3.326-9.927-11.7-6.601-18.667l47.545-99.584c.484-1.016.795-2.106.917-3.225l10.014-91.89h64.095zm27.566-141.582-59.352 11.887c-1.621.325-3.259.3-4.864-.075-2.921-.682-5.424-2.443-7.049-4.96l-24.986-38.697c-2.996-4.639-9.184-5.975-13.826-2.977-4.64 2.996-5.972 9.186-2.977 13.825l24.986 38.697c4.453 6.896 11.309 11.721 19.307 13.588.075.018.151.035.227.052h-65.011v-86.282c0-18.346 14.926-33.272 33.271-33.272 16.495 0 30.659 12.292 32.946 28.593l.029-.004c.066.622 5.934 37.851 5.934 37.851.424 2.691 1.927 5.092 4.162 6.649 2.236 1.557 5.01 2.134 7.68 1.6l45.008-9.015c6.208-1.241 12.283 2.798 13.526 9.013 1.245 6.213-2.798 12.282-9.011 13.527z"/><circle cx="371.633" cy="396.407" r="10"/></g><path d="m501.999 346.428h-18.995c.177-.521.359-1.039.507-1.574l7.07-25.584c.503-1.821.48-3.747-.066-5.556l-6.431-21.288 1.952-3.253c5.472-9.12 8.363-19.561 8.363-30.195 0-10.892-2.993-21.094-8.184-29.846 14.06-16.685 18.924-39.301 12.661-60.596-1.558-5.298-7.114-8.332-12.415-6.772-5.299 1.558-8.331 7.117-6.772 12.415 4.031 13.708 1.409 28.188-6.76 39.457-10.135-8.334-23.101-13.346-37.217-13.346h-39.891c-5.121 0-10.077-1.144-14.56-3.282 6.415-5.484 10.493-13.627 10.493-22.708v-10.89c0-21.512-17.501-39.013-39.013-39.013h-12.16c-16.638 0-32.137 8.228-41.46 22.009-2.106 3.114-5.608 4.973-9.368 4.973-12.841 0-23.288 10.447-23.288 23.288v10.25c0 17.753 13.391 32.429 30.6 34.482-7.246 17.087-5.588 36.642 4.791 52.43l8.812 13.406-6.115 46.197c-.678 5.126-.031 10.275 1.785 14.997h-65.073c-5.522 0-10 4.477-10 10v125.427c0 2.653 1.055 5.197 2.931 7.073 1.875 1.875 4.418 2.927 7.069 2.927h.005l40-.018c5.521-.002 9.995-4.479 9.995-10v-75.409h35.366c5.522 0 10-4.477 10-10s-4.478-10-10-10h-45.366c-5.522 0-10 4.477-10 10v75.414l-20 .009v-105.424h240.732v105.423l-20-.009v-75.414c0-5.523-4.478-10-10-10h-45.366c-5.522 0-10 4.477-10 10s4.478 10 10 10h35.366v75.409c0 5.521 4.475 9.998 9.995 10l40 .018h.005c2.651 0 5.194-1.053 7.069-2.927 1.876-1.875 2.931-4.42 2.931-7.073v-125.427c.002-5.523-4.475-10-9.998-10zm-150-202.031h.743c10.483 0 19.013 8.529 19.013 19.013v10.89c0 5.447-4.432 9.878-9.878 9.878s-9.878-4.431-9.878-9.878zm-50.797 55.256c-8.126 0-14.736-6.611-14.736-14.736v-10.25c0-1.813 1.475-3.288 3.288-3.288 10.407 0 20.103-5.146 25.935-13.767 3.946-5.833 9.738-9.999 16.311-11.955v28.643c0 7.115 2.504 13.654 6.672 18.791l-26.222 6.562zm127.112 128.142c-2.087 6.097-2.041 12.659-.021 18.633h-64.828c.89-2.314 1.515-4.765 1.823-7.324l3.467-28.807h49.338c1.79 2.71 3.852 5.262 6.177 7.604l5.525 5.567zm35.344-33.825 6.875 22.759-6.3 22.796c-1.062 3.844-4.59 6.529-8.578 6.529-2.91 0-5.549-1.358-7.241-3.725-1.691-2.368-2.121-5.304-1.179-8.058l3.492-10.201c1.231-3.598.316-7.583-2.362-10.283l-9.899-9.975c-7.403-7.461-10.408-18.427-7.828-28.616.198-.784.307-1.603.307-2.449 0-5.523-4.477-10-10-10-4.675 0-8.6 3.208-9.696 7.542l.004.006c-1.673 6.613-1.917 13.419-.882 20.001h-50.486c-5.061 0-9.323 3.781-9.929 8.805l-4.526 37.612c-.641 5.325-5.168 9.341-10.531 9.341-3.101 0-5.935-1.284-7.979-3.617-2.044-2.332-2.945-5.31-2.539-8.383l6.604-49.889c.315-2.382-.237-4.797-1.557-6.805l-10.858-16.519c-7.456-11.341-7.91-25.71-1.186-37.5l2.867-5.026 41.326-10.342c9.553 7.906 21.577 12.315 34.244 12.315h39.891c21.332 0 38.688 17.355 38.688 38.688 0 7.01-1.906 13.893-5.514 19.905l-4.23 7.05c-1.452 2.421-1.814 5.339-.998 8.039z"/></g></svg>