<svg id="Capa_1" enable-background="new 0 0 512 512" height="512" viewBox="0 0 512 512" width="512" xmlns="http://www.w3.org/2000/svg"><g><path d="m397.02 271.344-9.924-81.06-6.558-1.802c-16.658-4.578-34.502-.592-47.629 10.641-6.622 5.667-15.625 7.678-24.029 5.369-6.081-1.671-12.365 1.904-14.037 7.984l-3.131 11.393c-4.379 15.936 4.989 32.405 20.925 36.785l20.355 5.582c-8.04 12.046-14.82 25.004-20.149 38.688-8.418 1.169-15.719 2.726-20.907 4.426l-18.288 5.992c-6.537 2.146-11.606 7.745-13.335 14.404-4.053 15.613 9.86 30.168 25.509 26.439 4.886-1.164 9.949-2.37 14.948-3.561-1.039 8.279-1.583 16.712-1.583 25.273 0 26.55 12.694 61.573 25.125 75.113h-22.46c-13.528 0-24.495 10.967-24.495 24.495s10.967 24.495 24.495 24.495h50.284c34.875 0 63.146-28.272 63.146-63.147v-39.114-49.698c.001-27.282-6.246-54.203-18.262-78.697z" fill="#ffdb85"/><path d="m384.802 270.96c-13.883-3.815-22.044-18.163-18.228-32.045l13.868-50.46 13.585 3.734c20.263 5.569 32.174 26.509 26.605 46.772l-3.785 13.771c-3.815 13.883-18.163 22.044-32.045 18.228z" fill="#ffdb85"/><path d="m136.689 474.241v-235.253h-90.263v20.552c0 22.598 14.481 41.777 34.745 48.676v166.025c0 15.293 12.369 27.705 27.661 27.759 15.369.054 27.857-12.39 27.857-27.759z" fill="#7aa9bf"/><circle cx="130.147" cy="52.658" fill="#ffd1c8" r="42.658"/><path d="m215.91 191.515h-63.503l-8.009-14.538v-47.637c0-20.808-16.869-37.677-37.677-37.677-33.3 0-60.295 26.995-60.295 60.295v87.029h169.484c13.11 0 23.737-10.627 23.737-23.737 0-13.108-10.628-23.735-23.737-23.735z" fill="#fff"/><g><path d="m466.651 414.817c-5.483-.59-10.424 3.374-11.019 8.865-1.173 10.825-9.431 18.333-14.248 21.844-5.386 3.925-11.75 6.698-17.556 7.865.952-4.7 1.456-9.561 1.456-14.538v-88.812c0-25.092-5.117-50.251-14.866-73.392 7.916-4.797 13.609-12.307 16.072-21.268l3.784-13.771c3.401-12.375 1.779-25.335-4.566-36.491-6.346-11.156-16.656-19.172-29.031-22.574l-13.584-3.733c-.015-.004-.03-.006-.045-.01-19.845-5.405-41.007-.655-56.64 12.722-4.104 3.514-9.667 4.756-14.877 3.323-5.518-1.517-11.294-.792-16.266 2.036-4.974 2.829-8.548 7.425-10.063 12.942l-3.131 11.393c-5.834 21.228 6.689 43.244 27.922 49.08l7.439 2.04c-4.395 7.609-8.306 15.491-11.713 23.566-6.524 1.104-12.332 2.447-16.896 3.942l-18.293 5.994c-9.816 3.222-17.297 11.385-19.897 21.399-2.796 10.766.108 22.198 7.883 30.131 5.995 6.117 13.966 9.414 22.255 9.414 2.442 0 4.914-.287 7.369-.872l1.413-.336c-.237 4.103-.365 8.218-.365 12.321 0 20.259 7.037 46.336 16.65 65.113h-3.985c-19.021 0-34.494 15.474-34.494 34.495s15.473 34.495 34.493 34.495h50.284c27.616 0 51.701-15.387 64.147-38.034.608.026 1.219.043 1.836.043 11.384 0 24.189-4.41 35.044-12.321 12.93-9.424 20.868-22.156 22.352-35.852.596-5.49-3.374-10.424-8.864-11.019zm-61.367 24.036c0 29.305-23.842 53.147-53.147 53.147h-50.284c-7.992 0-14.494-6.502-14.494-14.495s6.502-14.495 14.494-14.495h37.32c5.522 0 10-4.477 10-10s-4.478-10-10-10h-10.564c3.284-13.388 12.652-25.367 25.702-30.976 5.074-2.181 7.42-8.062 5.239-13.136-2.181-5.073-8.06-7.418-13.136-5.239-12.371 5.317-22.454 14.19-29.284 25.12-4.637-12.988-7.943-27.974-7.943-40.882 0-5.716.261-11.458.766-17.142 4.711-1.034 9.503-1.836 14.288-2.356 5.49-.598 9.457-5.533 8.859-11.023s-5.535-9.459-11.023-8.859c-6.392.696-12.803 1.804-19.056 3.292l-19.517 4.649c-5.616 1.338-9.358-1.712-10.705-3.086-1.354-1.381-4.272-5.2-2.806-10.85.878-3.382 3.453-6.589 6.768-7.677l18.288-5.992c6.909-2.264 18.168-4.224 30.117-5.244 5.503-.47 9.583-5.312 9.113-10.814-.323-3.785-2.714-6.896-5.967-8.317 3.807-7.837 8.152-15.43 12.996-22.688 1.784-2.673 2.175-6.039 1.051-9.049-1.123-3.01-3.625-5.297-6.724-6.146l-20.35-5.58c-10.594-2.912-16.844-13.899-13.932-24.493l3.131-11.394c.129-.468.434-.724.666-.856.233-.133.613-.263 1.078-.135 11.622 3.195 24.025.423 33.181-7.413 7.999-6.846 18.137-10.354 28.413-10.086l-10.892 39.631c-5.271 19.177 6.043 39.067 25.22 44.338 2.885.793 5.811 1.203 8.726 1.275 9.432 21.385 14.407 44.804 14.407 68.163v88.808zm-17.832-177.535c-8.543-2.348-13.584-11.209-11.235-19.753l11.218-40.817 3.941 1.083c7.225 1.985 13.243 6.666 16.948 13.178 3.704 6.512 4.65 14.077 2.665 21.302l-3.784 13.771c-2.349 8.544-11.214 13.583-19.753 11.236z"/><path d="m215.91 181.515h-57.595l-3.917-7.109v-45.066c0-9.83-3.008-18.962-8.127-26.56 21.171-6.827 36.534-26.71 36.534-50.123 0-29.035-23.622-52.657-52.658-52.657-29.035 0-52.657 23.622-52.657 52.658 0 11.829 3.939 22.745 10.549 31.546-29.719 8.205-51.613 35.463-51.613 67.755v107.581c0 23.848 13.698 45.27 34.745 55.374v159.327c0 20.747 16.879 37.686 37.626 37.759h.137c10.06 0 19.52-3.908 26.649-11.012 7.162-7.137 11.106-16.636 11.106-26.747v-64.457c0-5.523-4.478-10-10-10s-10 4.477-10 10v64.457c0 4.755-1.855 9.223-5.224 12.58-3.354 3.341-7.803 5.179-12.534 5.179-.021 0-.043 0-.064 0-9.758-.035-17.696-8.001-17.696-17.759v-166.025c0-4.281-2.725-8.086-6.777-9.466-16.729-5.696-27.968-21.453-27.968-39.209v-10.552h70.264v70.796c0 5.523 4.478 10 10 10s10-4.477 10-10v-70.796h69.221c18.603 0 33.736-15.134 33.736-33.737s-15.135-33.737-33.737-33.737zm-85.763-161.515c18.008 0 32.658 14.65 32.658 32.658s-14.65 32.658-32.658 32.658c-18.007 0-32.657-14.65-32.657-32.658s14.65-32.658 32.657-32.658zm85.763 208.988h-77.526c-5.005 0-9.615-2.724-12.031-7.108l-26.939-48.897c-2.665-4.837-8.75-6.597-13.584-3.933-4.838 2.665-6.599 8.747-3.934 13.584l25.538 46.354h-51.009v-77.029c0-27.733 22.562-50.295 50.296-50.295 15.261 0 27.677 12.416 27.677 27.677v13.182c-2.731-1.163-5.947-1.113-8.746.43-4.838 2.666-6.599 8.747-3.934 13.584l21.93 39.803c1.759 3.192 5.114 5.174 8.759 5.174h63.503c7.574 0 13.736 6.162 13.736 13.737s-6.162 13.737-13.736 13.737z"/><circle cx="136.689" cy="364.791" r="10"/></g></g></svg>