<svg id="Capa_1" enable-background="new 0 0 512.023 512.023" height="512" viewBox="0 0 512.023 512.023" width="512" xmlns="http://www.w3.org/2000/svg"><g><path d="m228.761 224.673c10.506-3.41 16.259-14.691 12.849-25.197s-14.69-16.259-25.197-12.849l-41.889 13.603v7.04l7.556 32.561z" fill="#fff"/><path d="m91.239 283.103-11.272 101.871h-47.031c-12.667 0-22.936 10.269-22.936 22.936s10.269 22.936 22.936 22.936h69.148c12.343 0 21.583-8.33 22.921-22.102l8.346-79.769h33.42l-10.167 74.64c-1.471 13.832 5.793 24.453 18.236 26.825 1.451.277 2.894.41 4.319.41 10.792-.001 20.411-7.654 22.505-18.646l19.417-101.871c1.28-6.714-.501-13.65-4.859-18.916-4.357-5.266-10.836-8.315-17.671-8.315h-73.578-33.734z" fill="#7aa9bf"/><path d="m495.132 333.974c0-26.834-21.753-48.587-48.587-48.587h-39.807c-13.133 0-25.571-5.904-33.874-16.079l-48.097 15.443c-11.586 20.313-10.793 45.41 2.053 64.951 3.283 4.994 3.583 11.381.783 16.661l-19.491 36.752c-6.671 12.579 2.447 27.735 16.685 27.735 6.427 0 12.412-3.268 15.887-8.674l30.192-46.969h63.823c1.889 3.843 4.407 7.41 7.511 10.539l9.879 9.954-3.485 10.18c-4.191 12.24 4.906 24.97 17.844 24.97 8.481 0 15.92-5.661 18.179-13.836l7.056-25.531-7.696-25.475 4.221-7.036c4.53-7.551 6.924-16.192 6.924-24.998z" fill="#ffdb85"/><path d="m357.319 209.651h-2.461c-15.299 0-29.601 7.592-38.174 20.264-2.818 4.166-7.52 6.662-12.549 6.662-9.117 0-16.508 7.391-16.508 16.508v8.262c0 12.926 10.479 23.405 23.405 23.405h12.937l51.372-12.656z" fill="#ffdb85"/><circle cx="168.95" cy="117.241" fill="#ffd1c8" r="36.069"/><path d="m318.578 332.088-52.172-13.4c-6.631-1.69-11.947-6.637-14.11-13.128-4.793-14.383 7.447-28.695 22.399-26.191l43.685 7.316z" fill="#ffdb85"/><path d="m372.863 269.308c-10.956 0-19.837-8.881-19.837-19.837v-39.821h10.721c15.99 0 28.953 12.963 28.953 28.953v10.868c0 10.956-8.881 19.837-19.837 19.837z" fill="#ffdb85"/><path d="m234.133 247.61-52.042-7.732-7.568-32.61v-17.768c0-22.999-18.644-41.642-41.642-41.642-22.998 0-41.642 18.644-41.642 41.642v93.603h83.285l53.725 4.072c10.925 1.625 21.099-5.915 22.724-16.84 1.625-10.926-5.914-21.099-16.84-22.725z" fill="#fff"/><g><path d="m505.132 333.974c0-10.945-3.024-21.193-8.27-29.967 13.909-16.636 18.705-39.118 12.478-60.293-1.558-5.299-7.117-8.33-12.415-6.772s-8.331 7.117-6.772 12.415c4.003 13.614 1.429 27.991-6.635 39.211-10.092-8.233-22.964-13.181-36.973-13.181h-39.807c-5.096 0-10.03-1.135-14.493-3.259 6.393-5.477 10.455-13.599 10.455-22.657v-10.868c0-21.479-17.474-38.953-38.953-38.953 0 0-11.609.04-12.042.097-17.434.977-33.449 9.997-43.302 24.563-.96 1.419-2.555 2.266-4.267 2.266-14.616 0-26.507 11.891-26.507 26.507v8.262c0 2.959.391 5.827 1.117 8.561l-2.397-.401c-5.294-.885-10.562-.362-15.374 1.407 1.899-16.021-9.306-30.804-25.371-33.194l-10.044-1.492 6.289-2.042c15.734-5.107 24.379-22.062 19.273-37.796-5.106-15.733-22.061-24.378-37.797-19.274l-28.895 9.383c-.503-8.716-3.172-16.86-7.484-23.897 21.602-3.798 38.072-22.685 38.072-45.359 0-25.402-20.666-46.069-46.068-46.069s-46.069 20.667-46.069 46.069c0 7.507 1.816 14.593 5.015 20.861-26.145 2.517-46.657 24.604-46.657 51.397v93.05l-.746 6.738c-.607 5.49 3.35 10.432 8.839 11.04.374.041.745.062 1.112.062 4.483 0 8.403-3.01 9.605-7.286h98.501c3.868 0 7.501 1.709 9.967 4.689 2.466 2.981 3.465 6.869 2.74 10.669l-19.417 101.871c-1.161 6.094-6.495 10.517-12.682 10.518-.814 0-1.637-.078-2.447-.233-7.241-1.38-11.04-7.286-10.179-15.811l10.146-74.482c.39-2.861-.477-5.751-2.375-7.926s-4.646-3.423-7.533-3.423h-33.42c-5.12 0-9.413 3.867-9.946 8.959l-8.353 79.842c-.807 8.306-5.534 13.069-12.968 13.069h-69.147c-7.133 0-12.936-5.803-12.936-12.936s5.803-12.936 12.936-12.936h47.031c5.097 0 9.378-3.833 9.939-8.9l.568-5.135c.607-5.489-3.35-10.432-8.839-11.04-4.127-.454-7.939 1.663-9.84 5.074h-38.86c-18.16.002-32.935 14.777-32.935 32.938s14.775 32.936 32.936 32.936h69.148c17.853 0 31.064-12.512 32.867-31.061l7.408-70.81h12.957l-8.621 63.291c-.013.097-.025.195-.035.292-2.006 18.865 8.812 34.37 26.306 37.705 2.041.39 4.125.587 6.194.587 15.776-.001 29.372-11.262 32.327-26.774l19.416-101.869c.955-5.005.726-10.069-.579-14.845.294.009.591.033.884.033 3.565 0 7.024-.643 10.249-1.824-.521 4.338-.093 8.814 1.352 13.15 3.254 9.766 11.152 17.114 21.109 19.652l47.103 12.098c1.888 5.098 4.362 10.041 7.441 14.723 1.278 1.944 1.395 4.428.305 6.483l-19.491 36.752c-4.792 9.035-4.505 19.661.767 28.425s14.526 13.996 24.753 13.996c9.875 0 18.959-4.959 24.299-13.267l27.24-42.376h52.615c1.785 2.702 3.842 5.246 6.161 7.583l5.504 5.547-1.474 4.305c-3.011 8.796-1.582 18.564 3.824 26.128s14.184 12.08 23.481 12.08c12.934 0 24.373-8.707 27.818-21.172l7.056-25.531c.503-1.821.48-3.748-.066-5.556l-6.415-21.236 1.942-3.238c5.464-9.104 8.351-19.527 8.351-30.143zm-285.632-137.837c5.244-1.7 10.897 1.18 12.598 6.425 1.703 5.244-1.18 10.896-6.425 12.599l-36.315 11.791-4.538-19.553zm-50.55-104.964c14.374 0 26.068 11.694 26.068 26.069 0 14.374-11.694 26.068-26.068 26.068-14.375 0-26.069-11.694-26.069-26.068 0-14.375 11.694-26.069 26.069-26.069zm72.132 177.69c-.811 5.454-5.908 9.235-11.364 8.42l-65.504-9.734c-1.423-.212-2.756-.714-3.96-1.494-2.19-1.418-3.721-3.598-4.31-6.137l-10.486-45.187c-1.072-4.62-5.185-7.742-9.732-7.742-.749 0-1.509.085-2.269.261-5.38 1.249-8.729 6.622-7.481 12.001l10.486 45.188c.718 3.093 1.901 6.007 3.493 8.663h-38.715v-83.602c0-17.448 14.195-31.643 31.643-31.643s31.642 14.195 31.642 31.643v17.768c0 .761.087 1.52.259 2.261l7.568 32.61c.929 4.001 4.209 7.027 8.271 7.631l52.04 7.731c5.452.812 9.23 5.909 8.419 11.362zm121.944-49.212h.721c10.451 0 18.953 8.502 18.953 18.953v10.868c0 5.424-4.413 9.837-9.837 9.837s-9.837-4.413-9.837-9.837zm-56.405 99.042-37.744-9.694c-3.349-.854-6-3.321-7.093-6.6-1.631-4.895.791-8.461 1.908-9.767 1.117-1.307 4.267-4.255 9.352-3.399l36.427 6.1c-2.246 7.634-3.192 15.522-2.85 23.36zm4.412-43.942c-7.392 0-13.405-6.013-13.405-13.405v-8.262c0-3.588 2.919-6.507 6.507-6.507 8.359 0 16.147-4.134 20.832-11.059 4.43-6.549 10.8-11.342 18.059-13.86v27.813c0 7.094 2.493 13.614 6.642 18.74l-26.134 6.54zm163.381 94.148 6.859 22.708-6.286 22.743c-1.058 3.828-4.57 6.5-8.541 6.5-2.897 0-5.524-1.352-7.209-3.708-1.684-2.357-2.112-5.281-1.174-8.022l3.485-10.18c1.232-3.598.316-7.583-2.363-10.283l-9.879-9.955c-7.383-7.439-10.372-18.374-7.8-28.535 1.355-5.354-1.886-10.793-7.24-12.148-5.353-1.353-10.793 1.887-12.148 7.24-1.67 6.596-1.915 13.383-.886 19.949h-50.357c-3.403 0-6.572 1.73-8.412 4.593l-30.192 46.969c-1.643 2.556-4.437 4.082-7.475 4.082-4.535 0-6.836-3.011-7.615-4.306s-2.361-4.738-.236-8.745l19.491-36.752c4.512-8.508 4.029-18.792-1.262-26.839-10.077-15.329-11.348-34.463-3.616-50.849l41-10.26c9.536 7.888 21.537 12.288 34.179 12.288h39.807c21.277 0 38.587 17.31 38.587 38.587 0 6.992-1.901 13.856-5.5 19.853l-4.221 7.036c-1.45 2.416-1.812 5.334-.996 8.034z"/><circle cx="85.485" cy="335.114" r="10"/></g></g></svg>