<svg id="Capa_1" enable-background="new 0 0 511.98 511.98" height="512" viewBox="0 0 511.98 511.98" width="512" xmlns="http://www.w3.org/2000/svg"><g><circle cx="124.797" cy="74.262" fill="#ffd1c8" r="37.272"/><path d="m272.775 433.078-82.513-87.998-14.208-96.667h-78.209l-76.444 53.41c-8.234 6.154-11.837 16.737-9.069 26.637l33.501 119.817c3.075 10.996 13.071 18.193 23.955 18.193 2.219 0 4.474-.299 6.715-.926 13.238-3.701 20.968-17.432 17.267-30.67l-28.908-103.39 57.078-28.359 20.012 56.376c3.951 8.896 8.433 15.533 10.636 18.172l83.877 89.452c4.899 5.225 11.521 7.865 18.16 7.865 6.101 0 12.217-2.23 17.018-6.733 10.027-9.402 10.535-25.152 1.132-35.179z" fill="#7aa9bf"/><g><g fill="#fff"><path d="m332.252 411.191 85.489-3.487"/><path d="m324.266 345.209c-11.383-1.266-19.428-12.927-18.162-24.31l5.416-43.411 11.139 1.239c16.614 1.848 28.584 16.814 26.737 33.428l-1.256 11.292c-1.267 11.383-12.492 23.028-23.874 21.762z"/><path d="m324.266 345.209c-11.383-1.266-19.428-12.927-18.162-24.31l5.416-43.411 11.139 1.239c16.614 1.848 28.584 16.814 26.737 33.428l-1.256 11.292c-1.267 11.383-12.492 23.028-23.874 21.762z"/></g><g fill="#ffdb85"><path d="m445.179 333.969-97.04-10.522-31.164-45.352-5.108-.568c-13.642-1.517-27.424 3.517-36.196 14.074-4.493 5.408-11.399 8.188-18.375 7.412-4.986-.555-9.478 3.038-10.032 8.024l-1.039 9.342c-1.453 13.067 7.961 24.838 21.028 26.291l18.649 2.074c5.864.652 11.008 4.208 13.69 9.463 4.812 9.429 2.418 20.459-4.743 27.124-5.497 3.111-9.041 5.106-9.041 5.106-5.213 1.5-10.531 2.678-15.923 3.52-5.905.922-12.029 1.878-17.874 2.789-14.332 2.236-21.124 18.929-12.407 30.573l.308.412c3.718 4.966 9.707 7.701 15.895 7.258l17.308-1.249c13.221-.954 38.855-7.993 59.134-18.551l.001.001 85.489-3.487s.741.182 1.99.452c6.354 17.643 18.704 32.689 35.131 42.333l19.491 11.442c7.205 4.23 16.358 3.059 22.266-2.849 7.166-7.166 7.166-18.785 0-25.951l-17.045-17.045c-5.66-5.66-6.877-14.387-2.982-21.379 2.902-5.21 4.633-10.991 5.072-16.938 1.629-22.046-14.506-41.416-36.483-43.799z"/><path d="m324.266 345.209c-11.383-1.266-19.428-12.927-18.162-24.31l5.416-43.411 11.139 1.239c16.614 1.848 28.584 16.814 26.737 33.428l-1.256 11.292c-1.267 11.383-12.492 23.028-23.874 21.762z"/></g></g><path d="m253.666 215.241-14.413-67.688c-1.573-7.387-7.037-13.335-14.265-15.528l-39.778-12.067c-16.06-4.872-32.669-7.702-49.436-8.424-20.948 0-37.929 16.981-37.929 37.929v98.95h78.208v-87.887l25.179 7.638 11.958 56.159c2.076 9.748 10.683 16.425 20.265 16.425 1.619 0 3.267-.191 4.915-.59 10.984-2.658 17.649-13.864 15.296-24.917z" fill="#ff7d99"/><path d="m97.845 149.464c0-12.109 5.681-22.885 14.517-29.829l.022-4.64-47.212 11.985-14.69-45.55c-3.516-10.901-15.202-16.887-26.106-13.373-10.901 3.517-16.888 15.204-13.372 26.106l20.666 64.076c2.819 8.739 10.925 14.378 19.728 14.378 1.689 0 3.406-.208 5.114-.642l41.334-10.493v-12.018z" fill="#ff7d99"/><g><g><path d="m327.855 402.217c.135-.07-.139.065 0 0z"/><path d="m503.691 426.059-17.046-17.045c-2.487-2.486-3.028-6.369-1.317-9.441 3.584-6.435 5.766-13.72 6.309-21.069.792-10.721-1.751-20.884-6.756-29.486 2.391-11.243.057-25.078-6.478-37.272-7.154-13.349-18.074-22.452-30.749-25.631-5.355-1.343-10.789 1.91-12.132 7.267-1.344 5.357 1.909 10.789 7.267 12.132 9.633 2.416 15.403 10.86 17.986 15.679 1.395 2.603 2.513 5.377 3.341 8.158-5.419-2.769-11.428-4.626-17.858-5.323l-87.071-9.441.147-1.325c2.454-22.068-13.502-42.019-35.569-44.472 0 0-11.482-1.26-11.654-1.27-17.085-1.625-33.534 4.937-44.132 17.693-2.347 2.825-5.93 4.266-9.576 3.863-10.46-1.171-19.914 6.398-21.077 16.857l-1.039 9.342c-.998 8.975 1.558 17.8 7.198 24.852s13.689 11.485 22.663 12.483l18.649 2.074c2.529.282 4.73 1.804 5.888 4.071 1.759 3.447 1.884 7.463.341 11.019-1.521 3.506-4.356 6.012-7.983 7.056-4.807 1.383-9.753 2.477-14.699 3.25l-17.874 2.789c-3.026.472-5.89 1.399-8.531 2.705l-42.237-45.044-13.647-93.049v-73.468l6.628 2.011 10.729 50.385c3.003 14.106 15.639 24.344 30.045 24.343 2.438 0 4.884-.293 7.268-.87 16.016-3.877 26.209-20.35 22.724-36.721l-14.413-67.688c-2.321-10.9-10.364-19.69-21.006-22.973l-36.751-12.189c-9.569-3.173-19.354-5.487-29.27-6.942 6.295-8.031 10.063-18.132 10.063-29.104 0-26.066-21.206-47.272-47.272-47.272s-47.276 21.204-47.276 47.27c0 13.996 6.12 26.585 15.818 35.249l-21.533 5.467-11.81-36.617c-5.201-16.13-22.558-25.022-38.693-19.822-16.13 5.204-25.022 22.56-19.819 38.692l20.666 64.076c4.111 12.745 15.864 21.308 29.246 21.308 2.544 0 5.093-.319 7.574-.949l28.873-7.33v68.864l-72.171 50.426c-.087.061-.174.124-.259.187-11.455 8.562-16.564 23.567-12.713 37.34l33.501 119.818c4.199 15.014 18.01 25.5 33.585 25.5 3.169 0 6.335-.436 9.408-1.295 18.526-5.18 29.385-24.467 24.206-42.994l-26.683-95.425 39.563-19.656c5.353 15.103 14.653 41.333 16.261 45.792 2.771 7.685 9.54 18.198 13.879 22.826l9.386 10.01c3.778 4.029 10.106 4.232 14.135.455 4.029-3.778 4.232-10.106.455-14.135l-9.387-10.011c-2.774-2.958-7.954-11.214-9.655-15.931-2.215-6.141-19.814-55.821-19.992-56.323-.956-2.697-3.021-4.856-5.674-5.93-2.652-1.073-5.638-.96-8.201.314l-57.079 28.358c-4.299 2.136-6.474 7.025-5.181 11.648l28.91 103.392c2.21 7.906-2.423 16.137-10.331 18.348-1.32.37-2.673.557-4.021.557-6.642 0-12.532-4.477-14.324-10.886l-33.501-119.818c-1.631-5.833.503-12.183 5.313-15.85l73.716-51.505h66.451l12.924 88.118c.296 2.02 1.203 3.9 2.599 5.389l45.204 48.208c-.085.198-.18.388-.262.589-3.909 9.599-2.375 20.494 3.845 28.802 5.373 7.177 13.846 11.518 22.722 11.517.681 0 1.365-.024 2.052-.073l9.273-.669c2.503 2.849 3.823 6.477 3.7 10.286-.128 3.975-1.796 7.662-4.696 10.382-2.771 2.598-6.385 4.028-10.179 4.028-4.162 0-8.021-1.671-10.865-4.705l-11.803-12.587c-3.778-4.029-10.106-4.233-14.135-.455s-4.232 10.106-.455 14.135l11.803 12.587c6.569 7.006 15.847 11.025 25.455 11.025 8.895 0 17.368-3.352 23.858-9.438 6.798-6.374 10.707-15.014 11.007-24.328.151-4.698-.628-9.283-2.252-13.547 9.569-2.015 20.65-5.297 31.021-9.291 5.074-1.954 10.812-4.394 16.591-7.293l78.024-3.183c7.635 17.074 20.428 31.518 36.925 41.202l19.491 11.442c4.468 2.623 9.421 3.901 14.342 3.901 7.335 0 14.597-2.841 20.059-8.303 11.052-11.053 11.052-29.039 0-40.093zm-415.845-275.42v3.064l-33.794 8.579c-.874.222-1.767.334-2.654.334-4.671 0-8.774-2.993-10.211-7.447l-20.666-64.076c-1.817-5.636 1.289-11.701 6.923-13.518 5.636-1.819 11.704 1.289 13.521 6.924l14.69 45.55c1.62 5.022 6.865 7.923 11.978 6.623l24.581-6.24c-2.797 6.168-4.368 13.005-4.368 20.207zm9.678-76.376c0-15.038 12.234-27.272 27.272-27.272s27.272 12.234 27.272 27.272-12.234 27.272-27.272 27.272c-15.037 0-27.272-12.235-27.272-27.272zm71.963 73.822c-5.286-1.603-10.869 1.381-12.472 6.667-1.604 5.285 1.381 10.869 6.667 12.472l2.372.72v70.47h-58.208v-87.775c0-16.048 13.056-29.104 29.104-29.104 16.35 0 32.51 2.61 48.031 7.757l36.86 12.225c.082.027.163.053.245.078 3.742 1.135 6.572 4.216 7.387 8.041l14.413 67.688c1.252 5.879-2.278 11.764-7.869 13.117-.845.205-1.707.309-2.562.309-5.025 0-9.434-3.578-10.483-8.507l-11.958-56.159c-.758-3.562-3.393-6.43-6.878-7.487zm146.549 173.974 4.185-33.542 1.332.148c5.381.599 10.206 3.256 13.588 7.484 3.381 4.228 4.914 9.519 4.315 14.9l-1.256 11.292c-.355 3.196-2.31 6.831-5.099 9.486-2.535 2.413-5.42 3.701-7.73 3.442-5.468-.606-9.992-7.018-9.335-13.21zm-29.028 12.746-18.649-2.074c-7.565-.842-13.036-7.681-12.195-15.247l.94-8.444c10.041.814 19.798-3.269 26.259-11.048 4.263-5.132 10.174-8.577 16.769-9.997l-3.951 31.666c-.006.044-.011.088-.016.133-.822 7.394.966 14.578 4.566 20.531-3.921-3.009-8.637-4.954-13.723-5.52zm202.541 117.206c-2.688 2.688-6.854 3.221-10.134 1.297l-19.491-11.443c-18.081-10.614-30.467-28.558-33.98-49.229-.925-5.444-6.076-9.111-11.534-8.183-5.444.925-9.108 6.089-8.183 11.534.123.723.258 1.443.398 2.161l-43.149 1.76c2.224-3.988 1.492-9.119-2.047-12.3-4.108-3.691-10.43-3.355-14.122.753-4.124 4.588-10.941 9.391-19.452 13.855-4.939 2.568-10.701 5.162-16.783 7.505-16.014 6.167-30.964 9.489-38.676 10.045l-17.303 1.248c-2.8.21-5.643-1.229-7.33-3.482-2.847-3.802-1.926-7.813-1.331-9.272.591-1.452 2.469-4.908 7.12-5.633l17.876-2.789c5.771-.901 11.539-2.177 17.146-3.791 9.335-2.687 16.916-9.362 20.8-18.315 3.928-9.054 3.609-19.286-.875-28.071-.171-.334-.357-.656-.54-.981 4.295 3.498 9.5 5.834 15.202 6.469.92.103 1.845.153 2.772.153 7.362 0 14.867-3.188 20.958-8.986 3.636-3.46 6.531-7.604 8.492-12.023l88.718 9.62c16.708 1.812 28.827 16.36 27.59 33.12-.33 4.468-1.656 8.896-3.836 12.809-6.038 10.842-4.127 24.542 4.648 33.316l17.045 17.044c3.256 3.255 3.256 8.553.001 11.809z"/></g><circle cx="193.775" cy="421.812" r="10"/></g></g></svg>