<svg id="Capa_1" enable-background="new 0 0 512.003 512.003" height="512" viewBox="0 0 512.003 512.003" width="512" xmlns="http://www.w3.org/2000/svg"><g><path d="m218.075 334.159-18.355-11.779c-11.74-7.534-25.14-11.692-38.777-12.281l-7.515-25.707 17.622-20.804c8.211-9.694 7.015-24.19-2.672-32.378l-6.926-5.854c-3.696-3.125-9.233-2.659-12.366 1.04-4.3 5.076-10.821 7.711-17.431 7.05-13.327-1.332-26.476 3.905-35.138 14.131l-3.21 3.789 8.115 52.515-61.019 71.707c-13.819 16.24-12.283 40.509 3.473 54.877 4.251 3.876 9.296 6.779 14.783 8.506 7.365 2.318 12.297 9.24 12.084 16.958l-.643 23.243c-.27 9.772 7.433 17.914 17.205 18.184 8.056.223 15.246-5.024 17.49-12.765l6.071-20.94c5.14-17.728 3.784-36.547-3.547-53.177l51.18-46.844c6.127-5.569 14.771-7.423 22.632-4.854l21.81 7.125c9.3 3.038 19.316-2.036 22.373-11.334 2.523-7.665-.454-16.054-7.239-20.408z" fill="#ffdb85"/><path d="m420.585 183.155 23.082 8.55 12.767 56.636c2.024 9.506 10.419 16.018 19.762 16.018 1.579 0 3.186-.186 4.793-.575 10.712-2.593 17.212-13.521 14.917-24.302l-13.291-62.421c-1.911-7.705-8.096-15.337-15.96-19.271l-34.553-16.422c-9.447-4.471-19.77-6.785-30.222-6.774-23.932-.662-43.87 18.202-44.532 42.135l-2.492 91.311h86.666l2.052-73.059" fill="#ff7d99"/><path d="m356.627 202.82.722-26.092c.413-14.952 8.351-27.925 20.085-35.395l-62.672 38.161-28.239-37.163c-6.758-8.894-19.445-10.624-28.342-3.867-8.894 6.759-10.625 19.447-3.867 28.342l39.724 52.277c5.418 7.129 14.699 9.698 22.799 6.852 1.554-.546 3.066-1.292 4.498-2.243z" fill="#ff7d99"/><circle cx="398.464" cy="97.392" fill="#ffd1c8" r="36.95"/><circle cx="196.265" cy="42.587" fill="#33d7f6" r="32.584"/><path d="m437.449 268.04 15.976 103.251 45.055 74.894c7.024 11.677 3.253 26.837-8.424 33.861-4.19 2.52-8.828 3.651-13.378 3.525-8.13-.225-15.979-4.462-20.483-11.949l-47.495-78.952c-1.613-2.681-2.701-5.644-3.206-8.731l-10.575-64.57-16.137 59.717 9.992 95.678c1.415 13.553-8.424 25.687-21.977 27.102-1.103.116-2.196.156-3.276.126-12.18-.337-22.526-9.653-23.826-22.103l-10.469-100.245c-.315-3.019-.071-6.07.721-8.999l28.487-102.607h79.015z" fill="#7aa9bf"/><g fill="#fff"><path d="m129.615 301.532c7.137-8.434 6.085-21.056-2.349-28.192l-30.654-25.94-6.983 8.253c-10.416 12.309-8.881 30.732 3.428 41.148l8.366 7.079c8.434 7.137 21.056 6.086 28.192-2.348z"/><path d="m129.615 301.532c7.137-8.434 6.085-21.056-2.349-28.192l-30.654-25.94-6.983 8.253c-10.416 12.309-8.881 30.732 3.428 41.148l8.366 7.079c8.434 7.137 21.056 6.086 28.192-2.348z"/></g><path d="m129.615 301.532c7.137-8.434 6.085-21.056-2.349-28.192l-30.654-25.94-6.983 8.253c-10.416 12.309-8.881 30.732 3.428 41.148l8.366 7.079c8.434 7.137 21.056 6.086 28.192-2.348z" fill="#ffdb85"/><g><g><g><path d="m363.72 511.996c-.318 0 .318.009 0 0z"/><path d="m507.049 441.031-44.042-73.211-14.355-92.78c1.708-1.739 2.793-4.097 2.867-6.72l.184-6.551c5.562 7.683 14.604 12.59 24.494 12.589 2.397 0 4.802-.288 7.146-.856 15.749-3.812 25.773-20.008 22.345-36.103 0 0-13.339-62.638-13.365-62.746-2.656-10.708-10.776-20.596-21.191-25.808-.061-.03-37.753-17.875-39.286-18.487 8.08-8.176 13.21-19.3 13.553-31.669.715-25.878-19.757-47.514-45.635-48.23-12.521-.352-24.457 4.209-33.566 12.829-9.109 8.619-14.317 20.27-14.663 32.806-.347 12.536 4.209 24.457 12.828 33.566 1.634 1.727 3.377 3.311 5.214 4.751l-52.309 31.85-22.781-29.979c-10.079-13.268-29.078-15.861-42.355-5.779-13.27 10.084-15.861 29.083-5.777 42.354l39.724 52.277c5.848 7.694 14.779 11.958 24.027 11.958 3.352 0 6.746-.561 10.049-1.721 2.269-.797 4.445-1.869 6.476-3.189l19.519-11.545-1.286 47.13c-.057 2.07.536 4.087 1.662 5.79l-26.23 94.48c-1.117 4.133-1.458 8.389-1.014 12.648l10.47 100.245c1.799 17.229 16.675 30.588 33.972 31.067 1.214 0 2.911-.057 4.115-.183 9.211-.962 17.496-5.454 23.33-12.647 5.833-7.194 8.516-16.229 7.554-25.44l-.643-6.151c-.574-5.492-5.483-9.489-10.985-8.907-5.493.574-9.48 5.492-8.907 10.985l.643 6.151c.407 3.898-.728 7.721-3.196 10.765s-5.975 4.945-9.877 5.353c-.65.068-1.31.091-1.955.076-7.31-.203-13.396-5.854-14.157-13.146l-10.47-100.246c-.188-1.802-.045-3.602.41-5.285l26.454-95.282h62.843l14.665 94.78c.199 1.283.645 2.514 1.313 3.626l45.055 74.895c2.021 3.358 2.612 7.303 1.666 11.106s-3.316 7.011-6.675 9.031c-2.41 1.45-5.167 2.171-7.947 2.098-5.04-.139-9.598-2.796-12.19-7.107l-47.494-78.951c-.964-1.603-1.605-3.35-1.908-5.194l-10.575-64.57c-.761-4.646-4.659-8.132-9.36-8.371-4.682-.22-8.933 2.833-10.161 7.378l-16.138 59.717c-1.441 5.332 1.713 10.822 7.045 12.263 5.331 1.44 10.821-1.714 12.262-7.045l4.084-15.111 3.107 18.972c.714 4.357 2.229 8.484 4.505 12.269l47.495 78.952c6.127 10.185 16.885 16.461 28.776 16.79.32.009.64.013.96.013 6.283 0 12.435-1.708 17.85-4.965 16.376-9.856 21.686-31.202 11.831-47.585zm-135.524-344.384c.199-7.196 3.188-13.883 8.417-18.831 5.044-4.772 11.97-7.374 18.885-7.374.254 0-.255.003 0 .01 14.854.411 26.988 12.831 26.578 27.685-.411 14.856-12.874 26.596-27.686 26.195-7.196-.199-13.884-3.188-18.831-8.417s-7.563-12.072-7.363-19.268zm-24.172 79.808-.561 20.564s-30.841 18.246-30.985 18.342c-.72.477-1.487.861-2.282 1.14-4.194 1.473-8.827.081-11.524-3.468l-39.724-52.277c-3.411-4.49-2.535-10.918 1.953-14.328 4.492-3.413 10.92-2.536 14.331 1.954l28.239 37.163c3.1 4.081 8.784 5.157 13.163 2.491l27.803-16.929c-.224 1.763-.363 3.548-.413 5.348zm76.706-2.678c-5.178-1.917-10.932.725-12.851 5.904s.725 10.933 5.903 12.851l16.358 6.06-1.67 59.448h-66.667l2.212-81.035c.509-18.379 16.026-32.907 34.394-32.413-.019 0-.033-.001.01 0-.003 0-.006 0-.01 0 .014 0 .028 0 .034.001 8.917.01 18.004 2.005 26.037 5.806l34.452 16.374c5.007 2.537 9.344 7.671 10.612 12.557l13.252 62.235c1.193 5.604-2.167 11.21-7.491 12.5-.806.195-1.626.294-2.439.294-4.783 0-8.981-3.407-9.981-8.101-.008-.039-.017-.077-.025-.116l-12.767-56.636c-.744-3.301-3.107-6.002-6.281-7.178z"/></g><g><path d="m87.416 507.358c-.257 0 .259.007 0 0z"/><path d="m223.476 325.743-18.354-11.779c-11.035-7.082-23.529-11.6-36.5-13.241l-4.085-13.972 14.146-16.699c5.703-6.733 8.44-15.279 7.709-24.065-.731-8.772-4.835-16.732-11.557-22.414l-6.925-5.854c-7.897-6.676-19.764-5.681-26.453 2.214-2.173 2.565-5.456 3.894-8.806 3.563-16.162-1.618-32.042 4.564-42.796 16.544-.305.281-7.859 9.153-7.859 9.153-13.961 16.5-11.185 41.883 5.313 55.844l-54.52 64.07c-3.879 4.559-6.793 9.604-8.768 14.889-1.088-2.261-2.004-4.66-2.672-7.114-1.369-5.032-2.91-14.664 2.165-22.628 2.968-4.658 1.598-10.839-3.061-13.807-4.656-2.968-10.84-1.597-13.807 3.06-6.827 10.715-8.459 24.434-4.595 38.628 3.512 12.903 11.053 24.179 20.199 30.535 2.228 9.362 7.209 18.181 14.889 25.185 5.289 4.823 11.693 8.508 18.52 10.655 3.086.972 5.18 3.909 5.09 7.143l-.643 23.243c-.205 7.396 2.483 14.43 7.568 19.805 5.086 5.375 12.346 8.453 19.742 8.657 12.289-.001 23.546-8.12 26.985-19.982l6.071-20.939c5.147-17.754 4.547-36.387-1.409-53.45l46.164-41.956c3.461-3.146 8.366-4.196 12.801-2.749l21.811 7.126c14.517 4.743 30.208-3.206 34.979-17.717 3.942-11.995-.721-25.133-11.342-31.948zm-92.814-82.347c9.477.95 18.836-2.638 25.253-9.627l6.008 5.078c2.639 2.23 4.25 5.356 4.536 8.8.288 3.458-.791 6.824-3.038 9.478l-17.623 20.804c-1.071 1.264-1.79 2.753-2.134 4.323-1.384-6.442-4.825-12.219-9.937-16.545l-21.627-18.302c5.52-3.202 11.998-4.664 18.562-4.009zm-32.876 18.098 23.021 19.48c2.04 1.726 3.286 4.143 3.508 6.806s-.606 5.253-2.333 7.292c-3.563 4.211-9.889 4.738-14.099 1.175l-8.366-7.08c-8.081-6.837-8.569-19.593-1.731-27.673zm118.032 89.95c-1.332 4.054-5.716 6.275-9.768 4.952l-21.811-7.125c-11.258-3.677-23.694-1.011-32.463 6.959l-41.858 38.042c-.269-.417-.534-.836-.811-1.25-3.069-4.591-9.28-5.823-13.871-2.754-4.591 3.07-5.824 9.28-2.754 13.871 11.184 16.727 14.385 37.403 8.781 56.728l-6.071 20.94c-.977 3.367-4.095 5.636-7.609 5.554-2.056-.057-3.968-.911-5.381-2.406-1.414-1.494-2.161-3.449-2.104-5.506l.643-23.243c.336-12.123-7.509-23.132-19.079-26.774-4.071-1.281-7.892-3.479-11.046-6.356-11.837-10.794-12.978-28.807-2.595-41.008l55.666-65.416c3.43 1.3 7.036 1.949 10.635 1.949 8.526 0 17.002-3.606 22.928-10.609 4.559-5.387 7.027-12.055 7.098-19.023l6.998 23.937c1.202 4.111 4.889 7 9.167 7.185 12.012.519 23.702 4.221 33.808 10.706l18.354 11.779c2.945 1.889 4.238 5.537 3.143 8.868z"/></g><path d="m196.265.003c-23.48 0-42.584 19.103-42.584 42.584s19.104 42.584 42.584 42.584 42.584-19.103 42.584-42.584-19.104-42.584-42.584-42.584zm0 65.168c-12.453 0-22.584-10.131-22.584-22.584s10.131-22.584 22.584-22.584 22.584 10.131 22.584 22.584-10.131 22.584-22.584 22.584z"/><circle cx="383.474" cy="423.855" r="10"/></g></g></g></svg>