<svg id="Capa_1" enable-background="new 0 0 512 512" height="512" viewBox="0 0 512 512" width="512" xmlns="http://www.w3.org/2000/svg"><g><g><path d="m431.809 362.003-33.733-97.98 5.355-55.32-3.492-4.366c-9.424-11.782-24.06-18.079-39.107-16.98-7.463.545-14.72-2.62-19.398-8.469-3.409-4.262-9.627-4.954-13.889-1.545l-7.985 6.387c-11.169 8.933-12.982 25.23-4.048 36.399l19.171 23.97-11.494 35.453c-15.026-4.602-29.239-11.689-42.028-21.024-5.251-3.833-10.698-7.809-15.895-11.603-12.745-9.305-30.81-1.688-33.061 13.974l-.08.555c-.96 6.681 1.543 13.391 6.645 17.81l14.274 12.353c13.011 11.26 46.279 29.442 73.236 34.694l-.282.266 22.997 63.639c-15.024 21.178-19.923 47.912-13.385 73.04l6.191 23.795c2.289 8.796 10.23 14.936 19.319 14.936 11.025 0 19.962-8.938 19.962-19.962v-40.936l11.103-3.16c8.248-2.347 15.885-6.464 22.379-12.065 18.268-15.757 25.098-41.05 17.245-63.861z" fill="#ffdb85"/></g><g><circle cx="158.057" cy="56.761" fill="#ffd1c8" r="46.761"/></g><g><g><path d="m358.84 265.596c-7.782-9.73-6.203-23.926 3.527-31.709l37.334-29.847 7.615 9.521c11.359 14.201 9.054 34.922-5.147 46.281l-9.652 7.72c-9.73 7.782-25.895 7.764-33.677-1.966z" fill="#fff"/></g><g><path d="m358.84 265.596c-7.782-9.73-6.203-23.926 3.527-31.709l37.334-29.847 7.615 9.521c11.359 14.201 9.054 34.922-5.147 46.281l-9.652 7.72c-9.73 7.782-25.895 7.764-33.677-1.966z" fill="#fff"/></g></g><g><path d="m358.84 265.596c-7.782-9.73-6.203-23.926 3.527-31.709l37.334-29.847 7.615 9.521c11.359 14.201 9.054 34.922-5.147 46.281l-9.652 7.72c-9.73 7.782-25.895 7.764-33.677-1.966z" fill="#ffdb85"/></g><g><g><path d="m152.258 167.383c4.83-13.126 11.036-25.704 18.514-37.524 13.239-20.923 33.166-36.753 56.543-44.914 7.477-2.61 15.423-3.598 23.311-2.899 12.64 1.121 24.442-7.361 26.652-19.856 2.519-14.238-7.692-27.268-21.78-28.517-15.146-1.343-30.404.555-44.759 5.567-33.379 11.653-61.834 34.256-80.737 64.133l-4.901 7.746 7.566-13.415c-1.331-.432-2.695-.8-4.092-1.101-35.685-7.686-70.845 15.012-78.531 50.698l-18.402 85.257c-.557 2.58-.975 5.187-1.257 7.808h95.019z" fill="#fff"/></g><g><path d="m29.956 248.353c-2.979 48.037 91.531 132.311 91.531 132.311l-20.384 85.407c-4.374 18.328 9.521 35.929 28.363 35.929 13.438 0 25.135-9.183 28.325-22.236l21.468-87.839c4.368-17.872 2.719-36.687-4.691-53.527l-49.164-98.031h-95.019c-.284 2.65-.429 5.316-.429 7.986z" fill="#7aa9bf"/></g></g><g><g><path d="m483.723 366.898c-5.451-.899-10.592 2.803-11.483 8.254-1.799 10.996-10.641 18.201-15.751 21.518-4.729 3.068-9.975 5.275-14.981 6.448 4.719-14.067 4.843-29.594-.244-44.371l-31.697-92.066c17.444-14.973 20.028-41.275 5.559-59.366 0 0-7.883-9.827-8.019-9.977-11.462-13.817-28.951-21.277-47.003-19.955-4.188.309-8.241-1.467-10.861-4.742-6.847-8.56-19.384-9.956-27.945-3.108l-7.985 6.386c-7.488 5.989-12.195 14.535-13.255 24.065s1.655 18.902 7.644 26.39l15.807 19.763-6.686 20.623c-10.577-4.122-20.557-9.588-29.767-16.311l-15.894-11.603c-8.841-6.455-20.14-7.772-30.228-3.522-10.104 4.256-17.107 13.561-18.669 24.428-1.451 10.098 2.246 20.389 9.959 27.071l14.274 12.354c9.19 7.953 25.938 17.891 42.668 25.318 8.253 3.664 18.564 7.648 29.164 10.291l19.54 54.073c-14.427 22.855-18.791 50.587-11.94 76.915l6.191 23.795c3.435 13.199 15.359 22.417 28.997 22.417 16.521 0 29.963-13.441 29.963-29.963v-33.383l3.84-1.093c9.58-2.726 18.63-7.605 26.173-14.111 3.386-2.921 6.434-6.11 9.133-9.515 1.147.088 2.305.148 3.484.148 10.907 0 23.052-3.737 33.664-10.623 13.611-8.832 22.348-21.286 24.602-35.066.892-5.45-2.804-10.591-8.254-11.482zm-84.217-147.09c7.896 9.873 6.289 24.329-3.584 32.225l-9.652 7.72c-2.862 2.289-6.96 3.555-10.925 3.402-2.181-.087-6.211-.697-8.696-3.804-2.096-2.62-3.045-5.899-2.674-9.233s2.018-6.325 4.636-8.419l29.524-23.604zm-76.186-5.926c-2.652-3.316-3.854-7.466-3.385-11.687s2.554-8.005 5.87-10.657l7.893-6.313c6.738 8.364 17.14 12.886 27.861 12.105 8.231-.602 16.265 1.625 22.861 6.123l-28.3 22.625c-5.885 4.707-9.872 11.156-11.458 18.418.094-2.375-.649-4.74-2.171-6.643zm84.713 204.409c-5.356 4.619-11.783 8.084-18.585 10.02l-11.103 3.16c-4.298 1.223-7.263 5.149-7.263 9.618v40.936c0 5.494-4.469 9.963-9.963 9.963-4.535 0-8.5-3.065-9.642-7.454l-6.191-23.795c-5.809-22.325-1.485-45.921 11.863-64.736 1.896-2.672 2.362-6.104 1.249-9.185l-17.725-49.05c.798-.01 1.596-.02 2.381-.062 5.515-.294 9.748-5.003 9.454-10.518-.294-5.516-5.004-9.753-10.518-9.454-10.799.577-26.682-3.515-44.708-11.517-17.145-7.611-31.286-16.615-37.695-22.162l-14.271-12.351c-2.541-2.201-3.732-5.777-3.254-9.106.799-5.558 4.919-8.117 6.636-8.841 1.709-.72 6.17-2.041 10.67 1.244l15.896 11.604c13.669 9.978 28.808 17.551 44.995 22.508 5.223 1.599 10.758-1.284 12.441-6.478l11.494-35.453c.001-.003.001-.007.003-.01-.033.245-.072.488-.1.734-.961 8.644 1.5 17.144 6.933 23.936 5.439 6.8 14.74 10.932 24.248 11.31 5.832 0 12.354-1.377 17.452-3.936l29.624 86.042c6.56 19.054.938 39.871-14.321 53.033z"/><path d="m375.278 283.152c-.485 0 .486.02 0 0z"/></g><path d="m251.51 72.086c-9.364-.828-18.613.319-27.491 3.418-23.873 8.334-44.15 23.692-58.639 44.413-3.165 4.526-2.061 10.761 2.465 13.926 1.745 1.22 3.743 1.806 5.722 1.806 3.154 0 6.259-1.489 8.204-4.271 12.068-17.258 28.957-30.05 48.84-36.991 6.178-2.157 12.613-2.958 19.133-2.379 17.895 1.592 34.316-10.745 37.382-28.075 1.678-9.486-.703-19.292-6.533-26.903-5.833-7.617-14.658-12.47-24.211-13.317-16.503-1.462-32.8.534-48.453 5.924-9.821-18.024-28.903-29.637-49.872-29.637-31.298 0-56.762 25.463-56.762 56.761 0 10.268 2.716 20.07 7.679 28.585-32.757 2.47-61.446 26.14-68.706 59.845l-18.402 85.256c-1.247 5.775-1.889 11.697-1.91 17.606-1.234 22.582 14.597 53.19 47.062 90.985 17.678 20.58 35.349 37.561 43.375 45.028l-19.017 79.684c-2.799 11.73-.12 23.888 7.354 33.354 7.473 9.466 18.676 14.896 30.736 14.896 18.1 0 33.742-12.28 38.04-29.862l21.467-87.839c4.863-19.897 2.998-41.181-5.252-59.929-.067-.154-.139-.306-.214-.456l-47.223-94.16 10.46-28.429c1.907-5.183-.749-10.931-5.932-12.838-5.183-1.91-10.931.748-12.838 5.932l-9.547 25.947h-76.082l17.474-80.959c3.155-14.648 11.825-27.19 24.414-35.317 9.89-6.385 21.27-9.427 32.796-8.915l-.378.597c-2.953 4.667-1.564 10.845 3.103 13.797 4.667 2.955 10.845 1.564 13.797-3.103l4.902-7.747c17.622-27.853 44.464-49.175 75.583-60.038 13.102-4.574 26.753-6.273 40.58-5.047 4.042.358 7.629 2.332 10.099 5.557 2.466 3.22 3.431 7.218 2.716 11.257-1.274 7.205-8.272 12.321-15.921 11.638zm-85.997 270.562c6.404 14.688 7.837 31.335 4.032 46.902l-21.468 87.838c-2.103 8.603-9.756 14.611-18.612 14.611-5.9 0-11.382-2.656-15.038-7.288s-4.967-10.58-3.597-16.319l20.383-85.407c.854-3.577-.326-7.335-3.07-9.784-.232-.208-23.529-21.065-46.088-47.352-27.429-31.962-42.325-58.665-42.162-75.484h79.339zm-33.21-259.66c-6.988-6.835-11.007-16.184-11.007-26.227 0-20.27 16.491-36.761 36.762-36.761 12.866 0 24.631 6.752 31.242 17.385-22.078 10.802-41.613 26.428-56.997 45.603z"/><circle cx="152.908" cy="165.627" r="10"/></g></g></svg>