<svg id="Capa_1" enable-background="new 0 0 512.026 512.026" height="512" viewBox="0 0 512.026 512.026" width="512" xmlns="http://www.w3.org/2000/svg"><g><circle cx="115.787" cy="74.443" fill="#ffd1c8" r="37.43"/><path d="m69.354 153.949c0-7.893 2.184-15.274 5.976-21.578-.545.577-1.069 1.182-1.555 1.832l-38.406 51.376c-1.717 2.296-2.941 4.922-3.596 7.714l-14.578 62.145c-2.627 11.199 4.322 22.407 15.521 25.034 2.918.684 5.836.719 8.603.197 7.853-1.48 14.488-7.437 16.431-15.718l11.604-49.468z" fill="#ff7d99"/><path d="m69.354 247.527-17.041 103.5-39.139 86.806c-6.717 12.059-2.387 27.28 9.673 33.997 3.85 2.145 8.024 3.163 12.14 3.163 8.773 0 17.285-4.628 21.857-12.836l41.09-90.31c1.293-2.321 2.207-4.833 2.709-7.442l12.302-63.967 13.658 59.599 3.364 90.602c.5 13.478 11.584 24.066 24.96 24.066.313 0 .627-.006.944-.018 13.794-.512 24.561-12.11 24.049-25.904l-3.452-92.959c-.058-1.568-.263-3.126-.614-4.655l-22.636-103.644h-83.864z" fill="#7aa9bf"/><g fill="#ffdb85"><path d="m470.553 351.333-72.68-90.871 9.677-52.191-3.097-3.872c-8.27-10.34-21.104-16.307-34.288-15.089-6.753.624-13.36-2.19-17.589-7.478-3.023-3.779-8.537-4.393-12.316-1.37l-7.081 5.663c-9.904 7.921-11.511 22.372-3.59 32.276l11.305 14.135c3.555 4.445 4.638 10.378 2.883 15.792-4.239 13.074-19.359 19.233-31.386 12.582-4.579-2.532-9.009-5.356-13.262-8.46-4.656-3.399-9.486-6.924-14.095-10.289-11.301-8.251-27.355-1.251-29.352 12.637-.851 5.924 1.333 12.12 5.856 16.038l12.657 10.954c9.67 8.368 31.961 21.054 52.998 27.685l-.009-.001 73.51 74.945.05-.033c-6.135 5.792-10.524 13.324-12.444 21.753-1.047 4.595-1.569 9.293-1.558 14.006l.092 38.268c.009 3.762 1.293 7.41 3.643 10.348 8.483 10.606 25.415 7.123 29.023-5.971l10.229-37.125 20.178-6.382c5.054-1.599 9.77-4.117 13.91-7.428 18.576-14.854 21.59-41.95 6.736-60.522z"/><path d="m368.356 257.256c-6.901-8.628-5.501-21.216 3.127-28.117l32.76-25.003 6.753 8.443c10.072 12.593 8.028 30.966-4.564 41.038l-8.559 6.845c-8.628 6.901-22.616 5.422-29.517-3.206z"/></g><g><path d="m119.249 183.556 32.102 31.014c3.967 3.833 9.183 5.849 14.477 5.849 2.916 0 5.855-.612 8.62-1.87l53.39-24.29c10.47-4.764 15.096-17.113 10.333-27.583s-17.112-15.097-27.583-10.333l-40.487 18.42s-22.855-42.391-22.854-42.391c-7.333-12.195-20.694-20.353-35.96-20.353-23.158 0-41.932 18.773-41.932 41.932v93.577h83.863v-31.358" fill="#ff7d99"/></g><g><path d="m506.021 317.379c-2.838-4.739-8.979-6.28-13.718-3.44-4.737 2.837-6.278 8.979-3.44 13.717 4.853 8.102 3.047 17.686 1.539 22.678-.95 3.146-2.309 6.191-3.917 8.95-1.908-5.002-4.603-9.797-8.122-14.196l-54.216-67.785c23.626-25.884 36.555-59.151 36.555-94.452 0-77.356-62.935-140.29-140.291-140.29-68.397 0-126.388 49.18-138.128 115.674l-7.815 3.556c-6.521-12.093-18.564-34.427-18.651-34.571-3.316-5.514-7.617-10.269-12.577-14.133 12.079-8.606 19.979-22.714 19.979-38.642 0-26.153-21.277-47.43-47.43-47.43s-47.43 21.277-47.43 47.43c0 13.991 6.093 26.582 15.76 35.271-6.133 3.781-11.419 8.802-15.518 14.708-.217.239-41.24 55.169-41.24 55.169-2.557 3.42-4.347 7.261-5.322 11.418l-14.58 62.144c-3.881 16.549 6.424 33.171 22.974 37.053 2.337.548 4.694.822 7.052.822 1.898 0 3.798-.178 5.686-.534 3.421-.645 6.633-1.866 9.556-3.534l-2.969 18.034c-.897 5.449 2.793 10.594 8.243 11.492.55.09 1.097.134 1.637.134 4.808 0 9.048-3.478 9.855-8.377l8.351-50.719h67.323l20.918 95.777c.007.034.015.067.022.101.209.915.333 1.854.368 2.792l3.452 92.959c.149 4.002-1.27 7.822-3.995 10.757s-6.43 4.633-10.432 4.782c-8.339.315-15.232-6.14-15.54-14.427l-3.364-90.602c-.023-.627-.105-1.251-.246-1.863l-13.658-59.599c-1.056-4.609-5.198-7.872-9.924-7.765-4.728.083-8.751 3.467-9.644 8.11l-12.301 63.964c-.303 1.57-.85 3.073-1.626 4.468-.132.236-41.267 90.616-41.267 90.616-2.689 4.57-7.616 7.395-12.944 7.395-2.563 0-5.01-.639-7.273-1.9-3.499-1.949-6.029-5.144-7.125-8.996s-.626-7.899 1.323-11.398c.138-.247 21.021-46.536 21.021-46.536 2.27-5.035.029-10.957-5.006-13.227s-10.956-.029-13.227 5.006l-20.48 45.428c-4.363 8.073-5.383 17.36-2.867 26.203 2.558 8.99 8.463 16.446 16.629 20.995 5.2 2.896 11.081 4.428 17.006 4.428 12.696 0 24.418-6.886 30.593-17.97.132-.236 41.303-90.696 41.303-90.696 1.7-3.144 2.904-6.517 3.581-10.033l3.337-17.354 2.844 12.411 3.329 89.659c.717 19.332 16.756 34.38 36.268 33.671 9.341-.347 17.987-4.311 24.347-11.161 6.359-6.85 9.671-15.767 9.324-25.107l-3.452-92.958c-.081-2.17-.366-4.344-.847-6.462l-22.396-102.545v-16.139c.864.072 1.735.109 2.611.109 4.43 0 8.723-.931 12.761-2.768l7.72-3.512c8.223 26.648 24.449 50.602 46.367 68.189 24.765 19.87 55.923 30.812 87.734 30.812 2.007 0 4.024-.058 6.033-.143l60.702 61.886c-4.054 5.667-7.019 12.127-8.593 19.037-1.211 5.322-1.819 10.789-1.807 16.25l.093 38.267c.014 6 2.086 11.886 5.834 16.571 5.13 6.415 12.752 10.006 20.741 10.006 1.796 0 3.613-.182 5.422-.554 9.855-2.027 17.638-9.312 20.31-19.012l8.786-31.886 14.996-4.743c6.25-1.977 12.017-5.056 17.141-9.154 11.047-8.836 17.608-21.222 19.388-34.241 8.9-6.216 16.356-16.942 20.091-29.305 4.253-14.084 3.001-27.841-3.527-38.74zm-446.667-102.998c-.021.082-.05.159-.07.242l-11.27 48.044c-.979 4.172-4.334 7.381-8.547 8.175-1.476.279-2.98.242-4.467-.106-5.813-1.363-9.432-7.202-8.069-13.015l14.578-62.145c.342-1.46.971-2.809 1.874-4.016l15.972-21.398v44.219zm56.433-167.368c15.125 0 27.43 12.305 27.43 27.43s-12.305 27.43-27.43 27.43-27.43-12.305-27.43-27.43 12.305-27.43 27.43-27.43zm54.521 162.432c-1.419.646-2.927.973-4.48.973-2.337 0-4.57-.739-6.421-2.104-.089-.07-33.21-31.951-33.21-31.951-3.973-3.838-10.303-3.728-14.14.244s-3.728 10.303.244 14.14l30.917 29.868v16.911h-63.864v-83.577c0-17.607 14.325-31.931 31.932-31.931 11.312 0 21.552 5.797 27.391 15.506l.006-.003c.248.498 22.616 41.987 22.616 41.987 2.497 4.63 8.153 6.537 12.943 4.356l40.486-18.42c5.435-2.474 11.868-.062 14.34 5.371 2.473 5.435.062 11.868-5.372 14.341zm74.885 67.283c-19.482-15.632-33.715-37.118-40.501-60.953l27.287-12.415c15.472-7.039 22.333-25.354 15.294-40.827-7.04-15.472-25.354-22.333-40.826-15.294l-1.136.517c15.104-49.789 61.354-85.197 115.1-85.197 66.329 0 120.291 53.962 120.291 120.29 0 20.332-5.005 39.875-14.429 57.243.391-1.617.692-3.264.879-4.944 1.157-10.406-1.807-20.64-8.347-28.816 0 0-6.977-8.696-7.089-8.822-10.622-12.854-26.427-19.641-42.471-18.157-3.402.317-6.722-1.092-8.86-3.768-6.462-8.077-18.291-9.394-26.371-2.932l-7.08 5.663c-6.876 5.5-11.199 13.348-12.172 22.099-.974 8.75 1.519 17.357 7.019 24.233l11.306 14.135c1.459 1.824 1.899 4.239 1.179 6.462-1.118 3.45-3.698 6.194-7.077 7.528-3.329 1.316-6.865 1.097-9.957-.613-4.214-2.331-8.319-4.95-12.205-7.787l-14.094-10.288c-8.163-5.96-18.597-7.174-27.91-3.252-9.329 3.93-15.794 12.508-17.237 22.546-1.342 9.336 2.078 18.84 9.211 25.02l12.657 10.954c1.475 1.276 3.174 2.611 5.043 3.978-9.75-4.225-18.982-9.766-27.504-16.603zm128.843-33.072c.292-2.625 1.576-4.981 3.621-6.647l24.883-18.992.646.809c3.203 4.004 4.655 9.017 4.088 14.113-.566 5.096-3.084 9.667-7.089 12.87l-8.559 6.845c-4.353 3.483-12.011 2.669-15.461-1.643-1.668-2.087-2.425-4.699-2.129-7.355zm-8.619-22.466c-.06.046-.119.092-.179.14-5.811 4.648-9.615 11.14-10.839 18.42-.608-4.848-2.535-9.51-5.694-13.459l-11.305-14.135c-2.163-2.704-3.144-6.089-2.761-9.53s2.083-6.528 4.787-8.691l6.134-4.906c6.359 7.324 15.816 11.132 25.525 10.239 6.126-.567 12.229.969 17.51 4.23zm92.16 182.855c-3.193 2.553-6.786 4.472-10.681 5.704l-20.178 6.382c-3.231 1.022-5.725 3.611-6.625 6.878l-10.229 37.125c-.974 3.534-3.861 4.488-5.058 4.734-1.198.245-4.226.509-6.516-2.354-.933-1.167-1.448-2.632-1.452-4.126l-.093-38.267c-.009-3.952.431-7.91 1.308-11.761 2.28-10.011 9.222-18.524 18.568-22.773 5.027-2.286 7.25-8.214 4.965-13.242-2.286-5.027-8.216-7.25-13.242-4.965-2.344 1.066-4.581 2.317-6.723 3.7l-46.495-47.403c4.99-.795 8.676-5.246 8.401-10.405-.294-5.516-4.998-9.754-10.518-9.454-21.088 1.104-59.482-18.524-72.268-29.589l-12.653-10.951c-1.96-1.698-2.875-4.487-2.505-7.06.626-4.356 3.858-6.388 5.203-6.955 1.34-.563 4.832-1.597 8.354.974l14.095 10.289c4.558 3.328 9.375 6.401 14.318 9.135 8.293 4.586 18.129 5.21 26.981 1.714 8.953-3.536 15.79-10.812 18.757-19.962.363-1.12.647-2.253.859-3.391.603 5.618 2.782 10.96 6.396 15.479 5.92 7.4 15.165 11.282 24.411 11.282 3.47 0 6.938-.553 10.233-1.666l67.553 84.46c11.386 14.238 9.068 35.083-5.166 46.468z"/><circle cx="52.316" cy="351.028" r="10"/></g></g></svg>