<svg id="Capa_1" enable-background="new 0 0 511.01 511.01" height="512" viewBox="0 0 511.01 511.01" width="512" xmlns="http://www.w3.org/2000/svg"><g><g><path d="m130.998 484.625h91.227v-279.406c-5.553 2.746-11.966 5.031-22.634 5.031-26.764 0-26.764-14.371-53.528-14.371-9.203 0-16.334 11.828-24.295 17.219-4.891 3.312-9.54 6.964-14.004 10.832-29.94 25.938-49.033 62.063-54.088 101.353-.211 1.638-.502 3.373-.888 5.223-5.576 26.745-19.644 23.811-25.221 50.556-5.575 26.741 8.493 29.674 2.917 56.415-.348 1.669-.831 3.31-1.425 4.924-6.033 16.387 6.098 33.77 23.56 33.77l78.379 12.889z" fill="#af602d"/><path d="m476.353 439.183c-12.081-24.504 7.903-31.389 2.326-58.133-5.575-26.741-19.644-23.808-25.219-50.549-.385-1.847-.677-3.581-.887-5.217-5.059-39.289-24.148-75.415-54.088-101.353-4.464-3.867-9.113-7.519-14.003-10.831-7.961-5.391-15.092-17.22-24.295-17.22-26.767 0-26.767 14.371-53.534 14.371-18.413 0-24.16-6.8-34.666-11.044v285.42h91.227v6.469l91.013-14.922c18.747 0 30.766-19.738 22.37-36.5-.082-.164-.163-.328-.244-.491z" fill="#d97c41"/><g><path d="m361.49 503.507h-217.061c-20.141 0-36.469-16.328-36.469-36.469 0-62.22 50.439-112.659 112.659-112.659h64.682c62.22 0 112.659 50.439 112.659 112.659 0 20.141-16.328 36.469-36.47 36.469z" fill="#55d47b"/><path d="m198.479 428.943c0-26.854 6.535-52.18 18.092-74.484-60.344 2.132-108.612 51.715-108.612 112.579 0 20.141 16.328 36.469 36.469 36.469h72.185c-11.583-22.324-18.134-47.678-18.134-74.564z" fill="#00c140"/></g><g><path d="m252.96 465.255c-43.324 0-78.445-35.121-78.445-78.445v-39.979h156.89v39.979c-.001 43.324-35.122 78.445-78.445 78.445z" fill="#ffddcf"/><path d="m198.479 428.943c0-29.966 8.139-58.027 22.314-82.111h-46.278v39.979c0 22.497 9.484 42.766 24.655 57.07-.449-4.921-.691-9.901-.691-14.938z" fill="#ffcbbe"/></g><circle cx="90.687" cy="230.314" fill="#ffcbbe" r="43.023"/><circle cx="415.232" cy="230.314" fill="#ffcbbe" r="43.023"/><g><path d="m410.049 230.314c1.353 96.073-61.017 158.443-157.09 157.09-96.073 1.352-158.443-61.018-157.09-157.09-1.353-96.073 61.017-158.445 157.09-157.09 96.073-1.353 158.443 61.016 157.09 157.09z" fill="#ffddcf"/><path d="m171.041 205.081c0-44.328 9.364-86.463 26.191-124.564-63.702 19.014-102.432 73.878-101.362 149.797-1.242 88.168 51.191 147.943 134.083 156.138-37.043-50.918-58.912-113.586-58.912-181.371z" fill="#ffcbbe"/></g><g><path d="m408.441 197.99h-310.963v-61.271c0-61.659 54.284-109.22 115.408-101.116l35.846 4.753c2.806.372 5.649.372 8.455 0l35.846-4.753c61.124-8.104 115.408 39.457 115.408 101.116z" fill="#e4996d"/><path d="m221.01 36.681-8.125-1.077c-61.123-8.105-115.407 39.456-115.407 101.115v61.271h73.652c1.341-59.443 19.493-114.728 49.88-161.309z" fill="#d97c41"/></g><g><path d="m396.302 203.334h-286.685c-9.03 0-16.35-7.32-16.35-16.35v-30.17c0-9.03 7.32-16.35 16.35-16.35h286.684c9.03 0 16.35 7.32 16.35 16.35v30.17c.001 9.03-7.319 16.35-16.349 16.35z" fill="#f9ee80"/><path d="m177.837 140.464h-68.219c-9.03 0-16.35 7.32-16.35 16.35v30.17c0 9.03 7.32 16.35 16.35 16.35h61.445c.12-21.552 2.451-42.578 6.774-62.87z" fill="#f6ca56"/></g><path d="m209.877 378.27c3.493 12.285 11.673 24.782 24.827 35.143 10.225 8.054 25.991 8.054 36.216 0 13.154-10.361 21.334-22.857 24.827-35.142 10.615-37.332-44.937-49.006-70.023-34.552-12.143 6.996-19.772 20.746-15.847 34.551z" fill="#e4996d"/><g fill="#ff71a8"><path d="m352.992 87.169c20.296 9.511 41.387 7.326 47.106-4.881s-6.097-29.811-26.393-39.322-30.91-2.416-36.63 9.79-4.379 24.902 15.917 34.413z"/><path d="m385.879 137.318c0-21.662 10.561-39.223 23.589-39.223s23.589 17.561 23.589 39.223-10.561 28.042-23.589 28.042-23.589-6.379-23.589-28.042z"/><path d="m465.943 87.169c-20.296 9.511-41.387 7.326-47.106-4.881s6.097-29.811 26.393-39.322 30.91-2.416 36.63 9.79 4.379 24.902-15.917 34.413z"/></g><path d="m433.056 35.541c0 21.662-10.561 39.223-23.589 39.223s-23.589-17.561-23.589-39.223 10.562-28.042 23.59-28.042 23.588 6.379 23.588 28.042z" fill="#ff97c1"/><path d="m352.992 85.69c20.296-9.511 41.387-7.326 47.106 4.881s-6.097 29.811-26.393 39.322-30.91 2.416-36.63-9.79-4.379-24.902 15.917-34.413z" fill="#ff97c1"/><path d="m465.943 85.69c-20.296-9.511-41.387-7.326-47.106 4.881s6.097 29.811 26.393 39.322 30.91 2.416 36.63-9.79 4.379-24.902-15.917-34.413z" fill="#ff97c1"/><circle cx="409.468" cy="86.43" fill="#fff8e6" r="26.622"/><ellipse cx="171.296" cy="293.26" fill="#ffa1ac" rx="30.132" ry="23.996"/><ellipse cx="334.623" cy="293.26" fill="#ffa1ac" rx="30.132" ry="23.996"/><path d="m252.96 267.765c-11.954 0-22.6-8.033-29.295 1.874-6.792 10.049 8.42 25.631 29.295 25.631s36.087-15.582 29.295-25.631c-6.696-9.907-17.341-1.874-29.295-1.874z" fill="#475066"/></g><g><path d="m462.045 141.787c3.365 0 6.533-.527 9.49-1.584 7.326-2.617 13.086-8.31 17.12-16.921 4.146-8.849 7.791-24.201-7.384-36.872 15.137-12.676 11.524-27.993 7.384-36.831-4.034-8.611-9.794-14.304-17.12-16.921-8.271-2.954-18.192-1.771-29.486 3.522-.514.241-1.013.501-1.518.752.009-.463.023-.926.023-1.392 0-30.923-19.479-35.54-31.09-35.54-11.607 0-31.08 4.617-31.08 35.54 0 .467.014.929.023 1.394-.506-.251-1.004-.512-1.519-.754-12.805-6.004-23.723-6.741-32.532-2.217-16.59-6.138-34.588-8.146-52.309-5.797l-35.844 4.759c-2.148.284-4.332.284-6.481.001l-35.852-4.761c-16.285-2.159-32.384-.729-47.855 4.248-3.943 1.268-6.112 5.493-4.843 9.436 1.268 3.943 5.491 6.111 9.436 4.843 13.338-4.29 27.231-5.52 41.29-3.657l35.859 4.762c3.458.454 6.96.455 10.416-.001l35.848-4.76c12.884-1.707 25.928-.753 38.268 2.751-.71 1.195-1.379 2.46-2.005 3.792-4.142 8.842-7.789 24.174 7.372 36.854-.917.769-1.775 1.557-2.572 2.363-.001.001-.003.003-.005.004-.001.001-.002.002-.003.003s-.002.002-.003.003-.002.002-.003.003c-6.493 6.556-12.589 17.856-4.786 34.472 1.78 3.799 3.897 7.029 6.335 9.678h-227.006c-1.544 0-3.072.158-4.567.451.963-28.206 14.204-54.113 36.675-71.488 3.277-2.534 3.879-7.244 1.345-10.521-2.534-3.276-7.243-3.878-10.521-1.345-27.049 20.915-42.562 52.502-42.562 86.664v6.589c-2.725 3.957-4.22 8.642-4.22 13.501v23.223c-25.556 2.482-45.6 24.08-45.6 50.277 0 16.853 8.16 32.165 21.705 41.513-8.007 16.508-13.269 34.135-15.634 52.504-.192 1.506-.458 3.065-.793 4.653-2.408 11.558-6.413 16.413-11.051 22.034-5.156 6.25-11 13.333-14.169 28.516-3.162 15.181-.635 24.009 1.595 31.799 2.005 7.008 3.738 13.06 1.328 24.611-.266 1.268-.643 2.572-1.117 3.866-3.683 9.993-2.246 21.173 3.843 29.907 5.969 8.561 15.688 13.742 26.102 13.95l57.017 9.376c8.272 11.308 21.269 17.971 35.446 17.971h147.249c4.142 0 7.5-3.358 7.5-7.5s-3.358-7.5-7.5-7.5h-147.251c-10.127 0-19.353-5.154-24.677-13.788-2.809-4.553-4.293-9.803-4.293-15.183 0-28.086 10.939-54.493 30.803-74.357 6.245-6.245 13.212-11.645 20.747-16.113v10.24c0 47.387 38.557 85.94 85.95 85.94 47.388 0 85.94-38.553 85.94-85.94v-10.244c31.915 18.922 51.56 53.169 51.56 90.474 0 5.324-1.45 10.515-4.195 15.033-.061.089-.121.181-.178.273-1.161 1.872-2.544 3.615-4.11 5.181-5.471 5.471-12.747 8.483-20.487 8.483h-34.209c-4.142 0-7.5 3.358-7.5 7.5s3.358 7.5 7.5 7.5h34.209c11.747 0 22.79-4.573 31.093-12.876 1.54-1.54 2.952-3.201 4.245-4.949l58.042-9.522c11.118-.215 21.189-5.947 27.042-15.425 6.009-9.733 6.526-21.669 1.383-31.931l-.16-.325c-.019-.04-.038-.08-.058-.12-5.136-10.417-3.187-15.984-.235-24.411 2.747-7.843 6.166-17.603 3.18-31.935-3.168-15.181-9.012-22.264-14.168-28.513-4.638-5.622-8.644-10.477-11.055-22.052-.338-1.603-.596-3.116-.79-4.631-2.378-18.449-7.659-36.134-15.709-52.677 13.389-9.374 21.451-24.619 21.451-41.335 0-26.197-20.044-47.795-45.6-50.277v-8.659c9.554-2.888 20.4-11.197 20.4-34.054 0-.464-.019-.922-.028-1.384.506.251 1.01.504 1.525.745 7.255 3.404 13.944 5.109 19.994 5.109zm13.026-24.869c-2.307 4.924-5.114 7.919-8.583 9.159-4.414 1.577-10.494.574-18.071-2.978-4.758-2.231-9.035-4.961-12.713-8.114-1.214-1.04-2.346-2.123-3.391-3.228 6.919-6.193 11.049-15.144 11.253-24.409 6.086.367 12.76 2.118 19.128 5.1l.478.229c.304.144.604.286.943.458 15.729 7.879 14.561 16.087 10.956 23.783zm-129.341-17.558c.001-.001.002-.002.003-.003s.003-.002.004-.003c2.162-2.187 5.197-4.268 9.021-6.185.017-.008.032-.021.05-.029.022-.011.044-.018.066-.029.287-.147.587-.289.891-.433l.41-.196c6.415-3.005 13.104-4.767 19.196-5.136.205 9.269 4.353 18.25 11.252 24.423-1.044 1.101-2.18 2.18-3.392 3.219-2.462 2.107-5.244 4.059-8.27 5.803-1.428.821-2.921 1.597-4.441 2.309-7.58 3.553-13.659 4.554-18.073 2.978-3.468-1.239-6.276-4.235-8.585-9.165-4.4-9.369-1.525-14.131 1.868-17.553zm55.029 4.093c-12.578-6.16-14.009-24.508-2.471-32.529 12.345-9.165 30.489.152 30.305 15.507.271 13.938-15.467 23.659-27.834 17.022zm47.657-53.692c7.579-3.552 13.66-4.555 18.072-2.978 3.469 1.239 6.276 4.235 8.583 9.159 3.349 7.149 4.586 14.739-7.861 22.096-8.973-3.909-18.202-5.893-26.703-5.77-1.487-3.26-3.486-6.268-5.92-8.913 1.026-2.113 1.925-4.367 2.702-6.743 3.312-2.615 7.028-4.929 11.127-6.851zm-38.953-34.761c8.357 0 16.09 2.488 16.09 20.54 0 5.125-.655 10.036-1.95 14.609-.45 1.599-.981 3.128-1.574 4.575-7.955-3.203-17.177-3.202-25.126-.004-.592-1.448-1.123-2.98-1.574-4.583-1.292-4.561-1.946-9.471-1.946-14.597 0-18.052 7.728-20.54 16.08-20.54zm-38.945 34.761c4.09 1.917 7.797 4.224 11.102 6.83.78 2.393 1.691 4.655 2.72 6.78-2.445 2.646-4.418 5.645-5.919 8.895-8.456-.109-17.678 1.88-26.671 5.787-12.472-7.361-11.236-14.957-7.887-22.105 1.619-3.449 3.54-6.014 5.708-7.623 1.724-1.276 6.961-5.123 20.947 1.436zm8.785 98.199c2.614 13.861 10.379 19.919 16.901 22.55 2.703 1.096 5.704 1.808 8.949 2.134v14.336c-.004.075-.007.149-.008.224-.047 2.103-.851 4.123-2.265 5.687-.028.031-.056.062-.083.094l-.086.092c-.029.029-.059.059-.087.089-1.662 1.718-3.906 2.665-6.319 2.665h-286.69c-2.407 0-4.651-.946-6.318-2.664-.026-.026-.052-.053-.079-.08l-.068-.068c-.059-.067-.12-.133-.181-.197-1.371-1.559-2.15-3.549-2.196-5.618-.003-.127-.009-.255-.018-.382.005.075.01.147.01.159v-30.17c0-2.194.812-4.301 2.286-5.933 1.674-1.854 4.067-2.917 6.564-2.917h269.688zm23.251 82.242c-.001.067-.001.135 0 .202.02 1.526.029 3.043.009 4.589-.094 12.466-1.337 24.535-3.692 35.87-8.379 40.303-30.462 71.468-63.865 90.141-.074.038-.147.077-.219.117-2.238 1.241-4.471 2.399-6.659 3.453-7.472 3.628-15.448 6.63-23.812 8.99.989-8.548-.93-16.49-5.695-23.254-2.548-3.628-5.883-6.876-9.913-9.655-17.949-12.368-48.509-13.939-66.724-3.436-1.926 1.107-3.78 2.375-5.494 3.753-3.407 2.723-6.338 5.894-8.712 9.425-4.795 7.135-6.949 15.143-6.328 23.113-8.302-2.349-16.233-5.33-23.673-8.942-2.233-1.079-4.469-2.239-6.638-3.442-33.526-18.649-55.686-49.861-64.083-90.263-2.336-11.237-3.579-23.195-3.693-35.562-.02-1.622-.01-3.252.01-4.903 0-.065 0-.13 0-.196-.097-6.789.144-13.49.713-20.016 1.789.422 3.639.644 5.529.644h286.69c1.89 0 3.741-.223 5.529-.644.569 6.535.817 13.23.72 20.016zm-114.015 146.018c-.001.003-.002.007-.003.01-.43 1.522-.983 3.138-1.636 4.784-3.92 9.799-11.05 18.964-20.618 26.505-7.552 5.95-19.384 5.951-26.938-.001-9.586-7.55-16.721-16.731-20.639-26.569-.613-1.529-1.158-3.124-1.615-4.724-1.645-5.801-.529-12.002 3.139-17.46 1.521-2.262 3.415-4.307 5.646-6.09 1.127-.906 2.334-1.731 3.595-2.457 5.84-3.367 13.775-5 21.962-5 10.461 0 21.334 2.666 28.764 7.786 2.559 1.764 4.628 3.758 6.156 5.935 3.402 4.832 4.118 10.484 2.187 17.281zm-233.376-145.91c0-18.399 14.062-33.572 32.002-35.345.705 1.983 1.671 3.867 2.88 5.607-1.248 9.606-1.814 19.593-1.673 29.747-.02 1.736-.029 3.453-.009 5.14.096 10.42.952 20.599 2.529 30.376-.07 0-.14.005-.21.005-5.483 0-10.738-1.218-15.626-3.624-12.271-6.019-19.893-18.244-19.893-31.906zm80.497 151.767c-22.697 22.697-35.197 52.871-35.197 84.963 0 3.24.37 6.446 1.066 9.572l-47.689-7.843c-.402-.066-.809-.1-1.217-.1-5.844 0-11.11-2.747-14.449-7.536-3.335-4.784-4.091-10.667-2.069-16.152.727-1.982 1.305-3.989 1.721-5.97 3.169-15.186.641-24.018-1.589-31.81-2.006-7.007-3.738-13.058-1.332-24.61 2.411-11.555 6.417-16.41 11.055-22.031 5.158-6.25 11.003-13.335 14.163-28.503.414-1.962.747-3.922.99-5.82 2.155-16.74 6.942-32.804 14.207-47.799 4.934 1.583 10.074 2.401 15.364 2.401 1.085 0 2.169-.044 3.252-.114 9.249 37.174 29.517 66.913 59.18 86.917-6.237 4.24-12.083 9.061-17.456 14.435zm117.303 75.673c-39.122 0-70.95-31.824-70.95-70.94v-4.036c7.78 3.066 15.938 5.57 24.395 7.479 5.087 10.83 13.192 20.81 23.654 29.049 6.485 5.11 14.618 7.665 22.751 7.665s16.267-2.555 22.752-7.665c10.433-8.221 18.525-18.172 23.622-28.979 8.58-1.92 16.848-4.447 24.716-7.547v4.036c0 39.114-31.824 70.938-70.94 70.938zm193.158-125.721c3.163 15.187 9.008 22.271 14.166 28.521 4.638 5.622 8.644 10.476 11.054 22.029 2.134 10.247-.191 16.886-2.653 23.915-3.27 9.335-6.975 19.914.912 35.95.096.203.192.396.288.586 2.794 5.576 2.519 12.053-.738 17.328-3.261 5.282-8.702 8.312-14.927 8.312-.407 0-.813.033-1.214.099l-48.642 7.98c.715-3.168 1.096-6.42 1.096-9.709 0-40.134-19.911-77.15-52.674-99.384 29.673-20.008 49.952-49.756 59.204-86.937 1.079.072 2.16.122 3.241.122 5.393 0 10.629-.85 15.65-2.493 7.298 15.038 12.089 31.115 14.25 47.885.241 1.886.575 3.842.987 5.796zm4.632-101.719c0 13.557-7.538 25.742-19.674 31.802-4.948 2.474-10.279 3.729-15.846 3.729-.067 0-.134-.005-.201-.005 1.593-9.884 2.45-20.174 2.53-30.689.021-1.6.011-3.209-.009-4.829.142-10.146-.423-20.127-1.674-29.76 1.205-1.735 2.168-3.614 2.871-5.592 17.941 1.772 32.003 16.945 32.003 35.344zm-38.762-72.571c-.043.004-.086.008-.13.013-.688.073-1.473.108-2.398.108-.193 0-.387.004-.579-.007-.087-.005-.175-.009-.263-.011-2.636-.062-4.917-.477-6.793-1.238-3.301-1.332-7.761-4.493-8.375-16.529-.047-.921-.07-1.79-.07-2.755 0-4.374.481-8.589 1.423-12.565 1.923-1.781 3.668-3.628 5.232-5.529 6.089 1.766 12.742 1.76 18.844-.014 1.569 1.907 3.32 3.759 5.247 5.543.942 3.976 1.424 8.191 1.424 12.566 0 16.934-6.856 19.825-13.562 20.418z"/><path d="m207.084 256.789c-3.123-2.721-7.86-2.396-10.582.727-1.931 2.215-4.717 3.486-7.645 3.486s-5.714-1.271-7.645-3.486c-2.721-3.124-7.459-3.448-10.582-.727s-3.448 7.459-.727 10.582c4.78 5.485 11.688 8.631 18.953 8.631s14.173-3.146 18.953-8.631c2.723-3.123 2.398-7.861-.725-10.582z"/><path d="m335.288 256.789c-3.123-2.721-7.86-2.396-10.582.727-1.931 2.215-4.717 3.486-7.645 3.486-2.927 0-5.714-1.271-7.645-3.486-2.722-3.123-7.459-3.448-10.582-.726-3.123 2.721-3.448 7.459-.726 10.582 4.78 5.485 11.688 8.631 18.953 8.631s14.173-3.146 18.953-8.631c2.722-3.124 2.397-7.862-.726-10.583z"/><path d="m262.546 258.771c-3.199.732-6.507 1.489-9.584 1.489-3.081 0-6.39-.757-9.591-1.489-7.386-1.691-18.546-4.243-25.924 6.67-3.726 5.515-3.9 12.374-.477 18.817 5.79 10.899 20.59 18.511 35.991 18.511 15.396 0 30.191-7.612 35.98-18.51 3.424-6.444 3.25-13.304-.475-18.816-7.368-10.918-18.533-8.362-25.92-6.672zm13.151 18.452c-2.716 5.113-11.607 10.547-22.734 10.547-11.133 0-20.028-5.435-22.744-10.548-1.156-2.177-.564-3.053-.343-3.381.716-1.059 1.242-1.658 2.982-1.658 1.385 0 3.539.38 7.168 1.21 3.826.875 8.162 1.867 12.937 1.867 4.771 0 9.105-.992 12.93-1.867 8.164-1.869 8.889-1.416 10.146.445.222.331.815 1.207-.342 3.385z"/></g></g></svg>