<svg id="Capa_1" enable-background="new 0 0 512.037 512.037" height="512" viewBox="0 0 512.037 512.037" width="512" xmlns="http://www.w3.org/2000/svg"><g><g><g><path d="m364.657 504.537h-217.278c-20.08 0-36.359-16.278-36.359-36.359v-.449c0-62.031 50.286-112.318 112.318-112.318h65.36c62.031 0 112.318 50.286 112.318 112.318v.449c0 20.081-16.278 36.359-36.359 36.359z" fill="#5d6a85"/><path d="m188.718 420.288c0-22.935 5.813-44.513 16.047-63.339-53.191 8.853-93.744 55.077-93.744 110.78v.449c0 20.08 16.278 36.359 36.359 36.359h71.477c-18.832-22.925-30.139-52.266-30.139-84.249z" fill="#475066"/></g><path d="m256.018 450.588c-27.133 0-53.57-9.709-74.439-27.338-20.085-16.966-34.454-40.501-42.012-68.612-1.937-7.204 2.442-14.589 9.708-16.279 6.84-1.591 13.747 2.47 15.628 9.236 15.039 54.11 57.511 73.691 91.115 73.691s76.076-19.581 91.115-73.691c1.88-6.766 8.788-10.828 15.628-9.236 7.266 1.691 11.645 9.075 9.708 16.279-7.558 28.111-21.928 51.645-42.012 68.612-20.869 17.629-47.305 27.338-74.439 27.338z" fill="#f9ee80"/><path d="m188.718 420.288c0-8.845.873-17.486 2.522-25.847-11.332-11.345-20.738-26.698-26.337-46.845-1.881-6.766-8.788-10.828-15.628-9.236-7.266 1.69-11.645 9.075-9.708 16.279 7.558 28.111 21.927 51.645 42.012 68.612 2.405 2.031 4.887 3.952 7.432 5.771-.187-2.889-.293-5.799-.293-8.734z" fill="#f6ca56"/><g><path d="m409.054 229.182c1.318 93.593-59.442 154.353-153.036 153.036-93.593 1.318-154.354-59.443-153.035-153.036-1.318-93.594 59.442-154.356 153.035-153.035 93.594-1.318 154.354 59.441 153.036 153.035z" fill="#fed2a4"/><path d="m181.46 192.2c0-38.766 7.757-75.717 21.783-109.403-62.961 18.099-101.31 71.823-100.26 146.385-1.309 92.959 58.628 153.517 151.143 153.043-45.178-50.412-72.666-117.004-72.666-190.025z" fill="#ffbd86"/></g><g><path d="m283.389 13.712c-17.298-8.234-37.444-8.233-54.742 0-62.963 29.969-106.56 69.472-128.329 109.938-22.578 41.197-22.532 83.393-5.267 117.542 2.878 5.691 10.536 6.808 14.804 2.068 67.126-74.544 225.2-74.544 292.326 0 4.268 4.739 11.926 3.623 14.804-2.068 17.266-34.15 17.312-76.345-5.266-117.543-21.77-40.465-65.367-79.968-128.33-109.937z" fill="#475066"/><path d="m181.46 192.2c0-70.284 25.47-134.609 67.663-184.286-7.026.763-13.954 2.694-20.476 5.799-62.963 29.969-106.56 69.472-128.329 109.938-22.578 41.198-22.532 83.393-5.267 117.543 2.878 5.691 10.536 6.807 14.804 2.068 18.341-20.367 43.479-35.156 71.688-44.394-.05-2.218-.083-4.439-.083-6.668z" fill="#303646"/></g><g><path d="m82.786 193.723c.669 16.821 4.89 32.881 12.266 47.469 2.878 5.691 10.536 6.808 14.804 2.068 67.126-74.544 225.2-74.544 292.326 0 4.267 4.739 11.926 3.623 14.804-2.068 7.376-14.589 11.597-30.649 12.266-47.469-79.662-88.209-266.805-88.209-346.466 0z" fill="#5d6a85"/><path d="m181.46 192.2c0-19.346 1.938-38.239 5.614-56.503-41.19 10.038-78.411 29.373-104.287 58.026.669 16.821 4.89 32.88 12.266 47.469 2.878 5.692 10.536 6.808 14.804 2.068 18.341-20.367 43.479-35.156 71.688-44.394-.052-2.216-.085-4.437-.085-6.666z" fill="#475066"/></g><circle cx="256.018" cy="442.457" fill="#fad989" r="35.106"/><g fill="#ffa1ac"><ellipse cx="174.967" cy="286.776" rx="29.906" ry="23.816"/><ellipse cx="337.07" cy="286.776" rx="29.907" ry="23.816"/></g></g><g><path d="m418.323 120.093c-23.54-43.749-70.316-83.933-131.71-113.147-19.441-9.261-41.744-9.26-61.188-.001-23.245 11.062-44.499 23.705-63.173 37.579-3.325 2.47-4.018 7.168-1.548 10.493 2.47 3.326 7.169 4.018 10.493 1.547 17.893-13.293 38.307-25.431 60.675-36.076 15.347-7.308 32.946-7.308 48.293.001 58.535 27.854 102.909 65.752 124.976 106.761 8.649 15.787 13.947 31.842 15.871 47.931-39.795-34.773-99.886-55.113-164.994-55.113-65.107 0-125.198 20.34-164.993 55.112 1.926-16.092 7.229-32.158 15.897-47.98 9.322-17.326 22.656-34.186 39.631-50.112 3.021-2.834 3.172-7.581.338-10.602-2.834-3.02-7.58-3.172-10.602-.338-18.159 17.038-32.484 35.188-42.549 53.894-13.059 23.835-19.438 49.419-18.447 73.982.178 14.14 7.513 52.273 21.162 58.379 3.508 35.294 16.373 65.94 37.491 89.296-2.329 4.521-2.988 9.836-1.621 14.886 2.273 8.445 5.165 16.554 8.6 24.191-23.835 22.599-37.408 53.962-37.408 86.95v.45c0 24.185 19.676 43.86 43.86 43.86h156.309c4.143 0 7.5-3.358 7.5-7.5s-3.357-7.5-7.5-7.5h-156.307c-15.914 0-28.86-12.946-28.86-28.86v-.45c0-27.382 10.692-53.486 29.599-72.977 7.728 13.191 17.323 24.676 28.619 34.225 11.193 9.458 23.787 16.743 37.484 21.709 3.866 19.64 21.324 34.382 41.797 34.382 20.489 0 37.957-14.763 41.803-34.384 13.695-4.967 26.287-12.25 37.479-21.708 11.296-9.548 20.89-21.033 28.617-34.222 18.907 19.49 29.6 45.593 29.6 72.974v.45c0 15.914-12.946 28.86-28.86 28.86h-27.68c-4.143 0-7.5 3.358-7.5 7.5s3.357 7.5 7.5 7.5h27.68c24.185 0 43.86-19.675 43.86-43.86v-.45c0-32.989-13.568-64.36-37.404-86.959 3.434-7.637 6.325-15.743 8.6-24.197.474-1.774.714-3.589.714-5.394 0-3.345-.826-6.584-2.331-9.487 21.137-23.38 34.007-54.069 37.496-89.413 6.844-2.763 9.436-10.262 12.112-16.523 5.421-13.211 8.461-27.251 9.036-41.725.994-24.563-5.385-50.147-18.417-73.934zm-162.305 14.976c67.643 0 129.232 22.9 165.551 61.396-.621 9.422-2.47 18.773-5.548 27.7-1.563 4.691-3.49 9.196-5.722 13.639-.649 1.074-1.662 1.24-2.548.434-32.92-36.56-89.644-58.387-151.733-58.387s-118.813 21.827-151.729 58.382c-.098.228-1.032.634-1.56.492-1.722-1.116-3.517-6.498-4.605-8.874-4.309-10.626-6.912-21.943-7.656-33.387 36.318-38.496 97.907-61.395 165.55-61.395zm106.959 200.772c-7.196 7.216-15.361 13.553-24.265 18.835-2.29 1.358-4.632 2.649-6.964 3.839-.084.039-.167.079-.249.121-32.382 16.576-72.606 19.593-108.146 13.771-14.854-2.433-29.393-6.923-42.817-13.771-.082-.042-.164-.082-.247-.12-2.333-1.19-4.675-2.481-6.965-3.839-8.904-5.283-17.069-11.62-24.263-18.833-21.186-21.267-34.118-50.335-37.615-84.334 1.464-.852 2.809-1.932 3.984-3.235 30.122-33.452 82.679-53.424 140.587-53.424s110.465 19.972 140.585 53.422c1.169 1.299 2.521 2.381 3.995 3.233-3.495 34.002-16.435 63.069-37.62 84.335zm-80.151 73.496c-7.569-6.145-16.925-9.49-26.808-9.49-9.882 0-19.238 3.345-26.812 9.495-16.967-5.699-31.415-16.521-41.956-31.276 1.116 1.563 7.081 2.59 8.938 3.19 3.219 1.041 6.471 1.98 9.749 2.819 6.724 1.722 13.553 3.023 20.432 3.941 32.54 4.34 67.639 2.103 98.371-9.922-10.536 14.733-24.962 25.549-41.914 31.243zm-126.042-30.078c-3.807-7.659-6.971-15.953-9.439-24.674 5.083 4.261 10.498 8.163 16.191 11.679.676 1.567 1.369 3.115 2.088 4.603 11.417 23.652 30.11 41.318 53.281 50.646-2.288 4.043-3.896 8.428-4.755 13.014-10.028-4.232-19.333-9.913-27.729-17.008-12.173-10.289-22.143-23.16-29.637-38.26zm126.765 65.276c-1.057 14.317-13.149 25.532-27.53 25.532s-26.474-11.215-27.534-25.584c-.051-.635-.076-1.297-.076-2.026 0-7.314 2.833-14.21 7.969-19.412 5.237-5.287 12.213-8.198 19.642-8.198s14.404 2.912 19.633 8.189c5.144 5.209 7.977 12.106 7.977 19.42-.002.738-.027 1.4-.081 2.079zm42.069-27.017c-8.398 7.096-17.7 12.786-27.73 17.017-.859-4.588-2.467-8.974-4.756-13.02 23.171-9.327 41.864-26.995 53.278-50.643.722-1.492 1.415-3.041 2.091-4.609 5.692-3.516 11.107-7.418 16.19-11.679-2.466 8.716-5.631 17.013-9.442 24.678-7.49 15.097-17.46 27.968-29.631 38.256z"/><path d="m205.476 229.166-21.188-3.736c-4.084-.718-7.969 2.005-8.688 6.083-.72 4.08 2.004 7.969 6.083 8.689l21.188 3.736c.441.078.879.115 1.312.115 3.571 0 6.735-2.561 7.377-6.199.719-4.078-2.005-7.968-6.084-8.688z"/><path d="m327.748 225.43-21.188 3.736c-4.079.72-6.803 4.609-6.083 8.689.642 3.639 3.806 6.199 7.377 6.199.433 0 .871-.038 1.312-.115l21.188-3.736c4.079-.72 6.803-4.609 6.083-8.689s-4.609-6.803-8.689-6.084z"/><path d="m285.016 258.127c-4.143 0-7.5 3.358-7.5 7.5 0 3.859-3.14 6.999-6.999 6.999s-6.999-3.14-6.999-6.999c0-4.142-3.357-7.5-7.5-7.5s-7.5 3.358-7.5 7.5c0 3.859-3.14 6.999-6.999 6.999s-7-3.14-7-6.999c0-4.142-3.357-7.5-7.5-7.5s-7.5 3.358-7.5 7.5c0 12.13 9.869 21.999 22 21.999 5.551 0 10.624-2.071 14.499-5.475 3.875 3.404 8.948 5.475 14.499 5.475 12.13 0 21.999-9.869 21.999-21.999 0-4.142-3.357-7.5-7.5-7.5z"/><path d="m192.396 244.219c-4.143 0-7.5 3.358-7.5 7.5v12.036c0 4.142 3.357 7.5 7.5 7.5s7.5-3.358 7.5-7.5v-12.036c0-4.142-3.357-7.5-7.5-7.5z"/><path d="m319.64 244.219c-4.143 0-7.5 3.358-7.5 7.5v12.036c0 4.142 3.357 7.5 7.5 7.5s7.5-3.358 7.5-7.5v-12.036c0-4.142-3.357-7.5-7.5-7.5z"/></g></g></svg>