<svg id="Capa_1" enable-background="new 0 0 512 512" height="512" viewBox="0 0 512 512" width="512" xmlns="http://www.w3.org/2000/svg"><g><g><path d="m444.796 334.991c-24.83-50.962-55.524-104.521-56.274-160.034h-132.069v237.061c61.768-1.182 123.147-14.324 177.276-35.488 15.624-6.131 19.276-24.863 11.067-41.539z" fill="#fad989"/><path d="m220.641 174.957h-117.208c-.75 55.514-31.444 109.072-56.274 160.034-8.208 16.676-4.557 35.407 11.066 41.539 49.785 19.465 105.703 32.146 162.416 34.977z" fill="#f6ca56"/><g><path d="m356.414 503.653h-220.874c-20.08 0-36.359-16.278-36.359-36.359v-2.298c0-62.031 50.286-112.318 112.318-112.318h68.956c62.031 0 112.318 50.286 112.318 112.318v2.298c0 20.081-16.278 36.359-36.359 36.359z" fill="#a57cd2"/><path d="m165.264 412.018c0-18.918 3.691-36.972 10.378-53.492-44.448 14.964-76.46 56.978-76.46 106.47v2.298c0 20.08 16.278 36.359 36.359 36.359h63.05c-20.797-24.788-33.327-56.746-33.327-91.635z" fill="#8c5ac5"/></g><circle cx="77.42" cy="218.487" fill="#ffddcf" r="44.689"/><circle cx="245.977" cy="393.841" fill="#f9ee80" r="15.232"/><circle cx="414.534" cy="218.487" fill="#ffcbbe" r="44.689"/><circle cx="72.182" cy="265.256" fill="#8c5ac5" r="29"/><circle cx="419.72" cy="265.256" fill="#a57cd2" r="29"/><g><path d="m408.312 218.487c1.398 99.281-63.054 163.733-162.335 162.335-99.281 1.398-163.733-63.055-162.335-162.335-1.398-99.281 63.054-163.735 162.335-162.335 99.281-1.398 163.733 63.053 162.335 162.335z" fill="#ffddcf"/><path d="m168.71 213.515c0-55.953 14.253-108.573 39.316-154.442-77.412 13.588-125.594 73.436-124.384 159.414-1.243 88.278 49.58 149.016 130.656 160.412-28.939-48.363-45.588-104.926-45.588-165.384z" fill="#ffcbbe"/></g><circle cx="245.977" cy="457.041" fill="#f9ee80" r="15.232"/><path d="m316.228 68.045c-9.137 13.5-14.475 29.781-14.475 47.31 0 46.674 37.837 84.512 84.512 84.512 7.354 0 14.488-.943 21.289-2.709-5.399-62.468-38.874-108.54-91.326-129.113z" fill="#f6ca56"/><g><path d="m77.528 155.077c-1.478 5.007 1.144 10.328 6.011 12.218 27.78 10.793 61.788 17.147 98.528 17.147 93.745 0 169.74-41.342 169.74-92.34 0-.637-.012-1.272-.035-1.906-.703-18.888-13.44-35.214-31.316-41.351-21.195-7.276-44.972-10.961-70.894-10.596-87.319-1.231-150.364 43.424-172.034 116.828z" fill="#fad989"/><path d="m219.476 39.736c-71.636 8.316-122.854 50.665-141.948 115.341-1.478 5.007 1.144 10.328 6.011 12.218 24.723 9.606 54.386 15.682 86.51 16.906 4.764-52.864 22.257-102.057 49.427-144.465z" fill="#f6ca56"/></g><ellipse cx="165.101" cy="267.502" fill="#ffa1ac" rx="29.842" ry="23.764"/><ellipse cx="326.853" cy="267.502" fill="#ffa1ac" rx="29.842" ry="23.764"/><path d="m270.037 249.243c0-14.869-10.772-16.266-24.06-16.266s-24.06 1.397-24.06 16.266 10.772 26.923 24.06 26.923c13.288-.001 24.06-12.054 24.06-26.923z" fill="#475066"/><path d="m404.937 319.727h-41.27c-16.997 0-30.776 13.779-30.776 30.776v56.37h102.823v-56.37c-.001-16.997-13.78-30.776-30.777-30.776zm1.328 57.699h-43.927v-20.377c0-4.349 3.525-7.874 7.874-7.874h28.179c4.348 0 7.873 3.525 7.873 7.873v20.378z" fill="#f6334c"/><path d="m459.669 504.5h-150.735c-10.825 0-19.6-8.775-19.6-19.6v-64.167c0-25.994 21.072-47.066 47.066-47.066h95.802c25.994 0 47.066 21.072 47.066 47.066v64.167c0 10.824-8.775 19.6-19.599 19.6z" fill="#fd5c6f"/><path d="m199.468 7.5h-30.893c-15.169 0-26.475 13.988-23.295 28.82l1.33 6.201c3.306 15.417 16.931 26.431 32.699 26.431h9.426c15.768 0 29.393-11.013 32.699-26.43l1.33-6.201c3.179-14.834-8.127-28.821-23.296-28.821z" fill="#475066"/><path d="m292.487 7.5h30.893c15.169 0 26.475 13.988 23.295 28.819l-1.33 6.201c-3.306 15.417-16.931 26.431-32.699 26.431h-9.426c-15.768 0-29.393-11.014-32.699-26.431l-1.33-6.201c-3.18-14.832 8.127-28.819 23.296-28.819z" fill="#475066"/><path d="m384.553 469.208h-.503c-8.99 0-16.278-7.288-16.278-16.278v-11.06c0-8.99 7.288-16.278 16.278-16.278h.503c8.99 0 16.278 7.288 16.278 16.278v11.06c0 8.99-7.288 16.278-16.278 16.278z" fill="#f9ee80"/></g><g><path d="m170.09 246.63c4.143 0 7.5-3.358 7.5-7.5v-12.186c0-4.142-3.357-7.5-7.5-7.5s-7.5 3.358-7.5 7.5v12.186c0 4.142 3.357 7.5 7.5 7.5z"/><path d="m245.98 283.669c17.402 0 31.56-15.445 31.56-34.43 0-23.76-21.315-23.76-31.56-23.76s-31.561 0-31.561 23.76c.001 18.985 14.159 34.43 31.561 34.43zm0-43.19c15.89 0 16.56 2.686 16.56 8.76 0 10.713-7.429 19.43-16.56 19.43-9.132 0-16.561-8.716-16.561-19.43.001-6.074.671-8.76 16.561-8.76z"/><path d="m321.865 246.63c4.143 0 7.5-3.358 7.5-7.5v-12.186c0-4.142-3.357-7.5-7.5-7.5s-7.5 3.358-7.5 7.5v12.186c0 4.142 3.357 7.5 7.5 7.5z"/><path d="m452.092 369.922c5.893-10.559 6.012-24.87-.551-38.22-3.166-6.492-6.482-13.142-9.689-19.574-2.219-4.45-4.484-8.997-6.735-13.56 12.635-6.011 21.103-18.883 21.103-33.448 0-4.281-.762-8.526-2.195-12.526 8.122-9.411 12.695-21.569 12.695-34.104 0-28.778-23.412-52.19-52.189-52.19-1.485 0-2.97.085-4.452.211-8.434-33.824-26.088-62.203-51.403-82.57-1.475-9.536-5.59-18.465-11.899-25.891 2.77-4.162 4.812-8.868 5.903-13.957l1.329-6.2c1.993-9.295-.29-18.866-6.267-26.259-5.977-7.394-14.856-11.634-24.361-11.634h-30.894c-6.167 0-12.064 1.794-17.082 5.066-9.777-.768-19.658-1.176-29.425-1.176-9.912 0-19.576.399-29.431 1.176-5.017-3.272-10.914-5.066-17.08-5.066h-30.894c-9.506 0-18.386 4.24-24.361 11.633-5.976 7.393-8.261 16.964-6.268 26.259l1.33 6.2c.957 4.462 2.646 8.628 4.913 12.394-11.85 6.991-22.671 15.332-32.215 24.921-2.922 2.936-2.911 7.684.024 10.606 1.463 1.457 3.377 2.185 5.291 2.185 1.925 0 3.85-.737 5.315-2.209 9.331-9.373 20.016-17.444 31.786-24.08 6.982 5.374 15.676 8.542 24.917 8.542h9.426c18.364 0 34.575-12.484 39.445-30.008 6.906-.549 14.032-.796 21.276-.693.074.001.145.001.213 0 4.696-.069 9.372.011 13.973.223 4.708 17.773 21.051 30.479 39.579 30.479h9.426c8.675 0 16.866-2.792 23.614-7.579.953-.676 6.31 11.797 6.642 12.964 5.277 18.572-4.682 37.023-17.668 49.734-5.291 5.179-11.637 10.104-18.861 14.637-14.345 9.003-31.596 16.239-51.277 21.509-22.799 6.121-47.368 9.224-73.025 9.224-25.671 0-50.247-3.103-73.055-9.226-5.927-1.583-11.842-3.425-17.577-5.475-2.697-1.353-7.432-1.336-6.715-5.035 4.411-14.941 10.675-28.799 18.616-41.188 2.236-3.487 1.222-8.126-2.266-10.362-3.486-2.235-8.127-1.221-10.361 2.266-8.708 13.583-15.563 28.735-20.374 45.03-1.394 4.706-.666 9.606 1.621 13.636-26.22 2.739-46.729 24.97-46.729 51.904 0 12.523 4.588 24.66 12.706 34.074-1.441 4.009-2.206 8.264-2.206 12.556 0 14.579 8.484 27.459 21.11 33.457-2.25 4.56-4.514 9.105-6.732 13.552-3.207 6.432-6.523 13.082-9.678 19.549-5.63 11.439-6.585 23.866-2.62 34.094 3.186 8.218 9.465 14.518 17.687 17.742 17.606 6.889 35.878 12.882 54.45 17.884-11.973 19.016-18.268 40.786-18.268 63.601v2.3c0 24.179 19.676 43.85 43.86 43.85h166.715c2.181.553 4.418.85 6.674.85h85.131c4.143 0 7.5-3.358 7.5-7.5s-3.357-7.5-7.5-7.5h-85.131c-1.2 0-2.391-.177-3.531-.524-5.039-1.537-8.559-6.297-8.559-11.576v-24.721h64.566c3.072 9.577 12.06 16.53 22.644 16.53h.504c10.584 0 19.572-6.953 22.645-16.53h64.571v24.721c0 6.672-5.428 12.1-12.1 12.1h-32.167c-4.143 0-7.5 3.358-7.5 7.5s3.357 7.5 7.5 7.5h32.167c14.942 0 27.1-12.157 27.1-27.1v-64.17c.001-22.804-14.237-42.787-34.676-50.808zm-53.332-3.753h-28.92v-9.12c0-.208.162-.37.37-.37h28.18c.208 0 .37.162.37.37zm-.371-24.489h-28.18c-8.476 0-15.37 6.895-15.37 15.37v9.12h-14.45v-4.93c0-.02 0-.04 0-.06v-10.68c0-12.831 10.443-23.27 23.28-23.27h41.271c12.831 0 23.27 10.439 23.27 23.27v15.67h-14.45v-9.12c0-8.475-6.895-15.37-15.371-15.37zm-115.168 66.817c-.917 3.983-1.382 8.098-1.382 12.232v64.17c0 3.994.869 7.804 2.431 11.25h-30.79v-17.655c8.858-3.107 15.229-11.548 15.229-21.454s-6.371-18.347-15.229-21.454v-20.295c8.858-3.106 15.229-11.547 15.229-21.453 0-2.154-.322-4.27-.912-6.297 10.23-.873 20.091-2.475 29.548-4.798-6.846 7.013-11.859 15.853-14.124 25.754zm-42.64-20.174c1.792.019 3.594.024 5.399-.003 1.052.015 2.104.023 3.154.023.753 0 1.492-.018 2.24-.025 1.478 1.435 2.335 3.396 2.335 5.522 0 4.262-3.468 7.73-7.729 7.73-4.263 0-7.73-3.468-7.73-7.73 0-2.125.855-4.083 2.331-5.517zm5.393 60.986h.006.003c4.26.003 7.725 3.471 7.725 7.732 0 4.251-3.45 7.711-7.696 7.73-.011 0-.021-.002-.032-.002-.012 0-.023.002-.035.002-4.248-.018-7.699-3.478-7.699-7.73 0-4.262 3.467-7.73 7.728-7.732zm154.974-151.946c5.511 3.11 11.795 4.807 18.221 4.807.33 0 .658-.014.987-.023 2.758 5.617 5.55 11.219 8.271 16.675.415.832.835 1.676 1.253 2.514-6.677-5.673-15.313-9.107-24.74-9.107h-11.479c2.742-4.773 5.236-9.74 7.487-14.866zm22.229-10.567c-1.284.248-2.633.374-4.008.374-4.669 0-9.074-1.422-12.76-4.06 2.106-6.357 3.882-12.913 5.262-19.57 1.367-6.575 2.379-13.214 3.064-20.033 1.448-.295 2.928-.447 4.433-.447 8.093 0 15.522 4.425 19.392 11.553 1.739 3.197 2.658 6.83 2.658 10.507.001 10.626-7.562 19.737-18.041 21.676zm28.542-68.306c0 7.479-2.171 14.557-6.206 20.584-6.863-6.947-16.295-11.014-26.344-11.014-1.156 0-2.301.073-3.44.178.38-15.725.009-31.477-2.597-46.898.466-.017.932-.04 1.398-.04 20.506-.001 37.189 16.683 37.189 37.19zm-236.289-183.743-1.33 6.202c-2.548 11.88-13.216 20.502-25.366 20.502h-9.426c-12.15 0-22.818-8.623-25.366-20.504l-1.33-6.2c-1.038-4.844.152-9.832 3.267-13.685s7.742-6.062 12.696-6.062h30.894c4.954 0 9.581 2.209 12.695 6.062s4.305 8.841 3.266 13.685zm34.126-3.998c-6.354-.086-12.625.084-18.763.469-.007-4.089-.815-8.116-2.376-11.875 5.829-.289 11.65-.453 17.563-.453 5.828 0 11.698.157 17.561.446-1.52 3.656-2.332 7.564-2.383 11.537-3.838-.13-7.712-.181-11.602-.124zm53.664 30.702c-12.15 0-22.818-8.623-25.366-20.504l-1.33-6.2c-1.038-4.844.152-9.832 3.267-13.685s7.742-6.062 12.696-6.062h30.894c4.954 0 9.581 2.209 12.695 6.062s4.304 8.841 3.266 13.686l-1.329 6.201c-2.548 11.88-13.216 20.502-25.366 20.502zm32.499 80.847c12.102-11.81 19.708-25.035 22.437-38.767 19.425 18.869 32.761 43.802 38.826 72.983.987 4.685 1.81 9.708 2.417 14.734-2.998.517-6.021.855-9.041 1.012-4.958.268-10.05.042-14.999-.667-16.655-2.351-31.768-9.933-43.699-21.921-4.404-4.431-8.227-9.344-11.422-14.657 5.747-4.008 10.937-8.27 15.481-12.717zm-153.649 49.641c26.971 0 52.848-3.276 76.909-9.735 18.129-4.854 34.412-11.318 48.537-19.246 3.79 6.263 8.307 12.06 13.508 17.292 14.055 14.122 32.605 23.425 52.222 26.194 4.289.614 8.671.926 13.023.926 4.822-.002 9.576-.372 14.345-1.123 1.117 25.851-.936 52.328-9.968 76.576-3.86 10.554-8.842 20.424-14.816 29.407h-12.16c-21.107 0-38.28 17.168-38.28 38.27v6.154c-.071.035-.136.07-.208.105-46.913 23.299-111.491 23.411-158.413 0-30.729-15.332-53.366-40.896-65.465-73.924-2.593-7.094-4.727-14.616-6.341-22.355-5.229-26.13-5.213-55.607-.489-81.402 3.532 1.121 7.094 2.172 10.662 3.125 24.066 6.461 49.95 9.736 76.934 9.736zm-104.65-10.64c.466 0 .932.009 1.398.026-2.595 15.483-2.975 31.239-2.598 46.909-1.136-.105-2.278-.176-3.431-.176-10.052 0-19.485 4.066-26.348 11.008-4.038-6.029-6.211-13.105-6.211-20.578 0-20.505 16.684-37.189 37.19-37.189zm-24.029 73.309c3.866-7.124 11.3-11.548 19.398-11.548 1.5 0 2.977.151 4.422.446.357 3.522.789 6.975 1.305 10.301.513 3.312 1.104 6.586 1.761 9.735 1.399 6.706 3.172 13.26 5.261 19.573-3.686 2.635-8.088 4.055-12.749 4.055-1.375 0-2.724-.126-4.066-.385-10.426-1.927-17.993-11.039-17.993-21.665 0-3.679.919-7.311 2.661-10.512zm-1.594 105.742c-2.417-6.233-1.635-14.476 2.104-22.072 3.137-6.432 6.438-13.053 9.631-19.456 2.721-5.457 5.512-11.059 8.271-16.675.329.009.657.023.987.023 6.418 0 12.693-1.701 18.201-4.81 12.233 27.878 31.671 50.409 56.971 66.071-10.743 6.739-20.422 15.184-28.556 24.945-19.953-5.139-39.594-11.456-58.437-18.829-4.388-1.72-7.474-4.815-9.172-9.197zm54.882 106.949v-2.299c0-23.112 7.36-45.003 21.291-63.333.075-.089.148-.181.219-.273 9.41-12.316 21.559-22.483 35.287-29.577 18.276 8.578 38.624 13.844 60.685 15.726-.59 2.027-.912 4.143-.912 6.297 0 9.906 6.372 18.347 15.23 21.453v20.293c-8.861 3.105-15.234 11.548-15.234 21.456s6.374 18.35 15.234 21.456v17.653h-102.939c-15.914-.002-28.861-12.943-28.861-28.852zm286.653-14.369c0 4.84-3.938 8.778-8.778 8.778h-.504c-4.84 0-8.777-3.938-8.777-8.778v-11.06c0-4.84 3.938-8.778 8.777-8.778h.504c4.841 0 8.778 3.938 8.778 8.778zm15-7.752v-3.308c0-13.111-10.667-23.778-23.778-23.778h-.504c-13.111 0-23.777 10.667-23.777 23.778v3.308h-63.433v-24.449c0-3.003.336-5.987 1.002-8.878 3.828-16.74 18.467-29.312 35.627-30.575.921-.071 1.907-.107 2.932-.107h95.8c1.023 0 2.01.036 2.932.107.852.066 1.605.144 2.317.238 19.565 2.581 34.32 19.439 34.32 39.214v24.449h-63.438z"/></g></g></svg>