<svg id="Capa_1" enable-background="new 0 0 512 512" height="512" viewBox="0 0 512 512" width="512" xmlns="http://www.w3.org/2000/svg"><g><g><path d="m455.905 470.051-18.692-237.009h-167.145v271.458h151.579c19.966 0 35.725-15.847 34.258-34.449z" fill="#f6ca56"/><path d="m248.781 233.042h-173.994l-18.692 237.009c-1.467 18.602 14.292 34.449 34.258 34.449h158.427v-271.458z" fill="#f1b70b"/><g><path d="m364.531 504.507h-217.062c-20.141 0-36.469-16.328-36.469-36.469 0-62.22 50.439-112.659 112.659-112.659h64.682c62.22 0 112.659 50.439 112.659 112.659 0 20.141-16.328 36.469-36.469 36.469z" fill="#ff97c1"/><path d="m224.19 410.922c0-19.326 2.896-37.974 8.262-55.544h-8.793c-62.22 0-112.659 50.439-112.659 112.659 0 20.141 16.328 36.469 36.469 36.469h101.355c-15.675-27.622-24.634-59.555-24.634-93.584z" fill="#ff71a8"/></g><g><ellipse cx="256" cy="377.712" fill="#ffddcf" rx="56.209" ry="40.849"/><path d="m224.19 410.922c0-25.481 5.031-49.784 14.135-71.987-22.38 5.386-38.534 20.705-38.534 38.776 0 13.979 9.668 26.313 24.405 33.678-.001-.156-.006-.311-.006-.467z" fill="#ffcbbe"/></g><circle cx="97.913" cy="223.129" fill="#ffddcf" r="41.913"/><circle cx="414.087" cy="223.129" fill="#ffcbbe" r="41.913"/><g><path d="m409.038 223.129c1.318 93.595-59.443 154.356-153.038 153.038-93.595 1.318-154.356-59.444-153.038-153.038-1.318-93.595 59.443-154.358 153.038-153.038 93.595-1.317 154.356 59.443 153.038 153.038z" fill="#ffddcf"/><path d="m175.912 202.016c0-44.495 9.432-86.782 26.379-124.995-62.405 18.361-100.374 71.915-99.33 146.107-1.185 84.146 47.815 141.743 125.735 151.559-33.322-49.28-52.784-108.702-52.784-172.671z" fill="#ffcbbe"/></g><g><path d="m399.732 196.89-89.921-48.093c-33.621-17.982-74.002-17.982-107.623 0l-89.921 48.093c-9.626 5.149-21.267-1.826-21.267-12.744v-40.903c0-65.434 57.607-115.907 122.473-107.306l38.041 5.044c2.978.395 5.995.395 8.972 0l38.041-5.044c64.866-8.601 122.473 41.872 122.473 107.306v40.903c0 10.918-11.64 17.893-21.268 12.744z" fill="#fad989"/><path d="m223.531 37.271-10.058-1.333c-64.866-8.602-122.473 41.871-122.473 107.305v40.903c0 10.917 11.641 17.893 21.268 12.744l66.303-35.461c5.938-45.2 21.657-87.314 44.96-124.158z" fill="#f6ca56"/></g><ellipse cx="182.744" cy="278.148" fill="#ffa1ac" rx="27.03" ry="21.525"/><ellipse cx="329.257" cy="278.148" fill="#ffa1ac" rx="27.03" ry="21.525"/><circle cx="194.401" cy="230.467" fill="#c2eafb" r="28.306"/><circle cx="317.446" cy="230.467" fill="#c2eafb" r="28.306"/><path d="m351.802 466.081c7.637-2.096 13.21-9.777 12.771-18.78-.463-9.478-7.803-17.146-16.59-17.354-4.506-.107-8.618 1.686-11.709 4.685-1.894 1.837-4.831 1.837-6.725 0-3.091-2.999-7.203-4.792-11.709-4.685-8.787.208-16.127 7.876-16.589 17.354-.439 9.003 5.134 16.684 12.771 18.78 3.55.974 6.867 2.755 9.782 5.149l4.076 3.347c2.925 2.402 7.139 2.402 10.064 0l4.076-3.347c2.916-2.394 6.232-4.175 9.782-5.149z" fill="#fd5c6f"/><g fill="#ff71a8"><path d="m359.806 133.75c0-21.067 10.271-38.145 22.94-38.145 12.67 0 22.94 17.078 22.94 38.145s-10.271 27.271-22.94 27.271-22.94-6.204-22.94-27.271z"/><path d="m437.669 84.979c-19.738 9.249-40.249 7.124-45.811-4.746-5.562-11.871 5.929-28.992 25.668-38.241s30.06-2.35 35.623 9.521c5.562 11.87 4.259 24.217-15.48 33.466z"/><path d="m327.824 84.979c19.738 9.249 40.249 7.124 45.811-4.746 5.562-11.871-5.929-28.992-25.668-38.241-19.738-9.249-30.06-2.35-35.623 9.521s-4.258 24.217 15.48 33.466z"/></g><path d="m405.687 34.771c0 21.067-10.271 38.145-22.94 38.145-12.67 0-22.94-17.078-22.94-38.145s10.27-27.271 22.94-27.271c12.669 0 22.94 6.204 22.94 27.271z" fill="#ff97c1"/><path d="m327.824 83.542c19.738-9.249 40.249-7.124 45.811 4.746 5.562 11.871-5.929 28.992-25.668 38.241-19.738 9.249-30.06 2.35-35.623-9.521-5.561-11.87-4.258-24.217 15.48-33.466z" fill="#ff97c1"/><path d="m437.669 83.542c-19.738-9.249-40.249-7.124-45.811 4.746-5.562 11.871 5.929 28.992 25.668 38.241s30.06 2.35 35.623-9.521c5.562-11.87 4.259-24.217-15.48-33.466z" fill="#ff97c1"/><circle cx="382.747" cy="84.26" fill="#fff8e6" r="25.89"/></g><g><path d="m460.505 432.945c-.326-4.129-3.953-7.217-8.066-6.887-4.129.326-7.213 3.938-6.887 8.066l2.881 36.512c.506 6.446-1.729 12.714-6.292 17.65-5.12 5.538-12.589 8.713-20.492 8.713h-24.044c7.039-8.018 10.894-18.189 10.894-28.96 0-24.93-7.567-48.842-21.882-69.151-10.883-15.439-25.022-27.924-41.417-36.719 33.002-19.203 55.998-50.439 65.87-89.735 1.006.063 2.013.105 3.02.105 6.412 0 12.633-1.215 18.431-3.549l10.511 133.194c.31 3.929 3.594 6.911 7.468 6.911.198 0 .398-.008.598-.024 4.129-.326 7.213-3.938 6.887-8.066l-11.121-140.928c10.477-9.323 16.637-22.831 16.637-36.947 0-22.097-14.383-41.058-35-47.275v-32.615c0-1.801-.051-3.599-.134-5.392 1.916.306 3.779.469 5.578.469 11.409 0 20.379-6.143 25.997-18.124 4.044-8.624 7.602-23.555-7.039-35.94 14.628-12.381 11.082-27.305 7.04-35.925-3.946-8.424-9.586-13.996-16.765-16.561-8.099-2.895-17.799-1.74-28.827 3.43-.398.186-.784.387-1.177.579.005-.336.016-.669.016-1.006 0-30.253-19.072-34.77-30.44-34.77-11.326 0-30.292 4.491-30.433 34.441-17.411-6.353-36.112-8.411-54.772-5.936l-38.052 5.042c-2.317.311-4.667.312-6.998-.001l-38.039-5.04c-25.133-3.333-50.029 1.461-71.993 13.86-3.607 2.037-4.88 6.611-2.844 10.218 1.379 2.442 3.92 3.814 6.538 3.814 1.249 0 2.515-.312 3.68-.97 19.105-10.786 40.769-14.954 62.648-12.053l38.027 5.039c3.642.488 7.335.489 10.963.001l38.04-5.04c3.107-.412 6.215-.672 9.316-.795-1.344 1.954-2.43 3.927-3.284 5.748-6.51 13.899-3.982 26.533 7.047 35.921-14.643 12.379-11.088 27.315-7.044 35.946 3.612 7.697 11.238 18.148 25.999 18.148 5.492 0 11.973-1.447 19.601-5.021.398-.186.787-.383 1.18-.576-.005.335-.019.667-.019 1.003 0 30.253 19.072 34.77 30.44 34.77 8.009 0 14.629-2.105 19.656-6.242 6.904-5.641 10.514-14.785 10.76-27.171.215 2.69.334 5.407.334 8.133v41.25c0 4.046-3.2 6.495-6.196 6.744-1.283.104-2.541-.166-3.728-.798l-90.228-48.249c-35.91-19.216-78.788-19.215-114.695-.001l-90.222 48.246c-1.194.636-2.45.908-3.732.803-3.007-.255-6.2-2.703-6.2-6.744v-2.7-38.55c0-25.32 9.41-49.504 26.497-68.097 2.803-3.05 2.603-7.794-.447-10.597s-7.794-2.603-10.597.447c-19.638 21.368-30.453 49.157-30.453 78.247v32.614c-20.617 6.217-35 25.178-35 47.275 0 14.117 6.161 27.626 16.637 36.948l-16.524 209.386c-.837 10.664 2.797 20.965 10.231 29.007 7.951 8.598 19.435 13.53 31.506 13.53h331.3c12.072 0 23.555-4.932 31.506-13.53 7.435-8.042 11.068-18.343 10.231-29.01zm-67.005 35.095c0 7.74-3.013 15.016-8.484 20.487-5.254 5.255-12.234 8.261-19.703 8.473h-218.642c-15.801-.427-28.171-13.137-28.171-28.96 0-28.096 10.939-54.502 30.806-74.359 9.85-9.858 21.764-17.775 34.604-23.021 2.8 1.169 5.668 2.267 8.592 3.29-.125 1.249-.212 2.501-.212 3.761 0 13.375 6.945 25.788 19.556 34.952 11.889 8.64 27.57 13.398 44.154 13.398s32.265-4.758 44.154-13.398c12.61-9.165 19.556-21.577 19.556-34.952 0-1.259-.086-2.512-.212-3.761 2.917-1.021 5.779-2.115 8.573-3.282 39.252 16.032 65.429 54.782 65.429 97.372zm-88.814-89.682c-.508 18.09-22.145 32.702-48.686 32.702s-48.177-14.611-48.686-32.701c14.348 3.538 29.673 5.332 45.72 5.332.985 0 1.976-.007 2.966-.021 17.125.236 33.455-1.555 48.686-5.312zm47.74-308.071c-8.235-.101-17.152 1.813-25.82 5.578-.869-.521-1.689-1.054-2.448-1.599-7.556-5.394-9.012-11.064-5.028-19.57 3.584-7.637 9.172-13.64 25.662-5.913 3.932 1.84 7.5 4.057 10.687 6.566.741 2.268 1.603 4.417 2.577 6.445-2.308 2.535-4.207 5.401-5.63 8.493zm21.93 30.336c-12.043-5.924-13.443-23.513-2.423-31.24 11.815-8.892 29.459.139 29.207 14.878.246 13.454-14.888 22.753-26.784 16.362zm74.144 122.507c0 10.991-5.065 21.063-13.899 27.634-5.943 4.426-13.022 6.767-20.475 6.774 1.26-7.884 2.037-16.003 2.309-24.222.12-3.27.156-6.697.106-10.189.088-6.407-.11-12.741-.586-18.908 5.428-2.509 9.564-7.148 11.433-12.851 12.59 5.224 21.112 17.563 21.112 31.762zm-2.14-109.304c-3.404 7.263-8.618 13.117-23.612 6.817-.67-.278-1.348-.583-2.038-.907-4.597-2.151-8.733-4.792-12.302-7.854-1.123-.962-2.173-1.958-3.146-2.974 4.615-4.22 8-9.69 9.669-15.732.012-.045.024-.091.036-.137.083-.294.184-.672.273-1.107.512-2.136.794-4.337.869-6.556 5.837.382 12.234 2.078 18.373 4.951.455.214.9.428 1.321.638 15.142 7.585 14.022 15.47 10.557 22.861zm-25.646-65.045c7.318-3.431 13.177-4.403 17.417-2.888 3.319 1.186 6.01 4.064 8.229 8.801 3.209 6.845 4.396 14.113-7.469 21.173-8.677-3.763-17.59-5.665-25.815-5.566-1.426-3.102-3.326-5.97-5.633-8.506.977-2.028 1.839-4.179 2.58-6.444 3.185-2.51 6.755-4.728 10.691-6.57zm-37.964-33.781c8.019 0 15.44 2.395 15.44 19.77 0 4.976-.631 9.729-1.881 14.145-.414 1.475-.897 2.896-1.439 4.244-7.674-3.022-16.546-3.062-24.243-.013-.542-1.35-1.027-2.777-1.443-4.261-.353-1.237-.663-2.56-.946-4.029-.615-3.229-.927-6.622-.927-10.085-.001-17.376 7.42-19.771 15.439-19.771zm-37.962 104.738c-16.486 7.727-22.075 1.722-25.657-5.91-3.464-7.396-4.582-15.284 10.621-22.889.35-.179.707-.35 1.126-.551.042-.019.084-.038.126-.058 6.14-2.879 12.542-4.579 18.389-4.96.303 8.997 4.254 17.511 10.843 23.537-.971 1.014-2.008 2.001-3.121 2.946-.09.077-.179.156-.266.237-3.507 2.971-7.562 5.543-12.061 7.648zm48.107 30.941c-2.291 1.885-5.704 2.841-10.145 2.841-8.019 0-15.44-2.395-15.44-19.77 0-4.225.46-8.287 1.36-12.11 1.823-1.687 3.494-3.456 4.984-5.267 5.891 1.694 12.295 1.693 18.182.005 1.495 1.812 3.165 3.571 4.996 5.27.898 3.82 1.358 7.88 1.358 12.102 0 8.362-1.775 14.052-5.295 16.929zm-187.166 4.734c31.479-16.844 69.064-16.844 100.545.001l90.238 48.254c1.441.768 2.948 1.365 4.494 1.794.438 5.719.62 11.601.535 17.561-.001.073-.001.146 0 .218.048 3.272.016 6.476-.097 9.55-.339 10.241-1.513 20.27-3.487 29.801-8.979 43.162-34.909 76.229-73.016 93.11-5.146 2.281-10.607 4.303-16.226 6.009-16.109 4.882-33.816 7.222-52.609 6.958-.071-.001-.141-.001-.212 0-18.785.256-36.499-2.076-52.605-6.958-5.623-1.707-11.083-3.729-16.231-6.011-38.105-16.881-64.036-49.948-73.013-93.104-1.976-9.538-3.149-19.566-3.489-29.835-.112-3.046-.145-6.25-.096-9.522.001-.073.001-.146 0-.218-.085-5.962.097-11.846.535-17.567 1.547-.429 3.057-1.022 4.502-1.793zm-142.229 67.717c0-14.191 8.512-26.528 21.09-31.757 1.869 5.706 6.023 10.344 11.454 12.853-.475 6.165-.673 12.497-.585 18.901-.05 3.492-.014 6.919.105 10.161.273 8.239 1.049 16.362 2.31 24.25-7.453-.008-14.532-2.348-20.478-6.776-8.831-6.569-13.896-16.641-13.896-27.632zm6.359 265.157c-4.563-4.936-6.797-11.204-6.292-17.647l15.913-201.649c5.799 2.334 12.018 3.549 18.431 3.549 1.007 0 2.014-.04 3.021-.101 9.872 39.301 32.877 70.541 65.889 89.743-10.306 5.551-19.856 12.62-28.122 20.894-22.699 22.686-35.199 52.86-35.199 84.964 0 10.748 3.852 20.94 10.887 28.96h-24.037c-7.903 0-15.372-3.176-20.491-8.713z"/><path d="m256.626 243.838c-4.142 0-7.5 3.358-7.5 7.5s3.358 7.5 7.5 7.5c1.963 0 3.56 1.597 3.56 3.56s-1.597 3.56-3.56 3.56c-4.142 0-7.5 3.358-7.5 7.5s3.358 7.5 7.5 7.5c1.963 0 3.56 1.597 3.56 3.56s-1.597 3.56-3.56 3.56c-4.142 0-7.5 3.358-7.5 7.5s3.358 7.5 7.5 7.5c10.234 0 18.56-8.326 18.56-18.56 0-4.146-1.383-7.967-3.69-11.06 2.307-3.093 3.69-6.913 3.69-11.06 0-10.234-8.326-18.56-18.56-18.56z"/><path d="m194.4 266.27c18.609 0 33.898-13.918 35.633-32.399 4.366-3.856 15.821-12.696 28.705-12.339 8.196.227 15.938 4.247 23.045 11.945.009.097.013.199.023.295 1.689 18.531 17.002 32.499 35.645 32.499 18.637 0 33.945-13.967 35.634-32.499.11-1.05.166-2.161.166-3.302 0-19.746-16.06-35.81-35.8-35.81-14.567 0-27.122 8.748-32.71 21.262-7.857-5.974-16.42-9.131-25.588-9.384-12.848-.374-24.054 5.157-31.639 10.315-5.37-13.01-18.187-22.193-33.113-22.193-19.746 0-35.81 16.064-35.81 35.81 0 1.141.056 2.251.166 3.302 1.688 18.531 17.001 32.498 35.643 32.498zm123.05-56.61c11.469 0 20.8 9.335 20.8 20.81 0 .634-.029 1.23-.087 1.773-.004.043-.009.086-.013.129-.963 10.773-9.862 18.898-20.7 18.898-10.843 0-19.747-8.125-20.71-18.898-.004-.043-.008-.086-.013-.129-.058-.542-.087-1.139-.087-1.773 0-11.475 9.336-20.81 20.81-20.81zm-123.05 0c11.475 0 20.81 9.335 20.81 20.81 0 .634-.029 1.23-.087 1.773-.004.043-.009.086-.013.129-.947 10.597-10.044 18.898-20.71 18.898s-19.763-8.301-20.71-18.898c-.004-.043-.008-.086-.013-.129-.058-.542-.087-1.139-.087-1.773 0-11.475 9.335-20.81 20.81-20.81z"/><path d="m317.663 422.449c-12.748.302-23.248 11.058-23.903 24.486-.596 12.214 7.09 23.308 18.277 26.378 2.478.68 4.835 1.929 7.007 3.713l4.076 3.346c2.837 2.33 6.314 3.495 9.792 3.495 3.477 0 6.955-1.165 9.792-3.494l4.076-3.347c2.171-1.784 4.529-3.033 7.007-3.713 11.187-3.07 18.873-14.164 18.277-26.378-.655-13.429-11.155-24.185-23.904-24.487-5.553-.131-10.875 1.689-15.248 5.165-4.373-3.474-9.696-5.303-15.249-5.164zm23.834 17.566c1.249-1.211 3.345-2.66 6.309-2.57 4.846.115 9.007 4.7 9.276 10.222.256 5.253-2.799 9.956-7.265 11.182-4.522 1.241-8.748 3.457-12.557 6.585l-4.076 3.347c-.157.129-.387.129-.545 0l-4.075-3.346c-3.811-3.129-8.035-5.345-12.557-6.586-4.466-1.226-7.521-5.929-7.265-11.183.269-5.521 4.43-10.106 9.275-10.221.07-.002.139-.002.208-.002 2.845 0 4.883 1.39 6.102 2.572 4.815 4.672 12.358 4.672 17.17 0z"/></g></g></svg>