<svg id="Capa_1" enable-background="new 0 0 512.015 512.015" height="512" viewBox="0 0 512.015 512.015" width="512" xmlns="http://www.w3.org/2000/svg"><g><g><g><path d="m363.266 504.515h-214.517c-19.905 0-36.042-16.136-36.042-36.042 0-61.49 49.848-111.338 111.338-111.338h63.924c61.49 0 111.338 49.848 111.338 111.338 0 19.905-16.136 36.042-36.041 36.042z" fill="#fd5c6f"/><path d="m193.271 418.167c0-21.629 5.354-42.004 14.797-59.886-53.92 7.75-95.361 54.128-95.361 110.192 0 19.905 16.136 36.042 36.042 36.042h77.878c-20.725-22.808-33.356-53.103-33.356-86.348z" fill="#f6334c"/></g><path d="m56.802 103.565c-29.47 13.345-48.165 43.164-46.85 75.488.672 16.499 3.523 33.624 8.81 50.532 10.669 34.655 31.567 68.402 61.584 93.992 5.411 4.613 13.357 4.613 18.769 0 30.016-25.59 50.914-59.337 61.584-93.992 5.287-16.908 8.138-34.033 8.81-50.532 1.316-32.324-17.38-62.142-46.849-75.488-20.93-9.478-44.929-9.478-65.858 0z" fill="#fd4990"/><g><path d="m348.666 384.4c11.017-19.081-2.754-42.933-24.787-42.933h-135.743c-22.033 0-35.804 23.851-24.787 42.933 41.182 71.328 144.135 71.328 185.317 0z" fill="#f6334c"/><path d="m218.68 341.467h-30.544c-22.033 0-35.804 23.851-24.787 42.933 7.962 13.791 18.24 24.903 29.927 33.361.089-28.595 9.52-54.991 25.404-76.294z" fill="#d22239"/></g><path d="m389.356 103.565c-29.469 13.346-48.165 43.164-46.849 75.488.672 16.499 3.523 33.624 8.81 50.532 10.669 34.655 31.567 68.402 61.584 93.992 5.411 4.613 13.357 4.613 18.768 0 30.016-25.59 50.914-59.337 61.584-93.992 5.287-16.908 8.138-34.033 8.81-50.532 1.316-32.324-17.38-62.142-46.849-75.488-20.93-9.478-44.929-9.478-65.858 0z" fill="#ff71a8"/><circle cx="99.774" cy="226.436" fill="#ffddcf" r="41.422"/><circle cx="412.241" cy="226.436" fill="#ffcbbe" r="41.422"/><path d="m233.061 180.106c20.13-20.924 25.801-52 13.957-78.51-6.046-13.531-14.117-26.859-24.147-39.198-17.617-21.867-41.358-40.638-69.079-52.669-13.632-5.916-29.56.436-35.378 14.11-11.832 27.807-16.138 57.764-13.87 85.753 1.215 15.854 4.531 31.078 9.457 45.056 9.651 27.385 35.152 46.027 64.157 47.354 20.599.944 40.606-7.035 54.903-21.896z" fill="#d97c41"/><g><path d="m407.251 226.436c1.303 92.498-58.746 152.546-151.244 151.244-92.497 1.302-152.546-58.747-151.244-151.244-1.303-92.498 58.746-152.548 151.244-151.243 92.498-1.302 152.547 58.745 151.244 151.243z" fill="#ffddcf"/><path d="m189.438 197.895c0-41.718 7.92-81.585 22.338-118.182-66.913 15.543-108.093 69.956-107.012 146.724-1.245 88.441 53.601 147.21 139.268 151.057-34.473-51.336-54.594-113.116-54.594-179.599z" fill="#ffcbbe"/></g><path d="m278.954 180.106c-20.13-20.924-25.801-52-13.957-78.51 6.046-13.531 14.117-26.859 24.147-39.198 17.617-21.867 41.358-40.638 69.079-52.669 13.632-5.916 29.56.436 35.378 14.11 11.832 27.807 16.138 57.764 13.87 85.753-1.215 15.854-4.531 31.078-9.457 45.056-9.651 27.385-35.152 46.027-64.157 47.354-20.599.944-40.606-7.035-54.903-21.896z" fill="#e4996d"/><path d="m181.437 162.462c-.488 0-.982-.011-1.469-.033-13.103-.6-24.33-8.822-28.603-20.947-3.939-11.177-6.402-22.924-7.321-34.915l-.014-.172c-1.107-13.67-.211-27.458 2.602-40.829 1.462-6.951 9.557-10.179 15.402-6.143 11.243 7.765 21.383 17.152 29.986 27.831l.109.135c7.586 9.332 13.883 19.55 18.717 30.369 6.157 13.781 1.657 30.256-11.679 39.4-5.196 3.563-11.429 5.304-17.73 5.304z" fill="#ffeab7"/><path d="m330.578 162.462c.488 0 .982-.011 1.469-.033 13.103-.6 24.33-8.822 28.603-20.947 3.939-11.177 6.402-22.924 7.321-34.915l.014-.172c1.107-13.67.211-27.458-2.602-40.829-1.462-6.951-9.557-10.179-15.402-6.143-11.243 7.765-21.383 17.152-29.986 27.831l-.109.135c-7.586 9.332-13.883 19.55-18.717 30.369-6.157 13.781-1.657 30.256 11.679 39.4 5.196 3.563 11.429 5.304 17.73 5.304z" fill="#fff8e6"/><g><path d="m256.007 75.193c-84.581-1.193-142.019 48.923-150.237 128.232 14.582 7.442 31.097 11.641 48.592 11.641 40.085 0 75.02-22.036 93.36-54.654 3.63-6.456 12.941-6.456 16.571 0 18.34 32.618 53.275 54.654 93.36 54.654 17.495 0 34.009-4.199 48.592-11.641-8.218-79.309-65.656-129.423-150.238-128.232z" fill="#ff97c1"/><path d="m189.438 197.895c0-41.718 7.921-81.586 22.338-118.183-60.01 13.942-99.317 59.154-106.006 123.713 14.582 7.443 31.097 11.641 48.592 11.641 12.367 0 24.241-2.104 35.291-5.962-.127-3.723-.215-7.455-.215-11.209z" fill="#ff71a8"/></g><g fill="#ffa1ac"><ellipse cx="175.2" cy="289.728" rx="29.816" ry="23.744"/><ellipse cx="336.815" cy="289.728" rx="29.816" ry="23.744"/></g></g><g><path d="m458.311 96.732c-11.4-5.161-23.52-7.777-36.023-7.777-2.282 0-4.569.108-6.851.293-.724-23.486-5.828-46.944-14.935-68.335-3.596-8.466-10.295-15.013-18.865-18.437-8.575-3.424-17.947-3.295-26.395.369-27.922 12.123-52.796 31.088-71.908 54.812-2.798 3.434-5.498 7.013-8.06 10.68-6.296-.505-12.751-.73-19.266-.643-6.577-.089-13.034.136-19.269.639-2.559-3.663-5.253-7.235-8.031-10.644-19.138-23.756-44.012-42.721-71.937-54.846-8.444-3.661-17.816-3.792-26.392-.367-8.57 3.423-15.27 9.971-18.862 18.43-9.111 21.398-14.215 44.86-14.939 68.336-2.282-.184-4.569-.288-6.851-.288-12.504 0-24.624 2.617-36.025 7.778-32.574 14.756-52.686 47.189-51.239 82.626.507 12.484 2.208 25.065 5.055 37.394.801 3.468 3.887 5.814 7.301 5.813.559 0 1.127-.062 1.695-.194 4.036-.932 6.552-4.959 5.62-8.996-2.638-11.421-4.213-23.072-4.683-34.628-1.196-29.301 15.462-56.131 42.439-68.352 9.442-4.275 19.481-6.442 29.837-6.442 2.32 0 4.648.123 6.966.348.094 1.982.219 3.943.376 5.863 1.228 16.09 4.543 31.893 9.855 46.974.371 1.051.767 2.091 1.18 3.116-2.097 5.562-3.911 11.367-5.416 17.354-.97-.058-1.94-.094-2.911-.094-26.98 0-48.93 21.945-48.93 48.92s21.95 48.92 48.93 48.92c.974 0 1.949-.037 2.922-.095 2.257 8.99 5.212 17.63 8.854 25.794-5.429 5.993-11.229 11.638-17.301 16.813-2.619 2.232-6.421 2.232-9.04.001-24.286-20.702-43.294-47.686-54.97-78.035-1.488-3.866-5.831-5.793-9.693-4.307-3.866 1.487-5.794 5.827-4.307 9.693 12.572 32.677 33.056 61.746 59.24 84.065 4.128 3.518 9.188 5.277 14.25 5.277 5.061 0 10.122-1.759 14.25-5.277 5.157-4.396 10.123-9.112 14.862-14.067 9.351 15.951 21.487 29.471 36.217 40.344-2.549 5.758-3.545 12.048-2.883 18.278-4.294 3.266-8.374 6.815-12.164 10.604-22.445 22.445-34.807 52.289-34.807 84.033 0 24.008 19.532 43.54 43.54 43.54h155.017c4.142 0 7.5-3.358 7.5-7.5s-3.358-7.5-7.5-7.5h-155.016c-15.737 0-28.54-12.803-28.54-28.54 0-27.738 10.801-53.814 30.413-73.427 2.131-2.13 4.376-4.164 6.702-6.108 20.782 35.365 57.599 56.455 98.685 56.455 41.091 0 77.911-21.095 98.692-56.466 23.385 19.645 37.108 48.743 37.108 79.546 0 7.618-2.97 14.784-8.363 20.177s-12.559 8.363-20.177 8.363h-25.808c-4.142 0-7.5 3.358-7.5 7.5s3.358 7.5 7.5 7.5h25.807c11.625 0 22.558-4.53 30.784-12.757s12.756-19.159 12.756-30.783c0-37.189-17.477-72.205-46.971-94.635.661-6.233-.338-12.521-2.886-18.277 14.732-10.874 26.869-24.395 36.223-40.351 4.739 4.956 9.703 9.676 14.861 14.072 4.128 3.518 9.188 5.277 14.249 5.277s10.122-1.759 14.251-5.278c29.627-25.254 52.314-59.878 63.873-97.458 5.349-17.101 8.426-34.752 9.145-52.463 1.446-35.439-18.666-67.873-51.241-82.63zm-43.563 129.702c.108-8.079-.242-16.08-1.04-23.772-.337-3.275-.786-6.799-1.354-10.144 18.655.064 33.813 15.253 33.813 33.917 0 18.661-15.153 33.848-33.804 33.917 1.731-10.837 2.543-22.203 2.385-33.918zm-53.536-209.828c4.749-2.06 10.026-2.13 14.86-.199 4.829 1.929 8.602 5.612 10.625 10.376 9.409 22.098 14.188 46.597 13.821 70.868-.048 3.834-.225 7.648-.528 11.373-.808 10.588-2.617 21.032-5.359 31.194-5.534-9.896-12.148-18.945-19.789-27.043.232-1.959.438-3.923.592-5.881l.002-.022c.011-.092.02-.184.028-.276 1.156-14.373.236-28.832-2.738-42.983-1.211-5.727-5.185-10.44-10.629-12.608-5.443-2.168-11.565-1.476-16.376 1.847-9.976 6.88-19.061 14.936-27.072 23.992-8.369-2.92-17.179-5.175-26.328-6.763.877-1.138 1.764-2.269 2.669-3.38 17.619-21.875 40.52-39.336 66.222-50.495zm-.379 83.683c-8.318-6.633-17.458-12.312-27.346-16.982 6.293-6.578 13.232-12.524 20.753-17.711.938-.649 1.848-.44 2.307-.256.459.183 1.267.657 1.501 1.767 2.297 10.929 3.224 22.065 2.785 33.182zm-104.93-17.595h.209c7.525-.108 14.966.218 22.115.961 14.27 1.474 27.732 4.644 40.022 9.423 16.733 6.481 31.33 15.908 43.389 28.023 11.644 11.672 20.804 25.738 27.227 41.81 4.472 11.115 7.711 23.887 9.294 36.069-8.432 3.761-17.32 6.312-26.497 7.599-4.595.653-9.307.985-14.004.985-35.928 0-69.196-19.475-86.821-50.824-3.051-5.43-8.594-8.671-14.829-8.671-6.234 0-11.778 3.241-14.828 8.669-17.626 31.351-50.894 50.826-86.822 50.826-14.155 0-27.756-2.885-40.506-8.585.515-3.81 1.153-7.652 1.958-11.515 1.795-8.614 4.267-16.873 7.348-24.546.03-.074.059-.148.086-.224 6.406-15.97 15.535-29.966 27.138-41.607 12.06-12.106 26.656-21.53 43.395-28.013 12.314-4.789 25.774-7.958 40.027-9.42 7.053-.743 14.485-1.07 22.099-.96zm-101.938-15.578c.236-1.119 1.043-1.593 1.503-1.776.458-.184 1.368-.393 2.311.259 7.52 5.187 14.471 11.123 20.769 17.7-9.896 4.671-19.042 10.352-27.366 16.986-.439-11.115.488-22.249 2.783-33.169zm-28.644-40.339c2.021-4.758 5.793-8.441 10.623-10.37 4.833-1.931 10.111-1.861 14.857.197 25.705 11.161 48.605 28.622 66.252 50.528.894 1.097 1.773 2.215 2.642 3.344-9.139 1.586-17.949 3.842-26.328 6.767-8.011-9.055-17.096-17.111-27.068-23.989-4.815-3.326-10.938-4.018-16.38-1.849-5.444 2.168-9.418 6.881-10.631 12.618-2.972 14.142-3.893 28.601-2.736 42.974.008.092.017.184.028.276l.002.023c.154 1.956.36 3.917.592 5.872-7.645 8.107-14.258 17.158-19.787 27.049-2.744-10.165-4.553-20.616-5.364-31.232-.301-3.686-.478-7.5-.526-11.354-.367-24.251 4.412-48.75 13.824-70.854zm-59.474 199.658c0-18.658 15.148-33.843 33.795-33.917-1.792 11.22-2.532 22.438-2.376 33.921-.158 11.715.655 23.081 2.385 33.912-18.651-.068-33.804-15.255-33.804-33.916zm278.537 148.831c-.478 1.856-1.221 3.665-2.21 5.376-.045.078-.088.156-.13.235-18.008 31.012-50.151 49.518-86.036 49.518s-68.027-18.504-86.036-49.516c-.042-.08-.086-.158-.131-.236-.989-1.712-1.733-3.521-2.213-5.389-.967-3.732-.853-7.618.265-11.263 4.491 2.604 9.152 4.984 13.936 7.101 20.235 8.956 42.213 12.663 64.202 13.689 21.691 1.012 43.315-.435 64.263-6.474 6.782-1.955 13.436-4.354 19.889-7.213 4.786-2.118 9.449-4.498 13.939-7.102 1.117 3.645 1.231 7.534.262 11.274zm-1.441-28.182c-5.897 3.91-12.232 7.373-18.833 10.294-20.338 9.001-42.632 12.579-64.763 12.837-21.223.248-42.394-1.988-62.458-9.234-3.036-1.096-6.034-2.298-8.986-3.605-6.598-2.92-12.934-6.383-18.832-10.293-18.079-11.983-32.178-28.144-41.903-48.028-5.057-10.361-8.877-21.68-11.358-33.653-2.541-12.174-3.733-25.249-3.542-38.863-.056-3.973.002-7.946.187-11.887 13.301 5.249 27.348 7.913 41.903 7.913 41.34 0 79.619-22.406 99.898-58.476.473-.842 1.214-1.019 1.751-1.019.538 0 1.278.177 1.752 1.021 20.278 36.068 58.557 58.474 99.897 58.474 5.401 0 10.824-.382 16.102-1.132 8.87-1.244 17.504-3.537 25.798-6.8.184 3.925.243 7.907.191 11.907.19 13.614-1.002 26.689-3.544 38.874-2.479 11.962-6.3 23.282-11.354 33.637-9.727 19.889-23.826 36.049-41.906 48.033zm151.621-168.333c-.666 16.399-3.517 32.749-8.484 48.629-10.741 34.923-31.793 67.059-59.276 90.486-2.62 2.232-6.422 2.232-9.041 0-6.072-5.175-11.872-10.82-17.301-16.813 3.642-8.165 6.598-16.808 8.855-25.797.973.059 1.947.098 2.921.098 26.98 0 48.93-21.945 48.93-48.92s-21.95-48.92-48.93-48.92c-.97 0-1.94.042-2.909.102-1.504-5.982-3.315-11.793-5.41-17.364.41-1.025.803-2.066 1.174-3.116 5.311-15.078 8.626-30.881 9.851-46.932.158-1.937.281-3.906.376-5.889 2.319-.229 4.647-.361 6.969-.361 10.355 0 20.395 2.167 29.835 6.441 26.977 12.223 43.636 39.052 42.44 68.356z"/><path d="m284.919 261.142c-4.142 0-7.5 3.358-7.5 7.5 0 3.835-3.12 6.956-6.956 6.956s-6.956-3.12-6.956-6.956c0-4.142-3.358-7.5-7.5-7.5s-7.5 3.358-7.5 7.5c0 3.835-3.12 6.956-6.956 6.956s-6.956-3.12-6.956-6.956c0-4.142-3.358-7.5-7.5-7.5s-7.5 3.358-7.5 7.5c0 12.106 9.849 21.956 21.956 21.956 5.533 0 10.59-2.062 14.456-5.451 3.865 3.39 8.923 5.451 14.456 5.451 12.106 0 21.956-9.849 21.956-21.956 0-4.142-3.358-7.5-7.5-7.5z"/><path d="m194.485 235.562c-11.726 0-21.265 9.54-21.265 21.265 0 4.142 3.358 7.5 7.5 7.5s7.5-3.358 7.5-7.5c0-3.455 2.811-6.265 6.265-6.265s6.265 2.811 6.265 6.265c0 4.142 3.358 7.5 7.5 7.5s7.5-3.358 7.5-7.5c0-11.726-9.539-21.265-21.265-21.265z"/><path d="m317.53 235.562c-11.726 0-21.265 9.54-21.265 21.265 0 4.142 3.358 7.5 7.5 7.5s7.5-3.358 7.5-7.5c0-3.455 2.811-6.265 6.265-6.265s6.265 2.811 6.265 6.265c0 4.142 3.358 7.5 7.5 7.5s7.5-3.358 7.5-7.5c0-11.726-9.54-21.265-21.265-21.265z"/></g></g></svg>