<svg id="Capa_1" enable-background="new 0 0 511.946 511.946" height="512" viewBox="0 0 511.946 511.946" width="512" xmlns="http://www.w3.org/2000/svg"><g><g><circle cx="88.894" cy="225.59" fill="#ffddcf" r="44.297"/><g><path d="m365.829 504.446h-219.712c-20.105 0-36.404-16.299-36.404-36.404v-1.563c0-62.109 50.349-112.458 112.458-112.458h67.605c62.109 0 112.458 50.349 112.458 112.458v1.563c-.001 20.106-16.299 36.404-36.405 36.404z" fill="#5d6a85"/><path d="m182.663 417.693c0-21.842 5.118-42.486 14.206-60.812-49.925 11.478-87.157 56.19-87.157 109.599v1.563c0 20.105 16.299 36.404 36.404 36.404h67.498c-19.341-23.631-30.951-53.835-30.951-86.754z" fill="#475066"/></g><circle cx="423.052" cy="225.59" fill="#ffcbbe" r="44.297"/><g><path d="m417.716 225.589c1.393 98.919-62.824 163.136-161.743 161.743-98.919 1.392-163.136-62.825-161.743-161.743-1.393-98.919 62.824-163.138 161.743-161.743 98.919-1.392 163.136 62.824 161.743 161.743z" fill="#ffddcf"/><path d="m168.808 181.292c0-37.074 6.274-72.678 17.785-105.833-58.413 22.626-93.394 76.852-92.362 150.13-1.331 94.529 57.258 157.362 148.786 161.537-46.342-55.853-74.209-127.587-74.209-205.834z" fill="#ffcbbe"/></g><path d="m298.89 67.725c-17.554 7.019-30.912 23.869-31.062 45.262-.002.228-.002.456-.002.684 0 60.066 55.328 108.759 123.579 108.759 9.03 0 17.831-.86 26.311-2.479-.917-80.757-46.363-137.337-118.826-152.226z" fill="#475066"/><g><path d="m255.973 63.847c-98.918-1.396-163.136 62.824-161.743 161.742-.057 4.081.008 8.096.171 12.056 8.401 1.713 18.291 1.06 28.142-2.405.115-.04.229-.081.344-.122 3.2-1.149 6.66-1.266 9.932-.341 26.299 7.437 57.38 6.665 87.982-4.102 65.676-23.105 104.27-83.471 86.202-134.83-4.451-12.651-11.751-22.695-21.202-30.312-9.543-1.251-19.493-1.832-29.828-1.686z" fill="#5d6a85"/><path d="m168.808 181.292c0-37.074 6.274-72.678 17.785-105.833-58.413 22.626-93.394 76.852-92.362 150.13-.057 4.081.008 8.096.171 12.056 8.401 1.713 18.291 1.06 28.142-2.405.115-.04.229-.081.344-.122 3.2-1.149 6.66-1.266 9.932-.341 12.818 3.625 26.774 5.293 41.256 4.811-3.453-18.909-5.268-38.39-5.268-58.296z" fill="#475066"/></g><g><path d="m428.142 163.322c-23.628 66.959-64.405 9.536-131.363-14.092s-134.743-4.514-111.115-71.472 90.62-83.826 157.578-60.198 108.528 78.803 84.9 145.762z" fill="#e4996d"/><path d="m252.428 83.751c0-28.864 10.178-55.348 27.136-76.069-42.173 2.465-77.937 24.833-93.901 70.076-20.089 56.929 25.903 51.644 81.282 63.303-9.258-17.036-14.517-36.559-14.517-57.31z" fill="#d97c41"/></g></g><g><path d="m431.744 174.545c1.206-2.702 2.364-5.594 3.47-8.728 11.978-33.95 8.796-67.019-9.206-95.621-16.375-26.017-44.882-47.222-80.271-59.71-35.388-12.487-70.892-13.87-99.968-3.892-30.203 10.365-52.6 32.138-65.086 63.144-19.755 8.135-36.932 19.795-51.086 34.705-2.852 3.004-2.728 7.751.276 10.603 1.451 1.377 3.308 2.061 5.163 2.061 1.985 0 3.966-.783 5.44-2.336 9.81-10.335 21.272-18.93 34.188-25.687-2.52 12.308-1.448 21.985 3.219 29.852 9.736 16.408 31.921 19.999 60.008 24.545 17.368 2.812 37.053 5.998 56.392 12.822.577.204 1.147.419 1.72.628-2.683 5.891-6.009 11.665-9.953 17.235-15.546 21.974-39.603 39.531-67.738 49.437-6.898 2.428-13.959 4.365-20.996 5.759-7.872 1.569-15.826 2.49-23.649 2.739-13.526.44-26.585-1.087-38.805-4.541-.036-.01-.155-.042-.192-.052-.244-.065-.481-.126-.726-.18-4.524-1.086-9.221-.835-13.588.727-.011.004-.1.035-.11.039l-.196.069c-6.106 2.151-12.433 3.12-18.323 2.845-.026-1.782-.011-3.615.004-5.529-.208-14.543 1.071-28.564 3.805-41.678 3.249-15.652 8.584-30.151 15.858-43.097 2.029-3.611.747-8.183-2.865-10.212-3.611-2.03-8.184-.747-10.212 2.865-6.955 12.377-12.288 26.001-15.906 40.574-1.172-.079-2.345-.134-3.518-.134-28.562 0-51.8 23.233-51.8 51.79 0 28.562 23.237 51.8 51.8 51.8 1.172 0 2.342-.056 3.51-.138 9.601 38.777 30.829 69.679 61.966 90.278-32.449 22.231-52.157 59.082-52.157 98.949v1.57c0 24.207 19.693 43.9 43.9 43.9h156.74c4.142 0 7.5-3.358 7.5-7.5s-3.358-7.5-7.5-7.5h-156.74c-15.936 0-28.9-12.964-28.9-28.9v-1.57c0-37.309 19.718-71.611 51.716-90.461 25.209 12.924 54.456 19.256 87.044 18.822 1.068.015 2.134.022 3.195.022 31.31 0 59.477-6.34 83.852-18.842 31.996 18.85 51.713 53.151 51.713 90.459v1.57c0 15.936-12.964 28.9-28.9 28.9h-28.105c-4.142 0-7.5 3.358-7.5 7.5s3.358 7.5 7.5 7.5h28.105c24.207 0 43.9-19.693 43.9-43.9v-1.57c0-39.866-19.7-76.723-52.146-98.954 31.132-20.595 52.353-51.493 61.945-90.263 1.172.08 2.347.128 3.522.128 28.562 0 51.8-23.237 51.8-51.8 0-25.595-18.672-46.895-43.109-51.042zm-191.455-45.872c-23.26-3.766-43.348-7.017-49.505-17.393-3.796-6.397-3.157-16.546 1.953-31.027 10.401-29.476 30.423-50.041 57.901-59.471 11.28-3.871 23.72-5.796 36.832-5.796 16.984 0 35.097 3.23 53.277 9.646 69.354 24.473 100.882 77.932 80.323 136.194-5.109 14.48-10.982 22.783-17.952 25.381-11.303 4.215-28.985-5.861-49.457-17.528-15.833-9.023-33.779-19.25-54.385-26.522-20.607-7.271-40.997-10.571-58.987-13.484zm105.944 53.038c19.66 11.204 36.032 20.534 50.904 20.534 3.828 0 7.559-.619 11.219-1.983.214-.08.419-.178.631-.262.511 4.474.847 9.053 1.053 13.62-9.997 1.412-20.216 1.685-30.468.786-30.438-2.685-58.507-15.932-77.929-36.579 3.165-4.958 5.923-10.048 8.248-15.232 13.171 5.92 25.292 12.819 36.342 19.116zm-170.203 65.302c7.417-.327 14.923-1.197 22.362-2.59 11.415 3.583 19.271 14.16 19.271 26.264 0 15.191-12.359 27.55-27.55 27.55s-27.55-12.359-27.55-27.55c0-9.779 5.125-18.708 13.467-23.674zm-123.937-21.426c0-20.286 16.508-36.79 36.8-36.79.161 0 .322.011.483.013-1.92 11.774-2.82 24.103-2.644 36.785-.164 12.261.687 24.91 2.625 36.781-.155.002-.31.012-.465.012-20.29-.002-36.799-16.51-36.799-36.801zm354.317 41.795c-8.717 41.994-31.836 74.331-66.859 93.516-39.876 21.843-93.07 24.671-136.43 12.461-10.661-3.002-21.005-7.139-30.724-12.46-35.021-19.19-58.145-51.528-66.871-93.518-1.427-6.87-2.452-14.018-3.079-21.353 7.402.153 15.164-1.104 22.588-3.719.022-.008.123-.043.145-.051l.229-.081c1.626-.582 3.381-.669 5.075-.256.077.019.103.025.181.042l.181.048c7.826 2.208 15.943 3.702 24.269 4.494-4.827 6.972-7.551 15.346-7.551 24.181 0 23.462 19.088 42.55 42.55 42.55 22.798 0 41.462-18.024 42.5-40.571 4.776-8.597 13.398-13.691 23.36-13.691 9.96 0 18.582 5.092 23.358 13.687 1.035 22.551 19.701 40.579 42.503 40.579 23.464 0 42.553-19.089 42.553-42.553s-19.089-42.553-42.553-42.553c-17.435 0-32.446 10.544-39.014 25.586-7.362-6.198-16.762-9.746-26.847-9.746-10.083 0-19.484 3.545-26.846 9.74-2.395-5.507-5.926-10.434-10.344-14.465 1.508-.484 3.016-.972 4.511-1.499 27.874-9.814 52.172-26.558 69.389-47.6 21.826 22.13 52.498 36.28 85.576 39.197 4.383.384 8.806.579 13.145.579 6.295 0 12.592-.411 18.816-1.207-.001 13.467-1.268 26.462-3.811 38.663zm-112.129 3.306c0-15.193 12.36-27.553 27.553-27.553s27.553 12.36 27.553 27.553-12.36 27.553-27.553 27.553-27.553-12.36-27.553-27.553zm128.772-8.302c-.161 0-.322-.01-.483-.013 1.919-11.773 2.82-24.103 2.644-36.788.158-11.934-.647-24.229-2.509-35.909.24-.29.484-.571.721-.871 20.12.201 36.428 16.619 36.428 36.781-.001 20.292-16.509 36.8-36.801 36.8z"/><path d="m190.112 284.516c4.142 0 7.5-3.358 7.5-7.5v-12.656c0-4.142-3.358-7.5-7.5-7.5s-7.5 3.358-7.5 7.5v12.656c0 4.142 3.358 7.5 7.5 7.5z"/><path d="m329.334 277.016v-12.656c0-4.142-3.358-7.5-7.5-7.5s-7.5 3.358-7.5 7.5v12.656c0 4.142 3.358 7.5 7.5 7.5s7.5-3.358 7.5-7.5z"/><path d="m278.264 293.521c-3.124-2.721-7.861-2.396-10.582.727-2.956 3.392-7.224 5.337-11.709 5.337-4.486 0-8.753-1.945-11.709-5.337-2.722-3.123-7.459-3.449-10.582-.727-3.123 2.721-3.448 7.458-.727 10.582 5.805 6.662 14.195 10.483 23.018 10.483s17.213-3.821 23.018-10.483c2.721-3.124 2.396-7.861-.727-10.582z"/></g></g></svg>