<svg id="Capa_1" enable-background="new 0 0 512.002 512.002" height="512" viewBox="0 0 512.002 512.002" width="512" xmlns="http://www.w3.org/2000/svg"><g><g><g><path d="m366.222 504.502h-220.443c-20.105 0-36.404-16.299-36.404-36.404v-1.939c0-62.109 50.349-112.458 112.458-112.458h68.336c62.109 0 112.458 50.349 112.458 112.458v1.939c-.001 20.105-16.299 36.404-36.405 36.404z" fill="#78cbed"/><path d="m290.169 353.701h-68.336c-39.438 0-74.129 20.306-94.204 51.028 22.991 32.959 57.042 64.886 102.167 93.05 5.437 3.393 11.373 5.631 17.469 6.722h17.472c6.096-1.091 12.032-3.329 17.469-6.722 45.126-28.164 79.176-60.09 102.167-93.05-20.075-30.722-54.766-51.028-94.204-51.028z" fill="#34b6e2"/></g><circle cx="88.504" cy="197.881" fill="#ffddcf" r="44.408"/><circle cx="423.497" cy="197.881" fill="#ffcbbe" r="44.408"/><path d="m418.148 197.88c1.396 99.166-62.981 163.543-162.147 162.147-99.166 1.396-163.544-62.982-162.147-162.147-1.397-99.166 62.981-163.545 162.147-162.147 99.165-1.396 163.543 62.981 162.147 162.147z" fill="#ffddcf"/><path d="m173.246 200.517c0-58.89 15.791-114.087 43.355-161.607-76.452 14.075-123.949 73.644-122.747 158.97-1.184 84.072 44.913 143.131 119.399 158.314-25.486-46.159-40.007-99.219-40.007-155.677z" fill="#ffcbbe"/><path d="m93.949 187.771c2.568.306 5.177.481 7.827.481 36.232 0 65.604-29.372 65.604-65.604 0-20.057-9.01-37.999-23.193-50.033-30.595 26.572-48.674 66.286-50.238 115.156z" fill="#f1b70b"/><path d="m367.812 72.615c-14.182 12.034-23.192 29.976-23.192 50.033 0 36.232 29.372 65.604 65.604 65.604 2.651 0 5.259-.175 7.827-.481-1.562-48.87-19.642-88.583-50.239-115.156z" fill="#f6ca56"/><g><path d="m282.205 447.78c90.104-56.236 136.059-127.472 137.961-191.981.245-8.302-8.214-14.025-15.867-10.799-90.544 38.157-206.052 38.157-296.597 0-7.654-3.225-16.112 2.497-15.867 10.799 1.902 64.51 47.857 135.745 137.961 191.981 16.024 10.001 36.385 10.001 52.409 0z" fill="#fd5c6f"/><path d="m180.023 266.553c-25.157-4.769-49.531-11.95-72.321-21.554-7.654-3.225-16.112 2.497-15.867 10.799 1.902 64.51 47.857 135.745 137.961 191.981 16.024 10.001 36.385 10.001 52.41 0 1.246-.777 2.479-1.559 3.708-2.342-53.036-45.494-91.125-107.91-105.891-178.884z" fill="#f6334c"/></g><g><path d="m256.001 22.706-.005-.004c-31.857-23.05-76-19.64-103.397 8.567-13.323 13.718-24.637 30.545-33.672 50.109-3.538 7.661 2.253 16.243 10.685 15.891.062-.003.125-.005.187-.008 32.418-1.289 62.402 13.03 86.374 37.96 22.069 22.951 57.586 22.951 79.655 0 23.973-24.931 53.956-39.249 86.374-37.96l.213.009c8.344.338 14.184-8.255 10.685-15.837-8.957-19.408-20.155-36.124-33.333-49.786-27.438-28.445-71.747-32.109-103.766-8.941z" fill="#fad989"/><path d="m234.348 11.606c-28.179-9.38-60.162-2.563-81.749 19.663-13.323 13.718-24.637 30.545-33.672 50.109-3.538 7.661 2.253 16.243 10.685 15.891.062-.003.125-.005.187-.008 19.838-.789 38.761 4.276 55.957 14.032 10.413-36.255 27.021-69.883 48.592-99.687z" fill="#f6ca56"/></g></g><g><path d="m475.401 197.882c0-28.623-23.282-51.91-51.9-51.91-1.185 0-2.37.056-3.553.138-4.542-18.297-11.748-34.967-21.48-49.715 3.478-5.263 4.212-12.102 1.443-18.107-9.288-20.121-20.977-37.566-34.742-51.854-14.514-15.042-34.021-24.307-54.929-26.085-19.084-1.621-38.143 3.082-54.242 13.298-24.854-15.787-56.183-18.087-83.015-5.802-3.766 1.725-5.421 6.176-3.696 9.942 1.724 3.767 6.176 5.419 9.941 3.696 23.532-10.774 51.26-7.979 72.366 7.294 2.557 1.851 6.243 1.851 8.802.001 28.939-20.934 69.341-17.464 93.973 8.066 12.598 13.075 23.338 29.133 31.921 47.727.881 1.91-.067 3.794-1.45 4.663-.627.393-1.356.579-2.062.545l-.282-.013c-5.981-.234-11.974.022-17.796.763-6.384.799-12.746 2.179-18.907 4.101-20.216 6.29-38.845 18.198-55.367 35.393-9.247 9.616-21.472 14.911-34.424 14.911s-25.177-5.295-34.422-14.909c-16.524-17.196-35.153-29.105-55.37-35.395-.001 0-.002-.001-.004-.001-7.112-2.212-14.423-3.699-21.731-4.419-.001 0-.003 0-.004-.001-.002 0-.004 0-.006 0-.003 0-.006-.001-.009-.001-.002 0-.005 0-.007 0-4.887-.49-9.877-.64-14.836-.445-.131.002-.281.007-.447.019-.745-.005-1.445-.176-2.028-.535-1.381-.861-2.306-2.758-1.397-4.723 7.747-16.789 17.267-31.528 28.297-43.807 2.768-3.082 2.514-7.823-.568-10.591-3.08-2.768-7.822-2.514-10.591.568-12.034 13.396-22.382 29.394-30.755 47.54-2.795 6.044-2.083 12.905 1.397 18.179-9.737 14.753-16.937 31.421-21.469 49.7-1.182-.083-2.366-.14-3.551-.14-28.618 0-51.9 23.287-51.9 51.91 0 27.527 21.536 50.107 48.64 51.797-.647 2.015-.967 4.152-.902 6.34 1.248 42.366 20.068 85.127 53.653 124.367-23.038 22.506-36.12 53.351-36.12 85.776v1.94c0 24.207 19.698 43.9 43.91 43.9h220.44c24.212 0 43.91-19.693 43.91-43.9v-1.94c0-32.425-13.086-63.268-36.126-85.774 7.362-8.638 14.054-17.496 20.052-26.564 2.285-3.455 1.337-8.108-2.118-10.393s-8.107-1.338-10.394 2.118c-23.461 35.471-58.22 67.726-103.311 95.869-13.508 8.431-30.962 8.429-44.468 0-83.49-52.108-132.49-119.845-134.435-185.84.045-2.928 2.552-4.709 5.458-3.667 45.34 19.107 97.628 29.206 151.211 29.206s105.871-10.1 151.211-29.206c2.902-1.041 5.413.734 5.458 3.667-.595 20.192-5.72 40.91-15.23 61.579-1.731 3.763-.085 8.217 3.679 9.949 3.764 1.731 8.216.084 9.948-3.678 10.358-22.51 15.942-45.189 16.598-67.407.064-2.188-.255-4.325-.903-6.34 27.103-1.693 48.639-24.273 48.639-51.8zm-249.576 256.26c9.166 5.72 19.671 8.581 30.176 8.581s21.01-2.86 30.175-8.581c30.532-19.056 56.558-40.002 77.812-62.577 19.871 19.652 31.143 46.445 31.143 74.597v1.94c0 15.936-12.969 28.9-28.91 28.9h-220.441c-15.941 0-28.91-12.964-28.91-28.9v-1.94c0-28.162 11.28-54.962 31.163-74.615 21.196 22.445 47.308 43.569 77.792 62.595zm140.752-348.73c5.016-.638 10.175-.858 15.258-.659l.264.013c1.276.052 2.538-.034 3.776-.231 9.922 15.002 16.969 32.274 20.954 51.447 1.659 7.949 2.803 16.422 3.348 24.771-8.731-.007-17.108-1.893-24.9-5.61-20.141-9.593-33.154-30.196-33.154-52.489 0-5.04.65-9.996 1.914-14.788 4.12-1.101 8.32-1.926 12.54-2.454zm-240.448-.876c1.242.197 2.51.281 3.792.23.063-.003.125-.006.188-.01 4.303-.175 8.629-.047 12.862.379h.007c.003 0 .005.001.007.001 5.02.494 10.046 1.409 14.991 2.728 1.264 4.792 1.903 9.75 1.903 14.789 0 22.293-13.014 42.896-33.159 52.491-7.791 3.717-16.17 5.604-24.907 5.609.583-8.481 1.7-16.851 3.36-24.776 3.977-19.159 11.025-36.431 20.956-51.441zm-74.528 93.346c0-20.352 16.553-36.91 36.9-36.91.172 0 .343.01.515.013-3.74 24.046-3.701 50.075-.01 73.794-.168.002-.337.013-.505.013-20.347 0-36.9-16.558-36.9-36.91zm59.014 40.206c-1.96-.826-4.005-1.301-6.056-1.446-2.484-12.912-3.439-26.884-3.216-40.897.145.001.292.007.437.007 11.001 0 21.566-2.379 31.396-7.069 25.334-12.066 41.705-37.985 41.705-66.031 0-2.966-.178-5.911-.529-8.825 13.006 6.034 25.212 14.936 36.414 26.594 12.101 12.583 28.167 19.514 45.236 19.514s33.135-6.93 45.238-19.516c11.2-11.655 23.404-20.557 36.411-26.591-.351 2.914-.529 5.859-.529 8.824 0 28.046 16.37 53.965 41.7 66.029 9.834 4.692 20.398 7.071 31.399 7.071.144 0 .289-.006.433-.007.237 14.013-.731 27.985-3.211 40.897-2.051.145-4.095.62-6.055 1.445-88.319 37.219-202.454 37.218-290.773.001zm312.886-3.296c-.168 0-.336-.016-.505-.019 3.693-23.647 3.725-49.961-.011-73.788.172-.002.344-.013.515-.013 20.347 0 36.9 16.558 36.9 36.91.001 20.352-16.553 36.91-36.899 36.91z"/><path d="m190.854 216.045c-.002 0-.004 0-.006 0-4.139 0-7.497 3.354-7.5 7.494l-.01 12.225c-.003 4.142 3.352 7.502 7.494 7.506h.006c4.139 0 7.497-3.354 7.5-7.494l.01-12.225c.003-4.142-3.352-7.502-7.494-7.506z"/><path d="m321.169 216.173c-.003 0-.004 0-.006 0-4.14 0-7.497 3.354-7.5 7.495l-.009 12.225c-.003 4.142 3.353 7.502 7.494 7.505h.006c4.14 0 7.497-3.354 7.5-7.495l.009-12.225c.003-4.142-3.353-7.502-7.494-7.505z"/></g></g></svg>