<svg id="Capa_1" enable-background="new 0 0 511.995 511.995" height="512" viewBox="0 0 511.995 511.995" width="512" xmlns="http://www.w3.org/2000/svg"><g><g><path d="m344.095 504.495h-218.785c-20.141 0-36.469-16.328-36.469-36.469v-.887c0-62.22 50.439-112.659 112.659-112.659h66.406c62.22 0 112.659 50.439 112.659 112.659v.887c-.001 20.141-16.328 36.469-36.47 36.469z" fill="#fed2a4"/><path d="m154.512 415.642c0-19.058 3.103-37.39 8.82-54.526-43.434 15.639-74.491 57.201-74.491 106.023v.887c0 20.141 16.328 36.469 36.469 36.469h53.874c-15.658-25.941-24.672-56.343-24.672-88.853z" fill="#ffbd86"/><circle cx="130.372" cy="372.095" fill="#ffeab7" r="15.628"/><circle cx="71.465" cy="229.678" fill="#fed2a4" r="43.279"/><circle cx="397.94" cy="229.678" fill="#ffbd86" r="43.279"/><path d="m392.726 229.678c1.361 96.644-61.38 159.384-158.024 158.024-96.644 1.36-159.385-61.38-158.024-158.024-1.361-96.644 61.38-159.387 158.024-158.024 96.644-1.36 159.385 61.379 158.024 158.024z" fill="#fed2a4"/><path d="m159.553 219.937c0-52.03 12.336-101.173 34.216-144.692-73.018 14.559-118.248 72.225-117.09 154.433-1.219 86.551 48.981 145.901 128.896 156.378-29.21-48.524-46.022-105.356-46.022-166.119z" fill="#ffbd86"/><path d="m338.186 87.385c-11.74-21.644-32.973-41.126-61.76-49.496-4.156-1.208-8.642.313-11.225 3.786-5.194 6.982-9.314 14.326-12.458 21.829-1.109-17.225-6.591-35.141-17.648-51.443-2.429-3.581-6.843-5.297-11.046-4.272-24.871 6.066-44.587 20.471-57.709 37.696-3.127 4.104-8.729 5.316-13.279 2.883-15.822-8.463-34.789-13.305-55.331-12.01-4.289.271-7.977 3.204-9.224 7.317-6.366 20.98-5.545 41.819-.06 59.972 1.399 4.628-.586 9.618-4.794 12-9.277 5.25-18.066 12.119-25.847 20.739-2.881 3.191-3.485 7.866-1.503 11.681 21.217 40.842 64.649 59.116 97.171 54.259 6.504-.971 12.274-4.696 15.905-10.178l11.08-16.727c5.82-8.786 16.81-12.576 26.808-9.244l51.595 17.19c8.768 2.921 18.433.388 24.641-6.457 10.628-11.719 29.594-9.676 37.482 4.038l.893 1.552c4.019 6.987 11.357 11.5 19.415 11.68 32.388.724 72.346-21.208 89.464-62.619 1.635-3.955.655-8.547-2.477-11.465-23.653-22.04-53.901-29.912-79.867-27.287-4.206.426-8.211-1.709-10.226-5.424z" fill="#f9ee80"/><path d="m235.266 12.323c-.059-.087-.113-.176-.172-.263-2.429-3.581-6.843-5.297-11.046-4.272-24.871 6.066-44.587 20.471-57.709 37.696-3.126 4.104-8.729 5.317-13.279 2.883-15.822-8.463-34.789-13.305-55.331-12.01-4.289.271-7.977 3.204-9.224 7.317-6.366 20.98-5.545 41.819-.06 59.972 1.398 4.628-.587 9.618-4.794 12-9.277 5.25-18.066 12.119-25.847 20.739-2.881 3.191-3.485 7.866-1.503 11.681 21.217 40.841 64.649 59.116 97.171 54.259 2.351-.351 4.605-1.067 6.698-2.091 4.301-71.384 31.812-136.499 75.096-187.911z" fill="#f6ca56"/><circle cx="167.864" cy="422.191" fill="#fff8e6" r="15.628"/><circle cx="234.702" cy="449.101" fill="#fff8e6" r="15.628"/><path d="m182.141 275.218c.007 13.518-13.748 24.482-30.723 24.491-16.974.009-30.74-10.942-30.747-24.46s13.748-24.483 30.723-24.491c16.974-.009 30.74 10.942 30.747 24.46z" fill="#ffa1ac"/><path d="m287.264 275.165c.007 13.518 13.773 24.469 30.747 24.46 16.974-.008 30.729-10.973 30.723-24.491-.007-13.518-13.773-24.469-30.747-24.461-16.974.009-30.73 10.974-30.723 24.492z" fill="#ffa1ac"/><path d="m264.824 264.111c-.009-18.619-13.499-20.362-30.138-20.354s-30.127 1.765-30.117 20.384c.009 18.619 13.506 33.706 30.144 33.697 16.64-.008 30.121-15.108 30.111-33.727z" fill="#475066"/><path d="m483.757 492.292c-6.064-62.99-29.61-129.632-71.256-185.541-24.819-33.319-72.788-33.319-97.607 0-41.646 55.908-65.192 122.55-71.256 185.541-.629 6.534 4.259 12.203 10.495 12.203h219.13c6.235 0 11.123-5.67 10.494-12.203z" fill="#c2eafb"/><path d="m363.697 281.762c-18.197 0-36.394 8.33-48.804 24.99-41.646 55.908-65.192 122.55-71.256 185.541-.629 6.534 4.259 12.203 10.495 12.203h109.565z" fill="#78cbed"/></g><g><path d="m234.7 305.339h.018c10.211-.005 19.761-4.405 26.89-12.39 6.916-7.748 10.723-17.99 10.717-28.841-.006-11.477-4.36-19.502-12.943-23.849-6.546-3.315-14.565-4-24.588-4-.036 0-.074 0-.11 0-12.213.006-37.626.019-37.613 27.888.01 22.717 16.889 41.193 37.629 41.192zm-.01-54.081h.119c6.814 0 13.673.295 17.794 2.382 2.449 1.241 4.718 3.369 4.721 10.475.004 7.159-2.449 13.851-6.907 18.844-4.245 4.756-9.824 7.377-15.707 7.38-.004 0-.006 0-.01 0-12.472-.001-22.623-11.752-22.631-26.201-.005-9.813 3.114-12.871 22.621-12.88z"/><path d="m154.676 256.098h.004c4.142-.002 7.498-3.361 7.496-7.503-.001-1.904.739-3.695 2.086-5.042 1.346-1.347 3.136-2.089 5.04-2.09h.003c1.903 0 3.692.741 5.038 2.085 1.348 1.346 2.09 3.136 2.091 5.04.002 4.141 3.359 7.497 7.5 7.497h.004c4.142-.002 7.498-3.361 7.496-7.503-.003-5.911-2.308-11.467-6.489-15.645-4.179-4.175-9.732-6.474-15.639-6.474-.004 0-.008 0-.012 0-5.911.003-11.467 2.308-15.645 6.489s-6.477 9.74-6.474 15.65c.003 4.14 3.36 7.496 7.501 7.496z"/><path d="m285.444 256.032h.004c4.142-.002 7.498-3.361 7.496-7.503-.002-3.931 3.195-7.131 7.126-7.133h.003c3.93 0 7.128 3.196 7.13 7.126.003 4.141 3.359 7.496 7.5 7.496h.005c4.142-.002 7.498-3.362 7.495-7.504-.008-12.199-9.933-22.118-22.13-22.118-.003 0-.008 0-.011 0-12.202.007-22.124 9.939-22.118 22.14.002 4.141 3.36 7.496 7.5 7.496z"/><path d="m491.223 491.573c-6.539-67.901-32.36-135.138-72.707-189.303-6.609-8.873-14.89-15.859-24.206-20.635.112-.434.223-.867.331-1.304 1.098.073 2.199.124 3.303.124 27.995 0 50.771-22.78 50.771-50.78 0-26.026-19.68-47.529-44.936-50.435 14.933-11.739 26.568-27.061 33.907-44.814 2.822-6.83 1.097-14.794-4.295-19.816-23.338-21.746-54.585-32.413-85.735-29.262-1.183.122-2.296-.468-2.877-1.539 0 0 0 0 0-.001-13.856-25.545-38.007-44.907-66.259-53.121-7.128-2.073-14.898.545-19.337 6.51-.91 1.224-1.795 2.466-2.654 3.725-3.209-11.731-8.342-22.919-15.228-33.071-4.173-6.153-11.82-9.106-19.031-7.349-24.625 6.006-46.607 20.367-61.898 40.438-.887 1.166-2.474 1.51-3.774.814-18.188-9.729-38.712-14.184-59.34-12.882-7.378.465-13.779 5.539-15.93 12.625-6.391 21.063-6.412 43.304-.062 64.319.383 1.268-.167 2.657-1.31 3.303-10.369 5.869-19.695 13.352-27.72 22.242-4.961 5.496-6.002 13.599-2.591 20.164 5.513 10.612 12.352 19.727 20.024 27.417-27.17.951-48.985 23.336-48.985 50.735 0 28 22.78 50.78 50.78 50.78 1.099 0 2.197-.048 3.292-.119 7.266 29.124 21.551 54.112 41.793 73.226-5.645 4.222-9.306 10.958-9.306 18.533 0 5.411 1.856 10.49 5.108 14.517-7.037 7.781-13.027 16.408-17.826 25.761-1.891 3.685-.437 8.206 3.249 10.096 1.097.562 2.266.829 3.418.829 2.723 0 5.351-1.488 6.679-4.078 4.616-8.997 10.477-17.241 17.452-24.564 1.656.371 3.352.569 5.051.569.032 0 .063-.003.095-.003 4.673 6.818 9.955 13.109 15.758 18.809-.961 2.539-1.491 5.288-1.491 8.16 0 12.753 10.375 23.128 23.128 23.128 6.011 0 11.492-2.306 15.609-6.078 9.002 3.952 18.423 6.813 28.139 8.579-.023.424-.037.851-.037 1.281 0 12.753 10.375 23.128 23.128 23.128 1.334 0 2.638-.127 3.911-.345-.99 6.549-1.808 13.116-2.441 19.689-.176 1.83-.067 3.653.271 5.422h-111.13c-15.974 0-28.97-12.996-28.97-28.97v-.89c0-7.308.753-14.605 2.238-21.689.85-4.054-1.748-8.029-5.802-8.879-4.054-.847-8.029 1.747-8.88 5.802-1.696 8.094-2.557 16.426-2.557 24.766v.89c0 24.245 19.725 43.97 43.97 43.97h347.948c4.976 0 9.778-2.146 13.178-5.888 3.553-3.912 5.296-9.21 4.784-14.536zm-57.508-261.898c0 19.729-16.047 35.78-35.771 35.78-.091 0-.182-.005-.273-.005 1.852-11.43 2.721-23.419 2.554-35.774.167-12.359-.703-24.352-2.554-35.774.091-.001.182-.006.273-.006 19.724-.001 35.771 16.05 35.771 35.779zm-370.759-85.067c-.54-1.039-.373-2.323.415-3.197 6.943-7.692 15.009-14.165 23.974-19.238 7.308-4.136 10.712-12.646 8.28-20.696-5.491-18.17-5.471-37.405.057-55.625.343-1.128 1.355-1.936 2.52-2.009 2.029-.128 4.056-.192 6.078-.192 15.777 0 31.305 3.874 45.244 11.33 7.827 4.184 17.407 2.103 22.781-4.952 13.215-17.346 32.223-29.76 53.52-34.954 1.158-.279 2.388.198 3.063 1.195 9.612 14.172 15.273 30.672 16.371 47.715.224 3.475 2.81 6.338 6.243 6.915 3.43.578 6.813-1.287 8.158-4.498 3.001-7.163 6.89-13.976 11.559-20.251.719-.966 1.97-1.394 3.114-1.06 24.431 7.104 45.302 23.822 57.261 45.869 3.462 6.386 10.356 10.042 17.572 9.312 26.847-2.717 53.823 6.51 74 25.312.84.782 1.104 2.033.657 3.112-15.834 38.305-52.431 58.001-80.995 58.001-.457 0-.917-.005-1.369-.015-5.327-.119-10.34-3.154-13.081-7.921l-.894-1.553c-4.97-8.639-13.503-14.206-23.411-15.273-9.915-1.068-19.432 2.554-26.128 9.937-4.209 4.641-10.772 6.361-16.714 4.38l-51.596-17.19c-13.189-4.394-27.756.631-35.432 12.218l-11.079 16.727c-2.475 3.734-6.396 6.25-10.761 6.902-28.47 4.248-69.475-11.933-89.407-50.301zm8.509 120.847c-19.729 0-35.78-16.051-35.78-35.78s16.051-35.78 35.78-35.78c.081 0 .162 0 .243.001-3.549 23.628-3.549 47.93 0 71.558-.081 0-.162.001-.243.001zm16.421 5.007c-4.908-23.952-5.052-53.074-.819-77.334 17.878 11.752 37.915 17.457 55.88 17.456 3.995 0 7.892-.282 11.634-.841 8.56-1.279 16.232-6.183 21.05-13.454l11.08-16.727c3.939-5.948 11.416-8.525 18.184-6.271l51.597 17.191c11.582 3.858 24.365.509 32.566-8.534 3.437-3.789 8.321-5.646 13.41-5.1 5.085.548 9.465 3.405 12.015 7.838l.894 1.553c5.342 9.288 15.208 15.203 25.748 15.439 13.492.306 27.671-2.9 41.093-9.15 2.17 11.711 3.19 24.147 3.01 37.041-.001.07-.001.141 0 .211.199 14.236-1.05 27.924-3.715 40.692-.409 1.974-.857 3.919-1.329 5.837-26.422-6.801-54.836 3.491-71.303 25.961-17.322 23.255-31.958 48.922-43.548 76.012-9.774 1.426-20.019 2.074-30.519 1.924-.07 0-.142-.001-.214 0-31.273.445-59.058-5.957-82.45-19.025-1.281-.717-2.543-1.454-3.757-2.176-.009-.005-.018-.011-.027-.017-.003-.002-.006-.004-.009-.005-4.206-2.54-8.288-5.335-12.136-8.31-.041-.033-.082-.066-.123-.098-24.617-19.054-41.287-46.753-48.212-80.113zm41.209 93.615c2.969 2.21 6.047 4.321 9.215 6.316.011.055.031.109.041.165.007.038.015.076.021.115.088.446.132.925.132 1.422 0 3.737-2.522 6.979-6.158 7.891-.624.159-1.288.239-1.973.239-1.289 0-2.519-.293-3.674-.882-2.749-1.39-4.456-4.167-4.456-7.248 0-4.045 2.999-7.383 6.852-8.018zm38.769 66.242c-4.481 0-8.128-3.646-8.128-8.128s3.646-8.128 8.128-8.128 8.128 3.646 8.128 8.128-3.646 8.128-8.128 8.128zm22.809-4.32c.206-1.24.319-2.511.319-3.808 0-12.753-10.375-23.128-23.128-23.128-4.401 0-8.519 1.237-12.025 3.379-3.856-3.877-7.448-8.055-10.735-12.516 3.616-2.987 6.265-7.025 7.539-11.603 23.122 11.215 49.6 16.906 78.91 16.905 1.047 0 2.097-.007 3.15-.021 8.255.114 16.362-.243 24.248-1.045-4.402 11.689-8.245 23.597-11.497 35.655-3.658-2.427-8.042-3.843-12.751-3.843-6.806 0-12.934 2.956-17.169 7.651-9.292-1.415-18.284-3.977-26.861-7.626zm44.029 31.23c-4.481 0-8.128-3.646-8.128-8.128s3.646-8.128 8.128-8.128c4.425 0 8.029 3.555 8.12 7.959-.258 1.198-.513 2.396-.759 3.596-1.296 2.772-4.104 4.701-7.361 4.701zm240.635 38.792c-.403.444-1.091.974-2.074.974h-102.066v-134.742c0-4.142-3.357-7.5-7.5-7.5s-7.5 3.358-7.5 7.5v134.742h-102.065c-.983 0-1.671-.53-2.074-.974-.715-.787-1.062-1.884-.954-3.011 6.277-65.219 31.068-129.776 69.805-181.779 8.403-11.349 21.227-19.486 35.289-21.408v39.269c0 4.142 3.357 7.5 7.5 7.5s7.5-3.358 7.5-7.5v-39.269c13.875 2.012 26.458 9.552 35.289 21.408 38.736 52.003 63.527 116.561 69.805 181.779.107 1.127-.24 2.224-.955 3.011z"/></g></g></svg>