<svg id="Capa_1" enable-background="new 0 0 512.001 512.001" height="512" viewBox="0 0 512.001 512.001" width="512" xmlns="http://www.w3.org/2000/svg"><g><g><path d="m238.768 172.558h-199.031c4.488 90.382 2.981 180.988-4.56 271.218l-2.906 34.764c-1.168 13.971 9.781 25.96 23.708 25.96h182.789z" fill="#f6ca56"/><path d="m271.675 172.558h186.527v331.943h-186.527z" fill="#f9ee80"/><g><path d="m375.972 504.501h-257.863c-21.287 0-38.543-17.256-38.543-38.543v-18.967c0-63.365 51.368-114.733 114.733-114.733h105.483c63.365 0 114.733 51.368 114.733 114.733v18.967c0 21.286-17.256 38.543-38.543 38.543z" fill="#5d6a85"/><path d="m163.585 388.482c0-16.436 2.454-32.297 7.003-47.246.489-1.606-1.045-3.091-2.639-2.567-51.323 16.87-88.382 65.175-88.382 122.143 0 24.128 19.56 43.688 43.688 43.688h84.268c1.831 0 2.757-2.193 1.485-3.51-28.12-29.151-45.423-68.806-45.423-112.508z" fill="#475066"/></g><circle cx="59.617" cy="188.964" fill="#ffddcf" r="49.691"/><circle cx="434.465" cy="188.964" fill="#ffcbbe" r="49.691"/><g><path d="m428.479 188.964c1.563 110.964-70.474 183.001-181.438 181.438-110.964 1.562-183.001-70.475-181.438-181.438-1.563-110.964 70.474-183.003 181.438-181.438 110.964-1.562 183.001 70.473 181.438 181.438z" fill="#ffddcf"/><path d="m160.851 164.398c0-53.925 11.598-105.14 32.433-151.291-79.863 18.86-128.975 84.029-127.681 175.857-1.448 102.833 60.32 172.224 157.694 180.599-39.429-58.623-62.446-129.205-62.446-205.165z" fill="#ffcbbe"/></g><g><path d="m103.281 102.348c33.716-11.849 70.222-12.304 104.728-3.001 12.188 3.286 25.33 5.077 39.032 5.077s26.844-1.791 39.032-5.077c34.506-9.303 71.011-8.849 104.728 3.001 8.991 3.16 17.418 6.615 25.242 10.322-25.022-66.45-86.16-106.311-169.002-105.144-82.843-1.169-143.981 38.693-169.002 105.144 7.823-3.707 16.251-7.163 25.242-10.322z" fill="#f9ee80"/><path d="m193.269 13.14c-55.387 13.092-95.993 48.439-115.23 99.53 7.823-3.707 16.251-7.163 25.242-10.322 20.814-7.315 42.692-10.282 64.505-9.297 5.479-27.893 14.089-54.664 25.483-79.911z" fill="#f6ca56"/></g><path d="m115.33 371.845c-22.15 23.095-35.764 54.44-35.764 88.967v2.074c0 22.983 18.632 41.615 41.615 41.615h55.812z" fill="#78cbed"/><path d="m268.559 451.964h-43.036c-8.631 0-15.628-6.997-15.628-15.628v-4.41c0-8.631 6.997-15.628 15.628-15.628h43.036c8.631 0 15.628 6.997 15.628 15.628v4.41c0 8.631-6.997 15.628-15.628 15.628z" fill="#c2eafb"/><path d="m187.417 242.857c.008 15.334-15.595 27.772-34.85 27.781-19.255.01-34.87-12.413-34.878-27.746-.008-15.334 15.595-27.772 34.85-27.782 19.255-.009 34.871 12.413 34.878 27.747z" fill="#ffa1ac"/><path d="m306.664 242.797c.008 15.334 15.623 27.756 34.878 27.746s34.858-12.448 34.85-27.781c-.008-15.334-15.623-27.756-34.878-27.747-19.255.01-34.858 12.448-34.85 27.782z" fill="#ffa1ac"/><path d="m281.209 230.258c-.011-21.121-15.312-23.097-34.187-23.088-18.874.009-34.174 2.002-34.163 23.122s15.32 38.234 34.194 38.224c18.875-.008 34.167-17.137 34.156-38.258z" fill="#475066"/><path d="m502.022 492.297c-6.064-62.99-29.61-129.632-71.256-185.541-24.819-33.319-72.788-33.319-97.607 0-41.646 55.908-65.192 122.55-71.256 185.541-.629 6.534 4.259 12.203 10.495 12.203h219.13c6.235.001 11.123-5.669 10.494-12.203z" fill="#a57cd2"/><path d="m381.962 281.767c-18.197 0-36.394 8.33-48.804 24.99-41.646 55.908-65.192 122.55-71.256 185.541-.629 6.533 4.259 12.203 10.495 12.203h109.565z" fill="#8c5ac5"/></g><g><path d="m247.039 276.017h.019c22.98-.012 41.665-20.541 41.652-45.763-.007-12.609-4.761-21.409-14.131-26.155-7.246-3.67-16.208-4.429-27.43-4.429-.043 0-.087 0-.13 0-11.282.005-20.285.766-27.556 4.457-9.365 4.755-14.111 13.56-14.104 26.169.013 25.216 18.707 45.723 41.68 45.721zm-20.784-58.515c4.889-2.482 12.872-2.828 20.772-2.832h.14c7.854 0 15.772.348 20.635 2.811 2.919 1.479 5.904 4.153 5.908 12.781.009 16.951-11.951 30.747-26.66 30.755-.004 0-.007 0-.012 0-14.702-.001-26.67-13.783-26.679-30.729-.004-8.627 2.978-11.304 5.896-12.786z"/><path d="m321.995 218.526h.014c4.136 0 7.492-3.349 7.5-7.486l.025-13.693c.008-4.142-3.344-7.506-7.486-7.514-.005 0-.009 0-.014 0-4.136 0-7.492 3.349-7.5 7.486l-.025 13.693c-.008 4.143 3.343 7.506 7.486 7.514z"/><path d="m162.582 217.202h.017c4.135 0 7.491-3.347 7.5-7.483.011-4.707 3.843-8.528 8.547-8.528h.019c4.713.01 8.538 3.853 8.528 8.566-.009 4.142 3.342 7.507 7.484 7.516h.016c4.135 0 7.491-3.348 7.5-7.484.027-12.983-10.513-23.569-23.496-23.598-.017 0-.033 0-.051 0-12.96 0-23.519 10.529-23.547 23.495-.009 4.141 3.341 7.507 7.483 7.516z"/><path d="m509.487 491.579c-4.806-49.903-20.038-99.439-43.784-143.698v-111.009c16.11-10.511 25.948-28.473 25.948-47.91 0-31.537-25.652-57.194-57.183-57.194-1.555 0-3.103.083-4.644.207-3.96-16.12-9.727-31.328-17.809-45.703-13.319-23.736-31.938-43.476-54.793-57.875-30.363-19.132-68.461-28.947-110.181-28.372-41.721-.59-79.818 9.239-110.182 28.37-23.642 14.896-42.755 35.504-56.152 60.341-7.361 13.64-12.751 28.133-16.448 43.24-1.539-.128-3.086-.209-4.639-.209-31.537 0-57.194 25.657-57.194 57.194 0 21.828 12.687 41.852 32.03 51.357.397 24.054.385 48.37-.071 72.373-.078 4.142 3.215 7.562 7.356 7.641.049.001.097.001.146.001 4.076 0 7.418-3.265 7.496-7.357.426-22.457.452-45.179.136-67.716 4.81.862 9.844 1.11 14.747.704 5.747 23.526 15.408 44.652 28.797 62.866 11.116 15.123 24.601 27.977 40.215 38.382-33.429 21.846-56.258 58.826-60.37 98.599-1.083 11.287-1.929 23.125 2.145 33.939 2.386 6.504 6.118 12.358 10.844 17.246l-29.916-.002c-4.583 0-8.822-1.865-11.938-5.251-3.162-3.437-4.689-7.906-4.3-12.583l2.909-34.758c2.697-32.251 4.649-65.032 5.803-97.431.147-4.14-3.089-7.615-7.229-7.762-4.122-.157-7.615 3.088-7.762 7.228-1.146 32.162-3.083 64.701-5.76 96.714l-2.909 34.761c-.731 8.78 2.261 17.523 8.209 23.988 5.903 6.415 14.277 10.094 22.976 10.094l435.548.005c4.976 0 9.778-2.146 13.178-5.888 3.551-3.909 5.294-9.206 4.781-14.532zm-72.707-189.303c-5.73-7.693-12.718-13.964-20.546-18.61 5.769-11.73 10.328-24.382 13.586-37.718 1.543.125 3.092.208 4.649.208 5.514 0 10.986-.825 16.234-2.374v78.602c-4.427-6.876-9.067-13.589-13.923-20.108zm-2.311-155.509c23.26 0 42.183 18.928 42.183 42.194 0 15.471-8.443 29.68-22.039 37.085-6.129 3.343-13.095 5.109-20.144 5.109-.539 0-1.075-.022-1.611-.042 4.33-27.02 4.383-56.908.018-84.317.529-.019 1.06-.029 1.593-.029zm-190.986-131.767c1.146 0 2.298.008 3.452.024.07.002.141.002.211 0 69.709-.976 124.028 27.769 152.411 79.654.649 1.188 1.277 2.393 1.899 3.602-2.683-1.034-5.407-2.038-8.168-3.008-34.341-12.069-72.088-13.164-109.167-3.167-11.86 3.197-24.336 4.819-37.08 4.819s-25.22-1.622-37.08-4.819c-37.079-9.998-74.829-8.901-109.167 3.167-2.759.97-5.482 1.973-8.162 3.007.295-.572.584-1.157.884-1.72 27.631-52.203 81.093-81.559 149.967-81.559zm-198.922 213.385c-16.23-6.193-27.136-22.036-27.136-39.424 0-23.266 18.929-42.194 42.194-42.194.531 0 1.059.016 1.588.036-4.373 27.202-4.315 57.424.013 84.318-5.707.227-11.384-.709-16.659-2.736zm32.819 7.636c-7.217-37.775-6.302-81.107 6.639-117.861 6.844-3.13 14.145-6.064 21.75-8.737 31.467-11.059 66.146-12.041 100.288-2.835 13.133 3.541 26.922 5.336 40.984 5.336 14.063 0 27.852-1.795 40.984-5.336 34.142-9.205 68.821-8.224 100.288 2.835 7.604 2.672 14.905 5.606 21.749 8.736 12.95 36.716 13.846 80.132 6.633 117.866-3.071 14.812-7.833 28.756-14.136 41.471-27.318-8.976-58.143 1.09-75.415 24.78-13.139 17.638-24.726 36.669-34.62 56.65-44.69 8.118-96.51 5.33-136.922-15.903-41.083-21.437-68.132-58.437-78.222-107.002zm104.395 260.975-57.423-123.534c6.439-6.183 13.541-11.651 21.199-16.288h4.817c13.506 6.857 28.252 12.104 43.892 15.568 28.111 6.214 61.481 6.759 90.552 2.735-4.848 11.086-9.187 22.416-12.983 33.927-1.784-.393-3.616-.602-5.478-.602h-38.63c-6.771 0-13.132 2.641-17.887 7.41-4.8 4.771-7.443 11.138-7.443 17.93 0 13.961 11.363 25.32 25.33 25.32h31.249c-1.98 10.657-3.499 21.379-4.533 32.118-.176 1.829-.067 3.65.27 5.417h-72.932zm-60.594 0c-18.808 0-34.109-15.298-34.116-34.196-.45-27.852 9.014-55.607 26.319-77.347l51.849 111.543zm140.901-52.535h-34.362c-5.696 0-10.33-4.629-10.33-10.32 0-2.768 1.071-5.357 3.042-7.315 1.944-1.951 4.533-3.025 7.288-3.025h38.63c.346 0 .688.023 1.029.057-1.957 6.82-3.723 13.692-5.297 20.603zm231.519 51.566c-.403.444-1.091.974-2.074.974h-102.065v-134.742c0-4.142-3.357-7.5-7.5-7.5s-7.5 3.358-7.5 7.5v134.742l-102.103-.005c-.962-.014-1.639-.531-2.037-.969-.715-.787-1.062-1.884-.954-3.011 1.275-13.251 3.328-26.472 6.094-39.569.01-.048.021-.096.03-.144 2.235-10.564 4.939-21.045 8.099-31.391.055-.161.102-.323.146-.486 12.193-39.727 31.047-77.447 55.436-110.189 8.403-11.349 21.227-19.486 35.289-21.408v39.269c0 4.142 3.357 7.5 7.5 7.5s7.5-3.358 7.5-7.5v-39.269c13.875 2.012 26.458 9.552 35.289 21.408 38.736 52.002 63.527 116.56 69.805 181.779.108 1.127-.24 2.224-.955 3.011z"/></g></g></svg>