<svg id="Capa_1" enable-background="new 0 0 512 512" height="512" viewBox="0 0 512 512" width="512" xmlns="http://www.w3.org/2000/svg"><g><g><circle cx="93.316" cy="230.614" fill="#ffddcf" r="43.132"/><circle cx="418.684" cy="230.614" fill="#ffcbbe" r="43.132"/><path d="m251.281 154.297c-15.935 1.767-17.554 12.127-36.432 12.127-20.637 0-20.637-12.388-41.275-12.388-7.096 0-12.595 10.196-18.733 14.843-3.771 2.855-7.356 6.003-10.798 9.337-23.086 22.359-37.808 53.499-41.707 87.367-.162 1.412-.387 2.908-.685 4.502-4.3 23.054-15.147 20.526-19.447 43.58-4.299 23.051 6.549 25.579 2.25 48.631-.268 1.439-.641 2.854-1.099 4.245-4.652 14.125 4.702 29.11 18.167 29.11l108.866 20.013c13.545 2.49 27.213 3.86 40.893 4.126z" fill="#af602d"/><path d="m428.255 363.766c-9.315-21.122 6.093-27.057 1.794-50.112-4.299-23.051-15.147-20.523-19.446-43.574-.297-1.592-.522-3.087-.684-4.497-3.901-33.868-18.62-65.009-41.706-87.368-3.442-3.334-7.027-6.482-10.798-9.336-6.138-4.647-11.637-14.844-18.734-14.844-20.64 0-20.64 12.388-41.279 12.388-17.973 0-20.3-9.39-34.228-11.818v265.135c12.946-.358 25.876-1.7 38.697-4.05l109.323-20.038c14.456 0 23.723-17.015 17.249-31.463-.063-.141-.126-.281-.188-.423z" fill="#d97c41"/><g><path d="m364.899 504.5h-217.798c-20.141 0-36.469-16.328-36.469-36.469v-.379c0-62.22 50.439-112.659 112.659-112.659h65.418c62.22 0 112.659 50.439 112.659 112.659v.379c0 20.141-16.328 36.469-36.469 36.469z" fill="#5d6a85"/><path d="m179.444 404.85c0-15.037 2.112-29.58 6.05-43.351-43.627 15.535-74.862 57.194-74.862 106.154v.379c0 20.141 16.328 36.469 36.469 36.469h67.916c-22.229-27.138-35.573-61.835-35.573-99.651z" fill="#475066"/></g><path d="m234.852 504.5h42.296l16.066-149.399c-1.589-.066-3.185-.108-4.79-.108h-64.846c-1.606 0-3.201.042-4.79.108z" fill="#fff8e6"/><g><path d="m413.489 230.614c1.356 96.317-61.172 158.845-157.489 157.489-96.317 1.356-158.845-61.172-157.489-157.489-1.356-96.317 61.172-158.847 157.489-157.489 96.317-1.356 158.845 61.171 157.489 157.489z" fill="#ffddcf"/><path d="m179.546 197.905c0-41.637 7.892-81.43 22.257-117.969-64.861 18.593-104.373 73.901-103.292 150.678-1.286 91.344 54.892 152.289 142.852 157.182-38.864-53.275-61.817-118.898-61.817-189.891z" fill="#ffcbbe"/></g><g><path d="m415.174 175.839h-318.348v-21.889c0-80.882 65.568-146.45 146.45-146.45h25.447c80.882 0 146.45 65.568 146.45 146.45v21.889z" fill="#5d6a85"/><path d="m241.723 7.52c-80.165.834-144.897 66.067-144.897 146.43v21.889h83.486c4.239-62.72 26.4-120.515 61.411-168.319z" fill="#475066"/></g><path d="m214.174 37.511h88.923v29.69h-88.923z" fill="#78cbed"/><g><path d="m397.266 213.04c-91.616-26.991-190.916-26.991-282.531 0-15.735 4.636-32.895-2.175-39.251-15.549-.081-.171-.163-.343-.244-.514-6.999-14.727 1.778-31.529 19.105-36.632 104.841-30.879 218.47-30.879 323.311 0 17.327 5.103 26.104 21.905 19.105 36.632-.081.171-.163.343-.244.514-6.357 13.374-23.517 20.185-39.251 15.549z" fill="#475066"/><path d="m179.546 197.905c0-19.198 1.686-38.002 4.902-56.279-30.469 3.8-60.634 10.04-90.104 18.72-17.327 5.103-26.104 21.905-19.105 36.632.081.171.163.343.244.514 6.357 13.373 23.517 20.184 39.251 15.548 21.256-6.262 42.929-11.052 64.821-14.409 0-.242-.009-.483-.009-.726z" fill="#303646"/></g><g><path d="m175.168 108.696h-.251c-18.893 0-34.209-15.316-34.209-34.209v-17.88c0-10.546 8.549-19.095 19.095-19.095h73.913c3.439 0 6.228 2.788 6.228 6.228v.18c0 35.774-29.001 64.776-64.776 64.776z" fill="#c2eafb"/><path d="m222.189 37.511h-62.386c-10.546 0-19.095 8.549-19.095 19.095v17.88c0 18.893 15.316 34.209 34.209 34.209h.251c6.107 0 12.009-.863 17.61-2.443 7.166-24.221 17.078-47.262 29.411-68.741z" fill="#78cbed"/></g><path d="m336.832 108.696h.251c18.893 0 34.209-15.316 34.209-34.209v-17.88c0-10.546-8.549-19.095-19.095-19.095h-73.913c-3.439 0-6.228 2.788-6.228 6.228v.18c0 35.774 29.001 64.776 64.776 64.776z" fill="#c2eafb"/><g><path d="m256 286.942c43.434 0 78.644 35.21 78.644 78.644v22.641c0 7.094-8.161 11.082-13.758 6.723l-51.767-40.32c-7.714-6.008-18.524-6.008-26.238 0l-51.767 40.32c-5.597 4.359-13.758.371-13.758-6.723v-22.641c0-43.434 35.21-78.644 78.644-78.644z" fill="#e4996d"/><path d="m199.798 310.598c-13.876 14.181-22.441 33.58-22.441 54.988v22.641c0 7.094 8.161 11.082 13.758 6.723l36.147-28.154c-10.885-17.676-20.111-36.48-27.464-56.198z" fill="#d97c41"/></g></g><g><path d="m469.32 230.61c0-17.191-8.578-32.922-22.707-42.238.958-14.717-8.496-28.465-23.943-34.242v-.18c0-42.214-17.584-82.95-48.263-111.932-2.74-4.167-6.632-7.509-11.155-9.576-27.234-21.223-59.899-32.442-94.532-32.442h-25.44c-34.638 0-67.3 11.218-94.526 32.441-4.524 2.066-8.417 5.407-11.158 9.574-30.681 28.982-48.266 69.72-48.266 111.935v.178c-15.443 5.762-24.91 19.527-23.946 34.246-14.127 9.316-22.704 25.046-22.704 42.236 0 26.839 20.99 48.856 47.415 50.526-1.271 2.301-2.687 4.228-4.204 6.284-4.029 5.46-8.595 11.649-11.063 24.874-2.455 13.155-.496 20.804 1.232 27.552 1.537 6.001 2.864 11.184 1.01 21.12-.182 1.008-.457 2.061-.844 3.229-3.125 9.498-1.564 19.904 4.177 27.838 4.96 6.854 12.353 10.873 20.375 11.106l19.007 3.494c-10.915 18.425-16.655 39.292-16.655 61.017v.38c0 24.245 19.725 43.97 43.97 43.97h217.8c24.245 0 43.97-19.725 43.97-43.97v-.38c0-21.685-5.72-42.519-16.592-60.909l19.651-3.602c8.571-.242 16.262-4.696 21.188-12.306 5.633-8.7 6.472-20.056 2.193-29.651-.079-.183-.159-.364-.246-.547-3.834-8.77-2.349-13.507-.106-20.663 2.131-6.8 4.783-15.263 2.464-27.697-2.465-13.221-7.032-19.408-11.062-24.867-1.519-2.057-2.937-3.986-4.209-6.291 26.309-1.791 47.169-23.752 47.169-50.507zm-309.668-134.204c-.001-.001-.003-.002-.004-.002-.002-.001-.003-.002-.004-.003-7.16-4.999-11.434-13.189-11.434-21.91v-17.881c0-2.088.562-4.138 1.627-5.929.001-.001.001-.003.002-.004 1.29-2.172 3.283-3.883 5.612-4.817.005-.002.01-.005.015-.007.012-.005.023-.008.035-.012 1.348-.552 2.794-.832 4.298-.832h54.37 18.26c-.125 6.706-1.401 13.26-3.795 19.486-.82 2.121-1.755 4.171-2.781 6.094-.003.005-.005.011-.008.017s-.006.01-.009.016c-9.945 18.861-29.359 30.578-50.666 30.578h-.25c-5.51 0-10.79-1.657-15.268-4.794zm87.763-51.396h17.17c.105 7.105 1.235 14.078 3.372 20.806-3.938-.166-7.926-.238-11.957-.187-4.027-.051-8.016.016-11.954.177 2.134-6.721 3.264-13.692 3.369-20.796zm35.956 19.499c-2.399-6.238-3.676-12.793-3.8-19.499h23.53 49.1c1.42 0 2.799.252 4.104.749.081.035.163.07.245.103 2.329.934 4.322 2.645 5.614 4.82 1.065 1.791 1.627 3.841 1.627 5.929v17.88c0 8.721-4.274 16.911-11.442 21.916-4.478 3.137-9.757 4.794-15.268 4.794h-.25c-21.307 0-40.721-11.717-50.683-30.611-1.026-1.923-1.962-3.973-2.777-6.081zm-40.091-49.509h25.44c22.261 0 43.618 5.138 62.947 15.01h-151.352c19.329-9.876 40.694-15.01 62.965-15.01zm-146.863 152.557.914-.267c.502-.147 1.004-.294 1.59-.457 5.475-1.59 10.876-3.065 16.053-4.386.126-.032.25-.067.374-.106 1.428-.365 2.858-.726 4.289-1.08 4.021-.996 6.472-5.063 5.476-9.084s-5.063-6.47-9.083-5.477c-1.594.396-3.186.797-4.776 1.206-.119.03-.237.063-.354.1-2.134.546-4.308 1.123-6.497 1.715.901-29.254 11.112-57.517 28.807-80.548v5.317c0 13.61 6.664 26.392 17.852 34.213 7.01 4.905 15.259 7.497 23.858 7.497h.25c25.489 0 48.823-13.292 61.872-34.947 6.11-.49 12.425-.71 18.856-.625.067.002.137.002.204 0 6.43-.085 12.746.135 18.856.625 13.049 21.655 36.382 34.946 61.872 34.946h.25c8.604 0 16.859-2.596 23.864-7.501 11.175-7.803 17.846-20.592 17.846-34.209v-5.298c17.688 23.028 27.905 51.279 28.807 80.527-2.306-.625-4.599-1.233-6.859-1.813-81.094-20.845-167.684-23.821-250.41-8.602-4.074.749-6.769 4.659-6.02 8.732.75 4.074 4.661 6.774 8.733 6.02 80.6-14.826 164.961-11.931 243.965 8.378 5.251 1.347 10.659 2.827 16.157 4.422.501.14 1.003.286 1.505.434l.873.254c11.343 3.34 18.064 13.188 15.627 22.928-.275 1.115-.671 2.218-1.201 3.327l-.223.475c-3.049 6.424-9.731 11.046-17.859 12.36-4.165.668-8.486.393-12.497-.788l-3.938-1.149c-4.258-1.211-8.201-2.28-12.042-3.267-83.351-21.565-171.466-21.566-254.815-.001-5.35 1.384-10.683 2.854-15.983 4.417-4.011 1.181-8.331 1.453-12.482.791-8.142-1.317-14.823-5.939-17.864-12.344l-.255-.543c-.506-1.061-.902-2.163-1.183-3.301-2.432-9.717 4.289-19.564 15.591-22.891zm309.574 62.948v.211c.181 12.786-.82 25.174-2.976 36.82-.013.07-.025.142-.036.214-.212 1.196-.451 2.376-.682 3.513-8.096 38.927-28.933 69.338-60.389 88.253-1.447-20.873-10.31-40.294-25.303-55.143-16.233-16.078-37.757-24.933-60.605-24.933s-44.372 8.854-60.605 24.933c-14.993 14.849-23.856 34.27-25.303 55.144-31.445-18.901-52.291-49.318-60.391-88.263-.194-.929-.38-1.875-.55-2.821-.013-.08-.026-.159-.041-.238-2.238-11.815-3.281-24.426-3.1-37.48 0-.069 0-.14 0-.209-.041-2.88-.017-5.741.061-8.569 3.656-.123 7.294-.675 10.782-1.703 5.135-1.517 10.382-2.709 15.496-4.282 80.894-20.93 166.41-20.93 247.316.004 3.729.957 7.551 1.994 11.617 3.149l3.869 1.13c3.486 1.026 7.122 1.589 10.779 1.711.078 2.824.101 5.682.061 8.559zm-181.58 148.016 22.634-17.627.441-.347c5.013-3.901 12.014-3.902 17.008-.014l23.094 17.987c-10.054 1.53-20.639 2.229-31.481 2.08-.072-.002-.144-.002-.216 0-10.843.149-21.419-.549-31.48-2.079zm49.795-29.435-.479-.374c-10.438-8.126-25.017-8.124-35.473.014l-51.757 40.311c-.135.106-.496.39-1.065.109-.573-.279-.573-.741-.573-.915v-22.641c0-.188-.001-.377.005-.565.002-.065.004-.131.004-.196.406-38.812 32.314-70.388 71.13-70.388s70.725 31.576 71.13 70.388c0 .065.002.131.004.196.007.188.005.377.005.565v22.641c0 .174 0 .636-.573.915-.568.279-.929-.003-1.069-.112zm-216.526-118.476c0-10.622 4.664-20.44 12.533-27.114 4.525 7.599 11.962 13.379 20.923 16.331-.127 3.553-.177 7.156-.127 10.786-.165 12.3.688 24.261 2.532 35.633-.074 0-.148.005-.222.005-19.651-.001-35.639-15.989-35.639-35.641zm43.84 157.54c-4.708 0-7.637-3.077-8.965-4.911-2.929-4.048-3.707-9.414-2.085-14.343.607-1.833 1.052-3.555 1.353-5.222 2.454-13.154.495-20.803-1.232-27.55-1.537-6.002-2.864-11.185-1.018-21.079 1.837-9.841 4.873-13.956 8.389-18.721.703-.952 1.423-1.933 2.147-2.968 10.409 31.577 29.372 57.075 55.734 74.867-10.102 6.872-19.177 15.297-26.76 24.868l-26.207-4.818c-.447-.082-.901-.123-1.356-.123zm16.61 79.88v-.38c0-22.45 6.977-43.864 20.182-61.934 8.413-11.547 19.26-21.374 31.548-28.643v11.156c0 6.171 3.445 11.687 8.991 14.395 2.255 1.101 4.662 1.643 7.052 1.643 3.485 0 6.933-1.152 9.815-3.4l12.935-10.073c2.179.5 4.377.954 6.582 1.374l11.266 104.832h-79.401c-15.974 0-28.97-12.996-28.97-28.97zm275.74 0c0 15.974-12.996 28.97-28.97 28.97h-79.4l4.365-40.589c.443-4.118-2.537-7.815-6.655-8.259-4.117-.447-7.816 2.537-8.259 6.655l-4.538 42.193h-28.826l-11.021-102.562c8.259.884 16.773 1.277 25.435 1.163 1.028.014 2.052.021 3.076.021 7.603 0 15.082-.403 22.36-1.184l-3.309 30.829c-.443 4.119 2.536 7.816 6.655 8.26.272.029.543.044.812.044 3.782 0 7.034-2.854 7.448-6.698l3.724-34.706c2.206-.42 4.404-.874 6.582-1.373l12.93 10.07c4.863 3.793 11.328 4.467 16.871 1.761 5.546-2.708 8.991-8.224 8.991-14.395v-11.157c12.328 7.295 23.198 17.155 31.621 28.747 13.156 18.035 20.109 39.416 20.109 61.83v.38zm26.775-132.543c-2.543 8.113-5.425 17.31.742 31.307.046.104.061.138.112.24l.043.102c.018.042.036.083.054.124 2.25 5.018 1.84 10.927-1.071 15.422-1.322 2.042-4.293 5.469-9.336 5.469-.454 0-.906.041-1.352.123l-26.844 4.92c-7.596-9.613-16.695-18.074-26.833-24.975 26.433-17.845 45.42-43.425 55.813-75.123.782 1.128 1.561 2.193 2.32 3.22 3.515 4.762 6.551 8.875 8.384 18.709 1.634 8.763-.147 14.446-2.032 20.462zm-1.965-69.237c-.076 0-.152-.004-.227-.005 1.847-11.392 2.706-23.354 2.538-35.635.049-3.628-.001-7.231-.128-10.783 8.955-2.949 16.392-8.729 20.924-16.337 7.866 6.679 12.532 16.498 12.532 27.12.001 19.652-15.987 35.64-35.639 35.64z"/><path d="m190.835 247.925c-4.142 0-7.5 3.357-7.5 7.5v12.522c0 4.143 3.358 7.5 7.5 7.5s7.5-3.357 7.5-7.5v-12.522c0-4.143-3.358-7.5-7.5-7.5z"/><path d="m321.165 247.925c-4.142 0-7.5 3.357-7.5 7.5v12.522c0 4.143 3.358 7.5 7.5 7.5s7.5-3.357 7.5-7.5v-12.522c0-4.143-3.358-7.5-7.5-7.5z"/></g></g></svg>