<svg id="Capa_1" enable-background="new 0 0 512 512" height="512" viewBox="0 0 512 512" width="512" xmlns="http://www.w3.org/2000/svg"><g><g><path d="m446.895 346.551c-21.82-47.262-43.641-94.523-65.462-141.785-41.887 31.731-88.563 48.509-135.516 50.346v174.506c68.149-1.8 136.032-24.841 197.363-69.151 4.38-3.164 5.88-9.01 3.615-13.916z" fill="#f6ca56"/><path d="m227.619 255.075c-46.622-2.031-92.939-18.799-134.535-50.309-21.82 47.262-43.641 94.523-65.462 141.785-2.265 4.906-.765 10.752 3.615 13.917 61.036 44.097 128.562 67.126 196.381 69.121v-174.514z" fill="#f1b70b"/><g><path d="m346.158 504.5h-217.798c-20.141 0-36.469-16.328-36.469-36.469v-.379c0-62.22 50.439-112.659 112.659-112.659h65.418c62.22 0 112.659 50.439 112.659 112.659v.379c0 20.141-16.328 36.469-36.469 36.469z" fill="#5d6a85"/><path d="m160.703 404.85c0-15.037 2.112-29.58 6.05-43.351-43.627 15.535-74.862 57.194-74.862 106.154v.379c0 20.141 16.328 36.469 36.469 36.469h67.916c-22.23-27.138-35.573-61.835-35.573-99.651z" fill="#475066"/></g><path d="m216.111 504.5h42.296l16.066-149.399c-1.589-.066-3.185-.108-4.79-.108h-64.846c-1.606 0-3.201.042-4.79.108z" fill="#c2eafb"/><circle cx="74.574" cy="230.614" fill="#ffddcf" r="43.132"/><circle cx="399.943" cy="230.614" fill="#ffcbbe" r="43.132"/><path d="m360.21 93.464c-1.501-15.429 7.04-31.281 21.743-39.941 7.505-4.42 15.838-8.157 24.689-10.871 15.617-4.856 32.854-6.512 49.462-3.928 8.167 1.271 12.987 8.816 10.706 16.761-4.638 16.155-13.388 31.098-24.36 43.226-6.184 6.89-13.078 12.879-20.244 17.83-14.039 9.699-32.013 10.784-45.381 2.935-9.494-5.576-15.549-15.054-16.615-26.012z" fill="#d22239"/><g><path d="m394.747 230.614c1.356 96.317-61.172 158.845-157.489 157.489-96.316 1.355-158.844-61.173-157.488-157.489-1.356-96.317 61.172-158.847 157.489-157.488 96.316-1.357 158.845 61.17 157.488 157.488z" fill="#ffddcf"/><path d="m162.213 192.27c0-39.415 7.081-77.173 20.021-112.086-64.367 18.826-103.54 73.982-102.464 150.43-1.314 93.339 57.367 154.945 148.654 157.431-41.524-54.292-66.211-122.145-66.211-195.775z" fill="#ffcbbe"/></g><g><path d="m244.245 124.674c0-18.324-3.806-35.757-10.658-51.563-94.229.266-155.156 62.416-153.817 157.503-.093 6.595.125 13.026.621 19.295 10.863 2.95 22.289 4.533 34.086 4.533 71.669 0 129.768-58.099 129.768-129.768z" fill="#fad989"/><path d="m162.213 192.27c0-39.41 7.079-77.163 20.016-112.074-64.361 18.828-103.535 73.974-102.459 150.418-.093 6.595.125 13.026.621 19.295 10.863 2.95 22.289 4.533 34.086 4.533 18.427 0 35.953-3.849 51.829-10.774-2.681-16.74-4.093-33.903-4.093-51.398z" fill="#f6ca56"/></g><path d="m237.696 73.124c-6.848 15.803-10.652 33.231-10.652 51.551 0 71.669 58.099 129.768 129.768 129.768 13.001 0 25.551-1.92 37.393-5.478.444-5.97.632-12.087.544-18.35 1.353-96.172-60.986-158.652-157.053-157.491z" fill="#fad989"/><path d="m369.841 123.694c6.338-14.147 21.609-23.688 38.671-23.929 8.709-.123 17.799.758 26.833 2.784 15.972 3.516 31.767 10.615 44.915 21.085 6.466 5.149 6.915 14.091.999 19.863-12.03 11.737-27.033 20.385-42.571 25.487-8.784 2.923-17.74 4.711-26.418 5.463-17 1.473-33.152-6.487-40.878-19.927-5.487-9.546-6.052-20.779-1.551-30.826z" fill="#f6334c"/><g><path d="m381.391 198.655h-288.265c-8.307 0-15.041-6.734-15.041-15.041v-29.664c0-80.882 65.568-146.45 146.45-146.45h25.447c80.882 0 146.45 65.568 146.45 146.45v29.664c0 8.307-6.734 15.041-15.041 15.041z" fill="#fd5c6f"/><path d="m162.213 192.27c0-68.706 21.497-132.383 58.108-184.706-78.933 2.231-142.236 66.914-142.236 146.386v29.664c0 8.307 6.734 15.041 15.041 15.041h69.167c-.041-2.125-.08-4.25-.08-6.385z" fill="#f6334c"/></g><ellipse cx="156.907" cy="305.408" fill="#ffa1ac" rx="29.648" ry="23.61"/><ellipse cx="317.61" cy="305.408" fill="#ffa1ac" rx="29.648" ry="23.61"/><g fill="#475066"><path d="m188.481 244.63h-24.814c-10.425 0-18.195 9.613-16.009 19.806l1.374 6.409c2.31 10.772 11.83 18.467 22.847 18.467h8.39c11.017 0 20.537-7.695 22.847-18.467l1.374-6.409c2.186-10.193-5.584-19.806-16.009-19.806z"/><path d="m288.732 244.63h24.814c10.425 0 18.195 9.613 16.009 19.806l-1.374 6.409c-2.31 10.772-11.83 18.467-22.847 18.467h-8.39c-11.017 0-20.537-7.695-22.847-18.467l-1.374-6.409c-2.186-10.193 5.584-19.806 16.009-19.806z"/></g></g><g><path d="m117.692 154.036c0 4.143 3.358 7.5 7.5 7.5h73.911c4.142 0 7.5-3.357 7.5-7.5s-3.358-7.5-7.5-7.5h-73.911c-4.142 0-7.5 3.358-7.5 7.5z"/><path d="m486.495 148.866c4.362-4.259 6.694-10.062 6.397-15.92-.296-5.856-3.2-11.391-7.965-15.184-9.727-7.746-21.051-13.962-33.234-18.303 10.349-12.549 18.029-26.93 22.321-41.91 1.681-5.856.834-12.051-2.324-16.994-3.156-4.941-8.417-8.312-14.434-9.247-17.178-2.667-35.45-1.224-52.814 4.173-9.222 2.834-18.068 6.729-26.295 11.577-3.737 2.203-7.195 4.874-10.28 7.891-13.156-15.633-29.442-28.668-47.561-37.987-21.883-11.255-45.543-16.962-70.319-16.962h-25.45c-35.411 0-69.987 12.319-97.358 34.688-3.207 2.621-3.683 7.347-1.061 10.554 2.621 3.208 7.346 3.682 10.553 1.062 24.7-20.187 55.904-31.304 87.865-31.304h25.45c44.425 0 85.108 20.48 111.619 56.191 8.242 11.098 14.75 23.28 19.344 36.209 2.17 6.107 3.911 12.377 5.18 18.654.8 3.907 1.442 7.941 1.907 11.989.598 5.221.901 10.572.901 15.906v29.66c0 .698-.091 1.368-.291 2.067-.337 1.223-1.003 2.354-1.944 3.289-1.414 1.415-3.301 2.193-5.315 2.193h-288.261c-4.032.091-7.639-3.493-7.54-7.55v-29.66c0-7.104.547-14.213 1.615-21.21h49.148c4.142 0 7.5-3.357 7.5-7.5s-3.358-7.5-7.5-7.5h-45.983c4.777-17.669 13.096-34.437 24.36-48.94 2.541-3.271 1.948-7.983-1.323-10.523s-7.982-1.948-10.524 1.322c-14.577 18.769-24.722 40.961-29.34 64.183-1.959 9.884-2.953 20.034-2.953 30.169v26.202c-26.057 2.043-46.64 23.885-46.64 50.458 0 19.594 10.973 36.9 28.016 45.334l-31.144 67.458c-3.771 8.156-1.239 17.89 6.025 23.146 23.271 16.816 47.85 30.846 73.173 41.811-10.249 18.019-15.63 38.338-15.63 59.291v.38c0 24.245 19.725 43.97 43.97 43.97h217.8c24.245 0 43.97-19.725 43.97-43.97v-.38c0-20.952-5.38-41.269-15.627-59.285 25.322-10.965 49.9-25.001 73.174-41.82 7.252-5.248 9.79-14.977 6.032-23.141l-31.159-67.489c16.843-8.463 28.03-26.044 28.03-45.306 0-23.199-15.69-42.79-37.012-48.754 9.384-.871 18.631-2.803 27.461-5.75 17.292-5.673 33.015-15.091 45.47-27.238zm-109.455-81.862c2.533-2.721 5.482-5.111 8.724-7.022 7.216-4.254 14.983-7.672 23.107-10.169 15.215-4.728 31.15-6.002 46.082-3.682 1.79.278 3.245 1.166 4.097 2.5.854 1.336 1.048 3.034.546 4.784-4.161 14.523-12.014 28.445-22.733 40.287-.385.43-.775.842-1.163 1.261-8.962-1.911-18.133-2.824-27.287-2.702-5.523.075-11.004 1.021-16.192 2.751-4.071-9.815-9.14-19.2-15.181-28.008zm-57.647 294.705c-14.661 8.176-31.278 13.775-49.394 16.644-21.39 3.387-44.084 3.387-65.48-.001-18.121-2.869-34.741-8.468-49.4-16.643-33.561-18.715-55.744-49.99-64.151-90.449-.791-3.795-1.449-7.712-1.992-11.708 7.043 1.323 14.191 2.111 21.359 2.324 1.377.043 2.754.064 4.141.064 8.557 0 17.037-.798 25.357-2.358-.124 2.127.032 4.286.491 6.427l1.374 6.407c3.031 14.136 15.723 24.396 30.18 24.396h8.39c14.457 0 27.149-10.26 30.18-24.395l1.375-6.409c.694-3.238.7-6.518.074-9.665 7.42-.768 16.308-1.383 26.708-1.383 10.398 0 19.282.614 26.701 1.382-.627 3.15-.612 6.426.085 9.666l1.372 6.414c3.031 14.131 15.725 24.387 30.183 24.387h8.39c14.453 0 27.143-10.256 30.172-24.382 0 0 1.38-6.409 1.381-6.413.389-1.811.559-3.638.528-5.448 6.407.909 12.89 1.374 19.389 1.374 2.546 0 5.061-.068 7.459-.201 6.02-.321 12.015-1.056 17.938-2.167 1.347-.154 2.462-.411 3.431-.689-.557 4.21-1.243 8.353-2.081 12.381-8.407 40.467-30.592 71.742-64.16 90.445zm-94.453-155.549h21.413c9.437 12.784 20.937 23.745 33.985 32.501-2.284.858-4.428 2.065-6.357 3.583-9.024-1.146-20.778-2.283-35.374-2.283-14.584 0-26.332 1.135-35.354 2.281-3.085-2.437-6.721-4.064-10.608-4.746 12.35-8.564 23.272-19.125 32.295-31.336zm95.553 49.339c.055.069.111.138.168.205 1.532 2.053 2.102 4.647 1.563 7.158l-1.381 6.414c-1.558 7.263-8.08 12.533-15.507 12.533h-8.39c-7.434 0-13.959-5.271-15.516-12.528l-1.372-6.418c-.503-2.337-.063-4.716 1.239-6.7.24-.364.512-.721.808-1.056 1.697-1.92 4.052-2.978 6.631-2.978h24.81c2.73.001 5.262 1.228 6.947 3.37zm-163.727-.073c1.693-2.094 4.208-3.295 6.901-3.295h24.813c2.693 0 5.208 1.201 6.901 3.295 1.692 2.095 2.34 4.806 1.775 7.438l-1.375 6.409c-1.558 7.267-8.082 12.54-15.513 12.54h-8.39c-7.431 0-13.955-5.273-15.513-12.541l-1.374-6.407c-.564-2.634.083-5.344 1.775-7.439zm229.272-49.753c.915 8.045 1.329 16.355 1.209 24.831-.001.07-.001.14 0 .209.057 4.124-.013 8.295-.208 12.454-7.714 1.963-15.624 3.17-23.588 3.595-2.139.118-4.375.179-6.645.179-8.92 0-17.805-.975-26.45-2.878-4.443-4.435-10.425-6.933-16.81-6.933h-4.801c-16.506-7.06-31.161-17.636-43.067-30.97h115.708c1.584 0 3.139-.171 4.652-.487zm-180.433.487c-11.736 13.135-26.149 23.614-42.33 30.659-.27.116-.542.229-.814.345-4.78.238-9.302 1.889-13.063 4.702-12.444 3.703-25.482 5.425-38.609 5.017-7.834-.232-15.64-1.217-23.272-2.932-.511-12.734-.479-25.592.953-38.271 3.143.803 117.135.48 117.135.48zm-166.658 24.45c0-19.342 15.495-35.123 34.723-35.607.281.48.584.946.9 1.404-3.274 22.621-3.279 47.092.245 69.822-3.581.024-7.169-.469-10.558-1.498-14.903-4.505-25.31-18.537-25.31-34.121zm-4.512 119.084 31.911-69.119c3.769.618 7.669.828 11.503.559 9.261 37.232 29.558 67.032 59.258 87.089-10.999 7.478-20.75 16.762-28.742 27.411-25.169-10.677-49.612-24.533-72.732-41.241-1.463-1.058-1.968-3.034-1.198-4.699zm64.951 118.336v-.38c0-21 6.169-41.269 17.844-58.616 8.847-13.157 20.66-24.226 34.32-32.218 13.674 7.119 28.752 12.266 44.941 15.351l11.266 104.833h-79.401c-15.974 0-28.97-12.996-28.97-28.97zm275.74 0c0 15.974-12.996 28.97-28.97 28.97h-79.4l5.179-48.164c.443-4.118-2.537-7.816-6.655-8.259-4.118-.442-7.816 2.537-8.259 6.655l-5.351 49.768h-28.827l-11.021-102.562c7.285.781 14.763 1.184 22.363 1.184 1.021 0 2.046-.008 3.071-.021 8.66.116 17.179-.279 25.444-1.163l-2.314 21.509c-.443 4.118 2.537 7.815 6.655 8.259.273.029.543.044.812.044 3.782 0 7.034-2.854 7.448-6.699l2.73-25.382c16.184-3.085 31.259-8.233 44.931-15.352 13.661 7.991 25.474 19.061 34.322 32.221 11.672 17.345 17.842 37.612 17.842 58.613zm63.757-113.639c-23.124 16.711-47.569 30.568-72.738 41.245-7.991-10.649-17.736-19.937-28.732-27.414 29.704-20.049 50.002-49.85 59.261-87.092 1.089.071 2.18.12 3.272.12 2.771 0 5.521-.232 8.229-.676l31.908 69.111c.768 1.669.262 3.648-1.2 4.706zm-3.307-123.781c0 15.593-10.407 29.623-25.315 34.122-3.392 1.028-6.977 1.519-10.553 1.494.882-5.464 1.559-11.051 1.979-16.723 0-.001 0-.001 0-.002s0-.003 0-.004 0-.002 0-.002c.002-.034.004-.069.006-.103.114-1.581.21-3.167.29-4.755.013-.238.032-.476.044-.714.006-.119-.001-.237 0-.355.197-4.327.277-8.664.22-12.957.161-11.745-.62-23.228-2.304-34.199.319-.461.625-.928.907-1.409 19.23.483 34.726 16.264 34.726 35.607zm-23.954-63.632c-2.583.224-5.152.183-7.686-.102v-12.926c0-5.902-.336-11.828-.999-17.615-.515-4.483-1.226-8.955-2.11-13.271-.942-4.661-2.141-9.321-3.542-13.931 3.632-1.174 7.464-1.822 11.333-1.875 8.42-.12 16.859.762 25.107 2.614.896.198 1.784.406 2.653.618 14.536 3.586 28.093 10.158 39.205 19.007 1.42 1.131 2.247 2.624 2.327 4.206.08 1.585-.593 3.158-1.892 4.426-10.824 10.555-24.542 18.759-39.708 23.736-7.952 2.656-16.262 4.375-24.688 5.113z"/><path d="m258.816 276.666c-3.122-2.722-7.859-2.397-10.582.726-2.771 3.18-6.772 5.003-10.975 5.003s-8.204-1.823-10.975-5.003c-2.723-3.124-7.459-3.448-10.582-.726s-3.447 7.459-.726 10.581c5.621 6.449 13.743 10.147 22.283 10.147s16.662-3.698 22.283-10.147c2.721-3.122 2.396-7.859-.726-10.581z"/></g></g></svg>