<svg id="Capa_1" enable-background="new 0 0 512 512" height="512" viewBox="0 0 512 512" width="512" xmlns="http://www.w3.org/2000/svg"><g><g><g><path d="m364.374 504.5h-216.748c-20.105 0-36.404-16.299-36.404-36.404v-.038c0-62.109 50.349-112.458 112.458-112.458h64.64c62.109 0 112.458 50.349 112.458 112.458v.038c0 20.105-16.299 36.404-36.404 36.404z" fill="#ffddcf"/><path d="m191.414 399.437c0-13.957 1.712-27.513 4.917-40.481-48.89 12.217-85.108 56.427-85.108 109.102v.038c0 20.105 16.299 36.404 36.404 36.404h80.653c-23.064-28.785-36.866-65.309-36.866-105.063z" fill="#ffcbbe"/></g><circle cx="98.156" cy="223.554" fill="#ffddcf" r="41.849"/><g><path d="m349.117 373.451c-17.537-11.295-38.415-17.851-60.826-17.851h-64.583c-22.41 0-43.289 6.556-60.826 17.851l7.063 42.349c1.608 9.64 1.372 19.497-.696 29.048l-12.913 59.652h199.329l-12.914-59.652c-2.068-9.551-2.304-19.409-.696-29.048z" fill="#c2eafb"/><path d="m156.336 504.5h71.943c-23.063-28.785-36.865-65.309-36.865-105.063 0-13.952 1.711-27.503 4.913-40.465-12.031 3.01-23.299 7.945-33.444 14.48l7.063 42.349c1.608 9.64 1.372 19.497-.696 29.048z" fill="#78cbed"/></g><circle cx="413.844" cy="223.554" fill="#ffcbbe" r="41.849"/><circle cx="256" cy="372.902" fill="#ffcbbe" r="57.489"/><g><path d="m408.803 223.554c1.316 93.451-59.352 154.119-152.803 152.803-93.451 1.316-154.119-59.353-152.803-152.803-1.316-93.451 59.352-154.121 152.803-152.803 93.451-1.315 154.119 59.351 152.803 152.803z" fill="#ffddcf"/><path d="m186.26 186.516c0-39.19 7.918-76.529 22.236-110.511-65.938 16.563-106.376 71.075-105.299 147.549-1.316 93.451 59.352 154.119 152.803 152.803.93.013 1.85.01 2.773.01-45.086-50.39-72.513-116.913-72.513-189.851z" fill="#ffcbbe"/></g><g><path d="m336.491 24.171c-7.356 0-14.381 1.62-20.816 4.564-7.265 3.323-15.941 1.893-21.393-3.945-10.012-10.721-23.473-17.29-38.283-17.29s-28.271 6.569-38.283 17.29c-5.452 5.839-14.128 7.269-21.393 3.945-6.435-2.944-13.46-4.564-20.816-4.564-30.931 0-56.006 28.626-56.006 63.937 0 35.312 25.075 63.937 56.006 63.937 19.748 0 37.095-11.679 47.067-29.305 9.33 7.935 20.896 12.634 33.424 12.634 12.529 0 24.095-4.699 33.425-12.634 9.972 17.627 27.32 29.305 47.067 29.305 30.931 0 56.006-28.626 56.006-63.937s-25.074-63.937-56.005-63.937z" fill="#5d6a85"/><path d="m249.159 7.991c-12.094 1.684-22.998 7.755-31.443 16.799-5.452 5.839-14.128 7.269-21.393 3.945-6.435-2.944-13.46-4.564-20.816-4.564-30.931 0-56.006 28.626-56.006 63.937 0 35.312 25.075 63.937 56.006 63.937 4.489 0 8.852-.609 13.035-1.749 6.787-53.483 28.42-102.327 60.617-142.305z" fill="#475066"/></g><g><path d="m103.692 160.217c0 9.173 6.291 17.35 15.592 20.05 8.383 2.433 13.109 6.248 27.93 6.248 21.761 0 21.761-8.224 43.522-8.224 21.758 0 21.758 8.224 43.516 8.224 21.759 0 21.759-8.224 43.517-8.224s21.758 8.224 43.515 8.224 21.757-8.224 43.515-8.224c6.621 0 11.226.762 15.043 1.821 14.232 3.951 28.466-6.226 28.466-20.21v-37.516c0-9.173-6.291-17.35-15.592-20.05-8.383-2.433-13.109-6.248-27.93-6.248-21.761 0-21.761 8.224-43.522 8.224-21.758 0-21.758-8.224-43.516-8.224-21.759 0-21.759 8.224-43.517 8.224s-21.758-8.224-43.515-8.224-21.757 8.224-43.515 8.224c-6.62 0-11.226-.762-15.043-1.821-14.232-3.951-28.466 6.226-28.466 20.21z" fill="#ff97c1"/><path d="m200.69 96.808c-2.781-.446-6.014-.72-9.975-.72-21.757 0-21.757 8.224-43.515 8.224-6.62 0-11.226-.762-15.043-1.821-14.232-3.951-28.466 6.226-28.466 20.21v37.516c0 9.173 6.291 17.35 15.592 20.05 8.383 2.433 13.109 6.249 27.93 6.249 20.199 0 21.66-7.082 39.168-8.099.795-28.444 5.765-55.84 14.309-81.609z" fill="#ff71a8"/></g><ellipse cx="172.132" cy="272.968" fill="#ffa1ac" rx="30.946" ry="24.644"/><ellipse cx="339.868" cy="272.968" fill="#ffa1ac" rx="30.946" ry="24.644"/><ellipse cx="256" cy="254.033" fill="#475066" rx="16.427" ry="18.382"/></g><g><path d="m413.84 174.21c-.692 0-1.384.037-2.076.069 2.634-4.326 4.047-9.282 4.047-14.379v-37.51c0-11.006-6.388-20.718-16.322-25.465.324-2.92.511-5.865.511-8.815 0-39.392-28.49-71.44-63.51-71.44-8.281 0-16.337 1.767-23.939 5.25-4.482 2.05-9.621 1.146-12.789-2.248-11.845-12.686-27.387-19.672-43.762-19.672s-31.917 6.986-43.758 19.667c-3.174 3.396-8.32 4.3-12.794 2.256-7.598-3.486-15.651-5.253-23.938-5.253-10.438 0-20.788 2.907-29.931 8.406-3.549 2.135-4.696 6.743-2.562 10.293 2.135 3.549 6.741 4.697 10.293 2.562 6.906-4.154 14.375-6.26 22.2-6.26 6.112 0 12.061 1.308 17.695 3.893 10.358 4.732 22.412 2.459 29.998-5.654 8.976-9.616 20.624-14.91 32.797-14.91s23.821 5.294 32.797 14.907c7.578 8.119 19.63 10.392 29.997 5.651 5.633-2.58 11.587-3.889 17.697-3.889 26.749 0 48.51 25.319 48.51 56.44 0 1.172-.042 2.343-.105 3.512-4.831-1.622-10.796-3.032-20.105-3.032-12.248 0-18.708 2.44-24.409 4.593-5.153 1.946-9.604 3.627-19.121 3.627-9.504 0-13.95-1.68-19.099-3.625-5.7-2.153-12.16-4.595-24.411-4.595-12.249 0-18.71 2.441-24.41 4.594-5.151 1.945-9.599 3.626-19.11 3.626s-13.959-1.681-19.109-3.626c-5.698-2.153-12.157-4.594-24.4-4.594-12.25 0-18.71 2.441-24.411 4.594-5.151 1.945-9.599 3.626-19.109 3.626-6.698 0-10.645-.882-13.036-1.547-2.251-.624-4.563-.976-6.879-1.08-.188-2.012-.285-4.04-.285-6.073 0-10.537 2.518-20.815 7.28-29.724 1.953-3.653.575-8.197-3.078-10.15-3.654-1.952-8.198-.575-10.15 3.078-5.924 11.078-9.054 23.802-9.054 36.797 0 3.051.192 6.094.532 9.109-9.879 4.763-16.342 14.466-16.342 25.482v37.52c0 4.955 1.349 9.786 3.846 14.031-.625-.024-1.25-.04-1.876-.04-27.212 0-49.35 22.134-49.35 49.34 0 27.212 22.138 49.35 49.35 49.35 1.003 0 2.006-.043 3.007-.106 9.845 39.234 32.805 70.422 65.761 89.594-2.76 1.483-5.473 3.058-8.11 4.756-.142.091-.27.198-.404.298-34.254 22.254-54.694 59.827-54.694 100.656 0 24.207 19.698 43.9 43.91 43.9h140.16c4.142 0 7.5-3.358 7.5-7.5s-3.358-7.5-7.5-7.5h-122.153l10.943-50.562c2.276-10.503 2.535-21.224.768-31.875l-6.241-37.356c4.159-2.413 8.486-4.517 12.915-6.325 2.299.961 4.639 1.868 7.005 2.724.382 35.51 29.373 64.284 64.972 64.284s64.59-28.773 64.972-64.284c2.366-.855 4.704-1.762 7.002-2.722 4.458 1.822 8.785 3.925 12.915 6.32l-6.239 37.368c-1.766 10.642-1.507 21.363.769 31.864l10.945 50.564h-23.418c-4.142 0-7.5 3.358-7.5 7.5s3.358 7.5 7.5 7.5h41.425c24.212 0 43.91-19.693 43.91-43.9v-.04c0-40.988-20.599-78.714-55.102-100.917-.003-.002-.006-.003-.008-.005-2.621-1.691-5.327-3.268-8.09-4.752 32.95-19.167 55.908-50.355 65.752-89.592 1.002.063 2.004.106 3.007.106 27.212 0 49.35-22.138 49.35-49.35.001-27.206-22.137-49.34-49.349-49.34zm-302.65-51.51c0-6.271 4.65-11.691 11.325-13.185 2.525-.571 5.096-.502 7.636.201 5.137 1.429 10.555 2.094 17.049 2.094 12.249 0 18.71-2.44 24.41-4.594 5.151-1.946 9.599-3.626 19.11-3.626 9.504 0 13.95 1.68 19.099 3.625 5.7 2.154 12.16 4.595 24.411 4.595 12.25 0 18.71-2.441 24.411-4.594 5.151-1.946 9.599-3.626 19.109-3.626 9.511 0 13.959 1.681 19.109 3.626 5.698 2.153 12.157 4.594 24.4 4.594 12.256 0 18.719-2.441 24.421-4.595 5.151-1.945 9.6-3.625 19.112-3.625 11.009 0 36.017 4.023 36.017 18.8v37.51c0 4.063-1.856 6.945-3.414 8.648-.061.067-.121.134-.179.203-3.828 4.047-9.831 5.671-15.366 4.133-5.135-1.429-10.553-2.094-17.051-2.094-12.251 0-18.712 2.444-24.413 4.6-5.15 1.948-9.598 3.63-19.106 3.63-9.502 0-13.948-1.682-19.096-3.629-5.701-2.157-12.162-4.601-24.415-4.601-12.251 0-18.712 2.444-24.414 4.6-5.15 1.948-9.598 3.63-19.106 3.63-9.51 0-13.957-1.683-19.106-3.63-5.699-2.156-12.158-4.6-24.403-4.6-12.257 0-18.721 2.444-24.423 4.601-5.15 1.947-9.599 3.629-19.107 3.629-9.499 0-13.943-1.68-19.089-3.625-2.08-.786-4.231-1.599-6.755-2.33-2.658-.77-4.999-2.221-6.79-4.223-2.183-2.417-3.386-5.48-3.386-8.624zm-47.38 100.85c0-18.923 15.391-34.32 34.315-34.339-1.758 10.987-2.584 22.495-2.426 34.339-.158 11.844.668 23.355 2.427 34.349-18.925-.018-34.316-15.42-34.316-34.349zm54.91 244.51c0-31.906 14.304-61.559 38.757-81.404l5.074 30.371c1.455 8.765 1.242 17.591-.631 26.236l-11.63 53.737h-2.66c-15.941 0-28.91-12.964-28.91-28.94zm137.28-45.17c-25.744 0-46.999-19.563-49.695-44.602.116 1.073 13.725 2.897 15.218 3.138 5.45.878 10.939 1.507 16.444 1.91 11.416.834 22.934.839 34.358.121 5.766-.362 11.519-.991 17.228-1.88 1.584-.247 16.018-2.13 16.143-3.283-2.7 25.036-23.954 44.596-49.696 44.596zm137.28 45.17v.04c0 15.936-12.969 28.9-28.91 28.9h-2.66l-11.63-53.738c-1.874-8.643-2.086-17.47-.633-26.227l5.08-30.427c24.455 19.836 38.753 49.514 38.753 81.452zm4.437-205.105c-8.951 43.097-34.828 76.106-72.863 92.947-.083.037-.167.076-.25.116-4.372 1.929-8.941 3.661-13.59 5.152-34.417 11.037-75.618 11.065-110.034-.001-4.642-1.489-9.21-3.221-13.582-5.149-.083-.041-.166-.079-.25-.116-38.039-16.853-63.916-49.862-72.865-92.95-2.568-12.346-3.773-25.568-3.583-39.299.001-.069.001-.139 0-.208-.18-12.945.897-25.423 3.174-37.162 1.079.454 2.182.861 3.32 1.191 1.951.565 3.735 1.239 5.625 1.953 5.696 2.153 12.153 4.593 24.392 4.593 12.25 0 18.711-2.443 24.412-4.599 5.153-1.948 9.603-3.631 19.118-3.631 9.502 0 13.948 1.682 19.096 3.629 5.701 2.157 12.162 4.601 24.414 4.601 12.25 0 18.712-2.444 24.413-4.6 5.15-1.948 9.598-3.63 19.107-3.63 9.51 0 13.958 1.683 19.107 3.63 5.699 2.156 12.158 4.6 24.403 4.6 12.251 0 18.712-2.444 24.413-4.6 5.15-1.948 9.598-3.63 19.106-3.63 6.701 0 10.646.882 13.035 1.547 6.898 1.915 14.004 1.379 20.247-1.288 2.307 11.795 3.399 24.359 3.219 37.397-.001.069-.001.139 0 .208.19 13.739-1.016 26.96-3.584 39.299zm16.157-5.056c1.758-10.988 2.584-22.499 2.426-34.349.159-11.847-.668-23.357-2.425-34.339 18.925.019 34.315 15.416 34.315 34.339 0 18.929-15.391 34.33-34.316 34.349z"/><path d="m256 228.15c-13.195 0-23.93 11.61-23.93 25.88s10.735 25.88 23.93 25.88 23.93-11.61 23.93-25.88-10.735-25.88-23.93-25.88zm0 36.76c-4.924 0-8.93-4.881-8.93-10.88 0-6 4.006-10.88 8.93-10.88s8.93 4.881 8.93 10.88-4.006 10.88-8.93 10.88z"/><path d="m193.869 221.767c-11.727 0-21.268 9.541-21.268 21.268 0 4.142 3.358 7.5 7.5 7.5s7.5-3.358 7.5-7.5c0-3.456 2.812-6.268 6.268-6.268 3.457 0 6.269 2.812 6.269 6.268 0 4.142 3.358 7.5 7.5 7.5s7.5-3.358 7.5-7.5c-.001-11.727-9.542-21.268-21.269-21.268z"/><path d="m316.945 221.767c-11.728 0-21.269 9.541-21.269 21.268 0 4.142 3.358 7.5 7.5 7.5s7.5-3.358 7.5-7.5c0-3.456 2.812-6.268 6.269-6.268s6.269 2.812 6.269 6.268c0 4.142 3.358 7.5 7.5 7.5s7.5-3.358 7.5-7.5c-.001-11.727-9.542-21.268-21.269-21.268z"/></g></g></svg>