<svg id="Capa_1" enable-background="new 0 0 512 512" height="512" viewBox="0 0 512 512" width="512" xmlns="http://www.w3.org/2000/svg"><g><g><path d="m248.205 235.103c-39.853 1.232-42.452 11.866-87.19 11.866-47.488 0-57.966-36.344-98.166-11.064-25.281 15.898 9.181 34.936 9.181 64.8s-11.983 29.864-11.983 59.728c0 29.863 11.983 29.863 11.983 59.725 0 .163-.001.327-.003.49-.277 22.016 17.29 40.088 39.307 40.088h136.87v-225.633z" fill="#475066"/><path d="m439.969 300.701c0-29.862 34.461-48.901 9.181-64.796-40.204-25.28-50.681 11.064-98.172 11.064-43.063 0-47.08-9.853-82.861-11.69v225.458h142.827c20.115 0 34.577-19.114 29.36-38.541-.047-.173-.093-.348-.139-.522-7.571-28.888 11.788-31.383 11.788-61.247-.001-29.863-11.984-29.863-11.984-59.726z" fill="#5d6a85"/><g><path d="m364.698 504.5h-217.397c-20.141 0-36.469-16.328-36.469-36.469v-.173c0-62.22 50.439-112.659 112.659-112.659h65.017c62.22 0 112.659 50.439 112.659 112.659v.173c0 20.141-16.327 36.469-36.469 36.469z" fill="#d97c41"/><path d="m170.935 410.886c0-16.494 3.062-32.27 8.635-46.803-40.398 17.119-68.737 57.137-68.737 103.775v.173c0 20.141 16.328 36.469 36.469 36.469h63.108c-24.35-23.75-39.475-56.913-39.475-93.614z" fill="#af602d"/></g><path d="m288.664 355.199h-65.328c-36.313 0-68.602 17.209-89.172 43.911 20.106 37.501 67.086 63.807 121.836 63.807s101.73-26.305 121.836-63.806c-20.57-26.702-52.859-43.912-89.172-43.912z" fill="#c2eafb"/><path d="m401.061 462.964c-2.113-50.953-38.109-93.15-86.052-104.655-2.414 7.67-3.721 15.83-3.721 24.297 0 44.656 36.201 80.857 80.857 80.857 3.015 0 5.987-.178 8.916-.499z" fill="#fff8e6"/><g><path d="m200.711 382.606c0-8.467-1.307-16.627-3.721-24.297-47.943 11.505-83.939 53.702-86.052 104.655 2.929.321 5.901.5 8.915.5 44.657-.001 80.858-36.202 80.858-80.858z" fill="#fff8e6"/><path d="m170.935 410.886c0-16.514 3.069-32.308 8.655-46.856-39.024 16.486-66.803 54.359-68.651 98.933 2.929.321 5.901.5 8.915.5 21.158 0 40.41-8.136 54.821-21.439-2.438-9.98-3.74-20.406-3.74-31.138z" fill="#ffeab7"/></g><circle cx="93.54" cy="240.977" fill="#ffddcf" r="43.073"/><circle cx="418.46" cy="240.977" fill="#ffcbbe" r="43.073"/><g><path d="m413.271 240.977c1.354 96.184-61.088 158.626-157.272 157.272-96.184 1.354-158.626-61.088-157.272-157.272-1.353-96.184 61.089-158.628 157.273-157.271 96.184-1.354 158.626 61.087 157.271 157.271z" fill="#ffddcf"/><path d="m170.643 194.27c0-34.252 5.358-67.248 15.248-98.22-55.207 22.599-88.15 74.788-87.162 144.927-1.293 91.834 55.573 152.905 144.434 157.062-45.326-55.552-72.52-126.481-72.52-203.769z" fill="#ffcbbe"/></g><g><path d="m100.134 201.977c-6.232-46.903-12.465-102.793-18.698-149.695-1.712-12.886 8.021-24.613 21.604-26.014 101.674-10.492 204.245-10.492 305.919 0 13.583 1.402 23.316 13.128 21.604 26.014-6.233 46.903-12.465 102.793-18.698 149.695z" fill="#e4996d"/><path d="m180.971 175.856v-114.618c0-16.257 6.534-30.982 17.11-41.712-31.731 1.234-63.43 3.48-95.042 6.742-13.583 1.402-23.316 13.128-21.604 26.014 6.233 46.903 12.465 102.793 18.698 149.695h86.88c-3.864-7.885-6.042-16.747-6.042-26.121z" fill="#d97c41"/></g><circle cx="320.048" cy="52.077" fill="#c2eafb" r="44.577"/><g><circle cx="191.952" cy="52.077" fill="#c2eafb" r="44.577"/><path d="m180.971 61.238c0-21.251 11.162-39.885 27.935-50.391-5.227-2.152-10.95-3.347-16.954-3.347-24.619 0-44.577 19.958-44.577 44.577 0 20.83 14.288 38.319 33.597 43.211v-34.05z" fill="#78cbed"/></g><ellipse cx="177.623" cy="296.797" fill="#ffa1ac" rx="28.919" ry="23.03"/><ellipse cx="334.376" cy="296.797" fill="#ffa1ac" rx="28.92" ry="23.03"/><g><path d="m435.551 231.648h-359.102c-12.39 0-22.434-10.044-22.434-22.434 0-12.39 10.044-22.434 22.434-22.434h359.102c12.39 0 22.434 10.044 22.434 22.434 0 12.39-10.044 22.434-22.434 22.434z" fill="#d97c41"/><path d="m181.991 186.779h-105.542c-12.39 0-22.434 10.044-22.434 22.434s10.044 22.435 22.434 22.435h143.438c-19.403-7.137-34.038-24.109-37.896-44.869z" fill="#af602d"/></g></g><g><path d="m447.469 300.7c0-9.248 3.992-17.392 8.888-26.25 8.174-9.253 12.673-21.094 12.673-33.469 0-7.708-1.771-15.3-5.126-22.184 1.036-3.071 1.586-6.322 1.586-9.587 0-16.503-13.432-29.93-29.94-29.93h-13.187c2.108-16.704 4.232-34.217 6.295-51.242 3.062-25.25 6.227-51.359 9.335-74.765 1.074-8.039-1.138-16.023-6.229-22.481-5.296-6.718-13.327-11.085-22.033-11.982-17.864-1.844-35.984-3.371-53.915-4.567-9.619-9.082-22.485-14.243-35.766-14.243-12.657 0-24.829 4.588-34.327 12.927-18.141-11.202-41.387-11.189-59.471.013-9.17-8.046-21.171-12.94-34.3-12.94-13.822 0-26.393 5.423-35.726 14.239-17.944 1.196-36.078 2.725-53.956 4.569-8.707.898-16.738 5.266-22.033 11.982-5.092 6.458-7.305 14.442-6.232 22.477 3.111 23.425 6.278 49.549 9.341 74.813 2.062 17.01 4.184 34.509 6.29 51.199h-13.186c-8 0-15.52 3.113-21.174 8.767-5.653 5.653-8.767 13.17-8.767 21.163 0 3.267.551 6.522 1.585 9.589-3.354 6.883-5.125 14.474-5.125 22.182 0 12.377 4.501 24.219 12.675 33.471 4.896 8.838 8.884 16.973 8.884 26.258 0 13.481-2.526 19.777-5.451 27.067-2.231 5.561-4.76 11.864-5.893 21.262-.496 4.112 2.436 7.848 6.548 8.344.305.036.608.055.907.055 3.741 0 6.978-2.796 7.437-6.604.897-7.438 2.852-12.312 4.922-17.472 3.061-7.628 6.529-16.273 6.529-32.652 0-4.053-.552-7.929-1.438-11.589 4.952 1.592 10.162 2.429 15.448 2.429 1.087 0 2.172-.049 3.256-.121 8.483 34.048 26.394 62.112 52.3 82.002-7.751 6.109-14.75 13.167-20.873 21.096-12.834 16.578-21.18 37.068-23.917 57.927-5.881-1.327-11.269-4.309-15.595-8.723-6.032-6.155-9.293-14.317-9.182-23.08v-.49c0-16.377-3.468-25.023-6.528-32.651-1.123-2.8-2.184-5.444-3.069-8.424-1.179-3.971-5.351-6.235-9.325-5.055-3.971 1.179-6.233 5.354-5.054 9.324 1.083 3.648 2.325 6.744 3.526 9.739 2.924 7.29 5.45 13.586 5.45 27.066v.395c-.162 12.688 4.622 24.647 13.469 33.675 6.941 7.082 15.738 11.66 25.338 13.31.001.163-.008.328-.007.491 0 24.245 19.725 43.97 43.97 43.97h217.4c24.194 0 43.883-19.643 43.966-43.76h2.274c11.879 0 22.833-5.401 30.054-14.819 7.25-9.456 9.646-21.492 6.582-33.042-.049-.204-.105-.414-.175-.664-3.415-13.072-.439-19.029 3.677-27.27 3.73-7.468 8.372-16.762 8.372-32.016 0-16.385-3.47-25.033-6.53-32.663-2.921-7.289-5.447-13.585-5.447-27.066zm-26.699-59.723c.007-.613.01-1.219.013-1.826h14.766c2.193 0 4.37-.24 6.403-.699 4.081-.881 7.899-2.614 11.25-5.064.545 2.483.827 5.028.827 7.594 0 8.942-3.332 17.491-9.382 24.074-.062.067-.124.137-.184.207-6.72 7.178-16.181 11.288-26.005 11.288-.075 0-.15-.004-.224-.005 1.841-11.381 2.704-23.303 2.536-35.569zm-125.547-216.348c3.747-3.424 8.205-6.105 13.159-7.748 3.756-1.245 7.71-1.881 11.667-1.881 10.329 0 19.917 4.145 27.002 11.674 6.492 6.891 10.068 15.913 10.068 25.406 0 18.309-13.637 34.081-31.711 36.686-10.55 1.502-21.103-1.536-29.1-8.219-8.478-7.061-13.34-17.437-13.34-28.467.001-10.56 4.675-20.525 12.255-27.451zm-103.271-9.629c20.444 0 37.077 16.633 37.077 37.077s-16.632 37.076-37.077 37.076-37.077-16.632-37.077-37.076 16.633-37.077 37.077-37.077zm-126.069 183.653c2.82-2.82 6.573-4.373 10.567-4.373h246.215c4.143 0 7.5-3.357 7.5-7.5s-3.357-7.5-7.5-7.5h-217.91c-2.179-17.215-4.381-35.373-6.518-53.004-3.067-25.307-6.24-51.475-9.363-74.988-.532-3.984.584-7.965 3.142-11.21 2.84-3.603 7.029-5.856 11.794-6.349 13.567-1.4 27.279-2.603 40.944-3.627-3.123 6.681-4.879 14.125-4.879 21.975 0 28.715 23.362 52.076 52.077 52.076s52.077-23.361 52.077-52.076c0-10.104-2.902-19.539-7.903-27.533 12.31-6.691 27.369-6.7 39.724-.007-5.124 8.198-7.881 17.69-7.881 27.543 0 15.497 6.831 30.073 18.73 39.984 9.327 7.794 21.17 12.086 33.35 12.086 2.476 0 4.993-.18 7.49-.537 25.415-3.663 44.58-25.817 44.58-51.533 0-7.695-1.684-15.168-4.854-21.976 13.659 1.023 27.364 2.226 40.925 3.626 4.766.492 8.953 2.746 11.794 6.349 2.558 3.245 3.674 7.226 3.141 11.215-3.121 23.496-6.291 49.648-9.357 74.939-2.139 17.646-4.343 35.819-6.524 53.048h-46.987c-4.143 0-7.5 3.357-7.5 7.5s3.357 7.5 7.5 7.5h75.293c8.238 0 14.94 6.697 14.94 14.93 0 2.35-.522 4.582-1.572 6.673-.711 1.436-1.653 2.746-2.801 3.894-2.028 2.027-4.563 3.415-7.397 4.027-1.019.23-2.086.347-3.17.347h-359.1c-3.985 0-7.859-1.646-10.652-4.48-1.107-1.123-2.028-2.416-2.735-3.824-1.031-2.055-1.554-4.288-1.554-6.637.001-3.988 1.554-7.737 4.374-10.558zm1.458 66.391-.044-.047c-6.015-6.574-9.327-15.101-9.327-24.017 0-2.561.282-5.102.825-7.581 3.306 2.411 7.111 4.149 11.238 5.048.05.011.1.021.15.031 2.041.445 4.148.671 6.267.671h14.766c.003.606.006 1.212.013 1.824-.168 12.27.696 24.192 2.534 35.569-.075 0-.149.006-.224.006-9.926.002-19.475-4.192-26.198-11.504zm42.581 16.525c-2.65-12.717-3.893-26.337-3.693-40.483.001-.066.001-.134 0-.201-.007-.582-.01-1.158-.014-1.734h299.568c-.003.576-.006 1.152-.013 1.734-.001.067-.001.135 0 .202.2 14.143-1.042 27.764-3.694 40.487-7.673 36.946-27.097 66.524-56.171 85.538v.001c-.073.048-.146.098-.217.148-10.833 7.049-22.982 12.61-36.11 16.531-16.385 4.883-34.374 7.227-53.474 6.958-.07-.002-.139-.002-.209 0-19.086.267-37.088-2.075-53.47-6.957-13.133-3.922-25.283-9.484-36.116-16.533-.071-.051-.143-.1-.216-.147l.001-.001c-29.074-19.012-48.498-48.591-56.172-85.543zm261.428 121.426c11.789 15.156 19.533 33.777 21.659 52.959-.287.004-.574.006-.858.006-6.43 0-12.789-.829-18.919-2.47-11.755-3.116-22.661-9.213-31.541-17.633-9.071-8.602-15.829-19.402-19.544-31.232-.869-2.767-1.551-5.597-2.085-8.454 10.588-3.622 20.562-8.246 29.767-13.811 8.031 5.745 15.404 12.819 21.521 20.635zm-167.184 6.12c.898-2.863 1.625-5.781 2.219-8.724 15.52 3.789 32.166 5.598 49.615 5.36 1.008.014 2.014.021 3.017.021 16.341-.001 31.953-1.808 46.57-5.373.602 2.944 1.351 5.857 2.249 8.718 3.478 11.078 9.174 21.395 16.659 30.305-13.004 6.669-27.604 11.444-42.759 13.918-16.803 2.761-34.66 2.763-51.476-.002-15.149-2.472-29.752-7.241-42.757-13.909 7.485-8.911 13.183-19.231 16.663-30.314zm-41.999-26.758c9.205 5.566 19.181 10.19 29.771 13.813-.533 2.855-1.216 5.684-2.084 8.453-3.715 11.832-10.473 22.633-19.544 31.234-8.88 8.42-19.787 14.518-31.582 17.644-6.245 1.694-13.06 2.516-19.74 2.452 2.129-19.174 9.861-37.788 21.651-52.939 6.229-7.935 13.451-14.867 21.528-20.657zm202.533 114.643h-217.4c-14.977 0-27.336-11.425-28.82-26.065.434.006.867.018 1.302.018 7.752 0 15.615-1.008 22.831-2.963 12.359-3.276 23.934-9.283 33.788-17.49 15.44 8.573 33.1 14.648 51.434 17.64 9.203 1.513 18.679 2.279 28.167 2.279s18.964-.767 28.158-2.277c18.342-2.994 36.003-9.069 51.443-17.642 9.852 8.207 21.426 14.212 33.77 17.485 7.377 1.974 15.041 2.975 22.779 2.975.454 0 .915-.012 1.373-.02-1.466 14.612-13.834 26.06-28.825 26.06zm72.959-111.258c-4.73 9.47-9.621 19.263-4.754 37.829.009.034.018.068.027.102.002.006.029.106.031.112l.014.038c.024.108.051.217.079.323 1.895 7.046.448 14.39-3.966 20.147-4.359 5.686-10.975 8.946-18.15 8.946h-3.139c-3.817-31.145-20.151-60.555-44.905-79.805 25.91-19.891 43.825-47.958 52.307-82.007 1.084.072 2.169.122 3.256.122 5.273 0 10.472-.834 15.415-2.42-.886 3.666-1.405 7.496-1.405 11.57 0 16.377 3.469 25.022 6.528 32.651 2.926 7.292 5.452 13.59 5.452 27.078.001 11.718-3.298 18.322-6.79 25.314z"/><path d="m180.712 279.236c4.142 0 7.5-3.357 7.5-7.5 0-3.454 2.811-6.265 6.265-6.265s6.265 2.811 6.265 6.265c0 4.143 3.358 7.5 7.5 7.5s7.5-3.357 7.5-7.5c0-11.726-9.54-21.265-21.265-21.265s-21.265 9.539-21.265 21.265c0 4.143 3.358 7.5 7.5 7.5z"/><path d="m303.758 279.236c4.143 0 7.5-3.357 7.5-7.5 0-3.454 2.811-6.265 6.265-6.265s6.265 2.811 6.265 6.265c0 4.143 3.357 7.5 7.5 7.5s7.5-3.357 7.5-7.5c0-11.726-9.539-21.265-21.265-21.265s-21.265 9.539-21.265 21.265c0 4.143 3.357 7.5 7.5 7.5z"/><path d="m256 301.978c7.763 0 15.145-3.362 20.255-9.224 2.722-3.123 2.397-7.86-.725-10.582-3.124-2.723-7.861-2.396-10.582.725-2.261 2.594-5.522 4.081-8.948 4.081s-6.687-1.487-8.947-4.08c-2.721-3.124-7.46-3.448-10.582-.726-3.123 2.721-3.448 7.459-.726 10.581 5.11 5.862 12.492 9.225 20.255 9.225z"/></g></g></svg>