<svg id="Capa_1" enable-background="new 0 0 512 512" height="512" viewBox="0 0 512 512" width="512" xmlns="http://www.w3.org/2000/svg"><g><g><path d="m389.14 504.5h-216.747c-20.105 0-36.404-16.299-36.404-36.404v-.038c0-62.109 50.349-112.458 112.458-112.458h64.64c62.109 0 112.458 50.349 112.458 112.458v.038c-.001 20.105-16.299 36.404-36.405 36.404z" fill="#ffddcf"/><path d="m206.05 401.051c0-13.585 1.873-26.732 5.365-39.202-43.914 15.31-75.426 57.077-75.426 106.21v.038c0 20.105 16.299 36.404 36.404 36.404h77.045c-26.776-26.317-43.388-62.941-43.388-103.45z" fill="#ffcbbe"/><path d="m57.063 305.413h-7.867c-9.751 0-17.656-7.905-17.656-17.656v-194.231c0-47.511 38.515-86.026 86.026-86.026 47.511 0 86.026 38.515 86.026 86.026v65.356c.001 80.927-65.603 146.531-146.529 146.531z" fill="#af602d"/><g><path d="m382.815 379.827c-19.166-15.168-43.389-24.226-69.729-24.226h-64.64c-26.34 0-50.562 9.059-69.729 24.226l7.483 46.922c2.254 14.134 2.512 28.72.759 42.985l-4.272 34.766h196.156l-4.272-34.766c-1.753-14.264-1.495-28.851.759-42.985z" fill="#fd5c6f"/><path d="m182.689 504.5h66.749c-26.776-26.316-43.388-62.94-43.388-103.449 0-13.584 1.872-26.729 5.364-39.198-11.943 4.165-22.972 10.278-32.696 17.973l7.483 46.922c2.254 14.134 2.512 28.72.759 42.985z" fill="#f6334c"/></g><circle cx="122.923" cy="223.554" fill="#ffddcf" r="41.849"/><circle cx="438.611" cy="223.554" fill="#ffcbbe" r="41.849"/><circle cx="280.767" cy="362.902" fill="#ffcbbe" r="57.489"/><g><path d="m433.57 223.554c1.316 93.451-59.352 154.119-152.803 152.803-93.451 1.316-154.119-59.353-152.803-152.803-1.316-93.451 59.352-154.121 152.803-152.803 93.451-1.315 154.119 59.351 152.803 152.803z" fill="#ffddcf"/><path d="m209.813 186.52c0-39.064 7.871-76.287 22.101-110.181-65.143 16.963-105.019 71.261-103.95 147.215-1.316 93.451 59.352 154.119 152.803 152.803.52.007 1.033.002 1.551.006-45.081-50.39-72.505-116.909-72.505-189.843z" fill="#ffcbbe"/></g><g><path d="m413.907 146.79h-266.28v-6.69c0-58.048 47.057-105.106 105.106-105.106h56.069c58.048 0 105.106 47.057 105.106 105.106v6.69z" fill="#e4996d"/><path d="m253.436 34.995h-.704c-58.048 0-105.106 47.057-105.106 105.106v6.689h64.958c5.673-40.643 19.915-78.534 40.852-111.795z" fill="#d97c41"/></g><path d="m432.064 333.488h-36.313v-18.156c0-10.028 8.129-18.156 18.156-18.156 10.028 0 18.156 8.129 18.156 18.156v18.156z" fill="#c2eafb"/><path d="m441.518 372.506h-55.221c-5.418 0-9.809-4.392-9.809-9.809v-19.399c0-5.418 4.392-9.809 9.809-9.809h55.221c5.418 0 9.809 4.392 9.809 9.809v19.399c0 5.417-4.392 9.809-9.809 9.809z" fill="#a57cd2"/><g><path d="m128.459 170.217c0 9.173 6.291 17.35 15.592 20.05 8.383 2.433 13.109 6.248 27.93 6.248 21.761 0 21.761-8.224 43.522-8.224 21.758 0 21.758 8.224 43.516 8.224 21.759 0 21.759-8.224 43.517-8.224s21.758 8.224 43.515 8.224 21.757-8.224 43.515-8.224c6.621 0 11.226.762 15.044 1.821 14.232 3.951 28.466-6.226 28.466-20.21v-37.516c0-9.173-6.291-17.35-15.592-20.05-8.383-2.433-13.109-6.248-27.93-6.248-21.761 0-21.761 8.224-43.522 8.224-21.758 0-21.758-8.224-43.516-8.224-21.759 0-21.759 8.224-43.517 8.224s-21.758-8.224-43.515-8.224-21.757 8.224-43.515 8.224c-6.62 0-11.226-.762-15.043-1.821-14.232-3.951-28.466 6.226-28.466 20.21v37.516z" fill="#ff97c1"/><path d="m209.813 186.52c0-27.853 4.016-54.765 11.469-80.209-1.754-.142-3.669-.223-5.799-.223-21.757 0-21.757 8.224-43.515 8.224-6.621 0-11.226-.762-15.043-1.821-14.232-3.951-28.466 6.226-28.466 20.21v37.516c0 9.173 6.291 17.35 15.592 20.05 8.383 2.433 13.109 6.249 27.93 6.249 19.687 0 21.566-6.73 37.857-8.014-.005-.661-.025-1.319-.025-1.982z" fill="#ff71a8"/></g><ellipse cx="201.122" cy="265.271" fill="#ffa1ac" rx="29.387" ry="23.403"/><ellipse cx="360.412" cy="265.271" fill="#ffa1ac" rx="29.387" ry="23.403"/><g><path d="m451.998 504.5h-76.182c-11.753 0-21.281-9.528-21.281-21.281v-91.808c0-12.557 10.18-22.737 22.737-22.737h73.27c12.557 0 22.737 10.18 22.737 22.737v91.808c0 11.753-9.528 21.281-21.281 21.281z" fill="#c2eafb"/><path d="m396.762 473.085v-74.081c0-13.683 8.378-25.405 20.281-30.329h-39.772c-12.557 0-22.737 10.18-22.737 22.737v91.808c0 11.753 9.528 21.281 21.281 21.281h44.277c-13.497-4.07-23.33-16.592-23.33-31.416z" fill="#78cbed"/></g><path d="m304.46 247.289c0-14.643-10.608-16.019-23.693-16.019-13.086 0-23.694 1.376-23.694 16.019s10.608 26.513 23.694 26.513c13.085 0 23.693-11.87 23.693-26.513z" fill="#475066"/></g><g><path d="m458.83 362.335v-19.035c0-9.544-7.765-17.31-17.31-17.31h-1.96v-10.66c0-6.853-2.669-13.296-7.504-18.131-1.07-1.075-2.237-2.042-3.472-2.906 2.808-6.88 5.157-14.07 7.02-21.499 1 .063 2.002.106 3.007.106 27.212 0 49.35-22.138 49.35-49.35 0-26.663-21.267-48.44-47.731-49.299.228-1.431.351-2.884.351-4.351v-37.51c0-12.652-8.443-23.604-21.008-27.252-1.453-.422-2.814-.905-4.192-1.419-7.244-21.175-20.956-40.12-38.931-53.648-19.628-14.772-43.021-22.581-67.65-22.581h-56.07c-20.068 0-39.484 5.259-56.627 15.262-3.574-5.525-7.718-10.673-12.399-15.355-17.667-17.667-41.154-27.397-66.134-27.397-51.572 0-93.53 41.957-93.53 93.53v118.899c0 4.142 3.358 7.5 7.5 7.5s7.5-3.358 7.5-7.5v-118.899c0-43.301 35.229-78.53 78.53-78.53 20.974 0 40.693 8.169 55.527 23.003 4.01 4.01 7.551 8.423 10.59 13.165-17.596 13.679-30.796 32.272-37.807 53.351-6.091.971-11.811 3.765-16.261 8.051-5.583 5.377-8.659 12.526-8.659 20.13v37.52c0 1.357.102 2.703.298 4.032-26.444.881-47.688 22.649-47.688 49.298 0 27.212 22.138 49.35 49.35 49.35 1.004 0 2.007-.044 3.009-.107.501 1.997 1.034 3.982 1.606 5.95-21.301 12.551-45.542 19.167-70.474 19.167h-7.861c-5.603 0-10.16-4.553-10.16-10.15v-43.282c0-4.142-3.358-7.5-7.5-7.5s-7.5 3.358-7.5 7.5v43.282c0 13.868 11.287 25.15 25.16 25.15h7.86c26.587 0 52.463-6.813 75.418-19.73 11.895 29.914 32.091 53.51 59.175 69.208-6.175 3.325-12.059 7.183-17.589 11.562-.177.14-.334.298-.496.452-28.654 22.904-45.078 56.999-45.078 93.698 0 24.207 19.693 43.9 43.9 43.9h279.61c15.869 0 28.78-12.911 28.78-28.78v-45.443c0-4.142-3.358-7.5-7.5-7.5s-7.5 3.358-7.5 7.5v45.443c0 7.598-6.182 13.78-13.78 13.78h-76.18c-.567 0-1.128-.033-1.68-.1-.488-.059-.967-.153-1.443-.263-.061-.014-.125-.019-.186-.034-.954-.236-1.877-.593-2.773-1.037-.11-.055-.225-.094-.334-.152-.001 0-.002-.001-.003-.001-.004-.002-.009-.004-.013-.007-4.533-2.391-7.349-7.06-7.349-12.186v-91.81c0-5.411 2.896-10.45 7.585-13.176.005-.003.01-.006.015-.009l.03-.017c.044-.026.088-.046.132-.071.262-.149.524-.293.786-.421.307-.151.613-.287.915-.407.058-.023.115-.047.172-.071 1.776-.708 3.657-1.067 5.594-1.067h73.27c8.403 0 15.24 6.837 15.24 15.24v15.428c0 4.142 3.358 7.5 7.5 7.5s7.5-3.358 7.5-7.5v-15.429c.002-13.799-9.293-25.461-21.948-29.075zm-15-19.035v17.87h-59.84v-17.87c0-1.273 1.036-2.31 2.31-2.31h55.22c1.274 0 2.31 1.036 2.31 2.31zm-40.58-17.31v-10.66c0-5.878 4.782-10.66 10.66-10.66.988 0 1.966.136 2.928.409 1.724.485 3.311 1.42 4.599 2.714 2.014 2.014 3.123 4.69 3.123 7.537v10.66zm69.71-102.44c0 18.93-15.391 34.331-34.317 34.349 1.759-10.99 2.586-22.501 2.427-34.349.159-11.843-.668-23.35-2.428-34.339 18.927.018 34.318 15.415 34.318 34.339zm-275.162-164.145c16.213-11.065 35.208-16.915 54.932-16.915h56.07c38.688 0 72.762 22.219 88.547 56.479-2.317-.238-4.89-.379-7.797-.379-1.001 0-1.948.021-2.864.042-.014 0-.028.003-.042.003-.013 0-.026-.001-.039-.001-10.363.353-16.262 2.582-21.467 4.548-5.151 1.946-9.6 3.627-19.108 3.627-1.783 0-3.389-.059-4.854-.168-6.35-.472-10.071-1.878-14.255-3.459-5.698-2.153-12.157-4.594-24.4-4.594-12.25 0-18.71 2.441-24.411 4.594-5.151 1.946-9.599 3.626-19.109 3.626s-13.958-1.68-19.109-3.626c-5.7-2.153-12.161-4.594-24.411-4.594-4.965 0-9.334.398-13.357 1.216-.007.001-.013.002-.02.003-.004.001-.007.002-.011.002s0 0-.001 0c-4.479.908-7.952 2.219-11.016 3.376-5.147 1.944-9.593 3.623-19.104 3.623-1.783 0-3.462-.06-4.982-.177-2.026-.159-3.864-.423-5.644-.794 7.022-18.742 19.735-35.031 36.452-46.432zm-61.838 73.295c0-3.49 1.443-6.802 4.064-9.326 2.955-2.845 7.054-4.386 11.251-4.229 1.196.041 2.419.233 3.653.575 3.452.951 7.012 1.562 10.895 1.867 1.913.148 3.981.223 6.147.223 12.25 0 18.707-2.438 24.404-4.59 2.901-1.096 5.408-2.042 8.703-2.709.002 0 .005-.001.007-.002.001 0 .003 0 .004-.001 3.033-.618 6.433-.919 10.392-.919 1.783 0 3.389.059 4.854.168 6.35.472 10.071 1.878 14.256 3.459 4.988 1.884 10.558 3.988 20.078 4.485 1.36.071 2.801.109 4.332.109s2.972-.038 4.332-.109c9.521-.497 15.091-2.601 20.078-4.485 4.185-1.581 7.906-2.987 14.256-3.459 1.465-.109 3.071-.168 4.854-.168 9.504 0 13.95 1.68 19.099 3.625 5.344 2.019 11.356 4.291 22.181 4.567.722.018 1.465.028 2.23.028 12.248 0 18.709-2.442 24.411-4.596 4.709-1.779 8.777-3.316 16.644-3.587.789-.018 1.605-.037 2.466-.037 8.553 0 13.036 1.382 17.219 2.915.607.225 1.206.452 1.804.679 2.098.796 4.267 1.619 6.816 2.359 6.096 1.77 10.191 6.933 10.191 12.848v37.51c0 2.578-.748 4.98-2.271 7.211-.247.37-.492.695-.729.966-.026.03-.053.061-.079.092-2.574 3.046-6.396 4.958-10.498 5.253-.037.002-.074.004-.111.007-1.747.124-3.525-.061-5.277-.546-5.145-1.428-10.562-2.093-17.045-2.093-12.251 0-18.712 2.444-24.413 4.6-5.15 1.948-9.598 3.63-19.107 3.63-9.51 0-13.957-1.683-19.106-3.63-5.699-2.156-12.158-4.6-24.403-4.6-12.251 0-18.712 2.444-24.414 4.6-5.15 1.948-9.598 3.63-19.106 3.63-9.509 0-13.957-1.682-19.107-3.63-5.701-2.156-12.162-4.6-24.413-4.6-6.577 0-12.074.687-17.301 2.163-2.675.757-4.931 1.61-7.111 2.435-5.152 1.949-9.601 3.632-19.107 3.632-8.742 0-13.146-1.392-17.995-3.212-.071-.026-.143-.052-.214-.076l-1.036-.39c-2.031-.767-4.132-1.56-6.587-2.273-2.951-.86-5.477-2.525-7.325-4.841-.246-.305-.442-.572-.602-.817-.022-.034-.044-.068-.067-.101-1.435-2.124-2.194-4.576-2.194-7.09v-37.52zm-47.39 90.85c0-18.924 15.391-34.32 34.316-34.339-1.759 10.988-2.585 22.496-2.426 34.339-.158 11.851.668 23.363 2.426 34.349-18.925-.019-34.316-15.42-34.316-34.349zm54.961 56.187c-1.798-5.443-3.308-11.088-4.488-16.785-2.568-12.337-3.774-25.559-3.583-39.298 0-.069 0-.139 0-.208-.133-9.583.432-18.906 1.65-27.863 1.545.755 3.159 1.397 4.848 1.889 1.898.551 3.639 1.208 5.481 1.904l1.281.481c.068.026.138.05.207.074 5.57 2.081 11.974 4.089 23.053 4.089 12.249 0 18.712-2.445 24.415-4.602 1.971-.746 3.833-1.45 5.884-2.03 3.913-1.105 7.991-1.598 13.222-1.598 9.509 0 13.957 1.682 19.106 3.63 5.701 2.156 12.163 4.6 24.414 4.6 12.25 0 18.712-2.444 24.413-4.6 5.15-1.948 9.598-3.63 19.107-3.63 9.502 0 13.948 1.682 19.096 3.629 5.701 2.157 12.162 4.601 24.414 4.601 12.251 0 18.712-2.444 24.414-4.6 5.15-1.948 9.598-3.63 19.106-3.63 6.688 0 10.642.883 13.042 1.549 3.371.932 6.812 1.291 10.227 1.06.031-.001.062-.003.094-.005 4.017-.269 7.911-1.34 11.452-3.088 1.247 9.04 1.821 18.459 1.686 28.14-.001.069-.001.139 0 .208.19 13.733-1.015 26.952-3.584 39.297-1.935 9.352-4.7 18.314-8.216 26.732-.12-.002-.24-.012-.36-.012-14.149 0-25.66 11.511-25.66 25.66v10.66h-1.95c-9.544 0-17.31 7.765-17.31 17.31v1.97c-6.039 4.036-12.534 7.608-19.366 10.631-.086.038-.17.078-.254.119-4.385 1.935-8.979 3.677-13.661 5.178-34.13 10.946-75.776 10.946-109.87.003-4.75-1.53-9.426-3.312-13.897-5.296-.104-.046-.208-.089-.313-.13-32.95-14.694-56.496-40.983-68.1-76.039zm184.649 99.111c-6.641 20.02-25.381 34.042-47.41 34.042-22.027 0-40.767-14.021-47.409-34.039.94 2.832 23.202 3.963 26.342 4.241 22.696 2.015 46.283 1.052 68.477-4.244zm-184.69 89.212c0-27.795 10.8-53.904 29.999-73.42l5.306 33.295c2.154 13.472 2.397 27.227.722 40.881l-3.462 28.184h-3.665c-15.935 0-28.9-12.964-28.9-28.94zm203.555 15.692c.001.062.002.126.004.188.115 4.657 1.343 9.116 3.49 13.059h-159.372l3.237-26.356c1.847-15.051 1.579-30.217-.797-45.074l-6.77-42.486c6.805-4.947 14.165-9.036 21.948-12.219 2.607 1.092 5.261 2.122 7.953 3.08 2.425 14.145 9.462 27.106 20.159 36.902 12.003 10.991 27.584 17.043 43.873 17.043 16.288 0 31.869-6.053 43.872-17.043 10.696-9.794 17.733-22.753 20.159-36.895 2.69-.954 5.34-1.979 7.938-3.065.573.234 1.152.447 1.721.692-4.704 5.425-7.419 12.455-7.419 19.832v91.81c-.001.178.001.355.004.532z"/><path d="m213.535 225.331c0-4.142-3.358-7.5-7.5-7.5s-7.5 3.358-7.5 7.5v12c0 4.142 3.358 7.5 7.5 7.5s7.5-3.358 7.5-7.5z"/><path d="m280.77 281.3c17.198 0 31.19-15.257 31.19-34.01 0-23.52-21.857-23.52-31.19-23.52-9.336 0-31.2 0-31.2 23.52 0 18.753 13.996 34.01 31.2 34.01zm0-42.53c15.535 0 16.19 2.612 16.19 8.52 0 10.482-7.263 19.01-16.19 19.01-8.933 0-16.2-8.528-16.2-19.01 0-5.908.655-8.52 16.2-8.52z"/><path d="m355.499 244.831c4.142 0 7.5-3.358 7.5-7.5v-12c0-4.142-3.358-7.5-7.5-7.5s-7.5 3.358-7.5 7.5v12c0 4.142 3.358 7.5 7.5 7.5z"/></g></g></svg>