<svg id="Capa_1" enable-background="new 0 0 511.981 511.981" height="512" viewBox="0 0 511.981 511.981" width="512" xmlns="http://www.w3.org/2000/svg"><g><g><g><path d="m364.895 504.481h-217.808c-20.105 0-36.404-16.299-36.404-36.404v-.583c0-62.109 50.349-112.458 112.458-112.458h65.701c62.109 0 112.458 50.349 112.458 112.458v.583c-.001 20.106-16.3 36.404-36.405 36.404z" fill="#ffddcf"/><path d="m188.515 399.331c0-13.925 1.745-27.441 5.018-40.348-47.743 12.996-82.851 56.65-82.851 108.511v.583c0 20.105 16.299 36.404 36.404 36.404h79.695c-23.877-28.438-38.266-65.111-38.266-105.15z" fill="#ffcbbe"/></g><g><path d="m358.249 398.324 18.435-28.11c3.597-5.484-.002-12.817-6.541-13.327l-114.153-8.903-114.153 8.903c-6.538.51-10.137 7.843-6.541 13.327l18.435 28.11c2.437 19.298 2.716 39.213.821 58.689l-4.619 47.468h212.114l-4.619-47.468c-1.895-19.475-1.616-39.391.821-58.689z" fill="#475066"/><path d="m149.934 504.481h76.848c-23.878-28.438-38.267-65.111-38.267-105.15 0-16.196 2.365-31.837 6.747-46.61l-53.425 4.167c-6.539.51-10.137 7.843-6.541 13.327l18.435 28.11c2.438 19.298 2.716 39.213.821 58.689z" fill="#303646"/></g><circle cx="97.568" cy="222.506" fill="#ffddcf" r="42.002"/><circle cx="414.413" cy="222.506" fill="#ffcbbe" r="42.002"/><circle cx="255.991" cy="362.365" fill="#ffcbbe" r="57.7"/><g><path d="m409.354 222.506c1.321 93.794-59.569 154.684-153.363 153.363-93.794 1.32-154.684-59.57-153.363-153.363-1.321-93.794 59.569-154.686 153.363-153.363 93.793-1.32 154.684 59.569 153.363 153.363z" fill="#ffddcf"/><path d="m184.661 213.844c0-51.87 13.871-100.498 38.095-142.388-74.667 11.934-121.286 68.857-120.128 151.05-1.218 86.479 50.451 144.986 132.034 152.55-31.531-45.843-50.001-101.367-50.001-161.212z" fill="#ffcbbe"/></g><path d="m259.888 8.763c-2.309-1.709-5.487-1.709-7.795 0-33.627 24.898-49.656 62.994-49.505 95.844-.152 32.851 15.877 70.949 49.505 95.848 2.309 1.709 5.487 1.709 7.795 0 33.628-24.898 49.656-62.996 49.505-95.846.152-32.85-15.877-70.947-49.505-95.846z" fill="#a57cd2"/><ellipse cx="176.143" cy="278.521" fill="#ffa1ac" rx="29.462" ry="23.462"/><ellipse cx="335.839" cy="278.521" fill="#ffa1ac" rx="29.462" ry="23.462"/><path d="m294.701 257.106c0-16.741-17.331-18.314-38.711-18.314-21.379 0-38.711 1.573-38.711 18.314s17.331 30.312 38.711 30.312 38.711-13.571 38.711-30.312z" fill="#fff"/><g fill="#c6c6c6"><path d="m235.091 282.615c4.353 2.192 9.3 3.72 14.614 4.399v-48.16c-5.314.117-10.261.436-14.614 1.19z"/><path d="m262.276 287.014c5.314-.68 10.261-2.208 14.614-4.399v-42.571c-4.353-.753-9.3-1.072-14.614-1.19z"/></g></g><g><path d="m414.411 173.001c-1.015 0-2.028.043-3.038.107-6.379-25.53-18.094-47.496-34.913-65.353-17.366-18.437-39.272-31.551-65.146-39.044-8.176-26.201-24.719-49.51-46.96-65.979-4.924-3.644-11.801-3.644-16.727.002-22.229 16.466-38.771 39.773-46.954 65.971-23.569 6.828-43.915 18.373-60.521 34.369-2.983 2.874-3.071 7.622-.198 10.605 1.472 1.528 3.436 2.296 5.402 2.296 1.872 0 3.748-.697 5.203-2.099 12.874-12.402 28.328-21.826 46.057-28.117-1.031 6.318-1.55 12.616-1.524 18.818-.177 38.741 19.955 77.788 52.537 101.901 2.462 1.823 5.413 2.735 8.363 2.734 2.95 0 5.9-.911 8.362-2.733 32.583-24.115 52.714-63.161 52.538-101.837.026-6.235-.493-12.544-1.523-18.864 43.75 15.49 72.994 49.573 82.89 97.181 2.574 12.368 3.783 25.638 3.594 39.439-.001.069-.001.137 0 .206.189 13.808-1.02 27.081-3.594 39.451-7.908 38.049-28.449 67.869-59.411 86.239-4.319 2.569-8.889 4.923-13.612 7.011-4.418 1.979-9.162 3.787-14.095 5.373-34.23 11.009-76.079 10.979-110.293.002-4.937-1.588-9.681-3.396-14.134-5.39-4.692-2.074-9.26-4.427-13.585-7-30.955-18.367-51.497-48.187-59.404-86.237-2.575-12.373-3.784-25.646-3.593-39.449.001-.069.001-.138 0-.207-.19-13.797 1.019-27.066 3.594-39.44 3.378-16.257 9.122-31.158 17.069-44.291 2.145-3.544 1.01-8.155-2.533-10.3-3.544-2.145-8.156-1.009-10.3 2.533-7.702 12.727-13.528 26.896-17.363 42.202-1.007-.061-2.016-.101-3.026-.101-27.294 0-49.5 22.206-49.5 49.5 0 27.3 22.206 49.51 49.5 49.51 1.012 0 2.022-.043 3.03-.107 7.905 31.631 24.055 57.83 47.332 76.983l-6.748.527c-5.73.449-10.661 3.797-13.19 8.958-2.527 5.157-2.154 11.1.993 15.891l7.052 10.755c-21.235 22.349-32.859 51.395-32.859 82.473v.59c0 24.207 19.698 43.9 43.91 43.9h2.84 139.475c4.143 0 7.5-3.358 7.5-7.5s-3.357-7.5-7.5-7.5h-131.21l3.819-39.242c1.962-20.105 1.678-40.413-.843-60.359-.144-1.133-.543-2.218-1.169-3.173l-18.473-28.174c-.083-.126-.334-.509-.065-1.06.273-.557.739-.593.89-.605l25.222-1.97c4.204 2.401 8.58 4.627 13.04 6.598 3.549 1.589 7.281 3.072 11.133 4.437 2.431 14.195 9.492 27.202 20.227 37.031 12.042 11.025 27.673 17.097 44.015 17.097s31.974-6.072 44.015-17.097c10.735-9.829 17.796-22.836 20.227-37.031 3.85-1.364 7.576-2.844 11.1-4.422 4.489-1.984 8.87-4.212 13.073-6.613l25.22 1.97c.152.012.618.048.892.605.27.551.018.935-.068 1.066l-18.47 28.168c-.626.955-1.026 2.04-1.169 3.173-2.521 19.949-2.806 40.257-.844 60.357l3.818 39.244h-29.082c-4.143 0-7.5 3.358-7.5 7.5s3.357 7.5 7.5 7.5h37.348 2.841c24.212 0 43.909-19.693 43.909-43.9v-.59c0-31.077-11.63-60.117-32.864-82.465l7.053-10.758c3.151-4.798 3.523-10.741.996-15.897-2.529-5.16-7.46-8.508-13.191-8.957l-6.747-.527c23.278-19.154 39.427-45.351 47.332-76.978 1.009.061 2.019.101 3.031.101 27.294 0 49.5-22.21 49.5-49.51-.003-27.292-22.209-49.498-49.503-49.498zm-158.42 21.003c-34.015-25.482-46.021-62.816-45.9-89.424-.038-9.128 1.244-18.469 3.811-27.766 6.735-24.435 21.672-46.287 42.09-61.606 20.428 15.321 35.364 37.172 42.088 61.603.001.002.001.003.002.005 2.565 9.297 3.848 18.639 3.81 27.829.12 26.543-11.887 63.877-45.901 89.359zm-192.92 28.497c0-19.023 15.475-34.499 34.498-34.5-1.767 11.031-2.597 22.593-2.438 34.5-.159 11.913.671 23.478 2.438 34.51-19.023-.001-34.498-15.482-34.498-34.51zm55.11 245.581v-.59c0-25.991 9.296-50.356 26.343-69.534l1.977 3.015c2.186 18.291 2.383 36.89.585 55.312l-3.934 40.422c-14.083-1.928-24.971-14.026-24.971-28.625zm137.81-55.52c-22.134 0-40.945-14.103-47.603-34.224 1.127 3.405 27.158 4.356 30.825 4.601 10.495.701 21.218.606 31.723.112 3.862-.181 31.466-1.101 32.661-4.716-6.657 20.123-25.471 34.227-47.606 34.227zm137.809 54.929v.59c0 14.6-10.888 26.698-24.971 28.625l-3.933-40.424c-1.798-18.419-1.601-37.017.585-55.311l1.976-3.014c17.047 19.179 26.343 43.543 26.343 69.534zm20.613-210.48c1.766-11.03 2.596-22.595 2.439-34.51.157-11.91-.673-23.472-2.439-34.5 19.022.001 34.497 15.477 34.497 34.5.001 19.028-15.474 34.509-34.497 34.51z"/><path d="m200.931 239.533c3.571 0 6.736-2.561 7.377-6.199.719-4.079-2.005-7.969-6.084-8.688l-12.42-2.19c-4.075-.716-7.969 2.004-8.688 6.084-.719 4.079 2.005 7.969 6.084 8.688l3.211.566c-2.701 1.135-4.598 3.804-4.598 6.917v10.404c0 4.142 3.358 7.5 7.5 7.5s7.5-3.358 7.5-7.5v-10.404c0-2.182-.937-4.14-2.424-5.51l1.231.217c.44.078.878.115 1.311.115z"/><path d="m330.865 228.54c-.72-4.079-4.609-6.803-8.688-6.084l-12.42 2.19c-4.079.719-6.803 4.609-6.083 8.688.642 3.639 3.806 6.199 7.377 6.199.433 0 .871-.038 1.312-.115l1.231-.217c-1.487 1.37-2.424 3.328-2.424 5.51v10.404c0 4.142 3.357 7.5 7.5 7.5s7.5-3.358 7.5-7.5v-10.404c0-3.113-1.897-5.782-4.597-6.917l3.211-.566c4.077-.719 6.8-4.609 6.081-8.688z"/><path d="m302.201 257.102c0-7.622-2.833-17.713-16.33-22.501-7.741-2.747-17.544-3.309-29.88-3.309s-22.138.562-29.88 3.309c-13.497 4.788-16.33 14.879-16.33 22.501 0 20.854 20.729 37.82 46.21 37.82s46.21-16.966 46.21-37.82zm-77.42 0c0-7.169 4.827-10.81 31.21-10.81s31.21 3.641 31.21 10.81c0 12.583-14.001 22.82-31.21 22.82s-31.21-10.237-31.21-22.82z"/></g></g></svg>