<svg id="Capa_1" enable-background="new 0 0 512.02 512.02" height="512" viewBox="0 0 512.02 512.02" width="512" xmlns="http://www.w3.org/2000/svg"><g><g><g fill="#ffcbbe"><path d="m176.483 365.194c-38.81 17.73-65.781 56.883-65.781 102.339v.583c0 20.105 16.299 36.404 36.404 36.404h29.377z"/><path d="m288.86 355.075h-65.7c-13.548 0-26.536 2.397-38.565 6.788v142.657h180.319c20.105 0 36.404-16.299 36.404-36.404v-.583c0-62.109-50.349-112.458-112.458-112.458z"/></g><g><path d="m198.311 362.403c0-3.395.31-6.717.873-9.951l-42.243 3.298c-13.32 1.04-20.66 15.98-13.33 27.15 7.328 11.173 11.426 24.136 11.977 37.486.504 12.223.167 24.531-1.017 36.664l-3.708 38.102c-.489 5.02 3.457 9.368 8.5 9.368h70.377c4.717 0 8.541-3.824 8.541-8.541v-64.877c0-7.763-4.284-14.797-11.013-18.669-17.305-9.959-28.957-28.63-28.957-50.03z" fill="#a57cd2"/><path d="m177.704 412.534c0-21.167 4.543-41.272 12.705-59.397l-33.469 2.613c-13.32 1.04-20.66 15.98-13.33 27.15 7.328 11.173 11.426 24.136 11.977 37.486.504 12.223.167 24.531-1.017 36.664l-3.708 38.102c-.489 5.02 3.457 9.368 8.5 9.368h51.305c-20.594-25.014-32.963-57.055-32.963-91.986z" fill="#8c5ac5"/></g><path d="m368.41 382.9c7.33-11.17-.01-26.11-13.33-27.15l-42.243-3.298c.562 3.234.873 6.556.873 9.951 0 21.399-11.653 40.07-28.957 50.03-6.729 3.873-11.013 10.906-11.013 18.669v64.877c0 4.717 3.824 8.541 8.541 8.541h70.377c5.044 0 8.989-4.348 8.5-9.368l-3.708-38.102c-1.184-12.133-1.521-24.441-1.017-36.664.551-13.35 4.649-26.313 11.977-37.486z" fill="#a57cd2"/><circle cx="97.587" cy="222.545" fill="#ffddcf" r="42.002"/><circle cx="414.433" cy="222.545" fill="#ffcbbe" r="42.002"/><g><path d="m409.373 222.545c1.321 93.794-59.569 154.684-153.363 153.363-93.794 1.32-154.684-59.57-153.363-153.363-1.321-93.794 59.569-154.686 153.363-153.363 93.794-1.32 154.684 59.569 153.363 153.363z" fill="#ffddcf"/><path d="m180.124 213.882c0-51.501 13.671-99.808 37.577-141.496-71.697 13.661-116.185 69.844-115.054 150.159-1.193 84.725 48.38 142.595 127.111 152.021-31.308-45.741-49.634-101.069-49.634-160.684z" fill="#ffcbbe"/></g><ellipse cx="177.633" cy="263.918" fill="#ffa1ac" rx="28.919" ry="23.03"/><g><path d="m192.472 138.655c23.748 0 45.702 7.664 63.538 20.645 17.836-12.981 39.79-20.645 63.538-20.645 35.106 0 66.298 16.74 86.044 42.669-14.614-69.989-70.36-113.257-149.582-112.142-79.222-1.117-134.968 42.152-149.582 112.142 19.746-25.928 50.938-42.669 86.044-42.669z" fill="#00c140"/><path d="m217.704 72.382c-58.691 11.182-99.148 50.859-111.275 108.942 19.313-25.361 49.58-41.921 83.747-42.634 6.4-23.444 15.703-45.689 27.528-66.308z" fill="#00b730"/></g><ellipse cx="334.387" cy="263.918" fill="#ffa1ac" rx="28.92" ry="23.03"/><path d="m252.616 11.1c-24.806 29.056-40.764 69.416-40.53 114.097.183 35.028 39.784 55.333 68.442 35.192l.991-.697c19.853-13.953 24.31-41.372 10.167-61.09-14.783-20.611-23.807-48.507-21.171-79.947.827-9.865-11.471-15.083-17.899-7.555z" fill="#55d47b"/><circle cx="163.664" cy="443.33" fill="#fd5c6f" r="17.058"/><circle cx="191.195" cy="457.374" fill="#f9ee80" r="17.058"/><circle cx="346.248" cy="446.856" fill="#c2eafb" r="17.058"/></g><g><path d="m463.93 222.54c0-27.294-22.206-49.5-49.5-49.5-1.015 0-2.028.044-3.039.109-1.906-7.623-4.352-15.104-7.342-22.329-10.465-25.334-26.802-45.913-48.555-61.167-20.655-14.483-45.199-23.435-73.012-26.655-4.246-13.926-5.766-28.608-4.498-43.718.659-7.829-3.605-14.843-10.865-17.87-7.212-3.007-15.144-1.113-20.201 4.819-14.431 16.896-25.787 37.31-33.007 59.275-17.096 3.5-32.889 9.385-46.996 17.531-3.587 2.071-4.815 6.658-2.744 10.246 1.39 2.406 3.91 3.75 6.502 3.75 1.272 0 2.562-.325 3.744-1.007 10.605-6.125 22.323-10.816 34.925-14.054-3.229 14.105-4.829 28.607-4.751 43.27.012 2.233.171 4.437.457 6.608-4.168-.454-8.37-.687-12.578-.687-25.242 0-49.221 7.993-69.335 23.106-.187.14-.373.281-.56.422 6.104-14.187 14.393-26.753 24.792-37.555 2.873-2.984 2.783-7.731-.2-10.604-2.984-2.873-7.732-2.784-10.604.201-17.363 18.033-29.424 40.355-35.936 66.412-1.011-.062-2.023-.102-3.037-.102-27.294 0-49.5 22.206-49.5 49.5 0 14.626 6.373 28.263 17.307 37.607-1.237 3.573-1.878 7.35-1.878 11.172 0 18.787 15.284 34.07 34.07 34.07 4.879 0 9.648-1.069 14.02-3.045 9.084 18.695 21.848 34.806 37.613 47.545-5.794 2.227-10.586 6.544-13.429 12.34-3.594 7.326-3.42 15.668.345 22.738-21.287 22.351-32.939 51.438-32.939 82.562v.59c0 24.207 19.697 43.9 43.909 43.9h217.802c24.212 0 43.909-19.693 43.909-43.9v-.59c0-11.076-1.509-22.047-4.485-32.608-1.124-3.987-5.272-6.309-9.253-5.184-3.987 1.124-6.309 5.267-5.185 9.253 2.603 9.236 3.923 18.838 3.923 28.539v.59c0 14.659-10.977 26.795-25.144 28.647.04-.777.026-1.56-.05-2.344l-3.146-32.3c3.42-4.313 5.33-9.694 5.33-15.263 0-6.489-2.596-12.685-7.074-17.234.017-2.981.068-5.969.187-8.926.307-7.409 1.849-14.713 4.531-21.575 3.547 4.119 6.775 8.504 9.641 13.118 1.421 2.287 3.871 3.543 6.378 3.543 1.352 0 2.719-.365 3.951-1.13 3.519-2.186 4.599-6.81 2.413-10.328-4.309-6.936-9.336-13.416-14.967-19.344 3.775-7.086 3.949-15.427.355-22.753-2.843-5.796-7.635-10.113-13.429-12.34 15.763-12.738 28.523-28.843 37.606-47.528 4.372 1.976 9.149 3.028 14.028 3.028 18.786 0 34.07-15.284 34.07-34.07 0-3.821-.652-7.592-1.889-11.163 10.943-9.346 17.32-22.987 17.32-37.618zm-15 0c0 11.729-5.876 22.553-15.72 28.953-5.587 3.634-12.078 5.556-18.773 5.557.572-3.572 1.056-7.193 1.425-10.842.777-7.664 1.117-15.626 1.01-23.667.157-11.891-.676-23.455-2.448-34.501h.007c19.022 0 34.499 15.477 34.499 34.5zm-59.602-68.021c-19.818-15.073-44.086-23.358-69.778-23.358-4.241 0-8.476.257-12.681.719 2.023-13.072-1.097-26.508-9.086-37.65-3.419-4.767-6.429-9.857-9.027-15.207 47.342 7.727 82.724 34.166 100.572 75.496zm-131.001-138.553c.613-.718 1.282-.953 1.896-.953.411 0 .798.106 1.124.242.693.289 1.835 1.033 1.689 2.768-1.576 18.782.672 37.016 6.673 54.193.006.02.013.039.02.059.018.051.034.103.052.154 3.855 11.013 9.177 21.29 15.814 30.542 7.438 10.374 8.938 23.545 4.015 35.235-2.605 6.174-6.893 11.481-12.42 15.361l-.973.688c-9.221 6.48-20.183 8.289-30.868 5.09-10.607-3.174-19.305-11.048-23.269-21.072-1.628-4.1-2.466-8.511-2.49-13.112-.093-17.403 2.367-34.555 7.312-50.978 6.515-21.644 17.381-41.773 31.425-58.217zm-195.237 206.574c0-19.023 15.477-34.5 34.5-34.5h.007c-1.772 11.048-2.605 22.611-2.448 34.501-.107 8.041.232 16.002 1.01 23.663.368 3.652.853 7.273 1.425 10.846-6.695-.001-13.186-1.922-18.775-5.557-9.843-6.4-15.719-17.223-15.719-28.953zm15.43 48.78c0-1.005.088-2.002.243-2.985 5.936 2.443 12.315 3.715 18.828 3.715 1.012 0 2.021-.044 3.029-.107 1.429 5.705 3.14 11.262 5.114 16.624-2.523 1.19-5.302 1.823-8.144 1.823-10.515 0-19.07-8.554-19.07-19.07zm70.741 97.517c1.609-3.28 4.621-5.325 8.265-5.609l10.071-.789c4.205 2.401 8.58 4.627 13.038 6.597 3.546 1.588 7.276 3.07 11.126 4.434 3.262 18.993 14.875 35.743 31.763 45.458 4.476 2.58 7.256 7.244 7.256 12.172v64.88c0 .574-.466 1.04-1.039 1.04h-70.381c-.305 0-.563-.115-.77-.342-.206-.228-.296-.497-.266-.8l2.744-28.14c.858.091 1.721.152 2.592.152 1.725 0 3.437-.205 5.113-.564 3.827 8.591 12.424 14.604 22.417 14.604 13.543 0 24.561-11.018 24.561-24.56 0-13.537-11.018-24.55-24.561-24.55-1.715 0-3.417.202-5.082.563-3.826-8.599-12.445-14.613-22.447-14.613-.218 0-.435.014-.652.02-.396-6.897-1.64-13.699-3.722-20.235-1.801-5.656-4.231-11.115-7.177-16.143-.626-1.1-1.329-2.245-2.229-3.627-2.001-3.047-2.226-6.674-.62-9.948zm116.98 62.263v64.88c0 .349.011.696.034 1.04h-20.546c.022-.345.051-.689.051-1.04v-64.88c0-10.274-5.657-19.918-14.77-25.171-10.749-6.183-18.711-16.061-22.576-27.546 1.255 3.731 29.165 4.516 33.124 4.735 10.975.608 22.038.536 33.003-.273 3.52-.26 27.948-1.265 29.024-4.464-3.863 11.487-11.826 21.366-22.58 27.552-9.107 5.249-14.764 14.893-14.764 25.167zm-84.601 25.987c.001-.016.004-.032.004-.048.099-2.832 1.435-5.451 3.668-7.187.002-.002.005-.004.007-.006.004-.003.008-.005.011-.008 1.688-1.32 3.713-2.018 5.858-2.018 5.271 0 9.561 4.284 9.561 9.55 0 5.271-4.289 9.56-9.561 9.56-5.266 0-9.55-4.289-9.55-9.56l.001-.225c.003-.02.001-.038.001-.058zm-14.458-4.864c-2.67 1.062-5.896.827-8.402-.679-.084-.058-.169-.114-.255-.169-2.765-1.751-4.415-4.759-4.415-8.044 0-3.579 1.97-6.827 5.142-8.476.088-.046.175-.093.261-.142 1.283-.625 2.677-.942 4.148-.942 4.456 0 8.21 3.064 9.264 7.197-2.87 3.184-4.848 7.06-5.743 11.255zm-48.982 15.897v-.59c0-25.493 8.941-49.42 25.363-68.415.515 1.316 1.001 2.644 1.43 3.991 1.807 5.673 2.851 11.594 3.104 17.602.048 1.138.088 2.317.12 3.541-5.704 4.603-9.107 11.553-9.107 19.081 0 6.798 2.755 13.135 7.541 17.707l-3.256 33.386c-.076.785-.073 1.568-.034 2.347-14.175-1.845-25.161-13.985-25.161-28.65zm233.637-29.014c2.487 1.792 3.973 4.69 3.973 7.754 0 2.733-1.119 5.25-3.149 7.086-1.758 1.589-4.034 2.464-6.41 2.464-5.271 0-9.561-4.284-9.561-9.55 0-5.271 4.289-9.56 9.561-9.56 2.025 0 3.95.62 5.586 1.806zm10.289-60.299c-.887 1.36-1.59 2.506-2.17 3.526-6.659 11.382-10.47 24.435-11.021 37.754-.032.786-.046 1.578-.069 2.367-.865-.091-1.735-.154-2.616-.154-13.543 0-24.561 11.018-24.561 24.56 0 13.537 11.018 24.55 24.561 24.55 1.699 0 3.374-.192 5.011-.532l2.435 25c.03.304-.06.573-.266.8s-.465.342-.77.342h-70.38c-.573 0-1.039-.466-1.039-1.04v-64.88c0-4.928 2.78-9.592 7.25-12.169 16.894-9.719 28.506-26.469 31.769-45.462 3.847-1.363 7.57-2.842 11.093-4.419 4.489-1.984 8.87-4.212 13.072-6.612l10.073.789c3.642.285 6.653 2.329 8.263 5.609 1.605 3.275 1.379 6.901-.635 9.971zm-23.259-30.473c-4.319 2.569-8.889 4.923-13.612 7.011-4.418 1.979-9.162 3.787-14.095 5.373-34.226 11.008-76.093 10.976-110.294.002-4.938-1.588-9.682-3.396-14.133-5.39-4.69-2.073-9.26-4.427-13.587-7.001-23.04-13.667-40.781-34.32-51.309-59.734-3.442-8.293-6.166-17.209-8.095-26.5-1.166-5.615-2.062-11.469-2.66-17.401-.724-7.127-1.037-14.545-.934-22.049.001-.069.001-.138 0-.207-.181-13.205.939-25.942 3.307-37.901 3.816-4.836 8.049-9.335 12.648-13.365 1.967-1.73 3.992-3.377 6.031-4.904 17.506-13.153 38.369-20.106 60.335-20.106 5.857 0 11.7.514 17.422 1.514 6.205 12.384 17.573 21.975 31.156 26.04 4.791 1.434 9.684 2.139 14.545 2.139 10.322 0 20.505-3.183 29.267-9.34l.969-.685c6.684-4.691 12.089-10.891 15.833-18.074 5.879-1.054 11.879-1.595 17.889-1.595 31.092 0 59.785 13.957 79.006 38.342 2.371 11.969 3.496 24.717 3.315 37.935-.001.069-.001.138 0 .207.104 7.503-.21 14.922-.934 22.053-.599 5.929-1.494 11.782-2.661 17.399-1.928 9.29-4.651 18.205-8.096 26.504-10.524 25.408-28.266 46.062-51.313 59.733zm75.563-57.944c-2.841 0-5.62-.633-8.144-1.823 1.973-5.362 3.684-10.916 5.113-16.618 1.009.061 2.019.101 3.031.101 6.506 0 12.88-1.27 18.811-3.709.155.982.259 1.975.259 2.979 0 10.516-8.554 19.07-19.07 19.07z"/><path d="m194.488 217.592c-11.726 0-21.265 9.539-21.265 21.265 0 4.142 3.357 7.5 7.5 7.5s7.5-3.358 7.5-7.5c0-3.455 2.811-6.265 6.265-6.265s6.265 2.81 6.265 6.265c0 4.142 3.357 7.5 7.5 7.5s7.5-3.358 7.5-7.5c-.001-11.726-9.54-21.265-21.265-21.265z"/><path d="m317.533 217.592c-11.726 0-21.265 9.539-21.265 21.265 0 4.142 3.357 7.5 7.5 7.5s7.5-3.358 7.5-7.5c0-3.455 2.811-6.265 6.265-6.265s6.265 2.81 6.265 6.265c0 4.142 3.357 7.5 7.5 7.5s7.5-3.358 7.5-7.5c-.001-11.726-9.54-21.265-21.265-21.265z"/><path d="m275.539 249.292c-3.123-2.723-7.86-2.397-10.581.726-2.261 2.593-5.521 4.08-8.948 4.08s-6.688-1.487-8.948-4.08c-2.72-3.122-7.459-3.447-10.581-.726-3.123 2.722-3.447 7.459-.726 10.582 5.109 5.862 12.492 9.224 20.255 9.224s15.146-3.362 20.255-9.224c2.722-3.122 2.397-7.86-.726-10.582z"/></g></g></svg>