<svg id="Capa_1" enable-background="new 0 0 511.997 511.997" height="512" viewBox="0 0 511.997 511.997" width="512" xmlns="http://www.w3.org/2000/svg"><g><g><g><path d="m365.102 504.497h-218.207c-20.105 0-36.404-16.299-36.404-36.404v-.789c0-62.109 50.349-112.458 112.458-112.458h66.1c62.109 0 112.458 50.349 112.458 112.458v.789c-.001 20.105-16.3 36.404-36.405 36.404z" fill="#fff8e6"/><path d="m210.377 426.248c0-25.938 6.772-50.291 18.631-71.402h-6.059c-62.109 0-112.458 50.349-112.458 112.458v.789c0 20.105 16.299 36.404 36.404 36.404h86.203c-14.385-22.618-22.721-49.459-22.721-78.249z" fill="#ffeab7"/></g><path d="m152.275 504.497h41.189v-145.7c-15.264 4.154-29.237 11.436-41.189 21.118z" fill="#303646"/><path d="m318.533 504.497h41.189v-124.583c-11.952-9.682-25.925-16.964-41.189-21.118z" fill="#475066"/><circle cx="89.779" cy="208.115" fill="#ffddcf" r="44.069"/><circle cx="422.217" cy="208.115" fill="#ffcbbe" r="44.069"/><g><path d="m416.909 208.115c1.386 98.41-62.501 162.296-160.911 160.911-98.41 1.385-162.296-62.502-160.911-160.911-1.386-98.41 62.501-162.299 160.911-160.91 98.41-1.386 162.297 62.499 160.911 160.91z" fill="#ffddcf"/><path d="m169.478 181.707c0-45.709 10.784-88.894 29.919-127.176-65.538 19.341-105.407 75.626-104.309 153.584-1.306 92.751 55.376 154.825 144.29 160.498-43.535-50.024-69.9-115.384-69.9-186.906z" fill="#ffcbbe"/></g><g><path d="m255.998 7.522c-90.859-1.281-156.331 45.43-178.431 122.122-5.181 17.98 7.67 36.084 26.357 37.037 2.565.131 5.148.197 7.745.197 62.66 0 116.349-38.404 138.817-92.958 2.03-4.929 8.994-4.929 11.024 0 22.468 54.554 76.157 92.958 138.817 92.958 2.598 0 5.18-.066 7.745-.197 18.688-.953 31.539-19.057 26.357-37.037-22.1-76.691-87.571-123.401-178.431-122.122z" fill="#e4996d"/><path d="m228.034 8.712c-76.261 7.755-130.705 52.355-150.467 120.932-5.181 17.98 7.67 36.084 26.357 37.037 2.565.131 5.148.197 7.745.197 20.983 0 40.95-4.325 59.085-12.102 5.126-54.647 25.686-104.798 57.28-146.064z" fill="#d97c41"/></g><circle cx="190.476" cy="232.973" fill="#c2eafb" r="34.872"/><circle cx="321.52" cy="232.973" fill="#c2eafb" r="34.872"/><path d="m222.85 356.893-13.603-7.854c-17.051-9.845-38.366 2.461-38.366 22.15v15.708c0 19.689 21.314 31.995 38.366 22.15l13.603-7.854c17.052-9.843 17.052-34.455 0-44.3z" fill="#f6334c"/><path d="m289.146 401.194 13.603 7.854c17.051 9.845 38.366-2.461 38.366-22.15v-15.708c0-19.689-21.314-31.995-38.366-22.15l-13.603 7.854c-17.051 9.844-17.051 34.456 0 44.3z" fill="#f6334c"/><circle cx="255.998" cy="379.044" fill="#fd5c6f" r="35.535"/></g><g><path d="m436.491 158.584c6.086-8.792 8.273-20.143 5.144-31.014-23.079-80.087-90.975-127.569-182.023-127.569-1.2 0-2.407.008-3.614.025-51.331-.719-96.345 13.591-130.142 41.359-3.201 2.629-3.664 7.355-1.034 10.556 2.629 3.201 7.355 3.664 10.556 1.034 31.045-25.504 72.712-38.616 120.515-37.949.07.001.142.001.212 0 1.162-.017 2.307-.025 3.46-.025 83.996 0 146.542 43.449 167.657 116.72 2.964 10.299-2.137 21.322-11.865 25.64-4.117 2.008-9.434 1.997-15.027 2.015-58.021 0-109.79-34.666-131.885-88.315-2.086-5.068-6.972-8.342-12.445-8.342-5.474 0-10.359 3.274-12.444 8.341-22.096 53.65-73.864 88.316-131.861 88.316-5.602-.018-10.93-.004-15.052-2.015-9.729-4.318-14.829-15.341-11.865-25.638 6.034-20.943 15.477-39.686 28.063-55.708 2.56-3.257 1.993-7.972-1.265-10.531-3.257-2.558-7.972-1.993-10.53 1.265-13.787 17.55-24.11 38.013-30.683 60.824-3.128 10.868-.943 22.217 5.142 31.008-21.511 6.208-37.295 26.054-37.295 49.536 0 28.436 23.135 51.57 51.57 51.57 1.158 0 2.318-.053 3.477-.131 10.718 43.027 36.522 76.977 73.564 96.881-.964 1.937-1.721 3.974-2.286 6.081-38.052 21.224-61.544 61.044-61.544 104.789v.79c0 24.207 19.698 43.9 43.91 43.9h218.199c24.212 0 43.91-19.693 43.91-43.9v-.79c0-43.745-23.492-83.566-61.544-104.789-.564-2.105-1.32-4.139-2.282-6.074 37.044-19.905 62.845-53.863 73.56-96.888 1.159.078 2.319.131 3.477.131 28.436 0 51.57-23.134 51.57-51.57-.003-23.483-15.789-43.326-37.3-49.533zm-346.712 86.102c-20.165 0-36.57-16.405-36.57-36.57s16.405-36.57 36.57-36.57c.137 0 .273.001.41.002-3.643 24.147-3.647 48.989.002 73.135-.137.003-.275.003-.412.003zm238.931 114.096c2.538 2.662 4.164 5.992 4.708 9.636.006.049.012.098.019.147.122.902.182 1.76.182 2.622v15.71c0 10.431-8.236 17.051-15.995 17.985-3.827.466-7.678-.339-11.126-2.331l-11.016-6.359c2.339-5.37 3.557-11.185 3.557-17.146 0-5.952-1.219-11.767-3.559-17.146l11.017-6.367c8.475-4.89 17.453-1.745 22.213 3.249zm-168.931 138.215v-113.426c1.179-.891 2.383-1.747 3.6-2.585v5.91c0 14.441 9.345 26.935 22.59 31.382v78.718h-26.19zm41.189-77.297c4.182-.58 8.248-1.974 12.029-4.158l11.84-6.834c8.054 8.468 19.252 13.369 31.161 13.369 11.911 0 23.111-4.903 31.162-13.368l11.838 6.833c3.784 2.184 7.85 3.578 12.03 4.159v77.296h-110.06zm83.07-40.654c0 5.567-1.622 10.933-4.699 15.528-5.222 7.829-13.947 12.502-23.341 12.502s-18.119-4.673-23.348-12.512c-3.07-4.585-4.692-9.951-4.692-15.518 0-3.316.572-6.554 1.706-9.641.748-2.051 1.755-4.037 2.979-5.879.853-1.275 1.802-2.479 2.817-3.573 5.365-5.77 12.659-8.947 20.538-8.947s15.173 3.178 20.534 8.943c1.02 1.098 1.969 2.301 2.815 3.567 3.069 4.604 4.691 9.974 4.691 15.53zm-67.523 17.146-11.017 6.359c-3.448 1.989-7.295 2.798-11.134 2.329-7.75-.933-15.986-7.553-15.986-17.984v-15.71c0-.862.06-1.719.182-2.622.007-.048.013-.096.019-.145.543-3.645 2.17-6.976 4.71-9.64 4.757-4.993 13.739-8.136 22.208-3.25l11.021 6.369c-.337.776-.651 1.559-.939 2.349-1.738 4.731-2.62 9.709-2.62 14.797-.001 5.965 1.218 11.781 3.556 17.148zm-98.526 71.905v-.79c0-26.405 9.792-51.169 26.79-70.094v99.698c-14.955-1.09-26.79-13.592-26.79-28.814zm276.019-.79v.79c0 15.222-11.836 27.724-26.79 28.814v-26.923c0-4.142-3.357-7.5-7.5-7.5s-7.5 3.358-7.5 7.5v27.009h-26.189v-78.72c13.248-4.449 22.59-16.942 22.59-31.38v-5.908c1.217.836 2.421 1.692 3.6 2.582v57.004c0 4.142 3.357 7.5 7.5 7.5s7.5-3.358 7.5-7.5v-43.37c17.003 18.922 26.789 43.694 26.789 70.102zm11.616-217.615c-8.904 42.877-33.788 76.419-70.292 94.985-10.481-7.823-24.709-8.843-36.336-2.134l-11.829 6.837c-8.094-8.5-19.42-13.373-31.169-13.373-11.748 0-23.072 4.871-31.169 13.373l-11.833-6.839c-11.623-6.707-25.853-5.687-36.333 2.136-36.503-18.565-61.387-52.108-70.293-94.991-2.719-13.032-3.992-26.981-3.783-41.46-.169-11.73.633-23.144 2.381-33.977 2.221.113 4.395.121 6.48.128h.22c31.836 0 62.511-9.449 88.709-27.325 24.563-16.761 43.733-39.845 55.621-66.929 11.888 27.082 31.058 50.167 55.621 66.929 26.198 17.876 56.873 27.325 88.734 27.325 2.164-.008 4.383-.012 6.679-.129 3.652 23.907 3.423 52.02-1.408 75.444zm16.594-5.006c-.138 0-.275-.001-.412-.002 3.649-24.146 3.645-48.988.002-73.135.137-.001.273-.002.41-.002 20.165 0 36.57 16.405 36.57 36.57 0 20.164-16.405 36.569-36.57 36.569z"/><path d="m321.521 190.601c-17.341 0-32.273 10.475-38.825 25.426-7.323-6.153-16.672-9.668-26.697-9.668s-19.372 3.519-26.695 9.672c-6.551-14.953-21.485-25.43-38.827-25.43-23.364 0-42.372 19.008-42.372 42.373s19.008 42.372 42.372 42.372c22.703 0 41.289-17.948 42.323-40.399 4.746-8.533 13.308-13.587 23.199-13.587s18.453 5.055 23.199 13.587c1.034 22.452 19.62 40.399 42.323 40.399 23.364 0 42.372-19.008 42.372-42.372s-19.008-42.373-42.372-42.373zm-131.045 69.745c-15.093 0-27.372-12.279-27.372-27.372s12.279-27.373 27.372-27.373c15.094 0 27.373 12.279 27.373 27.373 0 15.092-12.279 27.372-27.373 27.372zm131.045 0c-15.094 0-27.373-12.279-27.373-27.372s12.279-27.373 27.373-27.373c15.093 0 27.372 12.279 27.372 27.373 0 15.092-12.28 27.372-27.372 27.372z"/><path d="m190.476 219.178c-4.143 0-7.5 3.358-7.5 7.5v12.591c0 4.142 3.357 7.5 7.5 7.5s7.5-3.358 7.5-7.5v-12.591c0-4.142-3.358-7.5-7.5-7.5z"/><path d="m321.521 219.178c-4.143 0-7.5 3.358-7.5 7.5v12.591c0 4.142 3.357 7.5 7.5 7.5s7.5-3.358 7.5-7.5v-12.591c0-4.142-3.358-7.5-7.5-7.5z"/><path d="m278.2 255.659c-3.125-2.721-7.86-2.396-10.582.727-2.934 3.366-7.169 5.297-11.62 5.297s-8.687-1.931-11.62-5.297c-2.722-3.124-7.46-3.448-10.582-.727s-3.448 7.459-.727 10.582c5.783 6.636 14.141 10.442 22.929 10.442s17.145-3.806 22.929-10.442c2.722-3.123 2.395-7.861-.727-10.582z"/></g></g></svg>