<svg id="Capa_1" enable-background="new 0 0 512.103 512.103" height="512" viewBox="0 0 512.103 512.103" width="512" xmlns="http://www.w3.org/2000/svg"><g><g><g><path d="m365.361 494.015h-218.613c-20.105 0-36.404-16.299-36.404-36.404v-.997c0-62.109 50.349-112.458 112.458-112.458h66.506c62.109 0 112.458 50.349 112.458 112.458v.997c-.001 20.105-16.3 36.404-36.405 36.404z" fill="#fff8e6"/><path d="m203.132 419.085c0-26.774 5.97-52.151 16.633-74.888-60.705 1.609-109.421 51.323-109.421 112.416v.997c0 20.105 16.299 36.404 36.404 36.404h73.037c-10.676-22.747-16.653-48.138-16.653-74.929z" fill="#ffeab7"/></g><path d="m150.016 494.015h36.301v-143.713c-13.431 4.634-25.71 11.734-36.301 20.76z" fill="#f6334c"/><path d="m280.453 494.015h-48.798c-6.818 0-12.176-5.834-11.597-12.628l8.951-104.97h54.09l8.951 104.97c.579 6.794-4.778 12.628-11.597 12.628z" fill="#ff97c1"/><circle cx="256.054" cy="367.972" fill="#ff71a8" r="31.838"/><path d="m325.792 494.015h36.302v-122.954c-10.591-9.025-22.871-16.125-36.302-20.76z" fill="#fd5c6f"/><path d="m39.376 350.986-.396.087c-4.754 1.05-9.459-1.953-10.509-6.706l-18.192-82.36c-13.984-63.311 26.003-125.971 89.314-139.955l28.571-6.311 15.771 71.401c16.372 74.118-30.441 147.473-104.559 163.844z" fill="#af602d"/><path d="m472.732 350.986.396.087c4.754 1.05 9.459-1.953 10.509-6.706l18.192-82.36c13.984-63.311-26.003-125.971-89.314-139.955l-28.571-6.311-15.771 71.401c-16.371 74.118 30.442 147.473 104.559 163.844z" fill="#d97c41"/><circle cx="97.193" cy="211.259" fill="#ffddcf" r="42.119"/><circle cx="414.916" cy="211.259" fill="#ffcbbe" r="42.119"/><g><path d="m409.842 211.258c1.324 94.054-59.734 155.112-153.788 153.788-94.054 1.324-155.112-59.735-153.788-153.788-1.325-94.054 59.735-155.115 153.788-153.788 94.054-1.324 155.113 59.734 153.788 153.788z" fill="#ffddcf"/><path d="m180.155 173.85c0-38.752 7.752-75.69 21.768-109.367-62.615 18.496-100.706 72.283-99.656 146.775-1.314 93.32 58.793 154.148 151.602 153.796-45.806-50.548-73.714-117.616-73.714-191.204z" fill="#ffcbbe"/></g><g><path d="m288.754 18.088h-65.4c-67.696 0-122.574 54.878-122.574 122.574v49.173c0 5.205 4.22 9.425 9.425 9.425h68.699c3.497 0 6.331-2.834 6.331-6.331v-51.3c0-7.157 5.802-12.96 12.96-12.96 7.157 0 12.96 5.802 12.96 12.96v51.3c0 3.497 2.834 6.331 6.331 6.331h184.417c5.205 0 9.425-4.22 9.425-9.425v-49.173c0-67.696-54.878-122.574-122.574-122.574z" fill="#e4996d"/><g><path d="m165.271 189.835v-49.173c0-67.696 54.878-122.574 122.574-122.574h-64.49c-67.696 0-122.574 54.878-122.574 122.574v49.173c0 5.205 4.22 9.425 9.425 9.425h64.49c-5.205 0-9.425-4.22-9.425-9.425z" fill="#d97c41"/></g></g></g><g><path d="m190.351 254.484c4.142 0 7.5-3.358 7.5-7.5v-12.625c0-4.142-3.358-7.5-7.5-7.5s-7.5 3.358-7.5 7.5v12.625c0 4.142 3.358 7.5 7.5 7.5z"/><path d="m321.758 254.484c4.142 0 7.5-3.358 7.5-7.5v-12.625c0-4.142-3.358-7.5-7.5-7.5s-7.5 3.358-7.5 7.5v12.625c0 4.142 3.358 7.5 7.5 7.5z"/><path d="m278.304 263.435c-3.123-2.721-7.86-2.396-10.582.727-2.946 3.38-7.198 5.319-11.668 5.319s-8.722-1.938-11.668-5.319c-2.721-3.123-7.459-3.448-10.582-.727s-3.448 7.458-.727 10.582c5.795 6.65 14.169 10.464 22.977 10.464 8.807 0 17.182-3.814 22.977-10.464 2.721-3.123 2.396-7.861-.727-10.582z"/><path d="m416.339 115.245c-5.621-28.31-20.639-54.117-42.664-73.116-23.579-20.337-53.737-31.538-84.92-31.538h-65.4c-31.183 0-61.341 11.201-84.92 31.538-22.027 19-37.045 44.808-42.666 73.125-20.501 4.922-39.47 14.939-54.973 29.086-3.06 2.792-3.277 7.536-.485 10.595 1.479 1.622 3.507 2.445 5.542 2.445 1.805 0 3.615-.647 5.053-1.96 12.203-11.135 26.851-19.364 42.723-24.076-.219 3.102-.344 6.213-.344 9.317v21.148c-25.538 2.002-45.71 23.408-45.71 49.452 0 27.361 22.259 49.62 49.62 49.62 1.02 0 2.038-.043 3.055-.107 3.076 12.272 7.443 23.83 13.024 34.499-18.613 24.589-45.26 41.705-75.585 48.4l-.32.074c-.71.16-1.416-.289-1.571-.994l-18.19-82.36c-5.988-27.104-1.576-55.216 12.425-79.158 2.091-3.576.888-8.169-2.688-10.26-3.577-2.092-8.17-.887-10.26 2.688-15.914 27.212-20.929 59.163-14.124 89.966 0 0 18.179 82.312 18.19 82.362 4.779 21.637 33.873 9.152 46.415 3.705 10.521-4.569 20.493-10.395 29.637-17.321 2.522-1.91 25.885-20.948 24.284-23.31 11.582 17.089 26.775 31.245 44.737 41.752-16.417 8.768-30.575 21.239-41.475 36.675-14.33 20.294-21.905 44.195-21.905 69.12v1c0 24.207 19.693 43.9 43.9 43.9h218.62c24.207 0 43.9-19.693 43.9-43.9v-1c0-24.925-7.575-48.826-21.905-69.12-10.9-15.437-25.064-27.902-41.483-36.67 17.966-10.508 33.163-24.666 44.746-41.757-.485.716 8.687 9.637 9.633 10.578 3.432 3.413 7.035 6.655 10.791 9.707 7.492 6.087 15.596 11.418 24.151 15.889 6.444 3.367 13.143 6.246 20.02 8.605 7.016 2.407 14.948 5.959 22.538 4.706 6.468-1.068 11.793-6.176 13.203-12.56 0 0 18.189-82.359 18.189-82.359 14.694-66.504-26.836-132.561-92.808-148.386zm1.006 96.021c.067-4.675-.03-9.351-.27-13.945 1.144-2.312 1.749-4.852 1.749-7.49v-12.952c17.254 1.949 30.71 16.616 30.71 34.382 0 19.089-15.53 34.62-34.62 34.62-.007 0-.013-.001-.02-.001 1.775-11.086 2.609-22.687 2.451-34.614zm-309.061-70.605c0-6.037.471-12.106 1.399-18.034 8.85-56.227 56.655-97.036 113.671-97.036h65.4c57.016 0 104.821 40.81 113.67 97.03.929 5.934 1.4 12.003 1.4 18.04v49.17c0 .43-.126.816-.375 1.151-.175.234-.674.779-1.545.779h-183.25v-50.13c0-5.477-2.134-10.617-5.985-14.452-3.857-3.875-8.998-6.008-14.475-6.008-11.282 0-20.46 9.178-20.46 20.46v50.13h-67.53c-.871 0-1.37-.545-1.544-.779-.001-.001-.001-.002-.002-.002-.248-.333-.374-.719-.374-1.149zm240.94 100.01c0 15.147-12.323 27.47-27.47 27.47s-27.47-12.323-27.47-27.47 12.323-27.47 27.47-27.47 27.47 12.323 27.47 27.47zm-66.392-16.967c-7.342-6.175-16.722-9.7-26.778-9.7-10.055 0-19.433 3.529-26.777 9.701-2.975-6.797-7.671-12.675-13.545-17.067.576.073 1.158.124 1.753.124h78.734c-5.8 4.377-10.44 10.207-13.387 16.942zm-76.228-22.265c-4.624-1.922-9.658-3.042-14.93-3.204.681-1.634 1.061-3.425 1.061-5.303v-51.3c0-3.011 2.449-5.46 5.46-5.46 1.458 0 2.823.565 3.868 1.615 1.026 1.022 1.592 2.388 1.592 3.845v51.3c0 3.208 1.108 6.158 2.949 8.507zm-16.25 11.762c15.147 0 27.47 12.323 27.47 27.47s-12.323 27.47-27.47 27.47-27.47-12.323-27.47-27.47 12.323-27.47 27.47-27.47zm-127.78-1.94c0-17.767 13.455-32.444 30.71-34.393v12.963c0 2.638.605 5.178 1.749 7.49-.24 4.594-.337 9.27-.27 13.945-.158 11.927.677 23.527 2.451 34.615-.007 0-.013.001-.02.001-19.089-.001-34.62-15.531-34.62-34.621zm255.721 275.25h-19.161c.416-1.874.559-3.815.393-5.758l-8.155-95.494c2.438-4.968 3.793-10.42 3.98-15.968 7.924-1.487 15.599-3.479 22.943-5.962zm-83.225-106.208c-.053-.103-.108-.205-.166-.306-1.525-2.667-2.508-5.511-2.939-8.494 15.981 1.502 32.195 1.5 48.178 0-.431 2.982-1.414 5.828-2.939 8.494-.057.1-.112.2-.164.303-4.364 7.417-12.375 12.011-20.986 12.011-8.609 0-16.619-4.593-20.984-12.008zm-18.313-11.012c.187 5.548 1.543 10.999 3.98 15.968l-8.156 95.494c-.166 1.944-.023 3.884.393 5.758h-19.161v-123.184c7.358 2.487 15.028 4.479 22.944 5.964zm-59.243 117.22v-111.918c6.579-5.256 13.71-9.672 21.3-13.191v125.109zm-39.67-28.9v-1c0-25.126 9.129-48.894 24.67-67.449v97.037c-13.937-2.054-24.67-14.089-24.67-28.588zm113.811 28.9c-1.587 0-2.595-.84-3.055-1.341-.458-.499-1.207-1.57-1.072-3.141l6.935-81.204c6.319 4.151 13.801 6.486 21.592 6.486 7.792 0 15.273-2.335 21.592-6.486l6.935 81.204c.134 1.571-.614 2.642-1.072 3.141-.46.501-1.468 1.341-3.055 1.341zm162.609-29.9v1c0 14.499-10.733 26.534-24.67 28.587v-45.983c0-4.142-3.358-7.5-7.5-7.5s-7.5 3.358-7.5 7.5v46.295h-21.3v-125.108c7.589 3.519 14.721 7.935 21.3 13.191v36.793c0 4.142 3.358 7.5 7.5 7.5s7.5-3.358 7.5-7.5v-22.224c15.541 18.555 24.67 42.323 24.67 67.449zm-68.632-112.221c-40.452 17.932-98.672 17.941-139.155 0-25.075-11.17-44.531-28.735-57.829-52.208-7.026-12.389-12.167-26.27-15.28-41.254-2.582-12.442-3.794-25.753-3.604-39.563.001-.071.001-.143 0-.215-.022-1.469-.02-2.936-.008-4.402.15.004.299.013.449.013h54.614c-10.277 7.759-16.934 20.07-16.934 33.91 0 23.418 19.052 42.47 42.47 42.47 22.759 0 41.39-17.996 42.42-40.505 4.763-8.561 13.354-13.632 23.28-13.632 9.925 0 18.517 5.071 23.28 13.632 1.03 22.509 19.661 40.505 42.42 40.505 23.418 0 42.47-19.052 42.47-42.47 0-13.84-6.657-26.151-16.934-33.91h54.614c.148 0 .295-.009.443-.013.011 1.466.02 2.933-.002 4.401-.001.072-.001.144 0 .215.19 13.81-1.022 27.121-3.604 39.562-3.113 14.986-8.254 28.867-15.282 41.259-13.297 23.47-32.753 41.035-57.828 52.205zm168.869-83.996-18.189 82.358c-.156.706-.863 1.153-1.502 1.011l-.458-.105c-30.26-6.68-56.903-23.795-75.516-48.384 5.581-10.669 9.948-22.226 13.023-34.495 1.017.062 2.036.103 3.056.103 27.361 0 49.62-22.259 49.62-49.62 0-26.043-20.173-47.44-45.71-49.442v-21.158c0-3.103-.125-6.213-.344-9.315 54.746 16.224 88.524 72.45 76.02 129.047z"/></g></g></svg>