<svg id="Capa_1" enable-background="new 0 0 511.993 511.993" height="512" viewBox="0 0 511.993 511.993" width="512" xmlns="http://www.w3.org/2000/svg"><g><g><g><path d="m365.183 504.493h-218.373c-20.105 0-36.404-16.299-36.404-36.404v-.874c0-62.109 50.349-112.458 112.458-112.458h66.265c62.109 0 112.458 50.349 112.458 112.458v.874c0 20.105-16.299 36.404-36.404 36.404z" fill="#5d6a85"/><path d="m191.258 406.867c0-17.423 2.973-34.149 8.421-49.712-50.985 10.687-89.273 55.899-89.273 110.06v.874c0 20.105 16.299 36.404 36.404 36.404h80.445c-22.441-26.274-35.997-60.364-35.997-97.626z" fill="#475066"/></g><g><path d="m311.532 429.625h-111.07c-16.641 0-30.131 13.49-30.131 30.131v44.737h171.331v-44.737c0-16.641-13.49-30.131-30.13-30.131z" fill="#f6ca56"/><path d="m193.117 430.531c-13.09 3.28-22.786 15.118-22.786 29.225v44.737h56.925c-17.592-20.596-29.719-45.996-34.139-73.962z" fill="#f1b70b"/></g><path d="m231.371 354.757h49.251v149.735h-49.251z" fill="#f9ee80"/><circle cx="97.266" cy="221.97" fill="#ffddcf" r="42.084"/><circle cx="414.727" cy="221.97" fill="#ffcbbe" r="42.084"/><path d="m368.109 40.104c-2.243-2.528-6.008-3.576-9.234-2.57-46.998 14.643-76.944 48.73-86.216 82.73-9.63 33.901-1.602 78.56 31.073 115.381 2.243 2.528 6.008 3.576 9.234 2.57 46.998-14.644 76.945-48.732 86.216-82.732 9.629-33.901 1.601-78.559-31.073-115.379z" fill="#f6ca56"/><path d="m112.811 155.482c9.271 34 39.218 68.088 86.216 82.732 3.227 1.005 6.991-.042 9.234-2.57 32.674-36.821 40.702-81.48 31.073-115.381-9.271-34-39.218-68.086-86.216-82.73-3.227-1.005-6.991.043-9.234 2.57-32.674 36.821-40.702 81.479-31.073 115.379z" fill="#f1b70b"/><path d="m260.789 8.868c-2.839-1.834-6.747-1.834-9.585 0-41.35 26.71-61.059 67.578-60.874 102.819-.187 35.241 19.523 76.112 60.874 102.823 2.839 1.834 6.747 1.834 9.585 0 41.35-26.71 61.06-67.58 60.874-102.821.186-35.241-19.523-76.111-60.874-102.821z" fill="#fad989"/><g><path d="m406.018 181.424h-300.043c-2.588 12.683-3.841 26.229-3.639 40.546-1.323 93.975 59.685 154.984 153.661 153.661 93.976 1.323 154.984-59.685 153.661-153.661.201-14.317-1.052-27.864-3.64-40.546z" fill="#ffddcf"/><path d="m171.962 189.423c0-2.676.044-5.341.118-7.999h-66.105c-2.588 12.683-3.841 26.229-3.639 40.546-1.251 88.862 53.236 148.236 138.624 153.317-42.997-49.888-68.998-114.838-68.998-185.864z" fill="#ffcbbe"/></g><g><path d="m405.419 206.466h-298.845c-6.567 0-11.89-5.323-11.89-11.89v-34.365c0-6.567 5.323-11.89 11.89-11.89h298.845c6.567 0 11.89 5.323 11.89 11.89v34.365c0 6.567-5.323 11.89-11.89 11.89z" fill="#c2eafb"/><path d="m171.962 189.423c0-13.96 1.023-27.679 2.963-41.102h-68.352c-6.567 0-11.89 5.323-11.89 11.89v34.365c0 6.567 5.323 11.89 11.89 11.89h65.91c-.332-5.64-.521-11.319-.521-17.043z" fill="#78cbed"/></g><path d="m295.086 210.695h-78.178c-8.876 0-16.071-7.195-16.071-16.071v-34.461c0-8.876 7.195-16.071 16.071-16.071h78.178c8.876 0 16.071 7.195 16.071 16.071v34.461c0 8.876-7.196 16.071-16.071 16.071z" fill="#78cbed"/><g fill="#ffa1ac"><ellipse cx="175.813" cy="279.311" rx="23.561" ry="29.586" transform="matrix(.002 -1 1 .002 -103.883 454.511)"/><ellipse cx="336.18" cy="279.662" rx="23.561" ry="29.586" transform="matrix(.002 -1 1 .002 55.783 615.229)"/></g></g><g><path d="m424.807 173.42v-13.207c0-9.245-6.508-16.986-15.18-18.916 4.481-36.305-8.589-75.393-35.905-106.166-4.179-4.72-11.038-6.631-17.076-4.759-16.19 5.044-30.927 12.414-43.946 21.934-11.24-19.599-27.626-36.67-47.835-49.728-5.304-3.437-12.432-3.437-17.727-.006-20.215 13.052-36.602 30.12-47.843 49.721-13.025-9.515-27.765-16.879-43.954-21.923-6.031-1.871-12.891.04-17.063 4.753-7.342 8.271-13.731 17.201-18.991 26.541-2.032 3.609-.754 8.183 2.855 10.215s8.182.755 10.215-2.855c4.737-8.413 10.503-16.468 17.145-23.95.279-.315.982-.505 1.384-.381 15.453 4.814 29.421 11.942 41.601 21.221-6.412 14.982-9.739 30.695-9.661 45.73-.049 9.647 1.28 19.423 3.908 29.178h-69.311c-1.893-13.897-.824-28.754 3.173-43.352 1.094-3.995-1.258-8.121-5.253-9.215-3.995-1.091-8.121 1.258-9.215 5.253-4.381 16-5.645 32.347-3.764 47.788-8.671 1.93-15.178 9.672-15.178 18.916v13.227c-22.638 4.68-39.5 24.764-39.5 48.532 0 27.338 22.242 49.58 49.58 49.58 1.022 0 2.042-.041 3.061-.103 9.88 39.382 32.903 70.712 65.94 89.996-16.41 8.767-30.569 21.223-41.463 36.653-14.326 20.291-21.898 44.19-21.898 69.115v.88c0 24.207 19.693 43.9 43.9 43.9h218.38c24.207 0 43.9-19.693 43.9-43.9v-.88c0-19.871-4.96-39.558-14.345-56.933-1.968-3.645-6.52-5.004-10.163-3.035-3.645 1.969-5.003 6.519-3.035 10.163 8.206 15.192 12.543 32.415 12.543 49.805v.88c0 15.936-12.964 28.9-28.9 28.9h-16.02v-37.24c0-20.749-16.881-37.63-37.63-37.63h-23.41v-41.04c14.394-2.108 27.994-5.838 40.547-11.121 12.899 5.239 24.473 12.898 34.437 22.799 1.463 1.454 3.375 2.18 5.287 2.18 1.927 0 3.854-.738 5.32-2.214 2.919-2.938 2.904-7.687-.034-10.606-8.359-8.306-17.718-15.223-27.937-20.687 33.029-19.287 56.044-50.613 65.92-89.984 1.019.062 2.039.103 3.061.103 27.338 0 49.58-22.242 49.58-49.58 0-23.77-16.859-43.874-39.5-48.552zm-15 21.153c0 1.885-1.193 3.555-2.985 4.163-.441.151-.914.228-1.405.228h-87.174c.269-1.423.414-2.875.414-4.34v-34.46c0-1.003-.069-2.034-.2-3.027-.056-.442-.146-.876-.227-1.312h87.187c2.421 0 4.39 1.969 4.39 4.39zm-198.686 6.368c-1.796-1.65-2.785-3.894-2.785-6.318v-12.59-21.87c-.095-4.577 3.965-8.673 8.57-8.57h78.18c2.151 0 4.206.799 5.796 2.262 1.486 1.36 2.442 3.198 2.699 5.209.051.385.076.744.076 1.098v34.46c0 2.424-.989 4.667-2.786 6.319-1.579 1.452-3.633 2.251-5.784 2.251h-78.18c-2.152.001-4.206-.798-5.786-2.251zm149.979-156.245c.41-.127 1.111.064 1.397.386 24.818 27.958 36.559 63.31 32.085 95.741h-69.308c2.627-9.744 3.941-19.501 3.892-29.091.078-15.102-3.257-30.819-9.666-45.798 12.177-9.285 26.144-16.423 41.6-21.238zm-163.273 66.948c-.076-14.679 3.61-30.125 10.659-44.67 0 0 0 0 0-.001 0 0 0-.001.001-.001 9.952-20.549 26.131-38.46 46.798-51.805.359-.232 1.064-.233 1.432.005 20.66 13.349 36.84 31.265 46.791 51.812 7.049 14.544 10.735 29.991 10.659 44.747.049 9.576-1.474 19.34-4.506 29.092h-1.146c-3.924-2.731-8.582-4.23-13.429-4.23h-52.03-26.15c-4.791.011-9.539 1.498-13.473 4.23h-1.113c-3.032-9.761-4.542-19.539-4.493-29.179zm-95.641 48.569c0-2.421 1.969-4.39 4.39-4.39h87.164c-.77 2.61-.272 23.095-.404 26.21.105 3.169-.32 13.964.415 16.93h-87.174c-.491 0-.963-.077-1.422-.233-1.775-.602-2.968-2.272-2.968-4.157v-34.36zm-39.5 61.76c0-15.497 10.271-28.748 24.5-33.079v5.679c0 6.258 2.995 11.984 7.821 15.57-.166 3.909-.228 7.87-.172 11.834-.159 11.948.674 23.536 2.445 34.575-.005 0-.01 0-.015 0-19.066.001-34.579-15.512-34.579-34.579zm210.44 275.02h-34.26v-114.335c11.209.701 23.019.711 34.26.002zm-155.219-28.9v-.88c0-42.569 26.165-81.274 65.411-97.252 12.955 5.445 26.643 9.073 40.549 11.121v41.04h-23.41c-20.749 0-37.63 16.881-37.63 37.63v37.24h-16.02c-15.936.001-28.9-12.963-28.9-28.899zm59.92-8.34c0-12.478 10.152-22.63 22.63-22.63h23.41v59.87h-46.04zm133.709-22.63c12.478 0 22.63 10.152 22.63 22.63v37.24h-46.04v-59.87zm87.017-175.526c-8.988 43.256-34.941 76.428-73.081 93.406-40.294 17.885-98.648 17.891-138.956-.001-38.136-16.977-64.089-50.148-73.079-93.41-2.581-12.375-3.793-25.669-3.603-39.516.001-.071.001-.142 0-.212-.039-2.643-.014-5.28.056-7.9h93.587c3.924 2.731 8.582 4.23 13.429 4.23h78.18c4.847 0 9.506-1.499 13.429-4.23h93.586c.07 2.62.095 5.257.057 7.9-.001.071-.001.142 0 .212.19 13.846-1.023 27.141-3.605 39.521zm16.173-5.044c-.005 0-.01 0-.015 0 1.771-11.041 2.604-22.628 2.446-34.575.056-3.965-.006-7.927-.172-11.837 4.83-3.589 7.821-9.312 7.821-15.567v-5.682c14.23 4.331 24.5 17.585 24.5 33.082.001 19.066-15.512 34.579-34.58 34.579z"/><path d="m193.34 242.238c-4.142 0-7.5 3.358-7.5 7.5v12.023c0 4.142 3.358 7.5 7.5 7.5s7.5-3.358 7.5-7.5v-12.023c0-4.142-3.358-7.5-7.5-7.5z"/><path d="m318.48 242.238c-4.142 0-7.5 3.358-7.5 7.5v12.023c0 4.142 3.358 7.5 7.5 7.5s7.5-3.358 7.5-7.5v-12.023c0-4.142-3.358-7.5-7.5-7.5z"/><path d="m285.059 261.43c-4.142 0-7.5 3.358-7.5 7.5 0 3.851-3.133 6.983-6.983 6.983-3.851 0-6.984-3.133-6.984-6.983 0-4.142-3.358-7.5-7.5-7.5s-7.5 3.358-7.5 7.5c0 3.851-3.133 6.983-6.983 6.983-3.851 0-6.984-3.133-6.984-6.983 0-4.142-3.358-7.5-7.5-7.5s-7.5 3.358-7.5 7.5c0 12.122 9.862 21.983 21.984 21.983 5.544 0 10.612-2.068 14.483-5.466 3.871 3.399 8.939 5.466 14.484 5.466 12.122 0 21.983-9.862 21.983-21.983 0-4.142-3.357-7.5-7.5-7.5z"/></g></g></svg>