<svg id="Capa_1" enable-background="new 0 0 512.008 512.008" height="512" viewBox="0 0 512.008 512.008" width="512" xmlns="http://www.w3.org/2000/svg"><g><g><path d="m373.401 504.508h-219.383c-20.105 0-36.404-16.299-36.404-36.404v-1.393c0-62.109 50.349-112.458 112.458-112.458h67.276c62.109 0 112.458 50.349 112.458 112.458v1.393c-.001 20.105-16.299 36.404-36.405 36.404z" fill="#c2eafb"/><ellipse cx="263.71" cy="377.202" fill="#ffcbbe" rx="68.338" ry="52.136"/><g><path d="m219.176 504.508c6.208-17.554 9.723-37.51 9.723-58.679 0-34.441-9.295-65.676-24.381-88.56-49.821 11.746-86.903 56.489-86.903 109.897v.792c0 20.187 16.365 36.551 36.551 36.551h65.01z" fill="#fad989"/><path d="m179.706 422.613c0-22.47 5.339-43.691 14.808-62.474-44.698 15.034-76.9 57.261-76.9 107.026v.792c0 20.187 16.364 36.551 36.551 36.551h52.233c-16.78-22.968-26.692-51.272-26.692-81.895z" fill="#f6ca56"/></g><path d="m322.902 357.269c-15.086 22.885-24.381 54.119-24.381 88.56 0 21.169 3.515 41.125 9.723 58.679h65.01c20.187 0 36.551-16.365 36.551-36.551v-.792c0-53.408-37.082-98.15-86.903-109.896z" fill="#fad989"/><circle cx="96.819" cy="215.965" fill="#ffddcf" r="44.247"/><circle cx="430.601" cy="215.965" fill="#ffcbbe" r="44.247"/><g><path d="m425.271 215.965c1.391 98.807-62.754 162.952-161.561 161.561-98.807 1.391-162.952-62.754-161.561-161.561-1.392-98.807 62.754-162.954 161.561-161.561 98.807-1.391 162.952 62.753 161.561 161.561z" fill="#ffddcf"/><path d="m176.101 177.409c0-39.176 6.748-76.771 19.108-111.713-58.829 22.414-94.096 76.739-93.06 150.27-1.286 91.313 53.404 153.017 139.696 160.754-41.303-55.696-65.744-124.647-65.744-199.311z" fill="#ffcbbe"/></g><path d="m347.879 43.744c-32.57-17.252-72.069 6.111-72.327 42.967-.002.228-.002.455-.002.683 0 59.998 55.266 108.637 123.44 108.637 9.202 0 18.167-.888 26.793-2.57 6.02-1.174 10.194-6.75 9.547-12.849-6.665-62.778-38.187-110.773-87.451-136.868z" fill="#d97c41"/><g><path d="m166.137 19.663c-52.802 18.576-90.987 46.866-93.333 89.567-.15 2.734-1.913 5.085-4.497 5.992-.015.005-.029.01-.044.016-21.9 7.705-35.285 26.367-29.896 41.684 4.742 13.478 22.439 19.869 41.541 15.962-.252 3.035.094 6.046 1.111 8.939 5.389 15.317 27.51 21.488 49.41 13.783.115-.04.229-.081.343-.122 3.197-1.148 6.653-1.265 9.921-.34 26.269 7.429 57.315 6.657 87.883-4.097 65.602-23.079 104.153-83.377 86.105-134.678-18.047-51.303-82.942-59.785-148.544-36.706z" fill="#e4996d"/><path d="m176.101 177.409c0-61.893 16.807-119.852 46.076-169.598-17.859 1.085-36.919 5.125-56.04 11.852-52.802 18.576-90.987 46.866-93.333 89.567-.15 2.734-1.913 5.085-4.497 5.992-.015.005-.029.01-.044.016-21.9 7.705-35.285 26.367-29.896 41.684 4.742 13.478 22.439 19.869 41.541 15.962-.252 3.035.094 6.046 1.111 8.939 5.389 15.317 27.51 21.488 49.41 13.783.115-.04.229-.081.343-.122 3.197-1.148 6.653-1.265 9.921-.34 11.315 3.2 23.517 4.874 36.184 4.888-.498-7.479-.776-15.018-.776-22.623z" fill="#d97c41"/></g></g><g><path d="m440.767 165.24c-9.912-57.398-41.495-102.756-89.373-128.118-12.962-6.871-27.403-8.45-41.242-4.675-13.221-17.069-33.742-27.849-59.776-31.264-25.877-3.394-55.865.548-86.725 11.4-9.183 3.231-17.843 6.725-25.74 10.385-3.758 1.742-5.392 6.201-3.65 9.959 1.743 3.758 6.201 5.394 9.959 3.65 7.463-3.46 15.676-6.772 24.409-9.845 59.33-20.866 111.28-13.56 132.355 18.624 2.672 4.066 4.9 8.608 6.62 13.493.435 1.24.837 2.494 1.196 3.734 7.354 25.27.122 53.815-19.844 78.316 0 0-.001.001-.001.001s-.001.001-.001.001c-15.644 19.215-37.381 34.108-62.862 43.07-27.975 9.837-57.58 11.24-83.393 3.939-5.399-1.621-11.227-.855-16.427 1.153-12.847 4.406-33.214 3.26-38.18-9.743-.666-1.9-.867-3.8-.706-5.837.522-4.819-4.259-9.051-8.979-7.955-15.453 3.163-29.623-1.609-32.962-11.103-1.77-5.029-.445-11.007 3.732-16.833 4.758-6.636 12.419-12.063 21.571-15.281.067-.023.134-.048.201-.074 5.367-1.947 9.026-6.874 9.34-12.599 1.199-21.8 12.585-40.225 34.809-56.327 3.354-2.43 4.104-7.12 1.673-10.474-2.43-3.355-7.119-4.103-10.474-1.673-25.588 18.54-39.365 41.13-40.957 67.149-11.842 4.252-21.898 11.533-28.354 20.538-7.113 9.921-9.134 20.772-5.691 30.552 3.898 11.085 14.399 18.668 27.741 21.183-8.807 9.39-13.965 21.924-13.965 35.379 0 28.53 23.215 51.74 51.75 51.74 1.174 0 2.346-.054 3.517-.137 10.396 41.803 34.909 75.002 70.129 95.23-37.095 21.292-60.356 60.766-60.356 104.367v.79c0 24.289 19.761 44.05 44.05 44.05h219.09c24.289 0 44.05-19.761 44.05-44.05v-.79c0-19.354-4.454-37.839-13.237-54.941-1.894-3.685-6.415-5.137-10.099-3.245-3.685 1.893-5.137 6.414-3.245 10.098 7.685 14.961 11.581 31.14 11.581 48.088v.79c0 16.018-13.031 29.05-29.05 29.05h-58.94-.667c-4.997-15.902-7.623-33.479-7.623-51.18 0-7.936.52-15.844 1.546-23.52 2.097-15.907 6.29-30.744 12.424-44.18 4.549-1.262 9.012-2.69 13.303-4.275 2.38-.881 4.715-1.81 6.982-2.773 12.318 5.56 23.326 13.349 32.754 23.192 1.473 1.538 3.443 2.312 5.417 2.312 1.865 0 3.733-.692 5.187-2.083 2.991-2.865 3.094-7.613.229-10.604-8.008-8.36-17.027-15.406-26.91-21.091 35.223-20.228 59.737-53.428 70.131-95.227 1.171.081 2.344.131 3.518.131 28.535 0 51.75-23.21 51.75-51.74-.001-24.741-17.841-45.956-41.585-50.727zm-117.562-106.842c-.435-1.497-.921-3.015-1.449-4.521-.96-2.726-2.057-5.365-3.272-7.913 8.78-1.392 17.729.086 25.888 4.411 45.079 23.879 74.357 67.412 82.438 122.574.417 2.858.774 5.699 1.064 8.452.234 2.202-1.313 4.264-3.563 4.702-.389.078-.777.146-1.256.23-7.854 1.456-15.95 2.194-24.062 2.194-2.527 0-5.001-.07-7.38-.209-34.948-1.912-67.169-17.745-87.366-42.658 20.31-27.333 27.23-58.84 18.958-87.262zm-263.134 157.57c0-11.808 5.601-22.612 14.77-29.442 3.549 7.904 10.593 13.921 19.985 17.184-.168 4.066-.235 8.167-.177 12.259-.176 12.663.724 24.972 2.641 36.721-.157.002-.313.018-.47.018-20.263 0-36.749-16.481-36.749-36.74zm94.09 281.04c-16.018 0-29.05-13.032-29.05-29.05v-.79c0-41.659 24.241-79.034 62.025-96.089.158.067.322.131.481.197.814.342 1.637.68 2.469 1.013.297.119.592.238.891.355 1.035.407 2.077.809 3.134 1.201.006.002.012.005.018.007h.001l.015.006c4.353 1.6 8.807 3.026 13.282 4.271 2.571 5.631 4.841 11.568 6.725 17.739 2.588 8.439 4.507 17.334 5.706 26.455 1.025 7.666 1.544 15.574 1.544 23.506 0 17.685-2.63 35.263-7.632 51.18h-59.609zm139.15-80.85c-9.033 3.723-19.182 5.681-29.599 5.681-10.414 0-20.559-1.956-29.588-5.676-1.312-8.472-3.199-16.76-5.629-24.684-.97-3.177-2.035-6.302-3.181-9.37 3.368.579 6.755 1.091 10.157 1.486 21.884 2.544 44.91 2.251 66.637-1.488-4.005 10.721-6.952 22.115-8.797 34.051zm-63.883 80.85c4.626-16.187 6.974-33.353 6.974-51.18 0-4.383-.151-8.76-.442-13.1 8.785 2.702 18.189 4.11 27.752 4.11 9.562 0 18.967-1.408 27.751-4.11-.291 4.341-.442 8.717-.442 13.1 0 17.84 2.344 35.006 6.965 51.18zm184.539-239.304c-9.408 45.338-36.529 80.197-76.371 98.179-.091.038-.183.077-.272.119-.047.02-.094.041-.141.062-2.887 1.305-5.947 2.556-9.092 3.72-4.894 1.808-10.04 3.406-15.297 4.749-.009.002-.021.005-.032.008-.1.021-.199.044-.299.069-24.254 6.063-50.443 7.054-75.236 4.089-7.683-.894-15.29-2.295-22.61-4.167-5.148-1.315-10.296-2.915-15.284-4.747-3.152-1.167-6.212-2.418-9.094-3.721-.045-.021-.089-.04-.135-.06-.09-.042-.182-.081-.273-.119-39.846-17.98-66.967-52.839-76.378-98.189-2.732-13.089-4.012-27.092-3.803-41.62-.041-3.233-.026-6.473.078-9.693 6.58.171 13.187-.698 19.509-2.536 3.076-.804 6.176-2.56 9.413-1.492 28.729 8.126 61.553 6.623 92.419-4.231 24.94-8.772 46.675-22.782 63.41-40.761 22.922 26.86 58.225 43.851 96.284 45.933 2.642.154 5.41.233 8.229.233 6.215 0 12.421-.399 18.517-1.167.229 4.449.329 8.959.263 13.499-.001.072-.001.145 0 .217.209 14.524-1.07 28.527-3.805 41.626zm16.634-4.996c-.157 0-.313-.014-.47-.017 1.918-11.754 2.818-24.063 2.641-36.724.08-5.7-.064-11.372-.417-16.937 6.484-3.355 10.712-10.235 10.523-17.686 14.274 5.103 24.473 18.854 24.473 34.623 0 20.26-16.486 36.741-36.75 36.741z"/><path d="m329.501 220.498c-17.416 0-32.412 10.529-38.977 25.551-7.354-6.186-16.743-9.728-26.815-9.728-10.07 0-19.458 3.542-26.812 9.728-6.566-15.022-21.561-25.55-38.977-25.55-23.44 0-42.51 19.074-42.51 42.52 0 23.44 19.07 42.51 42.51 42.51 22.789 0 41.442-18.017 42.47-40.551 4.771-8.575 13.376-13.656 23.318-13.656 9.943 0 18.55 5.082 23.321 13.661 1.031 22.532 19.683 40.546 42.471 40.546 23.44 0 42.51-19.07 42.51-42.51.001-23.447-19.068-42.521-42.509-42.521zm-131.58 70.03c-15.169 0-27.51-12.341-27.51-27.51 0-15.174 12.341-27.52 27.51-27.52 15.175 0 27.52 12.345 27.52 27.52 0 15.169-12.345 27.51-27.52 27.51zm131.58 0c-15.175 0-27.521-12.341-27.521-27.51 0-15.174 12.346-27.52 27.521-27.52 15.169 0 27.51 12.345 27.51 27.52 0 15.169-12.341 27.51-27.51 27.51z"/><path d="m197.923 249.193c-4.142 0-7.5 3.358-7.5 7.5v12.641c0 4.142 3.358 7.5 7.5 7.5s7.5-3.358 7.5-7.5v-12.641c0-4.142-3.358-7.5-7.5-7.5z"/><path d="m329.497 249.193c-4.143 0-7.5 3.358-7.5 7.5v12.641c0 4.142 3.357 7.5 7.5 7.5s7.5-3.358 7.5-7.5v-12.641c0-4.142-3.358-7.5-7.5-7.5z"/><path d="m285.982 285.814c-3.123-2.723-7.859-2.396-10.582.726-2.951 3.387-7.213 5.33-11.69 5.33s-8.738-1.942-11.689-5.329c-2.722-3.123-7.459-3.448-10.582-.727s-3.448 7.458-.727 10.582c5.8 6.657 14.183 10.475 22.998 10.475 8.814 0 17.197-3.818 22.999-10.474 2.72-3.124 2.396-7.862-.727-10.583z"/></g></g></svg>