<?xml version="1.0" ?><!DOCTYPE svg  PUBLIC '-//W3C//DTD SVG 1.1//EN'  'http://www.w3.org/Graphics/SVG/1.1/DTD/svg11.dtd'><svg id="Calque_1" style="enable-background:new 0 0 100 100;" version="1.1" viewBox="0 0 100 100" xml:space="preserve" xmlns="http://www.w3.org/2000/svg" xmlns:xlink="http://www.w3.org/1999/xlink"><g><g><path d="M97.2,78.3c-2.9-5-5.3-12.5-6.8-17.7c0.9-2,1.5-4.3,1.5-7.5c0-6.4-1-10.3-3.2-12.3c-0.4-0.4-1-0.7-1.5-1     C85.6,19.5,69.7,3.9,50,3.9c-19.6,0-35.5,15.6-37.2,35.7c-0.5,0.3-1,0.5-1.3,0.9C9.1,42.7,8.1,46.6,8.1,53c0,3.2,0.7,5.6,1.5,7.5     c-1.4,5.2-3.8,12.7-6.7,17.7c-0.7,1.1-0.4,2.7,0.7,3.3c5.9,3.4,15.9,5.5,25.1,6.8c6,4.8,13.5,7.6,21.4,7.6     c7.9,0,15.3-2.8,21.3-7.6c9.2-1.3,19.2-3.4,25.1-6.8C97.6,81,97.8,79.4,97.2,78.3z M49.9,90c-14.1,0-26.4-11-29.3-26     c-0.2-1.2-1.2-2.1-2.3-2.4c-0.4-0.1-4.2-1.3-4.2-8.5c0-6.2,1.1-7.7,1.6-8.2c0.1-0.1,0.3-0.1,0.5-0.1c1.1,2.2,2.7,5.6,3.3,9.3     c5.9-8.5,6.4-17,7.2-23.9l2.2,5.5c0.4,0.9,1.3,1.6,2.3,1.6h37.6c1,0,1.9-0.6,2.3-1.6l2.2-5.5c0.8,6.9,1.3,15.4,7.2,23.9     c0.5-3.7,2.2-7,3.2-9.3c0.2,0.1,0.5,0,0.7,0.2c0.3,0.3,1.5,1.9,1.5,8.1c0,7.2-3.8,8.4-4.1,8.5c-1.2,0.3-2.1,1.2-2.4,2.4     C76.5,79,64.2,90,49.9,90z"/><path d="M44.2,50.6c0-1.9-1.1-3.5-2.6-4.4l1.8-0.6c0.9-0.3,1.4-1.2,1.2-2.2c-0.3-0.9-1.3-1.4-2.2-1.2l-11.2,3.4     c-0.9,0.3-1.4,1.2-1.2,2.2c0.2,0.8,0.9,1.2,1.7,1.2c0.2,0,0.3,0,0.5-0.1l1.9-0.6c-0.3,0.7-0.5,1.4-0.5,2.2c0,2.9,2.4,5.3,5.3,5.3     S44.2,53.5,44.2,50.6z"/><path d="M56.5,45.6l1.8,0.6c-1.5,0.9-2.6,2.5-2.6,4.4c0,2.9,2.4,5.3,5.3,5.3c2.9,0,5.3-2.4,5.3-5.3c0-0.8-0.2-1.5-0.5-2.2     l1.9,0.6c0.2,0.1,0.3,0.1,0.5,0.1c0.7,0,1.4-0.5,1.7-1.2c0.3-0.9-0.2-1.9-1.2-2.2l-11.2-3.4c-0.9-0.3-1.9,0.2-2.2,1.2     C55.1,44.4,55.6,45.3,56.5,45.6z"/><path d="M50,66.7c-4.6,0-8.9,2.5-11.2,6.6c-0.6,1.1-0.2,2.4,0.8,3c1.1,0.6,2.4,0.2,3-0.8C44.1,72.7,47,71,50,71     c3,0,5.9,1.7,7.3,4.3c0.4,0.7,1.1,1.1,1.9,1.1c0.4,0,0.7-0.1,1.1-0.3c1-0.6,1.4-1.9,0.8-3C58.9,69.2,54.6,66.7,50,66.7z"/><path d="M71.8,63.4c-1-2-3.3-6.4-3.3-6.4c-0.2-0.5-0.9-0.5-1.1,0c0,0-2.7,5.2-3.3,6.4c-0.6,1.2-0.6,2.6,0,3.9     c1.1,2.1,3.6,3,5.8,1.9C72,68.1,72.8,65.4,71.8,63.4z"/></g></g></svg>