<?xml version="1.0" ?><!DOCTYPE svg  PUBLIC '-//W3C//DTD SVG 1.1//EN'  'http://www.w3.org/Graphics/SVG/1.1/DTD/svg11.dtd'><svg id="Calque_1" style="enable-background:new 0 0 100 100;" version="1.1" viewBox="0 0 100 100" xml:space="preserve" xmlns="http://www.w3.org/2000/svg" xmlns:xlink="http://www.w3.org/1999/xlink"><g><g><path d="M97.1,78.3c-2.9-5-5.3-12.5-6.7-17.7c0.9-2,1.6-4.3,1.6-7.6c0-6.4-1-10.3-3.2-12.3c-0.4-0.4-0.9-0.7-1.4-1     C85.6,19.5,69.8,3.9,50,3.9c-19.6,0-35.5,15.6-37.2,35.7c-0.5,0.3-1,0.5-1.3,0.9C9.1,42.7,8.1,46.6,8.1,53c0,3.2,0.7,5.6,1.5,7.5     c-1.5,5.2-3.8,12.7-6.7,17.8c-0.7,1.1-0.5,2.7,0.7,3.3c5.9,3.4,15.9,5.5,25.1,6.8c6,4.8,13.5,7.6,21.4,7.6     c7.9,0,15.3-2.9,21.3-7.6c9.2-1.3,19.2-3.4,25-6.8C97.6,81,97.8,79.4,97.1,78.3z M81.7,61.5c-1.2,0.3-2.1,1.2-2.4,2.4     C76.5,79,64.2,90,49.9,90c-14.1,0-26.5-11-29.3-26.1c-0.2-1.2-1.2-2.1-2.3-2.4c-0.4-0.1-4.2-1.3-4.2-8.5c0-6.2,1.1-7.7,1.6-8.2     c0.1-0.1,0.3-0.1,0.5-0.1c1.1,2.2,2.7,5.6,3.3,9.3c5.9-8.4,6.4-16.9,7.2-23.8l2.2,5.5c0.4,0.9,1.3,1.6,2.3,1.6h37.6     c1,0,1.9-0.6,2.3-1.6l2.2-5.6c0.8,7,1.3,15.5,7.2,24c0.5-3.7,2.1-7,3.2-9.3c0.2,0.1,0.5,0,0.6,0.2c0.3,0.3,1.5,1.9,1.5,8.1     C85.8,60.2,82.1,61.4,81.7,61.5z"/><circle cx="39" cy="50.6" r="5.3"/><circle cx="61.1" cy="50.6" r="5.3"/><path d="M50,66.7c-4.6,0-8.9,2.5-11.2,6.6c-0.6,1.1-0.2,2.4,0.8,3c1.1,0.6,2.4,0.2,3-0.8c1.5-2.7,4.3-4.3,7.4-4.3     s5.9,1.7,7.3,4.3c0.4,0.7,1.1,1.1,1.9,1.1c0.4,0,0.7-0.1,1.1-0.3c1.1-0.6,1.4-1.9,0.8-3C58.9,69.2,54.6,66.7,50,66.7z"/></g></g></svg>