<?xml version="1.0" ?><!DOCTYPE svg  PUBLIC '-//W3C//DTD SVG 1.1//EN'  'http://www.w3.org/Graphics/SVG/1.1/DTD/svg11.dtd'><svg id="Calque_1" style="enable-background:new 0 0 100 100;" version="1.1" viewBox="0 0 100 100" xml:space="preserve" xmlns="http://www.w3.org/2000/svg" xmlns:xlink="http://www.w3.org/1999/xlink"><g><g><path d="M44,50.1c0-2-1.1-3.7-2.7-4.6l1.9-0.6c1-0.3,1.5-1.3,1.2-2.3c-0.3-1-1.3-1.5-2.3-1.2L30.5,45c-1,0.3-1.5,1.3-1.2,2.3     c0.2,0.8,1,1.3,1.7,1.3c0.2,0,0.3,0,0.5-0.1l2-0.6c-0.3,0.7-0.5,1.5-0.5,2.3c0,3,2.5,5.5,5.5,5.5C41.5,55.6,44,53.2,44,50.1z"/><path d="M69.5,45l-11.7-3.5c-1-0.3-2,0.2-2.3,1.2c-0.3,1,0.3,2,1.2,2.3l1.9,0.6c-1.6,1-2.7,2.6-2.7,4.6c0,3,2.5,5.5,5.5,5.5     c3,0,5.5-2.5,5.5-5.5c0-0.8-0.2-1.6-0.5-2.3l2,0.6c0.2,0.1,0.4,0.1,0.5,0.1c0.8,0,1.5-0.5,1.7-1.3C71,46.3,70.5,45.3,69.5,45z"/><path d="M90.3,39.8c-0.5-0.5-1.1-0.8-1.7-1.1C86.4,18.2,70.2,2.5,50,2.5c-20.1,0-36.4,15.7-38.6,36.1c-0.5,0.3-1.1,0.6-1.5,1     c-2.4,2.3-3.5,6.3-3.5,13c0,9.1,4.5,12.8,7.2,14.3c4.1,17.8,19.1,30.6,36.6,30.6c17.2,0,32.3-12.8,36.4-30.6     c2.7-1.4,7.2-5.1,7.2-14.3C93.7,46,92.6,41.9,90.3,39.8z M83,61.5c-1.3,0.3-2.2,1.3-2.5,2.5c-2.9,15.7-15.8,27.1-30.7,27.1     c-14.7,0-27.6-11.4-30.5-27.1c-0.2-1.2-1.2-2.2-2.4-2.5c-0.4-0.1-4.4-1.4-4.4-8.9c0-4,0.5-6,0.9-7.2c0.5,0,1,0,1,0     c0,1.1,0.7,5.2,1.7,5.2h4.5c0.9,0,1.7-0.9,1.7-1.8c0,0,0.9-11.6,1.9-19.1c0.2-1.8,1.7-2.8,3.2-2.4c5.7,1.3,13.7,2.1,22.6,2.1     s16.9-0.9,22.6-2.1c1.5-0.4,3,0.7,3.2,2.4c0.9,7.5,1.9,19.1,1.9,19.1c0,1,0.7,1.8,1.7,1.8h4.5c0.9,0,1.7-4.1,1.7-5.2     c0,0,0.5,0,1,0c0.4,1.1,0.9,3.1,0.9,7.2C87.3,60.1,83.4,61.4,83,61.5z"/><path d="M50,66.9c-4.8,0-9.3,2.6-11.6,6.9c-0.6,1.1-0.2,2.5,0.9,3.1c0.3,0.2,0.7,0.3,1.1,0.3c0.8,0,1.6-0.4,2-1.2     c1.5-2.8,4.5-4.5,7.7-4.5c3.2,0,6.1,1.7,7.7,4.5c0.6,1.1,2,1.5,3.1,0.9c1.1-0.6,1.5-2,0.9-3.1C59.3,69.5,54.8,66.9,50,66.9z"/></g></g></svg>