<?xml version="1.0" ?><!DOCTYPE svg  PUBLIC '-//W3C//DTD SVG 1.1//EN'  'http://www.w3.org/Graphics/SVG/1.1/DTD/svg11.dtd'><svg id="Calque_1" style="enable-background:new 0 0 100 100;" version="1.1" viewBox="0 0 100 100" xml:space="preserve" xmlns="http://www.w3.org/2000/svg" xmlns:xlink="http://www.w3.org/1999/xlink"><g><g><path d="M97.1,78.3c-2.9-5-5.3-12.5-6.7-17.7c0.9-2,1.6-4.3,1.6-7.5c0-6.4-1-10.3-3.2-12.3c-0.4-0.4-1-0.7-1.5-1     C85.6,19.5,69.7,3.9,50,3.9c-19.6,0-35.6,15.6-37.2,35.7c-0.5,0.3-1,0.5-1.3,0.9C9.1,42.7,8.1,46.6,8.1,53c0,3.2,0.7,5.6,1.6,7.5     c-1.5,5.2-3.8,12.7-6.7,17.7c-0.7,1.1-0.5,2.7,0.7,3.3c5.9,3.4,15.9,5.6,25.1,6.9c6,4.8,13.4,7.6,21.4,7.6     c7.9,0,15.3-2.9,21.3-7.6c9.2-1.3,19.2-3.4,25-6.8C97.6,81,97.8,79.4,97.1,78.3z M49.9,90c-14.1,0-26.5-11-29.3-26.1     c-0.2-1.2-1.2-2.1-2.3-2.4c-0.4-0.1-4.2-1.3-4.2-8.5c0-6.2,1.1-7.7,1.6-8.2c0.1-0.1,0.3-0.1,0.5-0.1c1.1,2.2,2.7,5.6,3.3,9.3     c5.9-8.4,6.4-16.9,7.2-23.9l2.2,5.5c0.4,0.9,1.3,1.6,2.3,1.6h37.6c1,0,1.9-0.6,2.3-1.6l2.2-5.5c0.8,6.9,1.3,15.5,7.2,23.9     c0.5-3.7,2.1-7,3.2-9.3c0.2,0.1,0.5,0,0.7,0.2c0.3,0.3,1.5,1.9,1.5,8.1c0,7.2-3.8,8.4-4.1,8.5c-1.2,0.3-2.1,1.2-2.4,2.4     C76.5,79,64.2,90,49.9,90z"/><path d="M44.2,50.6c0-1.9-1.1-3.5-2.6-4.4l1.8-0.6c0.9-0.3,1.4-1.2,1.2-2.2c-0.3-0.9-1.2-1.4-2.2-1.2l-11.2,3.4     c-0.9,0.3-1.4,1.2-1.2,2.2c0.2,0.8,0.9,1.2,1.7,1.2c0.2,0,0.3,0,0.5-0.1l1.9-0.6c-0.3,0.7-0.5,1.4-0.5,2.2c0,2.9,2.4,5.3,5.3,5.3     C41.9,55.9,44.2,53.5,44.2,50.6z"/><path d="M69.9,47.8c0.3-0.9-0.2-1.9-1.2-2.2l-11.2-3.4c-0.9-0.3-1.9,0.2-2.2,1.2c-0.3,0.9,0.2,1.9,1.2,2.2l1.8,0.6     c-1.5,0.9-2.6,2.5-2.6,4.4c0,2.9,2.4,5.3,5.3,5.3c2.9,0,5.3-2.4,5.3-5.3c0-0.8-0.2-1.5-0.5-2.2l1.9,0.6c0.2,0.1,0.3,0.1,0.5,0.1     C69,49.1,69.7,48.6,69.9,47.8z"/><path d="M50,65.2c-5.5,0-10.1,4.1-10.8,9.5c-0.1,0.7,0.5,1.4,1.2,1.4h19.1c0.7,0,1.3-0.6,1.2-1.4C60.1,69.3,55.5,65.2,50,65.2z"/></g></g></svg>