<?xml version="1.0" ?><!DOCTYPE svg  PUBLIC '-//W3C//DTD SVG 1.1//EN'  'http://www.w3.org/Graphics/SVG/1.1/DTD/svg11.dtd'><svg id="Calque_1" style="enable-background:new 0 0 100 100;" version="1.1" viewBox="0 0 100 100" xml:space="preserve" xmlns="http://www.w3.org/2000/svg" xmlns:xlink="http://www.w3.org/1999/xlink"><g><g><path d="M97.2,78.3c-2.9-5-5.3-12.5-6.8-17.7c0.9-2,1.6-4.3,1.6-7.6c0-6.4-1-10.3-3.2-12.3c-0.4-0.4-1-0.7-1.5-1     C85.6,19.5,69.7,3.9,50,3.9c-19.6,0-35.5,15.6-37.2,35.7c-0.5,0.3-1,0.5-1.3,0.9C9.1,42.7,8.1,46.6,8.1,53c0,3.3,0.7,5.6,1.6,7.6     c-1.5,5.2-3.9,12.7-6.8,17.7c-0.7,1.1-0.4,2.7,0.7,3.3c5.9,3.4,15.9,5.6,25.1,6.8c6,4.8,13.4,7.6,21.4,7.6     c7.9,0,15.2-2.8,21.3-7.6c9.2-1.3,19.2-3.4,25.1-6.8C97.6,81,97.8,79.4,97.2,78.3z M49.9,90c-14.1,0-26.4-11-29.3-26     c-0.2-1.2-1.2-2.1-2.3-2.4c-0.4-0.1-4.2-1.3-4.2-8.5c0-6.2,1.1-7.7,1.6-8.2c0.1-0.1,0.3-0.1,0.5-0.1c1.1,2.2,2.7,5.6,3.3,9.3     c5.9-8.4,6.4-16.9,7.2-23.9l2.2,5.5c0.4,0.9,1.3,1.6,2.3,1.6h37.6c1,0,1.9-0.6,2.3-1.6l2.2-5.5c0.8,7,1.3,15.5,7.2,23.9     c0.5-3.7,2.1-7,3.2-9.3c0.2,0.1,0.5,0,0.7,0.2c0.3,0.3,1.5,1.9,1.5,8.1c0,7.2-3.8,8.4-4.1,8.5c-1.2,0.3-2.1,1.2-2.4,2.4     C76.5,79,64.2,90,49.9,90z"/><path d="M50,61.5c-7.1,0-13,5.3-13.9,12.2c-0.1,0.9,0.6,1.8,1.6,1.8h24.7c0.9,0,1.7-0.8,1.6-1.8C63,66.8,57.2,61.5,50,61.5z"/><path d="M46.4,47.5c0-1.2-1-2.2-2.2-2.2c-1.2,0-2.2,1-2.2,2.2c0,1.7-1.4,3.1-3.1,3.1s-3.1-1.4-3.1-3.1c0-1.2-1-2.2-2.2-2.2     c-1.2,0-2.2,1-2.2,2.2c0,4.1,3.3,7.4,7.4,7.4S46.4,51.6,46.4,47.5z"/><path d="M66.3,45.4c-1.2,0-2.2,1-2.2,2.2c0,1.7-1.4,3.1-3.1,3.1c-1.7,0-3.1-1.4-3.1-3.1c0-1.2-1-2.2-2.2-2.2     c-1.2,0-2.2,1-2.2,2.2c0,4.1,3.3,7.4,7.4,7.4s7.4-3.3,7.4-7.4C68.5,46.3,67.5,45.4,66.3,45.4z"/></g></g></svg>