<svg height="512" viewBox="0 0 128 128" width="512" xmlns="http://www.w3.org/2000/svg" xmlns:xlink="http://www.w3.org/1999/xlink"><linearGradient id="a" gradientUnits="userSpaceOnUse" x1="108.215" x2="19.196" y1="124.589" y2="35.569"><stop offset="0" stop-color="#0396fd"/><stop offset="1" stop-color="#5ee2c5"/></linearGradient><path d="m123.443 108.635a1.749 1.749 0 0 1 -1.75 1.75h-26.271a1.75 1.75 0 0 1 0-3.5h6.191a5.474 5.474 0 0 0 -1.106-9.447 1.751 1.751 0 0 1 -1.007-2.032 5.442 5.442 0 0 0 -4-6.638 1.748 1.748 0 0 1 -1.273-2.151 9.2 9.2 0 0 0 -8.916-11.617 9.143 9.143 0 0 0 -5.594 1.9 1.751 1.751 0 0 1 -2.494-.383 7.112 7.112 0 0 0 -9.764-1.849 1.751 1.751 0 0 1 -2.637-.931 12.576 12.576 0 1 0 -23.577 8.683 1.749 1.749 0 0 1 -1.431 2.421 5.183 5.183 0 0 0 -4.649 5.17 5.244 5.244 0 0 0 .08.87 1.749 1.749 0 0 1 -1.883 2.033c-.251-.022-.5-.039-.759-.039a8.454 8.454 0 0 0 -8.445 8.444 8.365 8.365 0 0 0 2.1 5.566h45.77a1.75 1.75 0 0 1 0 3.5h-65.721a1.75 1.75 0 0 1 0-3.5h7.28l-8.943-27.249a1.75 1.75 0 0 1 2.247-2.2l8 2.831-10.233-28.746a1.75 1.75 0 0 1 2.69-1.994l18.584 13.755-3.432-14.907a1.75 1.75 0 0 1 2.8-1.761l11.1 8.849-.572-5.463a1.75 1.75 0 1 1 3.481-.363l1 9.615a1.75 1.75 0 0 1 -2.829 1.548l-10.443-8.323 3.368 14.638a1.749 1.749 0 0 1 -2.746 1.8l-17.777-13.158 9.543 26.8a1.75 1.75 0 0 1 -2.233 2.243l-8.112-2.873 8.192 24.958h4.762a11.944 11.944 0 0 1 9.652-17.475 8.671 8.671 0 0 1 5.66-7.563 16.078 16.078 0 0 1 30.067-11.094 10.611 10.611 0 0 1 11.578 2.432 12.568 12.568 0 0 1 6.32-1.688 12.745 12.745 0 0 1 12.731 12.732 12.321 12.321 0 0 1 -.119 1.694 8.955 8.955 0 0 1 5.242 8.163c0 .259-.013.52-.036.784a9 9 0 0 1 3.068 12.015h4.552l8.188-25.42-9.15 3.289a1.75 1.75 0 0 1 -2.215-2.3l10.142-25.154-14.577 10.987a1.749 1.749 0 0 1 -2.8-1.526l.723-9.781-8.668 8.789a1.75 1.75 0 0 1 -2.987-1.412l2.906-27.716-13.682 25.4a1.751 1.751 0 0 1 -3.286-.693l-1.537-19.663-6.327 12.2a1.75 1.75 0 0 1 -3.26-.422l-5.734-25.503-4.606 24.123a1.749 1.749 0 0 1 -3.112.73l-12.9-16.991.469 4.5a1.75 1.75 0 0 1 -3.481.363l-1.116-10.723a1.749 1.749 0 0 1 3.134-1.239l14.305 18.844 5.449-28.535a1.751 1.751 0 0 1 1.69-1.422h.029a1.751 1.751 0 0 1 1.707 1.367l6.528 29.039 6.938-13.381a1.75 1.75 0 0 1 3.3.669l1.551 19.842 15.068-27.973a1.751 1.751 0 0 1 3.282 1.013l-3.311 31.569 8.5-8.62a1.749 1.749 0 0 1 2.991 1.357l-.789 10.677 16.527-12.454a1.749 1.749 0 0 1 2.675 2.052l-11.034 27.372 8.823-3.171a1.749 1.749 0 0 1 2.257 2.182l-8.932 27.735h7.266a1.749 1.749 0 0 1 1.75 1.75zm-37.259-1.75h-4.5a1.75 1.75 0 0 0 0 3.5h4.5a1.75 1.75 0 0 0 0-3.5zm-25.879-22.753a5.7 5.7 0 0 1 3.514 1.2 1.75 1.75 0 1 0 2.139-2.771 9.255 9.255 0 0 0 -14.888 6.757h-.022a8.088 8.088 0 0 0 -8.079 8.082 1.75 1.75 0 0 0 3.5 0 4.583 4.583 0 0 1 4.579-4.579 4.711 4.711 0 0 1 .489.037 9.084 9.084 0 0 0 .5 1.226 1.75 1.75 0 1 0 3.122-1.584 5.692 5.692 0 0 1 -.618-2.6 5.771 5.771 0 0 1 5.764-5.768zm20.93 6.405a1.75 1.75 0 1 0 0 3.5 4.767 4.767 0 0 1 4.765 4.763 1.75 1.75 0 0 0 3.5 0 8.271 8.271 0 0 0 -8.265-8.263z" fill="url(#a)"/></svg>