<svg height="512" viewBox="0 0 128 128" width="512" xmlns="http://www.w3.org/2000/svg"><g><path d="m16.004 108.635-9.698-29.545 11.47 4.057-11.47-32.213 22.394 16.574-4.493-19.526 14.364 11.452-3.091-29.653 16.68 21.974 6.185-32.395 7.581 33.721 9.146-17.641 2.017 25.772 17.891-33.209-3.832 36.537 12.01-12.177-1.074 14.527 19.61-14.778-12.499 30.996 12.499-4.493-9.67 30.02z" fill="#ff4343"/><path d="m102.157 108.64a7.235 7.235 0 0 0 -.962-12.812 7.2 7.2 0 0 0 -5.287-8.76 10.963 10.963 0 0 0 -17.253-11.559 8.866 8.866 0 0 0 -12.164-2.3 14.326 14.326 0 1 0 -26.858 9.891 6.9 6.9 0 0 0 -6.113 8.071c-.3-.027-.608-.046-.917-.046a10.194 10.194 0 0 0 -7.1 17.511z" fill="#ffc143"/><g><path d="m121.693 106.885h-7.266l8.932-27.735a1.749 1.749 0 0 0 -2.257-2.182l-8.823 3.171 11.037-27.372a1.749 1.749 0 0 0 -2.675-2.052l-16.527 12.454.789-10.677a1.749 1.749 0 0 0 -2.991-1.357l-8.5 8.62 3.308-31.569a1.751 1.751 0 0 0 -3.282-1.013l-15.068 27.973-1.553-19.846a1.75 1.75 0 0 0 -3.3-.669l-6.936 13.385-6.528-29.039a1.751 1.751 0 0 0 -1.707-1.367h-.029a1.751 1.751 0 0 0 -1.69 1.422l-5.449 28.535-14.3-18.844a1.749 1.749 0 0 0 -3.134 1.239l1.118 10.726a1.75 1.75 0 0 0 3.481-.363l-.469-4.5 12.9 16.991a1.749 1.749 0 0 0 3.112-.73l4.599-24.126 5.734 25.505a1.75 1.75 0 0 0 3.26.422l6.327-12.2 1.539 19.664a1.751 1.751 0 0 0 3.286.693l13.682-25.4-2.906 27.713a1.75 1.75 0 0 0 2.987 1.412l8.668-8.789-.723 9.781a1.749 1.749 0 0 0 2.8 1.526l14.575-10.987-10.142 25.15a1.75 1.75 0 0 0 2.215 2.3l9.15-3.289-8.188 25.42h-4.549a9 9 0 0 0 -3.068-12.015c.023-.264.036-.525.036-.784a8.955 8.955 0 0 0 -5.242-8.163 12.321 12.321 0 0 0 .119-1.694 12.745 12.745 0 0 0 -12.734-12.725 12.568 12.568 0 0 0 -6.32 1.688 10.611 10.611 0 0 0 -11.578-2.432 16.079 16.079 0 0 0 -30.067 11.091 8.671 8.671 0 0 0 -5.66 7.563 11.944 11.944 0 0 0 -9.652 17.475h-4.762l-8.192-24.958 8.112 2.87a1.75 1.75 0 0 0 2.233-2.236l-9.543-26.8 17.777 13.153a1.749 1.749 0 0 0 2.746-1.8l-3.368-14.637 10.443 8.323a1.75 1.75 0 0 0 2.832-1.55l-1-9.615a1.75 1.75 0 1 0 -3.484.365l.569 5.463-11.097-8.849a1.75 1.75 0 0 0 -2.8 1.761l3.43 14.907-18.582-13.755a1.75 1.75 0 0 0 -2.69 1.994l10.242 28.75-8-2.831a1.75 1.75 0 0 0 -2.247 2.2l8.943 27.249h-7.289a1.75 1.75 0 0 0 0 3.5h65.721a1.75 1.75 0 0 0 0-3.5h-45.768a8.365 8.365 0 0 1 -2.1-5.566 8.454 8.454 0 0 1 8.44-8.448c.256 0 .508.017.759.039a1.749 1.749 0 0 0 1.883-2.033 5.244 5.244 0 0 1 -.08-.87 5.183 5.183 0 0 1 4.649-5.17 1.749 1.749 0 0 0 1.431-2.421 12.576 12.576 0 1 1 23.577-8.684 1.751 1.751 0 0 0 2.637.931 7.112 7.112 0 0 1 9.764 1.849 1.751 1.751 0 0 0 2.494.383 9.143 9.143 0 0 1 5.597-1.899 9.2 9.2 0 0 1 8.907 11.62 1.748 1.748 0 0 0 1.273 2.151 5.442 5.442 0 0 1 4 6.638 1.751 1.751 0 0 0 1.011 2.032 5.474 5.474 0 0 1 1.106 9.447h-6.186a1.75 1.75 0 0 0 0 3.5h26.271a1.75 1.75 0 0 0 0-3.5z"/><path d="m86.184 106.885h-4.5a1.75 1.75 0 0 0 0 3.5h4.5a1.75 1.75 0 0 0 0-3.5z"/><path d="m60.305 84.132a5.7 5.7 0 0 1 3.514 1.2 1.75 1.75 0 1 0 2.139-2.771 9.255 9.255 0 0 0 -14.888 6.757h-.022a8.088 8.088 0 0 0 -8.079 8.082 1.75 1.75 0 0 0 3.5 0 4.583 4.583 0 0 1 4.579-4.579 4.711 4.711 0 0 1 .489.037 9.084 9.084 0 0 0 .5 1.226 1.75 1.75 0 1 0 3.122-1.584 5.692 5.692 0 0 1 -.618-2.6 5.771 5.771 0 0 1 5.764-5.768z"/><path d="m81.235 90.537a1.75 1.75 0 1 0 0 3.5 4.767 4.767 0 0 1 4.765 4.763 1.75 1.75 0 0 0 3.5 0 8.271 8.271 0 0 0 -8.265-8.263z"/></g></g></svg>