<svg height="511pt" viewBox="-7 0 511 511.99994" width="511pt" xmlns="http://www.w3.org/2000/svg"><path d="m485.929688 251.238281c-25.421876 8.507813-78.089844 39.039063-18.863282 139.070313 1.632813 2.761718-1.371094 5.929687-4.203125 4.429687-29.609375-15.699219-113.878906-49.90625-175.378906 28.316407-9.382813 11.917968-18.226563 26.449218-26.265625 44.042968-1.210938 2.640625-5.027344 2.417969-5.898438-.34375-11.34375-35.78125-64.832031-170.453125-203.191406-70.972656-2.863281 2.0625-6.457031-1.390625-4.488281-4.3125 22.308594-33.140625 46.921875-97.839844-44.652344-153.652344-2.222656-1.351562-1.941406-4.660156.476563-5.632812 9.464844-3.808594 28.214844-12.125 45.832031-25.578125 33.863281-25.808594 63.480469-70.503907 14.683594-138.226563-1.332031-1.859375 1.210937-3.996094 2.800781-2.40625 80.535156 80.480469 161.128906 94.71875 197.035156-15.230468 1.015625-3.097657 5.472656-2.855469 6.121094.34375 21.476562 106.664062 115.335938 86.332031 206.5625 24.003906 2.914062-1.992188 6.414062 1.574218 4.375 4.445312-27.839844 39.222656-86.558594 137.976563 5.003906 165.671875 2.945313.894531 2.976563 5.058594.050782 6.03125zm0 0" fill="#f29500"/><path d="m485.929688 251.238281c-25.421876 8.507813-78.089844 39.039063-18.863282 139.070313 1.632813 2.761718-1.371094 5.929687-4.203125 4.429687-29.609375-15.699219-113.878906-49.90625-175.378906 28.316407-13.847656-40.808594-68.320313-162.871094-201.847656-66.871094-2.863281 2.0625-6.457031-1.390625-4.488281-4.3125 21.199218-31.496094 44.480468-91.484375-31.851563-145.265625 33.863281-25.808594 63.480469-70.503907 14.683594-138.226563-1.332031-1.859375 1.210937-3.996094 2.800781-2.40625 80.222656 80.167969 160.875 95.492188 197.035156-15.230468 1.015625-3.097657 5.472656-2.855469 6.121094.34375 21.476562 106.664062 115.335938 86.332031 206.5625 24.003906 2.914062-1.992188 6.414062 1.574218 4.375 4.445312-27.839844 39.222656-86.558594 137.976563 5.003906 165.671875 2.945313.894531 2.976563 5.058594.050782 6.03125zm0 0" fill="#ffa90b"/><path d="m167.726562 40.546875c-14.617187-15.546875-40.664062-33.84375-81.78125-32.722656-4.207031.117187-7.519531 3.617187-7.40625 7.824219.117188 4.203124 3.597657 7.511718 7.824219 7.402343 28.230469-.773437 51.746094 8.476563 69.851563 27.492188 13.664062 14.351562 19.085937 29.253906 19.207031 29.585937 1.097656 3.136719 4.039063 5.101563 7.1875 5.101563 5.230469 0 8.914063-5.171875 7.191406-10.117188-.25-.71875-6.296875-17.777343-22.074219-34.566406zm0 0" fill="#ffc14f"/><path d="m387.347656 76.742188c31.023438 5.703124 58.554688-4.710938 80.050782-28.53125 16.117187-17.851563 23.347656-37.144532 23.648437-37.957032 1.453125-3.945312-.5625-8.324218-4.507813-9.78125-3.945312-1.457031-8.324218.5625-9.78125 4.507813-.253906.679687-25.839843 67.957031-86.65625 56.78125-4.136718-.761719-8.105468 1.972656-8.867187 6.113281-.761719 4.136719 1.976563 8.105469 6.113281 8.867188zm0 0" fill="#ffc14f"/><path d="m489.46875 473.984375c-37.648438-.597656-68.941406-11.03125-93.011719-31.003906-17.902343-14.855469-24.949219-29.785157-25.0625-30.03125-1.742187-3.816407-6.242187-5.507813-10.066406-3.777344-3.832031 1.734375-5.53125 6.246094-3.800781 10.078125.328125.71875 8.183594 17.761719 28.496094 34.859375 28.503906 23.988281 67.183593 35.101563 103.324218 35.101563 4.148438 0 7.546875-3.328126 7.613282-7.492188.066406-4.207031-3.285157-7.667969-7.492188-7.734375zm0 0" fill="#ffc14f"/><path d="m135.035156 403.058594c-3.871094-1.628906-8.335937.191406-9.96875 4.0625-.078125.1875-8.074218 18.878906-25.761718 39.226562-23.429688 26.960938-51.910157 43.964844-84.648438 50.535156-9.769531 1.964844-7 16.933594 2.996094 14.933594 35.792968-7.183594 68.132812-26.519531 93.523437-55.910156 19.125-22.136719 27.582031-42.054688 27.933594-42.890625 1.625-3.875-.199219-8.328125-4.074219-9.957031zm0 0" fill="#ffc14f"/><path d="m216.265625 443.9375-21.488281-3.125c-1.542969-.222656-2.875-1.191406-3.566406-2.589844l-9.609376-19.472656c-1.738281-3.519531-6.757812-3.519531-8.496093 0l-9.609375 19.472656c-.6875 1.398438-2.023438 2.367188-3.566406 2.589844l-21.488282 3.125c-3.882812.5625-5.433594 5.335938-2.625 8.074219l15.550782 15.160156c1.117187 1.085937 1.625 2.65625 1.359374 4.191406l-3.667968 21.402344c-.664063 3.867187 3.394531 6.816406 6.871094 4.992187l19.21875-10.105468c1.378906-.722656 3.027343-.722656 4.40625 0l19.222656 10.105468c3.472656 1.824219 7.535156-1.125 6.871094-4.992187l-3.671876-21.402344c-.261718-1.535156.246094-3.105469 1.363282-4.191406l15.546875-15.160156c2.8125-2.738281 1.261719-7.511719-2.621094-8.074219zm0 0" fill="#ffa90b"/><path d="m63.726562 119.847656-16.59375-2.414062c-1.1875-.171875-2.21875-.917969-2.75-2l-7.421874-15.035156c-1.34375-2.71875-5.21875-2.71875-6.558594 0l-7.421875 15.035156c-.53125 1.082031-1.5625 1.828125-2.753907 2l-16.59375 2.414062c-2.996093.433594-4.195312 4.121094-2.023437 6.234375l12.007813 11.707031c.859374.835938 1.253906 2.046876 1.050781 3.234376l-2.835938 16.527343c-.511719 2.984375 2.621094 5.261719 5.304688 3.851563l14.84375-7.800782c1.0625-.5625 2.335937-.5625 3.402343 0l14.839844 7.800782c2.683594 1.410156 5.820313-.867188 5.304688-3.851563l-2.832032-16.527343c-.203124-1.183594.1875-2.394532 1.050782-3.234376l12.007812-11.707031c2.171875-2.113281.972656-5.800781-2.027344-6.234375zm0 0" fill="#ffa90b"/><path d="m364.953125 48.730469c2.167969-2.113281.972656-5.800781-2.027344-6.238281l-16.59375-2.410157c-1.191406-.171875-2.21875-.921875-2.753906-2l-7.417969-15.035156c-1.34375-2.71875-5.21875-2.71875-6.558594 0l-7.421874 15.035156c-.535157 1.078125-1.5625 1.828125-2.753907 2l-16.59375 2.410157c-3 .4375-4.195312 4.125-2.027343 6.238281l12.007812 11.703125c.863281.839844 1.257812 2.050781 1.054688 3.238281l-2.835938 16.527344c-.511719 2.984375 2.621094 5.261719 5.304688 3.851562l14.839843-7.800781c1.066407-.5625 2.339844-.5625 3.40625 0l14.839844 7.800781c2.683594 1.410157 5.816406-.867187 5.304687-3.851562l-2.835937-16.527344c-.203125-1.1875.191406-2.394531 1.054687-3.238281zm0 0" fill="#ffa90b"/><g fill="#ffe7c0"><path d="m134.929688 247.453125c5.492187-4.734375 8.644531-12.71875 8.644531-22.433594 0-23.699219-17.761719-26.4375-31.121094-26.4375h-22.566406c-4.15625 0-7.171875 2.726563-7.171875 6.484375v93.710938c0 3.695312 3.085937 6.484375 7.171875 6.484375h25.871093c19.535157 0 30.292969-11.148438 30.292969-31.390625 0-10.863282-1.457031-20.203125-11.121093-26.417969zm-37.179688-34.386719c17.992188 0 30.648438-2.289062 30.648438 12.917969 0 17.253906-10.921876 14.703125-30.648438 14.703125zm16.90625 77.710938h-16.90625v-36.152344c22.746094 0 33.125-2.933594 33.125 18.832031 0 11.816407-5.152344 17.320313-16.21875 17.320313zm0 0"/><path d="m188.6875 198.582031c-20.125 0-31.667969 11.792969-31.667969 32.355469v42.660156c0 20.648438 11.542969 32.492188 31.667969 32.492188s31.667969-11.84375 31.667969-32.492188v-42.660156c0-20.5625-11.542969-32.355469-31.667969-32.355469zm16.496094 75.015625c0 12.117188-5.398438 18.007813-16.496094 18.007813s-16.492188-5.890625-16.492188-18.007813v-42.660156c0-12.023438 5.394532-17.871094 16.492188-17.871094s16.496094 5.847656 16.496094 17.871094zm0 0"/><path d="m266.019531 198.582031c-20.125 0-31.667969 11.792969-31.667969 32.355469v42.660156c0 20.648438 11.542969 32.492188 31.667969 32.492188s31.667969-11.84375 31.667969-32.492188v-42.660156c0-20.5625-11.539062-32.355469-31.667969-32.355469zm16.496094 75.015625c0 12.117188-5.394531 18.007813-16.496094 18.007813-11.097656 0-16.492187-5.890625-16.492187-18.007813v-42.660156c0-12.023438 5.394531-17.871094 16.492187-17.871094 11.101563 0 16.496094 5.847656 16.496094 17.871094zm0 0"/><path d="m382.296875 198.582031c-5.851563 0-8.863281 5.789063-9.996094 7.972657l-20.964843 40.464843-20.96875-40.46875c-1.132813-2.179687-4.144532-7.96875-9.992188-7.96875-4.609375 0-7.589844 2.921875-7.589844 7.449219v92.609375c0 8.855469 15.175782 8.78125 15.175782 0v-65.300781l16.972656 32.605468c3.410156 6.402344 9.667968 5.628907 12.667968 0l17.109376-32.363281v65.058594c0 3.773437 3.257812 6.621094 7.585937 6.621094 4.394531 0 7.585937-2.785157 7.585937-6.621094v-92.609375c0-4.527344-2.976562-7.449219-7.585937-7.449219zm0 0"/><path d="m412.84375 287.199219c-5.257812 0-9.375 4.179687-9.375 9.515625 0 5.167968 4.207031 9.375 9.375 9.375 5.007812 0 9.238281-4.292969 9.238281-9.375 0-5.246094-4.144531-9.515625-9.238281-9.515625zm0 0"/><path d="m412.773438 278.167969c4.207031 0 7.617187-3.410157 7.617187-7.613281v-63.292969c0-4.203125-3.410156-7.613281-7.617187-7.613281-4.203126 0-7.613282 3.410156-7.613282 7.613281v63.292969c0 4.203124 3.410156 7.613281 7.613282 7.613281zm0 0"/></g></svg>