<?xml version="1.0" encoding="UTF-8" standalone="no"?>
<!-- Created with Inkscape (http://www.inkscape.org/) -->
<svg xmlns="http://www.w3.org/2000/svg" xmlns:svg="http://www.w3.org/2000/svg" version="1.1" id="svg1575" width="682.66669" height="682.66669" viewBox="0 0 682.66669 682.66669">
  <defs id="defs1579">
    <clipPath clipPathUnits="userSpaceOnUse" id="clipPath1593">
      <path d="M 0,512 H 512 V 0 H 0 Z" id="path1591"/>
    </clipPath>
  </defs>
  <mask id="custom"><rect id="bg" x="0" y="0" width="100%" height="100%" fill="white"/><g transform="matrix(1.3333333,0,0,-1.3333333,0,682.66667)"/></mask><g mask="url(#custom)"><g id="g1581" transform="matrix(1.3333333,0,0,-1.3333333,0,682.66667)">
    <text xml:space="preserve" transform="matrix(1,0,0,-1,85.1885,210.4805)" style="font-variant:normal;font-weight:normal;font-stretch:normal;font-size:135.528px;font-family:Dosis;-inkscape-font-specification:Dosis-Regular;writing-mode:lr-tb;fill:#000000;fill-opacity:1;fill-rule:nonzero;stroke:none" id="text1585"><tspan x="0 74.269287 150.43597 226.60265 318.49057" y="0" id="tspan1583">BOOM!</tspan></text>
    <g id="g1587">
      <g id="g1589" clip-path="url(#clipPath1593)">
        <g id="g1595" transform="translate(95.4888,213.8687)">
          <path d="m 0,0 c 0,-1.762 1.491,-3.388 4.065,-3.388 h 25.48 c 15.043,0 26.834,7.318 26.834,27.919 v 2.439 c 0,13.824 -5.691,19.923 -13.959,23.311 6.912,2.982 11.52,10.978 11.52,22.362 0,19.109 -12.469,23.04 -27.648,23.04 H 4.065 C 2.033,95.683 0,94.599 0,92.294 Z M 8.809,4.879 V 46.486 H 28.46 c 11.791,0 18.975,-5.15 18.975,-19.245 V 24.937 C 47.435,10.978 40.251,4.879 28.46,4.879 Z m 0,82.537 h 17.212 c 11.113,0 18.974,-3.253 18.974,-15.722 0,-12.875 -5.963,-17.483 -18.432,-17.483 H 8.809 Z" style="fill:none;stroke:#000000;stroke-width:6;stroke-linecap:butt;stroke-linejoin:miter;stroke-miterlimit:10;stroke-dasharray:none;stroke-opacity:1" id="path1597"/>
        </g>
        <g id="g1599" transform="translate(196.8628,209.6675)">
          <path d="m 0,0 c 15.857,0 28.19,7.86 28.19,29.003 v 42.014 c 0,21.006 -12.333,28.867 -28.19,28.867 -15.857,0 -28.19,-7.861 -28.19,-28.867 V 29.003 C -28.19,7.86 -15.857,0 0,0 Z M 19.245,29.003 C 19.245,14.772 12.062,8.267 0,8.267 c -12.062,0 -19.245,6.505 -19.245,20.736 v 42.014 c 0,14.094 7.183,20.6 19.245,20.6 12.062,0 19.245,-6.506 19.245,-20.6 z" style="fill:none;stroke:#000000;stroke-width:6;stroke-linecap:butt;stroke-linejoin:miter;stroke-miterlimit:10;stroke-dasharray:none;stroke-opacity:1" id="path1601"/>
        </g>
        <g id="g1603" transform="translate(273.0278,209.6675)">
          <path d="m 0,0 c 15.857,0 28.19,7.86 28.19,29.003 v 42.014 c 0,21.006 -12.333,28.867 -28.19,28.867 -15.857,0 -28.19,-7.861 -28.19,-28.867 V 29.003 C -28.19,7.86 -15.857,0 0,0 Z M 19.245,29.003 C 19.245,14.772 12.062,8.267 0,8.267 c -12.062,0 -19.245,6.505 -19.245,20.736 v 42.014 c 0,14.094 7.183,20.6 19.245,20.6 12.062,0 19.245,-6.506 19.245,-20.6 z" style="fill:none;stroke:#000000;stroke-width:6;stroke-linecap:butt;stroke-linejoin:miter;stroke-miterlimit:10;stroke-dasharray:none;stroke-opacity:1" id="path1605"/>
        </g>
        <g id="g1607" transform="translate(383.0742,290.1709)">
          <path d="m 0,0 v -76.167 c 0,-2.304 2.304,-3.523 4.473,-3.523 2.303,0 4.472,1.219 4.472,3.523 v 91.21 c 0,3.253 -2.033,4.337 -4.472,4.337 -3.253,0 -5.422,-2.846 -7.183,-6.234 l -23.311,-44.995 -23.311,44.995 c -1.762,3.388 -3.93,6.234 -7.183,6.234 -2.304,0 -4.472,-1.084 -4.472,-4.337 v -91.21 c 0,-2.304 2.168,-3.523 4.472,-3.523 2.168,0 4.473,1.219 4.473,3.523 V 0.407 l 22.361,-42.963 c 1.085,-2.033 2.305,-2.846 3.524,-2.846 1.22,0 2.575,0.813 3.659,2.846 z" style="fill:none;stroke:#000000;stroke-width:6;stroke-linecap:butt;stroke-linejoin:miter;stroke-miterlimit:10;stroke-dasharray:none;stroke-opacity:1" id="path1609"/>
        </g>
        <g id="g1611" transform="translate(422.6484,306.0278)">
          <path d="m 0,0 c 0,3.388 -2.304,5.285 -5.15,5.285 -2.847,0 -5.15,-1.897 -5.15,-5.285 0,-22.227 1.626,-47.841 1.626,-70.068 0,-2.168 1.762,-3.117 3.524,-3.117 1.49,0 3.659,0.949 3.659,3.117 C -1.491,-47.841 0,-22.227 0,0 Z m -5.015,-83.756 c -3.659,0 -6.234,-2.847 -6.234,-6.37 0,-3.253 2.575,-6.234 6.234,-6.234 3.389,0 6.099,2.981 6.099,6.234 0,3.523 -2.71,6.37 -6.099,6.37 z" style="fill:none;stroke:#000000;stroke-width:6;stroke-linecap:butt;stroke-linejoin:miter;stroke-miterlimit:10;stroke-dasharray:none;stroke-opacity:1" id="path1613"/>
        </g>
        <g id="g1615" transform="translate(68.9946,453.4531)">
          <path d="m 0,0 c 0,0 154.164,-175.549 207.005,18.226 0,0 10.849,-180.229 221.849,-25.821 0,0 -128.458,-154.408 4.607,-182.131 0,0 -110.44,-15.19 -23.784,-150.501 0,0 -141.734,95.51 -212.691,-72.905 0,0 -50.795,208.216 -224.738,60.611 0,0 104.328,97.987 -31.698,176.332 0,0 159.678,53.296 59.45,176.189 z" style="fill:none;stroke:#000000;stroke-width:15;stroke-linecap:round;stroke-linejoin:round;stroke-miterlimit:10;stroke-dasharray:700, 30;stroke-dashoffset:0;stroke-opacity:1" id="path1617"/>
        </g>
        <g id="g1619" transform="translate(192,431.7642)">
          <path d="M 0,0 C 0,0 -22,63.236 -95,61.236" style="fill:none;stroke:#000000;stroke-width:15;stroke-linecap:round;stroke-linejoin:round;stroke-miterlimit:10;stroke-dasharray:none;stroke-opacity:1" id="path1621"/>
        </g>
        <g id="g1623" transform="translate(488.7407,500.7031)">
          <path d="M 0,0 C 0,0 -26.937,-72.984 -93.741,-60.703" style="fill:none;stroke:#000000;stroke-width:15;stroke-linecap:round;stroke-linejoin:round;stroke-miterlimit:10;stroke-dasharray:none;stroke-opacity:1" id="path1625"/>
        </g>
        <g id="g1627" transform="translate(371.1113,98.3774)">
          <path d="M 0,0 C 0,0 28.499,-62.997 122.994,-64.497" style="fill:none;stroke:#000000;stroke-width:15;stroke-linecap:round;stroke-linejoin:round;stroke-miterlimit:10;stroke-dasharray:none;stroke-opacity:1" id="path1629"/>
        </g>
        <g id="g1631" transform="translate(142.2393,104.3247)">
          <path d="M 0,0 C 0,0 -31.995,-76.355 -114.182,-92.854" style="fill:none;stroke:#000000;stroke-width:15;stroke-linecap:round;stroke-linejoin:round;stroke-miterlimit:10;stroke-dasharray:none;stroke-opacity:1" id="path1633"/>
        </g>
        <g id="g1635" transform="translate(191.0049,95.7778)">
          <path d="m 0,0 9.465,-19.179 c 0.68,-1.376 1.993,-2.33 3.512,-2.551 l 21.165,-3.076 c 3.825,-0.555 5.353,-5.256 2.585,-7.955 L 21.412,-47.689 c -1.1,-1.072 -1.601,-2.616 -1.342,-4.129 l 3.616,-21.079 c 0.653,-3.81 -3.346,-6.716 -6.768,-4.916 l -18.93,9.952 c -1.359,0.714 -2.982,0.714 -4.341,0 l -18.93,-9.952 c -3.422,-1.8 -7.421,1.106 -6.767,4.916 l 3.615,21.079 c 0.26,1.513 -0.242,3.057 -1.341,4.129 l -15.315,14.928 c -2.768,2.699 -1.241,7.4 2.585,7.955 l 21.164,3.076 c 1.52,0.221 2.833,1.175 3.512,2.551 L -8.365,0 C -6.654,3.466 -1.711,3.466 0,0 Z" style="fill:none;stroke:#000000;stroke-width:15;stroke-linecap:round;stroke-linejoin:round;stroke-miterlimit:10;stroke-dasharray:480, 30;stroke-dashoffset:0;stroke-opacity:1" id="path1637"/>
        </g>
        <g id="g1639" transform="translate(48.5498,409.3223)">
          <path d="m 0,0 7.309,-14.809 c 0.524,-1.063 1.538,-1.799 2.712,-1.97 l 16.342,-2.374 c 2.954,-0.43 4.133,-4.059 1.996,-6.143 L 16.533,-36.823 c -0.848,-0.827 -1.236,-2.02 -1.035,-3.188 l 2.791,-16.276 c 0.504,-2.942 -2.583,-5.186 -5.225,-3.796 l -14.617,7.684 c -1.05,0.552 -2.303,0.552 -3.352,0 l -14.617,-7.684 c -2.642,-1.39 -5.73,0.854 -5.226,3.796 l 2.792,16.276 c 0.201,1.168 -0.187,2.361 -1.036,3.188 l -11.825,11.527 c -2.138,2.084 -0.958,5.713 1.996,6.143 l 16.342,2.374 c 1.173,0.171 2.187,0.907 2.712,1.97 L -6.458,0 C -5.138,2.677 -1.321,2.677 0,0 Z" style="fill:none;stroke:#000000;stroke-width:15;stroke-linecap:round;stroke-linejoin:round;stroke-miterlimit:10;stroke-dasharray:480, 30;stroke-dashoffset:0;stroke-opacity:1" id="path1641"/>
        </g>
        <g id="g1643" transform="translate(343.2295,485.5054)">
          <path d="m 0,0 7.309,-14.809 c 0.524,-1.063 1.538,-1.799 2.711,-1.97 l 16.342,-2.374 c 2.954,-0.43 4.134,-4.06 1.996,-6.143 L 16.533,-36.823 c -0.849,-0.827 -1.236,-2.02 -1.036,-3.188 l 2.792,-16.276 c 0.504,-2.942 -2.583,-5.186 -5.226,-3.796 l -14.617,7.684 c -1.049,0.551 -2.302,0.551 -3.351,0 l -14.617,-7.684 c -2.643,-1.39 -5.73,0.854 -5.226,3.796 l 2.792,16.276 c 0.2,1.168 -0.187,2.361 -1.036,3.188 l -11.825,11.527 c -2.138,2.083 -0.958,5.713 1.996,6.143 l 16.342,2.374 c 1.173,0.171 2.187,0.907 2.711,1.97 L -6.459,0 C -5.138,2.677 -1.321,2.677 0,0 Z" style="fill:none;stroke:#000000;stroke-width:15;stroke-linecap:round;stroke-linejoin:round;stroke-miterlimit:10;stroke-dasharray:480, 30;stroke-dashoffset:0;stroke-opacity:1" id="path1645"/>
        </g>
      </g>
    </g>
  </g></g>
</svg>
