<?xml version="1.0" encoding="UTF-8" standalone="no"?>
<!-- Created with Inkscape (http://www.inkscape.org/) -->

<svg
   version="1.1"
   id="svg2391"
   width="682.66669"
   height="682.66669"
   viewBox="0 0 682.66669 682.66669"
   xmlns="http://www.w3.org/2000/svg"
   xmlns:svg="http://www.w3.org/2000/svg">
  <defs
     id="defs2395">
    <clipPath
       clipPathUnits="userSpaceOnUse"
       id="clipPath2405">
      <path
         d="M 0,512 H 512 V 0 H 0 Z"
         id="path2403" />
    </clipPath>
    <clipPath
       clipPathUnits="userSpaceOnUse"
       id="clipPath2485">
      <path
         d="M 0,512 H 512 V 0 H 0 Z"
         id="path2483" />
    </clipPath>
  </defs>
  <g
     id="g2397"
     transform="matrix(1.3333333,0,0,-1.3333333,0,682.66667)">
    <g
       id="g2399">
      <g
         id="g2401"
         clip-path="url(#clipPath2405)">
        <g
           id="g2407"
           transform="translate(490.7402,260.7598)">
          <path
             d="m 0,0 c -25.04,-8.38 -76.91,-38.45 -18.58,-136.97 1.61,-2.72 -1.35,-5.84 -4.14,-4.36 -29.16,15.46 -112.16,49.15 -172.73,-27.89 -9.24,-11.74 -17.95,-26.05 -25.87,-43.38 -1.19,-2.6 -4.951,-2.379 -5.81,0.34 -11.17,35.24 -63.85,167.88 -200.12,69.9 -2.82,-2.03 -6.36,1.37 -4.42,4.25 21.97,32.64 46.21,96.36 -43.98,151.33 -2.19,1.33 -1.91,4.59 0.47,5.551 9.32,3.75 27.79,11.939 45.14,25.189 33.35,25.42 62.519,69.44 14.46,136.14 -1.311,1.829 1.196,3.934 2.76,2.37 79.318,-79.266 158.695,-93.289 194.06,15 1,3.051 5.39,2.81 6.03,-0.34 21.15,-105.052 113.592,-85.029 203.44,-23.64 2.87,1.96 6.32,-1.55 4.31,-4.38 C -32.4,130.48 -90.23,33.22 -0.05,5.94 2.85,5.06 2.88,0.96 0,0"
             style="fill:#f29500;fill-opacity:1;fill-rule:nonzero;stroke:none"
             id="path2409" />
        </g>
        <g
           id="g2411"
           transform="translate(490.7402,260.7598)">
          <path
             d="m 0,0 c -25.04,-8.38 -76.91,-38.45 -18.58,-136.97 1.61,-2.72 -1.35,-5.84 -4.14,-4.36 -29.16,15.46 -112.16,49.15 -172.73,-27.89 -13.64,40.19 -67.29,160.41 -198.8,65.86 -2.82,-2.03 -6.36,1.37 -4.42,4.25 20.88,31.02 43.81,90.1 -31.37,143.07 33.35,25.42 62.519,69.44 14.46,136.14 -1.311,1.829 1.196,3.934 2.76,2.37 79.011,-78.96 158.447,-94.05 194.06,15 1,3.051 5.39,2.81 6.03,-0.34 21.15,-105.052 113.592,-85.029 203.44,-23.64 2.87,1.96 6.32,-1.55 4.31,-4.38 C -32.4,130.48 -90.23,33.22 -0.05,5.94 2.85,5.06 2.88,0.96 0,0"
             style="fill:#ffa90b;fill-opacity:1;fill-rule:nonzero;stroke:none"
             id="path2413" />
        </g>
        <g
           id="g2415"
           transform="translate(177.3398,468.269)">
          <path
             d="m 0,0 c -14.396,15.314 -40.049,33.335 -80.545,32.228 -4.141,-0.113 -7.406,-3.562 -7.292,-7.703 0.113,-4.14 3.542,-7.401 7.703,-7.291 27.804,0.762 50.966,-8.348 68.798,-27.078 13.458,-14.135 18.799,-28.81 18.918,-29.139 1.081,-3.089 3.979,-5.024 7.078,-5.024 5.152,0 8.779,5.095 7.084,9.966 C 21.498,-33.333 15.54,-16.533 0,0"
             style="fill:#ffc14f;fill-opacity:1;fill-rule:nonzero;stroke:none"
             id="path2417" />
        </g>
        <g
           id="g2419"
           transform="translate(393.644,432.6235)">
          <path
             d="m 0,0 c 30.555,-5.617 57.67,4.639 78.845,28.097 15.87,17.582 22.992,36.585 23.288,37.386 1.434,3.886 -0.553,8.199 -4.44,9.633 -3.885,1.432 -8.198,-0.554 -9.632,-4.44 C 87.813,70.006 62.612,3.746 2.712,14.753 -1.362,15.5 -5.271,12.807 -6.021,8.732 -6.77,4.659 -4.074,0.749 0,0"
             style="fill:#ffc14f;fill-opacity:1;fill-rule:nonzero;stroke:none"
             id="path2421" />
        </g>
        <g
           id="g2423"
           transform="translate(494.2241,41.3799)">
          <path
             d="m 0,0 c -37.078,0.588 -67.899,10.862 -91.607,30.536 -17.632,14.631 -24.571,29.334 -24.683,29.575 -1.715,3.759 -6.149,5.425 -9.914,3.72 -3.774,-1.707 -5.449,-6.151 -3.742,-9.925 0.32,-0.706 8.056,-17.493 28.065,-34.333 28.073,-23.625 66.169,-34.572 101.764,-34.572 4.087,0 7.432,3.28 7.497,7.381 C 7.446,-3.477 4.142,-0.066 0,0"
             style="fill:#ffc14f;fill-opacity:1;fill-rule:nonzero;stroke:none"
             id="path2425" />
        </g>
        <g
           id="g2427"
           transform="translate(145.145,111.2334)">
          <path
             d="m 0,0 c -3.814,1.605 -8.21,-0.188 -9.819,-4.001 -0.077,-0.184 -7.954,-18.594 -25.372,-38.635 -23.077,-26.554 -51.127,-43.3 -83.372,-49.773 -9.621,-1.932 -6.893,-16.676 2.952,-14.707 35.252,7.077 67.104,26.118 92.11,55.065 C -4.665,-30.248 3.666,-10.632 4.012,-9.807 5.611,-5.991 3.814,-1.604 0,0"
             style="fill:#ffc14f;fill-opacity:1;fill-rule:nonzero;stroke:none"
             id="path2429" />
        </g>
        <g
           id="g2431"
           transform="translate(225.1465,70.9722)">
          <path
             d="m 0,0 -21.165,3.076 c -1.519,0.22 -2.832,1.174 -3.511,2.551 l -9.466,19.179 c -1.711,3.466 -6.653,3.466 -8.364,0 L -51.972,5.627 C -52.651,4.25 -53.964,3.296 -55.483,3.076 L -76.648,0 c -3.826,-0.556 -5.353,-5.257 -2.585,-7.955 l 15.315,-14.929 c 1.1,-1.071 1.601,-2.615 1.341,-4.128 l -3.615,-21.079 c -0.653,-3.81 3.346,-6.716 6.767,-4.917 l 18.931,9.952 c 1.358,0.715 2.982,0.715 4.341,0 l 18.93,-9.952 c 3.421,-1.799 7.42,1.107 6.767,4.917 l -3.615,21.079 c -0.26,1.513 0.242,3.057 1.341,4.128 L 2.585,-7.955 C 5.353,-5.257 3.826,-0.556 0,0"
             style="fill:#ffa90b;fill-opacity:1;fill-rule:nonzero;stroke:none"
             id="path2433" />
        </g>
        <g
           id="g2435"
           transform="translate(74.9126,390.1689)">
          <path
             d="m 0,0 -16.342,2.375 c -1.174,0.17 -2.187,0.907 -2.712,1.97 l -7.309,14.808 c -1.321,2.677 -5.137,2.677 -6.458,0 L -40.13,4.345 c -0.525,-1.063 -1.538,-1.8 -2.711,-1.97 L -59.184,0 c -2.954,-0.429 -4.133,-4.06 -1.996,-6.143 l 11.826,-11.527 c 0.849,-0.827 1.236,-2.019 1.035,-3.187 l -2.791,-16.277 c -0.505,-2.942 2.583,-5.185 5.225,-3.796 l 14.617,7.684 c 1.049,0.552 2.303,0.552 3.352,0 l 14.617,-7.684 c 2.642,-1.389 5.73,0.854 5.225,3.796 l -2.791,16.277 c -0.201,1.168 0.187,2.36 1.035,3.187 L 1.996,-6.143 C 4.133,-4.06 2.954,-0.429 0,0"
             style="fill:#ffa90b;fill-opacity:1;fill-rule:nonzero;stroke:none"
             id="path2437" />
        </g>
        <g
           id="g2439"
           transform="translate(371.5879,460.209)">
          <path
             d="m 0,0 c 2.138,2.083 0.958,5.714 -1.996,6.143 l -16.342,2.375 c -1.173,0.17 -2.187,0.907 -2.712,1.97 l -7.308,14.808 c -1.322,2.677 -5.138,2.677 -6.459,0 l -7.309,-14.808 c -0.524,-1.063 -1.539,-1.8 -2.711,-1.97 L -61.18,6.143 C -64.134,5.714 -65.313,2.083 -63.176,0 l 11.826,-11.527 c 0.849,-0.827 1.236,-2.019 1.036,-3.187 l -2.792,-16.277 c -0.505,-2.942 2.583,-5.185 5.225,-3.796 l 14.617,7.684 c 1.049,0.552 2.303,0.552 3.352,0 l 14.617,-7.684 c 2.642,-1.389 5.73,0.854 5.226,3.796 l -2.792,16.277 c -0.201,1.168 0.187,2.36 1.035,3.187 z"
             style="fill:#ffa90b;fill-opacity:1;fill-rule:nonzero;stroke:none"
             id="path2441" />
        </g>
        <g
           id="g2443"
           transform="translate(68.9946,453.4531)">
          <path
             d="m 0,0 c 0,0 154.164,-175.549 207.005,18.226 0,0 10.849,-180.229 221.849,-25.821 0,0 -128.458,-154.408 4.607,-182.131 0,0 -110.44,-15.19 -23.784,-150.501 0,0 -141.734,95.51 -212.691,-72.905 0,0 -50.795,208.216 -224.738,60.611 0,0 104.328,97.987 -31.698,176.332 0,0 159.678,53.296 59.45,176.189 z"
             style="fill:none;stroke:#000000;stroke-width:15;stroke-linecap:round;stroke-linejoin:round;stroke-miterlimit:10;stroke-dasharray:700, 30;stroke-dashoffset:0;stroke-opacity:1"
             id="path2445" />
        </g>
        <g
           id="g2447"
           transform="translate(192,431.7642)">
          <path
             d="M 0,0 C 0,0 -22,63.236 -95,61.236"
             style="fill:none;stroke:#000000;stroke-width:15;stroke-linecap:round;stroke-linejoin:round;stroke-miterlimit:10;stroke-dasharray:none;stroke-opacity:1"
             id="path2449" />
        </g>
        <g
           id="g2451"
           transform="translate(488.7407,500.7031)">
          <path
             d="M 0,0 C 0,0 -26.937,-72.984 -93.741,-60.703"
             style="fill:none;stroke:#000000;stroke-width:15;stroke-linecap:round;stroke-linejoin:round;stroke-miterlimit:10;stroke-dasharray:none;stroke-opacity:1"
             id="path2453" />
        </g>
        <g
           id="g2455"
           transform="translate(371.1113,98.3774)">
          <path
             d="M 0,0 C 0,0 28.499,-62.997 122.994,-64.497"
             style="fill:none;stroke:#000000;stroke-width:15;stroke-linecap:round;stroke-linejoin:round;stroke-miterlimit:10;stroke-dasharray:none;stroke-opacity:1"
             id="path2457" />
        </g>
        <g
           id="g2459"
           transform="translate(142.2393,104.3247)">
          <path
             d="M 0,0 C 0,0 -31.995,-76.355 -114.182,-92.854"
             style="fill:none;stroke:#000000;stroke-width:15;stroke-linecap:round;stroke-linejoin:round;stroke-miterlimit:10;stroke-dasharray:none;stroke-opacity:1"
             id="path2461" />
        </g>
        <g
           id="g2463"
           transform="translate(191.0049,95.7778)">
          <path
             d="m 0,0 9.465,-19.179 c 0.68,-1.376 1.993,-2.33 3.512,-2.551 l 21.165,-3.076 c 3.825,-0.555 5.353,-5.256 2.585,-7.955 L 21.412,-47.689 c -1.1,-1.072 -1.601,-2.616 -1.342,-4.129 l 3.616,-21.079 c 0.653,-3.81 -3.346,-6.716 -6.768,-4.916 l -18.93,9.952 c -1.359,0.714 -2.982,0.714 -4.341,0 l -18.93,-9.952 c -3.422,-1.8 -7.421,1.106 -6.767,4.916 l 3.615,21.079 c 0.26,1.513 -0.242,3.057 -1.341,4.129 l -15.315,14.928 c -2.768,2.699 -1.241,7.4 2.585,7.955 l 21.164,3.076 c 1.52,0.221 2.833,1.175 3.512,2.551 L -8.365,0 C -6.654,3.466 -1.711,3.466 0,0 Z"
             style="fill:none;stroke:#000000;stroke-width:15;stroke-linecap:round;stroke-linejoin:round;stroke-miterlimit:10;stroke-dasharray:480, 30;stroke-dashoffset:0;stroke-opacity:1"
             id="path2465" />
        </g>
        <g
           id="g2467"
           transform="translate(48.5498,409.3223)">
          <path
             d="m 0,0 7.309,-14.809 c 0.524,-1.063 1.538,-1.799 2.712,-1.97 l 16.342,-2.374 c 2.954,-0.43 4.133,-4.059 1.996,-6.143 L 16.533,-36.823 c -0.848,-0.827 -1.236,-2.02 -1.035,-3.188 l 2.791,-16.276 c 0.504,-2.942 -2.583,-5.186 -5.225,-3.796 l -14.617,7.684 c -1.05,0.552 -2.303,0.552 -3.352,0 l -14.617,-7.684 c -2.642,-1.39 -5.73,0.854 -5.226,3.796 l 2.792,16.276 c 0.201,1.168 -0.187,2.361 -1.036,3.188 l -11.825,11.527 c -2.138,2.084 -0.958,5.713 1.996,6.143 l 16.342,2.374 c 1.173,0.171 2.187,0.907 2.712,1.97 L -6.458,0 C -5.138,2.677 -1.321,2.677 0,0 Z"
             style="fill:none;stroke:#000000;stroke-width:15;stroke-linecap:round;stroke-linejoin:round;stroke-miterlimit:10;stroke-dasharray:480, 30;stroke-dashoffset:0;stroke-opacity:1"
             id="path2469" />
        </g>
        <g
           id="g2471"
           transform="translate(343.2295,485.5054)">
          <path
             d="m 0,0 7.309,-14.809 c 0.524,-1.063 1.538,-1.799 2.711,-1.97 l 16.342,-2.374 c 2.954,-0.43 4.134,-4.06 1.996,-6.143 L 16.533,-36.823 c -0.849,-0.827 -1.236,-2.02 -1.036,-3.188 l 2.792,-16.276 c 0.504,-2.942 -2.583,-5.186 -5.226,-3.796 l -14.617,7.684 c -1.049,0.551 -2.302,0.551 -3.351,0 l -14.617,-7.684 c -2.643,-1.39 -5.73,0.854 -5.226,3.796 l 2.792,16.276 c 0.2,1.168 -0.187,2.361 -1.036,3.188 l -11.825,11.527 c -2.138,2.083 -0.958,5.713 1.996,6.143 l 16.342,2.374 c 1.173,0.171 2.187,0.907 2.711,1.97 L -6.459,0 C -5.138,2.677 -1.321,2.677 0,0 Z"
             style="fill:none;stroke:#000000;stroke-width:15;stroke-linecap:round;stroke-linejoin:round;stroke-miterlimit:10;stroke-dasharray:480, 30;stroke-dashoffset:0;stroke-opacity:1"
             id="path2473" />
        </g>
      </g>
    </g>
    <text
       xml:space="preserve"
       transform="matrix(1,0,0,-1,85.1885,210.4805)"
       style="font-variant:normal;font-weight:normal;font-stretch:normal;font-size:135.528px;font-family:Dosis;-inkscape-font-specification:Dosis-Regular;writing-mode:lr-tb;fill:#000000;fill-opacity:1;fill-rule:nonzero;stroke:none"
       id="text2477"><tspan
         x="0 74.269287 150.43597 226.60265 318.49057"
         y="0"
         id="tspan2475">BOOM!</tspan></text>
    <g
       id="g2479">
      <g
         id="g2481"
         clip-path="url(#clipPath2485)">
        <g
           id="g2487"
           transform="translate(95.4888,213.8687)">
          <path
             d="m 0,0 c 0,-1.762 1.491,-3.388 4.065,-3.388 h 25.48 c 15.043,0 26.834,7.318 26.834,27.919 v 2.439 c 0,13.824 -5.691,19.923 -13.959,23.311 6.912,2.982 11.52,10.978 11.52,22.362 0,19.109 -12.469,23.04 -27.648,23.04 H 4.065 C 2.033,95.683 0,94.599 0,92.294 Z M 8.809,4.879 V 46.486 H 28.46 c 11.791,0 18.975,-5.15 18.975,-19.245 V 24.937 C 47.435,10.978 40.251,4.879 28.46,4.879 Z m 0,82.537 h 17.212 c 11.113,0 18.974,-3.253 18.974,-15.722 0,-12.875 -5.963,-17.483 -18.432,-17.483 H 8.809 Z"
             style="fill:none;stroke:#000000;stroke-width:6;stroke-linecap:butt;stroke-linejoin:miter;stroke-miterlimit:10;stroke-dasharray:none;stroke-opacity:1"
             id="path2489" />
        </g>
        <g
           id="g2491"
           transform="translate(196.8628,209.6675)">
          <path
             d="m 0,0 c 15.857,0 28.19,7.86 28.19,29.003 v 42.014 c 0,21.006 -12.333,28.867 -28.19,28.867 -15.857,0 -28.19,-7.861 -28.19,-28.867 V 29.003 C -28.19,7.86 -15.857,0 0,0 Z M 19.245,29.003 C 19.245,14.772 12.062,8.267 0,8.267 c -12.062,0 -19.245,6.505 -19.245,20.736 v 42.014 c 0,14.094 7.183,20.6 19.245,20.6 12.062,0 19.245,-6.506 19.245,-20.6 z"
             style="fill:none;stroke:#000000;stroke-width:6;stroke-linecap:butt;stroke-linejoin:miter;stroke-miterlimit:10;stroke-dasharray:none;stroke-opacity:1"
             id="path2493" />
        </g>
        <g
           id="g2495"
           transform="translate(273.0278,209.6675)">
          <path
             d="m 0,0 c 15.857,0 28.19,7.86 28.19,29.003 v 42.014 c 0,21.006 -12.333,28.867 -28.19,28.867 -15.857,0 -28.19,-7.861 -28.19,-28.867 V 29.003 C -28.19,7.86 -15.857,0 0,0 Z M 19.245,29.003 C 19.245,14.772 12.062,8.267 0,8.267 c -12.062,0 -19.245,6.505 -19.245,20.736 v 42.014 c 0,14.094 7.183,20.6 19.245,20.6 12.062,0 19.245,-6.506 19.245,-20.6 z"
             style="fill:none;stroke:#000000;stroke-width:6;stroke-linecap:butt;stroke-linejoin:miter;stroke-miterlimit:10;stroke-dasharray:none;stroke-opacity:1"
             id="path2497" />
        </g>
        <g
           id="g2499"
           transform="translate(383.0742,290.1709)">
          <path
             d="m 0,0 v -76.167 c 0,-2.304 2.304,-3.523 4.473,-3.523 2.303,0 4.472,1.219 4.472,3.523 v 91.21 c 0,3.253 -2.033,4.337 -4.472,4.337 -3.253,0 -5.422,-2.846 -7.183,-6.234 l -23.311,-44.995 -23.311,44.995 c -1.762,3.388 -3.93,6.234 -7.183,6.234 -2.304,0 -4.472,-1.084 -4.472,-4.337 v -91.21 c 0,-2.304 2.168,-3.523 4.472,-3.523 2.168,0 4.473,1.219 4.473,3.523 V 0.407 l 22.361,-42.963 c 1.085,-2.033 2.305,-2.846 3.524,-2.846 1.22,0 2.575,0.813 3.659,2.846 z"
             style="fill:none;stroke:#000000;stroke-width:6;stroke-linecap:butt;stroke-linejoin:miter;stroke-miterlimit:10;stroke-dasharray:none;stroke-opacity:1"
             id="path2501" />
        </g>
        <g
           id="g2503"
           transform="translate(422.6484,306.0278)">
          <path
             d="m 0,0 c 0,3.388 -2.304,5.285 -5.15,5.285 -2.847,0 -5.15,-1.897 -5.15,-5.285 0,-22.227 1.626,-47.841 1.626,-70.068 0,-2.168 1.762,-3.117 3.524,-3.117 1.49,0 3.659,0.949 3.659,3.117 C -1.491,-47.841 0,-22.227 0,0 Z m -5.015,-83.756 c -3.659,0 -6.234,-2.847 -6.234,-6.37 0,-3.253 2.575,-6.234 6.234,-6.234 3.389,0 6.099,2.981 6.099,6.234 0,3.523 -2.71,6.37 -6.099,6.37 z"
             style="fill:none;stroke:#000000;stroke-width:6;stroke-linecap:butt;stroke-linejoin:miter;stroke-miterlimit:10;stroke-dasharray:none;stroke-opacity:1"
             id="path2505" />
        </g>
      </g>
    </g>
  </g>
</svg>
