<svg id="Capa_1" enable-background="new 0 0 512 512" height="512" viewBox="0 0 512 512" width="512" xmlns="http://www.w3.org/2000/svg"><g><path d="m316 130.371v-25.371c0-8.291-6.709-15-15-15h-30v-30c0-16.538 13.462-30 30-30s30 13.462 30 30v15c0 24.814 20.186 45 45 45s45-20.186 45-45c0-8.291-6.709-15-15-15s-15 6.709-15 15c0 8.276-6.724 15-15 15s-15-6.724-15-15v-15c0-33.091-26.909-60-60-60s-60 26.909-60 60v30h-30c-8.291 0-15 6.709-15 15v25.371c-80.054 25.869-135 101.195-135 185.629 0 107.52 87.48 196 195 196s195-88.48 195-196c0-84.434-54.946-159.76-135-185.629zm-86.191 83.848c-46.407 12.026-78.809 54.467-78.809 101.781 0 8.291-6.709 15-15 15s-15-6.709-15-15c0-60.981 41.646-115.36 101.279-130.814 7.998-2.095 16.216 2.739 18.281 10.752 2.081 8.027-2.739 16.201-10.751 18.281z"/></g></svg>