<svg id="Capa_1" enable-background="new 0 0 512 512" height="512" viewBox="0 0 512 512" width="512" xmlns="http://www.w3.org/2000/svg"><g><path d="m406 60c-8.291 0-15 6.709-15 15 0 8.276-6.724 15-15 15s-15-6.724-15-15v-15c0-33.091-26.909-60-60-60-18.007 0-33.995 8.134-45 20.729-9.219 10.553-15 24.187-15 39.271v45c0 8.291 6.709 15 15 15s15-6.709 15-15v-45c0-16.538 13.462-30 30-30s30 13.462 30 30v15c0 24.814 20.186 45 45 45s45-20.186 45-45c0-8.291-6.709-15-15-15z" fill="#fabe2c"/><path d="m316 130.371v-25.371c0-8.291-6.709-15-15-15h-45-45c-8.291 0-15 6.709-15 15v25.371c-80.054 25.869-135 101.195-135 185.629 0 107.52 87.48 196 195 196s195-88.48 195-196c0-84.434-54.946-159.76-135-185.629z" fill="#704c55"/><g fill="#5b362a"><path d="m451 316c0-84.434-54.946-159.76-135-185.629v-25.371c0-8.291-6.709-15-15-15h-45v422c107.52 0 195-88.48 195-196z"/><path d="m136 331c-8.291 0-15-6.709-15-15 0-60.981 41.646-114.36 101.279-129.814 7.998-2.095 16.216 2.739 18.281 10.752 2.08 8.027-2.739 16.201-10.752 18.281-46.406 12.026-78.808 53.467-78.808 100.781 0 8.291-6.709 15-15 15z"/></g></g></svg>