<?xml version="1.0" encoding="UTF-8" standalone="no"?>
<!-- Created with Inkscape (http://www.inkscape.org/) -->

<svg
   version="1.1"
   id="svg2937"
   xml:space="preserve"
   width="682.66669"
   height="682.66669"
   viewBox="0 0 682.66669 682.66669"
   xmlns="http://www.w3.org/2000/svg"
   xmlns:svg="http://www.w3.org/2000/svg"><defs
     id="defs2941"><clipPath
       clipPathUnits="userSpaceOnUse"
       id="clipPath2951"><path
         d="M 0,512 H 512 V 0 H 0 Z"
         id="path2949" /></clipPath></defs><g
     id="g2943"
     transform="matrix(1.3333333,0,0,-1.3333333,0,682.66667)"><g
       id="g2945"><g
         id="g2947"
         clip-path="url(#clipPath2951)"><g
           id="g2953"
           transform="translate(406,436)"><path
             d="m 0,0 c 0,-16.568 -13.432,-30 -30,-30 -16.568,0 -30,13.432 -30,30 v 16 c 0,24.853 -20.147,45 -45,45 -24.853,0 -45,-20.147 -45,-45 v -46"
             style="fill:none;stroke:#000000;stroke-width:30;stroke-linecap:round;stroke-linejoin:round;stroke-miterlimit:10;stroke-dasharray:none;stroke-opacity:1"
             id="path2955" /></g><g
           id="g2957"
           transform="translate(301,369.3809)"><path
             d="M 0,0 V 36.619 H -90 V 0 c -77.474,-20.076 -135,-89.628 -135,-173.381 0,-99.411 80.588,-181 180,-181 99.412,0 180,81.589 180,181 C 135,-89.628 77.474,-20.076 0,0 Z"
             style="fill:none;stroke:#000000;stroke-width:30;stroke-linecap:round;stroke-linejoin:round;stroke-miterlimit:10;stroke-dasharray:none;stroke-opacity:1"
             id="path2959" /></g><g
           id="g2961"
           transform="translate(136,196)"><path
             d="M 0,0 C 0,54.155 37.031,101.558 90.044,115.298"
             style="fill:none;stroke:#000000;stroke-width:30;stroke-linecap:round;stroke-linejoin:round;stroke-miterlimit:10;stroke-dasharray:none;stroke-opacity:1"
             id="path2963" /></g></g></g></g></svg>
