<?xml version="1.0" encoding="iso-8859-1"?>
<!-- Generator: Adobe Illustrator 19.0.0, SVG Export Plug-In . SVG Version: 6.00 Build 0)  -->
<svg version="1.1" id="Capa_1" xmlns="http://www.w3.org/2000/svg" xmlns:xlink="http://www.w3.org/1999/xlink" x="0px" y="0px"
	 viewBox="0 0 512 512" style="enable-background:new 0 0 512 512;" xml:space="preserve">
<g>
	<g>
		<path d="M436.829,71.479c-2.971-2.969-7.784-2.969-10.754,0l-38.678,38.678c-9.056-8.186-18.552-14.733-27.265-18.736
			c-16.411-7.537-25.019-3.957-29.352,0.373c-0.008,0.008-0.016,0.017-0.024,0.025l-0.01-0.01l-20.84,20.841
			c-22.657-11.916-46.994-19.466-72.529-22.493c-4.291-0.509-8.154,2.625-8.505,6.931l-0.001,0.007
			c-0.334,4.097,2.654,7.683,6.737,8.168c23.497,2.79,45.896,9.708,66.758,20.607c-0.589,6.365,1.682,13.363,4.287,19.032
			c4.825,10.503,13.338,22.145,23.974,32.78c10.635,10.634,22.277,19.15,32.78,23.974c6.927,3.181,12.463,4.382,16.876,4.382
			c1.438,0,2.749-0.134,3.957-0.362c15.902,28.819,24.279,61.397,24.279,94.653c0,16.096-1.933,32.033-5.756,47.479
			c-0.986,3.987,1.309,8.047,5.256,9.184l0.007,0.002c4.161,1.198,8.458-1.321,9.497-5.523c4.118-16.643,6.203-33.809,6.203-51.141
			c0-36.27-9.258-71.799-26.814-103.149l19.649-19.647l-0.025-0.025c4.322-4.338,7.881-12.945,0.353-29.332
			c-4.003-8.713-10.549-18.208-18.735-27.265l38.678-38.677C439.798,79.262,439.798,74.448,436.829,71.479z M382.554,190.029
			c-0.184,0.151-0.361,0.314-0.533,0.486c-1.749,1.262-17.927-0.874-40.639-23.587c-22.717-22.716-24.847-38.888-23.601-40.624
			c0.106-0.107,0.211-0.219,0.311-0.331l10.155-10.156c0.587,1.679,1.298,3.451,2.161,5.33
			c4.825,10.504,13.339,22.146,23.974,32.781c10.635,10.634,22.277,19.15,32.78,23.974c1.89,0.868,3.667,1.577,5.355,2.166
			L382.554,190.029z M405.759,166.771c-1.845,1.226-17.983-0.959-40.622-23.6c-22.713-22.712-24.846-38.888-23.617-40.611
			c0.239-0.172,0.753-0.281,1.52-0.281c4.342,0,16.788,3.499,33.603,18.631l-8.372,8.372c-2.97,2.971-2.97,7.784,0,10.754
			c1.485,1.484,3.432,2.226,5.377,2.226c1.946,0,3.892-0.742,5.378-2.226l8.369-8.369
			C405.132,151.379,406.889,165.086,405.759,166.771z"/>
	</g>
</g>
<g>
	<g>
		<path d="M433.58,0c-4.2,0-7.604,3.404-7.604,7.604v36.022c0,4.2,3.404,7.604,7.604,7.604c4.2,0,7.604-3.404,7.604-7.604V7.604
			C441.184,3.404,437.781,0,433.58,0z"/>
	</g>
</g>
<g>
	<g>
		<path d="M433.58,106.978c-4.2,0-7.604,3.404-7.604,7.604v36.023c0,4.2,3.404,7.604,7.604,7.604c4.2,0,7.604-3.404,7.604-7.604
			v-36.023C441.184,110.381,437.781,106.978,433.58,106.978z"/>
	</g>
</g>
<g>
	<g>
		<path d="M416.6,47.039l-23.155-27.595c-2.699-3.216-7.495-3.636-10.712-0.937c-3.217,2.699-3.637,7.495-0.937,10.712
			l23.155,27.595c1.504,1.792,3.658,2.716,5.829,2.716c1.725,0,3.459-0.584,4.884-1.779C418.88,55.052,419.3,50.256,416.6,47.039z"
			/>
	</g>
</g>
<g>
	<g>
		<path d="M485.365,128.989l-23.155-27.595c-2.7-3.216-7.495-3.636-10.712-0.937c-3.217,2.699-3.637,7.495-0.937,10.712
			l23.155,27.595c1.504,1.793,3.658,2.716,5.829,2.716c1.725,0,3.459-0.584,4.884-1.779
			C487.645,137.002,488.065,132.206,485.365,128.989z"/>
	</g>
</g>
<g>
	<g>
		<path d="M399.963,65.456L364.487,59.2c-4.141-0.734-8.079,2.033-8.808,6.167c-0.73,4.136,2.031,8.079,6.166,8.808l35.476,6.255
			c0.447,0.079,0.891,0.117,1.33,0.117c3.62,0,6.828-2.596,7.479-6.284C406.86,70.128,404.098,66.183,399.963,65.456z"/>
	</g>
</g>
<g>
	<g>
		<path d="M505.316,84.032l-35.476-6.255c-4.142-0.727-8.079,2.033-8.808,6.167c-0.73,4.135,2.032,8.08,6.167,8.808l35.476,6.255
			c0.447,0.079,0.891,0.117,1.33,0.117c3.62,0,6.828-2.596,7.479-6.284C512.213,88.705,509.451,84.761,505.316,84.032z"/>
	</g>
</g>
<g>
	<g>
		<path d="M502.087,39.552c-2.099-3.638-6.752-4.882-10.387-2.783L460.503,54.78c-3.637,2.1-4.883,6.75-2.783,10.387
			c1.407,2.44,3.964,3.803,6.592,3.803c1.29,0,2.599-0.328,3.795-1.02l31.197-18.011C502.941,47.839,504.187,43.188,502.087,39.552z
			"/>
	</g>
</g>
<g>
	<g>
		<path d="M401.443,376.143l-0.005-0.003c-3.817-1.531-8.126,0.269-9.798,4.026c-9.215,20.705-21.882,39.538-37.724,56.068
			c-18.144,18.932-39.488,33.825-63.438,44.268c-24.79,10.809-51.173,16.289-78.416,16.289c-52.485,0-101.823-20.433-138.923-57.536
			c-37.1-37.103-57.532-86.442-57.532-138.928c0-14.272,1.564-28.653,4.646-42.717c9.43-42.401,33.169-81.066,66.846-108.869
			c32.724-27.017,72.088-42.35,114.254-44.583c4.11-0.218,7.332-3.602,7.264-7.718c-0.071-4.283-3.666-7.699-7.943-7.468
			c-44.987,2.431-88.488,19.335-123.259,48.043C41.142,166.964,15.569,208.62,5.403,254.334c-3.319,15.154-5.003,30.63-5.003,45.994
			c0,56.548,22.014,109.705,61.987,149.681C102.36,489.984,155.515,512,212.063,512c29.346,0,57.774-5.907,84.494-17.556
			c25.804-11.251,48.797-27.294,68.34-47.686c17.094-17.838,30.758-38.17,40.691-60.53
			C407.326,382.314,405.418,377.737,401.443,376.143z"/>
	</g>
</g>
<g>
</g>
<g>
</g>
<g>
</g>
<g>
</g>
<g>
</g>
<g>
</g>
<g>
</g>
<g>
</g>
<g>
</g>
<g>
</g>
<g>
</g>
<g>
</g>
<g>
</g>
<g>
</g>
<g>
</g>
</svg>
