<svg id="Layer_1" enable-background="new 0 0 512.002 512.003" height="512" viewBox="0 0 512.002 512.003" width="512" xmlns="http://www.w3.org/2000/svg"><path d="m501.581 210.893c-1.322-6.323-6.543-11.091-12.959-11.833l-91.383-10.577 61.734-104.696c3.475-5.894 2.523-13.39-2.314-18.227-4.836-4.838-12.332-5.792-18.225-2.313l-103.553 61.06-7.137-110.272c-.436-6.708-5.277-12.309-11.854-13.704-6.578-1.397-13.276 1.752-16.399 7.703l-57.731 110.028-64.58-60.973c-4.487-4.237-11.114-5.291-16.696-2.66-5.582 2.634-8.982 8.417-8.567 14.575l6.476 96.138-114.929-14.068c-6.438-.788-12.657 2.651-15.408 8.528-2.751 5.876-1.412 12.854 3.318 17.296l78.482 73.682-92.216 52.899c-5.636 3.231-8.549 9.727-7.218 16.086 1.332 6.358 6.606 11.138 13.066 11.838l93.739 10.155-61.637 104.536c-3.474 5.893-2.522 13.39 2.315 18.226 4.836 4.837 12.333 5.787 18.226 2.313l104.536-61.643 10.177 93.632c.701 6.457 5.48 11.729 11.838 13.062 1.027.215 2.057.318 3.077.318 5.292 0 10.294-2.811 13.005-7.533l52.868-92.11 73.69 78.489c3.006 3.201 7.188 4.842 11.375 4.728 8.092-.223 14.58-6.851 14.58-14.994 0-.897-.078-1.778-.23-2.633l-13.842-113.084 113.895 13.942c6.441.795 12.656-2.652 15.406-8.529 2.752-5.876 1.412-12.855-3.318-17.296l-78.584-73.771 89.838-52.284c5.584-3.252 8.459-9.711 7.139-16.034z"/></svg>