<svg id="Layer_1" enable-background="new 0 0 512.003 512.003" height="512" viewBox="0 0 512.003 512.003" width="512" xmlns="http://www.w3.org/2000/svg"><path d="m379.664 276.371 107.232-62.409-114.292-13.231 73.449-124.563-124.565 73.449-8.713-134.615-66.925 127.551-78.969-74.556 7.696 114.238-132.935-16.272 93.252 87.548-109.79 62.979 116.853 12.659-73.444 124.564 124.555-73.448 12.688 116.737 62.951-109.677 87.551 93.256-16.274-132.935 132.94 16.272z" fill="#ffd400"/><path d="m379.664 276.371 107.232-62.409-114.292-13.231 73.449-124.563-124.565 73.449-8.713-134.615-56.775 108.205v286.256l12.707-22.138 87.551 93.256-16.274-132.935 132.94 16.272z" fill="#ff9f00"/><path d="m205.759 512.003c-1.02 0-2.05-.104-3.077-.318-6.357-1.332-11.136-6.604-11.838-13.062l-10.177-93.632-104.536 61.643c-5.894 3.475-13.39 2.521-18.226-2.314-4.837-4.836-5.789-12.332-2.314-18.225l61.636-104.535-93.738-10.156c-6.46-.699-11.734-5.479-13.066-11.836-1.332-6.36 1.582-12.854 7.218-16.086l92.216-52.9-78.481-73.683c-4.73-4.439-6.069-11.419-3.318-17.295 2.751-5.875 8.97-9.318 15.407-8.529l114.928 14.068-6.476-96.138c-.415-6.158 2.984-11.94 8.567-14.574s12.207-1.578 16.696 2.659l64.581 60.973 57.733-110.03c3.123-5.952 9.824-9.103 16.398-7.703 6.574 1.396 11.418 6.996 11.852 13.704l7.139 110.273 103.553-61.061c5.893-3.477 13.389-2.521 18.225 2.314 4.838 4.837 5.789 12.333 2.314 18.226l-61.735 104.697 91.383 10.577c6.418.742 11.639 5.51 12.959 11.833s-1.557 12.782-7.139 16.031l-89.836 52.285 78.584 73.771c4.73 4.438 6.07 11.419 3.318 17.295-2.748 5.877-8.961 9.323-15.406 8.529l-113.896-13.942 13.844 113.084c.15.854.229 1.734.229 2.633 0 8.144-6.488 14.771-14.576 14.994-4.207.1-8.373-1.525-11.379-4.728l-73.689-78.489-52.867 92.11c-2.714 4.726-7.717 7.537-13.01 7.537zm-12.69-146.738c2.3 0 4.604.528 6.724 1.594 4.554 2.283 7.637 6.722 8.188 11.785l7.709 70.922 40.008-69.707c2.365-4.123 6.546-6.879 11.267-7.432 4.719-.549 9.426 1.167 12.678 4.633l56.154 59.812-10.699-87.403c-.561-4.581 1.02-9.165 4.281-12.429 3.266-3.265 7.852-4.849 12.43-4.282l87.402 10.699-59.813-56.146c-3.455-3.244-5.174-7.928-4.637-12.635.535-4.707 3.264-8.884 7.357-11.267l68.264-39.729-69.504-8.045c-5.041-.583-9.447-3.678-11.707-8.223s-2.066-9.924.512-14.297l43.936-74.511-74.512 43.936c-4.486 2.646-10.029 2.772-14.635.337-4.604-2.437-7.615-7.089-7.953-12.289l-5.264-81.343-42.123 80.28c-2.181 4.154-6.183 7.052-10.812 7.823-4.633.774-9.355-.665-12.77-3.888l-51.132-48.275 5.122 76.044c.301 4.464-1.405 8.825-4.652 11.899-3.247 3.075-7.703 4.549-12.136 3.997l-87.401-10.699 59.807 56.149c3.466 3.254 5.185 7.958 4.632 12.68-.553 4.723-3.311 8.901-7.435 11.268l-69.773 40.025 70.989 7.689c5.065.549 9.506 3.632 11.791 8.186 2.285 4.556 2.102 9.957-.486 14.346l-43.931 74.509 74.503-43.933c2.346-1.384 4.983-2.08 7.621-2.08z" fill="#ff9f00"/><path d="m501.58 210.895c-1.32-6.322-6.541-11.091-12.959-11.833l-91.381-10.577 61.732-104.696c3.477-5.894 2.523-13.39-2.313-18.227-4.838-4.835-12.332-5.791-18.227-2.313l-103.553 61.06-7.137-110.272c-.436-6.708-5.277-12.309-11.854-13.704-6.574-1.399-13.275 1.751-16.398 7.703l-43.49 82.887v62.671c1.255-1.152 2.32-2.522 3.132-4.07l42.123-80.279 5.264 81.343c.338 5.2 3.35 9.854 7.953 12.289 4.605 2.437 10.146 2.311 14.635-.337l74.512-43.936-43.936 74.51c-2.578 4.373-2.771 9.752-.512 14.298 2.26 4.545 6.666 7.64 11.707 8.223l69.504 8.045-68.264 39.729c-4.096 2.383-6.822 6.56-7.357 11.267-.537 4.707 1.182 9.391 4.637 12.635l59.813 56.146-87.402-10.699c-4.578-.566-9.164 1.018-12.43 4.282-3.264 3.264-4.842 7.848-4.281 12.429l10.699 87.403-56.154-59.813c-3.252-3.465-7.959-5.181-12.678-4.632-4.535.53-8.555 3.11-10.963 6.969v60.2l15.633-27.237 73.689 78.489c3.004 3.201 7.172 4.826 11.377 4.729 8.09-.226 14.578-6.853 14.578-14.994 0-.897-.078-1.778-.23-2.634l-13.844-113.084 113.896 13.942c6.447.794 12.658-2.651 15.408-8.528s1.412-12.855-3.318-17.295l-78.586-73.771 89.838-52.285c5.58-3.251 8.457-9.71 7.137-16.033z" fill="#ff641a"/></svg>