<svg id="Layer_1" enable-background="new 0 0 512.003 512.003" height="512" viewBox="0 0 512.003 512.003" width="512" xmlns="http://www.w3.org/2000/svg"><path d="m501.583 210.893c-1.321-6.322-6.542-11.091-12.959-11.833l-91.382-10.577 61.733-104.696c3.476-5.894 2.522-13.39-2.313-18.227s-12.332-5.79-18.226-2.313l-103.553 61.06-7.138-110.272c-.435-6.708-5.277-12.309-11.853-13.704-6.572-1.399-13.275 1.751-16.398 7.703l-57.733 110.03-64.581-60.975c-4.488-4.237-11.114-5.29-16.696-2.66-5.583 2.635-8.982 8.417-8.568 14.575l6.476 96.138-114.928-14.068c-6.439-.79-12.657 2.651-15.408 8.528-2.751 5.876-1.412 12.854 3.318 17.296l78.482 73.682-92.216 52.899c-5.636 3.232-8.549 9.727-7.218 16.086 1.332 6.359 6.606 11.138 13.066 11.838l93.739 10.155-61.637 104.537c-3.474 5.892-2.522 13.389 2.315 18.225 4.836 4.836 12.333 5.787 18.226 2.314l104.537-61.644 10.176 93.632c.702 6.457 5.48 11.729 11.838 13.062 1.027.215 2.058.319 3.078.319 5.292 0 10.295-2.812 13.006-7.535l52.869-92.109 73.688 78.488c3.007 3.201 7.175 4.854 11.377 4.729 8.09-.223 14.578-6.851 14.578-14.994 0-.897-.078-1.777-.229-2.633l-13.844-113.084 113.896 13.941c6.444.793 12.658-2.651 15.407-8.528 2.751-5.876 1.412-12.854-3.317-17.296l-78.586-73.771 89.836-52.285c5.585-3.251 8.462-9.71 7.142-16.033zm-129.461 52.512c-4.096 2.383-6.823 6.56-7.357 11.267-.537 4.707 1.182 9.392 4.637 12.634l59.812 56.147-87.401-10.699c-4.573-.567-9.166 1.019-12.43 4.282s-4.843 7.848-4.281 12.429l10.698 87.402-56.151-59.812c-3.254-3.465-7.957-5.185-12.678-4.632-4.722.552-8.902 3.31-11.268 7.433l-40.009 69.705-7.708-70.92c-.55-5.064-3.634-9.504-8.188-11.787-2.121-1.063-4.424-1.593-6.724-1.593-2.64 0-5.274.696-7.62 2.079l-74.503 43.934 43.932-74.51c2.588-4.389 2.771-9.791.485-14.346-2.285-4.554-6.726-7.637-11.791-8.186l-70.989-7.69 69.772-40.024c4.124-2.365 6.882-6.545 7.435-11.267s-1.166-9.426-4.631-12.681l-59.808-56.148 87.401 10.699c4.44.548 8.889-.924 12.136-3.997 3.247-3.074 4.953-7.438 4.653-11.899l-5.122-76.044 51.132 48.275c3.413 3.223 8.135 4.66 12.768 3.888 4.63-.772 8.631-3.669 10.813-7.825l42.122-80.279 5.265 81.344c.338 5.199 3.349 9.853 7.953 12.289 4.604 2.438 10.146 2.31 14.636-.338l74.51-43.935-43.935 74.51c-2.578 4.373-2.771 9.752-.512 14.297s6.665 7.641 11.707 8.224l69.504 8.045z"/></svg>