<svg height="512" viewBox="0 0 128 128" width="512" xmlns="http://www.w3.org/2000/svg"><g><path d="m16.004 108.635-9.698-29.545 11.47 4.057-11.47-32.213 22.394 16.574-4.493-19.526 14.364 11.452-3.091-29.653 16.68 21.974 6.185-32.395 7.581 33.721 9.146-17.641 2.017 25.772 17.891-33.209-3.832 36.537 12.01-12.177-1.074 14.527 19.61-14.778-12.499 30.996 12.499-4.493-9.67 30.02z" fill="#ff4343"/><path d="m102.157 108.64a7.235 7.235 0 0 0 -.962-12.812 7.2 7.2 0 0 0 -5.287-8.76 10.963 10.963 0 0 0 -17.253-11.559 8.866 8.866 0 0 0 -12.164-2.3 14.326 14.326 0 1 0 -26.858 9.891 6.9 6.9 0 0 0 -6.113 8.071c-.3-.027-.608-.046-.917-.046a10.194 10.194 0 0 0 -7.1 17.511z" fill="#ffc143"/><path d="m121.693 106.885h-115.386a1.75 1.75 0 0 0 0 3.5h115.386a1.75 1.75 0 0 0 0-3.5z" fill="#575f64"/><g fill="#ffb509"><path d="m65.958 82.557a9.255 9.255 0 0 0 -14.888 6.761h-.022a8.088 8.088 0 0 0 -8.079 8.082 1.75 1.75 0 0 0 3.5 0 4.583 4.583 0 0 1 4.579-4.579 4.711 4.711 0 0 1 .489.037 9.084 9.084 0 0 0 .5 1.226 1.75 1.75 0 1 0 3.122-1.584 5.692 5.692 0 0 1 -.618-2.6 5.771 5.771 0 0 1 5.764-5.764 5.7 5.7 0 0 1 3.514 1.2 1.75 1.75 0 1 0 2.139-2.771z"/><path d="m87.746 100.548a1.749 1.749 0 0 1 -1.746-1.748 4.767 4.767 0 0 0 -4.761-4.761 1.75 1.75 0 1 1 0-3.5 8.271 8.271 0 0 1 8.261 8.261 1.749 1.749 0 0 1 -1.754 1.748z"/></g></g></svg>