<svg xmlns="http://www.w3.org/2000/svg" width="580" height="250"><g fill="none" fill-rule="evenodd"><path fill="#000" fill-rule="nonzero" d="M58.14 171.82c12.133 0 21.407-2.167 27.82-6.5s9.62-10.487 9.62-18.46c0-5.46-1.473-10.118-4.42-13.975-2.947-3.857-7.02-6.695-12.22-8.515 3.9-1.993 6.912-4.702 9.035-8.125s3.185-7.302 3.185-11.635c0-7.28-3.033-13.065-9.1-17.355-6.067-4.29-14.907-6.435-26.52-6.435H9v91h49.14Zm-5.98-54.86H34.48V99.41h17.68c8.667 0 13 2.903 13 8.71 0 5.893-4.333 8.84-13 8.84Zm216.223-36.14.794.004c7.9.085 14.785 1.45 20.656 4.091 6.067 2.73 10.747 6.63 14.04 11.7 3.294 5.07 4.94 11.028 4.94 17.875 0 6.587-1.538 12.328-4.615 17.225-3.076 4.897-7.475 8.732-13.195 11.505l19.63 28.6h-27.56l-16.51-24.18h-14.04v24.18h-25.74v-91h41.6ZM56.06 134.77c9.013 0 13.52 3.077 13.52 9.23 0 6.153-4.507 9.23-13.52 9.23H34.48v-18.46h21.58Zm210.763-33.67h-14.3v26.65h14.3c5.287 0 9.274-1.148 11.96-3.445 2.687-2.297 4.03-5.568 4.03-9.815s-1.343-7.54-4.03-9.88c-2.686-2.34-6.673-3.51-11.96-3.51Zm87.317 70.72v-91H328.4v91h25.74Zm48.967 0v-48.49l40.17 48.49h21.19v-91h-25.22v48.49l-40.17-48.49h-21.19v91h25.22Zm130.476 1.82c6.76 0 13.52-.997 20.28-2.99 6.76-1.993 12.74-4.853 17.94-8.58v-37.7h-22.75v24.96c-4.333 1.993-8.97 2.99-13.91 2.99-5.026 0-9.49-1.105-13.39-3.315-3.9-2.21-6.933-5.287-9.1-9.23-2.166-3.943-3.25-8.428-3.25-13.455 0-7.887 2.384-14.192 7.15-18.915 4.767-4.723 11.05-7.085 18.85-7.085 8.58 0 15.947 3.38 22.1 10.14l16.38-14.82c-4.506-5.373-10.14-9.49-16.9-12.35-6.76-2.86-14.386-4.29-22.88-4.29-9.706 0-18.416 2.015-26.13 6.045-7.713 4.03-13.736 9.642-18.07 16.835-4.333 7.193-6.5 15.34-6.5 24.44 0 9.1 2.167 17.247 6.5 24.44 4.334 7.193 10.314 12.805 17.94 16.835 7.627 4.03 16.207 6.045 25.74 6.045Z"/><g transform="translate(110.38 78)"><circle cx="48.5" cy="48.5" r="48.5" fill="#03081A"/><g fill="#FFF" transform="translate(19.587 30.779)"><circle cx="8.861" cy="8.861" r="8.861"/><circle cx="48.966" cy="8.861" r="8.861"/></g><rect width="32.644" height="7.462" x="32.644" y="67.154" fill="#FFF" rx="3.731"/></g><path fill="#000" fill-rule="nonzero" d="M19.9 49V16.42H7V7h37.62v9.42H31.78V49H19.9ZM77.14 7h11.88v42H77.14V7Zm-16.2 42H49.06V7h11.88v42Zm17.04-16.38H60.1v-9.84h17.88v9.84Zm30.36-9.36h19.5v8.88h-19.5v-8.88Zm.84 16.56h21.96V49H97.42V7h32.94v9.18h-21.18v23.64ZM267 244.84v-42h19.86c4.64 0 8.72.86 12.24 2.58 3.52 1.72 6.27 4.14 8.25 7.26 1.98 3.12 2.97 6.84 2.97 11.16 0 4.28-.99 7.99-2.97 11.13-1.98 3.14-4.73 5.57-8.25 7.29-3.52 1.72-7.6 2.58-12.24 2.58H267Zm11.88-9.48h7.5c2.4 0 4.49-.45 6.27-1.35 1.78-.9 3.17-2.22 4.17-3.96 1-1.74 1.5-3.81 1.5-6.21 0-2.44-.5-4.52-1.5-6.24-1-1.72-2.39-3.03-4.17-3.93-1.78-.9-3.87-1.35-6.27-1.35h-7.5v23.04Zm58.86 10.32c-3.36 0-6.46-.54-9.3-1.62-2.84-1.08-5.31-2.61-7.41-4.59-2.1-1.98-3.73-4.29-4.89-6.93-1.16-2.64-1.74-5.54-1.74-8.7 0-3.16.58-6.06 1.74-8.7 1.16-2.64 2.79-4.95 4.89-6.93 2.1-1.98 4.57-3.51 7.41-4.59s5.94-1.62 9.3-1.62c3.4 0 6.51.54 9.33 1.62 2.82 1.08 5.27 2.61 7.35 4.59s3.71 4.29 4.89 6.93c1.18 2.64 1.77 5.54 1.77 8.7 0 3.16-.59 6.07-1.77 8.73a21.267 21.267 0 0 1-4.89 6.93c-2.08 1.96-4.53 3.48-7.35 4.56-2.82 1.08-5.93 1.62-9.33 1.62Zm0-9.84c1.6 0 3.09-.28 4.47-.84 1.38-.56 2.58-1.37 3.6-2.43s1.82-2.33 2.4-3.81c.58-1.48.87-3.12.87-4.92 0-1.84-.29-3.49-.87-4.95-.58-1.46-1.38-2.72-2.4-3.78a10.326 10.326 0 0 0-3.6-2.43c-1.38-.56-2.87-.84-4.47-.84-1.6 0-3.09.28-4.47.84-1.38.56-2.58 1.37-3.6 2.43s-1.82 2.32-2.4 3.78c-.58 1.46-.87 3.11-.87 4.95 0 1.8.29 3.44.87 4.92.58 1.48 1.38 2.75 2.4 3.81s2.22 1.87 3.6 2.43 2.87.84 4.47.84Zm29.58 9v-42h9.78l17.4 28.56h-5.16l16.92-28.56h9.78l.12 42h-10.92l-.12-25.38h1.86l-12.66 21.24h-5.28l-13.02-21.24h2.28v25.38h-10.98Zm52.2 0 18.54-42h11.7l18.6 42H456l-14.52-36.18h4.68l-14.52 36.18h-12.12Zm10.14-8.16 3.06-8.76h20.52l3.06 8.76h-26.64Zm42.06 8.16v-42h11.88v42h-11.88Zm20.34 0v-42h9.78L525 230.8h-4.62v-27.96h11.64v42h-9.78l-23.16-27.96h4.62v27.96h-11.64Zm63.12.84c-3.44 0-6.75-.43-9.93-1.29-3.18-.86-5.77-1.97-7.77-3.33l3.9-8.76c1.88 1.2 4.05 2.19 6.51 2.97 2.46.78 4.91 1.17 7.35 1.17 1.64 0 2.96-.15 3.96-.45 1-.3 1.73-.7 2.19-1.2.46-.5.69-1.09.69-1.77 0-.96-.44-1.72-1.32-2.28-.88-.56-2.02-1.02-3.42-1.38-1.4-.36-2.95-.72-4.65-1.08-1.7-.36-3.4-.82-5.1-1.38a20.3 20.3 0 0 1-4.65-2.19c-1.4-.9-2.54-2.08-3.42-3.54-.88-1.46-1.32-3.31-1.32-5.55 0-2.52.69-4.8 2.07-6.84s3.45-3.68 6.21-4.92c2.76-1.24 6.2-1.86 10.32-1.86 2.76 0 5.47.31 8.13.93 2.66.62 5.03 1.53 7.11 2.73l-3.66 8.82c-2-1.08-3.98-1.89-5.94-2.43-1.96-.54-3.86-.81-5.7-.81-1.64 0-2.96.17-3.96.51-1 .34-1.72.79-2.16 1.35-.44.56-.66 1.2-.66 1.92 0 .92.43 1.65 1.29 2.19.86.54 2 .98 3.42 1.32 1.42.34 2.98.69 4.68 1.05 1.7.36 3.4.81 5.1 1.35 1.7.54 3.25 1.26 4.65 2.16 1.4.9 2.53 2.08 3.39 3.54.86 1.46 1.29 3.29 1.29 5.49 0 2.44-.69 4.69-2.07 6.75-1.38 2.06-3.44 3.71-6.18 4.95-2.74 1.24-6.19 1.86-10.35 1.86Z"/></g></svg>