<svg xmlns="http://www.w3.org/2000/svg" xmlns:xlink="http://www.w3.org/1999/xlink" width="504" height="288"><defs><path id="a" d="M0 0h504v288H0z"/></defs><g fill="none" fill-rule="evenodd"><mask id="b" fill="#fff"><use xlink:href="#a"/></mask><path fill="#e5e5e5" fill-rule="nonzero" d="M446.97 173.39h-.08l-31.57 42.54-63 21.23h-.09l-31.56 42.52-63 21.22h-.09l-31.64 42.57-42.39 14.27h1.27l41.46-14h.08l31.57-42.51 63-21.23h.08l31.61-42.53 63-21.23h.09l31.61-42.54 63-21.23h.09l20.77-28v-.86l-21.16 28.55-63.05 21.23Zm-7.89-5.32H439l-31.57 42.51-63 21.23h-.09l-31.56 42.51-63.05 21.23h-.08l-31.56 42.51-58.17 19.59h1.27l57.23-19.28h.09l31.56-42.52 63-21.22h.08l31.57-42.52 63-21.22h.08l31.57-42.51 63-21.23h.09l28.66-38.6v-.88l-29 39.2-63.04 21.2Zm31.48-106.2L439 104.33l-63.05 21.23h-.08l-31.55 42.54-63 21.23h-.09l-31.62 42.54-63 21.23h-.08l-31.61 42.54-63.05 21.23h-.08l-30.33 40.87h.64l30.11-40.56 63.05-21.23h.08l31.56-42.51 63-21.23h.08l31.57-42.51 63-21.23h.09l31.68-42.6 63-21.22h.08l31.56-42.52 60.25-20.26v-.47l-60.56 20.39-.09.08Zm7.89 5.31-31.56 42.47-63.05 21.22h-.08l-31.57 42.51-63 21.23h-.09l-31.56 42.51-63 21.23h-.09l-31.56 42.51-63.13 21.32h-.08l-26.36 35.56h.64l26.16-35.25 63.05-21.22h.08l31.56-42.52 63.05-21.22h.08l31.57-42.51 63-21.23h.09l31.56-42.51 63.05-21.23h.08l31.57-42.51 52.33-17.62v-.55L478.54 67.1l-.09.08Zm39.46 154.11-31.59 42.46-63 21.23h-.09l-31.56 42.51-63 21.23h-.09l-6.65 9h.64l6.43-8.68 62.99-21.17h.08l31.57-42.51 63-21.23h.09l31.59-42.6 12.88-4.34v-.43l-13.22 4.45-.07.08Zm7.89 5.32-31.57 42.46-63 21.23h-.08l-31.61 42.57-63 21.22h-.09l-2.7 3.65h.57l2.5-3.36 63-21.23h.08l31.57-42.51 63-21.23h.09l31.66-42.54 5-1.68v-.43l-5.33 1.8-.09.05Zm-63.05-42.55h-.08l-31.56 42.52-63.05 21.22h-.08l-31.57 42.51-63 21.23h-.09l-31.6 42.55-10.82 3.65h1.27l9.89-3.33h.08l31.57-42.54 63-21.23h.09l31.56-42.51 63-21.23h.09l31.56-42.51 63.05-21.23h.08l5-6.72v-.85l-5.41 7.29-62.98 21.18Zm-7.89-5.31h-.08l-31.57 42.51-63 21.23h-.08l-31.61 42.52-63 21.23h-.09l-31.56 42.51-26.61 9h1.28l25.67-8.65h.08l31.57-42.51 63-21.23h.08l31.57-42.52 63-21.22h.09l31.56-42.52 63.05-21.22h.08l12.88-17.35v-.85l-13.3 17.91-63.01 21.16Zm55.16-90.36-31.57 42.48-63 21.23h-.09l-31.6 42.57-63.05 21.2h-.08l-31.57 42.51-63 21.23h-.08l-31.57 42.51-63 21.23h-.09l-10.59 14.27h.59l10.39-14 63-21.23h.08l31.53-42.41 63-21.23h.09l31.56-42.51 63-21.23h.08l31.57-42.52 63-21.22h.09l31.73-42.6 20.77-7v-.43l-21.11 7.11-.08.04Zm15.78 10.63-31.57 42.51-63 21.23h-.08l-31.57 42.51-63 21.23h-.09l-31.64 42.57-63 21.23h-.08l-31.62 42.57-63 21.22h-.08l-2.75 3.65h.64l2.49-3.36 63-21.23h.09l31.56-42.51 63.05-21.23h.08l31.61-42.54 63-21.23h.08l31.57-42.51 63-21.23h.09l31.64-42.6 5-1.68v-.42l-5.33 1.79-.09.03Zm-7.89-5.32-31.59 42.52-63 21.22h-.09l-31.56 42.51-63 21.23h-.09l-31.56 42.51-63 21.23h-.08l-31.57 42.51-63 21.23h-.09l-6.65 9h.64l6.44-8.68 63-21.22h.09l31.56-42.51 63-21.23h.09l31.56-42.51 63.05-21.23h.08l31.57-42.51 63-21.23h.09l31.52-42.55 12.88-4.34v-.43l-13.22 4.46-.07.02Zm-31.59-21.25-31.54 42.51-63 21.23h-.08l-31.57 42.51-63 21.23h-.08l-31.57 42.52-63 21.23h-.09l-31.69 42.59-63 21.22h-.08l-22.48 30.25h.63l22.22-29.93 63.05-21.23h.08l31.57-42.51 63-21.23h.09l31.56-42.51 63-21.23h.09l31.56-42.51 63.13-21.32h.08l31.57-42.51 44.44-15v-.43l-44.78 15.09-.11.03Zm-23.59-16h-.08l-31.54 42.57-63.05 21.23h-.08l-31.57 42.52-63 21.22h-.09l-31.6 42.57-63.05 21.22h-.08l-31.56 42.51-63.05 21.26h-.08l-31.58 42.54-10.82 3.65h1.27l9.89-3.33h.09l31.57-42.54 63-21.23h.09l31.56-42.51 63.09-21.26h.08l31.57-42.51 63-21.23h.09l31.56-42.51 63-21.23h.09l31.56-42.51 63.13-21.32h.08l5-6.71v-.86l-5.42 7.26-63.07 21.2Zm31.48 21.28-31.54 42.54-63 21.23h-.09l-31.56 42.51-63.09 21.26h-.08l-31.53 42.54-63 21.23h-.09l-31.56 42.51-63 21.23h-.09l-18.49 24.9h.64L116 333.06l62.93-21.19h.08l31.57-42.52 63-21.22h.09l31.65-42.55 63-21.22h.08l31.56-42.49 63.05-21.23h.08l31.57-42.51 36.55-12.31v-.43l-36.89 12.34h-.11Zm15.81 138.2-31.57 42.51-63 21.23h-.09l-31.56 42.51-63.05 21.23h-.08l-10.6 14.27h.64l10.38-14 63-21.23h.08l31.57-42.51 63-21.23h.09l31.56-42.51 20.77-7v-.43l-21.06 7.1-.08.06Zm7.89-186-63 21.23h-.08L423.21 93.7l-63 21.23h-.08l-31.61 42.54-63 21.23h-.09l-31.56 42.51-63 21.23h-.08l-31.57 42.51-63 21.23h-.09l-31.69 42.6-26.6 9h1.27l25.67-8.65h.08l31.57-42.51 63-21.23h.09l31.56-42.52 63-21.22h.08l31.57-42.52 63-21.22h.08l31.57-42.52 63-21.22h.09l31.56-42.51 63.22-21.41h.08l12.88-17.38v-.85l-13.3 17.91Zm-15.79 53.15-31.56 42.51-63.04 21.28h-.09l-31.56 42.52-63.05 21.19h-.08l-31.57 42.52-63 21.22h-.08l-31.61 42.55-63 21.23h-.09l-14.58 19.64h.64l14.33-19.3 63-21.23h.08l31.57-42.51 63-21.23h.09l31.64-42.6 63.05-21.23h.08l31.56-42.51 63.05-21.26h.08l31.57-42.51 28.66-9.65v-.43l-29 9.77-.09.03Zm-15.8 244.44-22.43 30.22h.64l22.22-29.93 44.44-15v-.42l-44.78 15.07-.09.06Zm7.89 5.32-18.48 24.9h.63l18.28-24.62 36.55-12.31v-.42l-36.87 12.42-.11.03Zm-23.67-16-30.32 40.85h.63l30.11-40.56 60.25-20.26v-.43l-60.56 20.43-.11-.03Zm31.56 21.26-14.54 19.59h.64l14.33-19.3 28.66-9.65v-.43l-29 9.76-.09.03Zm-39.37-26.6h-.08l-31.56 42.51-10.77 3.73h1.27l9.88-3.33h.09l31.53-42.54 63.05-21.23h.08l5-6.72v-.85l-5.41 7.28-63.08 21.15Zm63.05 42.54-2.71 3.65h.64l2.49-3.36 5-1.68v-.43l-5.33 1.79-.09.03Zm-7.89-5.31-6.65 9h.63l6.44-8.68 12.88-4.33v-.43l-13.22 4.45-.08-.01Zm-15.77-138.12-31.56 42.52-63 21.22h-.09l-31.6 42.52-63.05 21.25h-.08l-14.54 19.59h.63l14.33-19.3 63.05-21.23h.08l31.56-42.51 63.05-21.23h.08l31.57-42.57 28.66-9.65v-.35l-29 9.76-.09-.02Zm7.9 132.86-10.6 14.27h.64l10.38-14 20.77-7v-.43l-21.11 7.11-.08.05Zm-55.16-37.23h-.08l-31.57 42.51-26.6 9h1.27l25.67-8.65h.09l31.56-42.51 63.05-21.23h.08l12.88-17.35v-.86l-13.3 17.92-63.05 21.17Zm23.59-111.57-31.56 42.51-63.05 21.23h-.08l-31.57 42.51-63 21.23h-.09l-26.37 35.53h.59l26.17-35.25 63-21.22h.09l31.56-42.52 63.05-21.22h.08l31.57-42.51 52.33-17.62v-.47L478.5 194.6l-.05.07Zm15.78 10.63-31.56 42.51-63 21.23h-.09l-31.56 42.51-63.05 21.23h-.08l-18.57 24.96h.64l18.36-24.62 63-21.25h.08l31.56-42.52 63.05-21.22h.08l31.57-42.52 36.55-12.3v-.44l-36.89 12.4-.09.03Zm-7.91-5.32-31.56 42.52-63 21.23h-.08l-31.59 42.54-63 21.22h-.08l-22.49 30.25h.64l22.22-29.93 63-21.23h.09l31.56-42.51 63.05-21.23h.08l31.57-42.51 44.44-15v-.46l-44.78 15.08-.07.03Zm-15.78-10.62L439 231.87l-63.05 21.23h-.08l-31.55 42.54-63 21.23h-.09l-30.32 40.85h.64l30.11-40.56 63-21.23h.09l31.57-42.52 63-21.23h.08l31.56-42.51 60.23-20.28v-.42l-60.56 20.39h-.09Zm-23.57 111.56h-.08l-31.57 42.55-42.38 14.27h1.27l41.45-14h.09l31.57-42.5 63-21.23h.09l20.77-28v-.86l-21.16 28.55-63.05 21.22Zm-7.89-5.31H439l-31.57 42.51-58.11 19.62h1.27l57.23-19.28h.08l31.57-42.52 63-21.22h.09l28.66-38.6v-.86l-29.1 39.12-63.04 21.23Zm39.37 26.6-26.38 35.53h.64l26.17-35.25 52.33-17.62v-.43l-52.67 17.74-.09.03ZM36.97 152.44l63.05-21.22h.08l31.57-42.55 63-21.22h.08l31.57-42.58 63-21.23h.09l2.71-3.65h-.64l-2.5 3.36-63 21.23h-.08l-31.53 42.55-63.05 21.23h-.09l-31.55 42.51-63 21.23h-.08L4.99 194.67l-5 1.68v.43l5.41-1.82 31.57-42.52Zm-15.78 53.14 31.57-42.51 63-21.23h.08l31.57-42.52 63-21.22h.09l31.64-42.57 63.05-21.22h.08L315.87.03h-.64l-10.38 14-63.05 21.19h-.08l-31.57 42.54-63 21.23h-.08L115.5 141.5l-63 21.23h-.09L20.77 205.3 0 212.3v.43l21.11-7.11.08-.04Zm55.13 37.23h.09l31.58-42.54 63.05-21.23h.08l31.57-42.51 63-21.23h.09l31.56-42.51 63-21.23h.09l31.56-42.52 26.61-9h-1.27l-25.68 8.65h-.08l-31.48 42.5-63 21.23h-.08l-31.62 42.54-63 21.23h-.09l-31.56 42.51-63 21.23h-.08L76 242.5l-63 21.23h-.08L.04 281.08v.86l13.28-17.9 63-21.23Zm-7.89-5.31h.09l31.56-42.51 63.05-21.23h.08l31.56-42.51 63.05-21.23h.08l31.57-42.51 63-21.23h.09l31.56-42.51L394.95.12h-1.27l-9.9 3.34h-.08l-31.51 42.41-63 21.22h-.09l-31.6 42.56-63.04 21.22h-.09l-31.56 42.51-63.05 21.26h-.08l-31.57 42.54-63 21.23h-.08l-5 6.72v.85l5.41-7.29 62.99-21.19ZM16.24 0h-1.28L5.07 3.34h-.08l-5 6.72v.86L5.4 3.63 16.24 0Zm28.62 221.53 31.57-42.52 63-21.22h.09l31.6-42.55 63-21.22h.08l31.62-42.54 63-21.23h.08L351.34.03h-.64l-22.18 29.9-63 21.23h-.09l-31.6 42.54-63 21.23h-.08l-31.62 42.54-63 21.23h-.09l-31.6 42.54-44.44 15v.42l44.78-15.07.08-.06Zm-7.89-5.32 31.57-42.51 63-21.23h.09l31.56-42.51 63.13-21.26h.08l31.52-42.54 63-21.23h.08L339.49.02h-.63l-18.23 24.6-63.04 21.25h-.09l-31.56 42.52-63.05 21.23h-.08l-31.57 42.51-63 21.23h-.09l-31.6 42.57L0 228.23v.43l36.89-12.42.08-.03Zm-7.89-5.34 31.57-42.51 63-21.23h.09l31.58-42.51 63-21.23h.09l31.62-42.52 63-21.23h.08L327.66.05h-.64l-14.28 19.26-63.05 21.22h-.08l-31.56 42.55-63 21.22h-.08l-31.65 42.57-63 21.2h-.09l-31.57 42.54L0 220.26v.43l29-9.76.08-.06Zm-7.89 122.25 31.57-42.51 63-21.23h.08l31.61-42.51 63-21.23h.09l31.56-42.51 63.09-21.26h.08l31.57-42.52 63-21.22h.08l31.61-42.6 63-21.22h.09L505.21.03h-.63l-10.39 14-63 21.19h-.08l-31.57 42.54-63 21.23h-.09l-31.56 42.51-63 21.23h-.08l-31.57 42.51-63 21.23h-.08l-31.7 42.6-63 21.23h-.09l-31.6 42.57-20.77 7v.43l21.11-7.11.08-.07Zm-7.87-5.31 31.56-42.51 63.03-21.23h.08l31.57-42.51 63-21.23h.09l31.56-42.51 63-21.23h.09l31.56-42.51 63.05-21.23h.08l31.65-42.63 63-21.23h.09l6.65-9h-.64l-6.42 8.69-63 21.19h-.09l-31.58 42.58-63 21.23h-.09L297 136.2l-63 21.22h-.08l-31.57 42.51-63 21.23h-.09l-31.69 42.59-63 21.23h-.09l-31.6 42.54L0 331.87v.43l13.22-4.43.1-.06Zm23.67-47.83 63.03-21.23h.08l31.57-42.51 63-21.23h.08l31.57-42.57 63-21.22h.09l31.64-42.55 63-21.22h.08l31.62-42.58 63-21.23h.09l2.7-3.65h-.63l-2.5 3.36-63 21.23h-.09l-31.56 42.55-63.05 21.23h-.08l-31.57 42.51-63 21.23h-.08l-31.61 42.57-63.05 21.2h-.09l-31.55 42.57-63 21.23h-.08L4.98 322.21l-5 1.68v.43l5.41-1.83 31.6-42.51Zm47.26-31.85h.09l31.56-42.52 63.05-21.22h.08l31.55-42.52 63-21.23h.09l31.65-42.59 63-21.18h.08l31.56-42.51L442.32 0h-1.27L399.6 14h-.09l-31.53 42.5-63.05 21.23h-.08l-31.53 42.54-63 21.23h-.09l-31.56 42.51-63 21.23h-.09L83.9 247.81l-63 21.23h-.08l-20.77 28v.83l21.14-28.52 63.06-21.22Zm-47.28 95.62 31.57-42.51 63-21.23h.09l31.56-42.51 63.13-21.26h.08l31.57-42.51 63-21.23h.08l31.57-42.57 63-21.23h.09l31.61-42.54 63-21.23h.09L528.9.02h-.58l-18.3 24.6-63.05 21.25h-.08l-31.57 42.52-63 21.23h-.09l-31.56 42.51-63 21.23h-.09l-31.56 42.52-63.05 21.23h-.08l-31.57 42.52-63 21.22h-.09l-31.68 42.62L0 355.77v.43l36.89-12.42.08-.03Zm55.16-90.31h.08l31.57-42.57 63-21.23h.08l31.57-42.51 63-21.23h.09l31.56-42.51 63.05-21.23h.08l31.57-42.51L465.95.06h-1.27l-57.16 19.22h-.09l-31.56 42.59-63.05 21.18h-.08l-31.57 42.54-63 21.23h-.08l-31.57 42.52-63 21.22h-.09l-31.64 42.57-63 21.22h-.08L.05 312.95v.92l29.03-39.2 63.05-21.23Zm-39.37-26.57 31.56-42.54 63-21.23h.09l31.56-42.51 63.05-21.23h.08l31.57-42.51 63-21.23h.09L363.22 0h-.64l-26.17 35.25-63 21.23h-.09l-31.6 42.54-63.05 21.23h-.08l-31.56 42.52-63.05 21.24h-.08l-31.58 42.55-52.33 17.62v.43l52.68-17.74h.09ZM29.08 338.44l31.57-42.52 63-21.22h.09l31.58-42.55 63-21.22h.09l31.56-42.51 63-21.23h.08l31.57-42.51 63-21.23h.08l31.72-42.58 63-21.23h.09L517.05.05h-.63l-14.3 19.26-63 21.22h-.08l-31.61 42.54-63 21.23h-.09l-31.6 42.57-63.05 21.2h-.08l-31.56 42.51-63 21.23h-.08l-31.65 42.57-63 21.23h-.09l-31.57 42.54L0 347.8v.43l29-9.77.08-.02ZM13.32 200.27l31.56-42.51 63.05-21.23h.08l31.57-42.51 63-21.23h.09l31.58-42.57 63-21.23h.09l6.65-9h-.63l-6.44 8.68-63.01 21.2h-.08l-31.57 42.58-63 21.23h-.09l-31.6 42.54-63 21.22h-.09l-31.6 42.54L0 204.32v.43l13.22-4.45.1-.03ZM29.08 83.36l31.57-42.49 63-21.23h.09L138.32 0h-.64l-14.36 19.31-63 21.22h-.09L28.66 83.08 0 92.73v.42l29-9.76.08-.03Zm15.78 10.63 31.57-42.51 63-21.23h.09L161.95.03h-.63l-22.19 29.9-63 21.23h-.09L44.44 93.7 0 108.7v.43l44.78-15.11.08-.03Zm7.9 5.31 31.56-42.51 63-21.23h.09L173.79.03h-.64l-26.12 35.22-63.05 21.23h-.08L52.32 99.02 0 116.64v.43l52.67-17.74.09-.03ZM36.97 88.67l31.57-42.51 63-21.23h.09L150.12.02h-.64l-18.24 24.6L68.2 45.87h-.09L36.55 88.39 0 100.7v.43L36.89 88.7l.08-.03Zm23.68 16L92.21 62.1l63.05-21.23h.06L185.65.02h-.64l-30.09 40.54-63 21.23h-.08l-31.62 42.54L0 124.61v.43l60.56-20.39.09.02ZM39.91 0h-1.27L12.96 8.65h-.08L0 26.02v.85L13.32 8.96 39.91 0Zm47.35 0h-1.28L28.74 19.28h-.08L0 57.87v.86l29.08-39.14L87.26 0ZM63.58 0h-1.26L20.86 14h-.08L.01 42v.87l21.18-28.59L63.58 0Zm4.87 110h.09l31.56-42.58 63.05-21.23h.08l31.56-42.51L205.62.03h-1.3l-9.89 3.34h-.09l-31.53 42.5L99.76 67.1h-.08l-31.57 42.55-63.04 21.22h-.08l-5 6.72v.86l5.41-7.29L68.45 110ZM21.19 78.05l31.57-42.52 63-21.22h.08L126.44.03h-.63l-10.39 14-63 21.19-.1.03-31.55 42.51-20.77 7v.43l21.11-7.1.08-.04Zm70.94 47.82h.08l31.57-42.51 63-21.23h.08l31.57-42.51L276.6.03h-1.27l-57.2 19.25h-.08l-31.57 42.59-63 21.23h-.09l-31.6 42.49-63.05 21.28h-.08L0 185.48v.85l29.08-39.17 63.05-21.29Zm-15.81-10.6h.09l31.58-42.54 63.05-21.23h.08l31.57-42.52 26.6-9h-1.27l-25.7 8.67h-.09L170.7 51.19l-63 21.23h-.08L76 114.96l-63 21.23h-.08L.04 153.53v.86l13.28-17.89 63-21.23Zm7.89 5.32h.09l31.57-42.51 63-21.23h.08l31.57-42.51L252.91.06h-1.27l-41.46 14h-.09l-31.5 42.44-63 21.23h-.09l-31.6 42.54-63 21.23h-.08l-20.77 28v.86l21.14-28.49 63.02-21.28ZM13.32 72.73l31.54-42.51 63.05-21.23h.08l6.65-9h-.63l-6.44 8.68-63.04 21.2h-.09L12.88 72.45 0 76.78v.43l13.22-4.45.1-.03Zm23.65-47.86 63.05-21.19h.08l2.71-3.65h-.64l-2.49 3.36-63 21.23h-.08L4.99 67.13l-5 1.68v.43l5.41-1.82 31.57-42.55Zm23.68 207.28 31.56-42.51 63.05-21.23h.08l31.56-42.54 63-21.22h.08l31.57-42.52 63.09-21.26h.09L375.05.02h-.63l-30.1 40.54-63 21.23h-.09l-31.62 42.54-63 21.23h-.08l-31.61 42.54-63 21.23h-.08l-31.62 42.54L0 252.15v.43l60.56-20.4.09-.03Z" mask="url(#b)"/></g></svg>