<svg id="Capa_1" enable-background="new 0 0 511.996 511.996" height="512" viewBox="0 0 511.996 511.996" width="512" xmlns="http://www.w3.org/2000/svg"><g><g><g><g><g><path d="m504.494 436.749-73.255-290.317c-6.473-25.654-26.007-46.067-51.43-53.396-12.703-3.662-27.333-6.425-42.558-6.425-35.592 0-91.866 9.344-129.857 16.525-23.178 4.381-39.652 25.062-38.759 48.633l.473 12.493-144.762 29.74c-9.808 3.656-15.145 14.249-12.245 24.307l14.686 61.292c8.37 34.932 39.603 59.566 75.524 59.566h56.907c11.311 0 20.94 8.234 22.694 19.409l12.276 78.173z" fill="#fef0dc"/></g></g></g><path d="m404.724 436.753c41.69-76.12 19.97-211.24 10.28-259.54h24.01l65.48 259.54z" fill="#fcddb3"/><path d="m482.304 348.823c-22.97 23.99-55.35 51.64-82.53 51.64-34.79 0-179.57.01-179.57-84.08 0-54.7-97.09-51.46-97.09-95.26 0-30.14 45.99-56.86 45.99-56.86l-.47-12.49c-.89-23.57 15.58-44.26 38.76-48.64 37.99-7.18 94.27-16.52 129.86-16.52 15.22 0 29.85 2.76 42.56 6.42 25.42 7.33 44.95 27.74 51.43 53.4z" fill="#da875d"/><path d="m431.244 146.433c-3.66-14.49-11.48-27.31-22.17-37.02-25.23-2.11-54.82 2.38-76.57-5.17-43.15-14.98-46.19 13-46.19 13l42.42 228.61c1.98 10.65 11.74 18.05 22.53 17.08 14.39-1.3 27.84-6.46 39.16-14.6s20.49-19.25 26.32-32.47c.038-.087.077-.174.115-.262 2.85-6.474 12.542-4.395 12.451 2.678-.342 26.605-2.895 53.443-9.086 77.764 21.86-8.76 44.67-29.04 62.08-47.22z" fill="#c76d3d"/><ellipse cx="202.323" cy="166.368" rx="10.597" ry="13.66"/><g><path d="m8.035 209.045 11.192 40.492c1.47 5.319 8.05 7.236 12.11 3.499 10.353-9.53 26.022-27.559 27.337-50.295.534-9.242-7.673-16.605-16.841-15.318l-21.597 3.032c-8.846 1.242-14.581 9.98-12.201 18.59z" fill="#756f6f"/><path d="m58.669 202.737c-1.31 22.743-16.976 40.769-27.334 50.303-4.061 3.732-10.637 1.811-12.103-3.501l-3.574-12.928c9.035-10.183 18.467-24.844 19.48-42.271.122-2.07-.203-4.049-.871-5.851l7.566-1.063c9.168-1.291 17.377 6.075 16.836 15.311z" fill="#5b5555"/></g></g><path d="m273.893 92.652 42.418 228.61c1.977 10.655 11.738 18.054 22.53 17.081 28.77-2.596 53.828-20.635 65.477-47.069 20.646-46.851 48.825-120.798 42.568-163.347-9.664-65.718-83.652-33.29-126.804-48.27s-46.189 12.995-46.189 12.995z" fill="#e09977"/><path d="m404.314 291.273c-5.82 13.21-15 24.33-26.32 32.47-11.31 8.14-24.76 13.3-39.15 14.6-10.8.97-20.56-6.43-22.53-17.08l-8.88-47.86c51.17 25.88 85.63-29.66 100.22-90.39 11.79-49.03-7.61-83.31-19.41-98.67 28.46.96 53.32 7.37 58.64 43.58 6.26 42.55-21.92 116.5-42.57 163.35z" fill="#da875d"/><g><path d="m172.389 171.003c2.62-1.275 4.329-3.998 4.215-7.025l-.474-12.493c-.758-20.025 12.976-37.26 32.658-40.979 21.227-4.013 41.011-7.353 58.941-9.963l22.169 119.48c.756 4.072 4.663 6.763 8.742 6.006 4.073-.755 6.762-4.669 6.006-8.742l-23.121-124.616c.417-1.542 1.724-5.003 5.39-7.323 6.184-3.916 16.802-3.433 30.707 1.395 15.282 5.305 33.548 5.146 51.216 4.993 40.34-.348 65.331 1.264 70.627 37.283 4.544 30.896-10.376 87.445-42.01 159.231-10.551 23.944-33.27 40.276-59.288 42.624-6.984.624-13.204-4.09-14.482-10.979l-12.817-69.076c-.756-4.073-4.669-6.765-8.742-6.006-4.073.755-6.762 4.669-6.006 8.742l12.817 69.076c2.537 13.674 14.306 23.301 27.949 23.301.869 0 1.747-.039 2.629-.119 31.454-2.838 58.915-22.577 71.667-51.514 10.422-23.649 21.465-51.17 29.896-78.223l16.431 65.118c.858 3.4 3.912 5.667 7.267 5.667.607 0 1.225-.075 1.84-.23 4.016-1.013 6.451-5.091 5.437-9.107l-22.921-90.796c5.204-22.389 7.619-43.269 5.175-59.893-3.354-22.808-14.087-37.363-32.813-44.497-15.555-5.926-34.48-5.762-52.786-5.603-16.39.143-33.338.29-46.167-4.164-18.636-6.469-33.321-6.435-43.648.102-5.878 3.721-9.002 8.683-10.654 12.643-18.841 2.693-39.744 6.199-62.237 10.451-12.974 2.452-24.65 9.49-32.878 19.815-8.227 10.324-12.482 23.276-11.982 36.471l.233 6.142-50.213 10.315c-4.058.833-6.671 4.798-5.837 8.856.729 3.548 3.853 5.992 7.339 5.992.5 0 1.008-.05 1.517-.155l24.239-4.98c-11.836 11.355-22.804 26.337-22.804 42.899 0 25.443 24.815 37.126 48.813 48.423 24.827 11.688 48.277 22.728 48.277 46.837 0 21.703 8.695 39.992 25.844 54.358 13.563 11.362 32.572 20.269 56.498 26.472 41.464 10.75 87.417 10.75 104.728 10.75 21.819 0 48.201-14.949 78.508-44.439l18.939 75.059c.858 3.4 3.912 5.667 7.267 5.667.607 0 1.225-.075 1.84-.23 4.016-1.013 6.451-5.091 5.437-9.107l-31.355-124.266c-1.014-4.016-5.092-6.45-9.107-5.437-4.016 1.013-6.451 5.091-5.437 9.107l8.145 32.28c-29.286 29.91-55.604 46.365-74.25 46.365-16.776 0-61.339 0-100.951-10.27-47.183-12.233-71.107-34.542-71.107-66.31 0-33.627-30.223-47.855-56.888-60.408-25.014-11.776-40.202-19.998-40.202-34.852-.001-23.756 37.543-47.521 41.774-50.118z"/><path d="m13.134 254.432 6.36 26.917c9.214 38.458 43.27 65.318 82.817 65.318h56.907c7.667 0 14.096 5.498 15.285 13.072l12.275 78.173c.581 3.698 3.771 6.337 7.4 6.337.387 0 .779-.03 1.173-.092 4.092-.643 6.888-4.48 6.246-8.573l-12.275-78.173c-2.343-14.917-15.003-25.745-30.104-25.745h-56.907c-32.582 0-60.639-22.129-68.23-53.813l-3.809-15.895c2.247-.613 4.354-1.757 6.144-3.405 10.47-9.637 28.258-29.647 29.745-55.38.196-3.388-.396-6.714-1.675-9.76l16.238-3.336c4.057-.833 6.671-4.798 5.837-8.856-.833-4.057-4.799-6.67-8.856-5.837l-26.823 5.51c-3.207-1.054-6.648-1.382-10.092-.899l-21.597 3.032c-6.354.893-12.017 4.48-15.537 9.845-3.521 5.364-4.559 11.987-2.85 18.17l11.191 40.492c.282 1.018.667 1.985 1.137 2.898zm3.062-53.33c1.168-1.78 2.974-2.924 5.083-3.22 0 0 22.287-3.104 22.629-3.104 1.84 0 3.618.688 4.997 1.958.923.85 2.447 2.705 2.281 5.571-1.176 20.336-15.944 36.904-24.776 45.068l-11.146-40.329c-.568-2.052-.237-4.163.932-5.944z"/></g></g></svg>