<svg id="Capa_1" enable-background="new 0 0 511.99 511.99" height="512" viewBox="0 0 511.99 511.99" width="512" xmlns="http://www.w3.org/2000/svg"><g><g><path d="m161.709 317.73-65.427-10.132c-26.59-4.118-49.095-21.999-58.865-47.07-13.22-33.927-16.528-72.459-17.222-95.323-.344-11.333 8.089-21.015 19.362-22.236l87.96-9.528 2.857-31.326c1.136-12.453 8.643-23.429 19.837-29.002l41.371-20.597s79.057-30.322 169.003 19.268 143.913 89.479 143.913 89.479v307.379h-326.871c0 .002-30.504-61.787-15.918-150.912z" fill="#f8f3f1"/><g fill="#efe2dd"><path d="m204.781 468.642h-27.15s-30.51-61.79-15.92-150.91c16.27 1.58 32.36-4.46 43.56-16.36 0 0-37.311 90.04-.49 167.27z"/><path d="m381.835 157.015c7.767 7.566 11.414 18.449 9.759 29.165-4.456 28.844-17.666 58.343-36.811 77.16-15.359 15.096-23.708 29.635-28.244 40.838-5.184 12.803-17.597 21.188-31.41 21.188-20.841 0-39.46-13.101-46.441-32.738-19.481-54.8-22.923-101.938-22.623-130.503.192-18.235 13.584-33.575 31.617-36.288 17.79-2.676 41.968-3.761 67.985 2.431 28.762 6.845 46.237 19.074 56.168 28.747z"/><path d="m504.501 161.262v307.38h-225.03c260.16-90.37 202.32-277.35 172.42-342.8 33.84 21.55 52.61 35.42 52.61 35.42z"/></g><path d="m124.639 311.99-28.358-4.392c-26.588-4.122-49.097-22.002-58.863-47.069-7.705-19.779-12.042-41.123-14.459-60.017h34.152s-2.342 48.353 43.022 67.905c26.503 11.428 27.916 30.053 24.506 43.573z" fill="#97756f"/><path d="m504.501 161.267c0 370.732-185.371 297.993-202.572 189.278-17.211-108.715-101.68-128.279-144.68-141.896-43-13.629-29.728-75.21-29.728-75.21l2.849-31.325c1.144-12.452 8.643-23.426 19.844-28.994l41.371-20.599s79.052-30.322 169.002 19.261c89.939 49.593 143.914 89.485 143.914 89.485z" fill="#d46a50"/><path d="m391.591 186.182c-4.45 28.84-17.66 58.34-36.81 77.16-15.36 15.09-23.71 29.63-28.24 40.84-5.04 12.43-16.88 20.69-30.21 21.16-12.35-42.32-36.37-68.15-62.32-84.96-6.7-32.14-8.15-59.29-7.95-78.26.2-18.23 13.59-33.57 31.62-36.29 17.79-2.67 41.97-3.76 67.99 2.44 28.76 6.84 46.23 19.07 56.16 28.74 7.77 7.57 11.42 18.45 9.76 29.17z" fill="#c2583f"/><path d="m504.501 161.272c0 301.25-122.4 309.68-177.5 243.92 179.36 20.39 140.64-214.93 127.16-277.9 32.41 20.73 50.34 33.98 50.34 33.98z" fill="#c2583f"/><path d="m62.057 145.401c2.917 15.427 8.564 63.933-31.847 78.806-1.993.734-4.249.221-5.717-1.315-5.255-5.498-16.622-21.537-16.991-57.686-.117-11.413 8.609-20.984 19.987-21.89l28.837-2.297c2.752-.219 5.218 1.669 5.731 4.382z" fill="#494646"/><path d="m30.21 224.202c-1.99.74-4.25.23-5.72-1.31-3.35-3.51-9.19-11.31-13.08-25.89 29.89-6.26 34.07-38.1 34.11-55.12l10.81-.86c2.75-.22 5.21 1.67 5.73 4.38 2.911 15.43 8.561 63.93-31.85 78.8z" fill="#383638"/><path d="m369.335 123.833c7.767 7.566 11.414 18.449 9.759 29.165-4.456 28.844-17.666 58.343-36.811 77.16-15.359 15.096-23.708 29.635-28.244 40.838-5.184 12.803-17.597 21.188-31.41 21.188-20.841 0-39.461-13.101-46.441-32.738-19.481-54.8-22.923-101.938-22.623-130.503.192-18.235 13.584-33.575 31.617-36.288 17.79-2.676 41.968-3.761 67.985 2.431 28.762 6.845 46.237 19.073 56.168 28.747z" fill="#494646"/><path d="m379.091 153.002c-4.45 28.84-17.66 58.34-36.81 77.16-15.36 15.09-23.71 29.63-28.24 40.83-5.19 12.81-17.6 21.19-31.41 21.19-10.42 0-20.29-3.27-28.42-9.01-8.13-5.72-14.53-13.91-18.02-23.73-1.93-5.42-3.7-10.77-5.32-16.03 15.48 20.68 35.92 26.06 50.54-2.51 15.79-30.84 23.52-16.21 56.38-60.66 26.14-35.37-3.71-70.33-17.01-83.15 24.28 7.06 39.53 17.95 48.55 26.74 7.77 7.57 11.42 18.45 9.76 29.17z" fill="#383638"/></g><g><path d="m511.952 162.025c.257-2.547-.788-5.16-2.996-6.792-.544-.402-55.402-40.755-144.75-90.016-47.99-26.459-92.942-30.457-122.186-29.155-31.857 1.419-52.271 9.125-53.124 9.452-.224.085-.443.182-.657.289l-41.37 20.597c-13.623 6.783-22.582 19.88-23.964 35.035l-2.3 25.212-93.712 9.193c-15.234 1.214-27.047 14.146-26.892 29.443.386 37.679 12.113 55.514 19.07 62.792.385.403.799.765 1.224 1.109 2.71 12.29 6.113 23.751 10.133 34.068 10.676 27.398 35.469 47.231 64.705 51.758l58.044 8.988c-1.989 14.351-2.967 28.839-2.912 43.173.016 4.132 3.37 7.472 7.499 7.471h.03c4.142-.016 7.486-3.387 7.471-7.529-.053-13.831.911-27.816 2.86-41.665 16.129-.33 31.415-7.052 42.607-18.94 2.839-3.016 2.696-7.762-.319-10.602-3.017-2.839-7.764-2.698-10.603.319-9.387 9.971-22.602 15.126-36.259 14.133-.183-.013-.364-.011-.544-.01-.051-.009-.1-.023-.151-.031l-29.57-4.579c1.131-13.154-2.746-32.379-30.184-44.21-35.662-15.37-38.391-50.527-38.507-59.171 9.228-19.84 7.297-43.233 5.389-55.142l48.736-5.279c-1.945 19.527-1.51 61.888 36.263 73.86 2.527.8 5.196 1.621 7.985 2.479 17.381 5.344 38.886 11.973 59.706 23.987 1.931 6.443 4.069 13.011 6.445 19.694 7.511 21.132 26.849 35.769 48.974 37.542 7.821 15.228 13.35 32.783 16.427 52.217 8.298 52.444 51.742 94.232 96.533 94.232 1.842 0 3.692-.071 5.535-.214 22.709-1.769 55.053-14.992 80.176-67.94 23.247-48.99 35.054-122.139 35.188-215.768zm-496.95 3.105c-.076-7.45 5.671-13.747 13.083-14.338l26.938-2.146c3.052 17.684 5.419 55.362-26.063 68.007-4.741-5.52-13.636-20.054-13.958-51.523zm82.163 110.175c15.001 6.468 21.993 15.704 21.263 28.134l-20.999-3.252c-23.966-3.711-44.284-19.95-53.023-42.381-3.297-8.463-6.158-17.794-8.534-27.788 6.303-2.685 11.544-6.104 15.886-10.037 3.947 17.508 14.96 42.201 45.407 55.324zm37.82-141.182 2.857-31.326c.906-9.936 6.78-18.522 15.712-22.969l40.999-20.412c2.544-.91 21.155-7.248 48.758-8.395 27.18-1.133 68.966 2.695 113.652 27.333 76.589 42.227 127.45 77.742 140.027 86.739-.825 239.196-77.899 263.844-101.565 265.688-18.868 1.463-38.336-6.366-54.854-22.059-16.339-15.522-27.724-37.154-31.234-59.349-2.97-18.759-8.089-35.976-15.238-51.299 12.025-3.444 22.012-12.216 26.889-24.263 5.451-13.458 14.384-26.346 26.552-38.304 7.465-7.338 14.218-16.284 20.073-26.591 2.046-3.602.784-8.18-2.817-10.226-3.599-2.043-8.179-.784-10.226 2.817-5.169 9.099-11.072 16.939-17.545 23.303-13.641 13.406-23.714 27.999-29.94 43.372-4.059 10.025-13.658 16.502-24.457 16.502-17.651 0-33.475-11.152-39.375-27.75-18.892-53.143-22.494-98.892-22.189-127.912.153-14.599 10.766-26.775 25.232-28.951 3.72-.559 7.599-1.016 11.529-1.357 4.127-.358 7.182-3.994 6.823-8.121s-4.021-7.185-8.12-6.823c-4.241.368-8.435.862-12.464 1.468-21.787 3.278-37.769 21.625-38.001 43.626-.239 22.744 1.822 55.332 11.211 93.586-17.876-8.65-35.286-14.018-49.897-18.51-2.747-.845-5.376-1.653-7.863-2.44-32.732-10.375-26.108-58.335-24.529-67.377z"/><path d="m166.951 396.934c-.454-4.117-4.159-7.092-8.275-6.634-4.117.453-7.088 4.158-6.635 8.276 4.926 44.75 18.294 72.239 18.86 73.387 1.306 2.646 3.962 4.179 6.726 4.179 1.112 0 2.242-.249 3.308-.772 3.714-1.826 5.244-6.32 3.423-10.036-.129-.26-12.792-26.472-17.407-68.4z"/><path d="m380.578 179.156c2.644-8.244 4.638-16.66 5.928-25.013 2.022-13.091-2.44-26.43-11.938-35.682-10.207-9.943-28.844-23.336-59.665-30.672-8.476-2.017-17.347-3.411-26.369-4.143-4.104-.328-7.747 2.74-8.082 6.869-.335 4.128 2.74 7.747 6.869 8.082 8.263.67 16.375 1.944 24.109 3.785 27.491 6.543 43.816 18.198 52.671 26.823 6.029 5.875 8.863 14.341 7.58 22.648-1.171 7.58-2.983 15.225-5.387 22.724-1.265 3.944.907 8.167 4.852 9.432.762.244 1.533.36 2.292.36 3.172-.001 6.119-2.03 7.14-5.213z"/><path d="m420.665 337.695c54.854-51.847 50.037-148.693 49.76-152.756-.28-4.13-3.856-7.264-7.986-6.972-4.132.278-7.255 3.854-6.979 7.985.057.847 4.701 78.099-32.585 127.184.365-16.057-1.363-32.168-5.232-47.816-.995-4.021-5.063-6.473-9.081-5.48-4.021.994-6.476 5.06-5.481 9.081 7.746 31.331 6.155 64.68-4.376 95.14l-6.384-25.825c-.993-4.021-5.058-6.476-9.081-5.481-4.021.994-6.476 5.06-5.481 9.081l9.259 37.451c1.241 5.02 5.719 8.525 10.89 8.525 4.502 0 8.55-2.665 10.313-6.785 5.946-13.883 10.102-28.469 12.444-43.332z"/></g><ellipse cx="156.607" cy="154.519" rx="10.586" ry="13.645"/></g></svg>