<svg id="Capa_1" enable-background="new 0 0 511.996 511.996" height="512" viewBox="0 0 511.996 511.996" width="512" xmlns="http://www.w3.org/2000/svg"><g><g><path d="m329.558 201.475s20.198-51.808-23.186-99.995c-29.481-32.745-57.609-36.028-72.609-34.77-6.465.542-11.431 5.966-11.542 12.453-.825 48.123 6.887 97.606 6.887 97.606z" fill="#aa5e33"/><path d="m163.304 461.341h341.189l-61.345-211.387c-18.572-59.217-64.92-105.615-124.117-124.251-12.758-4.016-26.259-5.095-39.493-3.156l-69.079 10.124c-21.086 3.09-39.888 14.938-51.776 32.625l-14.358 21.362c-6.609 9.832-16.326 17.162-27.595 20.815l-96.238 31.195c-6.754 2.189-10.861 9.022-9.625 16.013l7.819 44.253c4.022 22.767 23.396 39.634 46.499 40.484l67.761 2.495c21.555.794 37.784 19.988 34.877 41.36-2.487 18.269-4.519 43.711-4.519 78.068z" fill="#da875d"/><path d="m368.691 169.756-2.793-21.872c36.348 23.76 63.937 59.617 77.246 102.074l61.351 211.381h-150.564c149.702-69.315 14.76-291.583 14.76-291.583z" fill="#c76d3d"/><g><path d="m250.345 461.341s-.041.098-.118.282c.04-.095.078-.186.118-.282z" fill="#fef0dc"/><path d="m397.065 398.959c-28.385 32.351-94.045 62.296-94.228 62.379h131.699c0-25.308-3.292-43.482-7.484-56.367-4.223-12.98-20.984-16.272-29.987-6.012z" fill="#fef0dc"/><path d="m390.683 405.616c2.28-2.193 4.418-4.418 6.382-6.654 9-10.265 25.767-6.971 29.988 6.011 4.189 12.883 7.483 31.058 7.483 56.366h-58.09c50.498-20.422 14.237-55.723 14.237-55.723z" fill="#fcddb3"/><path d="m353.438 301.723c-24.512-83.024-112.28-80.652-143.909-85.396-22.968-3.445-22.168-14.396-20.008-20.135 1.136-3.017 1.08-6.385-.401-9.248-10.476-20.243-37.342-7.258-44.79-.29-6.608 9.831-16.324 17.16-27.592 20.813l-96.245 31.201c-6.753 2.193-10.865 9.022-9.622 16.014l7.811 44.257c4.025 22.756 23.399 39.632 46.504 40.483l67.754 2.491c21.556.792 37.787 19.988 34.878 41.362-2.486 18.269-4.518 43.71-4.518 78.065h87.047c43.187-103.685 127.602-76.594 103.091-159.617z" fill="#fef0dc"/><path d="m250.341 461.339h-87.042c0-9.436.153-18.196.425-26.323 19.505 13.592 56.737 16.876 72.424-15.741 20.029-41.639 63.26-69.053 85.929-95.943 21.316-25.287-6.807-76.689-20.083-85.798 22.123 11.836 41.748 31.319 51.446 64.188 24.512 83.026-59.911 55.928-103.099 159.617z" fill="#fcddb3"/></g><g><path d="m371.038 185.63s20.198-51.808-23.186-99.995c-29.481-32.745-57.609-36.028-72.609-34.77-6.465.542-11.431 5.966-11.542 12.453-.825 48.123 6.887 97.606 6.887 97.606z" fill="#da875d"/><path d="m270.587 160.924s-6.163-39.546-6.881-82.314c0 0 47.974 14.234 53.916 51.397s11.065 54.559 11.065 54.559-39.914 8.698-58.1-23.642z" fill="#fef0dc"/><path d="m328.688 184.57s-21.12 4.604-39.632-5.334c23.236-36.916-10.091-75.129-25.003-88.318-.164-4.047-.284-8.16-.349-12.305 0 0 47.977 14.236 53.922 51.392 5.935 37.166 11.062 54.565 11.062 54.565z" fill="#fcddb3"/></g><path d="m7.746 254.502 4.986 28.219c.498 2.816 3.079 4.758 5.925 4.479 11.82-1.16 39.852-8.85 37.01-55.923-.214-3.544-3.749-5.917-7.126-4.822l-29.726 9.636c-7.766 2.516-12.489 10.372-11.069 18.411z" fill="#494646"/><path d="m18.655 287.195c-2.84.28-5.43-1.66-5.92-4.47l-1.22-6.89c24.22-11.29 26.41-32.4 25.08-45.51l11.95-3.87c3.37-1.1 6.91 1.28 7.12 4.82 2.84 47.07-25.19 54.76-37.01 55.92z" fill="#383638"/><g><path d="m415.473 385.926c-8.993-1.847-17.981 1.174-24.045 8.087-27.04 30.817-91.055 60.206-91.694 60.498-3.771 1.714-5.438 6.16-3.724 9.931 1.256 2.764 3.981 4.398 6.832 4.398 1.038 0 2.093-.217 3.099-.674 2.743-1.247 67.503-30.914 96.762-64.26 2.463-2.807 6.105-4.035 9.749-3.287 1.707.351 5.852 1.704 7.469 6.674 4.722 14.511 7.116 32.695 7.116 54.046 0 4.142 3.358 7.5 7.5 7.5s7.5-3.358 7.5-7.5c0-22.929-2.642-42.674-7.852-58.687-2.812-8.643-9.807-14.895-18.712-16.726z"/><path d="m360.63 299.599c-7.379-24.993-20.967-44.974-40.388-59.387-14.992-11.127-33.208-18.943-55.687-23.896-4.044-.89-8.047 1.665-8.938 5.71-.892 4.045 1.665 8.047 5.71 8.938 45.629 10.054 73.406 33.894 84.917 72.882 11.663 39.503-2.701 49.5-28.776 67.647-22.479 15.644-53.264 37.07-74.046 86.962-1.593 3.824.216 8.214 4.04 9.807.942.393 1.919.579 2.881.579 2.938 0 5.726-1.737 6.926-4.618 19.098-45.85 46.639-65.017 68.768-80.418 26.464-18.419 49.32-34.326 34.593-84.206z"/><path d="m233.586 211.434c-3.304-.365-6.454-.683-9.415-.98-5.283-.532-9.846-.992-13.53-1.544-10.983-1.647-13.646-4.856-14.201-5.801-.61-1.04-.578-2.478.098-4.274 1.92-5.104 1.644-10.696-.76-15.34-4.046-7.817-10.546-12.783-18.798-14.361-3.876-.74-7.877-.668-11.785-.06 10.702-15.671 27.562-26.229 46.351-28.982l48.029-7.039c1.719 16.827 3.466 28.16 3.601 29.026.138.886.434 1.74.874 2.521 12.726 22.63 35.81 28.617 52.918 28.617 5.12 0 9.706-.536 13.317-1.323 2.034-.443 3.791-1.713 4.853-3.503s1.332-3.942.747-5.939c-.05-.171-5.083-17.523-10.855-53.628-5.423-33.918-40.324-50.384-53.881-55.56-.019-3.344-.003-6.636.052-9.817.046-2.692 2.054-4.888 4.67-5.108 12.958-1.087 38.815 1.666 66.409 32.314 16.591 18.428 25.313 39.476 25.923 62.561.458 17.291-4.043 29.407-4.157 29.708-1.493 3.855.417 8.193 4.27 9.695.895.349 1.816.514 2.722.514 3.001 0 5.834-1.813 6.99-4.778.306-.786 2.915-7.708 4.355-18.522 21.833 19.198 38.817 43.377 49.437 70.548 1.157 2.961 3.989 4.772 6.987 4.772.908 0 1.832-.166 2.728-.517 3.858-1.508 5.763-5.857 4.255-9.715-12.922-33.062-34.548-62.031-62.555-83.844-.825-20.032-7.466-45.643-29.808-70.459-31.928-35.463-63.085-38.546-78.81-37.226-9.593.805-17.1 8.22-18.254 17.633-7.813-1.796-15.713-2.417-23.226-1.787-10.319.866-18.235 9.377-18.415 19.798-.237 13.817.206 29.026 1.299 45.241l-6.648.974c-23.128 3.389-43.873 16.46-56.914 35.862l-14.357 21.362c-5.645 8.399-14.056 14.743-23.684 17.864l-59.42 19.26c-2.776-1.106-5.852-1.224-8.769-.279l-29.726 9.636c-11.262 3.65-18.201 15.194-16.141 26.852l4.985 28.219c.545 3.085 2.176 5.745 4.438 7.642l1.515 8.57c4.606 26.071 27.152 45.701 53.609 46.675l8.763.323c.094.003.188.005.281.005 4.015 0 7.341-3.179 7.49-7.224.152-4.139-3.08-7.618-7.219-7.771l-8.763-.323c-19.439-.715-36.005-15.138-39.389-34.294l-.696-3.937c14.271-3.208 39.925-15.346 37.872-60.999l55.795-18.086c12.473-4.043 23.402-12.162 30.901-22.904 4.952-4.207 16.274-9.357 24.22-7.836 3.724.712 6.359 2.785 8.294 6.522.454.876.469 2.029.042 3.163-2.283 6.068-1.925 12.16 1.007 17.153 4.031 6.864 12.179 11.128 24.91 13.038 4.044.606 8.774 1.083 14.251 1.635 2.915.293 6.018.606 9.271.965.28.031.558.046.833.046 3.773 0 7.021-2.84 7.445-6.677.455-4.116-2.514-7.822-6.631-8.277zm76.63-80.242c3.648 22.818 6.981 38.244 9.064 46.932-10.902.491-30.489-1.483-41.489-19.729-.96-6.565-5.01-35.74-6.274-68.68 13.171 6.012 35.139 19.212 38.699 41.477zm-54.038-54.742c.234 13.915 1.055 29.697 2.026 41.643l-27.3 4.001c-1.007-15.355-1.41-29.736-1.186-42.802.046-2.692 2.054-4.888 4.67-5.108 5.022-.419 12.666-.306 21.79 2.266zm-236.397 203.058-4.648-26.311c-.765-4.33 1.812-8.618 5.995-9.973l27.182-8.811c1.212 34.8-16.454 43.319-28.529 45.095z"/><path d="m133.221 334.417-28.37-1.044c-4.113-.141-7.619 3.08-7.771 7.219s3.08 7.618 7.219 7.771l28.37 1.044c8.189.301 15.911 4.07 21.186 10.34 5.328 6.333 7.648 14.329 6.535 22.514-3.042 22.364-4.585 48.97-4.585 79.08 0 4.142 3.358 7.5 7.5 7.5s7.5-3.358 7.5-7.5c0-29.436 1.497-55.361 4.448-77.057 1.667-12.254-1.948-24.717-9.919-34.192-7.996-9.505-19.701-15.218-32.113-15.675z"/><path d="m511.696 459.251-56.416-194.398c-1.154-3.977-5.313-6.266-9.293-5.112-3.978 1.154-6.267 5.315-5.112 9.293l56.416 194.398c.952 3.28 3.947 5.412 7.199 5.412.692 0 1.396-.097 2.094-.299 3.978-1.156 6.267-5.316 5.112-9.294z"/></g></g><g><path d="m170.588 223.465c3.186-.51 5.527-1.915 5.751-3.583.04-.295.06-.593.06-.894 0-5.876-7.39-10.639-16.506-10.639s-16.506 4.763-16.506 10.639c0 1.642.579 3.195 1.612 4.581 1.538 2.065 6.174 3.098 10.353 2.398 5.07-.849 10.145-1.688 15.236-2.502z"/></g></g></svg>