<svg id="Capa_1" enable-background="new 0 0 511.996 511.996" height="512" viewBox="0 0 511.996 511.996" width="512" xmlns="http://www.w3.org/2000/svg"><g><g><path d="m344.653 206.028s13.506-51.677-33.249-92.824c-31.771-27.961-58.973-27.964-73.145-25.094-6.108 1.237-10.242 6.964-9.626 13.165 4.568 46.006 17.432 92.359 17.432 92.359z" fill="#aa5e33"/><path d="m176.763 444.834h327.731l-58.926-203.049c-17.84-56.881-62.359-101.449-119.221-119.35-12.255-3.858-25.223-4.894-37.935-3.031l-66.354 9.724c-20.254 2.968-38.314 14.348-49.734 31.338l-13.791 20.519c-6.348 9.444-15.682 16.485-26.507 19.994l-112.047 29.964c-6.487 2.103-10.432 8.666-9.246 15.381l7.51 42.508c3.864 21.869 22.473 38.07 44.665 38.887l84.693 2.396c20.705.762 36.294 19.199 33.501 39.729-2.387 17.549-4.339 41.988-4.339 74.99z" fill="#f8f3f1"/><path d="m504.496 444.829h-327.73c0-4.1.03-8.07.09-11.91 233.14-30.32 150.66-79.23 131.66-88.79h166.75z" fill="#e0d3ce"/><path d="m359.876 355.489c-120.53-6.32-82.134-77.906-110.417-107.219-16.747-17.357-60.178-14.432-74.473 14.984-14.263 29.349-52.797-14.984-162.009-4.235l-2.24-12.69c-1.19-6.72 2.76-13.28 9.24-15.39l112.05-29.96c10.83-3.51 20.16-10.55 26.51-19.99l13.79-20.52c11.42-16.99 29.48-28.37 49.73-31.34l66.36-9.73c4.09-.6 8.22-.9 12.33-.9 8.66 0 17.3 1.32 25.6 3.94 56.86 17.9 101.38 62.46 119.22 119.35l58.93 203.04h-327.73c202.919 0 303.629-83.02 183.109-89.34z" fill="#d67f4f"/><path d="m163.266 210.109c-14.13 4.9-19.91-3.91-19.33-14.8 5.75-3.71 10.73-8.57 14.6-14.32l9.27-13.79c2.64-.11 5.46.27 8.44 1.26 33.3 11.03-2.67 38.07-12.98 41.65z" fill="#f8f3f1"/><path d="m374.048 164.751-2.683-21.009c34.915 22.822 61.415 57.265 74.199 98.048l58.931 203.043h-144.624c143.797-66.582 14.177-280.082 14.177-280.082z" fill="#c76d3d"/><path d="m359.876 137.509.5-.4c40.34 22.48 71.09 59.73 85.19 104.68l58.93 203.04h-143.57c177.28-74.24-1.05-307.32-1.05-307.32z" fill="#c76d3d"/><g><path d="m260.37 444.834s-.039.094-.113.271c.038-.091.075-.179.113-.271z" fill="#fef0dc"/></g><g><path d="m382.465 186.294s13.506-51.677-33.249-92.824c-31.771-27.961-58.973-27.964-73.145-25.094-6.108 1.237-10.242 6.964-9.626 13.165 4.568 46.006 17.432 92.359 17.432 92.359z" fill="#d67f4f"/><path d="m283.877 173.901s-10.281-37.045-15.725-77.769c0 0 47.355 8.242 57.16 43.038s16.628 50.822 16.628 50.822-37.113 12.74-58.063-16.091z" fill="#9d552e"/><path d="m341.942 189.996s-19.638 6.742-38.406-.679c18.061-37.806-17.988-70.557-33.683-81.481-.607-3.843-1.179-7.754-1.702-11.701 0 0 47.359 8.244 57.165 43.032 9.798 34.798 16.626 50.829 16.626 50.829z" fill="#8e4d29"/></g><path d="m7.737 246.154 4.789 27.106c.478 2.705 2.957 4.57 5.691 4.302 11.354-1.114 38.28-8.501 35.55-53.717-.205-3.404-3.601-5.684-6.845-4.632l-28.554 9.256c-7.459 2.416-11.995 9.963-10.631 17.685z" fill="#494646"/><path d="m18.215 277.558c-2.728.269-5.216-1.595-5.686-4.294l-1.172-6.618c23.265-10.845 25.368-31.122 24.091-43.715l11.479-3.717c3.237-1.057 6.637 1.229 6.839 4.63 2.728 45.213-24.197 52.599-35.551 53.714z" fill="#383638"/><g><path d="m360.268 347.999c-27.446-1.439-47.63-6.301-61.705-14.865-3.54-2.153-8.152-1.029-10.306 2.509-2.153 3.539-1.03 8.153 2.509 10.306 16.25 9.887 38.728 15.458 68.717 17.03 33.134 1.738 44.975 9.469 44.85 14.241-.182 6.945-16.119 22.463-59.28 36.747-43.702 14.463-100.534 22.683-160.749 23.318.053-5.496.159-10.912.325-16.161.131-4.14-3.118-7.603-7.258-7.734-4.156-.154-7.603 3.118-7.734 7.258-.248 7.797-.373 15.934-.373 24.185 0 4.142 3.358 7.5 7.5 7.5.032 0 .063-.004.095-.005 64.524-.008 125.927-8.573 172.907-24.121 43.745-14.477 69.099-32.918 69.563-50.595.315-12.079-9.674-27.023-59.061-29.613z"/><path d="m389.825 147.833c-3.663-18.313-13.216-40.246-35.654-59.993-10.173-8.953-20.756-15.887-31.454-20.61-3.791-1.675-8.217.041-9.89 3.832-1.673 3.789.042 8.217 3.832 9.89 9.294 4.104 18.581 10.21 27.602 18.149 17.818 15.681 28.448 34.723 31.593 56.598 2.373 16.498-.613 28.57-.651 28.722-1.032 4 1.366 8.084 5.366 9.13.636.166 1.274.246 1.901.246 3.33 0 6.37-2.234 7.251-5.605.209-.8 1.985-7.936 2.107-18.739 21.596 20.431 37.58 45.912 46.56 74.503l58.903 202.97c.952 3.28 3.947 5.412 7.199 5.412.692 0 1.396-.097 2.094-.299 3.978-1.154 6.267-5.315 5.112-9.293l-58.926-203.048c-.015-.051-.03-.103-.046-.154-11.383-36.3-33.133-68.012-62.899-91.711z"/></g></g><path d="m348.843 187.058c-.067-.157-6.794-16.142-16.313-49.923-8.945-31.746-43.902-43.66-57.605-47.169-.381-3.122-.723-6.194-1.018-9.165-.241-2.422 1.329-4.603 3.652-5.073 3.811-.771 7.853-1.123 11.999-1.06 4.156.059 7.555-3.234 7.623-7.375.068-4.142-3.233-7.555-7.375-7.623-5.237-.082-10.355.37-15.224 1.356-9.094 1.841-15.476 9.708-15.678 18.817-7.577-.805-15.107-.507-22.134.917-9.898 2.004-16.605 11.143-15.602 21.257.611 6.15 1.406 12.63 2.361 19.315l-2.559.375c-22.299 3.268-42.298 15.87-54.871 34.575l-13.792 20.519c-5.351 7.961-13.306 13.987-22.416 16.985l-74.227 19.85c-3.276-2.205-7.299-2.776-11.056-1.558l-28.554 9.255c-10.957 3.552-17.708 14.783-15.705 26.125l4.789 27.106c.529 2.994 2.101 5.578 4.28 7.439l1.438 8.134c4.449 25.179 26.223 44.137 51.839 45.08l84.629 2.394c7.783.286 15.121 3.868 20.134 9.828 5.063 6.019 7.269 13.617 6.21 21.396-.878 6.457-1.642 13.466-2.27 20.833-.352 4.127 2.709 7.758 6.836 8.11.217.018.432.027.645.027 3.854 0 7.131-2.953 7.464-6.864.607-7.118 1.343-13.876 2.188-20.085 1.612-11.854-1.885-23.908-9.595-33.074-7.734-9.193-19.055-14.719-31.125-15.164l-84.629-2.394c-18.534-.683-34.329-14.434-37.555-32.698l-.619-3.505c8.104-1.868 19.843-6.702 27.793-19.17 34.095.612 59.034 6.666 77.373 11.121 12.2 2.963 21.837 5.302 29.848 4.961 10.105-.431 17.206-5.142 21.706-14.402 5.361-11.032 16.427-18.628 30.361-20.842 12.683-2.017 25.53 1.115 31.969 7.789 7.038 7.294 9.184 18.551 11.669 31.587 2.159 11.321 4.605 24.153 10.992 35.92 1.359 2.504 3.937 3.924 6.599 3.924 1.208 0 2.434-.293 3.571-.91 3.641-1.976 4.99-6.529 3.014-10.169-5.273-9.715-7.392-20.828-9.44-31.574-2.688-14.102-5.469-28.684-15.61-39.193-9.989-10.353-27.279-15.023-45.117-12.187-18.841 2.994-33.966 13.6-41.499 29.1-3.896 8.015-9.609 7.471-34.522 1.421-17.938-4.357-41.965-10.188-74.597-11.376 1.636-6.279 2.51-13.679 2.307-22.397l72.911-19.509c1.278-.414 2.534-.883 3.776-1.384 1.504 3.928 3.958 7.106 7.22 9.25 2.367 1.557 5.854 3.012 10.612 3.012 2.807 0 6.056-.507 9.78-1.798.918-.319 2.075-.828 3.392-1.497.235.502.507.993.854 1.459 1.477 1.983 5.931 2.976 9.945 2.304 4.87-.815 9.745-1.621 14.635-2.404 3.06-.49 5.309-1.839 5.524-3.442.038-.283.058-.569.058-.859 0-5.083-5.764-9.288-13.306-10.075 6.01-6.047 10.804-13.391 10.749-20.991-.044-6.171-3.118-14.475-17.136-19.7 10.272-13.733 25.66-22.943 42.705-25.441l43.03-6.306c4.946 25.611 10.171 44.568 10.475 45.663.24.864.633 1.678 1.16 2.403 12.402 17.067 30.515 22.012 45.72 22.012 8.272 0 15.685-1.464 20.847-3.236 1.968-.676 3.566-2.141 4.414-4.042.847-1.9.866-4.069.053-5.985zm-329.305 82.78-4.415-24.989c-.709-4.015 1.68-7.99 5.558-9.247l25.736-8.342c1.002 32.599-15.439 40.8-26.879 42.578zm163.039-88.041c.048 6.646-15.077 18.902-21.769 21.226-3.278 1.136-5.914 1.29-7.233.423-.985-.648-1.711-2.234-2.017-4.335 5.114-3.873 9.596-8.581 13.199-13.942l6.848-10.188c.75.147 1.511.343 2.282.599 2.033.672 8.668 3.111 8.69 6.217zm55.794-62.64c-.921-6.453-1.687-12.701-2.275-18.622-.241-2.422 1.329-4.604 3.652-5.074 4.666-.944 11.86-1.682 20.713-.296.836 6.255 2.038 14.367 3.04 20.31zm52.369 51.395c-1.665-6.232-8.681-33.289-13.533-64.265 13.231 4.334 35.116 14.437 40.886 34.916 5.938 21.073 10.786 35.327 13.754 43.453-10.343 1.618-28.815 1.727-41.107-14.104z"/></g></svg>