<svg id="Capa_1" enable-background="new 0 0 511.995 511.995" height="512" viewBox="0 0 511.995 511.995" width="512" xmlns="http://www.w3.org/2000/svg"><g><g><g><path d="m329.558 201.476s20.198-51.808-23.186-99.995c-29.481-32.745-57.609-36.028-72.609-34.77-6.465.542-11.431 5.966-11.542 12.453-.825 48.123 6.887 97.606 6.887 97.606z" fill="#e0d3ce"/><path d="m163.304 461.341h341.189l-61.345-211.387c-18.572-59.217-64.92-105.615-124.117-124.251-12.758-4.016-26.259-5.095-39.493-3.156l-69.079 10.124c-21.086 3.09-39.888 14.938-51.776 32.625l-14.358 21.362c-6.609 9.832-16.326 17.162-27.595 20.815l-96.238 31.195c-6.754 2.189-10.861 9.022-9.625 16.013l7.819 44.253c4.022 22.767 23.396 39.634 46.499 40.484l67.761 2.495c21.555.794 37.784 19.988 34.877 41.361-2.487 18.268-4.519 43.71-4.519 78.067z" fill="#f8f3f1"/><path d="m247.915 346.866s-1.22 35.06-41.45 42.46c-30.77 5.65-20.25 51.01-13.6 72.02h-29.56c0-34.36 2.03-59.8 4.52-78.07 2.9-21.38-13.33-40.57-34.88-41.36 22.94 0 44.66 6.74 60.05 13.11 18.42 7.63 39.68 4.68 54.92-8.16z" fill="#efe2dd"/><path d="m368.691 169.756-2.793-21.872c36.348 23.76 63.937 59.617 77.246 102.074l61.351 211.381h-150.564c149.702-69.315 14.76-291.583 14.76-291.583z" fill="#efe2dd"/><g><path d="m250.345 461.341s-.041.098-.118.282c.04-.095.078-.186.118-.282z" fill="#fef0dc"/></g><g><path d="m371.038 185.63s20.198-51.808-23.186-99.995c-29.481-32.745-57.609-36.028-72.609-34.77-6.465.542-11.431 5.966-11.542 12.453-.825 48.123 6.887 97.606 6.887 97.606s9.157 19.524 34.254 23.678c12.126 2.007 66.196 1.028 66.196 1.028z" fill="#f8f3f1"/><path d="m371.035 185.626s-54.07.98-66.19-1.02c-1.59-.26-3.12-.59-4.59-.97 27.1-6.37 39.92-26.53 36.56-65.5-3.03-35.26-33.08-57.33-50.42-67.23 15.79 1.4 38.21 8.91 61.46 34.73 43.38 48.19 23.18 99.99 23.18 99.99z" fill="#efe2dd"/><path d="m270.587 160.924s-6.163-39.546-6.881-82.314c0 0 47.974 14.234 53.916 51.397s11.065 54.559 11.065 54.559-39.914 8.698-58.1-23.642z" fill="#fc9aa1"/><path d="m328.688 184.57s-21.12 4.604-39.632-5.334c23.236-36.916-10.091-75.129-25.003-88.318-.164-4.047-.284-8.16-.349-12.305 0 0 47.977 14.236 53.922 51.392 5.935 37.166 11.062 54.565 11.062 54.565z" fill="#fb8189"/></g><path d="m7.746 254.502 4.986 28.219c.498 2.816 3.079 4.758 5.925 4.479 11.82-1.16 39.852-8.85 37.01-55.923-.214-3.544-3.749-5.917-7.126-4.822l-29.726 9.636c-7.766 2.516-12.489 10.372-11.069 18.411z" fill="#494646"/><path d="m18.655 287.196c-2.84.28-5.43-1.66-5.92-4.47l-1.22-6.89c24.22-11.29 26.41-32.4 25.08-45.51l11.95-3.87c3.37-1.1 6.91 1.28 7.12 4.82 2.84 47.07-25.19 54.76-37.01 55.92z" fill="#383638"/></g><g><path d="m170.588 223.465c3.186-.51 5.527-1.915 5.751-3.583.04-.295.06-.593.06-.894 0-5.876-7.39-10.639-16.506-10.639s-16.506 4.763-16.506 10.639c0 1.642.579 3.195 1.612 4.581 1.538 2.065 6.174 3.098 10.353 2.398 5.07-.848 10.145-1.688 15.236-2.502z"/></g></g><g><path d="m511.696 459.251-45.451-156.621c-1.155-3.979-5.322-6.266-9.293-5.112-3.979 1.154-6.268 5.315-5.113 9.293l45.451 156.621c.952 3.28 3.947 5.412 7.199 5.412.692 0 1.396-.097 2.094-.299 3.979-1.155 6.268-5.316 5.113-9.294z"/><path d="m457.679 273.112-7.327-25.248c-.016-.052-.03-.103-.047-.154-12.076-38.506-35.255-71.884-67.073-96.646-.827-20.03-7.469-45.636-29.806-70.446-31.931-35.464-63.086-38.549-78.811-37.226-9.591.805-17.096 8.216-18.253 17.622-7.816-1.812-15.601-2.417-23.227-1.777-10.319.866-18.235 9.377-18.415 19.798-.237 13.821.204 29.025 1.297 45.241l-6.646.974c-5.099.747-10.231 2.012-15.255 3.761-3.912 1.362-5.979 5.637-4.617 9.549 1.078 3.096 3.979 5.036 7.083 5.036.817 0 1.65-.135 2.466-.419 4.13-1.438 8.335-2.476 12.498-3.085l48.029-7.039c1.72 16.827 3.466 28.16 3.601 29.026.138.886.434 1.74.873 2.521 12.726 22.63 35.81 28.617 52.917 28.617 5.12 0 9.706-.536 13.317-1.323 2.033-.443 3.79-1.713 4.853-3.502 1.062-1.79 1.332-3.942.747-5.939-.025-.086-2.559-8.798-6.062-26.58-.801-4.063-4.736-6.71-8.809-5.909-4.063.8-6.709 4.744-5.908 8.808 1.648 8.37 3.087 14.789 4.179 19.351-10.897.495-30.49-1.479-41.491-19.728-.961-6.565-5.012-35.741-6.275-68.681 12.671 5.782 33.483 18.215 38.206 38.959.919 4.039 4.939 6.568 8.978 5.648 4.039-.919 6.567-4.939 5.647-8.978-7.186-31.566-40.125-47.082-53.201-52.079-.019-3.352-.003-6.643.052-9.82.046-2.691 2.054-4.887 4.67-5.106 12.959-1.085 38.813 1.666 66.408 32.314 16.591 18.428 25.313 39.476 25.923 62.561.46 17.394-4.098 29.551-4.159 29.713-1.489 3.854.42 8.189 4.271 9.691.896.349 1.816.514 2.723.514 3.001 0 5.834-1.813 6.989-4.778.307-.786 2.919-7.716 4.359-18.543 25.09 22.007 43.509 50.23 53.586 82.312l7.304 25.169c.952 3.28 3.948 5.412 7.199 5.412.692 0 1.396-.097 2.095-.299 3.977-1.154 6.266-5.314 5.112-9.292zm-201.502-196.661c.234 13.915 1.056 29.695 2.027 41.642l-27.303 4.002c-1.008-15.357-1.407-29.731-1.183-42.803.046-2.692 2.054-4.888 4.67-5.108 4.984-.418 12.645-.311 21.789 2.267z"/><path d="m134.729 334.425-69.27-2.502c-19.439-.715-36.005-15.138-39.389-34.294l-.696-3.937c14.271-3.208 39.925-15.346 37.872-60.999l55.795-18.086c12.808-4.151 23.997-12.592 31.508-23.766l14.357-21.361c2.97-4.418 6.517-8.528 10.543-12.214 3.055-2.797 3.264-7.541.466-10.596-2.796-3.055-7.54-3.263-10.596-.466-4.902 4.488-9.229 9.504-12.862 14.909l-14.357 21.362c-5.646 8.399-14.057 14.744-23.684 17.864l-59.42 19.26c-2.776-1.106-5.852-1.224-8.769-.279l-29.726 9.636c-11.262 3.65-18.201 15.194-16.141 26.852l4.985 28.219c.545 3.085 2.176 5.745 4.438 7.642l1.515 8.57c4.606 26.071 27.152 45.701 53.609 46.675l67.761 2.495c8.189.301 15.911 4.07 21.186 10.34 5.328 6.333 7.648 14.329 6.535 22.514-3.043 22.369-4.586 48.975-4.586 79.08 0 4.142 3.358 7.5 7.5 7.5s7.5-3.358 7.5-7.5c0-29.431 1.497-55.356 4.449-77.058 1.416-10.408-.992-20.96-6.63-29.711 8.219 2.25 15.563 4.929 21.505 7.388 7.731 3.199 15.814 4.765 23.807 4.765 14.033 0 27.781-4.831 38.816-14.129 18.989-16 30.638-35.709 34.62-58.58.711-4.081-2.021-7.965-6.102-8.675-4.091-.717-7.965 2.021-8.676 6.102-3.361 19.3-13.289 36.016-29.508 49.682-13.018 10.968-31.113 13.643-47.222 6.975-14.617-6.052-37.09-13.335-61.133-13.677zm-113.602-91.2 27.182-8.811c1.212 34.8-16.453 43.319-28.528 45.095l-4.648-26.311c-.766-4.33 1.811-8.618 5.994-9.973z"/></g></g></svg>