<svg id="Capa_1" enable-background="new 0 0 511.996 511.996" height="512" viewBox="0 0 511.996 511.996" width="512" xmlns="http://www.w3.org/2000/svg"><g><g><path d="m341.358 185.69s9.97-54.705-41.792-93.755c-35.173-26.536-63.412-24.407-77.899-20.317-6.244 1.763-10.087 8.032-8.961 14.422 8.348 47.401 25.336 94.512 25.336 94.512z" fill="#c76d3d"/><path d="m163.305 456.655h341.189l-61.346-211.387c-18.572-59.217-64.92-105.615-124.117-124.251-12.758-4.016-26.259-5.095-39.493-3.156l-69.079 10.124c-21.086 3.09-39.888 14.938-51.776 32.625l-14.358 21.362c-6.609 9.832-16.326 17.162-27.595 20.815l-96.238 31.195c-6.754 2.189-10.861 9.022-9.625 16.013l7.729 38.45c7.091 35.277 37.427 61.102 73.383 62.472l26.92 1.026c27.685 1.055 48.835 25.068 46.396 52.666-1.2 13.553-1.99 30.616-1.99 52.046z" fill="#f8f3f1"/><path d="m504.495 456.659h-164.9c.41-.01.83-.01 1.25-.01 82.33 0 110.468-45.277 88.239-73.303-7.968-10.047-51.709-45.347-29.959-106.227 21.74-60.89-29.72-101.48-29.72-101.48l-3.87-32.69c36.53 23.77 64.26 59.73 77.61 102.32z" fill="#efe2dd"/><path d="m211.155 373.999c-26.35 30.07-18.9 52.66-13.58 82.66h-34.27c0-21.43.79-38.5 1.99-52.05 2.44-27.6-18.71-51.61-46.4-52.67h56.49c17.64 0 34.93-5.6 48.84-16.46 0 0 6.26 16.46-13.07 38.52z" fill="#efe2dd"/><g><path d="m250.345 456.655s-.041.098-.118.282c.04-.095.078-.187.118-.282z" fill="#fef0dc"/></g><path d="m7.747 249.816 4.986 28.219c.498 2.816 3.079 4.758 5.925 4.479 11.82-1.16 39.852-8.85 37.01-55.923-.214-3.544-3.749-5.917-7.126-4.822l-29.726 9.636c-7.767 2.516-12.49 10.372-11.069 18.411z" fill="#d67f4f"/><path d="m18.655 282.509c-2.84.28-5.43-1.66-5.92-4.47l-2.01-11.37c23.35-3.75 28.69-27.22 29.68-42.26l8.14-2.64c3.37-1.1 6.91 1.28 7.12 4.82 2.84 47.07-25.19 54.76-37.01 55.92z" fill="#c76d3d"/></g><g><path d="m170.589 218.778c3.186-.51 5.527-1.915 5.751-3.583.04-.295.06-.593.06-.894 0-5.876-7.39-10.639-16.506-10.639s-16.506 4.763-16.506 10.639c0 1.642.579 3.195 1.612 4.581 1.538 2.065 6.174 3.098 10.353 2.398 5.069-.848 10.145-1.687 15.236-2.502z"/></g><g><path d="m382.465 188.745c5.296-24.074 13.506-51.677-33.249-92.824-31.068-27.342-57.766-36.961-72.185-40.338-5.746-1.346-11.196 3.145-11.014 9.044.288 9.348.622 21.402.995 24.711 2.973 26.384 8.41 52.287 12.307 68.874 2.497 10.627 9.706 19.557 19.623 24.119 12.648 5.819 31.214 16.219 47.526 32.643 4.543 4.574 8.912 9.616 12.929 15.155 4.654 6.418 14.733 4.083 16.087-3.729 2.387-13.782 5.252-29.797 6.981-37.655z" fill="#e09977"/><path d="m382.465 188.75c-1.73 7.85-4.59 23.87-6.98 37.65-1.36 7.81-11.44 10.15-16.09 3.73-3.69-5.08-7.66-9.74-11.8-14.01 50.78-76.56-51.25-153.76-52.53-154.72 14.51 5.86 33.35 16.22 54.15 34.52 46.75 41.15 38.55 68.75 33.25 92.83z" fill="#d67f4f"/><path d="m343.075 211.68c-15.356-14.456-32.168-23.828-43.939-29.261-9.956-4.595-17.291-13.457-19.799-24.131-3.419-14.547-8.03-36.293-11.122-59.248-.02-.15-.04-.31-.06-.46 0 0 47.35 8.24 57.16 43.04 7.27 25.81 14.51 56.12 17.76 70.06z" fill="#aa5e33"/><path d="m305.975 185.76c11.83-35.23-21.25-65.12-36.11-75.46 0-.01-.01-.01-.01-.01-.26-1.62-.5-3.24-.74-4.88-.21-1.41-.41-2.82-.61-4.24-.13-.86-.24-1.72-.36-2.59h.01c.88.16 47.44 8.58 57.16 43.04 7.27 25.8 14.51 56.12 17.76 70.06-12.58-11.84-26.14-20.27-37.1-25.92z" fill="#9d552e"/></g><g><path d="m393.933 155.346c-1.476-18.175-10.621-39.408-39.763-65.055-32.797-28.863-61.336-38.71-75.429-42.01-5.02-1.177-10.183.023-14.173 3.289-3.721 3.045-5.861 7.45-6.02 12.207-16.711-3.724-30.162-1.849-38.92.623-9.966 2.814-16.118 12.677-14.31 22.94 1.805 10.249 4.149 21.259 6.977 32.794l-2.925.429c-2.709.397-5.479.949-8.232 1.642-4.017 1.011-6.454 5.086-5.443 9.104.856 3.403 3.912 5.672 7.268 5.672.606 0 1.222-.074 1.836-.229 2.266-.57 4.535-1.023 6.747-1.347l53.661-7.864c2.293 12.383 4.736 23.562 6.809 32.387 3.06 13.02 11.73 23.669 23.789 29.217 11.044 5.081 27.317 14.062 42.129 27.998 2.409 2.266 6.017 2.688 8.882 1.037 2.866-1.65 4.313-4.982 3.562-8.203-2.867-12.298-10.345-43.774-17.845-70.393-8.915-31.603-43.989-43.627-57.609-47.154-.159-1.309-.313-2.62-.461-3.932-.3-2.662-.624-13.329-.86-21.119l-.091-2.984c-.019-.616.291-1.002.554-1.217.255-.209.681-.429 1.254-.294 12.725 2.98 38.601 11.966 68.939 38.667 41.77 36.76 36.526 60.263 31.455 82.992l-.574 2.589c-1.448 6.579-3.819 19.359-7.048 37.986-.708 4.081 2.027 7.963 6.108 8.67.434.075.864.112 1.29.112 3.58 0 6.749-2.573 7.381-6.221 3.146-18.146 5.537-31.053 6.918-37.324l.565-2.546c.899-4.032 1.834-8.227 2.552-12.612 6.319 6.523 12.169 13.508 17.447 20.892 1.464 2.048 3.769 3.14 6.107 3.14 1.51 0 3.033-.454 4.355-1.399 3.369-2.408 4.149-7.093 1.74-10.462-8.334-11.666-17.965-22.436-28.622-32.022zm-166.725-37.397c-2.903-11.719-5.297-22.878-7.116-33.212-.467-2.651 1.086-5.189 3.613-5.902 7.651-2.16 19.832-3.727 35.276.503.187 5.205.368 8.981.577 10.84.861 7.638 1.927 15.224 3.101 22.576zm90.889 25.705c4.532 16.086 9.065 34.002 12.554 48.286-10.615-7.476-20.79-12.841-28.574-16.422-7.829-3.602-13.463-10.535-15.457-19.021-2.898-12.338-6.539-29.358-9.419-47.786 13.302 4.33 35.102 14.404 40.896 34.943z"/><path d="m511.697 454.565-61.345-211.387c-.016-.052-.031-.103-.047-.155-3.026-9.647-6.836-19.15-11.321-28.245-1.833-3.714-6.328-5.243-10.044-3.408-3.715 1.832-5.241 6.329-3.409 10.044 4.134 8.381 7.646 17.135 10.438 26.021l61.322 211.31c.952 3.28 3.947 5.412 7.199 5.412.692 0 1.396-.097 2.094-.299 3.978-1.155 6.267-5.315 5.113-9.293z"/><path d="m164 423.197c-4.131-.161-7.613 3.091-7.759 7.231-.29 8.222-.437 17.046-.437 26.227 0 4.142 3.357 7.5 7.5 7.5s7.5-3.358 7.5-7.5c0-9.005.144-17.652.427-25.7.146-4.139-3.091-7.613-7.231-7.758z"/><path d="m10.806 287.754c7.801 38.818 41.32 69.15 80.887 70.657l26.92 1.026c22.068.841 39.356 18.78 39.357 40.841 0 4.142 3.358 7.5 7.5 7.5 4.143 0 7.5-3.358 7.5-7.5 0-16.129-6.764-30.643-17.666-40.834h20.08c19.562 0 38.545-6.41 53.452-18.05 13.666-10.67 21.753-23.588 24.037-38.397.632-4.094-2.175-7.924-6.269-8.556-4.101-.636-7.925 2.176-8.556 6.269-1.684 10.909-7.889 20.619-18.443 28.861-12.284 9.591-27.988 14.873-44.222 14.873l-83.121-1.021c-31.994-1.219-58.83-23.588-65.911-54.647 14.431-3.539 38.902-16.137 36.895-60.768l55.795-18.086c12.809-4.152 23.998-12.592 31.508-23.766l14.357-21.361c4.077-6.066 9.102-11.423 14.933-15.92 3.279-2.53 3.888-7.24 1.357-10.52-2.531-3.281-7.24-3.887-10.52-1.357-7.11 5.485-13.24 12.021-18.22 19.43l-14.357 21.362c-5.646 8.398-14.057 14.743-23.684 17.864l-59.419 19.26c-2.775-1.106-5.85-1.223-8.77-.278l-29.727 9.636c-11.262 3.65-18.2 15.194-16.142 26.852l4.986 28.217c.627 3.529 2.674 6.502 5.463 8.413zm10.321-49.216 27.182-8.811c1.213 34.8-16.452 43.318-28.527 45.095l-4.649-26.312c-.766-4.329 1.812-8.616 5.994-9.972z"/></g></g></svg>