<svg id="Capa_1" enable-background="new 0 0 511.996 511.996" height="512" viewBox="0 0 511.996 511.996" width="512" xmlns="http://www.w3.org/2000/svg"><g><g><path d="m344.653 213.163s13.506-51.677-33.249-92.824c-31.771-27.961-58.973-27.964-73.145-25.094-6.108 1.237-10.242 6.964-9.626 13.165 4.568 46.006 17.432 92.359 17.432 92.359z" fill="#aa5e33"/><path d="m176.763 451.97h327.731l-58.926-203.049c-17.84-56.881-62.359-101.449-119.221-119.35-12.255-3.858-25.223-4.894-37.935-3.031l-66.354 9.724c-20.254 2.968-38.314 14.348-49.734 31.338l-13.791 20.519c-6.348 9.444-15.682 16.485-26.507 19.994l-112.047 29.964c-6.487 2.103-10.432 8.666-9.246 15.381l7.51 42.508c3.864 21.869 22.473 38.07 44.665 38.887l84.693 2.396c20.705.762 36.294 19.199 33.501 39.729-2.387 17.549-4.339 41.987-4.339 74.99z" fill="#81635e"/><path d="m374.048 171.886-2.683-21.009c34.915 22.822 61.415 57.265 74.199 98.048l58.931 203.043h-144.624c143.797-66.582 14.177-280.082 14.177-280.082z" fill="#6c524e"/><path d="m383.206 349.615c-73.21 32.82-31.89-25.04-64.51-86.35-22.03-41.41 8.84-93.53 31.86-124.12 37.03 17.78 66.99 47.59 84.96 84.51 2.36 37.96-1.59 103.23-52.31 125.96z" fill="#fef0dc"/><path d="m383.206 349.615c-36.94 16.56-44.72 10.03-47.55-8.38 150.43-60.48 16.26-200.67 14.91-202.08 37.03 17.78 66.98 47.58 84.95 84.5 2.36 37.96-1.59 103.23-52.31 125.96z" fill="#fcddb3"/><path d="m273.036 337.495c-18.37 22.23-40.6 24-38.66 94.63.21 7.5-1.8 14.08-5.57 19.84h-52.04c0-33 1.95-57.44 4.34-74.98 2.79-20.53-12.8-38.97-33.5-39.73l-84.7-2.4c-22.19-.82-40.8-17.02-44.66-38.89l-4.18-23.63 137.19-16.93s43.772 37.216 59.618 2.741c2.815-6.124 10.22-8.598 16.092-5.288 4.806 2.709 10.767 5.015 17.314 5.205 11.621.338 21.768 7.903 25.746 18.827 7.211 19.806 14.034 47.257 3.01 60.605z" fill="#fef0dc"/><path d="m273.036 337.495c-18.37 22.23-40.6 24-38.66 94.63.21 7.5-1.8 14.08-5.57 19.84h-32.366c13.06-30.27-13.402-71.84 23.708-95.4 47.68-30.27 41.348-76.1 38.788-93.81 5 3.33 8.94 8.24 11.09 14.14 7.21 19.8 14.03 47.25 3.01 60.6z" fill="#fcddb3"/><path d="m151.256 275.515c-5.8 1.56-10.57.73-14.37-1.09-11.05-5.29-23.66-6.36-35.66-3.87-29.06 6.03-64.93 6.65-86.35 6.35l-4.14-23.44c-1.19-6.72 2.76-13.28 9.24-15.39l112.05-29.96c7.84-2.54 14.9-6.93 20.58-12.75 17.43 47.77 14.29 75.93-1.35 80.15z" fill="#c76d3d"/><path d="m151.256 275.515c-5.8 1.56-10.57.73-14.37-1.09-11.05-5.29-23.66-6.36-35.66-3.87-29.06 6.03-64.93 6.65-86.35 6.35l-4.14-23.44c-.08-.45-.14-.9-.17-1.35 9.1-3.49 20.32-4.79 33.42-.73 38.66 11.98 53.64.1 84.08-2.25 24.86-1.92 14.59-32.34 9.99-43.42 5.44-2.55 10.37-6.06 14.55-10.35 17.43 47.77 14.29 75.93-1.35 80.15z" fill="#aa5e33"/><path d="m163.266 217.245c-14.13 4.9-19.91-3.91-19.33-14.8 5.75-3.71 10.73-8.57 14.6-14.32l9.27-13.79c2.64-.11 5.46.27 8.44 1.26 33.3 11.03-2.67 38.07-12.98 41.65z" fill="#fef0dc"/><g><path d="m260.37 451.97s-.039.094-.113.271c.038-.092.075-.18.113-.271z" fill="#fef0dc"/></g><g><path d="m382.465 193.43c5.296-24.074 13.506-51.677-33.249-92.824-31.068-27.342-57.766-36.961-72.185-40.338-5.746-1.346-11.196 3.145-11.014 9.044.288 9.348.622 21.402.995 24.711 2.973 26.384 8.41 52.287 12.307 68.874 2.497 10.627 9.706 19.557 19.623 24.119 12.648 5.819 31.214 16.219 47.526 32.643 4.543 4.574 8.912 9.616 12.929 15.155 4.654 6.418 14.733 4.083 16.087-3.729 2.387-13.782 5.252-29.798 6.981-37.655z" fill="#d67f4f"/><path d="m382.466 193.435c-1.73 7.85-4.59 23.87-6.98 37.65-1.36 7.81-11.44 10.15-16.09 3.73-3.69-5.08-7.66-9.74-11.8-14.01 50.78-76.56-51.25-153.76-52.53-154.72 14.51 5.86 33.35 16.22 54.15 34.52 46.75 41.15 38.55 68.75 33.25 92.83z" fill="#c76d3d"/><path d="m343.076 216.365c-15.356-14.456-32.168-23.828-43.939-29.261-9.956-4.595-17.291-13.457-19.799-24.131-3.419-14.547-8.03-36.293-11.122-59.248-.02-.15-.04-.31-.06-.46 0 0 47.35 8.24 57.16 43.04 7.27 25.81 14.51 56.12 17.76 70.06z" fill="#9d552e"/><path d="m305.976 190.445c11.83-35.23-21.25-65.12-36.11-75.46 0-.01-.01-.01-.01-.01-.26-1.62-.5-3.24-.74-4.88-.21-1.41-.41-2.82-.61-4.24-.13-.86-.24-1.72-.36-2.59h.01c.88.16 47.44 8.58 57.16 43.04 7.27 25.8 14.51 56.12 17.76 70.06-12.58-11.84-26.14-20.27-37.1-25.92z" fill="#8e4d29"/></g><path d="m7.737 253.289 4.789 27.106c.478 2.705 2.957 4.57 5.691 4.302 11.354-1.114 38.28-8.501 35.55-53.717-.205-3.404-3.601-5.684-6.845-4.632l-28.554 9.256c-7.459 2.417-11.995 9.963-10.631 17.685z" fill="#494646"/><path d="m18.215 284.693c-2.728.269-5.216-1.595-5.686-4.294l-1.172-6.618c23.265-10.845 25.368-31.122 24.091-43.715l11.479-3.717c3.237-1.057 6.637 1.229 6.839 4.63 2.728 45.213-24.197 52.6-35.551 53.714z" fill="#383638"/><g><path d="m274.925 97.115c-.3-2.66-1.085-17.259-1.321-25.048l-.091-2.986c-.019-.616.291-1.002.554-1.217.255-.208.674-.428 1.254-.294 11.828 2.771 30.685 9.552 53.348 26.124 3.343 2.444 8.035 1.716 10.48-1.627 2.445-3.344 1.717-8.036-1.627-10.481-24.698-18.061-45.598-25.532-58.781-28.62-5.012-1.174-10.181.024-14.173 3.29-4.002 3.275-6.206 8.118-6.047 13.288.173 5.711.418 13.602.573 17.451-7.649-.845-15.133-.554-22.324.901-9.899 2.004-16.606 11.144-15.601 21.258.61 6.148 1.405 12.627 2.36 19.314l-2.559.375c-22.298 3.268-42.298 15.87-54.871 34.575l-13.791 20.519c-5.351 7.961-13.306 13.987-22.417 16.985l-18.295 4.892c-4.002 1.07-6.378 5.182-5.308 9.183.896 3.353 3.928 5.564 7.24 5.564.642 0 1.293-.083 1.942-.256l18.492-4.945c.126-.034.251-.071.375-.111 1.275-.413 2.529-.881 3.768-1.381 1.427 3.734 3.717 6.789 6.775 8.94 2.103 1.478 5.095 2.878 9.095 3.233 5.939 26.659 2.057 40.417-4.669 42.232-3.406.917-6.41.716-9.184-.612-12.063-5.775-26.42-7.354-40.421-4.449-12.614 2.617-27.693 4.425-44.95 5.404 4.282-8.159 7.017-19.124 6.674-33.857l24.339-6.509c4.002-1.07 6.378-5.182 5.308-9.183-1.07-4.002-5.187-6.379-9.183-5.308l-26.225 7.013c-3.277-2.205-7.3-2.775-11.056-1.559l-28.554 9.255c-10.955 3.552-17.707 14.783-15.703 26.126l4.789 27.107c.53 2.993 2.101 5.576 4.28 7.436l1.438 8.135c4.448 25.179 26.223 44.137 51.839 45.08l84.628 2.395c7.783.286 15.122 3.868 20.136 9.828 5.063 6.019 7.269 13.617 6.21 21.396-.877 6.448-1.641 13.457-2.27 20.833-.353 4.127 2.708 7.758 6.835 8.11.217.019.433.028.646.028 3.854 0 7.131-2.953 7.464-6.863.608-7.127 1.344-13.886 2.188-20.086 1.612-11.854-1.885-23.909-9.595-33.074-7.734-9.193-19.056-14.719-31.126-15.164l-84.628-2.395c-18.535-.682-34.329-14.433-37.556-32.697l-.619-3.505c4.617-1.064 10.412-3.093 16.018-6.946 24.146-.703 44.912-2.825 61.723-6.313 10.805-2.243 21.777-1.075 30.895 3.29 6.059 2.902 12.638 3.43 19.564 1.567 3.437-.927 8.502-3.249 12.493-9.045 12.774 6.416 24.001 8.164 33.421 5.174 8.136-2.583 14.382-8.507 18.564-17.607.659-1.435 1.824-1.994 2.46-2.2.613-.198 1.833-.421 3.135.313 6.907 3.893 13.898 5.969 20.779 6.168 8.507.248 15.933 5.703 18.916 13.897 9.385 25.775 10.943 45.188 4.276 53.261-3.522 4.262-7.191 7.7-11.076 11.34-15.905 14.905-30.929 28.983-29.3 88.277.16 5.73-1.262 10.808-4.348 15.523-2.269 3.466-1.298 8.114 2.168 10.382 1.268.829 2.691 1.226 4.101 1.226 2.445 0 4.843-1.195 6.282-3.394 4.752-7.26 7.036-15.388 6.791-24.153-1.443-52.545 10.608-63.839 24.563-76.916 4.057-3.801 8.251-7.732 12.383-12.732 10.59-12.821 10.003-35.682-1.745-67.946-5.101-14.005-17.887-23.331-32.575-23.758-4.425-.128-9.084-1.555-13.849-4.241-4.593-2.59-10.104-3.142-15.123-1.517-5.06 1.639-9.238 5.358-11.467 10.205-2.378 5.174-5.478 8.306-9.474 9.575-5.699 1.811-13.981.029-23.531-4.997 1.485-8.651 1.186-20.453-2.376-36.54 9.618-4.751 29.007-18.975 28.898-34.226-.044-6.171-3.118-14.475-17.136-19.7 10.272-13.733 25.661-22.943 42.706-25.441l43.036-6.307c1.998 10.33 4.054 19.651 5.836 27.235 3.06 13.02 11.73 23.669 23.789 29.216 3.782 1.74 8.185 3.95 12.924 6.646-7.772 25.22-6.657 47.515 3.343 66.313 11.568 21.742 13.255 43.109 14.61 60.277 1.338 16.953 2.396 30.343 12.974 36.616 3.311 1.964 7.148 2.967 11.785 2.967 8.426 0 19.489-3.312 34.829-10.188 38.68-17.335 52.149-56.921 55.956-92.135l55.062 189.736c.952 3.28 3.947 5.412 7.199 5.412.692 0 1.396-.097 2.094-.299 3.979-1.154 6.268-5.315 5.113-9.293l-58.925-203.05c-.016-.051-.03-.103-.047-.154-10.849-34.595-31.24-65.177-58.989-88.502-1.767-16.08-9.705-34.555-32.048-56.254-2.973-2.886-7.721-2.816-10.605.155-2.886 2.971-2.816 7.72.154 10.605 34.155 33.171 29.234 55.229 24.475 76.56-1.453 6.608-4.396 21.966-7.618 40.563-.707 4.082 2.028 7.963 6.109 8.67.434.075.864.111 1.289.111 3.58 0 6.749-2.573 7.381-6.221 3.14-18.118 6.094-33.558 7.479-39.857 1.033-4.63 2.116-9.488 2.859-14.612 14.341 13.877 26.128 30.799 34.955 48.592 1.836 34.567-1.962 95.639-48.029 116.284-22.954 10.291-30.422 9.437-32.827 8.007-3.889-2.305-4.755-13.278-5.672-24.895-1.388-17.575-3.288-41.645-16.321-66.142-7.55-14.191-8.667-31.292-3.381-50.901 5.319 3.742 10.75 8.047 16 12.986 1.428 1.343 3.276 2.038 5.142 2.038 1.282 0 2.573-.328 3.74-1 2.866-1.65 4.313-4.982 3.562-8.202-2.866-12.297-10.344-43.772-17.845-70.394-8.943-31.701-44.414-43.729-57.609-47.152zm-254.244 145.623 25.735-8.342c1.002 32.601-15.44 40.801-26.879 42.578l-4.415-24.989c-.708-4.015 1.681-7.991 5.559-9.247zm161.896-53.805c.048 6.646-15.077 18.902-21.769 21.226-3.337 1.157-5.998 1.294-7.298.378-.959-.674-1.654-2.244-1.951-4.292 5.113-3.873 9.595-8.581 13.198-13.942l6.841-10.178c.751.147 1.513.331 2.289.589 2.033.674 8.668 3.112 8.69 6.219zm55.793-62.641c-.92-6.456-1.686-12.702-2.275-18.623-.24-2.422 1.329-4.603 3.651-5.073 4.627-.936 11.84-1.686 20.72-.295.895 6.911 1.929 13.726 3.04 20.307zm48.25 34.889c-2.898-12.336-6.537-29.354-9.418-47.778 13.17 4.305 35.104 14.401 40.896 34.936 4.533 16.088 9.065 34.003 12.554 48.286-10.615-7.475-20.79-12.841-28.574-16.423-7.83-3.602-13.464-10.534-15.458-19.021z"/><path d="m177.37 420.526c-4.175-.159-7.604 3.119-7.733 7.259-.248 7.812-.373 15.949-.373 24.185 0 4.142 3.357 7.5 7.5 7.5s7.5-3.358 7.5-7.5c0-8.078.123-16.055.365-23.71.13-4.141-3.119-7.603-7.259-7.734z"/></g></g><g><path d="m194.552 224.192c3.06-.49 5.309-1.839 5.524-3.442.038-.283.058-.569.058-.859 0-5.644-7.099-10.219-15.855-10.219-8.757 0-15.855 4.575-15.855 10.219 0 1.577.557 3.069 1.549 4.401 1.477 1.983 5.931 2.976 9.945 2.304 4.869-.816 9.744-1.622 14.634-2.404z"/></g></g></svg>