<svg id="Capa_1" enable-background="new 0 0 511.997 511.997" height="512" viewBox="0 0 511.997 511.997" width="512" xmlns="http://www.w3.org/2000/svg"><g><g><g><g><path d="m504.496 364.475-68.76-272.503c-10.405-41.234-47.494-70.128-90.021-70.128h-84.815c-37.975 0-72.116 23.141-86.181 58.415l-7.343 18.416-126.292 25.011c-16.593 1.863-28.044 17.519-24.792 33.896l7.906 39.815c8.378 42.191 47.844 70.804 90.549 65.649l72.109-8.706v110.135z" fill="#d46a50"/><path d="m186.856 364.474v-110.13l-68.32 8.24c34.08-23.93 13.36-82.21 72.51-100.5 70.33-21.75 77.59-57.63 77.59-57.63l11.5 260.02z" fill="#c2583f"/><path d="m345.717 21.845 16.813 1.53c35.209 6.47 64.202 32.91 73.208 68.6l68.758 272.504h-203.304c105.986-85.702 123.211-299.078 44.525-342.634z" fill="#c2583f"/><g><path d="m7.817 136.051 8.078 35.791c1.061 4.701 6.722 6.648 10.419 3.557 9.429-7.883 23.85-22.959 25.943-42.739.851-8.041-6.003-14.806-14.054-14.065l-18.967 1.746c-7.769.716-13.137 8.1-11.419 15.71z" fill="#756f6f"/><path d="m52.253 132.657c-2.09 19.786-16.507 34.86-25.941 42.746-3.698 3.086-9.355 1.137-10.413-3.558l-2.579-11.428c8.306-8.507 17.146-20.905 18.754-36.066.192-1.801-.009-3.541-.516-5.141l6.645-.612c8.052-.744 14.907 6.024 14.05 14.059z" fill="#5b5555"/></g></g></g><ellipse cx="200.299" cy="95.72" rx="9.255" ry="11.931"/></g><g><path d="m268.635 104.457c-.226 16.983.957 32.82-38.335 67.431s-71.489 31.349-48.419 114.301-60.918 96.777-27.797 155.269 254.793 79.761 263.101-25.524-42.138-135.061-25.395-187.856 20.394-96.021-5.594-142.964c-20.677-37.35-116.604-52.486-117.561 19.343z" fill="#e39382"/><path d="m417.186 415.934c-6.93 87.84-162.36 87.59-232.92 51.13 82.35 28.06 180.47-22.31 152.28-91.88-28.2-69.59-57.82-81.18 0-147.22 57.82-66.03 17.39-167.94 17.39-167.94 14.26 5.53 26.34 14.4 32.26 25.09 25.99 46.94 22.34 90.17 5.59 142.96-16.74 52.8 33.71 82.58 25.4 187.86z" fill="#dc7f69"/></g><g><path d="m28.918 182.66c9.646-8.063 28.392-26.49 30.797-49.211.206-1.947.123-3.884-.222-5.762l109.338-21.654c2.494-.494 4.568-2.218 5.51-4.579l7.344-18.416c13.006-32.617 44.1-53.693 79.214-53.693h84.815c39.144 0 73.172 26.508 82.75 64.463l68.76 272.503c.858 3.4 3.912 5.667 7.267 5.667.607 0 1.225-.074 1.84-.229 4.016-1.014 6.451-5.091 5.437-9.107l-68.76-272.503c-11.261-44.626-51.269-75.793-97.293-75.793h-84.815c-20.139 0-39.595 5.973-56.265 17.271-16.67 11.3-29.424 27.159-36.883 45.865l-5.834 14.629-111.581 22.097c-3.782-2.394-8.267-3.498-12.822-3.081l-18.967 1.746c-5.853.539-11.191 3.574-14.646 8.328s-4.695 10.769-3.401 16.502l8.078 35.79c.7 3.103 2.394 5.777 4.758 7.713l3.505 17.652c3.463 17.438 11.933 33.307 24.494 45.888 1.465 1.468 3.386 2.201 5.308 2.201 1.917 0 3.835-.73 5.299-2.192 2.932-2.927 2.936-7.676.009-10.606-10.46-10.477-17.513-23.69-20.396-38.212zm15.88-50.789c-1.749 16.524-13.959 29.673-21.967 36.641l-7.698-34.112c-.47-2.083.364-3.639.903-4.38s1.76-2.015 3.887-2.21c0 0 19.307-1.77 19.475-1.77 1.464 0 2.868.583 3.911 1.642.652.66 1.713 2.083 1.489 4.189z"/><path d="m412.517 154.324c-.266-25.479-6.729-49.306-19.759-72.842-9.145-16.519-31.178-29.827-56.132-33.904-4.092-.665-7.943 2.104-8.611 6.193-.668 4.088 2.104 7.943 6.192 8.611 20.275 3.312 38.532 13.907 45.428 26.365 25.578 46.202 20.5 88.207 5.006 137.063-8.595 27.1-.985 48.795 7.072 71.765 1.083 3.088 3.98 5.02 7.077 5.02.823 0 1.661-.137 2.482-.425 3.909-1.371 5.966-5.65 4.595-9.56-8.716-24.851-13.532-41.441-6.928-62.265 9.493-29.93 13.807-54.087 13.578-76.021z"/><path d="m261.116 106.084c-.165 15.525-.306 28.935-35.773 60.177-7.863 6.926-15.645 12.43-22.511 17.285-14.12 9.984-26.314 18.607-32.341 34.239-3.31 8.584-4.483 18.783-3.475 31.396l-53.168 6.419c-13.274 1.605-26.752-.391-38.978-5.763-3.792-1.666-8.217.057-9.884 3.849s.057 8.218 3.849 9.884c11.391 5.006 23.685 7.568 36.066 7.568 3.581 0 7.169-.214 10.745-.646l53.361-6.442c1.321 7.325 3.198 15.335 5.649 24.149 10.854 39.03-3.587 60.851-17.554 81.954-13.78 20.822-28.03 42.354-9.543 75 11.013 19.449 40.287 35.908 80.317 45.158 21.14 4.885 43.224 7.342 64.531 7.342 17.939 0 35.329-1.743 51.128-5.247 49.318-10.938 78.129-37.886 81.127-75.882 3.497-44.316-3.479-75.052-9.03-94.315-1.146-3.979-5.302-6.273-9.283-5.13-3.98 1.147-6.277 5.304-5.13 9.284 5.227 18.14 11.794 47.099 8.49 88.981-3.122 39.556-39.475 55.776-69.422 62.417-40.613 9.009-91.5 4.702-129.324-7.717 19.341-5.376 34.142-14.962 44.113-28.693 20.118-27.702 12.679-61.58 12.353-63.009-.921-4.031-4.933-6.547-8.961-5.635-4.033.91-6.566 4.923-5.667 8.958.064.286 6.197 28.879-9.943 50.982-11.118 15.226-30.376 24.222-57.225 26.758-11.66-6.281-20.466-13.596-25.022-21.643-13.956-24.646-4.327-39.194 9-59.331 14.339-21.666 32.184-48.63 19.496-94.252-16.862-60.633-3.746-69.908 22.386-88.387 7.173-5.072 15.302-10.821 23.766-18.276 40.48-35.658 40.672-53.765 40.857-71.274.374-28.075 16.732-39.727 30.374-43.143 4.018-1.007 6.459-5.079 5.453-9.098-1.006-4.018-5.078-6.462-9.097-5.453-26.122 6.543-41.344 28.61-41.73 57.536z"/><path d="m309.594 88.296c-4.099.565-6.964 4.35-6.405 8.449.08.582 7.474 58.572-32.978 90.53-21.639 17.096-34.848 41.789-38.199 71.411-2.697 23.845 1.256 50.137 10.846 72.137 1.229 2.821 3.986 4.505 6.879 4.505 1 0 2.017-.201 2.993-.627 3.797-1.655 5.533-6.075 3.878-9.872-14.036-32.199-19.519-92.27 22.902-125.784 47.286-37.357 38.917-101.644 38.537-104.362-.572-4.097-4.355-6.952-8.453-6.387z"/><path d="m309.19 242.304c.568-4.099-2.291-7.884-6.39-8.457-4.107-.569-7.893 2.287-8.467 6.389-.333 2.386-7.677 59.053 35.341 114.15 37.523 48.06 19.575 80.161 18.825 81.451-2.145 3.544-1.011 8.155 2.533 10.3 1.214.735 2.553 1.085 3.876 1.085 2.538 0 5.014-1.288 6.424-3.617 1.017-1.681 24.396-41.8-19.834-98.449-38.829-49.731-32.421-101.994-32.308-102.852z"/><path d="m343.607 249.794c1.178.677 2.462.998 3.729.998 2.597 0 5.123-1.351 6.51-3.765 28.937-50.36 21.502-114.958 21.172-117.684-.498-4.109-4.24-7.035-8.343-6.54-4.11.496-7.042 4.231-6.548 8.342.074.619 7.123 62.447-19.287 108.409-2.063 3.591-.825 8.176 2.767 10.24z"/><path d="m197.574 416.674c1.355 1.028 2.947 1.524 4.527 1.524 2.266 0 4.505-1.022 5.98-2.967 17.376-22.905 16.474-49.922 16.427-51.061-.17-4.131-3.664-7.313-7.78-7.175-4.131.158-7.354 3.64-7.208 7.771.008.228.643 22.902-13.389 41.398-2.503 3.302-1.857 8.006 1.443 10.51z"/></g></g></svg>