<svg id="Capa_1" enable-background="new 0 0 512.013 512.013" height="512" viewBox="0 0 512.013 512.013" width="512" xmlns="http://www.w3.org/2000/svg"><g><g><g><g><g><path d="m483.632 349.437-68.621-271.951c-10.383-41.151-47.398-69.986-89.839-69.986h-137.314c-20.005 0-36.584 15.51-37.916 35.471l-2.749 41.204-85.299-.5c-16.56 1.859-27.987 17.483-24.742 33.828l10.253 51.633c7.357 37.051 38.579 64.609 76.256 67.309l42.973 3.08v109.912z" fill="#f4d7c9"/><path d="m166.633 320.34v-80.82l-42.97-3.08c-9.32-.67-18.25-2.86-26.52-6.33 11.86-14.13 26.43-28.86 44.26-43.33 72.17-58.53 88.69-108.24 88.69-108.24l5.18 241.8z" fill="#ebbba5"/><path d="m325.175 7.501 16.779 1.527c35.138 6.457 64.072 32.843 73.06 68.461l68.618 271.952h-202.892c105.772-85.529 122.962-298.473 44.435-341.94z" fill="#ebbba5"/><g><path d="m28.695 96.015 8.061 35.719c1.059 4.692 6.708 6.634 10.398 3.549 9.41-7.867 23.801-22.912 25.891-42.653.849-8.024-5.99-14.776-14.026-14.036l-18.929 1.743c-7.752.714-13.109 8.083-11.395 15.678z" fill="#756f6f"/><path d="m73.041 92.627c-2.085 19.746-16.474 34.789-25.889 42.66-3.691 3.08-9.336 1.134-10.392-3.551l-2.574-11.404c8.289-8.49 17.111-20.863 18.716-35.993.192-1.798-.009-3.534-.515-5.131l6.631-.611c8.038-.742 14.878 6.011 14.023 14.03z" fill="#5b5555"/></g></g></g><ellipse cx="180.051" cy="81.225" rx="9.237" ry="11.906"/></g><path d="m417.003 429.564c-38.352 102.297-280.906 94.037-330.272 10.467-36.582-61.928 29.519-188.994 77.288-238.183 62.026-63.87 58.159-117.57 76.172-148.176 15.481-26.304 114.114-21.366 138.447 17.237 0 0 33.73 53.627 15.821 186.215s47.621 105.553 22.544 172.44z" fill="#e6ac8e"/><path d="m417.007 429.563c-17.225 45.947-75.646 69.589-139.257 74.12 64.19-18.173 54.998-57.443 44.729-85.576-11.567-31.716-57.384-85.646 10.898-157.89 60.637-64.16 16.626-188.517 6.008-215.533 17.085 5.569 31.726 14.291 39.25 26.227 0 0 33.732 53.621 15.828 186.212-17.914 132.591 47.613 105.555 22.544 172.44z" fill="#e09977"/></g><g><path d="m490.904 347.602-56.661-224.553c-1.013-4.017-5.093-6.45-9.107-5.438-4.016 1.014-6.451 5.091-5.437 9.107l56.661 224.553c.858 3.4 3.912 5.667 7.267 5.667.607 0 1.225-.074 1.84-.229 4.016-1.014 6.45-5.091 5.437-9.107z"/><path d="m128.104 91.563 19.046.111h.045c3.945 0 7.219-3.06 7.482-7.001l2.749-41.204c1.065-15.963 14.432-28.469 30.432-28.469h137.314c39.059 0 73.011 26.45 82.567 64.321l4.431 17.561c.858 3.4 3.912 5.667 7.267 5.667.607 0 1.225-.074 1.84-.229 4.016-1.014 6.451-5.091 5.437-9.107l-4.431-17.561c-11.239-44.543-51.172-75.652-97.111-75.652h-137.314c-23.869 0-43.81 18.655-45.399 42.472l-2.279 34.162-11.988-.07c-4.168-.016-7.52 3.314-7.544 7.456s3.314 7.519 7.456 7.543z"/><path d="m49.771 142.537c9.628-8.049 28.332-26.439 30.733-49.118.076-.715.11-1.429.11-2.139l16.74.102h.046c4.121 0 7.474-3.328 7.499-7.454.025-4.143-3.313-7.521-7.455-7.546l-23.612-.144c-4.232-3.78-9.804-5.63-15.5-5.113l-18.929 1.742c-5.845.538-11.176 3.57-14.627 8.318s-4.689 10.754-3.397 16.479l8.061 35.719c.699 3.098 2.39 5.768 4.75 7.702l5.86 29.51c7.943 39.997 41.742 70.017 82.333 73.26-7.305 11.464-14.289 23.679-20.564 36.083-1.87 3.696-.389 8.209 3.307 10.078 3.696 1.868 8.208.39 10.078-3.307 15.754-31.146 36.014-60.916 54.195-79.637 43.885-45.19 55.974-86.184 64.8-116.114 3.907-13.249 7.281-24.691 12.455-33.482 3.57-6.066 18.008-12.353 42.214-12.721 31.708-.51 70.545 9.719 83.403 30.116.08.131 8.092 13.354 13.89 42.124 5.369 26.642 9.877 72.404.866 139.123-10.236 75.787 6.304 102.049 18.381 121.224 9.055 14.377 14.521 23.055 4.573 49.588-14 37.343-61.79 63.094-127.838 68.884-20.298 1.779-41.044 1.547-61.194-.557 11.654-12.945 26.569-37.351 26.089-77.242-.049-4.111-3.397-7.41-7.498-7.41-.031 0-.062 0-.092.001-4.142.05-7.459 3.447-7.409 7.589.564 46.92-23.048 68.927-30.172 74.489-11.835-1.988-23.33-4.647-34.254-7.96-35.956-10.903-62.387-28.131-74.425-48.509-15.463-26.177-12.088-69.577 9.504-122.205 1.572-3.832-.259-8.213-4.092-9.785-3.832-1.574-8.213.26-9.785 4.092-10.723 26.136-17.252 50.427-19.405 72.198-2.526 25.543 1.129 46.851 10.863 63.329 14.156 23.964 42.852 43.063 82.987 55.234 28.057 8.508 59.647 12.934 91.255 12.933 9.676 0 19.359-.415 28.937-1.255 33.116-2.902 63.092-10.824 86.689-22.909 27.118-13.889 45.247-32.612 53.884-55.651 12.559-33.498 3.993-47.099-5.926-62.848-11.457-18.19-25.716-40.829-16.208-111.222 18.065-133.743-15.469-188.926-16.909-191.216-16.567-26.282-61.583-37.692-96.343-37.152-13.069.199-44.581 2.558-54.913 20.111-6.111 10.384-9.728 22.647-13.915 36.848-8.852 30.017-19.868 67.373-61.173 109.906-8.683 8.941-17.788 20.224-26.676 32.898l-7.764-.556c-34.204-2.451-62.757-27.654-69.436-61.29zm-12.861-52.531c.537-.738 1.752-2.006 3.869-2.2l18.929-1.742c.169-.016.337-.023.505-.023 1.457 0 2.853.58 3.892 1.633.649.658 1.704 2.074 1.482 4.169-1.743 16.471-13.909 29.583-21.898 36.54l-7.677-34.019c-.469-2.073.362-3.621.898-4.358z"/><path d="m179.028 393.471c-3.26 2.512-3.89 7.188-1.399 10.473 1.475 1.945 3.715 2.969 5.982 2.969 1.579 0 3.171-.496 4.525-1.523 1.215-.921 29.639-23.162 18.846-75.253-3.271-15.79 2.652-23.316 13.406-36.979 16.411-20.851 41.212-52.36 41.116-137.032-.005-4.139-3.361-7.491-7.5-7.491-.002 0-.006 0-.008 0-4.142.005-7.497 3.366-7.492 7.509.09 79.467-21.869 107.366-37.903 127.737-11.266 14.313-20.995 26.675-16.308 49.3 8.749 42.217-12.243 59.48-13.265 60.29z"/><path d="m363.222 414.507c1.314.928 2.824 1.374 4.319 1.374 2.354 0 4.672-1.106 6.134-3.176 2.389-3.384 1.582-8.063-1.802-10.452-34.843-24.596-27.731-62.101-18.727-109.583 8.506-44.854 18.147-95.694-5.519-148.491-1.694-3.781-6.132-5.47-9.912-3.776s-5.47 6.132-3.776 9.911c21.738 48.498 12.564 96.877 4.469 139.562-9.213 48.581-17.915 94.47 24.814 124.631z"/><path d="m268.968 313.092c-4-1.073-8.114 1.302-9.186 5.303-.208.774-5.046 19.295-1.458 46.68 3.278 25.017 14.531 62.673 49.526 100.001 1.477 1.574 3.472 2.37 5.473 2.37 1.838 0 3.681-.672 5.128-2.028 3.022-2.833 3.175-7.579.342-10.602-25.702-27.415-41.01-58.019-45.499-90.958-3.34-24.509.896-41.272.98-41.596 1.062-3.996-1.311-8.099-5.306-9.17z"/><path d="m283.854 264.12c.889.344 1.802.506 2.701.506 3.009 0 5.849-1.824 6.998-4.8 30.948-80.12 2.851-176.67 1.639-180.74-1.181-3.97-5.356-6.229-9.327-5.05-3.97 1.182-6.231 5.357-5.05 9.327.282.948 27.868 95.665-1.254 171.059-1.493 3.863.429 8.206 4.293 9.698z"/><path d="m151.024 351.494c-3.602-2.042-8.181-.778-10.223 2.825-.833 1.47-20.25 36.503-6.426 81.018.999 3.215 3.961 5.277 7.16 5.277.737 0 1.486-.109 2.227-.34 3.956-1.229 6.167-5.431 4.938-9.387-11.808-38.02 4.908-68.736 5.158-69.187 2.031-3.599.764-8.166-2.834-10.206z"/></g></g></svg>