<svg id="Capa_1" enable-background="new 0 0 511.984 511.984" height="512" viewBox="0 0 511.984 511.984" width="512" xmlns="http://www.w3.org/2000/svg"><g><g><g><path d="m216.872 132.971s-24.493-22.316-15.686-66.828c2.8-14.154-2.821-26.282-9.532-35.139-4.503-5.944.808-14.338 8.123-12.892 23.987 4.742 59.273 17.485 75.729 51.722 31.564 65.671-3.711 63.138-3.711 63.138" fill="#756f6f"/><g><path d="m163.965 88.402-89.516 97.885 14.102 33.704-51.144 58.786c-7.158 8.228-5.56 20.853 3.422 27.038l28.424 19.57 153.638 48.244 77.994-87.681 39.088 111.431h139.927v-218.092l-37.844-37.805c-49.013-48.963-115.459-76.466-184.739-76.466h-40.277c-20.189 0-39.45 8.487-53.075 23.386z" fill="#9e9797"/><g><path d="m201.683 188.765c-9.943 9.912-32.726 27.924-61.203 20.224l4.772 4.946c3.389 3.522.717 9.39-4.168 9.113-9.636-.532-22.743-1.976-32.859-5.734l12.677 13.332c2.939 3.082 1.29 8.171-2.888 8.99-11.346 2.232-30.535 4.219-42.966-4.127l13.506-15.524-14.11-33.699 13.762-15.052c3.174-.676 6.492 1.71 6.492 5.284v1.772s18.094-15.933 50.748-15.667c4.383.031 6.912 4.997 4.342 8.55l-1.495 2.058s21.821-3.983 51.455 6.676c3.686 1.332 4.71 6.083 1.935 8.858z" fill="#756f6f"/></g><path d="m479.898 179.283v218.097h-139.179c228.716-127.034 12.861-312.712 10.362-314.955 33.801 12.974 64.859 32.972 90.97 59.053z" fill="#756f6f"/></g><path d="m69.253 288.012s-30.461 57.475 11.583 104.422c2.279 2.545 6.395 2.095 8.107-.861l4.802-8.295s4.938 43.741 53.333 81.699c2.113 1.657 5.165 1.358 6.924-.672l6.542-7.548s4.333 24.07 2.53 41.194c-.481 4.572 4.166 7.93 8.331 5.984 30.881-14.425 117.538-61.07 126.448-133.794l7.443 10.094c2.207 2.993 6.769 2.647 8.517-.635 7.51-14.097 21.12-50.171 2.508-103.943l11.031 3.232c3.454 1.012 6.824-1.809 6.432-5.386-1.764-16.066-10.47-55.271-53.001-87.218l-1.073 22.756c-.183 3.877-4.494 6.103-7.761 4.006l-8.237-5.288s-3.357 43.8-28.308 71.989c-2.15 2.428-6.027 2.152-7.877-.511l-12.801-18.425s-14.124 46.866-25.653 73.724c-1.295 3.017-5.069 4.003-7.686 2.021-10.324-7.819-33.141-27.446-39.397-52.264 0 0-4.934 12.483-7.151 23.458-.816 4.041-5.905 5.389-8.675 2.336-7.082-7.806-16.649-19.908-17.573-29.186 0 0-11.114 11.585-12.503 28.143-.358 4.268-5.622 6.085-8.639 3.044-5.257-5.297-12.003-13.259-18.196-24.076z" fill="#efe2dd"/><path d="m280.785 186.287-1.073 22.754c-.183 3.877-4.494 6.103-7.761 4.006l-8.236-5.287s-3.363 43.798-28.311 71.986c-2.149 2.429-6.027 2.153-7.878-.511l-12.798-18.422s-14.127 46.864-25.66 73.726c-1.295 3.017-5.07 4.003-7.687 2.021-10.323-7.821-33.136-27.45-39.397-52.267 0 0-4.929 12.484-7.146 23.458-.817 4.041-5.905 5.389-8.675 2.335-7.081-7.806-16.646-19.907-17.571-29.183 0 0-11.116 11.583-12.506 28.143-.358 4.269-5.624 6.087-8.642 3.045-5.257-5.298-12.003-13.262-18.194-24.082 0 0-23.848 45.014-.205 87.898.819-24.535 10.598-42.987 10.598-42.987 3.545 6.195 7.271 11.454 10.796 15.812 5.196 6.424 15.373 4.206 17.761-3.704 3.515-11.647 10.774-19.214 10.774-19.214.639 6.406 5.401 14.16 10.62 20.916 5.119 6.626 15.606 4.731 17.956-3.305 2.262-7.733 4.826-14.221 4.826-14.221 5.281 20.932 22.337 38.174 33.742 47.752 5.319 4.467 13.466 2.403 16.048-4.046 10.921-27.271 22.953-67.186 22.953-67.186l.104.325c2.655 8.266 13.73 9.677 18.398 2.358 17.47-27.391 39.262-42.437 29.414-3.75-1.007 3.958 2.568 7.559 6.518 6.524 6.733-1.765 15.145-4.438 20.94-7.914 0 0-1.406 71.849-80.167 94.103-3.488.986-4.868 5.158-2.675 8.045 3.735 4.915 9.977 10.972 18.27 11.412 0 0-22.026 38.542-73.04 58.315.631 7.331.948 15.715.187 22.874-.483 4.542 4.199 7.849 8.337 5.916 30.878-14.424 117.536-61.067 126.446-133.789l7.445 10.096c2.207 2.992 6.769 2.646 8.517-.635 7.509-14.096 21.117-50.17 2.5-103.943l11.041 3.232c3.453 1.011 6.823-1.809 6.431-5.386-1.76-16.066-10.466-55.272-53-87.22z" fill="#e0d3ce"/><path d="m68.682 204.195s-20.12-32.514 17.66-57.409c3.579-2.359 8.355.21 8.355 4.497v1.777s18.092-15.938 50.748-15.675c4.389.035 6.918 5.004 4.338 8.554l-1.494 2.057s21.821-3.987 51.455 6.681c3.696 1.33 4.718 6.083 1.937 8.856-9.935 9.905-32.719 27.921-61.196 20.225l4.766 4.945c3.392 3.52.719 9.384-4.162 9.113-9.644-.536-22.744-1.975-32.863-5.733l12.675 13.325c2.936 3.086 1.292 8.178-2.888 8.998-13.546 2.66-38.293 4.978-49.331-10.211z" fill="#efe2dd"/><ellipse cx="154.291" cy="222.91" rx="10.839" ry="13.973"/><path d="m257.918 122.522s-24.493-22.316-15.686-66.828c2.8-14.154-2.821-26.282-9.532-35.139-4.503-5.944.808-14.338 8.123-12.892 23.987 4.742 59.273 17.485 75.729 51.722 31.564 65.671-3.711 63.138-3.711 63.138" fill="#9e9797"/></g><g><path d="m39.057 306.081 20.292 15.972s39.037-32.242-3.279-64.728l-19.497 22.41c-6.853 7.878-5.721 19.888 2.484 26.346z" fill="#494646"/><path d="m59.351 322.052-14.956-11.779c21.128-13.927 11.537-38.635 7.059-47.64l4.619-5.305c42.316 32.483 3.278 64.724 3.278 64.724z" fill="#383638"/></g></g><g><path d="m485.201 173.981-37.844-37.805c-18.446-18.428-39.457-34.056-62.449-46.449-3.647-1.967-8.196-.603-10.16 3.043-1.966 3.646-.604 8.195 3.043 10.16 21.71 11.704 41.549 26.459 58.965 43.857l37.844 37.805c1.465 1.463 3.383 2.194 5.301 2.194 1.921 0 3.842-.733 5.306-2.199 2.926-2.93 2.924-7.679-.006-10.606z"/><path d="m331.285 350.07c2.79-16.51 3.046-37.912-3.79-63.542 3.344.349 6.709-.664 9.336-2.865 3.219-2.698 4.866-6.802 4.408-10.979-.873-7.956-3.241-20.484-9.566-34.991-1.656-3.797-6.075-5.533-9.873-3.877-3.797 1.655-5.532 6.076-3.877 9.873 4.665 10.697 6.879 20.102 7.921 26.942l-7.413-2.172c-2.694-.79-5.603-.008-7.538 2.023-1.937 2.032-2.576 4.975-1.658 7.627 16.342 47.214 6.513 79.857-.285 94.44l-5.058-6.86c-1.822-2.473-4.969-3.584-7.941-2.804-2.971.779-5.166 3.293-5.54 6.342-3.029 24.723-16.164 48.843-39.04 71.691-2.931 2.928-2.933 7.676-.006 10.606 1.465 1.467 3.386 2.2 5.307 2.2 1.918 0 3.836-.731 5.3-2.193 20.36-20.336 33.775-41.838 40.036-64.118 2.354 1.708 5.268 2.553 8.259 2.336 4.326-.316 8.128-2.794 10.168-6.625 1.129-2.119 2.435-4.813 3.771-8.039l8.69 24.776c1.083 3.088 3.98 5.02 7.077 5.02.823 0 1.661-.137 2.482-.425 3.909-1.371 5.966-5.651 4.595-9.56z"/><path d="m313.422 120.483c.044 5.72 6.144 9.416 11.192 6.726 2.873-1.53 5.672-3.799 7.903-7.079 5.547-8.157 6.187-19.91 1.879-35.589 5.437 1.734 10.829 3.629 16.112 5.715.903.356 1.835.525 2.751.525 3.072 0 5.97-1.9 7.071-4.995 1.365-3.838-.765-8.086-4.556-9.578-8.974-3.532-18.23-6.592-27.533-9.139-1.464-3.498-3.105-7.141-4.928-10.933-17.475-36.359-53.713-50.429-81.035-55.83-6.436-1.275-12.84 1.51-16.326 7.085-1.837 2.939-2.606 6.267-2.349 9.522-7.044-2.537-14.512-4.604-22.371-6.157-6.43-1.273-12.84 1.51-16.327 7.087-3.47 5.55-3.167 12.494.771 17.691 6.361 8.395 9.271 16.909 8.667 25.337-13.655 4.084-26.136 11.78-35.913 22.471l-48.149 52.651c-4.963 1.875-9.083 3.926-12.283 5.775-1.361-1.24-3.01-2.21-4.883-2.8-3.74-1.179-7.842-.471-11.11 1.696-22.213 14.729-26.489 32.248-26.158 44.369.353 12.89 5.833 22.102 6.458 23.109 4.129 5.682 9.938 9.847 16.013 12.187l-47.402 54.485c-4.823 5.543-7.019 12.673-6.143 20 .828 6.927 4.579 13.174 10.062 17.489l16.635 13.093c-2.27 27.242 5.915 52.094 23.781 72.043 2.662 2.972 6.628 4.502 10.602 4.092 1.561-.161 3.058-.613 4.424-1.312 5.782 17.115 19.634 45.137 52.176 70.66 3.717 2.915 8.577 3.409 12.659 1.669.774 7.627 1.312 16.961.505 24.619-.506 4.812 1.621 9.541 5.551 12.343 2.297 1.639 5.018 2.476 7.755 2.476 1.925 0 3.858-.414 5.659-1.255 13.096-6.118 38.78-19.249 63.662-38.457 3.344-2.58 3.908-7.428 1.2-10.713-2.595-3.148-7.339-3.492-10.57-1.003-22.159 17.072-45.013 29.119-58.096 35.379 1.22-17.602-2.675-39.535-2.85-40.509-.615-3.417-3.526-6.047-7.165-6.171-2.312-.079-4.513 1.006-6.028 2.755l-4.858 5.606c-43.385-35.009-48.631-74.804-48.676-75.182-.402-3.559-3.281-6.389-6.956-6.642-2.921-.201-5.666 1.443-7.133 3.977l-2.928 5.059c-13.872-16.744-19.791-36.639-17.659-59.192 2.646-2.591 6.981-7.348 10.583-13.699 1.529 1.754 3.085 3.467 4.684 5.096 3.56 3.628 8.932 5.04 13.694 3.266 4.578-1.705 7.669-5.768 8.077-10.628.393-4.685 1.751-8.937 3.365-12.5 3.196 5.409 7.682 11.315 13.437 17.683 2.985 3.303 7.468 5.009 11.844 4.189 5.093-.953 8.974-4.815 9.983-9.807.226-1.119.484-2.26.764-3.402 9.776 16.717 24.455 29.544 33.906 36.702 2.218 1.68 4.86 2.555 7.559 2.555 1.253 0 2.519-.189 3.76-.573 3.614-1.119 6.46-3.92 7.946-7.398 7.585-17.752 16.098-43.401 21.2-59.424l3.842 5.529c2.095 3.016 5.324 5.142 8.969 5.591 4.145.511 8.157-1.017 10.885-4.098 18.341-20.722 25.701-48.742 28.526-64.464 3.569 1.616 7.653 1.475 11.19-.473 3.895-2.145 6.272-6.29 6.481-10.732l.348-7.386c5.74 5.283 10.919 10.925 15.479 16.871 2.482 3.236 7.139 4.142 10.463 1.78 3.477-2.47 4.189-7.308 1.622-10.67-8.21-10.752-18.197-20.588-29.686-29.239-1.775-1.337-4.054-1.932-6.226-1.459-3.41.743-5.771 3.647-5.928 6.985l-.872 18.504-4.456-2.86c-1.76-1.13-3.907-1.601-5.943-1.122-3.259.766-5.535 3.524-5.786 6.725-.032.401-3.307 39.18-24.374 65.151l-10.976-15.797c-1.642-2.364-4.496-3.581-7.333-3.128-2.842.45-5.176 2.487-6.007 5.243-.135.447-13.13 43.449-24.126 69.991-10.072-8.017-28.787-25.232-34.107-45.984-.719-2.803-2.902-5.091-5.732-5.693-3.647-.776-7.233 1.205-8.565 4.575-.182.461-3.917 9.961-6.433 19.937-7.354-8.68-11.944-16.394-12.51-21.142-.266-2.232-1.352-4.328-3.207-5.597-3.139-2.148-7.2-1.622-9.688.974-.479.498-10.714 11.332-13.835 27.459-2.235-2.492-4.379-5.145-6.424-7.917.252-1.889.378-3.835.342-5.835-.211-11.846-5.783-22.882-16.547-32.899 0 0 28.096-32.397 28.339-32.824 1.496.085 2.989.133 4.466.133 7.255 0 14.16-.945 19.586-1.993 3.738-.722 7.09-2.913 9.007-6.202 2.093-3.592 2.279-7.766.831-11.346 4.073.491 7.952.801 11.351.997 5.105.294 10.071-2.274 12.46-6.795.908-1.719 1.401-3.553 1.5-5.382 24.914-.014 44.134-15.791 52.379-23.92 3.069-3.026 4.67-7.334 3.959-11.585-.777-4.64-3.933-8.405-8.307-9.98-18.646-6.713-34.435-7.96-44.325-7.848-.231-.954-.573-1.891-1.028-2.793-2.188-4.337-6.565-7.056-11.425-7.095-3.373-.024-6.586.128-9.672.393l33.666-36.814c12.174-13.313 29.502-20.947 47.541-20.947h15.808c-.778 36.082 19.044 54.661 20.019 55.549 3.061 2.79 7.823 2.586 10.614-.476 2.79-3.063 2.588-7.788-.475-10.578-.87-.815-21.222-20.414-13.416-59.862 2.743-13.862-1.031-28.082-10.911-41.123-.117-.155-.238-.314-.009-.683.257-.41.512-.358.699-.323 23.964 4.738 55.635 16.844 70.424 47.613 16.215 33.735 12.674 45.465 10.399 48.941-.781 1.194-1.778 1.979-2.767 2.495-2.423 1.264-4.025 3.679-4.004 6.413zm-115.79-94.008c-.117-.154-.237-.313-.008-.681.256-.413.523-.36.699-.324 13.146 2.599 25.017 6.73 35.336 12.255 1.888 5.513 2.299 11.034 1.215 16.512-.22 1.11-.4 2.194-.583 3.279h-17.252c-2.564 0-5.113.139-7.645.386-.205-10.7-4.198-21.446-11.762-31.427zm-122.674 173.591c-.695-1.253-4.047-7.718-4.126-16.01-.105-10.978 5.495-20.696 16.658-28.933.599 2.067 2.078 3.813 4.098 4.739 2.664 1.222 5.814.765 8.037-1.149.156-.134 15.177-12.81 41.816-13.774-.999 2.246-.838 4.881.5 7.023 1.618 2.593 4.657 3.944 7.67 3.415.193-.035 18.831-3.142 44.294 5.22-10.375 9.549-29.024 21.983-51.463 15.92-3.253-.878-6.697.521-8.413 3.424-1.716 2.902-1.284 6.593 1.056 9.021l.944.979c-8.064-.693-17.654-2.09-25.191-4.89-3.273-1.216-6.951-.011-8.873 2.902-1.921 2.914-1.579 6.769.827 9.298l9.957 10.468c-10.876 1.707-29.806 2.859-37.791-7.653zm-35.323 92.67c-.279-2.963.643-5.832 2.597-8.078l14.639-16.827c7.407 7.017 11.232 14.319 11.391 21.773.201 9.454-5.421 17.695-9.521 22.425l-15.045-11.842c-2.339-1.84-3.781-4.487-4.061-7.451z"/><path d="m338.237 170.804c-3.34-2.434-8.01-1.7-10.454 1.632s-1.724 8.021 1.601 10.477c.113.084 11.354 8.496 16.863 22.02 1.186 2.909 3.988 4.672 6.948 4.672.942 0 1.9-.179 2.827-.557 3.836-1.563 5.679-5.939 4.115-9.775-7.165-17.589-21.301-28.033-21.9-28.469z"/><path d="m352.402 151.092c-3.85-1.52-8.195.368-9.72 4.214s.357 8.203 4.201 9.734c.109.044 11.033 4.447 18.82 11.957 1.455 1.403 3.331 2.102 5.205 2.102 1.965 0 3.928-.768 5.399-2.294 2.876-2.981 2.789-7.729-.192-10.604-9.974-9.621-23.157-14.89-23.713-15.109z"/></g></g></svg>