<svg id="Capa_1" enable-background="new 0 0 511.997 511.997" height="512" viewBox="0 0 511.997 511.997" width="512" xmlns="http://www.w3.org/2000/svg"><g><g><g><g><path d="m268.663 154.143s-3.45-68.957 45.123-139.16c9.394-13.577 27.752-4.812 30.452 14.586 4.224 30.353 10.756 68.439 19.088 89.491 32.065 81.016-16.389 115.537-16.389 115.537z" fill="#cdbfbb"/></g><path d="m346.936 234.599-78.27-80.46s-.87-17.35 4.41-43.5c59.12-47.22 53.04-79.95 41.71-96.98 9.63-11.64 26.84-2.82 29.45 15.91 4.23 30.35 10.76 68.44 19.09 89.49 32.06 81.02-16.39 115.54-16.39 115.54z" fill="#9e9797"/></g><g><g><g><path d="m152.141 165.8s-12.649-3.082-25.447-2.847c-14.328.263-25.732 12.122-25.732 26.452v31.083l49.24-23.603z" fill="#5b5555"/><path d="m152.143 165.798-1.94 31.09-49.245 23.598v-27.188c21.876-5.511 29.665-20.151 32.439-30.19 10.17.6 18.746 2.69 18.746 2.69z" fill="#494646"/></g><g><path d="m56.092 241.345s-36.02 1.941-32.806 30.223 18.246 94.009 82.942 94.009z" fill="#efe2dd"/><path d="m106.229 365.577c-31.577 0-51.335-15.662-63.65-34.989 38.831-8.632 14.415-86.417 13.544-89.173z" fill="#cdbfbb"/></g><path d="m266.973 90.225c-20.852.474-68.971 10.958-81.726 16.773-13.691 6.242-18.152 21.94-19.399 34.792-28.444 29.043-29.244 56.929-29.244 56.929-13.674-7.528-29.073 4.885-29.073 4.885s-2.194 1.839-4.149 6.368l-29.421 9.965c-19.817 6.712-29.849 28.764-21.888 48.114l47.727 116c19.283 35.352 62.562 10.778 62.562 10.778 11.998 65.997 51.843 109.668 51.843 109.668h274.705v-289.371s-60.011-128.585-221.937-124.901z" fill="#f8f3f1"/><path d="m488.906 215.129v289.37h-155.8c37-19.41 73.96-49.11 100.09-94.51 67.57-117.42-16.86-260.97-33.5-287.17 63.41 37.02 89.21 92.31 89.21 92.31z" fill="#efe2dd"/><g><path d="m239.153 504.499h-24.95s-39.844-43.677-51.841-109.671c0 0 9.485-4.893 16.243-21.557 0 0 34.004 27.687 70.146 5.193 0 0-1.512 19.877-24.344 30.549-10.444 4.882-16.525 16.039-14.975 27.463 2.587 19.071 9.823 46.683 29.721 68.023z" fill="#efe2dd"/></g><path d="m407.526 261.069s-11.07 80.57-50.74 113.29c-39.67 32.73-140.56 50.46-175.65-3.71-22.63-34.94-42.305-99.486-44.53-171.93 0 0 .8-27.89 29.24-56.93 90.15-4.352 115.161-48.929 183.551-9.459 74.13 42.78 58.129 128.739 58.129 128.739z" fill="#494646"/><g fill="#383638"><path d="m187.214 346.232c23.919-18.846 5.799-70.389 29.718-93.543 0 0-4.894 25.918 3.402 49.321 5.799 16.357 7.812 29.565-3.402 38.907-8.876 7.394-29.718 5.315-29.718 5.315z"/><path d="m407.526 261.069s-11.07 80.57-50.74 113.29c-23.4 19.31-68.1 33.39-108.03 30.58 172.17-49.99 77.16-166.74 35.85-206.22-33.52-32.03-23.19-66.43-18.09-78.28 25.78-6.59 49.01-7.66 82.88 11.89 74.13 42.78 58.13 128.74 58.13 128.74z"/></g></g></g><g><path d="m393.894 267.375s68.17-42.602 43.36-134.818c-6.447-23.963-5.878-65.665-4.02-98.709 1.188-21.118-22.816-33.971-39.804-21.37-87.84 65.159-100.864 139.043-100.864 139.043s-4.311 45.194 43.406 72.87c16.506 9.573 27.912 17.056 35.773 22.75 14.863 10.766 22.149 20.234 22.149 20.234z" fill="#383638"/><path d="m369.766 245.729c-7.76-5.51-18.62-12.54-33.79-21.34-47.72-27.67-43.41-72.87-43.41-72.87s12.18-69.09 92.41-132.57c31.88-1.34 14.28 69.55 20.67 125.75 5.24 46.12-20.96 83.73-35.88 101.03z" fill="#ffc5c9"/><path d="m369.766 245.729c-7.76-5.51-18.62-12.54-33.79-21.34-12.98-7.53-22.11-16.35-28.52-25.21 18.15 11.71 48.56 14.36 66.84-7.46 27.35-32.68-7.06-54.99 5.98-101.57 8.41-30.02-5.16-45.96-15.87-53.49 6.3-5.91 13.14-11.84 20.57-17.71 31.88-1.34 14.28 69.55 20.67 125.75 5.24 46.12-20.96 83.73-35.88 101.03z" fill="#fcb5ba"/></g><ellipse cx="168.301" cy="205.989" rx="14.276" ry="18.403"/></g><g><path d="m414.83 259.392c5.234-5.386 11.03-12.314 16.397-20.852 9.329-14.84 18.538-36.676 18.905-65.302 21.871 23.953 31.788 44.651 31.984 45.065 1.273 2.726 3.977 4.326 6.799 4.326 1.063 0 2.142-.227 3.167-.706 3.754-1.752 5.376-6.215 3.624-9.968-.586-1.256-14.641-30.9-47.141-61.716-.914-6.287-2.239-12.825-4.069-19.63-4.974-18.488-6.278-51.802-3.773-96.34.713-12.68-5.789-24.301-16.969-30.327-11.22-6.046-24.551-5.082-34.792 2.514-13.765 10.21-25.691 20.639-36.026 30.911-.428-2.904-.854-5.84-1.27-8.831-1.887-13.557-10.539-24.421-21.53-27.035-8.681-2.065-17.098 1.381-22.518 9.215-15.302 22.118-27.095 46.307-35.103 71.942-1.901.007-3.805.026-5.714.069-8.853.202-20.884 2.013-29.418 3.495-4.081.71-6.814 4.593-6.105 8.674.634 3.646 3.802 6.217 7.381 6.217.426 0 .858-.036 1.293-.111 11.352-1.973 21.008-3.137 27.191-3.278 13.003-.295 25.796.302 38.174 1.749-.646 1.162-1.277 2.31-1.874 3.426-1.067 1.995-2.068 3.941-3.02 5.845-19.195-.863-36.358 4.304-56.011 10.231-19.274 5.811-40.925 12.318-69.657 14.703 1.942-8.189 5.85-16.32 13.602-19.854 3.754-1.712 11.779-4.133 22.017-6.644 4.022-.986 6.484-5.047 5.498-9.07-.985-4.022-5.047-6.488-9.07-5.498-7.974 1.955-18.726 4.854-24.667 7.563-12.957 5.908-21.035 19.106-23.458 38.255-5.877 6.234-10.585 12.408-14.359 18.292-4.885-.718-11.284-1.377-17.762-1.266-18.249.336-33.095 15.566-33.095 33.951v16.008l-21.907 7.42c-11.119 3.767-20.321 11.951-25.393 22.519-21.13 4.943-32.423 18.626-30.328 37.062 1.328 11.684 5.2 34.363 16.214 54.988 12.647 23.683 30.891 38.32 54.253 43.547l6.564 15.955c.104.252.221.498.352.738 5.996 10.993 14.594 18.15 25.556 21.272 14.148 4.031 28.924.161 38.124-3.37 3.423 15.128 8.462 30.206 15.026 44.949 1.244 2.793 3.984 4.451 6.855 4.451 1.02 0 2.056-.209 3.047-.65 3.784-1.686 5.485-6.118 3.801-9.902-6.771-15.205-11.786-30.768-14.978-46.331 3.143-2.701 7.329-7.195 11.221-14.22 12.928 14.342 31.675 23.722 54.942 27.311 7.106 1.097 14.549 1.623 22.156 1.623 37.209 0 78.304-12.592 102.593-32.631 41.452-34.192 52.803-117.346 53.271-120.754zm-126.672-176.377c7.509-22.662 18.178-44.083 31.796-63.765 1.899-2.746 4.093-3.781 6.712-3.156 4.047.962 8.947 5.913 10.143 14.509.991 7.116 2.021 14.004 3.069 20.563-10.77 12.124-19.354 23.768-26.134 34.276-8.355-1.19-16.903-2.002-25.586-2.427zm-161.326 87.438c3.354-.062 6.711.129 9.784.428-3.222 7.143-5.067 13.381-6.117 18.113-8.766-1.074-16.884 2.228-22.037 5.087v-4.675c0-10.265 8.241-18.767 18.37-18.953zm-96.095 100.268c-.956-8.414 2.798-14.538 11.176-18.289-.261 6.267.801 12.585 3.224 18.473l33.728 81.977c-36.478-15.448-45.782-61.53-48.128-82.161zm136.566 91.158c1.486 2.777 3.007 5.461 4.56 8.049-5.472 13.868-12.74 18.118-13.062 18.3l.125-.066.006.011c-.09.047-.184.083-.273.134-.192.109-19.656 10.774-35.777 6.184-6.937-1.977-12.274-6.455-16.308-13.687l-47.565-115.606c-3.054-7.422-2.905-15.531.418-22.836 3.322-7.306 9.339-12.746 16.94-15.321l17.538-5.94c-.666 11.008.623 28.587 9.538 52.667 1.12 3.026 3.985 4.898 7.034 4.898.864 0 1.744-.15 2.603-.469 3.885-1.438 5.868-5.752 4.43-9.637-12.535-33.863-8.27-52.086-7.288-55.395.025-.084.039-.168.061-.252.926-2.136 1.853-3.278 2.163-3.626 1.45-1.073 9.382-6.601 16.86-5.282 2.172 51.794 13.219 102.872 30.067 141.461-10.832-4.385-20.837-18.589-28.351-40.366-1.351-3.914-5.613-5.994-9.536-4.644-3.915 1.351-5.994 5.62-4.644 9.536 9.727 28.193 23.643 45.673 40.243 50.548 2.667.784 6.651 1.339 10.218 1.339zm233.347-345.06c5.043-2.525 10.823-2.457 15.987.326 6.093 3.284 9.498 9.37 9.109 16.281-2.63 46.772-1.195 80.78 4.266 101.078 9.654 35.885 5.909 68.01-11.131 95.485-12.778 20.604-28.703 30.859-28.976 31.033-3.502 2.199-4.564 6.818-2.372 10.326 1.423 2.276 3.867 3.526 6.367 3.526 1.244 0 2.497-.326 3.65-.972-5.022 23.812-18.176 72.101-45.538 94.67-22.675 18.707-71.112 34.207-112.916 27.755-16.417-2.533-38.707-9.751-51.666-29.757-1.731-2.673-3.421-5.508-5.077-8.461 3.056-1.464 6.232-3.412 9.501-5.988 14.579-11.487 16.171-31.401 17.71-50.66 1.391-17.394 2.704-33.822 12.583-43.386 2.976-2.881 3.053-7.629.172-10.605-2.881-2.975-7.627-3.055-10.605-.172-13.947 13.501-15.623 34.469-17.102 52.968-1.342 16.786-2.608 32.641-12.041 40.072-2.368 1.866-4.712 3.33-7.024 4.4-12.422-26.775-21.997-61.295-27.217-97.8 1.87 1.926 3.906 3.677 6.145 5.162 5.507 3.652 11.563 5.482 18.103 5.482 3.903 0 7.979-.652 12.211-1.958 3.958-1.222 6.176-5.421 4.955-9.379-1.222-3.957-5.417-6.175-9.379-4.955-6.9 2.133-12.653 1.582-17.581-1.679-12.437-8.228-17.598-31.886-18.653-41.073.189-2.247 1.475-13.159 9.081-27.308 5.955-1.41 21.43-2.901 31.625 15.728 1.363 2.49 3.934 3.9 6.586 3.899 1.217 0 2.451-.297 3.595-.922 3.633-1.989 4.966-6.547 2.978-10.181-9.303-16.995-22.768-23.016-34.44-24.082 1.641-2.05 3.405-4.12 5.334-6.203 12.281 1.091 41.925 7.614 40.546 44.966-.152 4.139 3.079 7.618 7.219 7.771.094.003.188.005.281.005 4.015 0 7.341-3.179 7.49-7.224 1.006-27.269-11.369-41.964-22.797-49.683 18.084-3.224 33.192-7.776 47.113-11.973 16.692-5.032 30.52-9.199 44.878-9.651-6.497 15.843-8.34 25.957-8.441 26.536-.035.195-.062.392-.08.59-.195 2.041-4.178 50.323 47.109 80.069 13.304 7.717 24.481 14.771 33.223 20.966 3.154 2.236 7.491 1.706 10.017-1.221 16.427-19.048 43.163-58.247 37.65-106.772-.938-8.247-1.426-17.658-1.492-28.771-.024-4.127-3.378-7.455-7.499-7.455-.016 0-.03 0-.046 0-4.142.024-7.479 3.402-7.455 7.545.069 11.654.589 21.591 1.588 30.376 4.422 38.922-15.094 71.563-29.82 90.104-8.069-5.435-17.67-11.384-28.64-17.746-41.264-23.934-39.987-61.377-39.725-65.374.505-2.481 4.3-19.631 17.013-43.214 11.596-21.509 33.025-52.578 70.466-82.755 1.853.298 2.88 1.084 3.629 1.863 7.196 7.472 6.521 34.256 5.979 55.776-.104 4.142 3.168 7.583 7.309 7.688.064.001.129.002.193.002 4.054 0 7.391-3.234 7.494-7.311.831-32.962-.7-56.603-11.442-67.757z"/><path d="m199.407 470.873c-2.131-3.552-6.738-4.704-10.29-2.573-3.552 2.132-4.704 6.738-2.573 10.29 11.632 19.387 21.697 30.498 22.12 30.961 1.479 1.623 3.508 2.446 5.543 2.446 1.805 0 3.614-.647 5.052-1.959 3.061-2.791 3.279-7.535.487-10.595-.093-.102-9.47-10.454-20.339-28.57z"/></g></g></svg>