<svg id="Capa_1" enable-background="new 0 0 511.996 511.996" height="512" viewBox="0 0 511.996 511.996" width="512" xmlns="http://www.w3.org/2000/svg"><g><path d="m281.813 417.826-38.977-144.991h-154.43c-31.244 0-59.276-19.201-70.565-48.334l-1.251-3.23c-5.517-14.238 2.822-30.068 17.685-33.57l124.485-29.329 13.091-18.834c13.398-19.276 34.398-31.904 57.706-34.701l83.817-10.059c27.688-3.323 55.279 6.918 74.094 27.502 7.473 8.175 13.304 17.71 17.178 28.086l99.847 267.459h-222.68z" fill="#f8f3f1"/><path d="m242.836 272.835s23.19 0 34.921-17.664c0 0-14.991 37.632-8.413 116.271z" fill="#efe2dd"/><path d="m251.308 304.351s18.11-10.095 43.547 5.894c25.438 15.989 15.841 49.713-25.512 61.196z" fill="#494646"/><path d="m401.694 417.826h102.8l-96.326-258.027h-22.464s.229.535.649 1.55c-6.58-.497-14.748.263-24.894 3.161-16.686 4.766-40.374-3.371-59.768-7.827 0 0 9.115 76.898 8.893 94.896-.616 50.043 52.595 76.465 68.789 83.342 2.548 1.082 5.489-.121 6.557-2.675 4.002-9.568 13.387-33.361 20.426-61.785 1.725-6.968 11.73-6.727 13.114.316 10.522 53.514 12.554 113.28-17.776 147.049z" fill="#efe2dd"/><g><path d="m8.407 203.628 14.029 36.923c1.843 4.85 8.171 6.067 11.644 2.213 8.856-9.829 21.942-28.081 21.177-49.48-.311-8.699-8.64-14.871-17.109-12.862l-19.951 4.734c-8.171 1.938-12.773 10.621-9.79 18.472z" fill="#756f6f"/><path d="m55.252 193.28c.769 21.404-12.314 39.653-21.175 49.487-3.474 3.85-9.799 2.628-11.637-2.216l-4.48-11.789c7.564-10.325 15.108-24.877 14.526-41.279-.068-1.949-.546-3.773-1.328-5.401l6.989-1.659c8.471-2.011 16.802 4.164 17.105 12.857z" fill="#5b5555"/></g><g><path d="m284.056 123.972c-10.914-1.795-18.079 10.956-10.835 19.314 12.31 14.202 28.804 40.217 28.347 77.322-.616 50.039 52.585 76.46 68.784 83.341 2.552 1.084 5.494-.119 6.564-2.678 8.188-19.577 38.885-98.638 25.976-155.135 0 0-8.295-24.638-50.449-12.597-19.255 5.5-47.842-6.188-68.387-9.567z" fill="#5b5555"/><path d="m376.92 301.275c-1.073 2.557-4.011 3.76-6.568 2.677-11.01-4.683-39.115-18.38-55.78-42.394 46.586 12.343 53.227-28.304 61.686-71.232 4.44-22.532-1.697-48.697-19.673-57.876 38.564-9.315 46.305 13.687 46.305 13.687 12.914 56.492-17.788 135.555-25.97 155.138z" fill="#494646"/></g><g fill="#494646"><path d="m192.733 231.805s4.424-20.665 32.232-15.073 17.064 20.544 8.216 23.18c-8.847 2.637-40.448 10.853-40.448-8.107z"/><path d="m379.361 354.918s6.015-28.097 43.824-20.493 23.201 27.932 11.171 31.516c-12.03 3.585-54.995 14.756-54.995-11.023z"/><path d="m137.859 222.3s-14.612 15.052-30.228-2.34.046-24.819 7.499-22.936 33.396 9.601 22.729 25.276z"/></g><g><path d="m362.028 411.779s-14.612 15.052-30.228-2.34c-15.616-17.393.046-24.819 7.499-22.936s33.396 9.601 22.729 25.276z" fill="#494646"/><g><path d="m242.919 265.342c-.028 0-77.072-.007-77.072-.007-4.142 0-7.5 3.358-7.5 7.5s3.358 7.5 7.5 7.5h71.24l37.484 139.438c.9 3.348 3.929 5.555 7.238 5.555.645 0 1.3-.084 1.952-.259 4-1.075 6.371-5.189 5.295-9.19l-10.616-39.491c21.161-7.767 35.41-22.307 37.632-38.782 1.808-13.406-4.47-25.693-17.225-33.71-18.181-11.428-33.339-11.123-42.359-9.168l-4.164-15.49c9.174-1.838 22.94-6.756 31.681-19.918 2.292-3.451 1.352-8.105-2.098-10.397-3.451-2.292-8.105-1.352-10.397 2.098-8.787 13.23-26.607 14.249-28.591 14.321zm58.288 70.259c-1.142 8.467-8.814 19.41-26.675 26.248l-14.138-52.592c6.141-1.137 16.992-1.134 30.471 7.338 7.671 4.822 11.344 11.572 10.342 19.006z"/><path d="m511.52 415.203-99.847-267.458c-4.229-11.328-10.51-21.598-18.668-30.523-20.4-22.317-50.504-33.489-80.523-29.888l-35.026 4.203c-4.113.494-7.046 4.228-6.553 8.34.494 4.113 4.224 7.04 8.34 6.553l35.026-4.203c23.101-2.773 46.252 4.872 63.155 20.578-7.349-.461-16.251.437-27.039 3.52-11.59 3.31-29.07-1.14-44.49-5.08-7.39-1.88-14.37-3.66-20.86-4.71-8.03-1.31-15.78 2.46-19.75 9.58-4.01 7.19-3.12 15.86 2.27 22.08 12.33 14.22 26.93 38.32 26.52 72.32-.14 11.35 2.23 22.37 7.06 32.74 1.75 3.76 6.21 5.38 9.97 3.64 3.75-1.75 5.38-6.21 3.63-9.97-3.87-8.32-5.78-17.14-5.67-26.22.48-38.72-16.15-66.15-30.18-82.33-1.79-2.07-.95-4.16-.5-4.96.42-.76 1.69-2.49 4.25-2.07 5.83.94 12.5 2.64 19.55 4.44 17.27 4.4 36.84 9.39 52.32 4.97 32.12-9.18 40.14 5.28 41.2 7.62 11.71 52.65-16.62 127.76-24.74 147.66-8.1-3.64-24.02-11.72-37.57-24.31-3.03-2.82-7.78-2.65-10.6.39-2.81 3.03-2.64 7.78.39 10.6 16.13 14.99 34.64 24.06 44.24 28.14 1.57.66 3.22 1 4.88 1 1.59 0 3.19-.31 4.71-.93 3.1-1.26 5.53-3.66 6.82-6.76 7.007-16.749 25.097-63.772 28.955-110.544l84.679 226.829c1.126 3.016 3.987 4.879 7.027 4.879.872 0 1.758-.153 2.622-.476 3.879-1.449 5.851-5.77 4.402-9.65z"/><path d="m131.681 265.335h-43.274c-17.793 0-34.698-6.911-47.353-19.142 9.066-10.466 22.526-30.025 21.698-53.178-.051-1.425-.251-2.823-.577-4.182l98.305-23.161c1.801-.424 3.382-1.5 4.438-3.02l13.092-18.833c12.165-17.501 31.279-28.996 52.441-31.535l14.925-1.791c4.113-.494 7.046-4.228 6.553-8.34-.494-4.113-4.226-7.042-8.34-6.553l-14.925 1.791c-25.411 3.049-48.363 16.852-62.97 37.867l-11.451 16.473-101.683 23.957c-4.818-2.944-10.585-3.882-16.143-2.564l-19.95 4.733c-5.995 1.422-11.088 5.36-13.974 10.804-2.886 5.444-3.286 11.87-1.097 17.63l14.029 36.922c1.782 4.69 5.764 8.054 10.672 9.041 15.797 17.866 38.401 28.08 62.31 28.08h43.274c4.142 0 7.5-3.358 7.5-7.5s-3.358-7.499-7.5-7.499zm-116.264-64.371c-.665-1.75-.548-3.624.329-5.277.876-1.653 2.362-2.802 4.183-3.234l19.951-4.733c1.9-.449 3.879-.028 5.435 1.157.875.667 2.358 2.161 2.448 4.675.664 18.58-11.104 34.971-18.634 43.496z"/><ellipse cx="200.463" cy="160.628" rx="10.625" ry="13.697"/><path d="m185.233 231.805c0 8.01 3.871 12.577 7.118 14.998 4.565 3.403 10.742 4.67 17.411 4.67 8.495 0 17.789-2.056 25.562-4.372 7.689-2.291 15.401-9.958 14.998-18.823-.296-6.49-4.679-15.037-23.876-18.897-27.744-5.58-38.979 11.202-41.045 20.855-.112.515-.168 1.041-.168 1.569zm38.254-7.72c9.461 1.902 11.559 4.518 11.837 4.936-.187.906-2.157 3.07-4.284 3.704-15.943 4.75-26.583 4.393-29.724 2.052-.323-.241-.885-.66-1.041-2.128.931-2.77 5.445-12.135 23.212-8.564z"/><path d="m424.664 327.072c-22.735-4.572-35.827 2.576-42.804 9.378-7.633 7.442-9.629 15.953-9.832 16.898-.11.516-.166 1.042-.166 1.57 0 9.772 4.672 15.307 8.592 18.229 5.697 4.247 13.618 5.76 22.014 5.76 12.105 0 25.197-3.146 34.03-5.778 9.462-2.819 18.956-12.15 18.467-22.884-.36-7.864-5.907-18.267-30.301-23.173zm7.55 31.682c-19.952 5.945-36.749 6.875-42.795 2.367-1.094-.815-2.336-2.153-2.531-5.317 1.25-4.072 7.833-19.452 34.818-14.026 14.255 2.867 18.187 7.239 18.273 9.15.119 2.591-3.946 6.688-7.765 7.826z"/><path d="m116.967 189.752c-6.87-1.734-16.678.941-21.198 8.428-2.669 4.419-5.403 13.777 6.281 26.791 6.342 7.063 13.47 10.722 21.187 10.872.163.003.322.005.483.005 11.113 0 18.682-7.461 19.519-8.323.302-.311.576-.646.819-1.004 4.952-7.276 4.22-13.47 2.733-17.385-4.111-10.831-18.487-16.519-29.824-19.384zm15.106 27.677c-1.196 1.009-4.618 3.537-8.646 3.414-3.359-.102-6.796-2.084-10.216-5.894-4.376-4.874-5.146-8.116-4.603-9.014.624-1.033 2.741-1.704 4.068-1.704.234 0 .443.021.616.064 11.341 2.866 18.382 7.282 19.476 10.163.108.285.416 1.096-.695 2.971z"/><path d="m341.136 379.231c-6.869-1.735-16.677.941-21.198 8.428-2.669 4.419-5.403 13.777 6.281 26.791 6.342 7.064 13.471 10.722 21.187 10.872.163.003.323.004.483.004 11.114 0 18.682-7.46 19.519-8.323.301-.311.576-.646.819-1.004 4.952-7.276 4.22-13.47 2.733-17.385-4.111-10.83-18.487-16.518-29.824-19.383zm15.106 27.677c-1.196 1.01-4.601 3.551-8.646 3.414-3.359-.102-6.796-2.084-10.216-5.894-4.376-4.874-5.146-8.116-4.603-9.014.624-1.033 2.741-1.704 4.068-1.704.234 0 .443.021.616.064 11.341 2.866 18.382 7.282 19.476 10.164.108.284.416 1.095-.695 2.97z"/></g></g></g></svg>