<svg id="Capa_1" enable-background="new 0 0 511.948 511.948" height="512" viewBox="0 0 511.948 511.948" width="512" xmlns="http://www.w3.org/2000/svg"><g><path d="" fill="#383638"/><g><path d="m182.388 454.109c6.476 7.835 10.887 36.48 12.691 50.338l308.037-.631-.597-291.412s-73.012-198.652-252.699-198.284c-93.69.192-128.658 15.439-150.487 60.24 0 0-39.539.986-63.432 60.524-10.083 25.125-8.831 50.591-8.831 50.591s-34.558 78.587-10.963 123.312c33.684 63.85 120.231 89.603 166.281 145.322z" fill="#fef0dc"/><path d="m379.95 54.247c85.74 57.94 122.57 158.16 122.57 158.16l.6 291.41-210.22.43c274.42-81.45 120.83-388.81 87.05-450z" fill="#fcddb3"/><path d="m258.574 58.428s-57.3 122.374-15.05 174.349 129.226-21.228 145.613-55.418 35.609-94.947-30.248-112.372-82.578-34.521-100.315-6.559z" fill="#fcddb3"/><path d="m266.22 359.187c-39.66-66.87-191.84-40.51-237.4-30.89-4.78-6.11-9.06-12.59-12.71-19.51-23.6-44.73 10.96-123.31 10.96-123.31s-1.25-25.47 8.83-50.59c20.16-50.24 51.46-58.79 60.75-60.24 11.03 9.71 25.29 17.8 40.03 14.09 31.68-7.98 41.99 12.32 41.99 12.32 23.52 36.38-11.98 134.17 51.7 180.31 20.06 14.53 32.44 37.39 34.53 62.07z" fill="#5b5555"/><path d="m266.22 359.187c-6.76-11.4-16.8-20.1-29.02-26.62-25.638-47.888-109.52-93.9-85.1-155.53 28.99-73.16-15.42-88.3-15.42-88.3 31.68-7.98 41.99 12.32 41.99 12.32 23.52 36.38-11.98 134.17 51.7 180.31 20.06 14.53 32.44 37.39 34.53 62.07z" fill="#494646"/><path d="m171.43 442.107c-47.71-47.77-124.15-74.23-155.32-133.32-23.6-44.73 10.96-123.31 10.96-123.31s13.16-17.78 47.11-16.84c3.5 4.57 7.04 10.76 10.06 19.11 17.72 48.9 72.95 106.66 131.5 133.34 5.38 23.8 15.71 94.79-44.31 121.02z" fill="#494646"/><path d="m171.43 442.107c-11.87-11.88-25.51-22.44-39.78-32.51 31.02-3.59 50.64-23.58 47.02-47.12-5.35-34.79-42.97-39.62-82.02-112.58-25.93-48.44-56.57-54.15-74.23-52.52 2.68-7.43 4.65-11.9 4.65-11.9s13.16-17.78 47.11-16.84c3.5 4.57 7.04 10.76 10.06 19.11 17.72 48.9 72.95 106.66 131.5 133.34 5.38 23.8 15.71 94.79-44.31 121.02z" fill="#383638"/><path d="m258.574 22.26s-57.3 122.374-15.05 174.349 129.226-21.228 145.613-55.418 35.609-94.947-30.248-112.372-82.578-34.521-100.315-6.559z" fill="#5b5555"/><path d="m389.14 141.187c-16.39 34.19-103.37 107.4-145.62 55.42-.36-.45-.72-.9-1.08-1.36 134.15-38.48 131.53-124.65 119.76-165.5 61.89 18.57 43.04 77.84 26.94 111.44z" fill="#494646"/></g><g><path d="m181.108 163.405c.092 4.083 3.431 7.33 7.495 7.33.058 0 .116 0 .173-.002 4.141-.094 7.422-3.527 7.328-7.668-.593-26.276-1.147-50.134-10.84-65.582-10.617-17.003-14.905-35.999-10.573-52.998 2.289-8.986 6.119-15.497 8.301-18.706 17.991-2.869 40.657-4.094 67.628-4.15-8.324 18.602-54.641 128.38-12.915 179.711 6.763 8.319 14.944 14.237 24.317 17.59 3.898 1.394 8.192-.636 9.588-4.536 1.395-3.9-.636-8.192-4.536-9.588-6.755-2.417-12.721-6.766-17.729-12.928-19.849-24.418-14.712-67.821-6.907-99.932 8.18-33.655 21-62.285 22.734-66.083 9.615-14.939 16.401-13.304 49.549-2.509 11.203 3.648 25.144 8.189 42.251 12.715 18.333 4.851 30.558 13.656 36.337 26.17 10.282 22.268-.271 53.462-10.934 75.709-9.887 20.628-49.031 57.938-85.5 67.164-4.016 1.016-6.447 5.095-5.432 9.11.86 3.398 3.913 5.663 7.266 5.663.608 0 1.228-.075 1.845-.231 33.046-8.361 67.107-36.457 85.159-59.486 7.732 39.159 20.881 136.754-24.858 194.353-2.576 3.244-2.034 7.961 1.209 10.538 1.379 1.095 3.025 1.627 4.659 1.627 2.209 0 4.398-.972 5.878-2.836 26.058-32.815 38.394-82.186 35.675-142.775-1.734-38.659-8.905-69.948-11.202-79.14 8.946-19.198 14.017-36.481 15.2-51.729 57.051 55.066 82.934 124.052 83.205 124.788 1.116 3.032 3.985 4.911 7.04 4.911.859 0 1.733-.149 2.586-.462 3.888-1.429 5.881-5.739 4.452-9.627-1.225-3.334-30.711-82.099-98.439-141.009-.938-4.534-2.331-8.823-4.193-12.855-7.742-16.767-23.258-28.334-46.118-34.383-16.699-4.418-30.419-8.887-41.443-12.477-26.589-8.659-43.488-14.161-57.627-2.198-3.948-.182-7.945-.284-11.933-.273-92.901.19-131.549 15.068-155.373 60.798-12.136 2.175-44.676 12.803-65.491 64.671-9.128 22.746-9.513 45.459-9.413 51.952-2.887 6.908-13.961 34.851-17.832 65.708-.515 4.11 2.398 7.86 6.508 8.375.317.04.631.059.943.059 3.726 0 6.957-2.775 7.433-6.567 1.29-10.282 3.479-20.323 5.875-29.265 9.674.962 30.138 5.194 37.316 16.561 1.427 2.259 3.86 3.496 6.349 3.496 1.369 0 2.754-.375 3.998-1.16 3.502-2.212 4.548-6.844 2.336-10.346-10.463-16.566-34.592-21.637-45.66-23.123 3.04-9.287 5.752-15.981 6.742-18.346 2.218-2.43 13.191-12.936 36.772-13.313 2.364 3.635 4.739 8.26 6.882 14.177 7.97 21.998 23.119 45.791 43.316 68.287-23.112 19.998-57.299 17.102-74.108 8.29-3.668-1.922-8.202-.508-10.125 3.161-1.923 3.668-.508 8.202 3.161 10.125 9.583 5.024 23.229 8.495 37.955 8.495 18.024 0 37.662-5.212 53.429-19.14.774.781 1.552 1.559 2.338 2.335 8.062 7.964 16.532 15.435 25.245 22.339-2.821 10.839-12.911 41.469-38.689 51.627-21.886 8.628-50.552 1.088-85.229-22.404-4.411-5.693-8.356-11.707-11.743-18.126-3.183-6.033-5.363-13.25-6.479-21.449-.559-4.104-4.333-6.979-8.443-6.42-4.104.559-6.979 4.339-6.42 8.443 1.354 9.944 4.07 18.834 8.075 26.425 19.845 37.618 57.001 62.457 92.935 86.479 26.925 18 54.767 36.612 74.198 60.123 2.726 3.298 7.251 17.463 11.035 46.528.492 3.779 3.716 6.533 7.428 6.533.322 0 .649-.021.977-.063 4.108-.535 7.004-4.298 6.469-8.405-3.771-28.975-8.598-47.193-14.346-54.148-1.419-1.718-2.883-3.402-4.373-5.066 22.184-12.732 36.096-33.067 41.383-60.557 3.489-18.144 2.539-36.07.465-50.263 20.581 9.235 35.971 26.497 42.497 47.86.987 3.231 3.958 5.311 7.17 5.311.867 0 1.752-.151 2.62-.473 3.768-1.398 5.655-5.664 4.468-9.503-2.175-7.039-5.16-13.698-8.85-19.887l-1.178-13.946c-2.3-27.26-16.01-51.87-37.6-67.52-28.48-20.63-34.8-52.84-37.12-78.59-.37-4.12-4.02-7.16-8.14-6.8-4.13.38-7.17 4.02-6.8 8.15 2.61 28.91 9.88 65.21 43.26 89.39 15.821 11.465 26.584 28.738 30.301 48.256-8.198-7.402-17.792-13.394-28.455-17.615-57.857-22.903-117.826-81.275-136.525-132.889-6.728-18.571-15.955-27.807-22.889-32.357-4.424-2.903-10.381-.386-11.432 4.8l-.002.009c-.32 1.579-.1 3.16.538 4.559-9.328 1.502-16.674 4.363-22.251 7.418.933-8.882 3.015-20.506 7.604-31.942 13.674-34.075 32.27-47.354 44.377-52.527-2.05 8.592-3.209 20.839-.014 36.084 6.221 29.682 26.4 60.588 59.978 91.859 1.445 1.346 3.279 2.012 5.11 2.012 2.009 0 4.013-.802 5.49-2.389 2.823-3.031 2.654-7.777-.377-10.6-60.048-55.924-59.76-96.526-55.461-113.997 12.57 8.173 24.837 10.836 36.547 7.89 22.194-5.592 31.818 6.108 33.859 9.118 7.692 11.891 8.214 35.009 8.74 58.277zm-8.195 269.701c-18.549-17.629-40.634-32.417-62.167-46.812-13.353-8.927-26.429-17.671-38.521-26.889 10.07 3.23 19.616 4.862 28.608 4.862 8.64 0 16.78-1.5 24.38-4.49 28.169-11.106 40.879-39.473 46.039-55.943 12.443 8.809 25.224 16.372 37.929 22.439 5.031 24.853 10.858 82.715-36.268 106.833zm-11.993-352.703c-6.913-1.509-15.508-1.601-26.071 1.061-8.099 2.036-17.149-.474-26.939-7.439 11.943-22.698 28.168-36.478 55.934-44.17-1.361 3.217-2.656 6.872-3.69 10.927-2.542 9.979-3.8 23.729.766 39.621z"/><ellipse cx="136.969" cy="134.236" rx="16.519" ry="21.694"/><path d="m506.41 303.812c-3.72-1.817-8.213-.277-10.032 3.445-.147.301-15.061 30.456-46.167 63.367-28.65 30.312-77.167 68.989-145.606 81.112-4.079.723-6.799 4.615-6.077 8.693.645 3.636 3.808 6.193 7.376 6.193.434 0 .875-.038 1.317-.116 72.473-12.838 123.688-53.625 153.891-85.579 32.662-34.557 48.101-65.771 48.742-67.083 1.819-3.721.277-8.212-3.444-10.032z"/></g></g></svg>