<svg id="Capa_1" enable-background="new 0 0 512 512" height="512" viewBox="0 0 512 512" width="512" xmlns="http://www.w3.org/2000/svg"><g><path d="m458.534 86.488c-17.003-29.866-45.516-51.447-78.877-59.702l-11.757-2.908c-8.104-2.005-16.525-2.38-24.775-1.103l-93.201 14.425c-32.793 5.076-59.5 29.03-68.098 61.081l-5.455 20.334-145.3 46.643c-12.099 3.884-18.647 16.948-14.517 28.966l26.689 77.674c9.935 28.913 37.133 48.326 67.705 48.326h117.302c30.217 0 58.605 14.477 76.349 38.935 0 0 20.549 17.195 39.42 93.917.777 3.16 4.305 4.764 7.189 3.255l17.311-9.067 8.74 42.708h127.241v-322.749z" fill="#fac574"/><path d="m295.891 109.597c-7.7 28.157-20.546 101.53 27.897 171.516 6.155 8.893 17.976 11.784 27.632 6.914 25.699-12.959 73.942-44.947 95.698-109.749 8.57-25.525-6.37-53.183-32.621-59.172-.732-.167-1.478-.323-2.238-.467-29.994-5.674-61.067-46.247-93.518-34.435-11.309 4.117-19.676 13.783-22.85 25.393z" fill="#e8b66b"/><path d="m504.494 167.224v322.746h-127.236l-2.764-13.521c156.54-49.466 84.039-389.959 84.039-389.959z" fill="#e8b66b"/><path d="m423.459 489.97h-46.201l-8.743-42.706-17.307 9.064c-2.884 1.512-6.41-.09-7.191-3.255-18.869-76.718-39.421-93.914-39.421-93.914-17.747-24.458-46.131-38.93-76.347-38.93h33.381c29.445 0 57.939-9.244 81.605-26.11 0 0 30.486 49.073 20.79 91.561-.952 4.172 3.528 7.492 7.287 5.449l5.294-2.877c1.98-1.076 4.436-.705 5.995.922 9.44 9.849 40.239 46.136 40.858 100.796z" fill="#f9e1c2"/><path d="m329.485 404.939c-13.551-36.296-24.888-45.78-24.888-45.78-17.747-24.458-46.131-38.93-76.347-38.93h33.381c20.622 0 40.773-4.537 59.121-13.05.01 0 .01.01.01.01s24.337 49.837 8.723 97.75z" fill="#fcd79f"/><path d="m423.459 489.97h-46.201l-2.764-13.521c16.956-5.358 31.228-14.132 43.186-25.519 3.385 11.658 5.619 24.718 5.779 39.04z" fill="#fcd79f"/><path d="m10.112 199.204 23.56 44.839s54.841-17.08 37.988-91.814l-48.114 14.739c-13.588 4.163-20.044 19.654-13.434 32.236z" fill="#81635e"/><path d="m33.671 244.042-11.347-21.603c27.592-17.026 27.592-45.52 24.528-62.616l24.808-7.592c16.855 74.735-37.989 91.811-37.989 91.811z" fill="#6c524e"/><g><ellipse cx="210.462" cy="118.325" rx="10.642" ry="13.718"/></g><g><g><path d="m284.976 82.98c-7.7 28.157-20.546 101.53 27.897 171.516 6.155 8.893 17.976 11.783 27.633 6.914 25.699-12.959 73.942-44.947 95.698-109.749 8.57-25.525-6.37-53.183-32.621-59.172-.732-.167-1.478-.323-2.238-.466-29.994-5.674-61.067-46.247-93.518-34.435-11.309 4.117-19.676 13.783-22.851 25.392z" fill="#e8b66b"/><path d="m403.588 92.489c26.208 5.986 41.193 33.586 32.649 59.075-21.74 64.859-70.011 96.877-95.729 109.846-9.655 4.867-21.483 1.973-27.643-6.921-18.168-26.25-27.713-52.971-32.129-77.599 22.114 20.642 51.849 44.228 95.857 7.491 32.109-26.801 27.893-68.966 22.024-92.973.911.24 1.823.441 2.724.611.763.145 1.512.302 2.247.47z" fill="#d7a964"/><g><path d="m353.509 295.777c3.248-2.57 3.799-7.287 1.229-10.535-2.57-3.249-7.288-3.799-10.535-1.229-23.403 18.514-52.728 28.71-82.572 28.71h-30.381c-.232 0-60.057 0-60.057 0-4.142 0-7.5 3.358-7.5 7.5s3.358 7.5 7.5 7.5h57.057c27.725 0 55.255 14.746 71.536 37.187.187.156 19.163 17.642 36.949 89.957.926 3.764 3.482 6.836 7.015 8.428 3.527 1.59 7.514 1.472 10.937-.321l8.482-4.443 6.742 32.944c.727 3.551 3.852 5.998 7.34 5.998.498 0 1.004-.05 1.512-.154 4.058-.831 6.674-4.793 5.844-8.852l-8.74-42.708c-.473-2.309-2.002-4.261-4.131-5.271-2.13-1.01-4.609-.962-6.696.131l-14.501 7.595c-17.306-68.785-35.86-89.828-40.328-94.088-8.326-11.292-18.823-20.596-30.683-27.505 21.677-2.663 42.628-10.111 61.118-21.75 7.198 13.831 22.973 48.888 16.07 79.14-1.101 4.822.671 9.679 4.623 12.675 3.921 2.973 9.242 3.377 13.558 1.032l3.604-1.959c10.183 11.048 36.899 44.747 37.46 94.296.047 4.113 3.396 7.415 7.498 7.415h.087c4.142-.047 7.462-3.442 7.415-7.584-.65-57.36-33.032-95.559-42.942-105.901-3.885-4.053-10.049-5.007-14.992-2.322 5.465-34.63-11.549-71.08-19.518-85.886z"/><path d="m27.08 247.937 9.07 26.397c10.973 31.934 41.031 53.389 74.797 53.389h26.079c4.142 0 7.5-3.358 7.5-7.5s-3.358-7.5-7.5-7.5h-26.079c-27.362 0-51.72-17.386-60.612-43.263l-7.321-21.307c5.768-2.945 14.137-8.281 21.679-17.127 11.051-12.963 22.338-36.086 15.638-73.704l98.333-31.566c2.426-.779 4.291-2.736 4.951-5.198l5.455-20.334c7.824-29.165 32.161-50.994 62.001-55.612l93.202-14.426c7.304-1.131 14.647-.804 21.826.973l11.756 2.908c9.205 2.278 18.148 5.684 26.583 10.121 3.668 1.931 8.201.521 10.13-3.145s.521-8.201-3.146-10.129c-9.504-5.001-19.585-8.839-29.965-11.407l-11.756-2.909c-9.115-2.256-18.443-2.671-27.724-1.235l-93.201 14.426c-35.709 5.527-64.832 31.649-74.194 66.549l-4.396 16.386-148.836 47.073c-8.619 2.64-15.551 8.927-19.019 17.248-3.467 8.32-3.051 17.668 1.142 25.648zm-10.903-65.123c1.744-4.186 5.231-7.348 9.566-8.676l40.152-12.3c7.738 47.453-17.15 66.411-28.818 72.561l-20.326-38.684c-2.109-4.013-2.318-8.716-.574-12.901z"/><path d="m511.016 163.512-45.965-80.734c-6.489-11.399-14.626-21.762-24.182-30.799-3.01-2.846-7.757-2.714-10.603.296-2.846 3.009-2.714 7.756.296 10.603 8.479 8.019 15.696 17.211 21.453 27.322l45.965 80.735c1.383 2.428 3.916 3.791 6.524 3.791 1.258 0 2.533-.317 3.704-.984 3.601-2.051 4.858-6.63 2.808-10.23z"/><path d="m405.252 85.177c-.821-.188-1.66-.363-2.512-.523-10.318-1.952-21.374-8.977-33.08-16.413-19.298-12.261-41.175-26.157-64.398-17.7-13.345 4.857-23.633 16.245-27.521 30.461-4.749 17.368-11.709 52.666-4.958 93.94.668 4.087 4.511 6.858 8.612 6.191 4.088-.669 6.859-4.524 6.19-8.612-6.292-38.468.196-71.373 4.624-87.563 2.606-9.53 9.403-17.128 18.183-20.323 16.289-5.931 33.258 4.852 51.225 16.266 12.384 7.868 25.189 16.003 38.336 18.491.666.126 1.319.262 1.962.409 10.392 2.371 19.011 8.837 24.268 18.208 5.331 9.501 6.393 20.897 2.911 31.265-20.77 61.864-66.534 92.616-91.965 105.44-6.333 3.193-14.108 1.264-18.089-4.486-9.9-14.303-17.764-29.719-23.37-45.819-1.363-3.912-5.641-5.979-9.55-4.616-3.911 1.362-5.979 5.638-4.616 9.55 6.053 17.378 14.531 34.007 25.202 49.423 5.562 8.034 14.678 12.469 24.015 12.469 4.458 0 8.968-1.012 13.162-3.127 27.487-13.861 76.955-47.11 99.432-114.059 4.826-14.378 3.351-30.189-4.05-43.379-7.251-12.924-19.648-22.216-34.013-25.493z"/></g></g></g></g></svg>