<svg id="Capa_1" enable-background="new 0 0 511.965 511.965" height="512" viewBox="0 0 511.965 511.965" width="512" xmlns="http://www.w3.org/2000/svg"><g><g><g><path d="m317.961 234.13s-17.075-49.261 23.337-114.07c28.979-46.474 58.704-71.936 73.385-82.726 4.883-3.589 11.813-1.966 14.578 3.427 12.904 25.172 44.57 93.413 32.795 136.29-14.656 53.368-73.933 91.011-73.933 91.011z" fill="#6c524e"/></g></g><g><path d="m503.918 476.547-67.914-269.151c-10.277-40.727-46.91-69.265-88.914-69.265h-75.286c-24.31 0-46.166 14.814-55.171 37.395l-15.348 38.49-177.314 9.334c-9.258.609-15.755 9.384-13.635 18.416l10.052 42.836c8.849 37.712 37.508 67.627 74.806 78.086l64.459 18.075c31.587 11.105 55.245 37.671 62.63 70.328l5.757 25.455h275.878z" fill="#81635e"/><path d="m421.91 248.267s40.33 178.557-66.817 228.28h148.825l-58.997-233.81z" fill="#6c524e"/><path d="m222.286 451.09c-7.391-32.651-31.043-59.22-62.635-70.326l-64.453-18.078c-37.306-10.458-65.962-40.372-74.811-78.077l-10.048-42.839c-2.117-9.029 4.375-17.809 13.634-18.418l100.271-5.274s7.631 50.13 57.821 62.725c50.2 12.595 90.882-26.109 132.313 0 41.439 26.108-86.629 79.904-92.092 170.287z" fill="#fcddb3"/><path d="m222.286 451.09c-5.863-25.919-21.984-48.013-44.187-61.577 85.658-25.869 89.114-100.341 88.804-116.761 16.091-2.437 31.732-1.868 47.474 8.05 41.44 26.109-86.628 79.905-92.091 170.288z" fill="#fbcc85"/><g><g><path d="m8.008 244.842 8.114 36.185c1.055 4.704 6.525 6.856 10.494 4.12 11.821-8.15 32.235-26.556 35.472-58.007.41-3.982-2.777-7.429-6.78-7.429h-27.18c-13.208.001-23.01 12.244-20.12 25.131z" fill="#756f6f"/></g><path d="m62.086 227.14c-3.239 31.447-23.649 49.857-35.474 58.008-3.96 2.735-9.43.585-10.491-4.123l-3.688-16.424c20.874-13.199 27.378-33.093 29.392-44.89h13.485c4 0 7.184 3.442 6.776 7.429z" fill="#5b5555"/></g><g><g><path d="m339.491 219.299s-5.683-52.21 48.578-106.755c38.91-39.113 73.825-57.427 90.668-64.719 5.602-2.426 12.042.727 13.543 6.644 7.008 27.619 22.747 101.749 1.54 141.201-26.397 49.105-93.07 72.73-93.07 72.73" fill="#81635e"/></g><g><path d="m380.126 228.205c-13.406-10.746-18.145-29.114-11.395-44.914 6.438-15.068 17.362-32.98 35.854-51.569 26.255-26.392 50.431-43.166 66.997-52.965 1.318 6.907 2.589 14.423 3.657 22.258 5.195 38.128 3.348 68.973-5.066 84.626-9.767 18.169-27.534 33.363-44.902 44.715-13.942 9.112-32.149 8.267-45.145-2.151z" fill="#fcddb3"/><path d="m470.176 185.64c-9.768 18.169-27.533 33.369-44.907 44.716-13.946 9.107-32.148 8.267-45.142-2.151-12.882-10.317-17.765-27.69-12.131-43.047 2.218-2.016 3.573-3.114 3.573-3.114s2.431 40.045 47.326 21.372c37.39-15.559 33.179-86.879 30.726-110.267 8.222-5.914 15.648-10.653 21.955-14.394 1.322 6.911 2.599 14.428 3.663 22.257 5.198 38.13 3.35 68.979-5.063 84.628z" fill="#fbcc85"/><g><path d="m488.236 383.744c-1.014-4.017-5.089-6.451-9.107-5.437-4.017 1.013-6.45 5.091-5.438 9.107l22.954 90.968c.858 3.4 3.913 5.667 7.267 5.667.607 0 1.225-.075 1.841-.23 4.017-1.013 6.45-5.091 5.438-9.107z"/><path d="m30.206 291.745c12.853-8.861 35.55-29.206 39.276-63.28l48.867-2.572c4.196 15.234 18.558 51.31 61.889 62.183 24.415 6.126 46.84.963 66.626-3.59 23.304-5.363 43.429-9.996 63.514 2.662 4.383 2.761 4.625 4.858 4.704 5.547.921 7.969-14.814 23.919-30.032 39.345-23.042 23.357-53.003 53.727-65.064 91.372-12.138-22.998-32.52-40.818-57.847-49.722-.152-.053-.307-.102-.462-.146l-34.949-9.8c-3.995-1.117-8.129 1.209-9.247 5.197s1.208 8.128 5.196 9.247l34.712 9.733c29.221 10.358 50.736 34.576 57.577 64.828l5.757 25.455c.788 3.483 3.882 5.848 7.309 5.847.548 0 1.104-.06 1.661-.186 4.04-.914 6.574-4.93 5.661-8.97l-5.5-24.32c3.155-44.4 37.903-79.644 65.875-107.999 20.899-21.185 36-36.492 34.255-51.6-.761-6.585-4.667-12.143-11.608-16.517-25.368-15.986-50.537-10.191-74.875-4.589-19.023 4.379-38.693 8.908-59.611 3.66-33.02-8.286-45.667-34.537-50.135-48.445l67.926-3.576c2.922-.154 5.488-1.994 6.572-4.712l15.348-38.49c7.915-19.849 26.836-32.674 48.204-32.674h75.286c1.838 0 3.677.081 5.513.201-23.84 40.383-20.751 72.589-20.567 74.277.418 3.843 3.668 6.69 7.447 6.69.271 0 .544-.015.819-.044 4.118-.448 7.093-4.149 6.646-8.267-.049-.453-4.397-45.878 41.276-95.268 2.812-3.042 2.626-7.787-.415-10.599-3.04-2.813-7.786-2.627-10.599.414-5.838 6.313-10.923 12.573-15.367 18.714-4.872-.729-9.817-1.119-14.753-1.119h-3.361c1.265-2.212 2.571-4.418 3.933-6.604 28.171-45.179 56.866-69.922 71.464-80.651.763-.562 1.537-.489 1.929-.396.39.092 1.106.37 1.533 1.201 2.5 4.877 6.155 12.265 10.108 21.112-9.365 6.448-19.575 14.221-30.281 23.548-3.123 2.721-3.449 7.458-.729 10.582 2.722 3.123 7.458 3.448 10.582.728 30.525-26.594 56.613-39.887 69.447-45.443.897-.389 1.657-.138 2.031.046.37.182 1.025.626 1.263 1.56 5.657 22.296 22.535 97.983 2.203 135.805-24.631 45.821-88.085 68.895-88.969 69.212-3.904 1.383-5.948 5.67-4.564 9.574 1.09 3.076 3.981 4.997 7.069 4.997.831 0 1.677-.139 2.505-.433 1.376-.488 17.85-6.438 37.579-18.276l24.507 97.119c.858 3.4 3.913 5.667 7.267 5.667.607 0 1.225-.075 1.841-.23 4.017-1.013 6.45-5.091 5.438-9.107l-25.756-102.072c17.311-12.138 35.09-28.502 46.297-49.35 22.269-41.427 6.806-116.32-.877-146.596-1.255-4.95-4.604-9.081-9.185-11.333-4.589-2.255-9.913-2.383-14.607-.35-6.92 2.996-17.459 8.103-30.347 16.053-3.707-8.181-7.095-15.018-9.474-19.656-2.319-4.526-6.488-7.791-11.438-8.958-4.953-1.169-10.151-.108-14.256 2.909-15.464 11.366-45.811 37.496-75.309 84.801-2.986 4.79-5.756 9.669-8.286 14.54h-54.844c-27.544 0-51.935 16.532-62.138 42.118l-13.569 34.031-134.191 7.064c-2.021-1.049-4.277-1.632-6.597-1.632h-27.181c-8.585 0-16.586 3.844-21.951 10.545-5.365 6.701-7.365 15.349-5.487 23.726l8.114 36.185c.769 3.43 2.757 6.397 5.525 8.419 10.405 37.117 38.397 66.104 75.259 77.754.752.238 1.513.351 2.262.351 3.185 0 6.139-2.044 7.149-5.242 1.248-3.95-.941-8.163-4.892-9.412-30.427-9.616-53.898-32.835-63.901-62.793zm-6.992-13.37-7.888-35.174c-.876-3.908.057-7.943 2.56-11.069 2.504-3.126 6.236-4.92 10.242-4.92h26.409c-3.117 27.185-20.542 43.521-31.323 51.163z"/><path d="m429.374 236.634c22.405-14.644 38.354-30.605 47.405-47.442 9.283-17.27 11.375-48.945 5.892-89.19-.997-7.308-2.249-14.928-3.722-22.65-.458-2.399-2.055-4.425-4.281-5.43-2.226-1.004-4.802-.863-6.904.38-16.235 9.604-41.298 26.791-68.496 54.131-16.749 16.837-29.344 34.976-37.435 53.913-8.021 18.776-2.428 40.863 13.603 53.712 8.375 6.713 18.525 10.11 28.723 10.11 8.734 0 17.504-2.495 25.215-7.534zm-53.747-50.396c7.341-17.18 18.872-33.743 34.275-49.226 21.332-21.443 41.224-36.333 56.234-46.056.619 3.754 1.178 7.454 1.671 11.072 4.913 36.053 3.327 65.983-4.241 80.063-7.739 14.398-22.4 28.917-42.399 41.988-11.267 7.364-25.875 6.671-36.351-1.725-10.796-8.655-14.576-23.507-9.189-36.116z"/></g></g></g></g><ellipse cx="246.103" cy="205.971" rx="16.499" ry="21.668"/></g></svg>