<svg id="Capa_1" enable-background="new 0 0 511.997 511.997" height="512" viewBox="0 0 511.997 511.997" width="512" xmlns="http://www.w3.org/2000/svg"><g><g><path d="m504.496 488.48h-344.59v-106.86l291.09-117.99z" fill="#efe2dd"/><path d="m444.246 488.48c9.491-12.439 12.76-25.576 12.606-37.971-.144-11.545-14.467-16.689-21.893-7.848-.029.034-.056.067-.083.098-53.655 62.254-217.723 56.319-274.97-25.24v-35.9l291.09-117.99 53.5 224.85-60.75.65c.17-.219.34-.429.5-.649z" fill="#e0d3ce"/><path d="m97.518 326.303 33.177 8.671 313.048 6.573-50.766-201.192c-10.964-43.455-50.051-73.905-94.868-73.905h-89.383c-40.02 0-75.999 24.388-90.823 61.561l-7.739 19.407-58.886 6.611c-21.999 2.47-37.181 23.226-32.869 44.94l10.91 54.944c6.991 35.201 33.477 63.315 68.199 72.39z" fill="#efe2dd"/><path d="m443.746 341.55-313.05-6.58-33.18-8.67c-18.21-4.76-34.15-14.75-46.21-28.26 0-.01 0-.02 0-.02 53.46 15.85 45.63-25.7 70.13-94.02 14.15-39.47-26.88-54.57-27.42-54.77l16.15-1.81 7.74-19.41c14.82-37.17 50.8-61.56 90.82-61.56h89.38c44.82 0 83.91 30.45 94.87 73.9z" fill="#e0d3ce"/><g><path d="m7.834 168.002 8.513 37.719c1.118 4.954 7.084 7.006 10.981 3.748 9.937-8.307 25.134-24.195 27.34-45.041.897-8.474-6.326-15.603-14.811-14.822l-19.989 1.84c-8.187.754-13.844 8.536-12.034 16.556z" fill="#756f6f"/><path d="m54.663 164.424c-2.202 20.852-17.396 36.737-27.338 45.048-3.898 3.253-9.859 1.198-10.974-3.75l-2.718-12.043c8.753-8.965 18.069-22.031 19.764-38.009.203-1.898-.009-3.732-.544-5.418l7.003-.645c8.486-.782 15.71 6.349 14.807 14.817z" fill="#5b5555"/></g><path d="m110.165 147.419s-10.657-45.022 37.717-86.071c46.268-39.263 187.501-60.979 258.415-.118 60.021 51.511 105.037 194 19.892 334.335-52.678 86.823-280.979 78.809-301.015-62.888-11.73-82.952 31.27-142.216 23.376-164.11-9.078-25.173-38.385-21.148-38.385-21.148z" fill="#f8f3f1"/><path d="m426.186 395.57c-41.49 68.37-191.9 77.93-263.72 9.7 77.44 37.19 189.64 21.33 224.58-36.26 82-135.14 43.29-272.28-13.29-328.24 11.88 5.39 22.86 12.16 32.54 20.46 60.02 51.51 105.04 194 19.89 334.34z" fill="#efe2dd"/></g><g><path d="m511.792 486.743-13.238-55.637c-.959-4.03-5.004-6.518-9.033-5.561-4.029.959-6.519 5.003-5.56 9.033l13.238 55.637c.82 3.446 3.896 5.766 7.29 5.766.575 0 1.159-.066 1.743-.205 4.029-.96 6.518-5.004 5.56-9.033z"/><path d="m111.153 154.853c.953-.124 23.475-2.783 30.341 16.258 2.165 6.004-2.327 19.977-7.528 36.156-2.559 7.958-5.458 16.978-8.155 26.784-1.099 3.994 1.249 8.122 5.243 9.22.666.183 1.334.271 1.993.271 3.292 0 6.312-2.185 7.227-5.513 2.612-9.497 5.46-18.355 7.972-26.171 6.536-20.331 11.259-35.021 7.359-45.835-7.249-20.104-25.754-25.887-38.89-26.37-.773-12.752 1.608-43.386 36.019-72.587 23.238-19.72 71.593-34.209 120.324-36.055 4.139-.157 7.368-3.639 7.211-7.778s-3.647-7.359-7.778-7.211c-52.642 1.994-103.458 17.541-129.462 39.607-39.277 33.33-42.231 69.27-41.246 85.183l-48.068 5.396c-4.158-3.084-9.306-4.552-14.547-4.071l-19.989 1.84c-6.051.557-11.571 3.696-15.145 8.612-3.573 4.916-4.854 11.135-3.517 17.063l8.513 37.718c.728 3.227 2.508 5.998 4.987 7.988l7.946 40.015c3.704 18.654 12.556 35.831 25.597 49.674s29.661 23.702 48.061 28.511l23.08 6.031c4.681 25.489 15.989 47.691 33.702 66.227v82.661c0 4.142 3.358 7.5 7.5 7.5s7.5-3.358 7.5-7.5v-69.055c21.224 16.73 48.391 28.83 79.012 35.115 15.866 3.256 32.198 4.876 48.404 4.876 20.611 0 41.014-2.622 59.955-7.829 35.755-9.831 63.395-28.344 77.827-52.13 12.337-20.334 21.76-40.255 28.856-59.458l15.374 64.612c.82 3.446 3.896 5.766 7.29 5.766.575 0 1.159-.067 1.743-.206 4.029-.959 6.519-5.003 5.56-9.033l-21.147-88.814c12.532-46.614 11.996-87.676 7.834-118.247-7.827-57.498-32.848-109.288-66.93-138.539-26.002-22.315-63.042-35.8-107.114-38.996-4.133-.294-7.724 2.807-8.023 6.938s2.807 7.723 6.938 8.023c28.483 2.065 68.681 9.886 98.431 35.417 31.374 26.926 54.49 75.217 61.836 129.179 6.286 46.174 3.846 117.586-43.472 195.575-12.436 20.497-36.933 36.637-68.979 45.447-31.598 8.687-67.597 9.653-101.366 2.722-31.439-6.453-105.759-29.915-116.831-108.217-2.967-20.981-2.594-42.052 1.141-64.415.683-4.085-2.077-7.951-6.162-8.633-4.086-.686-7.951 2.077-8.633 6.162-3.389 20.293-4.172 39.624-2.385 58.785l-17.146-4.481c-31.726-8.292-56.352-34.431-62.738-66.594l-7.059-35.551c.883-.467 1.732-1.019 2.521-1.679 10.118-8.459 27.469-26.203 29.988-50.006.173-1.633.147-3.259-.058-4.852zm-94.985 6.556c.608-.837 1.987-2.273 4.386-2.495 0 0 20.371-1.867 20.562-1.867 1.651 0 3.232.658 4.409 1.85.737.748 1.937 2.357 1.684 4.741-1.895 17.905-15.331 32.057-23.797 39.318l-8.262-36.606c-.53-2.35.411-4.105 1.018-4.941z"/><path d="m87.298 257.752c-3.83-1.578-8.213.249-9.791 4.08-2.625 6.376-4.423 19.591 5.491 28.68 1.439 1.32 3.255 1.971 5.066 1.971 2.029 0 4.051-.818 5.531-2.432 2.799-3.053 2.593-7.797-.461-10.597-4.625-4.24-1.896-11.548-1.735-11.965 1.539-3.817-.288-8.167-4.101-9.737z"/><path d="m172.489 325.109c-2.625 6.376-4.423 19.591 5.491 28.68 1.439 1.32 3.255 1.971 5.066 1.971 2.029 0 4.051-.818 5.531-2.432 2.799-3.053 2.593-7.797-.461-10.597-4.624-4.239-1.898-11.543-1.735-11.964 1.538-3.817-.289-8.167-4.102-9.737-3.829-1.578-8.213.248-9.79 4.079z"/><path d="m372.186 173.362c-3.83-1.578-8.213.25-9.791 4.08-2.625 6.376-4.423 19.591 5.491 28.68 1.44 1.32 3.255 1.971 5.066 1.971 2.029 0 4.051-.818 5.531-2.432 2.799-3.053 2.593-7.797-.461-10.597-4.624-4.239-1.898-11.543-1.735-11.964 1.538-3.818-.289-8.168-4.101-9.738z"/><path d="m405.528 204.11c-3.831-1.578-8.214.249-9.791 4.08-2.625 6.375-4.423 19.591 5.491 28.679 1.439 1.32 3.255 1.971 5.066 1.971 2.029 0 4.051-.818 5.531-2.432 2.799-3.053 2.593-7.797-.461-10.597-4.624-4.238-1.898-11.542-1.735-11.964 1.538-3.817-.289-8.167-4.101-9.737z"/><path d="m346.092 324.464c-3.833-1.579-8.214.25-9.791 4.079-2.625 6.376-4.424 19.592 5.491 28.68 1.44 1.32 3.255 1.971 5.066 1.971 2.029 0 4.052-.818 5.531-2.432 2.799-3.053 2.592-7.798-.461-10.597-4.624-4.238-1.898-11.541-1.735-11.964 1.538-3.817-.289-8.167-4.101-9.737z"/><path d="m187.375 114.995c-3.83-1.577-8.214.249-9.791 4.08-2.625 6.376-4.423 19.591 5.491 28.68 1.44 1.32 3.255 1.971 5.066 1.971 2.029 0 4.051-.818 5.531-2.432 2.799-3.053 2.593-7.797-.461-10.597-4.624-4.239-1.898-11.543-1.735-11.964 1.539-3.818-.288-8.168-4.101-9.738z"/><path d="m223.205 142.614c-3.832-1.579-8.214.25-9.791 4.079-2.625 6.376-4.424 19.592 5.491 28.68 1.44 1.32 3.255 1.971 5.066 1.971 2.029 0 4.052-.818 5.531-2.432 2.799-3.053 2.592-7.798-.461-10.597-4.624-4.238-1.898-11.541-1.735-11.964 1.538-3.817-.289-8.167-4.101-9.737z"/><path d="m271.187 64.803c-3.83-1.578-8.214.249-9.791 4.08-2.625 6.376-4.423 19.591 5.491 28.68 1.44 1.32 3.255 1.971 5.066 1.971 2.029 0 4.051-.818 5.531-2.432 2.799-3.053 2.593-7.797-.461-10.597-4.661-4.273-1.854-11.661-1.757-11.911 1.577-3.831-.249-8.214-4.079-9.791z"/><path d="m194.177 310.807c1.44 1.32 3.255 1.971 5.066 1.971 2.029 0 4.052-.818 5.531-2.432 2.799-3.053 2.592-7.798-.461-10.597-4.624-4.238-1.899-11.542-1.735-11.964 1.538-3.817-.289-8.167-4.102-9.737-3.83-1.579-8.213.25-9.791 4.08-2.625 6.375-4.423 19.59 5.492 28.679z"/></g></g></svg>