<svg id="Capa_1" enable-background="new 0 0 510.734 510.734" height="512" viewBox="0 0 510.734 510.734" width="512" xmlns="http://www.w3.org/2000/svg"><g><path d="m467.08 494.855h-313.13v-90.3h218.42z" fill="#81635e"/><path d="m467.08 494.856-94.71-90.301h-218.42v90.3h34.91c1.97-8.43 3.52-18.26 3.94-29.13l11.61 4.2c2.59.94 5.46-.36 6.44-2.93 1.61-4.2 3.83-11.21 5.23-20.63 12.18 13.76 28 26.99 47.32 33.82 3.28 1.16 6.71-1.31 6.71-4.79v-24.52s6.23 16.64 49.73 43.98h7.67c.51-.54.92-1.21 1.16-1.99l4.21-13.67s13.33 5.34 28.86 15.66h47.25c.754-5.142 1.349-10.699 1.687-16.574l12.428 16.575z" fill="#6c524e"/><g><g><g><path d="m365.946 162.502 13.421-3.355c2.848-.712 4.493-3.684 3.586-6.476-4.426-13.621-19.281-49.877-54.058-58.479l13.697-7.503c2.353-1.289 3.274-4.176 2.143-6.609-3.84-8.265-17.53-25.279-65.845-31.491l5.481-9.156c1.329-2.22.771-5.079-1.293-6.639-13.955-10.549-66.202-45.372-110.693-13.28-51.863 37.41-22.227 59.637-22.227 59.637s-4.489 15.728 3.741 27.151c-1.81 5.798-3.869 15.603-1.98 26.536h23.752s-.286-4.486 1.49-9.694c16.741-36.73 100.26 24.675 110.749 90.598 0 0 19.065-11.114 22.769-25.006 0 0 30.948 33.48 80.48 11.553 3.359-1.487 4.106-5.924 1.383-8.389-5.603-5.071-14.934-14.404-26.596-29.398z" fill="#efe2dd"/></g><path d="m391.155 200.284c-49.527 21.934-80.48-11.549-80.48-11.549-3.705 13.887-22.764 25.001-22.764 25.001-2.318-14.576-8.209-28.929-16.155-42.047 52.473 20.325 64.285-7.126 64.285-7.126-24.941-18.645-16.145-54.578-16.145-54.578l-13.962 10.543c-2.895 2.186-7.073.7-7.957-2.819-7.605-30.281-25.037-46.168-25.037-46.168-1.998 3.941-4.771 6.847-7.412 8.927-3.112 2.45-7.655.483-8.134-3.448-4.424-36.365-57.537-61.404-71.352-65.269 40.984-17.552 84.488 11.559 97.04 21.044 2.065 1.559 2.622 4.413 1.286 6.64l-5.476 9.15c48.312 6.215 62.007 23.23 65.844 31.49 1.134 2.439.213 5.324-2.146 6.61l-13.695 7.511c34.779 8.594 49.628 44.851 54.062 58.475.901 2.794-.739 5.77-3.593 6.478l-13.412 3.35c11.661 15.001 20.993 24.333 26.591 29.404 2.721 2.459 1.972 6.903-1.388 8.381z" fill="#e0d3ce"/><path d="m173.749 164.562h-15.126c-6.232 0-11.284-5.052-11.284-11.284v-21.659c0-6.232 5.052-11.284 11.284-11.284h15.126c6.232 0 11.284 5.052 11.284 11.284v21.659c0 6.232-5.052 11.284-11.284 11.284z" fill="#fb4a59"/><g><path d="m402.654 383.648c-7.016-12.427-20.239-35.186-37.354-61.62h14.63c4.353 0 6.668-5.118 3.805-8.396-10.534-12.061-28.84-37.231-39.796-76.255l-2.35-9.311c-8.684-34.417-39.643-58.534-75.139-58.534h-70.793c-31.697 0-60.193 19.316-71.934 48.758l-6.129 15.371-47.248 5.304c-17.096 1.919-28.894 18.05-25.543 34.924l8.761 44.118c5.536 27.88 26.514 50.147 54.015 57.334l26.277 6.867 36.019.756c7.826 15.553 33.19 59.816 74.747 74.512 3.276 1.158 6.709-1.316 6.709-4.791v-24.522s6.364 16.972 51.039 44.798c2.819 1.756 6.544.369 7.521-2.805l4.207-13.671s38.705 15.502 61.048 44.726c2.514 3.288 7.667 2.426 8.887-1.53 5.94-19.266 16.01-64.822-2.236-112.266l15.271 3.641c4.3 1.022 7.758-3.56 5.586-7.408z" fill="#d7a69e"/><g fill="#ad8480"><path d="m281.584 261.329-6.417-2.409c12.491 33.777-4.838 72.028-12.045 85.602-1.488 2.804-5.162 3.583-7.662 1.62-37.391-29.455-33.676-80.328-33.676-80.328l-7.207 5.719c-2.531 2.014-6.286 1.194-7.723-1.711-25.376-51.055-61.137-11.084-85.511-32.714-1.346-1.194-2.581-2.389-3.705-3.563l6.083-15.254c11.549-28.959 39.314-48.12 70.378-48.748 0 0 0 .01.01 0 2.703.931 4.18 3.998 3.037 6.761l-2.763 6.741c30.649-4.717 52.422 3.482 63.374 9.333 3.674 1.964 3.543 7.288-.223 9.09l-3.705 1.771c26.54 11.408 33.038 38.99 34.617 52.756.436 3.786-3.299 6.671-6.862 5.334z"/><path d="m397.066 391.053-15.264-3.644c18.24 47.452 8.168 93.001 2.237 112.273-1.225 3.948-6.377 4.818-8.887 1.528-6.974-9.11-15.537-16.894-24.02-23.291 26.206-37.239-5.557-81.209-5.557-81.209l-2.142 4.525c-1.886 3.983-7.636 3.828-9.27-.264-11.306-28.313 1.641-54.368 8.133-64.77-2.684 2.248-6.367 3.431-9.5 4.054-3.143.625-6.085-1.801-6.035-5.005.721-46.806-31.916-87.486-31.916-87.486l-42.442-56.572v-21.661h14.049c35.498 0 66.451 24.111 75.136 58.536l2.348 9.302c10.962 39.03 29.263 64.204 39.8 76.259 2.865 3.28.547 8.401-3.806 8.401h-14.626c17.116 26.429 30.336 49.193 37.35 61.613 2.176 3.858-1.286 8.433-5.588 7.411z"/></g></g><g><path d="m78.41 403.09 6.953-5.768c2.825-2.344 7.127-1.002 8.106 2.536 5.143 18.592 21.571 66.931 60.18 99.69 2.583 2.192 6.548 1.337 7.926-1.758 4.157-9.336 11.479-29.172 12.448-54.78l11.607 4.202c2.59.938 5.457-.359 6.443-2.931 4.341-11.323 13.169-43.081-1.976-87.305l9.381 4.363c3.062 1.424 6.641-.487 7.138-3.828.467-3.135.935-7.285 1.144-12.214 1.491-35.206-22.152-66.195-56.13-75.531-5.557-1.527-10.854-3.733-15.12-6.899-2.868-2.129-6.927-.182-6.927 3.39v9.581s-17.895-16.234-11.987-42.179l-47.248 5.304c-17.096 1.919-28.894 18.05-25.543 34.924 0 0-9.596 91.251 26.713 128.814 1.845 1.909 4.848 2.085 6.892.389z" fill="#efe2dd"/><path d="m207.764 345.302c-.213 4.919-.678 9.069-1.144 12.207-.506 3.34-4.079 5.253-7.146 3.826l-9.373-4.363c15.143 44.223 6.316 75.986 1.974 87.312-.992 2.571-3.856 3.867-6.448 2.925l-11.6-4.201c-.972 25.609-8.3 45.448-12.45 54.78-1.377 3.097-5.344 3.948-7.926 1.761-17.197-14.596-29.992-32.269-39.354-49.031 50.458 15.223 49.6-27.157 49.6-27.157-1.911.441-4.171.598-6.396.602-3.911.006-6.251-4.268-4.295-7.655 10.017-17.346 10.061-53.51 10.061-54.074-3.005 4.474-8.118 6.791-12.608 7.992-3.752 1.003-7.158-2.397-6.21-6.164 5.823-23.135-5.829-56.639-5.829-56.639l-11.714 8.25c-1.77 1.247-4.145 1.232-5.897-.039-35.657-25.878-36.485-66.394-35.874-78.336l32.461-3.644c-5.911 25.953 11.984 42.178 11.984 42.178v-9.575c0-3.568 4.055-5.519 6.92-3.394 4.272 3.17 9.567 5.377 15.126 6.896 33.981 9.345 57.626 40.328 56.138 75.543z" fill="#e0d3ce"/></g><g><path d="m137.633 163.63c-9.471 7.915-25.236 26.982 0 49.371 24.376 21.627 60.136-18.346 85.513 32.716 1.44 2.897 5.194 3.721 7.727 1.709l7.201-5.721s-3.71 50.877 33.68 80.325c2.499 1.968 6.174 1.193 7.664-1.617 7.201-13.576 24.537-51.823 12.045-85.597l6.418 2.407c3.564 1.336 7.293-1.555 6.859-5.336-1.579-13.766-8.075-41.348-34.62-52.756l3.707-1.774c3.764-1.801 3.9-7.121.22-9.088-10.948-5.851-32.719-14.043-63.372-9.334l2.767-6.737c1.26-3.068-.693-6.516-3.976-6.982-13.428-1.907-45.587-3.518-71.833 18.414z" fill="#efe2dd"/><path d="m297.88 237.219-6.417-2.399c12.491 33.767-4.848 72.018-12.045 85.592-1.488 2.814-5.162 3.583-7.662 1.62-11.802-9.292-19.515-20.73-24.536-32.026 52.056-26.581 24.991-85.096 24.991-85.096.983 7.964-2.065 12.319-5.336 14.68-2.842 2.052-6.933.534-7.802-2.862-8.05-31.48-40.661-38.743-40.661-38.743.155 1.93-.062 4.288-.429 6.604-.635 4.001-5.453 5.617-8.452 2.892-27.089-24.609-76.966-18.153-77.854-17.938 1.984-2.358 4.089-4.353 5.952-5.911 26.246-21.934 58.404-20.325 71.836-18.412 3.29.466 5.243 3.907 3.978 6.974l-2.763 6.741c30.636-4.705 52.403 3.475 63.36 9.325 3.688 1.969 3.563 7.294-.209 9.097l-3.705 1.771c26.54 11.408 33.038 38.99 34.617 52.756.435 3.786-3.3 6.671-6.863 5.335z" fill="#e0d3ce"/></g></g><g><ellipse cx="174.043" cy="247.762" rx="10.772" ry="13.885"/></g><g><path d="m48.128 280.453c9.597 1.176 31.435-.285 33.079-37.409.135-3.041-2.474-5.493-5.507-5.223l-5.164.459c-15.215 1.352-26.879 14.099-26.879 29.374v7.772c-.001 2.568 1.921 4.714 4.471 5.027z" fill="#5b5555"/><path d="m51.39 288.185c6.214 0 15.413-1.416 22.734-7.611 8.722-7.381 13.594-19.537 14.511-36.117l20.289-2.278c-.906 23.897 14.86 38.523 15.621 39.213 2.198 1.994 5.364 2.504 8.077 1.303 2.713-1.202 4.462-3.89 4.462-6.857v-3.756c3.657 1.978 7.86 3.624 12.56 4.916 31.14 8.557 51.958 36.512 50.624 67.982-.118 2.781-.331 5.513-.637 8.157l-6.37-2.962c-2.726-1.267-5.945-.785-8.18 1.225-2.234 2.011-3.053 5.161-2.079 8.005 13.398 39.123 7.14 67.606 2.892 79.925l-9.318-3.374c-2.251-.815-4.757-.506-6.743.832s-3.214 3.543-3.305 5.937c-.824 21.776-6.451 39.116-10.498 48.957-12.746-11.338-24.094-25.568-33.763-42.344-2.069-3.59-6.656-4.821-10.243-2.753-3.589 2.068-4.821 6.654-2.753 10.243 11.154 19.352 24.452 35.649 39.525 48.438 2.3 1.951 5.229 2.999 8.197 2.999.927 0 1.859-.102 2.776-.312 3.882-.885 7.037-3.478 8.656-7.114 3.874-8.701 10.145-25.55 12.38-47.399l2.271.822c6.39 2.314 13.567-.96 15.999-7.298.793-2.07 1.715-4.742 2.624-7.975 12.682 11.961 26.237 20.539 40.422 25.556 3.816 1.349 8.074.755 11.388-1.587 3.333-2.356 5.322-6.197 5.322-10.275v-3.157c8.092 7.861 20.538 17.942 39.574 29.799 3.336 2.078 7.363 2.479 11.045 1.104 3.681-1.375 6.454-4.316 7.61-8.07l1.689-5.492c11.894 5.876 35.366 19.182 50.438 38.896 2.426 3.173 6.125 4.971 10.013 4.971.74 0 1.488-.065 2.234-.198 4.634-.828 8.375-4.141 9.765-8.647 3.486-11.305 9.007-33.794 8.388-61.016l62.314 59.411c1.452 1.385 3.314 2.072 5.174 2.072 1.979 0 3.956-.779 5.429-2.325 2.858-2.998 2.745-7.745-.253-10.604l-74.611-71.135c-1.02-6.686-2.468-13.528-4.453-20.454l2.142.511c4.863 1.158 9.945-.672 12.952-4.664 3.003-3.989 3.358-9.376.902-13.726-5.566-9.858-16.264-28.372-30.189-50.433h.935c4.99 0 9.372-2.821 11.435-7.362 2.065-4.545 1.306-9.706-1.98-13.468-7.688-8.803-18.87-23.921-28.478-45.95-1.656-3.797-6.076-5.534-9.873-3.876-3.797 1.656-5.532 6.076-3.876 9.873 9.041 20.731 19.448 35.878 27.523 45.784h-9.38c-2.748 0-5.276 1.503-6.589 3.917s-1.2 5.353.293 7.659c15.117 23.348 27.233 43.926 34.345 56.353l-9.812-2.339c-2.707-.646-5.55.262-7.383 2.356-1.833 2.095-2.355 5.033-1.356 7.631 16.243 42.236 8.755 83.381 3.375 102.886-23.537-28.125-59.695-42.833-61.286-43.47-1.946-.779-4.13-.709-6.021.195s-3.319 2.558-3.936 4.562l-3.271 10.632c-36.936-23.464-44.718-38.21-45.335-39.477-1.149-3.468-4.581-5.428-8.201-4.867-3.656.565-6.291 3.896-6.291 7.596v20.998c-13.526-5.452-26.503-14.851-38.644-27.97 1.61-13.583 1.462-31.18-3.641-51.865 2.067.034 4.131-.493 6.027-1.514 3.517-1.894 5.872-5.245 6.46-9.193.62-4.157 1.03-8.532 1.219-13.002 1.631-38.497-23.714-72.661-61.636-83.081-5.238-1.439-9.49-3.354-12.638-5.689-3.64-2.701-8.405-3.121-12.435-1.093-.811.408-1.558.899-2.236 1.46-2.14-5.648-3.163-13.353-1.27-21.974l5.652-14.172c.41-1.029.849-2.048 1.308-3.057 12.274 10.89 27.265 9.949 39.913 8.587 17.688-1.906 31.659-3.411 44.517 22.461 1.697 3.413 4.806 5.847 8.53 6.676 1.994.444 4.022.397 5.937-.104 1.591 18.45 8.529 50.489 36.216 72.295 2.246 1.769 4.984 2.703 7.785 2.703.87 0 1.746-.09 2.614-.273 3.667-.774 6.776-3.115 8.531-6.425 7.269-13.704 21.931-46.554 15.916-79.074 1.959-.361 3.837-1.195 5.478-2.476 3.48-2.718 5.258-6.959 4.755-11.345-1.283-11.183-6.363-35.859-26.288-51.258 23.729 6.803 42.231 25.624 48.413 50.126l2.225 8.815c.858 3.4 3.912 5.667 7.267 5.667.607 0 1.225-.075 1.841-.23 4.016-1.014 6.45-5.091 5.437-9.107l-2.225-8.814c-1.06-4.2-2.419-8.263-4.051-12.167 4.116.725 8.555 1.158 13.293 1.158 10.628 0 22.757-2.172 36.09-8.074 3.92-1.734 6.666-5.294 7.346-9.521.677-4.208-.806-8.428-3.966-11.288-4.269-3.863-10.578-10.108-18.408-19.41l2.02-.505c3.367-.842 6.262-3.064 7.943-6.099s2.03-6.669.958-9.972c-4.39-13.51-16.668-42.935-43.48-57.321 5.483-3.276 7.653-10.257 4.932-16.112-4.521-9.731-18.35-26.381-60.497-34.044 2.998-5.453 1.563-12.285-3.439-16.065-8.06-6.093-29.593-20.835-55.403-26.115-4.059-.832-8.021 1.786-8.851 5.845-.831 4.058 1.787 8.021 5.845 8.851 21.159 4.329 39.312 16.041 47.609 22.084l-4.346 7.261c-1.299 2.17-1.417 4.85-.313 7.126s3.282 3.842 5.791 4.165c41.663 5.356 54.931 18.924 58.921 25.252l-11.563 6.334c-2.71 1.484-4.233 4.48-3.834 7.545.399 3.064 2.636 5.571 5.637 6.313 29.012 7.176 42.729 36.375 47.888 51.04l-10.855 2.714c-2.46.615-4.443 2.432-5.27 4.829-.828 2.397-.388 5.05 1.169 7.052 10.189 13.1 18.701 22.058 24.685 27.754-17.877 7.08-34.935 7.201-50.774.393-12.991-16.994-32.187-28.713-54.233-32.174-.649-.538-1.356-1.018-2.12-1.426-1.46-.78-3.159-1.618-5.04-2.472-22.167-31.777-54.522-54.565-77.569-54.565-.153 0-.309.001-.461.003-8.066.108-14.734 2.959-19.535 8.277-.409-.027-.815-.062-1.23-.062h-13.832c.368-1.66.771-3.114 1.141-4.3.703-2.252.305-4.704-1.075-6.619-3.228-4.481-3.727-10.17-3.507-14.453 1.951.145 4.154.247 6.562.247 13.922 0 34.212-3.337 46.178-20.543 2.365-3.401 1.525-8.075-1.875-10.439-3.402-2.366-8.076-1.525-10.439 1.875-11.464 16.486-36.74 14.362-43.336 13.489-1.655-1.774-4.462-5.618-4.335-11.216.163-7.15 5.073-19.075 27.541-35.281 7.541-5.439 15.812-9.049 24.583-10.728 4.068-.779 6.735-4.708 5.956-8.776-.779-4.069-4.711-6.734-8.776-5.956-10.935 2.092-21.209 6.565-30.538 13.293-22.263 16.059-33.624 32.05-33.768 47.529-.085 9.157 3.945 16.344 7.78 20.734-.875 5.875-1.367 16.376 3.771 25.763-.873 3.425-1.695 7.779-1.991 12.68-2.466 3.179-3.95 7.156-3.95 11.481v20.993c-2.369 1.603-4.714 3.341-7.014 5.264-6.003 5.016-16.105 15.57-16.317 29.897-.09 6.079 1.588 12.019 5.005 17.77-1.794 3.214-3.391 6.549-4.754 9.968l-4.465 11.197-33.931 3.809c-1.088-.195-2.203-.265-3.326-.167l-5.165.459c-19.221 1.708-33.715 17.548-33.715 36.844v7.772c0 1.405.245 2.757.678 4.027-1.471 22.256-3.425 94.617 29.29 128.461 4.547 4.704 12.047 5.122 17.075.95l4.079-3.385c1.742 5.874 4.383 13.86 8.123 22.984 1.189 2.902 3.989 4.657 6.942 4.657.947 0 1.911-.181 2.842-.563 3.833-1.571 5.666-5.952 4.095-9.784-4.298-10.484-7.04-19.335-8.583-24.914-1.141-4.122-4.257-7.347-8.337-8.627-4.083-1.283-8.49-.416-11.787 2.319l-5.18 4.298c-20.058-22.674-25.592-68.746-24.004-107.661zm13.043-19.061c-4.164 3.524-9.215 4.243-13.277 4.062v-5.533c0-11.471 8.617-20.888 20.043-21.903l2.34-.208c-.887 11.153-4.014 19.273-9.106 23.582zm130.28-149.505c12.653-.204 33.753 11.472 52.576 31.977-7.626-1.277-16.295-1.911-25.954-1.335.002-2.167-.56-4.32-1.675-6.269-1.942-3.392-5.273-5.652-9.139-6.201-4.241-.603-10.511-1.203-17.988-1.051v-5.122c0-4.041-1.295-7.778-3.475-10.846 1.416-.663 3.243-1.121 5.655-1.153zm-39.874 11.999c0-2.086 1.698-3.784 3.784-3.784h15.126c2.086 0 3.784 1.697 3.784 3.784v6.439c-7.225 1.141-14.945 3.134-22.694 6.411zm-12.396 37.768c22.219-18.568 49.49-18.558 62.868-17.128l-1.572 3.828c-1.028 2.501-.629 5.363 1.044 7.488 1.672 2.125 4.36 3.185 7.032 2.775 25.061-3.849 43.655 1.575 54.36 6.404-2.238 1.384-3.606 3.859-3.553 6.53.06 2.942 1.834 5.577 4.537 6.739 20.56 8.836 27.358 29.161 29.581 42.764l-2.644-.991c-2.749-1.029-5.845-.363-7.925 1.708s-2.761 5.164-1.743 7.917c10.824 29.264-3.654 63.613-10.291 76.867-31.317-26.812-28.616-71.588-28.585-72.035.217-2.97-1.344-5.786-3.977-7.177-1.102-.583-2.305-.869-3.502-.869-1.662 0-3.312.552-4.667 1.628l-4.908 3.9c-17.343-32.452-39.944-30.02-58.193-28.053-12.639 1.362-20.739 1.883-27.696-4.29-7.462-6.62-11.198-13.146-11.106-19.396.126-8.343 6.908-15.241 10.94-18.609z"/></g></g></g></svg>