<svg id="Capa_1" enable-background="new 0 0 511.995 511.995" height="512" viewBox="0 0 511.995 511.995" width="512" xmlns="http://www.w3.org/2000/svg"><g><path d="m284.459 79.113 18.678-58.658c2.019-6.34-2.64-12.885-9.293-12.951-16.439-.164-44.195 4.698-57.557 36.591z" fill="#aa5e33"/><path d="m355.488 219.25 118.861 52.709v232.536h-231.85z" fill="#e09977"/><path d="m399.828 238.913.001.001-44.341-19.664-112.989 285.245h54.977c35.132-21.763 59.919-89.093 59.899-119.283l12.551 4.7c1.759.666 3.736.278 5.118-1.004 9.898-9.194 47.913-48.639 41.326-106.293-.569-4.978 6.193-7.197 8.517-2.758.02.039.04.077.059.115 23.459 47.493 22.63 170.386-54.552 224.527l103.955-.005v-232.535z" fill="#da875d"/><path d="m133.278 117.99s-11.513 22.016-52.726 28.191c-7.629 1.143-13.305 7.642-13.305 15.356v5.552c0 11.296 6.763 21.494 17.169 25.889l37.338 15.77h113.87v-90.758l-89.005-28.47z" fill="#ebbba5"/><path d="m235.623 117.989v90.757h-113.871l-37.334-15.77c-3.955-1.669-7.374-4.174-10.106-7.254 14.121 1.978 37.811 1.749 67.206-12.203 48.593-23.045 4.194-63.38 4.194-63.38l16.297-15.691z" fill="#e6ac8e"/><path d="m171.165 118.27c36.324 29.339 31.115 64.982 20.687 89.344h178.54c-11.027-16.223-21.941-38.331-24.254-64.346-3.841-43.217-10.501-76.048-51.38-99.88-32.844-19.148-176.23-19.208-186.794 51.861-1.395 9.382 15.98 33.247 15.98 33.247s28.493-25.352 47.221-10.226z" fill="#da875d"/><path d="m302.025 191.008c48.554-65.586-8.705-133.21-8.705-133.21l-.765-15.582c.785.378 1.52.775 2.206 1.173 40.872 23.83 47.54 56.662 51.376 99.88 2.315 26.016 13.227 48.116 24.257 64.344h-80.334c3.756-5.366 7.741-10.901 11.965-16.605z" fill="#d67f4f"/><g><path d="m402.562 246.078-18.019 2.401c14.38 64.572-28.565 109.211-39.174 119.073-1.377 1.28-3.356 1.665-5.117 1.005l-12.551-4.7c.048 99.162-85.203 140.638-85.203 140.638-118.278-10.207-158.444-69.243-158.444-69.243l-7.483 9.943c-1.817 2.414-5.349 2.656-7.492.526-62.398-62.017-12.682-170.602-12.682-170.602l-9.526 3.952c-3.627 1.505-7.52-1.602-6.801-5.463 7.812-41.968 63.283-65.27 100.031-76.252 18.982-5.673 36.726-14.888 52.139-27.336 2.908-2.349 5.748-4.559 8.2-6.431 3.529-2.695 6.992-1.317 7.892 3.031 2.095 10.115 9.649 19.988 15.52 26.409 2.661 2.91 7.413 1.716 8.468-2.083 4.237-15.267 18.883-31.013 18.9-31.031v.001c5.102 11.761 19.995 24.617 29.961 32.285 3.347 2.575 8.151.069 7.981-4.151-.654-16.204 6.725-25.425 12.034-29.924 2.441-2.069 6.165-1.311 7.603 1.547 3.14 6.242 9.149 17.027 16.785 25.182 2.254 2.408 6.202 1.944 7.882-.894l9.5-16.05c2.109-3.563 7.396-3.144 8.899.714 5.861 15.045 20.591 44.191 53.037 68.57 3.547 2.665 2.058 8.297-2.34 8.883z" fill="#ebbba5"/></g><path d="m402.56 246.08-18.016 2.395c14.379 64.573-28.57 109.211-39.173 119.079-1.381 1.282-3.359 1.66-5.118 1.004l-12.551-4.7c.05 99.164-85.202 140.642-85.202 140.642-43.674-3.776-76.696-14.2-100.983-25.857 129.334 33.578 171.955-147.917 171.955-147.917-4.526 1.156-9.29.166-13.339-1.405-4.218-1.637-4.222-7.625-.002-9.257 45.322-17.536 55.356-48.107 55.356-48.107-9.289 3.245-20.727-1.926-28.177-6.404-3.361-2.021-3.107-6.948.403-8.698 27.886-13.905 34.182-45.87 35.247-65.847 8.616 14.25 21.902 31.124 41.945 46.189 3.548 2.663 2.057 8.297-2.345 8.883z" fill="#e6ac8e"/><g><path d="m304.313 99.023 18.678-58.658c2.019-6.34-2.64-12.885-9.293-12.951-16.439-.164-44.195 4.698-57.557 36.591" fill="#da875d"/></g><g><ellipse cx="156.42" cy="146.629" rx="10.704" ry="13.798"/></g><path d="m100.262 141.444s-3.785 28.657-33.016 25.645v-9.573c0-7.57 5.942-13.799 13.503-14.171 8.06-.398 17.173-1.026 19.513-1.901z" fill="#5b5555"/><g><path d="m98.594 134.138c-.47.121-4.468 1.038-18.214 1.715-11.57.571-20.633 10.086-20.633 21.662l.025 10.909c.514 13.755 9.042 26.104 21.726 31.461l14.502 6.126c-30.391 14.455-57.401 35.573-63.23 65.837-.877 4.553.696 9.343 4.285 12.278 1.951 1.596 4.291 2.534 6.706 2.768-4.052 11.631-9.186 29.15-11.856 49.284-6.377 48.072 4.65 87.792 31.888 114.864 3.211 3.19 7.952 4.443 12.429 3.1 2.634-.79 4.894-2.51 6.547-4.707l1.594-2.118c6.743 7.258 19.029 18.582 38.31 29.829 1.188.693 2.488 1.023 3.772 1.023 2.834 0 5.585-1.608 6.864-4.459 1.582-3.528.05-7.691-3.287-9.643-28.098-16.438-39.667-32.89-39.766-33.032-1.361-2-3.603-3.221-6.021-3.278-2.444-.067-4.717 1.055-6.171 2.988l-5.713 7.592c-22.557-23.802-31.176-57.363-25.623-99.815 4.375-33.451 16.373-60.018 16.492-60.278 1.526-3.333.442-7.373-2.799-9.458-2.106-1.354-4.783-1.467-7.096-.508l-4.737 1.965c10.627-35.855 62.698-56.444 93.665-65.698 20.205-6.039 38.61-15.69 54.703-28.687 1.6-1.292 3.276-2.621 5.011-3.971 3.223 10.324 10.495 19.797 16.355 26.206 3.058 3.344 7.686 4.768 12.079 3.716 4.422-1.059 7.929-4.452 9.15-8.855 1.984-7.151 6.761-14.647 10.773-20.071 7.137 9.531 17.653 18.621 26.289 25.264 3.917 3.016 9.088 3.45 13.458 1.122 4.29-2.285 6.74-6.969 6.578-11.826-.345-10.407 3.23-17.136 7.044-21.321 3.858 7.264 9.479 16.448 16.421 23.862 2.648 2.826 6.355 4.233 10.213 3.872 4.097-.384 7.704-2.874 9.8-6.415l6.71-11.337c6.857 15.833 21.167 41.091 48.748 63.339l-11.823 1.576c-1.275.17-2.52.594-3.563 1.345-2.526 1.818-3.611 4.878-2.972 7.746 3.087 13.866 3.556 27.787 1.392 41.377-.65 4.091 2.138 7.935 6.229 8.586 4.092.648 7.935-2.138 8.586-6.228 2.043-12.838 2.027-25.915-.039-38.979l10.162-1.354c2.09-.278 4.011-1.068 5.642-2.242l62.115 27.545c.988.438 2.021.646 3.036.646 2.875 0 5.619-1.664 6.86-4.461 1.679-3.787-.029-8.217-3.816-9.896l-63.794-28.288c-.811-2.185-2.235-4.147-4.193-5.617-30.897-23.217-44.936-50.876-50.553-65.297-.846-1.834-1.896-4.396-2.382-6.355-1.401-5.644-2.363-11.325-2.863-16.943-2.753-30.97-7.036-60.735-28.403-84.478l4.801-15.077c1.679-5.272 1.001-11.096-2.149-15.645-3.253-4.697-8.41-7.433-14.085-7.49-.909-.009-1.865.001-2.846.025.665-4.471-.422-8.995-3.139-12.75-3.263-4.51-8.318-7.129-13.87-7.185-13.539-.141-38.435 3.005-55.334 25.103-9.311-.227-18.92.032-28.456.812-3.793.31-6.928 3.356-7.08 7.159-.183 4.597 3.677 8.167 8.112 7.807 17-1.404 34.718-1.035 49.845.929-4.454 5.127-8.457 11.408-11.705 19.107-1.482 3.514-.206 7.717 3.114 9.595 3.99 2.257 8.926.486 10.643-3.613 11.205-26.745 33.704-32.154 50.565-31.99 1.016.01 1.605.617 1.866.978.273.378.684 1.167.355 2.199l-18.585 58.368c-1.228 3.855.625 8.164 4.414 9.585.875.328 1.767.482 2.642.482 3.178 0 6.129-2.037 7.145-5.227l8.291-26.038c12.12 17.141 16.212 38.242 18.917 68.672.462 5.199 1.274 10.438 2.413 15.656-1.847 1.051-3.429 2.578-4.567 4.501l-7.731 13.061c-5.972-7.138-10.724-15.78-13.208-20.7-1.337-2.65-3.505-4.83-6.24-5.984-4.487-1.893-9.414-1.092-12.987 1.938-5.283 4.478-13.716 14.138-14.642 30.657-12.165-9.851-20.453-18.984-23.55-26.007-.687-1.558-1.82-2.906-3.319-3.715-3.139-1.695-6.842-.975-9.115 1.475-.595.641-13.466 14.624-19.22 29.846-5.847-7.039-9.648-13.882-10.825-19.562-.969-4.68-3.786-8.208-7.728-9.679-1.048-.391-2.132-.607-3.228-.677-4.145-15.954-13.815-30.169-28.844-42.307-17.277-13.955-39.319-2.27-50.225 5.293-5.976-9.238-10.518-18.495-10.271-21.376 4.618-31.067 38.467-44.917 66.175-51.069 3.996-.887 6.794-4.733 6.043-8.757-.782-4.185-4.861-6.86-8.989-5.954-45.747 10.084-73.471 32.663-78.065 63.574-1.328 8.929 6.8 23.201 13.076 32.643-4.211 2.728-9.74 5.41-15.026 7.349zm195.174-119.135c1.017.01 1.606.617 1.867.978.274.378.684 1.167.355 2.197l-1.197 3.756c-6.041 1.394-12.408 3.659-18.573 7.254-5.632-1.201-11.726-2.151-18.148-2.836 11.386-9.332 25.163-11.465 35.696-11.349zm-219.022 142.512c0-3.57 2.799-6.504 6.372-6.681 3.066-.151 5.681-.305 7.916-.458-.244.393-.503.786-.778 1.175-3.307 4.686-7.759 7.355-13.51 8.067zm53.333-22.776c.238-.211 25.05-21.396 38.374-10.635 13.406 10.828 21.612 23.408 24.441 37.4-1.149.905-2.277 1.802-3.366 2.681-14.568 11.766-31.247 20.508-49.573 25.985-7.379 2.205-15.049 4.751-22.738 7.674l-27.883-11.776c-5.19-2.192-9.168-6.411-11.163-11.506 18.816-2.073 27.666-16.611 30.596-27.539 7.82-3.091 15.435-7.617 21.312-12.284z"/><path d="m380.314 315.278c-3.797-1.658-8.218.077-9.874 3.874-9.253 21.2-22.646 35.689-29.035 41.828l-11.073-4.146c-2.304-.862-4.883-.54-6.905.861-2.021 1.402-3.226 3.707-3.225 6.166.019 38.96-13.498 73.266-40.175 101.964-16.717 17.984-33.685 28.054-39.064 31.004-31-2.86-59.247-9.43-83.988-19.536-3.833-1.568-8.213.272-9.779 4.107-1.566 3.834.272 8.212 4.107 9.779 26.721 10.916 57.188 17.91 90.552 20.79.215.019.43.028.645.028 1.134 0 2.256-.257 3.281-.756.921-.448 22.812-11.246 44.814-34.752 18.981-20.28 41.357-53.982 44.286-101.933l2.741 1.026c4.451 1.667 9.377.697 12.854-2.535 6.48-6.024 22.738-22.75 33.712-47.893 1.656-3.799-.078-8.219-3.874-9.876z"/><path d="m109.079 309.927c-4.069-.797-8.005 1.858-8.798 5.924-.169.866-4.046 21.518 4.148 48.403 7.482 24.55 26.881 59.3 76.805 85.433 1.11.582 2.299.857 3.472.857 2.702 0 5.312-1.464 6.651-4.023 1.921-3.67.503-8.202-3.167-10.123-36.095-18.894-59.373-44.391-69.187-75.785-7.336-23.465-4.03-41.73-3.996-41.912.779-4.057-1.871-7.982-5.928-8.774z"/></g></g></svg>