<svg id="Capa_1" enable-background="new 0 0 512.003 512.003" height="512" viewBox="0 0 512.003 512.003" width="512" xmlns="http://www.w3.org/2000/svg"><g><g><path d="m246.635 226.94s5.933-123.171 72.169-181.7c5.016-4.433 12.93-2.174 14.901 4.224 4.614 14.979 10.429 41.421 5.102 68.23-8.107 40.794 39.584 84.523 2.936 111.471z" fill="#fb7722"/><path d="m341.741 229.161-95.11-2.22s.94-19.43 6.22-46.52c55.56-34.81 55.84-92.19 51.9-120.83 4.35-5.1 9.03-9.91 14.05-14.35 5.02-4.43 12.93-2.18 14.9 4.22 4.62 14.98 10.43 41.42 5.1 68.23-8.1 40.8 39.59 84.52 2.94 111.47z" fill="#f2671f"/><path d="m212.505 469.068-5.302-23.445c-6.802-30.079-28.593-54.548-57.686-64.776l-59.37-16.648c-34.353-9.633-60.749-37.187-68.9-71.921l-9.258-39.455c-1.952-8.32 4.032-16.402 12.559-16.963l163.316-8.597-3.006-19.21c-2.174-13.898 7.377-26.911 21.288-29.002l144.209-21.683s30.899-16.887 92.726 34.027c49.389 40.671 61.42 112.236 61.42 112.236v165.437z" fill="#fb8627"/><path d="m504.501 303.631v165.44h-103.34c36.66-16.59 61.01-41.4 64.65-77.49 14.54-143.8-72.16-213.41-108.95-236.19 12.04-2.21 40.77-1.42 86.22 36 49.39 40.67 61.42 112.24 61.42 112.24z" fill="#fb7722"/><path d="m504.501 303.631v165.44h-292l-5.3-23.45c-1.12-4.97-2.66-9.79-4.57-14.42h133.68s158.49-15.12 155.6-169.43c9.5 23.45 12.59 41.86 12.59 41.86z" fill="#fef0dc"/><path d="m504.501 303.631v165.44h-103.34c36.66-16.59 61.01-41.4 64.65-77.49 1.27-12.57 1.77-24.57 1.59-36.02 15.25-23.42 25.26-53.97 24.51-93.79 9.5 23.45 12.59 41.86 12.59 41.86z" fill="#fcddb3"/><path d="m190.99 410.972c-10.426-13.659-24.749-24.242-41.475-30.128l-59.371-16.644c-34.346-9.634-60.743-37.192-68.895-71.925l-9.257-39.449c-1.953-8.326 4.025-16.404 12.554-16.966l163.312-8.593-13.752 21.89c-5.504 8.761-3.256 20.261 5.108 26.351 25.145 18.308 66.488 62.985 11.776 135.464z" fill="#fef0dc"/><path d="m190.991 410.971c-10.43-13.66-24.75-24.24-41.48-30.13l-22.57-6.33c41.03-.64 70.06-24.21 38.31-62.64-36.68-44.4-21.11-74.32-15.33-82.6l37.94-2-13.75 21.89c-5.51 8.76-3.26 20.26 5.1 26.35 25.15 18.31 66.49 62.98 11.78 135.46z" fill="#fcddb3"/><path d="m295.861 226.94s5.933-123.171 72.169-181.7c5.016-4.433 12.93-2.174 14.901 4.224 4.614 14.979 10.429 41.421 5.102 68.23-8.107 40.794 39.584 84.523 2.936 111.471z" fill="#fb8627"/><path d="m17.494 232.769c-5.309.735-9.368 5.067-9.804 10.409-.667 8.167.092 20.655 7.825 32.78 13.055 20.473 69.505-7.535 62.904-41.979-1.624-8.471-42.959-3.697-60.925-1.21z" fill="#5b5555"/><path d="m15.511 275.961c-2.18-3.41-3.8-6.86-4.99-10.22 40.16-.78 47.99-21.98 48.6-36.58 10.46-.03 18.59 1.16 19.3 4.82 6.6 34.44-49.85 62.45-62.91 41.98z" fill="#494646"/><path d="m28.503 290.368c.667.038 1.341.063 2.027.063 5.602 0 11.833-1.276 18.382-3.881 19.485-7.749 37.249-25.609 37.527-46.438l29.294-1.542c4.136-.218 7.313-3.748 7.095-7.884-.217-4.137-3.728-7.302-7.884-7.096l-34.276 1.804c-5.969-3.663-16.196-3.996-26.844-3.625-12.776.445-27.367 2.187-37.357 3.57 0 0 0 0-.001 0-8.84 1.225-15.522 8.309-16.25 17.228-.771 9.442.16 23.599 8.977 37.423.638 1.001 1.352 1.923 2.122 2.782l2.632 11.217c8.773 37.39 37.196 67.06 74.176 77.43l59.132 16.581c26.711 9.476 46.38 31.619 52.634 59.276l5.303 23.444c.788 3.483 3.882 5.848 7.309 5.847.548 0 1.104-.061 1.661-.186 4.04-.914 6.575-4.93 5.661-8.97l-5.303-23.444c-.402-1.777-.859-3.531-1.354-5.268h123.147c.238 0 .476-.011.712-.034 1.679-.16 41.571-4.192 81.721-27.702 31.147-18.237 67.086-51.409 77.641-109.678.475 2.2.702 3.479.72 3.588.616 3.664 3.791 6.256 7.387 6.256.413 0 .832-.034 1.253-.105 4.085-.687 6.839-4.556 6.152-8.641-.27-1.601-6.863-39.648-29.785-76.729-2.179-3.524-6.801-4.614-10.323-2.436-3.523 2.178-4.614 6.8-2.437 10.323 6.234 10.085 11.182 20.335 15.076 29.809.727 60.275-23.77 105.5-72.83 134.414-35.524 20.937-71.945 25.512-75.687 25.935h-128.369c-2.1-4.447-4.528-8.701-7.25-12.739 19.908-27.929 28.076-54.737 24.27-79.73-4.528-29.73-24.76-50.009-40.935-61.786-5.159-3.757-6.553-10.916-3.172-16.298l13.448-21.457c1.176-1.605 1.678-3.611 1.369-5.587l-3.006-19.209c-.741-4.734.413-9.469 3.248-13.332 2.836-3.862 7.007-6.382 11.745-7.094l88.62-13.325c-6.299 29.947-7.449 52.142-7.512 53.435-.199 4.136 2.991 7.65 7.127 7.851.124.006.247.009.37.009 3.974 0 7.289-3.123 7.485-7.135.021-.428 2.268-43.306 17.432-89.402 1.295-3.935-.846-8.174-4.78-9.468-3.936-1.293-8.174.847-9.468 4.781-2.721 8.272-5.042 16.406-7.018 24.214l-35.071 5.273c9.101-36.69 26.511-82.846 59.323-111.841.567-.501 1.168-.47 1.571-.356.418.117.964.415 1.195 1.168 2.576 8.362 4.458 16.868 5.608 25.296-5.145 8.289-9.917 17.275-14.283 26.952-1.704 3.776-.024 8.217 3.752 9.921 3.772 1.702 8.218.025 9.92-3.752 11.248-24.929 25.198-44.857 41.464-59.23.566-.5 1.167-.47 1.57-.356.417.118.964.416 1.195 1.168 4.027 13.077 10.021 38.854 4.913 64.56-3.734 18.794 2.948 37.711 8.845 54.402 9.006 25.493 13.308 40.5-2.995 52.488-3.337 2.454-4.053 7.148-1.599 10.485 1.47 2 3.743 3.058 6.048 3.058 1.543 0 3.1-.474 4.438-1.458 22.522-16.561 18.51-38.811 11.618-59.799 9.992 5.583 20.463 12.868 31.283 21.777 4.688 3.86 9.254 8.229 13.572 12.982 1.48 1.629 3.514 2.457 5.554 2.457 1.8 0 3.604-.644 5.041-1.949 3.066-2.785 3.294-7.528.509-10.594-4.804-5.287-9.897-10.157-15.141-14.476-16.654-13.715-32.712-23.906-47.752-30.328-4.028-12.274-6.995-24.616-4.708-36.122 5.463-27.492.139-54.273-5.29-71.899-1.683-5.462-5.971-9.646-11.472-11.193-5.479-1.541-11.301-.212-15.563 3.557-6.664 5.888-12.957 12.591-18.859 20.074-.959-4.165-2.065-8.319-3.334-12.438-1.683-5.461-5.971-9.646-11.47-11.192-5.482-1.541-11.301-.212-15.564 3.556-37.513 33.148-56.218 85.815-65.396 125.488l-43.411 6.527c-8.717 1.31-16.391 5.945-21.606 13.051-5.216 7.106-7.339 15.816-5.977 24.527l1.721 10.998-33.617 1.77c-4.136.218-7.313 3.748-7.095 7.884.21 4.002 3.521 7.106 7.482 7.106.133 0 .267-.003.401-.01l27.482-1.447-6.066 9.656c-7.56 12.034-4.465 28.024 7.044 36.403 13.867 10.097 31.185 27.301 34.935 51.918 3.046 20.002-3.418 41.923-19.21 65.247-10.45-11.082-23.554-19.704-38.521-24.966-.152-.053-.307-.102-.462-.146l-59.37-16.648c-31.716-8.894-56.14-34.537-63.666-66.608zm-13.337-46.58c.151-1.86 1.531-3.336 3.356-3.589 32.775-4.538 48.026-3.859 52.838-2.6 1.32 15.005-13.04 29.067-27.991 35.013-9.906 3.94-18.761 3.659-21.531-.686-6.572-10.307-7.256-20.99-6.672-28.138z"/></g><ellipse cx="217.97" cy="229.164" rx="10.586" ry="13.645"/></g></svg>