<svg id="Capa_1" enable-background="new 0 0 511.997 511.997" height="512" viewBox="0 0 511.997 511.997" width="512" xmlns="http://www.w3.org/2000/svg"><g><g><g><path d="m504.495 423.53-78.643-311.669c-11.9-47.161-54.321-80.207-102.96-80.207h-97.005c-43.433 0-82.481 26.467-98.568 66.811l-8.399 21.063-73.009 8.196c-18.978 2.13-32.075 20.036-28.355 38.768l19.222 96.8c3.956 19.922 21.437 34.274 41.749 34.274h62.676v125.964z" fill="#d46a50"/><path d="m322.895 31.655 19.23 1.75c40.27 7.4 73.43 37.64 83.73 78.46l78.64 311.67h-192.09c121.22-98.02 100.486-342.065 10.49-391.88z" fill="#c2583f"/><path d="m194.772 259.513v83.994h-53.567v-45.945h-62.678c-20.309 0-37.788-14.354-41.751-34.275l-19.219-96.796c-3.722-18.737 9.373-36.634 28.351-38.773l73.017-8.189c0 .001-30.427 100.98 75.847 139.984z" fill="#f3eae6"/><path d="m194.775 259.513v83.99h-53.57v-45.94h-35.2c4.02-21.65 4.97-53.78-12.35-86.19-17.4-32.56-14.89-65.61-9.56-87.93l34.83-3.91s-30.43 100.98 75.85 139.98z" fill="#e0d3ce"/><path d="m280.928 390.605c-10.975 10.975-21.95 21.95-32.925 32.925h256.492l-26.023-103.131c-11.306-44.808-67.133-60.205-99.81-27.528z" fill="#756f6f"/><path d="m504.495 423.535h-101.67c58.31-39.57 19.45-146.7 18.93-148.13 25.28.53 49.67 17.04 56.72 44.99z" fill="#5b5555"/><g><path d="m7.863 141.865 9.239 40.935c1.214 5.377 7.688 7.603 11.917 4.068 10.784-9.016 27.277-26.259 29.672-48.882.973-9.196-6.865-16.934-16.074-16.086l-21.694 1.997c-8.886.819-15.025 9.265-13.06 17.968z" fill="#756f6f"/><path d="m58.685 137.983c-2.39 22.63-18.88 39.87-29.67 48.89-4.23 3.53-10.7 1.3-11.91-4.07l-2.95-13.07c9.5-9.73 19.61-23.91 21.45-41.25.22-2.06-.01-4.05-.59-5.88l7.6-.7c9.21-.85 17.05 6.89 16.07 16.08z" fill="#5b5555"/></g></g></g><g><path d="m217.825 111.042-114.948 257.592c-15.787 35.377-6.922 76.899 21.934 102.745 9.371 8.394 22.511 11.145 34.463 7.217l51.887-17.055c18.03-5.926 37.043-8.285 55.975-6.943l12.4.879c35.522 2.518 68.365-18.956 80.305-52.506l32.663-91.779c16.262-45.694 18.463-95.212 6.319-142.168l-11.292-43.663c-4.167-16.113-18.161-27.763-34.762-28.939l-36.397-2.58-77.438 2.931c-9.181.348-17.365 5.881-21.109 14.269z" fill="#a64b35"/><path d="m392.505 311.195-32.67 91.78c-11.94 33.55-44.78 55.02-80.3 52.5l-12.4-.88c-18.93-1.34-37.94 1.02-55.97 6.95l-51.89 17.05c-3.6 1.18-7.31 1.76-10.98 1.76-8.54 0-16.93-3.11-23.48-8.98-6.62-5.93-12.19-12.69-16.65-20.01 29.37-17.42 71.83-37.43 133.84-58.41 161.67-54.71 118.45-240.8 101.15-297.21l9.61.68c16.6 1.17 30.6 12.82 34.76 28.94l11.3 43.66c12.14 46.96 9.94 96.47-6.32 142.17z" fill="#8b3d2a"/><g><path d="m511.767 421.695-14.626-57.965c-1.014-4.017-5.091-6.451-9.107-5.437-4.016 1.013-6.451 5.091-5.437 9.107l14.626 57.965c.858 3.4 3.912 5.667 7.267 5.667.607 0 1.225-.075 1.84-.23 4.016-1.013 6.451-5.091 5.437-9.107z"/><path d="m471.2 322.234 3.101 12.288c.858 3.4 3.912 5.667 7.267 5.667.607 0 1.225-.075 1.84-.23 4.016-1.013 6.451-5.091 5.437-9.107l-55.72-220.826c-12.758-50.561-58.087-85.873-110.232-85.873h-97.005c-22.816 0-44.86 6.767-63.747 19.568-18.887 12.802-33.337 30.771-41.788 51.965l-6.735 16.889-56.146 6.303c-4.421-3.356-9.93-4.966-15.544-4.446l-21.694 1.997c-6.384.587-12.208 3.899-15.978 9.085s-5.122 11.748-3.71 18.002l9.239 40.935c.777 3.443 2.692 6.401 5.375 8.481l14.261 71.819c4.635 23.346 25.275 40.299 49.077 40.313h.004c4.14 0 7.498-3.355 7.5-7.496.002-4.143-3.354-7.502-7.496-7.504-16.67-.009-31.125-11.883-34.372-28.234l-13.352-67.24c1.074-.524 2.1-1.175 3.047-1.967 10.907-9.118 29.609-28.239 32.32-53.847.206-1.943.145-3.876-.155-5.76l43.39-4.871c-3.816 22.677-6.975 77.649 41.007 115.61l-20.666 46.311h-17.057c-4.142 0-7.5 3.358-7.5 7.5s3.358 7.5 7.5 7.5h10.363l-27.003 60.513c-17.179 38.498-7.624 83.261 23.779 111.388 7.931 7.103 18.153 10.878 28.53 10.877 4.454 0 8.938-.696 13.278-2.123l51.887-17.055c17.188-5.649 35.055-7.867 53.103-6.586l12.399.878c2.045.145 4.077.216 6.104.216 36.377-.002 69.464-23.036 81.796-57.688l32.663-91.779c3.409-9.58 6.223-19.353 8.438-29.264 13.012-3.25 27.09-1.287 38.906 5.504 12.176 7 20.802 18.466 24.289 32.287zm-419.968-185.036c-2.141 20.224-17.654 36.047-26.854 43.775l-9.199-40.758c-.468-2.073-.037-4.161 1.212-5.88 1.25-1.719 3.103-2.773 5.219-2.968l21.694-1.997c.228-.021.455-.031.681-.031 1.962 0 3.841.782 5.239 2.199.879.89 2.309 2.811 2.008 5.66zm74.367-13.577 8.687-22.379c15.04-37.717 50.996-62.089 91.602-62.089h97.005c45.265 0 84.613 30.653 95.688 74.542l42.262 167.488c-2.057-1.522-4.203-2.947-6.455-4.241-13.176-7.574-28.567-10.461-43.368-8.349 1.109-7.075 1.917-14.202 2.417-21.365.288-4.132-2.828-7.716-6.959-8.004-4.132-.281-7.715 2.827-8.004 6.959-1.49 21.35-5.876 42.376-13.036 62.493l-32.663 91.779c-10.769 30.261-40.667 49.815-72.708 47.539l-12.399-.878c-20.002-1.417-39.799 1.039-58.846 7.299l-51.887 17.055c-9.375 3.081-19.766.906-27.117-5.678-26.529-23.762-34.603-61.579-20.089-94.103l114.948-257.592c2.598-5.822 8.17-9.589 14.542-9.831 4.139-.157 7.368-3.639 7.211-7.778-.157-4.14-3.657-7.382-7.778-7.211-12.125.459-22.728 7.627-27.672 18.708l-54.246 121.561c-44.855-38.264-33.904-94.624-31.135-105.925z"/><path d="m406.083 167.146-11.292-43.663c-4.98-19.255-21.655-33.137-41.493-34.542l-36.397-2.58c-4.137-.289-7.718 2.819-8.012 6.951-.292 4.132 2.819 7.719 6.951 8.012l36.397 2.58c13.402.949 24.667 10.327 28.031 23.335l11.292 43.663c3.558 13.757 5.876 27.946 6.89 42.172.282 3.951 3.574 6.967 7.473 6.967.179 0 .36-.006.541-.02 4.132-.294 7.242-3.883 6.948-8.014-1.078-15.131-3.545-30.224-7.329-44.861z"/></g></g><ellipse cx="156.577" cy="116.146" rx="10.586" ry="13.645"/></g></svg>