<svg id="Capa_1" enable-background="new 0 0 512.002 512.002" height="512" viewBox="0 0 512.002 512.002" width="512" xmlns="http://www.w3.org/2000/svg"><g><g><path d="m319.874 413.965-10-54.111-127.751 1.529v52.582s-13.958 30.91-30.362 70.535l203.669 12.992c-23.275-57.685-35.556-83.527-35.556-83.527z" fill="#ffead9"/><path d="m368.413 504.5c-19.654-48.713-38.539-90.535-38.539-90.535v-54.35l-20 .239v50.799c0 2.156.463 4.286 1.362 6.246 2.735 5.961 9.559 21.148 20.193 46.859 4.085 9.876-3.17 20.742-13.858 20.742h-165.81c-2.677 6.467-5.42 13.166-8.177 20z" fill="#eebfb6"/><path d="m424.949 193.338c26.603-57.197 23.614-162.616.393-185.838-44.393 0-144.221 114.899-144.221 114.899l20.637 15.86z" fill="#eebfb6"/><path d="m425.341 7.5c8.182 33.299 9.261 83.398 2.428 123.89-2.052 12.158-17.119 16.868-25.605 7.923-24.471-25.792-54.554-39.862-77.842-23.47-7.236 5.093-14.911 13.01-22.564 22.415l115.789 88.986c49.757-36.176 50.107-219.744 7.794-219.744z" fill="#eaa598"/><path d="m86.655 7.5c-35.104 0-40.843 126.341-13.368 190.051l136.952-59.293 20.637-15.86c0 .001-99.828-114.898-144.221-114.898z" fill="#eebfb6"/><path d="m187.675 115.843c-38.01-26.755-94.127 27.643-114.388 81.708 5.643 13.084 12.685 23.53 21.163 29.694l115.789-88.987c-7.653-9.404-15.328-17.322-22.564-22.415z" fill="#eaa598"/><path d="m375.348 310.894c22.199-21.588 32.199-54.315 32.199-83.649 0-19.743-13.135-51.193-27.432-69.013-16.993-19.191-37.368-35.886-55.793-42.389-22.272-7.86-36.328-12.396-68.323-12.396s-46.051 4.536-68.323 12.396c-41.628 14.691-93.225 81.402-93.225 111.402 0 32.714 4.31 57.033 30.695 83.649z" fill="#a2abb8"/><path d="m417.546 227.245c0-16.721-16.033-44.846-37.432-69.013 10.841 18.457 17.432 39.27 17.432 59.013 0 31.319-6.152 56.906-28.733 79.572 0 10.119 6.534 14.747 19.11 14.747 25.434-26.342 29.623-53.216 29.623-84.319z" fill="#7e8b96"/><path d="m255.998 179.582c-31.317 0-79.059 98.158-130.853 131.312.005.005.009.01.014.015 16.604 11.198 37.694 20.785 51.703 20.785h158.272c16.337-9.291 35.85-32.908 33.684-34.881-44.732-40.745-85.175-117.231-112.82-117.231z" fill="#ffead9"/><path d="m368.814 296.817c-8.634 8.667-19.665 16.907-33.679 24.877 0 0-72.482 0-158.272 0-25.091 0-41.709-4.647-51.703-10.785 10.759 10.85 25.18 22.082 44.484 34.421h172.711c19.958-11.35 34.702-22.51 45.57-33.766-6.44-4.005-12.819-9.015-19.111-14.747z" fill="#eebfb6"/><path d="m311.219 348.585c0 30.498-24.723 55.221-55.221 55.221s-55.221-24.723-55.221-55.221z" fill="#eebfb6"/><path d="m335.134 321.694c4.558 6.747 7.22 14.881 7.22 23.636 0 23.347-18.927 42.274-42.274 42.274-27.431 0-44.081-22.019-44.081-22.019s-16.65 22.019-44.081 22.019c-23.347 0-42.274-18.927-42.274-42.274 0-8.755 2.662-16.889 7.22-23.636z" fill="#ffead9"/><path d="m182.361 225.55c-20.886-12.059-45.568-8.411-55.128 8.148-5.545 9.604-4.774 21.439.917 32.042 19.683 19.682 55.221 18.078 64.719 1.627 5.545-9.605 4.776-28.633-10.508-41.817z" fill="#ddfdea"/><path d="m182.361 225.55s8.72 17.593.508 31.816c-9.498 16.451-33.92 20.151-54.719 8.373 4.122 7.677 10.818 14.71 19.591 19.774 20.886 12.059 45.568 8.411 55.128-8.148 9.56-16.558.378-39.757-20.508-51.815z" fill="#beeedd"/><path d="m384.764 233.697s6.176 20.076-33.208 42.814c-27.293 15.758-42.429.854-42.429.854-9.56-16.559-.378-39.758 20.508-51.816s45.569-8.41 55.129 8.148z" fill="#ddfdea"/><path d="m384.764 233.697s-5.851 14.539-37.508 32.816c-21.939 12.666-38.128 10.852-38.128 10.852 9.56 16.559 34.242 20.207 55.128 8.148s30.068-35.257 20.508-51.816z" fill="#beeedd"/></g><g><path d="m443.067 8.427c-6.423-6.965-13.185-8.427-17.726-8.427-16.777 0-40.093 12.829-71.28 39.221-23.309 19.724-46.017 42.866-61.622 59.565-10.035-1.856-21.316-2.839-36.441-2.839s-26.406.983-36.441 2.839c-15.604-16.698-38.312-39.84-61.622-59.565-31.187-26.392-54.503-39.221-71.28-39.221-8.956 0-21.382 5.381-29.716 31.017-8.604 26.467-10.859 69.366-5.744 109.288 7.273 56.757 24.413 80.694 35.778 90.56.238 22.49 2.855 41.572 13.55 60.416 11.18 19.698 30.319 37.758 61.81 58.259.923 10.957 5.405 20.911 12.29 28.703v34.115c-1.602 3.574-5.981 13.393-11.862 26.967-1.646 3.801.1 8.217 3.9 9.863.971.421 1.982.62 2.978.62 2.899 0 5.66-1.691 6.886-4.521 7.391-17.058 12.385-28.126 12.434-28.236.438-.97.665-2.022.665-3.086v-24.153c6.712 3.378 14.282 5.292 22.294 5.292.664 0 1.321-.011 1.973-.033 11.557 10.492 26.391 16.235 42.108 16.235s30.552-5.743 42.108-16.235c.652.022 1.31.033 1.973.033 8.012 0 15.582-1.914 22.294-5.292v24.153c0 1.064.227 2.117.665 3.086.188.417 19.052 42.254 38.419 90.255 1.179 2.922 3.989 4.696 6.958 4.696.934 0 1.884-.176 2.804-.547 3.841-1.55 5.699-5.92 4.149-9.761-17.433-43.208-34.464-81.456-37.994-89.336v-34.115c6.835-7.736 11.304-17.601 12.271-28.463 30.621-17.922 50.345-36.253 61.893-57.478 11.189-20.565 13.286-41.595 13.49-61.44 18.718-16.076 28.185-47.806 32.863-72.238.779-4.068-1.888-7.998-5.956-8.776-4.07-.782-7.998 1.888-8.776 5.956-4.721 24.659-11.967 43.939-20.887 56.003-4.696-14.681-15.159-32.595-29.908-50.734-21.138-25.998-45.029-45.061-65.546-52.301-6.328-2.233-12.025-4.2-17.632-5.882 52.428-55.211 95.494-87.89 116.154-87.89.837 0 3.383 0 6.699 3.595 12.752 13.828 19.236 58.021 15.418 105.082-.335 4.128 2.741 7.747 6.869 8.082.207.017.411.025.615.025 3.867 0 7.149-2.972 7.467-6.894 3.544-43.686-1.062-96.64-19.342-116.463zm-187.069 387.879c-7.847 0-15.402-1.888-22.155-5.437 9.867-3.912 17.383-9.781 22.155-14.289 4.773 4.508 12.288 10.377 22.155 14.289-6.753 3.549-14.308 5.437-22.155 5.437zm124.727-225.771c17.538 21.57 29.321 44.359 29.321 56.71 0 18.913-1.416 39.015-11.684 57.888-3.121 5.736-6.975 11.26-11.62 16.64-4.745-3.381-9.632-7.434-14.777-12.255 9.616-6.542 16.97-15.447 20.935-25.465 4.733-11.96 4.15-24.073-1.642-34.106-11.613-20.114-40.939-25-65.374-10.893-11.561 6.675-20.402 16.603-24.895 27.956-4.734 11.96-4.151 24.073 1.642 34.105 5.792 10.032 15.991 16.594 28.715 18.475 2.435.36 4.908.538 7.399.538 6.348 0 12.816-1.161 19.08-3.403 6.367 6.261 12.408 11.498 18.294 15.859-7.699 6.959-16.91 13.736-27.797 20.482-1.399-5.523-3.741-10.783-6.976-15.571-2.318-3.432-6.979-4.334-10.413-2.016-3.432 2.319-4.335 6.981-2.016 10.413 3.882 5.747 5.935 12.468 5.935 19.438 0 19.174-15.6 34.774-34.774 34.774-18.938 0-32.254-12.571-36.582-17.286v-21.118c3.041-.665 6.834-1.784 11.114-3.683 3.786-1.68 5.493-6.112 3.813-9.898-1.681-3.786-6.11-5.49-9.898-3.813-7.322 3.25-12.495 3.355-12.467 3.356-.041 0-.082 0-.123 0-.067 0-5.159-.112-12.467-3.356-3.787-1.678-8.217.027-9.898 3.813-1.68 3.786.027 8.218 3.813 9.898 4.28 1.899 8.072 3.018 11.114 3.683v21.116c-4.346 4.734-17.656 17.288-36.582 17.288-19.175 0-34.774-15.6-34.774-34.774 0-6.97 2.052-13.691 5.935-19.438 2.319-3.432 1.417-8.094-2.016-10.413-3.432-2.32-8.094-1.417-10.413 2.016-3.127 4.629-5.426 9.696-6.839 15.017-10.667-7.236-19.549-14.049-26.927-20.671 5.568-4.207 11.284-9.212 17.289-15.117 6.264 2.242 12.731 3.403 19.079 3.403 2.491 0 4.965-.178 7.399-.538 12.725-1.881 22.923-8.442 28.715-18.475 5.793-10.033 6.376-22.145 1.642-34.105-1.498-3.785-3.489-7.406-5.893-10.806 3.12-4.007 6.345-8.129 9.613-12.207 1.208 2.523 3.777 4.27 6.761 4.27 4.142 0 7.5-3.358 7.5-7.5v-13.365c0-.105-.011-.208-.016-.312 10.382-11.496 20.147-20.008 27.027-20.008 5.961 0 15.042 6.708 27.011 19.951v13.735c0 4.142 3.358 7.5 7.5 7.5s7.5-3.358 7.5-7.5v-15.094c.411-2.229-.206-4.565-1.746-6.315-16.829-19.119-28.871-27.276-40.265-27.276-18.944 0-38.673 24.05-61.234 52.997-2.672-2.216-5.562-4.24-8.654-6.025-24.435-14.107-53.761-9.221-65.374 10.893-5.792 10.033-6.375 22.146-1.642 34.106 3.965 10.018 11.319 18.922 20.935 25.464-4.835 4.532-9.442 8.379-13.917 11.632-19.94-22.189-24.163-43.673-24.163-73.904 0-17.724 23.128-54.068 50.503-79.364 3.042-2.811 3.229-7.556.418-10.598s-7.556-3.23-10.598-.418c-14.512 13.409-28.172 29.806-38.464 46.171-5.068 8.058-10.761 18.445-14.066 28.709-10.987-15-19.539-41.108-23.67-73.346-4.855-37.893-2.842-78.223 5.13-102.744 4.271-13.127 9.902-20.655 15.454-20.655 20.659 0 63.726 32.679 116.155 87.888-5.607 1.683-11.304 3.649-17.631 5.882-5.404 1.907-11.098 4.657-16.923 8.175-3.546 2.141-4.685 6.751-2.544 10.297s6.75 4.686 10.297 2.544c4.954-2.991 9.719-5.302 14.162-6.871 22.284-7.864 35.332-11.968 65.827-11.968s43.543 4.104 65.827 11.969c17.723 6.254 39.741 24.056 58.9 47.619zm-43.78 92.497c4.142 0 7.5-3.358 7.5-7.5v-28.129c3.67-1.005 7.323-1.502 10.825-1.502 9.924 0 18.626 3.974 22.999 11.547 3.455 5.984 3.698 13.472.685 21.085-3.254 8.221-9.805 15.496-18.448 20.486s-18.22 7.025-26.965 5.733c-8.1-1.197-14.463-5.152-17.918-11.136s-3.698-13.472-.685-21.085c2.738-6.917 7.818-13.16 14.508-17.94v20.942c-.001 4.141 3.357 7.499 7.499 7.499zm-161.894 0c4.142 0 7.5-3.358 7.5-7.5v-20.942c6.69 4.781 11.77 11.023 14.508 17.94 3.013 7.613 2.77 15.102-.685 21.085-3.455 5.984-9.818 9.939-17.918 11.136-8.745 1.293-18.322-.744-26.965-5.733-8.643-4.99-15.194-12.265-18.448-20.486-3.013-7.613-2.77-15.102.685-21.085 4.373-7.573 13.073-11.547 22.999-11.547 3.501 0 7.155.497 10.825 1.502v28.129c-.001 4.143 3.357 7.501 7.499 7.501z"/><path d="m159.986 464.828c-3.819-1.606-8.215.191-9.819 4.01-4.737 11.278-9.292 22.332-13.539 32.856-1.55 3.841.308 8.211 4.149 9.761.92.371 1.869.547 2.804.547 2.968 0 5.779-1.774 6.958-4.696 4.22-10.459 8.748-21.447 13.458-32.659 1.604-3.819-.192-8.215-4.011-9.819z"/><path d="m255.998 467c-4.142 0-7.5 3.358-7.5 7.5v30c0 4.142 3.358 7.5 7.5 7.5s7.5-3.358 7.5-7.5v-30c0-4.142-3.358-7.5-7.5-7.5z"/></g></g></svg>