<svg id="Capa_1" enable-background="new 0 0 512.002 512.002" height="512" viewBox="0 0 512.002 512.002" width="512" xmlns="http://www.w3.org/2000/svg"><g><g><path d="m359.515 403.965h-237.39s-12.628 21.125-32.191 80.535l315.519 10c-12.144-39.196-30.866-72.626-45.938-90.535z" fill="#faf8f8"/><path d="m428.453 504.5c-23.158-74.744-38.577-100.535-38.577-100.535h-30.361c5.571 12.829 13.326 32.488 22.652 60.837 3.192 9.703-4.032 19.698-14.246 19.698h-277.987c-2.054 6.239-4.185 12.897-6.385 20z" fill="#e9edf1"/><path d="m198.361 87.481c-33.143-33.807-83.559-79.981-111.703-79.981l18.566 103.071z" fill="#eec190"/><path d="m198.361 87.481c-22.087-14.301-54.77-13.124-83.136 3.09 0 0-17.095-61.841-28.566-83.071l.577 226.197 143.643-111.299c0 .001-13.383-15.399-32.518-34.917z" fill="#e9a761"/><path d="m135.225 90.571s-29.89-63.503-48.566-83.071c-27.812 0-25.5 65.607-17.444 126.154z" fill="#eebfb6"/><path d="m158.594 122.399s-49.793-114.899-71.936-114.899c8.494 15.72 20.071 53.705 25.509 72.364 1.767 6.063-.429 12.612-5.556 16.3-11.273 8.109-25.065 20.893-37.397 37.491 6.902 51.878 18.021 100.043 18.021 100.043z" fill="#eaa598"/><path d="m425.344 7.5c-44.393 0-144.221 114.899-144.221 114.899l143.643 111.298z" fill="#eec190"/><path d="m428.874 143.235s22.747-113.951-3.53-135.735c-15.834 0-45.803 58.747-61.597 92.226z" fill="#eebfb6"/><path d="m425.344 7.5c5.519 34.272 3.542 66.624.96 87.531-1.295 10.482-12.653 16.296-21.998 11.375-10.901-5.741-25.554-10.522-40.56-6.68-6.293 13.339-10.339 22.673-10.339 22.673l71.359 111.299c.001-.001 52.22-226.198.578-226.198z" fill="#eaa598"/><path d="m465.486 303.775c0-83.332-57.332-183.177-101.425-204.118-31.41-11.085-62.938-17.482-108.061-17.482s-76.65 6.397-108.06 17.482c-58.707 20.719-116.424 130.786-116.424 214.118 0 40.987 16.459 72.848 43.319 96.506h362.343s28.308-61.468 28.308-106.506z" fill="#f4dabd"/><path d="m480.486 313.775c0-83.332-57.717-193.399-116.425-214.118 24.489 10.913 86.425 110.785 86.425 194.118 0 46.591-21.258 81.394-54.898 105.754 0 13.588 26.686 10.751 41.589 10.752 26.857-23.658 43.309-55.521 43.309-96.506z" fill="#eec190"/><path d="m309.84 280.465c-12.097-29.961-29.062-42.944-53.839-42.945-24.778-.001-41.743 12.979-53.839 42.945-31.369 77.951-71.897 129.805-127.327 129.816.934.823 1.879 1.638 2.838 2.441 41.711 25.758 97.381 41.778 163.328 41.778 115.779 0 156.97-53.72 156.97-53.72-36.097-18.341-64.675-62.03-88.131-120.315z" fill="#faf8f8"/><path d="m226.001 444.5c-54.394 0-107.456-10.053-148.328-31.778 42.546 35.621 109.367 51.778 178.328 51.778 70.518 0 138.804-16.892 181.177-54.219-14.904-.001-28.729-3.756-41.589-10.752-42.642 30.879-105.183 44.971-169.588 44.971z" fill="#e9edf1"/><path d="m195.054 255.531c0-5.868-4.557-17.469-13.544-26.456-5.021-2.27-10.588-3.544-16.456-3.544-22.091 0-40 17.909-40 40 0 5.868 1.274 11.435 3.544 16.456 8.321 8.321 20.588 13.544 26.456 13.544 22.091 0 40-17.908 40-40z" fill="#e9a761"/><path d="m181.51 229.076c2.27 5.021 3.544 10.588 3.544 16.456 0 22.092-17.909 40-40 40-5.868 0-11.435-1.274-16.456-3.544 6.276 13.88 20.233 23.544 36.456 23.544 22.091 0 40-17.908 40-40 0-16.224-9.664-30.181-23.544-36.456z" fill="#dc805a"/><path d="m376.948 255.532c0-5.868-4.557-17.469-13.544-26.456-5.021-2.27-10.588-3.544-16.456-3.544-22.091 0-40 17.909-40 40 0 5.868 1.274 11.435 3.544 16.456 8.321 8.321 20.588 13.544 26.456 13.544 22.092 0 40-17.909 40-40z" fill="#e9a761"/><path d="m363.404 229.076c2.27 5.021 3.544 10.588 3.544 16.456 0 22.092-17.909 40-40 40-5.868 0-11.435-1.274-16.456-3.544 6.276 13.88 20.233 23.544 36.456 23.544 22.091 0 40-17.908 40-40 0-16.224-9.663-30.181-23.544-36.456z" fill="#dc805a"/></g><g><path d="m487.986 313.775c0-41.334-13.519-90.208-37.09-134.088-1.924-3.583-3.895-7.071-5.899-10.482 3.077-18.357 5.532-35.648 7.291-51.394.46-4.117-2.504-7.827-6.621-8.287-4.114-.462-7.827 2.504-8.287 6.621-1.193 10.679-2.72 22.104-4.543 34.095-18.252-26.059-38.693-45.106-58.844-54.579 7.195-14.93 16.761-33.788 26.349-49.72 17.409-28.929 24.46-30.829 25.05-30.939 2.332.011 4.141.821 5.856 2.626 4.349 4.578 11.289 19.165 8.915 65.435-.212 4.137 2.969 7.662 7.106 7.875 4.129.216 7.662-2.969 7.875-7.106 3.059-59.609-9.044-72.348-13.021-76.534-4.535-4.775-10.337-7.298-16.779-7.298-.326 0-.652.011-.98.034-23.686.708-61.532 27.143-112.54 78.613-17.397-2.707-35.573-3.971-55.823-3.971s-38.425 1.264-55.823 3.971c-51.008-51.47-88.855-77.905-112.54-78.613-.328-.023-.654-.034-.98-.034-6.979 0-13.153 2.938-17.853 8.495-9.539 11.279-13.53 34.044-12.203 69.597.928 24.83 4.43 55.492 10.405 91.131-7.489 12.735-14.341 26.479-20.279 40.86-14.646 35.469-22.712 72.293-22.712 103.691 0 52.83 26.571 95.235 75.116 122.871-7.409 18.75-15.054 40.806-22.747 65.635-1.226 3.957.988 8.158 4.944 9.384.739.229 1.487.338 2.222.338 3.2 0 6.165-2.065 7.162-5.282 7.382-23.826 14.703-45.017 21.795-63.098 20.752 9.899 44.886 17.423 72.121 22.297.447.08.892.119 1.33.119 3.563 0 6.724-2.55 7.374-6.18.729-4.078-1.984-7.974-6.062-8.704-37.073-6.634-68.929-18.771-93.191-35.395 21.183-4.513 40.943-16.582 58.942-36.06 20.61-22.303 38.959-53.847 56.094-96.425 10.824-26.813 24.846-38.254 46.884-38.253 22.039.001 36.06 11.441 46.882 38.246 7.839 19.48 16.133 37.01 24.65 52.103 2.036 3.607 6.611 4.881 10.218 2.846 3.607-2.036 4.881-6.61 2.846-10.218-3.12-5.529-6.213-11.412-9.266-17.615 4.895 1.71 10.147 2.651 15.618 2.651 23.469 0 43.005-17.114 46.815-39.514 18.987 2.597 37.888 15.316 49.118 26.385 1.461 1.44 3.363 2.159 5.265 2.159 1.938 0 3.875-.746 5.342-2.235 2.908-2.95 2.874-7.699-.076-10.606-13.911-13.712-36.254-28.274-59.498-30.801-3.443-22.83-23.191-40.388-46.966-40.388-21.165 0-39.135 13.918-45.255 33.079-11.741-14.276-26.683-21.091-45.691-21.091-.002 0-.001 0-.003 0-19.006 0-33.948 6.814-45.689 21.091-6.12-19.162-24.09-33.079-45.255-33.079-23.775 0-43.523 17.558-46.966 40.388-23.244 2.527-45.587 17.089-59.498 30.801-2.95 2.908-2.984 7.656-.076 10.606 1.468 1.489 3.404 2.235 5.342 2.235 1.901 0 3.804-.719 5.265-2.159 11.23-11.069 30.131-23.788 49.118-26.385 3.81 22.401 23.346 39.514 46.815 39.514 5.481 0 10.744-.944 15.647-2.66-29.802 60.655-63.711 90.974-103.06 92.354-8.056-7.398-14.87-15.421-20.416-24.054 12.9-11.648 30.946-25.752 50.34-34.154 3.801-1.646 5.547-6.062 3.9-9.863-1.646-3.8-6.061-5.548-9.863-3.9-19.888 8.616-38.206 22.472-51.788 34.433-7.178-15.502-10.797-32.675-10.797-51.413 0-60.158 31.708-137.94 73.755-180.927 2.896-2.961 2.844-7.709-.118-10.606-2.961-2.896-7.71-2.843-10.605.118-7.923 8.099-15.613 17.498-22.89 27.892-15.19-99.555-4.475-125.478 1.1-132.071 1.849-2.186 3.811-3.166 6.352-3.179.593.112 7.644 2.018 25.048 30.939 9.585 15.927 19.147 34.777 26.342 49.705-2.607 1.221-5.221 2.598-7.822 4.127-3.571 2.099-4.765 6.695-2.666 10.266 2.098 3.571 6.694 4.764 10.266 2.666 4.262-2.504 8.521-4.515 12.658-5.975 31.734-11.199 61.448-16.382 98.064-16.992v113.89c0 4.142 3.358 7.5 7.5 7.5s7.5-3.358 7.5-7.5v-113.893c36.617.61 66.331 5.793 98.064 16.993 25.967 9.164 53.71 38.343 76.117 80.056 22.106 41.153 35.304 88.625 35.304 126.989 0 18.822-3.595 35.999-10.735 51.467-13.588-11.973-31.931-25.858-51.849-34.487-3.802-1.647-8.217.1-9.863 3.9-1.646 3.801.1 8.217 3.9 9.863 19.425 8.416 37.497 22.552 50.402 34.211-5.541 8.625-12.353 16.629-20.413 24.004-29.23-.989-55.084-17.762-78.953-51.197-2.407-3.371-7.092-4.153-10.462-1.746-3.371 2.407-4.153 7.09-1.746 10.462 22.168 31.052 47.213 49.651 74.662 55.51-3.284 2.248-6.7 4.428-10.275 6.525-38.158 22.385-92.016 34.713-151.654 34.713-12.811 0-25.542-.573-37.843-1.704-4.128-.381-7.776 2.657-8.155 6.782s2.658 7.776 6.782 8.155c12.755 1.172 25.949 1.767 39.216 1.767 54.539 0 104.694-10.021 143.468-28.444 7.099 18.096 14.43 39.309 21.821 63.164.997 3.217 3.961 5.282 7.162 5.282.735 0 1.483-.109 2.222-.338 3.957-1.226 6.17-5.427 4.944-9.384-7.7-24.852-15.352-46.926-22.768-65.687.8-.454 1.606-.905 2.394-1.368 47.588-27.918 72.742-69.914 72.742-121.45zm-141.038-80.743c17.92 0 32.5 14.58 32.5 32.5s-14.58 32.5-32.5 32.5-32.5-14.58-32.5-32.5 14.58-32.5 32.5-32.5zm-214.394 32.5c0-17.92 14.58-32.5 32.5-32.5s32.5 14.58 32.5 32.5-14.58 32.5-32.5 32.5-32.5-14.58-32.5-32.5zm261.392-237.613c-1.853 2.816-3.772 5.862-5.766 9.147-10.345 17.043-20.661 37.427-28.261 53.251-10.131-3.347-20.118-6.092-30.221-8.315 24.804-24.419 46.718-42.804 64.248-54.083zm-275.89 0c17.531 11.279 39.444 29.664 64.248 54.082-10.103 2.224-20.09 4.968-30.221 8.315-7.6-15.824-17.916-36.208-28.261-53.251-1.994-3.284-3.913-6.329-5.766-9.146z"/><path d="m165.054 249.853c-4.142 0-7.5 3.358-7.5 7.5v16.357c0 4.142 3.358 7.5 7.5 7.5s7.5-3.358 7.5-7.5v-16.357c0-4.142-3.358-7.5-7.5-7.5z"/><path d="m346.948 281.21c4.142 0 7.5-3.358 7.5-7.5v-16.357c0-4.142-3.358-7.5-7.5-7.5s-7.5 3.358-7.5 7.5v16.357c0 4.142 3.358 7.5 7.5 7.5z"/><path d="m232.994 334.264c-8.913 17.852-24.845 40.621-50.137 47.716-3.988 1.119-6.314 5.259-5.195 9.247s5.258 6.312 9.247 5.195c30.581-8.579 49.239-34.894 59.505-55.458 3.882-7.776 7.065-15.707 9.587-23.318 2.522 7.611 5.705 15.542 9.587 23.318 10.267 20.564 28.924 46.879 59.505 55.458.678.19 1.359.281 2.03.281 3.278 0 6.289-2.166 7.217-5.476 1.119-3.988-1.207-8.128-5.195-9.247-25.292-7.095-41.225-29.864-50.137-47.716-11.377-22.789-15.507-45.358-15.507-54.968v-.596c3.041-.665 6.834-1.784 11.114-3.683 3.786-1.68 5.493-6.112 3.813-9.898-1.681-3.785-6.11-5.49-9.898-3.813-7.322 3.25-12.495 3.355-12.467 3.356-.041 0-.082 0-.123 0-.067 0-5.159-.112-12.467-3.356-3.787-1.679-8.217.026-9.898 3.813-1.68 3.786.027 8.218 3.813 9.898 4.28 1.899 8.072 3.018 11.114 3.683v.596c-.001 9.61-4.131 32.179-15.508 54.968z"/><path d="m327.119 209.218c4.142 0 7.5-3.358 7.5-7.5v-79.319c0-3.123-1.935-5.918-4.857-7.019-2.921-1.101-6.22-.274-8.28 2.073-10.908 12.432-30.109 44.711-38.301 82.684-.873 4.049 1.701 8.04 5.75 8.913.533.115 1.065.17 1.589.17 3.457 0 6.565-2.404 7.324-5.92 4.791-22.21 13.512-42.164 21.775-56.689v55.108c0 4.141 3.358 7.499 7.5 7.499z"/><path d="m182.24 115.38c-2.922 1.101-4.857 3.896-4.857 7.019v79.319c0 4.142 3.358 7.5 7.5 7.5s7.5-3.358 7.5-7.5v-55.108c8.264 14.525 16.984 34.479 21.775 56.689.759 3.516 3.867 5.92 7.324 5.92.524 0 1.056-.055 1.589-.17 4.049-.874 6.623-4.864 5.75-8.913-8.191-37.973-27.393-70.252-38.301-82.684-2.059-2.347-5.357-3.171-8.28-2.072z"/></g></g></svg>