<svg id="Capa_1" enable-background="new 0 0 512.001 512.001" height="512" viewBox="0 0 512.001 512.001" width="512" xmlns="http://www.w3.org/2000/svg"><g><g><path d="m425.344 7.5c-44.393 0-144.221 114.899-144.221 114.899l143.643 111.298z" fill="#e9a761"/><path d="m353.407 164.074 69.146-33.697c-44.339-43.452-77.321-55.867-111.169-40.587z" fill="#dc805a"/><path d="m425.344 7.5c-14.419 0-40.559 48.716-57.044 82.706l61.374 63.107c11.348-66.909 14.827-136-4.33-145.813z" fill="#e9edf1"/><path d="m425.344 7.5c3.288 8.358 7.184 43.083 1.253 94.543-1.361 11.809-15.22 17.461-24.414 9.925-11.997-9.833-23.189-17.056-33.884-21.762-8.83 18.207-14.892 32.193-14.892 32.193l71.359 111.299c0-.001 52.22-226.198.578-226.198z" fill="#c8d2dc"/><path d="m200.616 89.789c-33.071-33.97-85.168-82.289-113.958-82.289l24.566 129.089z" fill="#e9a761"/><path d="m200.616 89.789c-25.918-13.505-56.548-3.472-77.123 9.89-14.213-30.845-36.835-92.179-36.835-92.179l.577 226.197 143.643-111.299c0 .001-12.34-14.199-30.262-32.609z" fill="#dc805a"/><path d="m86.658 7.5c-29.341 0-25.154 73.018-16.067 136.083l72.902-33.904z" fill="#e9edf1"/><path d="m158.594 122.399s-49.793-114.899-71.936-114.899c0 0 17.902 48.536 31.861 80.969 2.766 6.427.719 13.927-4.949 18.03-16.853 12.197-32.128 26.289-42.979 37.084 6.907 47.932 16.644 90.115 16.644 90.115z" fill="#c8d2dc"/><path d="m448.451 247.744-192.45-164.297-226.233 157.1s.004.001.004.001c-8.613 16.592-16.168 34.418-22.27 53.424v190.528l457 10v-170c-.001-57.196-16.051-76.756-16.051-76.756z" fill="#faf8f8"/><path d="m174.571 98.385c-46.618 18.656-106.316 68.028-144.8 142.163.169.062 77.171 28.116 145.282-18.529 60.466-41.409 80.947-138.573 80.947-138.573-34.002.001-57.759 5.467-81.429 14.939z" fill="#eec190"/><path d="m482.216 240.553c-.324.118-33.765 7.191-33.765 7.191 3.817 20.703 3.201 41.738-3.95 61.901-4.094 11.544-20 25.516-20 63.236v96.619c0 8.284-6.716 15-15 15h-402v20h497v-210.528c-6.104-19.008-13.671-36.825-22.285-53.419z" fill="#e9edf1"/><path d="m256.001 83.447s20.481 97.164 80.947 138.573c39.848 27.289 82.733 29.008 111.503 25.725 0-60.344-41.14-104.161-89.008-138.76-7.559-4.226-14.937-7.767-22.012-10.599-23.67-9.473-47.428-14.939-81.43-14.939z" fill="#eec190"/><path d="m359.442 108.984c33.951 26.743 78.447 81.484 89.008 138.76 20.207-2.306 33.441-7.073 33.765-7.191-32.642-62.877-80.533-107.954-122.773-131.569z" fill="#e9a761"/><path d="m182.364 225.55c-20.886-12.059-45.568-8.411-55.128 8.148-5.545 9.604-4.774 21.439.917 32.042 19.683 19.682 55.221 18.078 64.719 1.627 5.545-9.605 4.776-28.633-10.508-41.817z" fill="#beeedd"/><path d="m182.364 225.55s8.72 17.593.508 31.816c-9.498 16.451-33.92 20.151-54.719 8.373 4.122 7.677 10.818 14.71 19.591 19.774 20.886 12.059 45.568 8.411 55.128-8.148 9.56-16.558.378-39.757-20.508-51.815z" fill="#94ccd4"/><path d="m384.766 233.697s6.176 20.076-33.208 42.814c-27.293 15.758-42.429.854-42.429.854-9.56-16.559-.378-39.758 20.508-51.816s45.569-8.41 55.129 8.148z" fill="#ddfdea"/><path d="m384.766 233.697s-5.851 14.539-37.508 32.816c-21.939 12.666-38.128 10.852-38.128 10.852 9.56 16.559 34.242 20.207 55.128 8.148s30.068-35.257 20.508-51.816z" fill="#beeedd"/></g><g><path d="m342.357 337.83c-4.142 0-7.5 3.358-7.5 7.5 0 19.174-15.6 34.774-34.774 34.774-18.938 0-32.254-12.571-36.582-17.286v-21.118c3.041-.665 6.834-1.784 11.114-3.683 3.786-1.68 5.493-6.112 3.813-9.898-1.681-3.786-6.11-5.49-9.898-3.813-7.322 3.25-12.495 3.355-12.467 3.356-.041 0-.082 0-.123 0-.067 0-5.159-.112-12.467-3.356-3.788-1.679-8.217.026-9.898 3.813-1.68 3.786.027 8.218 3.813 9.898 4.28 1.899 8.072 3.018 11.114 3.683v21.141c-4.297 4.733-17.481 17.264-36.582 17.264-19.175 0-34.774-15.6-34.774-34.774 0-4.142-3.358-7.5-7.5-7.5s-7.5 3.358-7.5 7.5c0 27.445 22.329 49.774 49.774 49.774 20.97 0 36.23-11.108 44.082-18.524 7.851 7.417 23.111 18.524 44.082 18.524 27.446 0 49.774-22.329 49.774-49.774-.001-4.143-3.359-7.501-7.501-7.501z"/><path d="m291.865 415.096c-9.314 4.411-22.386 6.94-35.864 6.94s-26.55-2.53-35.864-6.94c-3.743-1.772-8.215-.175-9.988 3.568-1.773 3.744-.175 8.215 3.568 9.988 11.417 5.406 26.434 8.384 42.284 8.384s30.868-2.978 42.284-8.384c3.744-1.773 5.341-6.245 3.568-9.988-1.772-3.744-6.244-5.341-9.988-3.568z"/><path d="m511.642 291.68c-15.23-47.433-39.393-88.059-66.965-120.568 2.572-15.192 4.731-29.733 6.416-43.219.514-4.11-2.402-7.858-6.512-8.372s-7.858 2.402-8.372 6.512c-1.217 9.739-2.689 20.048-4.387 30.761-17.895-18.845-36.801-34.409-55.354-46.362 32.047-10.989 71.813-9.023 99.088 5.759 1.136.616 2.36.908 3.567.908 2.664 0 5.243-1.422 6.601-3.928 1.974-3.642.622-8.194-3.02-10.167-8.553-4.635-18.054-8.166-28.077-10.606 1.337-18.529 4.276-67.048-12.3-84.883-4.569-4.917-10.442-7.515-16.983-7.515-24.097 0-63.242 27.435-116.35 81.516-16.451-3.823-33.438-5.565-52.943-5.568-.007 0-.013 0-.019 0-.01 0-.02 0-.03 0-.004 0-.008 0-.013 0-.017 0-.033 0-.05 0-19.499.004-36.483 1.746-52.93 5.568-53.109-54.081-92.253-81.516-116.351-81.516-6.985 0-13.163 2.942-17.864 8.508-9.597 11.362-13.575 34.371-12.162 70.342.17 4.337.424 8.863.749 13.546-10.026 2.441-19.529 5.972-28.083 10.608-3.642 1.974-4.994 6.526-3.02 10.167 1.358 2.506 3.937 3.928 6.601 3.928 1.207 0 2.431-.292 3.567-.908 6.74-3.653 14.242-6.523 22.203-8.61 1.822 18.913 4.72 40.159 8.676 63.53-27.573 32.509-51.735 73.135-66.965 120.569-.238.741-.359 1.515-.359 2.293v210.527c0 4.142 3.358 7.5 7.5 7.5s7.5-3.358 7.5-7.5v-209.346c5.065-15.586 11.305-30.826 18.609-45.546 9.297 2.634 27.893 6.886 51.102 6.886 9.834 0 20.504-.786 31.632-2.76.484 3.417 1.391 6.874 2.755 10.32 4.494 11.353 13.335 21.281 24.896 27.956 9.23 5.329 19.389 8.12 29.258 8.12 2.491 0 4.965-.178 7.399-.538 12.725-1.881 22.923-8.442 28.715-18.475 5.793-10.033 6.376-22.145 1.642-34.105-4.107-10.378-11.856-19.557-21.985-26.157 22.038-18.272 40.865-45.349 56.068-80.684 4.551-10.578 8.139-20.46 10.889-28.864 8.22 25.22 23.992 63.688 50.489 93.482 1.482 1.667 3.54 2.516 5.607 2.516 1.772 0 3.552-.625 4.981-1.896 3.095-2.753 3.373-7.493.621-10.588-30.815-34.65-46.538-83.569-52.028-103.712 25.64.831 46.223 5.127 68.993 14.24 29.516 11.812 62.205 35.687 89.688 65.502 18.099 19.636 33.88 41.603 46.9 65.113-13.923 3.547-43.468 8.973-76.478 2.351-.801-2.906-1.959-5.711-3.492-8.367-11.613-20.114-40.939-25-65.374-10.893-11.561 6.675-20.402 16.603-24.895 27.956-4.734 11.96-4.151 24.073 1.642 34.105 5.792 10.032 15.991 16.594 28.715 18.475 2.435.36 4.908.538 7.399.538 9.869 0 20.028-2.791 29.258-8.12 11.561-6.674 20.402-16.603 24.896-27.956 1.363-3.445 2.271-6.901 2.755-10.318 11.129 1.975 21.796 2.759 31.632 2.759 23.205 0 41.803-4.253 51.102-6.887 7.304 14.72 13.544 29.96 18.609 45.546v108.811c0 4.142 3.358 7.5 7.5 7.5s7.5-3.358 7.5-7.5v-109.991c0-.779-.121-1.552-.359-2.293zm-71.87-202.047c-21.732-2.868-44.868-.962-65.669 5.759 36.445-75.882 50.568-80.219 51.292-80.389 2.369.012 4.205.852 5.943 2.723 4.644 4.995 11.794 20.99 8.434 71.907zm-253.326-3.52c-4.859 1.572-9.728 3.335-14.661 5.309-5.156 2.063-10.424 4.468-15.765 7.189-7.669-16.359-18.177-37.656-29.026-56.217-3.15-5.388-6.123-10.209-8.948-14.503 18.491 11.89 41.853 31.708 68.4 58.222zm-106.193-67.925c1.849-2.189 3.811-3.171 6.352-3.185.719.168 14.841 4.495 51.292 80.389-20.808-6.723-43.954-8.628-65.694-5.755-3.304-50.419 3.83-66.454 8.05-71.449zm-6.841 86.492c20.554-2.8 42.745-.893 62.121 5.752-18.554 11.953-37.461 27.518-55.357 46.364-3.193-20.095-5.372-37.337-6.764-52.116zm122.964 168.936c-3.455 5.984-9.818 9.939-17.918 11.136-8.746 1.293-18.322-.744-26.965-5.733-8.643-4.99-15.194-12.265-18.448-20.486-3.013-7.613-2.77-15.102.685-21.085 4.373-7.573 13.073-11.547 22.999-11.547 3.501 0 7.155.497 10.825 1.502v28.129c0 4.142 3.358 7.5 7.5 7.5s7.5-3.358 7.5-7.5v-20.942c6.69 4.781 11.77 11.023 14.508 17.94 3.012 7.614 2.769 15.102-.686 21.086zm34.817-139.096c-19.004 44.048-41.135 67.199-57.326 79.141-21.282-6.706-43.408-.547-53.126 16.286-1.533 2.655-2.69 5.46-3.491 8.365-33.014 6.625-62.562 1.198-76.479-2.348 13.019-23.511 28.801-45.478 46.9-65.114 27.482-29.815 60.172-53.69 89.688-65.502 22.774-9.114 43.358-13.41 69.004-14.24-2.594 9.56-7.481 25.588-15.17 43.412zm94.362-48.407c26.547-26.514 49.909-46.332 68.4-58.221-2.825 4.294-5.798 9.114-8.948 14.502-10.849 18.561-21.357 39.858-29.026 56.217-5.341-2.721-10.609-5.126-15.765-7.189-4.932-1.974-9.802-3.737-14.661-5.309zm53.401 172.42c-3.254 8.221-9.805 15.496-18.448 20.486-8.644 4.99-18.221 7.026-26.965 5.733-8.1-1.197-14.463-5.152-17.918-11.136s-3.698-13.472-.685-21.085c2.738-6.918 7.818-13.16 14.508-17.94v20.942c0 4.142 3.358 7.5 7.5 7.5s7.5-3.358 7.5-7.5v-28.129c3.67-1.005 7.323-1.502 10.825-1.502 9.924 0 18.626 3.974 22.999 11.547 3.454 5.982 3.697 13.47.684 21.084z"/><path d="m504.501 426.465c-4.142 0-7.5 3.358-7.5 7.5v70.535c0 4.142 3.358 7.5 7.5 7.5s7.5-3.358 7.5-7.5v-70.535c0-4.142-3.358-7.5-7.5-7.5z"/><path d="m147.204 426.099c-3.587-2.072-8.174-.843-10.245 2.745l-21.213 36.742c-2.071 3.587-.842 8.174 2.745 10.245 1.181.682 2.471 1.006 3.743 1.006 2.592 0 5.113-1.345 6.502-3.751l21.213-36.742c2.072-3.587.843-8.175-2.745-10.245z"/><path d="m219.594 461.263c-3.587-2.072-8.175-.843-10.245 2.745l-21.213 36.742c-2.071 3.587-.842 8.174 2.745 10.245 1.181.682 2.471 1.006 3.743 1.006 2.592 0 5.113-1.345 6.502-3.751l21.213-36.742c2.071-3.587.842-8.175-2.745-10.245z"/><path d="m413.457 398.662c-2.929-2.929-7.678-2.929-10.606 0-2.929 2.929-2.929 7.678 0 10.606l30 30c1.464 1.464 3.384 2.197 5.303 2.197s3.839-.732 5.303-2.197c2.929-2.929 2.929-7.678 0-10.606z"/><path d="m375.042 428.844c-2.072-3.587-6.658-4.816-10.245-2.745s-4.816 6.658-2.745 10.245l21.213 36.742c1.389 2.406 3.91 3.751 6.502 3.751 1.272 0 2.562-.324 3.743-1.006 3.587-2.071 4.816-6.658 2.745-10.245z"/></g></g></svg>