<svg id="Capa_1" enable-background="new 0 0 512.002 512.002" height="512" viewBox="0 0 512.002 512.002" width="512" xmlns="http://www.w3.org/2000/svg"><g><g><path d="m198.36 87.481c-33.142-33.807-83.559-79.981-111.702-79.981l18.566 103.071z" fill="#efcb83"/><path d="m198.36 87.481c-22.087-14.301-54.77-13.124-83.136 3.09 0 0-17.095-61.841-28.566-83.071l.577 226.197 143.643-111.299c0 .001-13.382-15.399-32.518-34.917z" fill="#e9a761"/><path d="m135.224 90.571s-29.89-63.503-48.566-83.071c-27.812 0-25.5 65.607-17.444 126.154z" fill="#eebfb6"/><path d="m158.594 122.399s-49.793-114.899-71.936-114.899c8.494 15.72 20.071 53.705 25.509 72.364 1.767 6.063-.429 12.612-5.556 16.3-11.273 8.109-25.065 20.893-37.397 37.491 6.902 51.878 18.021 100.043 18.021 100.043z" fill="#eaa598"/><path d="m425.344 7.5c-44.393 0-144.221 114.899-144.221 114.899l143.643 111.298z" fill="#efcb83"/><path d="m428.873 143.235s22.747-113.951-3.53-135.735c-15.834 0-45.803 58.747-61.597 92.226z" fill="#eebfb6"/><path d="m425.344 7.5c5.519 34.272 3.542 66.624.96 87.531-1.295 10.482-12.653 16.296-21.998 11.375-10.901-5.741-25.554-10.522-40.56-6.68-6.293 13.339-10.339 22.673-10.339 22.673l71.359 111.299c0-.001 52.22-226.198.578-226.198z" fill="#eaa598"/><path d="m369.515 403.965h-257.39s-12.628 21.125-32.191 80.535l335.519 10c-12.144-39.196-30.866-72.626-45.938-90.535z" fill="#ffead9"/><path d="m438.453 504.5c-23.158-74.744-38.577-100.535-38.577-100.535h-30.361c5.571 12.829 13.326 32.488 22.652 60.837 3.192 9.703-4.032 19.698-14.246 19.698h-297.987c-2.054 6.239-4.185 12.897-6.385 20z" fill="#f4dabd"/><path d="m484.865 341.742c0-116.193-72.545-207.688-124.999-243.357-30.191-9.472-60.495-14.938-103.866-14.938s-73.675 5.466-103.866 14.938c-56.429 17.704-129.234 119.946-129.234 205.179 0 12.658 1.28 25.521 4.235 38.179z" fill="#efcb83"/><path d="m359.867 98.385c28.742 28.238 99.234 109.946 99.234 195.178 0 4.402-.22 8.852-.669 13.325l26.434 34.854c2.956-12.658 4.235-25.521 4.235-38.179 0-85.232-72.805-187.474-129.234-205.178z" fill="#e9a761"/><path d="m428.651 298.632c-32.247 0-48.332 22.035-92.504 22.035-41.073 0-64.575-29.506-64.575-29.506-9.133 4.053-15.571 4-15.571 4s-6.438.053-15.571-4c0 0-23.503 29.506-64.575 29.506-44.172 0-60.257-22.035-92.504-22.035-26.356 0-42.684 13.663-56.214 43.11 6 25.696 18.942 50.543 42.351 71.087 42.638 23.692 112.43 41.772 186.513 41.772 151.969 0 218.5-70.171 202.434-147.717-8.376-5.562-18.093-8.252-29.784-8.252z" fill="#ffead9"/><path d="m458.432 306.889c-6.647 66.234-63.875 137.713-212.431 137.713-74.084 0-133.213-11.986-176.513-31.772 34.961 30.683 93.242 51.772 186.513 51.772 155.725 0 213.904-58.788 228.865-122.86-7.529-16.385-15.927-27.876-26.434-34.853z" fill="#f4dabd"/><path d="m182.364 215.55c-20.886-12.059-45.568-8.411-55.128 8.148-5.545 9.604-4.774 21.439.917 32.042 19.683 19.682 55.221 18.078 64.719 1.627 5.545-9.605 4.776-28.633-10.508-41.817z" fill="#e9edf1"/><path d="m182.364 215.55s8.72 17.593.508 31.816c-9.498 16.451-33.92 20.151-54.719 8.373 4.122 7.677 10.818 14.71 19.591 19.774 20.886 12.059 45.568 8.411 55.128-8.148 9.56-16.558.378-39.757-20.508-51.815z" fill="#c8d2dc"/><path d="m384.766 223.697s6.176 20.076-33.208 42.814c-27.293 15.758-42.429.854-42.429.854-9.56-16.559-.378-39.758 20.508-51.816s45.569-8.41 55.129 8.148z" fill="#e9edf1"/><path d="m384.766 223.697s-5.851 14.539-37.508 32.816c-21.939 12.666-38.128 10.852-38.128 10.852 9.56 16.559 34.242 20.207 55.128 8.148s30.068-35.257 20.508-51.816z" fill="#c8d2dc"/></g><g><path d="m296.038 455.668c-12.674.952-26.144 1.434-40.037 1.434-82.723 0-143.801-16.783-181.538-49.884-19.823-17.387-33.011-39.022-39.455-64.592 12.388-25.879 26.522-36.494 48.343-36.494 13.382 0 23.755 4.247 35.767 9.164 14.737 6.033 31.441 12.872 56.737 12.872 15.006 0 29.451-3.599 42.932-10.695 3.666-1.93 5.072-6.465 3.143-10.13-1.929-3.666-6.465-5.071-10.13-3.143-11.305 5.951-23.398 8.969-35.944 8.969-22.344 0-36.939-5.975-51.054-11.753-12.916-5.288-25.116-10.282-41.45-10.282-22.159 0-38.838 8.856-52.255 28.224-.463-5.134-.695-10.399-.695-15.793 0-27.38 7.907-58.349 22.865-89.557 1.791-3.735.214-8.215-3.521-10.005-3.735-1.792-8.215-.213-10.005 3.521-15.922 33.22-24.338 66.43-24.338 96.041 0 46.973 17.003 86.715 49.171 114.931 7.435 6.521 15.679 12.447 24.706 17.786-1.929 4.873-3.893 10.014-5.861 15.358-1.432 3.887.558 8.199 4.445 9.63.855.315 1.731.464 2.592.464 3.053 0 5.922-1.878 7.039-4.909 1.709-4.64 3.413-9.115 5.091-13.392 38.916 19.039 90.277 28.668 153.419 28.668 14.267 0 28.114-.497 41.16-1.476 4.131-.31 7.228-3.91 6.917-8.041-.314-4.129-3.926-7.221-8.044-6.916z"/><path d="m451.913 171.532c-1.927-2.932-3.89-5.8-5.88-8.616 5.004-30.889 8.093-57.939 9.177-80.401.199-4.137-2.992-7.653-7.13-7.853-4.129-.19-7.653 2.992-7.853 7.13-.888 18.418-3.175 40.081-6.8 64.542-19.092-23.293-39.945-40.984-59.563-50.408 7.229-15.011 16.982-34.256 26.727-50.399 17.25-28.572 24.234-30.421 24.804-30.526 4.409.032 12.103 4.283 14.535 32.145.36 4.126 4.009 7.174 8.124 6.82 4.126-.36 7.18-3.997 6.819-8.124-1.171-13.418-3.621-23.562-7.491-31.01-6.368-12.259-15.499-14.832-22.038-14.832-23.762 0-62.246 26.764-114.384 79.52-17.115-2.444-34.989-3.573-54.958-3.573-19.97 0-37.843 1.129-54.958 3.573-52.134-52.756-90.618-79.52-114.386-79.52-6.955 0-13.111 2.918-17.805 8.438-9.298 10.936-13.339 32.701-12.354 66.539.695 23.861 3.882 53.444 9.468 87.927-2.876 4.077-5.696 8.275-8.443 12.597-2.222 3.496-1.189 8.131 2.307 10.353 3.497 2.223 8.131 1.188 10.353-2.307 25.262-39.748 57.524-69.638 84.196-78.005 32.605-10.229 62.997-14.594 101.621-14.594s69.016 4.365 101.621 14.594c25.62 8.038 56.947 36.48 81.756 74.229 26.834 40.83 42.224 85.951 42.224 123.794 0 5.15-.222 10.423-.712 15.769-13.415-19.352-30.089-28.2-52.239-28.2-16.333 0-28.533 4.994-41.45 10.282-14.114 5.778-28.71 11.753-51.054 11.753-12.547 0-24.641-3.018-35.944-8.969-3.667-1.928-8.201-.522-10.131 3.143s-.522 8.201 3.143 10.13c13.481 7.097 27.926 10.695 42.933 10.695 25.296 0 41.999-6.838 56.737-12.872 12.011-4.917 22.385-9.164 35.767-9.164 21.802 0 35.931 10.596 48.312 36.428-11.905 47.062-49.879 94.254-148.914 109.498-4.095.63-6.902 4.459-6.272 8.554.571 3.707 3.766 6.36 7.404 6.36.379 0 .764-.029 1.149-.088 30.36-4.673 56.771-12.52 79.09-23.447 7.112 18.117 14.457 39.364 21.868 63.282.997 3.218 3.961 5.282 7.162 5.282.734 0 1.482-.109 2.222-.338 3.956-1.226 6.17-5.427 4.944-9.384-7.746-25.001-15.439-47.18-22.892-66.005 15.465-9.15 28.612-20.021 39.353-32.593 22.908-26.813 34.523-60.498 34.523-100.118 0-40.694-16.288-88.817-44.688-132.031zm-299.728-81c-7.638-15.912-18.295-37.003-28.938-54.409-1.797-2.938-3.529-5.67-5.21-8.223 17.684 11.372 39.828 29.988 64.924 54.754-10.26 2.089-20.422 4.703-30.776 7.878zm-73.614 55.774c-4.118-27.779-6.5-51.876-7.079-71.765-1.127-38.741 5.023-51.957 8.789-56.387 1.843-2.167 3.797-3.139 6.329-3.151.589.111 7.502 1.986 24.499 30.029 9.875 16.292 19.773 35.834 27.019 50.881-19.697 9.426-40.486 27.083-59.557 50.393zm315.396-118.405c-1.781 2.705-3.616 5.599-5.527 8.737-10.505 17.249-20.998 38.007-28.624 53.894-10.355-3.175-20.518-5.789-30.78-7.878 25.097-24.765 47.245-43.379 64.931-54.753z"/><path d="m256.001 417.036c15.852 0 30.868-2.978 42.284-8.384 3.743-1.773 5.341-6.245 3.568-9.988-1.773-3.744-6.248-5.339-9.988-3.568-9.313 4.411-22.386 6.94-35.864 6.94s-26.55-2.53-35.864-6.94c-3.742-1.771-8.215-.175-9.988 3.568s-.175 8.215 3.568 9.988c11.416 5.407 26.433 8.384 42.284 8.384z"/><path d="m310.082 360.104c-30.771 0-44.624-30.938-46.581-35.784v-22.62c3.041-.665 6.834-1.784 11.113-3.683 3.786-1.68 5.493-6.111 3.813-9.897s-6.113-5.492-9.897-3.812c-7.322 3.25-12.495 3.355-12.468 3.355-.041 0-.082 0-.123 0-.067 0-5.159-.112-12.467-3.356-3.788-1.68-8.218.027-9.898 3.813s.027 8.218 3.813 9.898c4.28 1.899 8.072 3.018 11.114 3.683v22.615c-1.98 4.904-15.837 35.79-46.582 35.79-4.142 0-7.5 3.358-7.5 7.5s3.358 7.5 7.5 7.5c17.589 0 33.542-7.574 46.133-21.904 3.126-3.558 5.775-7.239 7.949-10.698 2.173 3.459 4.822 7.141 7.948 10.698 12.592 14.33 28.544 21.904 46.133 21.904 4.143 0 7.5-3.358 7.5-7.5s-3.358-7.502-7.5-7.502z"/><path d="m221.49 218.268c4.142 0 7.5-3.358 7.5-7.5v-13.365c0-4.142-3.358-7.5-7.5-7.5s-7.5 3.358-7.5 7.5v13.365c0 4.142 3.357 7.5 7.5 7.5z"/><path d="m290.512 189.902c-4.143 0-7.5 3.358-7.5 7.5v13.365c0 4.142 3.357 7.5 7.5 7.5s7.5-3.358 7.5-7.5v-13.365c0-4.142-3.357-7.5-7.5-7.5z"/><path d="m186.114 209.054c-24.436-14.107-53.762-9.221-65.374 10.893-5.792 10.033-6.375 22.146-1.642 34.106 4.494 11.353 13.335 21.281 24.896 27.956 9.23 5.329 19.389 8.12 29.258 8.12 2.491 0 4.965-.178 7.399-.538 12.725-1.881 22.923-8.442 28.715-18.475 5.793-10.033 6.376-22.145 1.642-34.105-4.493-11.354-13.334-21.282-24.894-27.957zm10.262 54.562c-3.455 5.984-9.818 9.939-17.918 11.136-8.747 1.292-18.322-.744-26.965-5.733-8.643-4.99-15.194-12.265-18.448-20.486-3.013-7.613-2.77-15.102.685-21.085 4.373-7.573 13.073-11.547 22.999-11.547 3.431 0 7.009.484 10.604 1.449v31.933c0 4.142 3.358 7.5 7.5 7.5s7.5-3.358 7.5-7.5v-24.85c6.799 4.8 11.961 11.104 14.729 18.098 3.012 7.613 2.769 15.101-.686 21.085z"/><path d="m302.635 271.116c7.129 12.348 20.931 18.956 36.182 18.956 9.592 0 19.758-2.616 29.192-8.062 11.561-6.674 20.401-16.603 24.895-27.956 4.734-11.961 4.151-24.073-1.642-34.106-11.613-20.114-40.94-25-65.373-10.893-24.435 14.107-34.867 41.947-23.254 62.061zm27.034-46.682v24.848c0 4.142 3.357 7.5 7.5 7.5s7.5-3.358 7.5-7.5v-31.937c13.997-3.757 27.718-.089 33.603 10.102 3.455 5.984 3.698 13.472.685 21.085-3.253 8.221-9.805 15.496-18.447 20.486-17.272 9.972-37.407 7.547-44.884-5.403-6.917-11.979-.611-28.828 14.043-39.181z"/><path d="m82.878 475.605c-3.936-1.302-8.176.83-9.478 4.761-2.319 7-4.679 14.373-7.016 21.914-1.226 3.957.988 8.158 4.944 9.384.739.229 1.487.338 2.222.338 3.2 0 6.165-2.065 7.162-5.282 2.308-7.448 4.638-14.728 6.927-21.636 1.303-3.933-.829-8.176-4.761-9.479z"/></g></g></svg>