<svg id="Capa_1" enable-background="new 0 0 512.001 512.001" height="512" viewBox="0 0 512.001 512.001" width="512" xmlns="http://www.w3.org/2000/svg"><g><g><path d="m425.343 7.501c-44.393 0-144.221 114.899-144.221 114.899l143.643 111.298z" fill="#e9edf1"/><path d="m353.407 164.075 69.146-33.697c-44.339-43.453-77.321-55.868-111.169-40.588z" fill="#c8d2dc"/><path d="m425.343 7.501c-14.419 0-40.559 48.716-57.044 82.706l61.374 63.107c11.349-66.91 14.828-136.001-4.33-145.813z" fill="#eebfb6"/><path d="m425.343 7.501c3.288 8.358 7.184 43.083 1.253 94.543-1.361 11.809-15.22 17.461-24.414 9.925-11.997-9.833-23.189-17.056-33.884-21.762-8.83 18.207-14.892 32.193-14.892 32.193l71.359 111.299c.001-.001 52.22-226.198.578-226.198z" fill="#eaa598"/><path d="m200.615 89.789c-33.07-33.969-85.167-82.288-113.957-82.288l24.566 129.089z" fill="#e9edf1"/><path d="m200.615 89.789c-25.918-13.505-56.548-3.472-77.123 9.89-14.212-30.844-36.834-92.178-36.834-92.178l.577 226.197 143.643-111.299s-12.34-14.2-30.263-32.61z" fill="#c8d2dc"/><path d="m86.658 7.501c-29.341 0-25.154 73.018-16.067 136.083l72.902-33.904z" fill="#eebfb6"/><path d="m158.594 122.399s-49.793-114.899-71.936-114.899c0 0 17.902 48.536 31.861 80.969 2.766 6.427.719 13.927-4.949 18.03-16.853 12.197-32.128 26.289-42.979 37.084 6.907 47.932 16.644 90.115 16.644 90.115z" fill="#eaa598"/><path d="m443.794 259.645c0-74.976-63.156-137.246-106.364-161.259-23.669-9.472-47.427-14.938-81.429-14.938s-57.76 5.466-81.429 14.938c-60.403 24.172-162.438 95.854-166.916 386.115l436.845 10c0-59.433-.707-188.965-.707-234.856z" fill="#faf8f8"/><path d="m504.501 504.501c0-305.79-110.019-383.284-167.071-406.115 19.805 15.744 96.364 86.284 96.364 161.259 0 54.139-25.155 43.12-20.565 71.154 6.501 39.709 10.532 85.552 11.179 138.504.102 8.358-6.644 15.198-15.003 15.198h-401.749c-.101 6.556-.155 13.219-.155 20z" fill="#e9edf1"/><path d="m182.363 225.55c-20.886-12.059-45.568-8.411-55.128 8.148-5.545 9.604-4.774 21.439.917 32.042 19.683 19.682 55.221 18.078 64.719 1.627 5.545-9.605 4.777-28.632-10.508-41.817z" fill="#ddfdea"/><path d="m182.363 225.55s8.72 17.593.508 31.816c-9.498 16.451-33.92 20.151-54.719 8.373 4.122 7.677 10.818 14.71 19.591 19.774 20.886 12.059 45.568 8.411 55.128-8.148 9.561-16.557.379-39.756-20.508-51.815z" fill="#beeedd"/><path d="m384.766 233.698s6.176 20.076-33.208 42.814c-27.293 15.758-42.429.854-42.429.854-9.56-16.559-.378-39.758 20.508-51.816 20.887-12.059 45.569-8.411 55.129 8.148z" fill="#ddfdea"/><path d="m384.766 233.698s-5.851 14.539-37.508 32.816c-21.939 12.666-38.128 10.852-38.128 10.852 9.56 16.559 34.242 20.207 55.128 8.148s30.068-35.258 20.508-51.816z" fill="#beeedd"/></g><g><path d="m300.082 380.105c-18.938 0-32.254-12.571-36.581-17.286v-21.119c3.041-.665 6.834-1.784 11.113-3.683 3.786-1.68 5.493-6.111 3.813-9.897s-6.113-5.492-9.897-3.812c-7.322 3.25-12.495 3.355-12.512 3.355-.052 0-5.225-.106-12.547-3.355-3.783-1.68-8.218.026-9.897 3.812s.027 8.217 3.813 9.897c4.279 1.899 8.072 3.019 11.113 3.683v21.117c-4.346 4.734-17.656 17.288-36.581 17.288-4.143 0-7.5 3.358-7.5 7.5s3.357 7.5 7.5 7.5c20.97 0 36.23-11.108 44.081-18.524 7.851 7.416 23.111 18.524 44.081 18.524 4.143 0 7.5-3.358 7.5-7.5s-3.357-7.5-7.499-7.5z"/><path d="m209.367 281.116c11.612-20.114 1.181-47.954-23.254-62.062s-53.76-9.22-65.373 10.893c-5.793 10.033-6.376 22.145-1.642 34.106 4.493 11.353 13.334 21.281 24.895 27.956 9.436 5.448 19.6 8.062 29.192 8.062 15.249.001 29.054-6.608 36.182-18.955zm-12.99-7.5c-7.479 12.948-27.613 15.373-44.884 5.403-8.643-4.99-15.194-12.265-18.447-20.486-3.014-7.613-2.771-15.102.685-21.085 4.373-7.573 13.073-11.546 22.999-11.546 3.501 0 7.155.497 10.824 1.502v28.129c0 4.142 3.357 7.5 7.5 7.5s7.5-3.358 7.5-7.5v-20.941c14.495 10.365 20.703 27.105 13.823 39.024z"/><path d="m213.989 207.403v13.365c0 4.142 3.357 7.5 7.5 7.5s7.5-3.358 7.5-7.5v-13.365c0-4.142-3.357-7.5-7.5-7.5s-7.5 3.358-7.5 7.5z"/><path d="m298.012 220.768v-13.365c0-4.142-3.357-7.5-7.5-7.5s-7.5 3.358-7.5 7.5v13.365c0 4.142 3.357 7.5 7.5 7.5s7.5-3.358 7.5-7.5z"/><path d="m325.888 219.055c-24.435 14.107-34.866 41.948-23.254 62.062 7.129 12.348 20.931 18.956 36.182 18.956 9.592 0 19.758-2.616 29.192-8.062 11.561-6.674 20.401-16.603 24.895-27.956 4.734-11.961 4.151-24.073-1.642-34.106-11.612-20.115-40.941-25-65.373-10.894zm53.068 39.478c-3.253 8.221-9.805 15.496-18.447 20.486-17.271 9.972-37.406 7.547-44.884-5.403-6.881-11.919-.672-28.659 13.823-39.025v20.941c0 4.142 3.357 7.5 7.5 7.5s7.5-3.358 7.5-7.5v-28.124c14.073-3.855 27.908-.205 33.823 10.04 3.455 5.984 3.698 13.472.685 21.085z"/><path d="m291.865 415.096c-9.313 4.411-22.386 6.94-35.864 6.94-13.479 0-26.551-2.53-35.864-6.94-3.743-1.773-8.215-.176-9.988 3.568-1.772 3.744-.175 8.215 3.568 9.988 11.416 5.406 26.433 8.384 42.284 8.384s30.868-2.978 42.284-8.384c3.743-1.773 5.341-6.245 3.568-9.988s-6.248-5.339-9.988-3.568z"/><path d="m101.55 357.326c-3.449-2.294-8.104-1.358-10.398 2.091-10.531 15.83-31.427 33.252-46.581 38.837-3.887 1.432-5.876 5.744-4.443 9.63 1.117 3.032 3.985 4.909 7.038 4.909.861 0 1.737-.149 2.593-.465 17.985-6.628 41.653-26.221 53.882-44.604 2.294-3.448 1.358-8.104-2.091-10.398z"/><path d="m467.43 398.255c-15.154-5.585-36.05-23.007-46.581-38.837-2.293-3.449-6.948-4.386-10.398-2.091-3.448 2.294-4.385 6.95-2.09 10.398 12.229 18.383 35.896 37.976 53.882 44.604.855.315 1.731.465 2.593.465 3.053 0 5.921-1.877 7.038-4.909 1.432-3.886-.557-8.198-4.444-9.63z"/><path d="m161.037 454.198c-3.345-2.442-8.038-1.711-10.479 1.634-8.403 11.508-17.096 32.859-17.096 48.668 0 4.142 3.357 7.5 7.5 7.5s7.5-3.358 7.5-7.5c0-11.038 6.507-29.274 14.209-39.822 2.443-3.345 1.711-8.037-1.634-10.48z"/><path d="m350.964 454.198c-3.346 2.443-4.077 7.135-1.634 10.48 7.702 10.548 14.209 28.785 14.209 39.822 0 4.142 3.357 7.5 7.5 7.5s7.5-3.358 7.5-7.5c0-15.809-8.692-37.16-17.096-48.668-2.44-3.345-7.133-4.077-10.479-1.634z"/><path d="m20.421 337.833c-4.088-.679-7.948 2.086-8.625 6.173-7.827 47.247-11.795 101.245-11.795 160.495 0 4.142 3.357 7.5 7.5 7.5s7.5-3.358 7.5-7.5c0-58.431 3.901-111.604 11.595-158.043.676-4.087-2.088-7.948-6.175-8.625z"/><path d="m240.843 91.35c4.136-.229 7.303-3.767 7.074-7.902-.229-4.136-3.778-7.31-7.902-7.075-13.08.722-25.158 2.387-37.009 5.141-53.097-54.08-92.238-81.513-116.348-81.513-7.028 0-13.234 2.977-17.947 8.607-10.56 12.616-14.345 40.707-11.378 83.818-10.022 2.435-19.51 5.958-28.035 10.578-3.642 1.974-4.994 6.526-3.021 10.167 1.358 2.506 3.937 3.928 6.601 3.928 1.207 0 2.432-.292 3.566-.908 6.713-3.638 14.202-6.496 22.155-8.577 2.025 20.946 5.42 44.93 10.188 71.922-21.454 33.888-38.028 76.085-49.434 125.959-4.512 1.392-8.8 2.347-12.608 2.732-4.121.417-7.123 4.096-6.706 8.217.392 3.865 3.65 6.745 7.453 6.745.252 0 .508-.013.765-.039 19.07-1.931 46.878-14.999 63.307-29.75 3.082-2.768 3.337-7.509.569-10.591-2.766-3.081-7.508-3.338-10.591-.57-6.707 6.022-15.761 11.808-25.139 16.403 14.433-58.032 36.247-104.495 64.927-138.231 21.36-25.126 46.229-43.137 76.028-55.062 21.32-8.532 40.307-12.719 63.485-13.999zm-168.954-7.297c-2.45-45.687 4.163-60.847 8.323-65.817 1.86-2.222 3.834-3.219 6.393-3.233.72.168 14.842 4.497 51.294 80.393-20.789-6.699-43.944-8.588-65.669-5.733-.126-1.902-.242-3.779-.341-5.61zm18.012 66.643c-3.044 3.581-6.013 7.294-8.907 11.138-3.378-20.727-5.928-40.015-7.546-57.127 20.454-2.769 42.548-.902 61.839 5.65-16.686 10.904-31.716 24.259-45.386 40.339zm66.073-52.181c-7.666-16.349-18.16-37.612-28.992-56.141-3.148-5.384-6.119-10.201-8.942-14.492 18.492 11.888 41.853 31.705 68.412 58.235-4.849 1.57-9.72 3.326-14.666 5.306-5.425 2.17-10.684 4.544-15.812 7.092z"/><path d="m501.296 426.178c.197 0 .396-.008.596-.023 4.129-.325 7.214-3.936 6.889-8.065-2.717-34.563-7.174-66.695-13.324-96.343 2.891.659 5.675 1.14 8.289 1.405.257.026.513.039.765.039 3.803 0 7.062-2.881 7.453-6.745.417-4.121-2.585-7.8-6.706-8.217-4.049-.41-8.638-1.458-13.465-2.998-11.489-48.542-27.84-89.888-48.937-123.637 3.209-18.012 5.866-35.165 7.896-50.99.526-4.108-2.377-7.866-6.485-8.393-4.114-.528-7.866 2.376-8.394 6.485-1.417 11.049-3.151 22.773-5.165 34.988-16.043-21.735-34.272-39.5-54.501-53.153 32.089-11.064 72.104-9.105 99.352 5.662 1.136.616 2.359.908 3.566.908 2.663 0 5.242-1.422 6.601-3.928 1.974-3.642.621-8.194-3.021-10.167-8.535-4.626-18.036-8.152-28.072-10.588 1.496-20.376 3.932-67.359-12.267-84.861-4.574-4.942-10.46-7.555-17.021-7.555-24.11 0-63.251 27.433-116.349 81.513-11.856-2.755-23.939-4.42-37.026-5.142-4.124-.237-7.674 2.939-7.901 7.076-.229 4.136 2.939 7.673 7.075 7.902 23.185 1.279 42.175 5.466 63.501 14 35.599 14.247 66.147 40.122 90.797 76.908 20.945 31.259 37.374 70.025 49.179 115.9-9.028-4.514-17.687-10.104-24.16-15.917-3.083-2.769-7.826-2.511-10.591.57-2.768 3.082-2.513 7.824.569 10.591 10.11 9.078 24.528 17.513 38.568 23.112 6.939 31.261 11.896 65.539 14.821 102.751.307 3.929 3.592 6.912 7.468 6.912zm-61.524-336.515c-21.725-2.856-44.881-.967-65.67 5.732 36.444-75.88 50.568-80.222 51.294-80.393 2.376.012 4.217.858 5.961 2.742 4.662 5.038 11.775 21.076 8.415 71.919zm-114.223-3.546c26.56-26.531 49.921-46.348 68.413-58.236-2.824 4.291-5.795 9.109-8.943 14.493-10.852 18.562-21.362 39.864-29.031 56.223-5.148-2.628-10.404-5.026-15.772-7.175-4.947-1.979-9.817-3.736-14.667-5.305z"/><path d="m502.959 443.455c-4.138.191-7.337 3.7-7.146 7.838.789 17.098 1.188 35 1.188 53.208 0 4.142 3.357 7.5 7.5 7.5s7.5-3.358 7.5-7.5c0-18.438-.405-36.572-1.204-53.899-.192-4.138-3.716-7.339-7.838-7.147z"/></g></g></svg>