<svg id="Capa_1" enable-background="new 0 0 512.004 512.004" height="512" viewBox="0 0 512.004 512.004" width="512" xmlns="http://www.w3.org/2000/svg"><g><g><path d="m169.516 403.967h-57.39s-12.628 21.125-32.191 80.535l99.581 10z" fill="#c8d2dc"/><path d="m438.454 504.502c-23.158-74.744-38.577-100.535-38.577-100.535h-230.361v80.535h-89.581c-2.054 6.239-4.185 12.897-6.385 20z" fill="#a2abb8"/><path d="m148.984 129.65s-95.538-93.554-95.539-93.554c-24.161.001-6.493 72.934 11.097 130.182z" fill="#ffead9"/><path d="m53.446 36.095c-6.44 25.247 56.241 74.132 56.241 74.132-15.498 13.123-31.96 34.392-45.144 56.05 11.363 36.983 22.694 67.422 22.694 67.422l143.643-111.298z" fill="#f4dabd"/><path d="m433.016 163.925s44.962-102.14 25.542-127.829l-177.434 86.305z" fill="#ffead9"/><path d="m53.446 36.095c50.018 35.899 105.149 86.305 105.149 86.305h72.284c.001.001-120.918-86.305-177.433-86.305z" fill="#c8d2dc"/><path d="m458.558 36.095c5.221 28.857-27.542 106.83-27.542 106.83-24.423-32.921-36.372-35.893-63.873-32.8s-86.018 12.276-86.018 12.276l143.643 111.298s73.558-197.603 33.79-197.604z" fill="#f4dabd"/><path d="m458.558 36.095c-50.018 35.899-105.149 86.305-105.149 86.305h-72.284c-.001.001 120.918-86.305 177.433-86.305z" fill="#c8d2dc"/><path d="m435.867 420.854s10-87.834 10-117.288c0-73.404-50.476-187.475-99.546-205.179-26.253-9.472-52.605-14.938-90.319-14.938s-64.066 5.466-90.319 14.938c-49.07 17.704-129.546 131.775-129.546 205.179 0 40.749 17.367 82.501 40 117.318z" fill="#c8d2dc"/><path d="m346.321 98.387c49.07 17.704 89.546 131.775 89.546 205.179v117.288c22.637-34.806 40-76.542 40-117.288 0-73.404-80.476-187.475-129.546-205.179z" fill="#a2abb8"/><path d="m353.548 354.505c0 23.978-19.438 43.417-43.417 43.417-28.173 0-54.129-22.615-54.129-22.615s-25.956 22.615-54.129 22.615c-23.978 0-43.417-19.438-43.417-43.417 0 0-53.113-14.051-53.113 47.013 0 52.717 63.432 102.984 63.432 102.984l87.227-74.964s73.544 74.964 87.086 74.964c.047 0 .099-.006.146-.007.14-.185 63.427-41.306 63.427-102.976 0-61.064-53.113-47.014-53.113-47.014z" fill="#faf8f8"/><path d="m168.775 504.502c13.606 0 87.227-74.964 87.227-74.964-15.263 0-29.079-2.929-39.074-7.662-17.115 36.972-48.153 82.626-48.153 82.626z" fill="#e9edf1"/><path d="m76.137 420.883c31.564 48.556 73.374 83.619 92.638 83.619 0 0-92.638-122.226-92.638-200.936z" fill="#5f6c75"/><path d="m343.234 504.495c19.381-.171 61.12-35.188 92.633-83.642 0-43.703 0-104.998 0-117.288 0 78.616-92.409 200.635-92.633 200.93z" fill="#4e5a61"/><path d="m212.873 267.368c-9.56 16.559-85.197-27.11-75.636-43.669 9.56-16.558 85.196 27.11 75.636 43.669z" fill="#eec190"/><path d="m299.131 267.368c9.56 16.559 85.197-27.11 75.636-43.669s-85.196 27.11-75.636 43.669z" fill="#eec190"/><path d="m290.567 330.024c0 11.109-24.941 23.139-34.565 23.139s-34.565-12.03-34.565-23.139 69.13-11.109 69.13 0z" fill="#ab7b64"/></g><g><path d="m511.27 4.269c-1.785-3.738-6.266-5.32-10.001-3.534-13.215 6.313-28.956 16.344-45.236 27.927-34.849 1.366-89.265 30.353-130.244 55.488-21.771-5.675-43.745-8.201-69.787-8.201-26.045 0-48.021 2.527-69.795 8.203-71.631-43.944-110.153-54.686-130.248-55.498-16.275-11.58-32.012-21.607-45.224-27.919-3.741-1.787-8.215-.204-10.001 3.534-1.785 3.737-.203 8.215 3.534 10 10.368 4.953 22.554 12.468 35.414 21.318-.02.028-.042.053-.062.081-4.769 6.6-9.852 21.1.997 70.61 6.524 29.772 16.925 63.531 24.747 87.289-14.988 25.739-26.417 52.295-32.168 75.693-.988 4.022 1.471 8.084 5.493 9.073.602.148 1.203.219 1.796.219 3.372 0 6.437-2.291 7.277-5.712 9.15-37.23 33.655-83.124 63.952-119.771 2.64-3.192 2.191-7.92-1.002-10.559-3.191-2.638-7.92-2.192-10.559 1.001-8.671 10.488-16.887 21.722-24.453 33.311-34.832-108.975-26.115-129.331-23.921-132.369.055-.077.105-.125.157-.189 29.831 21.67 61.297 48.241 81.167 65.547-3.992 3.322-8.077 7.01-12.253 11.087-2.964 2.893-3.021 7.642-.128 10.605s7.641 3.022 10.606.128c4.517-4.41 8.931-8.34 13.196-11.777 5.55 4.929 8.834 7.922 9.009 8.082 1.438 1.315 3.251 1.965 5.059 1.965 2.032 0 4.058-.821 5.537-2.439 2.795-3.057 2.583-7.801-.475-10.596-.558-.51-2.87-2.619-6.572-5.933 3.935-2.386 7.67-4.237 11.145-5.491 28.157-10.158 54.407-14.493 87.774-14.493s59.617 4.334 87.774 14.493c3.503 1.264 7.24 3.115 11.15 5.486-3.706 3.317-6.02 5.428-6.578 5.938-3.058 2.795-3.27 7.539-.475 10.596 1.479 1.618 3.505 2.439 5.537 2.439 1.808 0 3.62-.649 5.059-1.965.175-.16 3.461-3.155 9.012-8.085 17.924 14.436 37.966 37.33 55.747 64.36 28.264 42.963 45.138 87.582 45.138 119.355 0 27.63-8.853 58.822-25 89.675v-89.675c0-22.76-8.57-44.958-24.131-62.505-12.44-14.028-27.752-23.17-40.859-24.631-12.646-11.177-42.782 4.667-52.348 10.19-10.396 6.002-43.525 26.948-33.394 44.499 1.958 3.392 6.172 7.435 15.129 7.434 20.743 0 62.002-23.821 72.372-41.784.854-1.48 1.492-2.883 1.956-4.21 4.776 1.572 10.349 4.554 16.063 9.087-8.344 17.23-38.656 37.433-58.543 45.124-3.863 1.494-5.784 5.837-4.29 9.701 1.15 2.974 3.988 4.796 6.997 4.796.899 0 1.814-.163 2.703-.507 20.115-7.78 51.297-27.346 64.236-48.305 7.668 9.078 19.108 26.713 19.108 51.111 0 21.631-7.457 46.95-18.096 72.08-3.056-8.743-7.896-15.716-14.525-20.819-18.391-14.159-43.075-7.849-44.116-7.572-3.29.87-5.582 3.847-5.582 7.25 0 19.805-16.112 35.917-35.917 35.917-20.186 0-39.768-13.468-46.629-18.714v-12.206c13.855-3.62 34.564-15.356 34.564-29.478 0-10.505-14.152-15.832-42.064-15.832s-42.064 5.327-42.064 15.832c0 14.122 20.709 25.858 34.564 29.478v12.205c-6.869 5.252-26.448 18.714-46.629 18.714-19.805 0-35.917-16.112-35.917-35.917 0-3.403-2.292-6.38-5.582-7.25-1.041-.275-25.724-6.587-44.116 7.572-6.629 5.103-11.469 12.076-14.525 20.819-10.639-25.13-18.096-50.449-18.096-72.08 0-24.398 11.44-42.033 19.108-51.111 12.94 20.959 44.121 40.525 64.236 48.305.889.344 1.804.507 2.703.507 3.009 0 5.847-1.823 6.997-4.796 1.494-3.863-.427-8.207-4.29-9.701-19.887-7.692-50.199-27.894-58.544-45.124 5.714-4.533 11.287-7.515 16.063-9.087.464 1.327 1.102 2.73 1.956 4.21 10.37 17.963 51.629 41.784 72.372 41.784 8.956 0 13.171-4.042 15.129-7.434 10.132-17.55-22.998-38.497-33.394-44.499-9.566-5.522-39.699-21.365-52.347-10.19-13.107 1.461-28.419 10.603-40.86 24.631-15.561 17.547-24.131 39.745-24.131 62.505v89.695c-16.147-30.866-25-62.066-25-89.695 0-4.142-3.357-7.5-7.5-7.5s-7.5 3.358-7.5 7.5c0 23.805 5.605 49.197 16.66 75.471 9.389 22.314 22.804 45.185 38.793 66.139.39.511.784 1.011 1.175 1.518-6.196 16.463-12.544 35.142-18.879 55.588-1.226 3.957.988 8.158 4.944 9.384.739.229 1.487.338 2.222.338 3.201 0 6.165-2.065 7.162-5.282 5.214-16.831 10.431-32.417 15.556-46.531 26.836 31.142 55.304 51.811 72.505 51.811h.005c4.005 0 11.469-.016 53.824-39.496 13.542-12.623 26.429-25.359 33.395-32.324 6.959 6.966 19.829 19.7 33.351 32.321 42.318 39.499 49.747 39.499 53.738 39.499.029 0 .06-.004.089-.004.016 0 .031.004.047.004.132 0 .263-.015.395-.022 19.958-.472 54.469-27.794 84.255-66.79 16.002-20.95 29.427-43.821 38.823-66.139 11.062-26.275 16.671-51.671 16.671-75.485 0-30.641-13.224-69.974-36.709-110.066 4.434-13.467 8.5-26.484 12.087-38.712 1.165-3.975-1.111-8.142-5.087-9.308-3.975-1.166-8.141 1.113-9.308 5.086-2.464 8.402-5.161 17.188-8.047 26.237-.182-.279-.359-.557-.542-.836-18.076-27.477-38.16-50.605-56.889-66.131 19.87-17.306 51.354-43.894 81.2-65.575.021.026.04.042.062.07 2.079 2.671 7.68 16.062-7.545 76.23-1.017 4.016 1.415 8.095 5.431 9.111.617.156 1.236.231 1.846.231 3.352 0 6.405-2.264 7.265-5.662 15.984-63.165 10.805-81.02 5.194-88.654 12.859-8.849 25.044-16.364 35.412-21.317 3.74-1.785 5.322-6.263 3.537-10zm-365.881 96.312c-14.968-13.115-37.438-32.304-61.199-50.821 22.011 7.302 50.145 20.964 82.707 40.259-1.252.432-2.502.86-3.761 1.314-5.611 2.024-11.54 5.119-17.747 9.248zm160.535 162.865c.904-2.967 6.71-10.014 18.525-18.127v13.972c-9.466 3.797-16.033 4.731-18.525 4.155zm34.443-11.987c-.312.18-.609.339-.918.515v-15.41c0-.061-.008-.12-.009-.18 14.839-7.659 25.245-9.529 28.534-8.763-1.111 3.647-9.626 13.458-27.607 23.838zm-134.287 11.987c-2.488.576-9.058-.359-18.525-4.156v-13.972c11.815 8.115 17.621 15.162 18.525 18.128zm-33.516-27.062c-.001.06-.009.119-.009.18v15.409c-.309-.175-.606-.334-.918-.514-17.98-10.38-26.496-20.191-27.608-23.838 3.297-.762 13.696 1.103 28.535 8.763zm57.461 95.7c4.263-1.408 13.408-2.891 25.977-2.891s21.714 1.483 25.977 2.891c-1.289 1.709-3.933 4.296-8.993 7.274-7.312 4.302-14.456 6.306-16.983 6.306s-9.672-2.004-16.983-6.306c-5.062-2.978-7.705-5.565-8.995-7.274zm-134.011 103.992c-4.377-5.736-8.502-11.555-12.377-17.425v-47.661c17.425 45.293 46.028 90.535 63.7 116.37-2.594-1.783-5.436-3.886-8.55-6.383-14.14-11.34-29.331-27.286-42.773-44.901zm176.913-.211c9.43-1.335 18.12-3.783 25.359-7.211 3.743-1.773 5.341-6.245 3.568-9.988-1.773-3.744-6.249-5.339-9.988-3.568-9.313 4.411-22.386 6.94-35.864 6.94s-26.551-2.53-35.864-6.94c-3.743-1.773-8.215-.176-9.988 3.568-1.772 3.744-.175 8.215 3.568 9.988 7.236 3.427 15.922 5.874 25.347 7.209-6.753 6.672-15.78 15.464-25.227 24.305-25.78 24.127-37.383 32.482-42.345 35.373-9.333-12.864-36.844-52.051-58.622-95.782.291-15.691 4.473-26.796 12.468-32.994 8.406-6.519 19.577-6.545 26.018-5.858 3.158 25.065 24.608 44.514 50.517 44.514 23.361 0 44.773-13.647 54.129-20.568 9.355 6.92 30.768 20.568 54.129 20.568 25.904 0 47.353-19.443 50.515-44.503 6.44-.677 17.587-.645 25.95 5.793 8.04 6.189 12.245 17.312 12.537 33.048-21.807 43.79-49.359 83.019-58.657 95.83-4.901-2.846-16.463-11.155-42.366-35.431-9.43-8.836-18.441-17.624-25.184-24.293zm143.026.22c-13.454 17.614-28.66 33.557-42.816 44.893-3.102 2.484-5.935 4.577-8.522 6.354 8.722-12.79 20.12-30.307 31.44-50.052 13.754-23.99 24.537-46.103 32.312-66.237v47.577c-3.886 5.883-8.023 11.716-12.414 17.465zm-67.087-344.752c-1.258-.454-2.509-.881-3.76-1.314 32.562-19.295 60.697-32.958 82.708-40.259-23.779 18.532-46.266 37.737-61.234 50.852-6.202-4.134-12.153-7.273-17.714-9.279z"/><path d="m436.92 475.332c-1.322-3.926-5.576-6.036-9.501-4.714-3.926 1.322-6.036 5.576-4.714 9.501 2.847 8.455 5.735 17.406 8.585 26.603.997 3.217 3.961 5.282 7.162 5.282.734 0 1.482-.109 2.222-.338 3.956-1.226 6.17-5.427 4.944-9.384-2.886-9.313-5.811-18.38-8.698-26.95z"/><path d="m212.274 198.727v-21.321c0-4.142-3.357-7.5-7.5-7.5s-7.5 3.358-7.5 7.5v21.321c0 4.142 3.357 7.5 7.5 7.5s7.5-3.358 7.5-7.5z"/><path d="m307.23 206.227c4.143 0 7.5-3.358 7.5-7.5v-21.321c0-4.142-3.357-7.5-7.5-7.5s-7.5 3.358-7.5 7.5v21.321c0 4.142 3.357 7.5 7.5 7.5z"/></g></g></svg>