<svg id="Capa_1" enable-background="new 0 0 512.002 512.002" height="512" viewBox="0 0 512.002 512.002" width="512" xmlns="http://www.w3.org/2000/svg"><g><g><path d="m389.515 403.965h-297.389s-12.628 21.125-32.191 80.535l375.519 10c-12.145-39.196-30.867-72.626-45.939-90.535z" fill="#7e8b96"/><path d="m458.453 504.5c-23.158-74.744-38.577-100.535-38.577-100.535h-30.361c5.571 12.829 13.326 32.488 22.652 60.837 3.192 9.703-4.032 19.698-14.246 19.698h-337.987c-2.054 6.239-4.185 12.897-6.385 20z" fill="#5f6c75"/><path d="m198.361 87.481c-33.143-33.807-83.559-79.981-111.703-79.981l18.566 103.071z" fill="#7e8b96"/><path d="m198.361 87.481c-22.087-14.301-54.77-13.124-83.136 3.09 0 0-17.095-61.841-28.566-83.071l.577 226.197 143.643-111.299c0 .001-13.383-15.399-32.518-34.917z" fill="#5f6c75"/><path d="m135.225 90.571s-29.89-63.503-48.566-83.071c-27.812 0-25.5 65.607-17.444 126.154z" fill="#e9edf1"/><path d="m158.594 122.399s-49.793-114.899-71.936-114.899c8.494 15.72 20.071 53.705 25.509 72.364 1.767 6.063-.429 12.612-5.556 16.3-11.273 8.109-25.065 20.893-37.397 37.491 6.902 51.878 18.021 100.043 18.021 100.043z" fill="#c8d2dc"/><path d="m425.344 7.5c-44.393 0-144.221 114.899-144.221 114.899l143.643 111.298z" fill="#7e8b96"/><path d="m428.874 143.235s22.747-113.951-3.53-135.735c-15.834 0-45.803 58.747-61.597 92.226z" fill="#e9edf1"/><path d="m425.344 7.5c5.519 34.272 3.542 66.624.96 87.531-1.295 10.482-12.653 16.296-21.998 11.375-10.901-5.741-25.554-10.522-40.56-6.68-6.293 13.339-10.339 22.673-10.339 22.673l71.359 111.299c.001-.001 52.22-226.198.578-226.198z" fill="#c8d2dc"/><path d="m479.501 339.775c0-60.494-59.625-208.758-115.44-240.118-31.41-11.085-62.938-17.482-108.06-17.482-45.123 0-76.65 6.397-108.06 17.482-58.708 20.719-140.44 183.624-140.44 244.118 0 0 18.029 20.213 48.972 44.095 43.067 29.396 111.831 58.63 189.528 58.63 152.552 0 233.5-106.725 233.5-106.725z" fill="#7e8b96"/><path d="m364.061 99.657c49.34 42.216 87.96 165.582 90.325 228.248.144 3.828-1.182 7.55-3.703 10.434-17.187 19.665-91.931 96.16-214.682 96.16-71.74 0-134.852-23.534-179.528-46.63 18.572 14.335 41.799 29.992 68.578 43.396l64.49 24.515c21.034 5.455 43.297 8.719 66.46 8.719 23.168 0 45.437-3.266 66.477-8.724l64.473-24.509c71.403-35.737 117.55-87.492 117.55-87.492 0-60.493-81.732-223.397-140.44-244.117z" fill="#5f6c75"/><path d="m204.649 367.201c37.089-43.242 51.352-66.52 51.352-89.905 0 23.386 14.263 46.664 51.352 89.905 16.978 19.795 24.622 36.281 26.579 49.992 0 0 53.017 14.071 58.011-29.002-9.405-48.772-68.589-81.48-82.813-116.826-12.097-29.966-28.351-43.847-53.129-43.846-24.778-.001-41.033 13.881-53.129 43.846-16.669 41.421-95.093 79.217-82.773 143.494 4.954 16.403 57.714 14.601 57.714 14.601-1.707-15.815 4.452-36.162 26.836-62.259z" fill="#faf8f8"/><path d="m391.943 388.192c-16.307 10.524-35.685 20.807-58.011 29.002 2.373 16.62-3.611 29.161-11.458 38.567 23.122-5.998 44.763-14.631 64.475-24.496 6.471-15.757 7.517-29.991 4.994-43.073z" fill="#e9edf1"/><path d="m120.099 414.86c1.013 5.284 2.63 10.744 4.954 16.403 19.718 9.869 41.359 18.516 64.49 24.515-5.793-6.939-10.572-15.585-11.73-26.316-20.422-3.5-39.753-8.604-57.714-14.602z" fill="#e9edf1"/><path d="m384.767 227.697s6.176 20.076-33.208 42.814c-27.293 15.758-42.429.854-42.429.854-9.56-16.558 66.077-60.226 75.637-43.668z" fill="#ddfdea"/><path d="m384.767 227.697s-5.851 14.539-37.508 32.816c-21.939 12.666-38.128 10.852-38.128 10.852 9.56 16.559 34.242 20.207 55.128 8.148s30.068-35.257 20.508-51.816z" fill="#beeedd"/><path d="m127.237 227.695c0 .001-.001.001-.001.002-5.545 9.604-4.774 21.439.917 32.042 19.682 19.683 55.221 18.078 64.719 1.627 1.162-2.012-3.753-12.906-7.587-15.737-20.671-15.261-52.107-28.217-58.048-17.934z" fill="#ddfdea"/><path d="m185.284 245.63c-.552 1.938-1.333 3.867-2.412 5.736-9.498 16.451-33.92 20.151-54.719 8.373 4.121 7.677 10.818 14.71 19.591 19.774 20.886 12.059 45.568 8.411 55.128-8.148 3.621-6.271-4.984-16.431-17.588-25.735z" fill="#beeedd"/></g><g><path d="m473.25 223.102c-1.845-3.709-6.346-5.221-10.055-3.375-3.709 1.845-5.22 6.346-3.375 10.055 22.054 44.344 36.075 86.438 37.119 111.123-2.779 2.944-8.436 8.757-16.538 16.217-17.582 16.188-45.581 39.187-81.125 59.116 8.588-45.013-23.537-78.187-49.945-105.45-5.584-5.764-11.041-11.403-15.951-16.942 1.776.188 3.567.284 5.37.284 9.869 0 20.028-2.791 29.258-8.12 11.561-6.674 20.402-16.603 24.896-27.956 4.733-11.96 4.15-24.073-1.642-34.106-1.958-3.392-6.172-7.434-15.128-7.434-18.481 0-53.23 18.908-67.927 35.736-12.717-21.895-29.604-32.231-52.205-32.23-.002 0-.001 0-.003 0-22.599 0-39.486 10.333-52.204 32.229-14.698-16.828-49.445-35.735-67.926-35.735-8.956 0-13.17 4.043-15.128 7.434-5.792 10.033-6.375 22.146-1.642 34.106 4.494 11.353 13.335 21.281 24.896 27.956 9.23 5.329 19.389 8.12 29.258 8.12 1.803 0 3.597-.096 5.374-.284-4.909 5.539-10.371 11.178-15.955 16.943-6.221 6.422-12.655 13.064-18.762 20.009-2.735 3.11-2.432 7.849.679 10.584 3.11 2.735 7.849 2.432 10.584-.679 5.869-6.673 12.174-13.183 18.272-19.478 15.349-15.846 29.847-30.812 36.381-47.05 11.08-27.445 24.889-39.155 46.175-39.154 21.286-.001 35.095 11.708 46.171 39.146 6.538 16.246 21.035 31.212 36.384 47.058 28.946 29.883 58.854 60.766 42.462 104.609-42.135 20.684-84.133 31.166-125.017 31.166-21.581 0-42.381-2.909-62.137-7.833-15.725-20.594-10.322-45.837 16.478-77.083 23.606-27.521 37.924-47.136 45.659-63.666 7.735 16.53 22.053 36.144 45.659 63.666 15.863 18.494 24.349 35.265 25.223 49.847.248 4.134 3.791 7.292 7.935 7.038 4.135-.248 7.286-3.8 7.038-7.935-1.075-17.925-10.768-37.68-28.811-58.715-36.198-42.202-48.954-63.651-49.518-83.625 3.037-.665 6.82-1.783 11.087-3.677 3.786-1.68 5.493-6.112 3.813-9.898-1.681-3.786-6.11-5.49-9.898-3.813-7.322 3.25-12.495 3.355-12.467 3.356-.041 0-.082 0-.123 0-.067 0-5.159-.112-12.467-3.356-3.787-1.679-8.217.027-9.898 3.813-1.68 3.786.027 8.218 3.813 9.898 4.267 1.894 8.05 3.011 11.087 3.677-.563 19.974-13.32 41.423-49.518 83.625-18.042 21.036-27.736 40.791-28.811 58.715-.464 7.747.67 15.182 3.354 22.252-14.909-4.891-29.118-10.831-42.497-17.398-8.037-21.399-5.826-41.25 6.886-62.249 2.145-3.543 1.012-8.155-2.532-10.3s-8.155-1.012-10.3 2.532c-12.155 20.079-16.241 39.986-12.328 60.404-20.815-11.685-39.193-24.526-54.55-36.576-3.258-2.558-7.973-1.988-10.53 1.271-2.557 3.258-1.988 7.973 1.271 10.53 9.064 7.113 19.15 14.49 30.143 21.763-6.604 14.291-18.168 42.192-32.677 89.018-1.226 3.957.988 8.158 4.944 9.384.739.229 1.487.338 2.222.338 3.2 0 6.165-2.065 7.162-5.282 13.678-44.147 24.597-70.968 31.119-85.321 44.165 27.046 100.817 50.6 164.169 50.6 47.253 0 95.727-13.151 144.073-39.089 6.966-3.737 13.663-7.604 20.087-11.532 6.521 14.347 17.444 41.172 31.128 85.341.997 3.217 3.961 5.282 7.162 5.282.735 0 1.483-.109 2.222-.338 3.957-1.226 6.17-5.427 4.944-9.384-14.511-46.837-26.078-74.739-32.681-89.027 24.413-16.131 44.034-32.584 57.625-45.098 12.421-11.437 19.253-19.07 19.538-19.39 1.225-1.374 1.902-3.15 1.902-4.991 0-26.373-14.849-72.612-38.751-120.672zm-321.756 49.917c-8.643-4.99-15.194-12.265-18.448-20.486-2.959-7.478-2.777-14.835.504-20.765 2.03-.843 8.839-.08 19.004 3.999v19.765c0 4.142 3.358 7.5 7.5 7.5s7.5-3.358 7.5-7.5v-12.447c.307.174.611.344.92.523 18.856 10.887 27.302 21.146 27.715 24.325-3.494 5.807-9.775 9.643-17.73 10.819-8.745 1.292-18.323-.744-26.965-5.733zm192.034-29.411c.31-.179.614-.349.92-.523v12.447c0 4.142 3.358 7.5 7.5 7.5s7.5-3.358 7.5-7.5v-19.764c10.167-4.078 16.977-4.842 19.004-3.999 3.281 5.93 3.463 13.287.504 20.765-3.254 8.221-9.805 15.496-18.448 20.486s-18.22 7.025-26.965 5.733c-7.956-1.176-14.236-5.012-17.73-10.819.413-3.18 8.859-13.439 27.715-24.326z"/><path d="m36.509 361.569c-10.752-9.594-18.138-17.164-21.445-20.666 1.21-28.651 19.88-80.413 47.225-130.509 30.716-56.272 63.668-95.025 88.148-103.665 33.873-11.954 65.443-17.054 105.564-17.054 40.122 0 71.692 5.101 105.564 17.055 23.155 8.172 54.591 44.194 84.09 96.36 2.039 3.606 6.616 4.876 10.22 2.836 3.605-2.039 4.875-6.615 2.836-10.22-4.646-8.216-9.397-16.125-14.195-23.656 4.827-28.373 8.104-53.645 9.792-75.428 9.394 2.144 18.264 5.352 26.155 9.628 3.643 1.974 8.194.621 10.167-3.02 1.974-3.642.622-8.194-3.02-10.167-9.705-5.26-20.718-9.081-32.364-11.489.032-.697.07-1.407.098-2.096 1.484-36.319-2.483-59.53-12.128-70.959-4.702-5.573-10.883-8.519-17.872-8.519-.326 0-.653.012-.981.034-23.691.709-61.535 27.145-112.538 78.613-17.397-2.707-35.573-3.971-55.823-3.971s-38.426 1.264-55.823 3.971c-51.706-52.177-89.898-78.647-113.521-78.647-6.468 0-12.288 2.542-16.832 7.353-3.936 4.167-15.701 16.63-13.075 74.223-11.645 2.407-22.657 6.229-32.361 11.488-3.642 1.974-4.994 6.525-3.02 10.167 1.973 3.641 6.524 4.995 10.167 3.02 27.453-14.878 66.753-16.837 98.723-5.912-18.249 12.019-35.906 32.829-50.542 53.508-1.954-12.558-3.59-24.518-4.87-35.685-.471-4.115-4.186-7.071-8.305-6.598-4.115.471-7.069 4.189-6.598 8.305 1.834 16.01 4.372 33.576 7.543 52.212-7.705 12.096-14.014 23.15-18.368 31.127-29.838 54.667-49.119 109.843-49.119 140.567 0 1.841.677 3.617 1.902 4.991.361.405 9.025 10.082 24.619 23.995 1.43 1.276 3.213 1.904 4.991 1.904 2.063 0 4.117-.846 5.599-2.507 2.758-3.091 2.488-7.831-.603-10.589zm395.779-207.727c-6.084-8.579-12.169-16.456-18.146-23.443-11.331-13.248-22.184-23.284-32.437-30.047 18.06-6.178 38.458-8.247 57.745-6.19-1.316 17.467-3.705 37.469-7.162 59.68zm8.052-74.539c-20.51-2.062-42.051-.008-61.364 6.18 6.357-12.781 13.854-27.06 21.366-39.541 17.402-28.916 24.454-30.827 25.049-30.939 2.545.013 4.51.997 6.361 3.19 7.083 8.393 9.934 29.607 8.588 61.11zm-46.392-51.387c-1.854 2.817-3.773 5.864-5.768 9.15-10.345 17.043-20.661 37.427-28.261 53.251-10.13-3.346-20.116-6.091-30.219-8.315 24.808-24.423 46.719-42.809 64.248-54.086zm-241.865 62.401c-7.6-15.824-17.916-36.208-28.261-53.251-1.995-3.287-3.915-6.333-5.768-9.15 17.529 11.276 39.441 29.664 64.249 54.087-10.104 2.223-20.09 4.967-30.22 8.314zm-80.415-11.015c-1.808-43.165 4.812-57.151 9.062-61.648 1.721-1.822 3.537-2.64 5.88-2.651.585.109 7.633 1.998 25.049 30.939 7.512 12.482 15.009 26.76 21.366 39.541-19.31-6.187-40.849-8.242-61.357-6.181z"/></g></g></svg>