<svg id="Capa_1" enable-background="new 0 0 512.004 512.004" height="512" viewBox="0 0 512.004 512.004" width="512" xmlns="http://www.w3.org/2000/svg"><g><g><path d="m369.516 376.628h-257.39s-12.628 21.125-32.191 80.535l335.519 10c-12.144-39.195-30.866-72.626-45.938-90.535z" fill="#a2abb8"/><path d="m438.454 477.163c-23.158-74.744-38.577-100.535-38.577-100.535h-30.361c5.571 12.829 13.326 32.488 22.652 60.837 3.192 9.703-4.032 19.698-14.246 19.698h-297.987c-2.054 6.239-4.185 12.897-6.385 20z" fill="#7e8b96"/><path d="m469.102 226.227c0-100.251-109.234-175.179-109.234-175.179-30.191-9.472-60.495-14.938-103.866-14.938s-73.675 5.466-103.866 14.938c-56.43 17.704-129.234 99.946-129.234 185.179 0 51.346 22.587 96.335 62.653 128.624 40.936 25.6 87.936 42.414 160.447 42.414 141.544 0 223.1-77.642 223.1-181.038z" fill="#a2abb8"/><path d="m359.868 51.049s89.234 84.787 89.234 175.179c0 103.396-81.556 171.038-223.1 171.038-55.259 0-102.899-11.834-140.447-32.414 40.616 32.732 99.193 52.414 170.447 52.414 141.544 0 233.1-77.642 233.1-181.038 0-85.234-72.805-167.476-129.234-185.179z" fill="#7e8b96"/><path d="m195.055 198.195c0-5.868-4.557-17.469-13.544-26.456-5.021-2.27-10.588-3.544-16.456-3.544-22.091 0-40 17.909-40 40 0 5.868 1.274 11.435 3.544 16.456 8.321 8.321 20.588 13.544 26.456 13.544 22.091 0 40-17.909 40-40z" fill="#efcb83"/><path d="m181.511 171.739c2.27 5.021 3.544 10.588 3.544 16.456 0 22.092-17.909 40-40 40-5.868 0-11.435-1.274-16.456-3.544 6.276 13.88 20.233 23.544 36.456 23.544 22.091 0 40-17.908 40-40 0-16.223-9.664-30.18-23.544-36.456z" fill="#e9a761"/><path d="m376.949 198.195c0-5.868-4.557-17.469-13.544-26.456-5.021-2.27-10.588-3.544-16.456-3.544-22.091 0-40 17.909-40 40 0 5.868 1.274 11.435 3.544 16.456 8.321 8.321 20.588 13.544 26.456 13.544 22.092 0 40-17.909 40-40z" fill="#efcb83"/><path d="m363.405 171.739c2.27 5.021 3.544 10.588 3.544 16.456 0 22.092-17.909 40-40 40-5.868 0-11.435-1.274-16.456-3.544 6.276 13.88 20.233 23.544 36.456 23.544 22.091 0 40-17.908 40-40 0-16.223-9.663-30.18-23.544-36.456z" fill="#e9a761"/><g fill="#c8d2dc"><path d="m442.144 113.801c-22.978 10.449-112.504-70.731-112.504-70.731s18.052-8.232 50.801-8.232c64.335 0 84.68 68.514 61.703 78.963z"/><path d="m69.86 113.801c22.978 10.449 112.504-70.731 112.504-70.731s-18.052-8.232-50.801-8.232c-64.335 0-84.681 68.514-61.703 78.963z"/></g></g><g><path d="m268.531 246.969c-7.322 3.25-12.495 3.355-12.467 3.356-.041 0-.082 0-.123 0-.067 0-5.159-.112-12.467-3.356-3.788-1.678-8.217.027-9.898 3.813-1.68 3.786.027 8.218 3.813 9.898 4.28 1.899 8.072 3.018 11.114 3.683v22.615c-1.98 4.904-15.837 35.79-46.582 35.79-4.142 0-7.5 3.358-7.5 7.5s3.358 7.5 7.5 7.5c17.589 0 33.542-7.574 46.133-21.904 3.126-3.558 5.775-7.239 7.949-10.698 2.173 3.459 4.823 7.141 7.949 10.698 12.591 14.33 28.544 21.904 46.133 21.904 4.142 0 7.5-3.358 7.5-7.5s-3.358-7.5-7.5-7.5c-30.769 0-44.623-30.936-46.582-35.784v-22.62c3.041-.665 6.834-1.784 11.114-3.683 3.786-1.68 5.493-6.112 3.813-9.898-1.682-3.786-6.111-5.491-9.899-3.814z"/><path d="m291.866 367.759c-9.314 4.411-22.386 6.94-35.864 6.94s-26.55-2.53-35.864-6.94c-3.743-1.772-8.215-.175-9.988 3.568-1.773 3.744-.175 8.215 3.568 9.988 11.417 5.406 26.434 8.384 42.284 8.384s30.868-2.978 42.284-8.384c3.744-1.773 5.341-6.245 3.568-9.988-1.772-3.744-6.244-5.34-9.988-3.568z"/><path d="m412.182 384.286c5.764-3.665 11.308-7.566 16.612-11.708 3.265-2.55 3.844-7.263 1.294-10.527-2.55-3.265-7.264-3.845-10.527-1.294-41.046 32.062-97.604 49.009-163.558 49.009-47.29 0-89.483-8.633-125.409-25.659-19.742-9.356-37.143-21.211-51.629-35.055 26.66-5.756 53.108-16.555 71.518-30.306 3.318-2.479 4-7.179 1.521-10.497s-7.18-4-10.497-1.521c-18.64 13.923-47.249 24.703-74.744 29.376-5.205-6.15-9.896-12.607-14.019-19.342-2.163-3.532-6.78-4.643-10.312-2.48-3.533 2.163-4.643 6.78-2.48 10.312 2.863 4.676 5.973 9.227 9.312 13.646-8.508.611-16.66.536-24.078-.344-4.111-.487-7.843 2.452-8.331 6.565-.488 4.114 2.452 7.843 6.565 8.331 4.862.576 9.965.854 15.25.854 7.173 0 14.667-.516 22.291-1.491 11.178 12.009 24.232 22.787 38.88 32.096-6.877 14.607-18.573 42.665-33.453 90.692-1.226 3.957.988 8.158 4.944 9.384.739.229 1.487.338 2.222.338 3.2 0 6.165-2.065 7.162-5.282 14.446-46.626 25.875-74.01 32.118-87.488 3.696 2.009 7.473 3.936 11.337 5.767 37.949 17.984 82.304 27.104 131.833 27.104 54.774 0 103.558-11.273 143.186-32.837 6.246 13.49 17.669 40.868 32.102 87.455.997 3.217 3.961 5.282 7.162 5.282.735 0 1.483-.109 2.222-.338 3.957-1.226 6.17-5.427 4.944-9.384-14.87-47.99-26.56-76.041-33.438-90.658z"/><path d="m157.555 195.41v25.569c0 4.142 3.358 7.5 7.5 7.5s7.5-3.358 7.5-7.5v-25.569c0-4.142-3.358-7.5-7.5-7.5s-7.5 3.358-7.5 7.5z"/><path d="m117.555 208.195c0 26.191 21.309 47.5 47.5 47.5s47.5-21.309 47.5-47.5-21.309-47.5-47.5-47.5-47.5 21.309-47.5 47.5zm80 0c0 17.92-14.58 32.5-32.5 32.5s-32.5-14.58-32.5-32.5 14.58-32.5 32.5-32.5 32.5 14.58 32.5 32.5z"/><path d="m511.468 281.083c-1.536-3.847-5.897-5.722-9.746-4.186-3.402 1.358-7.033 2.569-10.827 3.649 3.775-14.22 5.708-29.06 5.708-44.319 0-40.327-15.587-83.085-44.015-121.148 5.785-6.806 7.705-17.572 4.985-30.121-3.084-14.231-11.688-28.298-23.604-38.592-14.409-12.448-32.918-19.028-53.527-19.028-27.543 0-45.324 5.61-51.503 7.932-22.313-4.535-45.563-6.66-72.936-6.66s-50.623 2.125-72.936 6.66c-6.179-2.322-23.96-7.932-51.502-7.932-9.192 0-18.011 1.304-26.214 3.877-3.953 1.239-6.152 5.448-4.912 9.4s5.447 6.152 9.4 4.912c6.749-2.116 14.058-3.189 21.726-3.189 15.616 0 27.726 1.973 35.835 3.903-8.826 7.613-22.563 19.13-37.176 30.118-14.347 10.788-26.658 18.918-36.593 24.167-15.932 8.417-20.479 6.532-20.664 6.448-2.748-1.25-3.886-4.49-4.356-6.989-1.734-9.213 2.343-25.238 15.394-38.65 2.889-2.968 2.824-7.717-.145-10.605-2.968-2.889-7.717-2.825-10.605.145-14.613 15.014-22.403 35.865-19.387 51.886.918 4.878 2.832 9.046 5.569 12.292-28.44 38.069-44.035 80.837-44.035 121.174 0 15.208 1.916 30.064 5.692 44.315-3.789-1.079-7.414-2.288-10.812-3.644-3.849-1.535-8.211.338-9.746 4.186-1.535 3.847.339 8.21 4.186 9.746 18.441 7.36 42.107 11.04 65.773 11.04s47.332-3.68 65.773-11.04c3.847-1.536 5.721-5.899 4.186-9.746-1.535-3.846-5.896-5.721-9.746-4.186-25.073 10.008-62.017 12.452-92.905 7.344-4.908-15.256-7.4-31.395-7.4-48.015 0-37.778 15.054-78.132 42.477-114.098.584.045 1.174.082 1.788.082 13.427 0 33.961-10.847 64.57-33.862 21.477-16.149 41.108-33.422 46.624-38.34 21.367-4.358 43.718-6.399 70.141-6.399 26.422 0 48.773 2.041 70.139 6.398 2.478 2.212 7.803 6.918 14.984 12.99 3.164 2.676 7.896 2.278 10.57-.884 2.674-3.163 2.278-7.896-.884-10.57-2.26-1.911-4.342-3.692-6.208-5.302 8.113-1.932 20.222-3.904 35.838-3.904 16.957 0 32.075 5.318 43.721 15.378 9.506 8.213 16.341 19.3 18.75 30.418 2.015 9.298.458 16.869-3.873 18.839-.202.091-5.157 2.138-22.927-7.67-10.73-5.922-23.968-14.926-39.345-26.76-3.283-2.525-7.992-1.913-10.518 1.37s-1.913 7.992 1.37 10.518c15.977 12.295 29.853 21.717 41.245 28.005 11.907 6.572 21.189 9.79 28.456 9.79.622 0 1.222-.037 1.815-.084 27.417 35.963 42.467 76.312 42.467 114.086 0 16.661-2.518 32.774-7.43 48.02-30.882 5.102-67.81 2.655-92.876-7.349-3.849-1.535-8.211.338-9.746 4.186-1.535 3.847.339 8.21 4.186 9.746 18.441 7.36 42.107 11.04 65.773 11.04 8.912 0 17.824-.523 26.458-1.567-5.79 12.762-13.386 24.767-22.701 35.804-27.501-4.672-56.123-15.451-74.767-29.378-3.317-2.478-8.018-1.797-10.497 1.521s-1.798 8.018 1.521 10.497c27.895 20.836 74.237 34.9 111.814 34.9 5.281 0 10.39-.278 15.25-.854 4.113-.487 7.053-4.217 6.565-8.331-.487-4.113-4.21-7.054-8.331-6.565-7.414.878-15.561.953-24.064.343 9.548-12.669 17.138-26.377 22.697-40.874 7.793-1.7 15.156-3.874 21.829-6.537 3.845-1.536 5.719-5.9 4.184-9.747z"/><path d="m346.949 228.48c4.142 0 7.5-3.358 7.5-7.5v-25.57c0-4.142-3.358-7.5-7.5-7.5s-7.5 3.358-7.5 7.5v25.569c0 4.143 3.358 7.501 7.5 7.501z"/><path d="m299.449 208.195c0 26.191 21.309 47.5 47.5 47.5s47.5-21.309 47.5-47.5-21.309-47.5-47.5-47.5-47.5 21.309-47.5 47.5zm47.5-32.5c17.92 0 32.5 14.58 32.5 32.5s-14.58 32.5-32.5 32.5-32.5-14.58-32.5-32.5 14.58-32.5 32.5-32.5z"/><path d="m230.431 150.75c-9.45 0-16.151-1.09-24.485-6.838-9.837-6.785-15.258-17.981-16.13-25.513-.477-4.115-4.201-7.06-8.313-6.587-4.115.477-7.063 4.199-6.587 8.313 1.553 13.396 10.6 27.917 22.514 36.134 11.419 7.877 21.452 9.491 33.002 9.491 4.142 0 7.5-3.358 7.5-7.5s-3.359-7.5-7.501-7.5z"/><path d="m330.502 111.812c-4.113-.472-7.836 2.473-8.313 6.587-.873 7.531-6.293 18.728-16.13 25.513-8.334 5.749-15.035 6.838-24.485 6.838-4.142 0-7.5 3.358-7.5 7.5s3.358 7.5 7.5 7.5c11.55 0 21.583-1.614 33.002-9.491 11.914-8.217 20.961-22.738 22.514-36.134.476-4.114-2.473-7.836-6.588-8.313z"/></g></g></svg>