<svg id="Capa_1" enable-background="new 0 0 512.001 512.001" height="512" viewBox="0 0 512.001 512.001" width="512" xmlns="http://www.w3.org/2000/svg"><g><g><path d="m300.082 367.604h-88.163s-37.086 58.181-105.98 58.181c-5.626 18.226-10.224 38.25-12.138 58.715l305.364 10c0-22.453-6.349-47.423-15.158-70.768-54.718-10.319-83.925-56.128-83.925-56.128z" fill="#faf8f8"/><path d="m406.065 425.784-35.879-5.535c3.741 14.309 6.666 29.431 8.069 44.796.953 10.439-7.234 19.455-17.716 19.455h-266.738c-.621 6.636-.966 13.318-.966 20h326.33c0-27.29-5.648-54.58-13.1-78.716z" fill="#e9edf1"/><path d="m211.919 367.604h88.163s24.303 38.118 70.105 52.644c4.409 1.398 19.016 2.578 23.821 3.484-13.111-34.746-41.673-65.891-52.884-79.767h-199.452s-21.27 34.967-35.734 81.82c68.895 0 105.981-58.181 105.981-58.181z" fill="#b78c7a"/><path d="m406.065 425.784c-14.466-46.853-35.737-81.819-35.737-81.819h-29.205c8.728 17.476 20.863 44.924 29.063 76.284 10.781 3.42 22.752 5.535 35.879 5.535z" fill="#ab7b64"/><path d="m199.812 88.964c-33.106-33.922-84.598-81.464-113.154-81.464l24.566 116.669z" fill="#ab7b64"/><path d="m199.812 88.964c-16.756-13.596-46.964-14.594-77.344 6.482-13.96-35.498-28.088-74.586-35.81-87.946l.577 226.197 143.643-111.299c0 .001-12.708-14.624-31.066-33.434z" fill="#9a695e"/><path d="m139.606 106.833c-13.96-35.497-37.876-88.475-52.948-99.333-30.843 0-24.638 80.68-14.638 145.672z" fill="#faf8f8"/><path d="m158.594 122.399s-49.793-114.899-71.936-114.899c6.968 12.055 19.151 45.057 31.72 77.468 2.315 5.97.623 12.779-4.292 16.883-15.752 13.151-30.083 31.427-42.066 51.321 6.744 43.829 15.215 80.525 15.215 80.525z" fill="#e9edf1"/><path d="m425.343 7.5c-44.393 0-144.221 114.899-144.221 114.899l143.643 111.298z" fill="#ab7b64"/><path d="m422.833 131.848c-23.098-36.646-77.009-68.608-110.827-42.924l41.401 33.475z" fill="#9a695e"/><path d="m431.014 153.313c12.743-67.772 10.294-133.843-5.671-145.813-13.894 0-38.671 45.233-55.206 78.937z" fill="#faf8f8"/><path d="m425.343 7.5c4.658 12.067 8.25 44.179 2.582 91.438-1.456 12.14-16.057 17.528-25.05 9.245-9.758-8.988-21.055-16.636-32.738-21.746-9.817 20.012-16.73 35.961-16.73 35.961l71.359 111.299s52.219-226.197.577-226.197z" fill="#e9edf1"/><path d="m343.932 98.385c-25.56-9.472-51.214-14.938-87.932-14.938s-62.372 5.466-87.931 14.938c-47.772 17.704-107.082 92.057-107.082 175.39 0 34.016 17.318 61.785 43.299 82.993.003.001.006.001.009.002 25.06 15.511 91.185 35.133 151.706 35.133 81.777 0 175.014-41.145 175.014-128.128-.001-91.171-54.055-149.209-87.083-165.39z" fill="#b78c7a"/><path d="m343.932 98.385c17.028 8.342 77.082 72.057 77.082 155.39 0 86.983-93.236 128.128-175.014 128.128-60.521 0-119.577-14.992-141.706-25.133v.006c40.456 33.018 101.912 50.127 151.705 50.127 81.777 0 195.014-46.145 195.014-133.128.001-83.332-59.309-157.686-107.081-175.39z" fill="#ab7b64"/><path d="m182.363 205.55c-20.886-12.059-45.568-8.411-55.128 8.148-5.545 9.604-4.774 21.439.917 32.042 19.683 19.682 55.221 18.078 64.719 1.627 5.545-9.605 4.776-28.633-10.508-41.817z" fill="#efcb83"/><path d="m182.363 205.55s8.72 17.593.508 31.816c-9.498 16.451-33.92 20.151-54.719 8.373 4.122 7.677 10.818 14.71 19.591 19.774 20.886 12.059 45.568 8.411 55.128-8.148 9.56-16.558.379-39.757-20.508-51.815z" fill="#e9a761"/><path d="m384.766 213.697s6.176 20.076-33.208 42.814c-27.293 15.758-42.429.854-42.429.854-9.56-16.559-.378-39.758 20.508-51.816s45.569-8.41 55.129 8.148z" fill="#efcb83"/><path d="m384.766 213.697s-5.851 14.539-37.508 32.816c-21.939 12.666-38.128 10.852-38.128 10.852 9.56 16.559 34.242 20.207 55.128 8.148s30.068-35.257 20.508-51.816z" fill="#e9a761"/></g><g><path d="m395.313 374.948c41.347-26.427 63.201-61.412 63.201-101.173 0-26.982-6.145-54.881-17.656-81.253 4.801-25.666 8.51-49.597 11.021-71.141.479-4.114-2.467-7.838-6.581-8.318-4.111-.476-7.838 2.467-8.317 6.581-1.824 15.644-4.295 32.589-7.366 50.569-2.511-4.371-5.171-8.677-7.986-12.901-14.804-22.22-33.022-40.97-51.512-53.509 7.412-15.753 17.867-36.917 28.522-55.001 18.659-31.666 26.141-33.686 26.753-33.8 2.35.012 4.172.836 5.898 2.671 4.528 4.816 11.671 20.297 8.62 69.866-.255 4.134 2.891 7.692 7.024 7.947.157.01.312.015.468.015 3.932 0 7.234-3.062 7.479-7.04.967-15.692 3.905-63.443-12.663-81.064-4.551-4.839-10.386-7.397-16.875-7.397-23.975 0-62.887 27.197-115.655 80.808-16.683-3.334-33.991-4.861-53.688-4.861s-37.005 1.527-53.688 4.861c-52.767-53.611-91.679-80.808-115.654-80.808-7.071 0-13.306 3.011-18.03 8.707-10.54 12.705-14.237 39.827-11.304 82.914 2.381 34.98 8.774 73.932 13.815 100.885-1.152 2.632-2.264 5.279-3.312 7.948-1.513 3.856.386 8.208 4.241 9.722 3.855 1.515 8.208-.385 9.722-4.241 18.274-46.56 54.825-87.894 88.885-100.516 25.221-9.347 48.884-13.746 77.825-14.38v50.095c0 4.142 3.358 7.5 7.5 7.5 4.143 0 7.5-3.358 7.5-7.5v-50.096c28.941.634 52.604 5.033 77.825 14.38 23.036 8.537 48.39 31.045 67.82 60.21 22.163 33.265 34.368 71.672 34.368 108.147 0 43.444-30.604 72.125-56.279 88.535-31.477 20.118-74.868 33.79-116.072 36.571-4.133.279-7.257 3.855-6.979 7.988.268 3.961 3.563 6.996 7.476 6.996.17 0 .341-.006.513-.018 17.949-1.212 36-4.264 53.388-8.915 22.492 17.354 48.23 27.044 74.924 28.23 6.533 22.371 11.181 46.872 11.181 71.339 0 4.142 3.357 7.5 7.5 7.5s7.5-3.358 7.5-7.5c0-48.206-16.81-96.052-31.861-129.234.169-.107.341-.212.509-.319zm-284.374-244.007c-10.784 11.818-20.406 25.096-28.555 39.274-13.782-80.725-14.709-136.865-2.212-151.932 1.872-2.256 3.86-3.268 6.438-3.281.612.114 8.092 2.132 26.752 33.799 10.653 18.081 21.109 39.245 28.521 54.998-10.566 7.155-21.102 16.357-30.944 27.142zm54.523-39.588c-3.499 1.297-7.054 2.885-10.636 4.727-7.706-16.316-18.366-37.766-29.229-56.055-2.637-4.439-5.147-8.473-7.548-12.122 18.213 11.713 41.153 31.111 67.192 57.01-6.559 1.84-13.115 3.97-19.779 6.44zm161.297-6.441c26.039-25.899 48.98-45.298 67.193-57.011-2.401 3.65-4.912 7.684-7.548 12.123-10.864 18.29-21.523 39.739-29.229 56.054-3.57-1.836-7.124-3.424-10.636-4.726-6.664-2.469-13.22-4.599-19.78-6.44zm68.855 332.886c-18.336-1.685-35.719-7.852-51.917-18.388 13.423-4.587 26.252-10.133 38.094-16.523 4.66 10.372 9.464 22.168 13.823 34.911z"/><path d="m211.919 360.104c-19.175 0-34.774-15.6-34.774-34.774 0-6.97 2.052-13.691 5.935-19.438 2.319-3.432 1.417-8.094-2.016-10.413-3.432-2.32-8.094-1.417-10.413 2.016-5.564 8.236-8.506 17.861-8.506 27.835 0 27.445 22.329 49.774 49.774 49.774 20.97 0 36.23-11.108 44.082-18.524 7.851 7.416 23.111 18.524 44.081 18.524 27.445 0 49.774-22.329 49.774-49.774 0-9.975-2.941-19.6-8.505-27.835-2.318-3.432-6.982-4.335-10.414-2.016s-4.334 6.981-2.016 10.413c3.883 5.746 5.935 12.467 5.935 19.438 0 19.174-15.6 34.774-34.774 34.774-18.938 0-32.254-12.571-36.581-17.286v-21.118c3.041-.665 6.834-1.784 11.113-3.683 3.786-1.68 5.493-6.111 3.813-9.897s-6.113-5.492-9.897-3.812c-7.322 3.25-12.495 3.355-12.468 3.355-.041 0-.082 0-.123 0-.067 0-5.159-.112-12.467-3.356-3.788-1.678-8.218.027-9.898 3.813s.027 8.218 3.813 9.898c4.28 1.899 8.072 3.018 11.114 3.683v21.116c-4.346 4.733-17.657 17.287-36.582 17.287z"/><path d="m221.489 179.902c-4.142 0-7.5 3.358-7.5 7.5v13.365c0 4.142 3.358 7.5 7.5 7.5s7.5-3.358 7.5-7.5v-13.365c0-4.142-3.358-7.5-7.5-7.5z"/><path d="m290.512 179.902c-4.143 0-7.5 3.358-7.5 7.5v13.365c0 4.142 3.357 7.5 7.5 7.5s7.5-3.358 7.5-7.5v-13.365c0-4.142-3.357-7.5-7.5-7.5z"/><path d="m186.113 199.054c-24.436-14.107-53.762-9.221-65.374 10.893-5.792 10.033-6.375 22.146-1.642 34.106 4.494 11.353 13.335 21.281 24.896 27.956 9.23 5.329 19.389 8.12 29.258 8.12 2.491 0 4.965-.178 7.399-.538 12.725-1.881 22.923-8.442 28.715-18.475 5.793-10.033 6.376-22.145 1.642-34.105-4.492-11.354-13.333-21.282-24.894-27.957zm10.263 54.562c-3.455 5.984-9.818 9.939-17.918 11.136-8.747 1.293-18.322-.744-26.965-5.733-8.643-4.99-15.194-12.265-18.448-20.486-3.013-7.613-2.77-15.102.685-21.085 4.373-7.573 13.073-11.547 22.999-11.547 3.431 0 7.009.484 10.604 1.449v31.933c0 4.142 3.358 7.5 7.5 7.5s7.5-3.358 7.5-7.5v-24.85c6.799 4.8 11.961 11.104 14.729 18.098 3.012 7.613 2.769 15.101-.686 21.085z"/><path d="m302.634 261.116c7.129 12.348 20.931 18.956 36.182 18.956 9.592 0 19.758-2.616 29.192-8.062 11.561-6.674 20.401-16.603 24.895-27.956 4.734-11.961 4.151-24.073-1.642-34.106-11.613-20.114-40.94-25-65.373-10.893-24.434 14.107-34.866 41.947-23.254 62.061zm27.034-46.682v24.848c0 4.142 3.357 7.5 7.5 7.5s7.5-3.358 7.5-7.5v-31.937c13.997-3.757 27.718-.089 33.603 10.102 3.455 5.984 3.698 13.472.685 21.085-3.253 8.221-9.805 15.496-18.447 20.486-17.272 9.972-37.407 7.547-44.884-5.403-6.916-11.979-.61-28.828 14.043-39.181z"/><path d="m381.06 458.059c-9.746-10.929-27.216-23.957-55.09-23.957-24.19 0-49.596 14.388-69.907 33.613-22.512-21.411-47.831-33.613-70.033-33.613-27.874 0-45.343 13.028-55.09 23.957-10.491 11.764-14.427 23.62-14.59 24.119-1.278 3.928.864 8.137 4.788 9.431.777.256 1.566.378 2.342.378 3.143 0 6.075-1.996 7.125-5.139.515-1.541 13.094-37.746 55.425-37.746 18.085 0 40.125 10.927 59.612 29.403-6.302 7.123-11.871 14.614-16.432 22.087-2.158 3.536-1.041 8.151 2.495 10.309 1.22.745 2.568 1.099 3.9 1.099 2.528 0 4.996-1.278 6.409-3.594 9.732-15.947 23.407-30.757 38.504-41.704 15.654-11.351 31.797-17.602 45.452-17.602 42.331 0 54.91 36.205 55.416 37.72 1.282 3.939 5.52 6.091 9.453 4.81 3.939-1.282 6.093-5.515 4.811-9.454-.163-.497-4.099-12.353-14.59-24.117z"/><path d="m186.439 404.932c17.432 4.662 35.531 7.718 53.525 8.923.17.011.34.017.508.017 3.914 0 7.21-3.037 7.476-7 .277-4.133-2.85-7.708-6.982-7.984-41.218-2.76-84.637-16.422-116.145-36.544-25.699-16.413-56.334-45.103-56.334-88.57 0-12.082 1.317-24.426 3.915-36.689.859-4.052-1.73-8.033-5.783-8.892-4.051-.856-8.033 1.731-8.892 5.783-2.814 13.283-4.241 26.673-4.241 39.797 0 39.782 21.875 74.78 63.26 101.211.148.095.3.186.448.281-15.051 33.182-31.86 81.028-31.86 129.233 0 4.142 3.358 7.5 7.5 7.5s7.5-3.358 7.5-7.5c0-24.467 4.648-48.968 11.18-71.339 26.696-1.183 52.433-10.873 74.925-28.227zm-18.136-5.521c-16.199 10.535-33.581 16.702-51.916 18.387 4.359-12.744 9.163-24.539 13.823-34.91 11.842 6.391 24.671 11.936 38.093 16.523z"/></g></g></svg>