<svg id="Capa_1" enable-background="new 0 0 512.002 512.002" height="512" viewBox="0 0 512.002 512.002" width="512" xmlns="http://www.w3.org/2000/svg"><g><g><path d="m361.598 343.965h-236.028s9.251 71.303-6.661 140.535l263.544 10z" fill="#ffead9"/><path d="m398.453 504.5c-23.158-74.744-12.021-160.535-12.021-160.535h-24.834c-2.867 36.794-4.122 84.114 2.889 122.88 1.664 9.2-5.408 17.655-14.757 17.655h-230.82c-1.542 6.708-3.315 13.397-5.36 20z" fill="#f4dabd"/><path d="m199.812 88.964c-33.105-33.922-84.597-81.464-113.154-81.464l24.566 116.669z" fill="#9a695e"/><path d="m199.812 88.964c-16.756-13.596-46.964-14.594-77.344 6.482-13.96-35.498-28.087-74.586-35.81-87.946l.577 226.197 143.643-111.299c.001.001-12.707-14.624-31.066-33.434z" fill="#855b51"/><path d="m139.606 106.833c-13.96-35.497-37.875-88.475-52.948-99.333-30.843 0-24.638 80.68-14.638 145.672z" fill="#eaa598"/><path d="m158.594 122.399s-49.793-114.899-71.936-114.899c6.968 12.055 19.151 45.057 31.72 77.468 2.315 5.97.623 12.779-4.292 16.883-15.752 13.151-30.083 31.427-42.066 51.321 6.744 43.829 15.215 80.525 15.215 80.525z" fill="#b78c7a"/><path d="m425.344 7.5c-44.393 0-144.221 114.899-144.221 114.899l143.643 111.298z" fill="#9a695e"/><path d="m422.834 131.848c-23.098-36.646-77.009-68.608-110.827-42.924l41.401 33.475z" fill="#855b51"/><path d="m431.015 153.313c12.743-67.772 10.294-133.843-5.671-145.813-13.894 0-38.671 45.233-55.206 78.937z" fill="#eaa598"/><path d="m425.344 7.5c4.658 12.067 8.25 44.179 2.582 91.438-1.456 12.14-16.057 17.528-25.05 9.245-9.758-8.988-21.055-16.636-32.738-21.746-9.817 20.012-16.73 35.961-16.73 35.961l71.359 111.299s52.219-226.197.577-226.197z" fill="#b78c7a"/><path d="m431.015 263.775c0-91.171-54.054-149.209-87.082-165.39-25.56-9.472-51.214-14.938-87.932-14.938s-62.372 5.466-87.931 14.938c-47.772 17.704-107.082 92.057-107.082 175.39 0 43.603 28.457 81.968 67.14 109.391 25.06 15.511 67.353 28.737 127.874 28.737 81.776 0 175.013-61.144 175.013-148.128z" fill="#ffead9"/><path d="m343.933 98.385c17.028 8.342 77.082 72.057 77.082 155.39 0 86.983-93.236 148.128-175.014 148.128-60.521 0-95.745-8.595-117.874-18.737 38.484 27.283 87.09 43.737 127.874 43.737 81.777 0 195.014-66.145 195.014-153.128 0-83.332-59.31-157.686-107.082-175.39z" fill="#f4dabd"/><path d="m256.001 381.375c52.401 0 155.014-32.242 155.014-97.6 0-47.384-73.846-58.462-73.846-58.462-17.533-51.514-36.97-85.368-81.168-85.368s-63.635 33.854-81.168 85.368c0 0-73.846 11.078-73.846 58.462 0 65.358 102.613 97.6 155.014 97.6z" fill="#9a695e"/><path d="m182.364 225.55c-20.886-12.059-45.568-8.411-55.128 8.148-5.545 9.604-4.774 21.439.917 32.042 19.683 19.682 55.221 18.078 64.719 1.627 5.545-9.605 4.776-28.633-10.508-41.817z" fill="#beeedd"/><path d="m182.364 225.55s8.72 17.593.508 31.816c-9.498 16.451-33.92 20.151-54.719 8.373 4.122 7.677 10.818 14.71 19.591 19.774 20.886 12.059 45.568 8.411 55.128-8.148 9.56-16.558.378-39.757-20.508-51.815z" fill="#94ccd4"/><path d="m384.767 233.697s6.176 20.076-33.208 42.814c-27.293 15.758-42.429.854-42.429.854-9.56-16.559-.378-39.758 20.508-51.816s45.569-8.41 55.129 8.148z" fill="#beeedd"/><path d="m384.767 233.697s-5.851 14.539-37.508 32.816c-21.939 12.666-38.128 10.852-38.128 10.852 9.56 16.559 34.242 20.207 55.128 8.148s30.068-35.257 20.508-51.816z" fill="#94ccd4"/><path d="m311.222 371.682c0 30.498-24.723 55.221-55.221 55.221s-55.221-24.723-55.221-55.221l55.221-20z" fill="#855b51"/><path d="m335.137 321.694h-158.272c-4.558 6.747-7.22 14.881-7.22 23.636 0 23.347 18.927 42.274 42.274 42.274 27.431 0 44.082-22.019 44.082-22.019s16.65 22.019 44.082 22.019c23.347 0 42.274-18.927 42.274-42.274 0-8.755-2.662-16.889-7.22-23.636z" fill="#9a695e"/></g><g><path d="m213.989 207.402v13.365c0 4.142 3.357 7.5 7.5 7.5s7.5-3.358 7.5-7.5v-13.365c0-4.142-3.357-7.5-7.5-7.5s-7.5 3.358-7.5 7.5z"/><path d="m298.013 220.768v-13.365c0-4.142-3.357-7.5-7.5-7.5s-7.5 3.358-7.5 7.5v13.365c0 4.142 3.357 7.5 7.5 7.5s7.5-3.358 7.5-7.5z"/><path d="m458.515 273.775c0-26.983-6.146-54.884-17.657-81.257 4.656-24.896 8.293-48.188 10.799-69.232.49-4.113-2.447-7.844-6.561-8.334-4.1-.496-7.845 2.446-8.334 6.561-1.8 15.115-4.203 31.437-7.15 48.694-2.51-4.368-5.169-8.672-7.982-12.895-14.804-22.22-33.022-40.97-51.512-53.509 7.412-15.753 17.867-36.917 28.522-55.001 18.659-31.665 26.141-33.686 26.753-33.8 2.355.012 4.181.84 5.91 2.684 4.583 4.888 11.784 20.641 8.522 71.222-.267 4.133 2.868 7.7 7.002 7.967.164.011.327.016.49.016 3.921 0 7.221-3.049 7.477-7.018 1.03-15.982 4.167-64.618-12.549-82.447-4.555-4.858-10.399-7.426-16.901-7.426-23.975 0-62.887 27.197-115.655 80.808-16.683-3.334-33.991-4.861-53.688-4.861s-37.005 1.527-53.688 4.861c-52.768-53.611-91.679-80.808-115.655-80.808-6.728 0-16.086 2.716-22.456 15.657-1.829 3.716-.299 8.212 3.417 10.041 3.717 1.83 8.212.3 10.042-3.417 3.154-6.408 6.429-7.268 8.943-7.28.555.099 8.018 1.998 26.758 33.801 10.655 18.083 21.11 39.248 28.522 55-18.49 12.539-36.708 31.288-51.512 53.509-2.816 4.226-5.476 8.534-7.989 12.906-6.833-39.94-12.933-87.666-10.488-120.879.305-4.131-2.798-7.727-6.929-8.031-4.143-.301-7.727 2.799-8.03 6.929-2.978 40.45 6.021 100.531 14.206 144.285-11.51 26.372-17.655 54.271-17.655 81.253 0 29.942 12.708 59.718 36.75 86.11 8.779 9.636 19.072 18.756 30.451 27.107.458 30.443-1.709 74.639-14.303 115.289-1.226 3.957.988 8.158 4.944 9.384.739.229 1.486.338 2.222.338 3.201 0 6.165-2.065 7.162-5.282 11.788-38.05 14.849-78.792 15.024-109.544 11.747 7.332 24.336 13.855 37.442 19.296 3.826 1.587 8.214-.226 9.803-4.051 1.588-3.825-.226-8.214-4.051-9.802-50.948-21.152-110.443-67.587-110.443-128.843 0-36.475 12.205-74.883 34.368-108.147 19.431-29.165 44.784-51.673 67.82-60.209 27.369-10.143 52.888-14.471 85.325-14.471s57.956 4.328 85.325 14.471c23.036 8.537 48.39 31.045 67.82 60.21 22.163 33.265 34.368 71.672 34.368 108.147 0 37.252-22.618 73.856-63.688 103.071-22.906 16.294-49.875 28.752-76.479 35.862 5.04-5.773 9.059-12.492 11.718-19.913 12.075-3.821 22.164-12.134 28.317-22.965 48.468-20.388 75.132-50.872 75.132-86.055 0-16.616-8.006-31.422-23.179-43.004-.763-3.787-2.112-7.427-4.073-10.824-9.321-16.144-30.055-22.467-50.51-17.043-9.26-25.428-17.971-42.028-28.436-54.429-14.78-17.515-33.201-26.029-56.315-26.029-4.143 0-7.5 3.358-7.5 7.5s3.357 7.5 7.5 7.5c36.672 0 54.49 25.904 70.843 71.084-.318.176-.639.342-.955.525-24.435 14.107-34.866 41.948-23.254 62.062 7.129 12.348 20.931 18.956 36.182 18.956 9.592 0 19.758-2.616 29.192-8.062 11.561-6.674 20.401-16.603 24.895-27.956.521-1.316.966-2.634 1.359-3.952 6.147 7.045 9.253 14.969 9.253 23.673 0 32.722-29.349 54.339-53.924 66.7.175-1.692.266-3.408.266-5.145 0-9.975-2.941-19.6-8.505-27.835-2.318-3.432-6.982-4.335-10.414-2.016s-4.334 6.981-2.016 10.413c3.883 5.746 5.935 12.467 5.935 19.438 0 19.174-15.6 34.774-34.774 34.774-18.938 0-32.254-12.571-36.581-17.286v-21.121c3.041-.665 6.834-1.784 11.113-3.683 3.786-1.68 5.493-6.111 3.813-9.897s-6.113-5.492-9.897-3.812c-7.322 3.25-12.495 3.355-12.512 3.355-.052 0-5.225-.106-12.547-3.355-3.783-1.681-8.218.026-9.897 3.812s.027 8.217 3.813 9.897c4.279 1.899 8.072 3.019 11.113 3.683v21.141c-4.298 4.733-17.481 17.263-36.581 17.263-19.175 0-34.774-15.6-34.774-34.774 0-6.97 2.052-13.691 5.935-19.438 2.318-3.432 1.416-8.094-2.016-10.413-3.435-2.321-8.096-1.416-10.414 2.016-5.563 8.235-8.505 17.86-8.505 27.835 0 1.737.091 3.453.266 5.145-24.574-12.361-53.924-33.978-53.924-66.7 0-8.704 3.105-16.628 9.253-23.673.392 1.317.838 2.635 1.359 3.952 4.493 11.353 13.334 21.281 24.895 27.956 9.436 5.448 19.6 8.062 29.192 8.062 15.249 0 29.054-6.609 36.182-18.956 11.612-20.114 1.181-47.954-23.254-62.062-.318-.183-.64-.35-.959-.527 9.541-26.44 21.367-51.239 40.296-63.019 3.517-2.189 4.594-6.814 2.404-10.331-2.189-3.518-6.814-4.592-10.33-2.405-22.521 14.016-35.828 41.294-46.284 70.129-20.453-5.42-41.18.904-50.5 17.046-1.962 3.397-3.311 7.037-4.073 10.824-15.173 11.582-23.179 26.387-23.179 43.004 0 35.183 26.664 65.667 75.132 86.055 6.153 10.832 16.243 19.146 28.319 22.966 8.833 24.701 32.518 41.607 59.063 41.607 38.143 0 83.027-14.043 120.265-37.192.176 30.375 3.187 71.306 15.023 109.509.997 3.217 3.961 5.282 7.162 5.282.734 0 1.482-.109 2.222-.338 3.956-1.226 6.17-5.427 4.944-9.384-12.568-40.567-14.723-84.697-14.316-114.574.003-.217-.009-.43-.024-.642 43.378-31.799 67.234-71.919 67.234-113.289zm-293.052-182.422c-3.513 1.302-7.066 2.89-10.636 4.726-7.705-16.315-18.365-37.764-29.229-56.054-2.638-4.442-5.149-8.473-7.551-12.125 18.213 11.713 41.155 31.112 67.196 57.012-6.56 1.841-13.116 3.971-19.78 6.441zm161.297-6.441c26.041-25.901 48.982-45.3 67.196-57.012-2.403 3.652-4.913 7.683-7.551 12.125-10.864 18.29-21.523 39.739-29.229 56.054-3.57-1.836-7.124-3.424-10.636-4.726-6.665-2.47-13.221-4.6-19.78-6.441zm52.196 173.621c-3.253 8.221-9.805 15.496-18.447 20.486-17.271 9.972-37.406 7.547-44.884-5.403-6.916-11.979-.609-28.829 14.044-39.182v24.848c0 4.142 3.357 7.5 7.5 7.5s7.5-3.358 7.5-7.5v-31.937c13.997-3.757 27.718-.089 33.603 10.102 3.455 5.984 3.698 13.472.684 21.086zm-245.226-21.086c4.373-7.573 13.073-11.546 22.999-11.546 3.43 0 7.008.484 10.604 1.449v31.932c0 4.142 3.357 7.5 7.5 7.5s7.5-3.358 7.5-7.5v-24.848c14.653 10.353 20.96 27.203 14.044 39.182-7.479 12.948-27.613 15.373-44.884 5.403-8.643-4.99-15.194-12.265-18.447-20.486-3.014-7.614-2.771-15.102.684-21.086zm80.66 157.599c19.698-.825 34.073-11.345 41.611-18.466 7.537 7.119 21.906 17.635 41.596 18.465-8.336 14.719-24.236 24.357-41.596 24.357-17.463.001-33.298-9.611-41.611-24.356z"/></g></g></svg>