<svg id="Capa_1" enable-background="new 0 0 512.002 512.002" height="512" viewBox="0 0 512.002 512.002" width="512" xmlns="http://www.w3.org/2000/svg"><g><g><path d="m361.598 343.965h-236.028s6.883 53.045-1.435 112.053c20.255 2.493 30.664 15.538 35.071 30.011l223.246 8.471z" fill="#faf8f8"/><path d="m384.465 420.715c-2.391-43.382 1.967-76.75 1.967-76.75h-24.834c-2.031 26.068-3.249 57.418-1.296 87.268 0-.001 14.959-7.539 24.163-10.518z" fill="#f4dabd"/><path d="m158.718 484.5 3.153 20h158.26l1.877-20z" fill="#e9edf1"/><path d="m124.136 456.018c-1.326 9.406-3.039 18.964-5.227 28.482l20.149 10 19.659-10c-4.665-13.853-15.042-26.077-34.581-28.482z" fill="#7e8b96"/><path d="m118.909 484.5c-1.542 6.708-3.315 13.397-5.36 20h48.322c0-6.449-.933-13.408-3.153-20z" fill="#5f6c75"/><path d="m378.459 494.5-18.157-63.268c-22.95 13.53-34.207 32.567-38.294 53.268z" fill="#e9a761"/><path d="m384.465 420.715c-9.205 2.979-17.221 6.425-24.163 10.517.804 12.282 2.141 24.312 4.185 35.612 1.664 9.2-5.408 17.655-14.757 17.655h-27.721c-1.292 6.542-1.877 13.247-1.877 20h78.322c-8.685-28.028-12.554-57.755-13.989-83.784z" fill="#dc805a"/><path d="m199.812 88.964c-33.105-33.922-84.597-81.464-113.154-81.464l24.566 116.669z" fill="#e9a761"/><path d="m199.812 88.964c-16.756-13.596-46.964-14.594-77.344 6.482-13.96-35.498-28.087-74.586-35.81-87.946l.577 226.197 143.643-111.299c.001.001-12.707-14.624-31.066-33.434z" fill="#dc805a"/><path d="m139.606 106.833c-13.96-35.497-37.875-88.475-52.948-99.333-30.843 0-24.638 80.68-14.638 145.672z" fill="#faf8f8"/><path d="m158.594 122.399s-49.793-114.899-71.936-114.899c6.968 12.055 19.151 45.057 31.72 77.468 2.315 5.97.623 12.779-4.292 16.883-15.752 13.151-30.083 31.427-42.066 51.321 6.744 43.829 15.215 80.525 15.215 80.525z" fill="#e9edf1"/><path d="m425.344 7.5c-44.393 0-144.221 114.899-144.221 114.899l143.643 111.298z" fill="#7e8b96"/><path d="m422.834 131.848c-23.098-36.646-77.009-68.608-110.827-42.924l41.401 33.475z" fill="#5f6c75"/><path d="m431.015 153.313c12.743-67.772 10.294-133.843-5.671-145.813-13.894 0-38.671 45.233-55.206 78.937z" fill="#faf8f8"/><path d="m425.344 7.5c4.658 12.067 8.25 44.179 2.582 91.438-1.456 12.14-16.057 17.528-25.05 9.245-9.758-8.988-21.055-16.636-32.738-21.746-9.817 20.012-16.73 35.961-16.73 35.961l71.359 111.299s52.219-226.197.577-226.197z" fill="#e9edf1"/><path d="m256.001 108.962-195.014 164.813c0 43.603 28.457 81.968 67.14 109.391 25.06 15.511 67.353 28.737 127.874 28.737 78.872 0 175.014-57.419 195.014-138.128z" fill="#faf8f8"/><path d="m256.001 108.962c0-13.044 0-25.515 0-25.515-36.718 0-62.372 5.466-87.931 14.938-47.772 17.704-107.082 92.057-107.082 175.39 141.884 0 195.013-115.515 195.013-164.813z" fill="#e9a761"/><path d="m419.644 271.779c-11.742 77.296-97.634 130.124-173.643 130.124-60.521 0-95.745-8.595-117.874-18.737 38.484 27.283 87.09 43.737 127.874 43.737 81.777 0 195.014-66.145 195.014-153.128z" fill="#e9edf1"/><path d="m431.015 263.775c0-91.171-54.054-149.209-87.082-165.39-25.56-9.472-51.214-14.938-87.932-14.938v25.515c0 45.481 45.228 147.312 163.644 162.809 3.602.472 11.37-4.906 11.37-7.996z" fill="#7e8b96"/><path d="m343.933 98.385c17.028 8.342 77.082 72.057 77.082 155.39 0 6.136-.479 12.138-1.371 18.004 9.937 1.3 20.386 1.996 31.371 1.996 0-83.332-59.31-157.686-107.082-175.39z" fill="#5f6c75"/><path d="m182.364 225.55c-20.886-12.059-45.568-8.411-55.128 8.148-5.545 9.604-4.774 21.439.917 32.042 19.683 19.682 55.221 18.078 64.719 1.627 5.545-9.605 4.776-28.633-10.508-41.817z" fill="#f4dabd"/><path d="m182.364 225.55s8.72 17.593.508 31.816c-9.498 16.451-33.92 20.151-54.719 8.373 4.122 7.677 10.818 14.71 19.591 19.774 20.886 12.059 45.568 8.411 55.128-8.148 9.56-16.558.378-39.757-20.508-51.815z" fill="#efcb83"/><path d="m384.767 233.697s6.176 20.076-33.208 42.814c-27.293 15.758-42.429.854-42.429.854-9.56-16.559-.378-39.758 20.508-51.816s45.569-8.41 55.129 8.148z" fill="#f4dabd"/><path d="m384.767 233.697s-5.851 14.539-37.508 32.816c-21.939 12.666-38.128 10.852-38.128 10.852 9.56 16.559 34.242 20.207 55.128 8.148s30.068-35.257 20.508-51.816z" fill="#efcb83"/></g><g><path d="m132.475 450.006c.227-1.851.46-3.696.663-5.57.446-4.118-2.529-7.818-6.647-8.265-4.12-.449-7.819 2.53-8.265 6.647-2.352 21.686-6.335 41.692-11.841 59.462-1.226 3.957.988 8.158 4.944 9.384.739.229 1.487.338 2.222.338 3.201 0 6.165-2.065 7.162-5.282 3.993-12.887 7.2-26.874 9.624-41.726 22.163 7.01 24.035 31.558 24.035 39.506 0 4.142 3.357 7.5 7.5 7.5s7.5-3.358 7.5-7.5c0-12.84-3.275-25.068-9.223-34.431-6.437-10.134-15.918-16.966-27.674-20.063z"/><path d="m330.938 315.479c-3.432 2.319-4.334 6.981-2.016 10.413 3.883 5.746 5.935 12.467 5.935 19.438 0 19.174-15.6 34.774-34.774 34.774-18.938 0-32.254-12.571-36.581-17.286v-21.118c3.041-.665 6.834-1.784 11.113-3.683 3.786-1.68 5.493-6.111 3.813-9.897s-6.114-5.492-9.897-3.812c-7.322 3.25-12.495 3.355-12.512 3.355-.052 0-5.225-.106-12.547-3.355-3.783-1.681-8.218.026-9.897 3.812s.027 8.217 3.813 9.897c4.279 1.899 8.072 3.019 11.113 3.683v21.141c-4.298 4.733-17.481 17.263-36.581 17.263-19.175 0-34.774-15.6-34.774-34.774 0-6.97 2.052-13.691 5.935-19.438 2.318-3.432 1.416-8.094-2.016-10.413-3.435-2.321-8.096-1.416-10.414 2.016-5.563 8.235-8.505 17.86-8.505 27.835 0 27.445 22.329 49.774 49.774 49.774 20.97 0 36.23-11.108 44.081-18.524 7.851 7.416 23.111 18.524 44.081 18.524 27.445 0 49.774-22.329 49.774-49.774 0-9.975-2.941-19.6-8.505-27.835-2.318-3.432-6.982-4.335-10.413-2.016z"/><path d="m458.515 273.775c0-26.982-6.146-54.882-17.656-81.254 5.34-28.547 9.312-54.825 11.801-78.113.44-4.119-2.541-7.814-6.66-8.255-4.127-.439-7.814 2.542-8.254 6.66-1.871 17.497-4.597 36.737-8.128 57.403-2.512-4.372-5.172-8.679-7.988-12.905-14.804-22.22-33.022-40.97-51.512-53.509 7.412-15.753 17.867-36.917 28.522-55.001 18.66-31.667 26.142-33.686 26.753-33.8 2.332.012 4.14.821 5.854 2.624 4.341 4.568 11.274 19.122 8.926 65.269-.211 4.137 2.973 7.661 7.109 7.872 4.159.208 7.66-2.973 7.871-7.109 3.026-59.467-9.062-72.185-13.034-76.365-4.534-4.77-10.335-7.292-16.775-7.292-23.976 0-62.887 27.197-115.655 80.808-16.683-3.334-33.991-4.861-53.688-4.861s-37.005 1.527-53.688 4.861c-52.768-53.611-91.679-80.808-115.655-80.808-7.07 0-13.306 3.011-18.03 8.707-10.539 12.705-14.236 39.827-11.304 82.914 2.382 34.998 8.781 73.973 13.823 100.928-11.503 26.385-17.66 54.315-17.66 81.226 0 41.356 23.839 81.464 67.195 113.258.136 9.071.029 18.155-.334 27.023-.169 4.139 3.048 7.631 7.187 7.801.105.004.209.006.313.006 4 0 7.322-3.159 7.488-7.193.236-5.754.358-11.598.39-17.466 37.241 23.153 82.129 37.198 120.275 37.198 38.143 0 83.027-14.043 120.265-37.192.033 5.697.168 11.766.44 18.119-41.943 15.425-64.075 46.144-64.075 89.171 0 4.142 3.357 7.5 7.5 7.5s7.5-3.358 7.5-7.5c0-35.163 16.823-59.825 50.012-73.447 1.837 23.845 5.804 50.354 13.646 75.666.997 3.217 3.961 5.282 7.162 5.282.734 0 1.482-.109 2.222-.338 3.956-1.226 6.17-5.427 4.944-9.384-12.568-40.567-14.723-84.697-14.316-114.574.003-.217-.009-.43-.024-.642 43.382-31.798 67.238-71.918 67.238-113.288zm-64.558-245.877c-2.403 3.653-4.914 7.683-7.553 12.126-10.864 18.29-21.523 39.739-29.229 56.054-3.57-1.836-7.124-3.424-10.636-4.726-6.664-2.469-13.22-4.6-19.779-6.441 26.041-25.9 48.983-45.3 67.197-57.013zm-239.132 68.177c-7.705-16.314-18.364-37.762-29.227-56.05-2.644-4.451-5.155-8.474-7.562-12.132 18.215 11.712 41.161 31.114 67.207 57.019-6.56 1.841-13.115 3.971-19.779 6.441-3.504 1.298-7.059 2.881-10.639 4.722zm-74.652-77.792c1.872-2.256 3.86-3.268 6.438-3.281.612.114 8.092 2.133 26.751 33.799 10.655 18.083 21.11 39.246 28.521 54.999-10.948 7.413-21.858 17.019-32.019 28.329-2.769 3.081-2.515 7.823.566 10.591 3.084 2.769 7.823 2.514 10.592-.567 15.925-17.725 33.559-30.771 49.653-36.736 25.221-9.347 48.885-13.746 77.825-14.38v17.924c0 24.799-15.761 74.695-58.912 112.268-1.128-.754-2.28-1.486-3.476-2.177-24.435-14.107-53.76-9.22-65.373 10.893-5.012 8.681-6.116 18.919-3.258 29.268-15.346 4.074-31.711 6.403-48.812 6.937 1.532-33.227 12.973-67.788 32.619-98.141 2.251-3.477 1.257-8.121-2.221-10.372-3.478-2.25-8.122-1.257-10.371 2.221-2.202 3.402-4.305 6.855-6.313 10.352-13.78-80.722-14.707-136.861-2.21-151.927zm53.557 219.164c4.373-7.573 13.073-11.546 22.999-11.546 3.43 0 7.008.484 10.604 1.449v31.932c0 4.142 3.357 7.5 7.5 7.5s7.5-3.358 7.5-7.5v-24.848c14.653 10.353 20.96 27.203 14.044 39.182-7.479 12.948-27.613 15.373-44.884 5.403-8.643-4.99-15.194-12.265-18.447-20.486-3.014-7.614-2.771-15.102.684-21.086zm246.097 139.399c-36.902 26.25-84.35 42.557-123.826 42.557s-86.924-16.307-123.826-42.557c-38.354-27.283-60.609-61.011-63.385-95.693 19.273-.576 37.72-3.293 54.979-8.101 4.902 7.563 11.843 14.118 20.225 18.957 9.436 5.448 19.6 8.062 29.192 8.062 15.249 0 29.054-6.609 36.182-18.956 8.853-15.335 4.882-35.155-8.328-49.962 4.503-4.014 8.82-8.262 12.95-12.701v2.316c0 4.142 3.357 7.5 7.5 7.5s7.5-3.358 7.5-7.5v-20.47c7.178-9.826 13.472-20.321 18.723-31.284 3.223-6.73 5.998-13.555 8.289-20.292 2.291 6.737 5.066 13.562 8.289 20.292 5.25 10.964 11.545 21.458 18.723 31.284v20.47c0 4.142 3.357 7.5 7.5 7.5s7.5-3.358 7.5-7.5v-2.316c4.13 4.439 8.447 8.688 12.95 12.701-13.21 14.807-17.181 34.627-8.328 49.962 7.129 12.348 20.931 18.956 36.182 18.956 9.592 0 19.758-2.616 29.192-8.062 11.561-6.674 20.401-16.603 24.895-27.956 4.734-11.961 4.151-24.073-1.642-34.106-11.612-20.114-40.94-25-65.373-10.893-1.196.69-2.348 1.423-3.476 2.177-43.151-37.573-58.912-87.469-58.912-112.268v-17.925c28.941.634 52.604 5.033 77.825 14.38 23.036 8.537 48.39 31.045 67.82 60.21 20.624 30.954 32.618 66.36 34.186 100.52-9.284-.289-18.38-1.096-27.123-2.425-4.096-.625-7.919 2.193-8.542 6.289-.622 4.095 2.193 7.919 6.288 8.542 9.442 1.435 19.254 2.298 29.257 2.596-2.775 34.682-25.03 68.412-63.386 95.696zm-42.658-110.064c4.143 0 7.5-3.358 7.5-7.5v-31.937c13.997-3.757 27.718-.089 33.603 10.102 3.455 5.984 3.698 13.472.685 21.085-3.253 8.221-9.805 15.496-18.447 20.486-17.272 9.972-37.407 7.547-44.884-5.403-6.916-11.979-.609-28.829 14.044-39.182v24.848c-.001 4.143 3.356 7.501 7.499 7.501z"/></g></g></svg>