<svg id="Capa_1" enable-background="new 0 0 512 512" height="512" viewBox="0 0 512 512" width="512" xmlns="http://www.w3.org/2000/svg"><g><g><path d="m433.516 357.03h-355.033c-38.032 38.032-34.897 90.086-11.463 127.47l352.081 10c47.881-59.262 14.415-137.47 14.415-137.47z" fill="#ffead9"/><path d="m433.516 357.03s9.322 69.988-13.051 111.829c-5.178 9.685-15.363 15.641-26.345 15.641h-327.1c4.573 7.295 9.914 14.036 15.878 20h346.203c36.528-36.528 49.87-102.016 4.415-147.47z" fill="#f4dabd"/><path d="m431.404 51.666c-21.348-26.166-52.966-44.166-88.876-44.166-19.57 0-28.804 12.917-28.804 26.134 0 23.5 23.223 39.585 23.223 58.409l17.119 19.247 88.901 31.944c9.381-20.873 5.179-65.108-11.563-91.568z" fill="#ffead9"/><path d="m431.404 51.666c2.226 9.685 3.069 19.535 3.208 28.337.191 12.034-13.192 19.229-23.283 12.67-24.818-16.132-44.071-10.737-51.463 5.712l-5.8 12.905 84.386 94.877s21.457-17.06 21.457-77.541c0-27.533-10.667-55.096-28.505-76.96z" fill="#f4dabd"/><path d="m198.275 33.634c0-13.217-9.234-26.134-28.804-26.134-65.916 0-117.381 60.644-117.381 121.126 0 5.926.208 11.429.58 16.547l105.263-33.882 17.119-19.247c0-18.825 23.223-34.91 23.223-58.41z" fill="#ffead9"/><path d="m52.67 145.172c3.421 47.108 20.877 60.995 20.877 60.995l84.386-94.877-5.8-12.905c-11.715-26.069-53.222-24.37-99.463 46.787z" fill="#f4dabd"/><path d="m474.1 298.564c0-77.796-61.78-164.51-114.234-200.178-30.191-9.473-60.495-14.939-103.866-14.939s-73.675 5.466-103.866 14.938c-56.43 17.704-129.234 119.946-129.234 205.179 0 38.354 11.647 78.601 46.587 109.266 42.638 23.692 112.43 41.772 186.513 41.772 169.343 0 218.1-86.461 218.1-156.038z" fill="#eec190"/><path d="m489.1 303.564c0-85.233-72.805-187.475-129.234-205.178 28.742 28.238 99.234 109.946 99.234 195.178 0 27.733-8.674 57.35-29.134 82.948l12.547 36.318c34.94-30.665 46.587-70.913 46.587-109.266z" fill="#e9a761"/><path d="m342.356 345.33h-172.712c-61.553 12.321-100.158 19.597-100.158 67.5 41.501 26.307 112.43 41.772 186.513 41.772 95.377 0 164.213-41.772 173.966-78.09-16.068-17.054-46.789-23.011-87.609-31.182z" fill="#ffead9"/><path d="m246 444.602c-74.084 0-133.213-11.986-176.513-31.772 34.961 30.683 93.242 51.772 186.513 51.772s151.553-21.09 186.513-51.772c0-16.135-4.386-27.656-12.547-36.318-30.87 38.622-88.589 68.09-183.966 68.09z" fill="#f4dabd"/><path d="m211.918 387.604c27.431 0 44.081-22.019 44.081-22.019s16.65 22.019 44.081 22.019c23.347 0 42.274-18.927 42.274-42.274l-70.785-14.169c-9.133 4.053-15.571 4-15.571 4s-6.438.053-15.571-4l-70.785 14.169c.002 23.347 18.929 42.274 42.276 42.274z" fill="#faf8f8"/><path d="m182.363 225.55c-20.886-12.059-45.568-8.411-55.128 8.148-5.545 9.604-4.774 21.439.917 32.042 19.683 19.682 55.221 18.078 64.719 1.627 5.545-9.605 4.776-28.633-10.508-41.817z" fill="#ddfdea"/><path d="m182.363 225.55s8.72 17.593.508 31.816c-9.498 16.451-33.92 20.151-54.719 8.373 4.122 7.677 10.818 14.71 19.591 19.774 20.886 12.059 45.568 8.411 55.128-8.148 9.56-16.558.378-39.757-20.508-51.815z" fill="#beeedd"/><path d="m384.765 233.697s6.176 20.076-33.208 42.814c-27.293 15.758-42.429.854-42.429.854-9.56-16.559-.378-39.758 20.508-51.816s45.569-8.41 55.129 8.148z" fill="#ddfdea"/><path d="m384.765 233.697s-5.851 14.539-37.508 32.816c-21.939 12.666-38.128 10.852-38.128 10.852 9.56 16.559 34.242 20.207 55.128 8.148s30.069-35.257 20.508-51.816z" fill="#beeedd"/></g><g><path d="m49.742 93.963c-3.422 11.461-5.152 23.076-5.152 34.663 0 21.455 2.623 40.044 7.783 55.305-18.199 30.809-30.692 64.18-35.101 94.571-.595 4.099 2.247 7.904 6.346 8.499.365.053.728.079 1.086.079 3.665 0 6.872-2.69 7.413-6.424 5.204-35.871 22.517-76.347 47.5-111.049 23.646-32.847 51.596-56.796 74.763-64.064 30.465-9.558 59.001-13.993 94.121-14.535v69.402c-16.714-24.091-32.408-39.211-33.246-40.012-1.639-1.566-3.896-2.305-6.148-2.015-2.249.292-4.244 1.586-5.428 3.52-.659 1.075-16.125 26.855-16.125 73.365 0 4.142 3.358 7.5 7.5 7.5s7.5-3.358 7.5-7.5c0-26.706 5.589-45.882 9.684-56.347 8.641 9.487 23.428 27.161 36.264 49.51v67.569c0 4.142 3.358 7.5 7.5 7.5 4.143 0 7.5-3.358 7.5-7.5v-67.57c12.836-22.349 27.623-40.022 36.263-49.509 4.098 10.472 9.685 29.647 9.685 56.346 0 4.142 3.357 7.5 7.5 7.5s7.5-3.358 7.5-7.5c0-46.51-15.467-72.291-16.125-73.365-1.185-1.934-3.181-3.227-5.429-3.52-2.25-.291-4.509.449-6.148 2.015-.838.801-16.532 15.92-33.245 40.011v-69.398c6.365.099 12.541.321 18.421.672 4.145.245 7.688-2.905 7.934-7.04.247-4.135-2.904-7.687-7.039-7.934-8.463-.505-17.484-.761-26.815-.761-26.231 0-48.845 1.959-70.872 6.279 1.794-3.894 4.319-7.941 6.93-12.113 6.43-10.276 13.717-21.924 13.717-36.479-.004-16.199-11.365-33.634-36.308-33.634-35.933 0-70.501 17.17-94.84 47.107-2.613 3.214-2.126 7.938 1.088 10.55 3.213 2.613 7.938 2.126 10.55-1.088 21.479-26.418 51.805-41.569 83.202-41.569 9.828 0 21.304 4.88 21.304 18.634 0 10.248-5.554 19.125-11.434 28.523-4.721 7.546-9.571 15.302-11.208 23.888-6.046 1.538-12.106 3.258-18.244 5.184-4.966 1.558-10.056 3.714-15.217 6.423-17.555-15.206-39.304-23.283-61.816-22.814-23.29.475-46.12 9.871-64.287 26.458-3.059 2.793-3.274 7.537-.481 10.596 1.479 1.621 3.506 2.443 5.541 2.443 1.806 0 3.617-.648 5.055-1.961 9.227-8.428 19.835-14.655 31.058-18.411zm23.419-4.129c17.491-.351 33.885 5.195 47.949 16.095-18.251 12.651-36.848 31.548-53.669 54.913-1.431 1.988-2.834 3.998-4.217 6.021-2.413-11.166-3.635-23.963-3.635-38.238 0-12.819 2.437-25.72 7.242-38.383 2.105-.216 4.215-.365 6.33-.408z"/><path d="m503.43 101.295c-13.808-12.607-30.313-21.047-47.664-24.586-6.008-13.153-14.213-25.536-24.334-36.431-24.127-25.974-55.7-40.278-88.904-40.278-24.943 0-36.304 17.435-36.304 33.634 0 14.554 7.288 26.202 13.718 36.479 2.602 4.158 5.119 8.192 6.912 12.074-3.521-.689-7.053-1.321-10.626-1.891-4.098-.656-7.936 2.135-8.588 6.225-.652 4.091 2.135 7.936 6.225 8.588 14.577 2.325 28.481 5.641 43.757 10.433 25.62 8.038 56.947 36.48 81.756 74.229 26.834 40.83 42.224 85.951 42.224 123.794 0 37.482-11.147 68.649-33.182 92.969-8.168-38.339-47.016-47.014-98.957-57.429-.965-7.728-3.716-15.103-8.111-21.609-2.318-3.432-6.982-4.335-10.414-2.016s-4.334 6.981-2.016 10.413c2.091 3.095 3.632 6.478 4.626 10.026l-28.346-5.674c-4.059-.812-8.013 1.82-8.826 5.882s1.821 8.013 5.883 8.826l32.062 6.418c-2.869 16.304-17.124 28.734-34.238 28.734-18.938 0-32.254-12.571-36.581-17.286v-21.119c3.041-.665 6.834-1.784 11.113-3.683 3.786-1.68 5.493-6.111 3.813-9.897s-6.113-5.492-9.897-3.812c-7.322 3.25-12.495 3.355-12.468 3.355-.041 0-.082 0-.123 0-.067 0-5.159-.112-12.467-3.356-3.788-1.678-8.218.027-9.898 3.813s.027 8.218 3.813 9.898c4.28 1.899 8.072 3.018 11.114 3.683v21.116c-4.346 4.734-17.656 17.288-36.582 17.288-17.114 0-31.369-12.43-34.238-28.734l32.063-6.418c4.062-.813 6.695-4.765 5.882-8.826-.813-4.062-4.764-6.695-8.826-5.882l-28.346 5.674c.995-3.547 2.535-6.931 4.626-10.026 2.319-3.432 1.417-8.094-2.016-10.413-3.432-2.32-8.094-1.417-10.413 2.016-4.396 6.506-7.147 13.881-8.112 21.609-51.96 10.419-90.82 19.096-98.967 57.473-22.536-25.012-31.059-54.487-32.814-81.762-.266-4.133-3.813-7.266-7.966-7.002-4.133.266-7.269 3.833-7.002 7.966 2.072 32.19 12.096 59.896 29.878 82.753-10.27 38.031 2.105 81.448 31.929 111.272 1.464 1.465 3.384 2.197 5.303 2.197s3.839-.732 5.303-2.197c2.929-2.929 2.929-7.678 0-10.606-12.364-12.364-21.938-28.521-26.958-45.492-4.092-13.834-5.147-27.884-3.178-41.256 3.844 3.789 7.938 7.418 12.294 10.877 40.762 32.366 103.221 48.776 185.64 48.776 62.551 0 113.895-9.501 152.606-28.241 3.729-1.805 5.288-6.29 3.483-10.018s-6.289-5.288-10.019-3.483c-36.657 17.745-85.803 26.742-146.071 26.742-90.124 0-145.57-19.708-178.938-47.571 1.517-35.463 28.118-43.499 85.911-55.209 4.246 23.166 24.57 40.782 48.945 40.782 20.97 0 36.23-11.108 44.082-18.524 7.851 7.416 23.111 18.524 44.081 18.524 24.374 0 44.699-17.616 48.945-40.782 57.74 11.7 84.348 19.729 85.909 55.11-1.294 1.078-2.605 2.146-3.952 3.19-3.274 2.537-3.872 7.248-1.335 10.522 1.479 1.908 3.694 2.907 5.934 2.907 1.605 0 3.223-.513 4.589-1.572 4.896-3.794 9.477-7.827 13.756-12.075 1.977 13.386.925 27.452-3.171 41.302-5.02 16.972-14.593 33.128-26.958 45.492-2.929 2.929-2.929 7.678 0 10.606 1.465 1.464 3.385 2.197 5.304 2.197s3.839-.732 5.304-2.197c29.859-29.859 42.228-73.345 31.891-111.409 19.923-25.83 30.305-58.019 30.305-94.831 0-36.849-13.356-79.788-36.965-119.658 5.154-15.257 7.774-33.837 7.774-55.28 0-11.603-1.782-23.295-5.165-34.668 11.228 3.756 21.841 9.985 31.073 18.414 1.438 1.313 3.249 1.961 5.055 1.961 2.034 0 4.062-.823 5.541-2.443 2.79-3.06 2.574-7.804-.486-10.597zm-159.567-15.27c-1.641-8.578-6.488-16.328-11.205-23.868-5.88-9.398-11.434-18.275-11.434-28.523 0-13.754 11.477-18.634 21.304-18.634 28.987 0 56.657 12.603 77.914 35.487 6.915 7.444 12.823 15.654 17.612 24.342-22.096-.191-43.464 7.867-60.742 22.837-5.157-2.71-10.243-4.881-15.201-6.437-6.256-1.963-12.294-3.682-18.248-5.204zm108.546 42.601c0 14.273-1.222 27.07-3.635 38.235-17.729-25.943-38-47.12-57.899-60.921 14.07-10.907 30.477-16.455 47.963-16.107 2.121.043 4.237.192 6.347.411 4.714 12.458 7.224 25.494 7.224 38.382z"/><path d="m291.864 415.096c-9.313 4.411-22.386 6.94-35.864 6.94s-26.55-2.53-35.864-6.94c-3.742-1.771-8.215-.175-9.988 3.568s-.175 8.215 3.568 9.988c11.417 5.406 26.434 8.384 42.284 8.384 15.852 0 30.868-2.978 42.284-8.384 3.743-1.773 5.341-6.245 3.568-9.988-1.773-3.745-6.248-5.34-9.988-3.568z"/><path d="m119.097 264.053c4.494 11.353 13.335 21.281 24.896 27.956 9.23 5.329 19.389 8.12 29.258 8.12 2.491 0 4.965-.178 7.399-.538 12.725-1.881 22.923-8.442 28.715-18.475 5.793-10.033 6.376-22.145 1.642-34.105-4.493-11.353-13.334-21.281-24.895-27.956-22.862-13.199-50.004-9.769-62.914 7.201-30.222.786-45.971 10.171-46.653 10.587-2.661 1.624-4.04 4.723-3.465 7.787 4.244 22.598 21.235 46.843 42.628 63.191h-25.971c-4.142 0-7.5 3.358-7.5 7.5s3.358 7.5 7.5 7.5h54c3.609 0 6.707-2.57 7.372-6.118s-1.291-7.065-4.654-8.373c-25.497-9.91-50.004-36.343-57.272-60.875 5.118-2.001 14.265-4.781 27.316-5.83-1.264 7.156-.412 14.822 2.598 22.428zm37.631-38.153c3.501 0 7.155.497 10.825 1.502v28.129c0 4.142 3.358 7.5 7.5 7.5s7.5-3.358 7.5-7.5v-20.941c6.69 4.781 11.77 11.023 14.508 17.94 3.013 7.613 2.77 15.102-.685 21.085-3.455 5.984-9.818 9.939-17.918 11.136-8.747 1.293-18.322-.744-26.965-5.733-8.643-4.99-15.194-12.265-18.448-20.486-3.013-7.613-2.77-15.102.685-21.085 4.372-7.573 13.073-11.547 22.998-11.547z"/><path d="m438.919 244.629c.575-3.063-.804-6.163-3.465-7.787-.682-.416-16.43-9.801-46.653-10.587-12.912-16.97-40.054-20.4-62.913-7.201-24.435 14.107-34.866 41.948-23.254 62.062 7.129 12.348 20.931 18.956 36.182 18.956 9.592 0 19.758-2.616 29.192-8.062 11.561-6.674 20.401-16.603 24.895-27.956 3.011-7.607 3.862-15.272 2.6-22.428 13.063 1.05 22.212 3.832 27.316 5.828-7.268 24.533-31.774 50.966-57.272 60.877-3.364 1.308-5.32 4.826-4.654 8.373.665 3.547 3.762 6.118 7.371 6.118h54c4.143 0 7.5-3.358 7.5-7.5s-3.357-7.5-7.5-7.5h-25.972c21.391-16.35 38.383-40.595 42.627-63.193zm-59.964 13.904c-3.253 8.221-9.805 15.496-18.447 20.486-17.272 9.972-37.407 7.547-44.884-5.403-6.881-11.919-.672-28.659 13.823-39.025v20.941c0 4.142 3.357 7.5 7.5 7.5s7.5-3.358 7.5-7.5v-28.124c14.073-3.855 27.908-.205 33.823 10.04 3.455 5.983 3.699 13.471.685 21.085z"/></g></g></svg>