<svg id="Capa_1" enable-background="new 0 0 512.002 512.002" height="512" viewBox="0 0 512.002 512.002" width="512" xmlns="http://www.w3.org/2000/svg"><g><g><path d="m194.833 403.965h-82.707s-12.628 21.125-32.191 80.535l136.993 20z" fill="#b78c7a"/><path d="m212.532 484.5h-132.598c-2.054 6.239-4.185 12.897-6.385 20h143.378z" fill="#ab7b64"/><path d="m369.515 403.965h-174.682v54.928c0 9.864 2.877 18.541 6.554 25.609l214.066 9.999c-12.144-39.197-30.866-72.627-45.938-90.536z" fill="#eec190"/><path d="m399.876 403.965h-30.361c5.571 12.829 13.326 32.488 22.652 60.837 3.192 9.703-4.031 19.698-14.246 19.698h-176.532c6.514 12.528 15.538 20 15.538 20h221.526c-23.157-74.744-38.577-100.535-38.577-100.535z" fill="#e9a761"/><path d="m198.361 87.481c-33.143-33.807-83.559-79.981-111.703-79.981l18.566 103.071z" fill="#b78c7a"/><path d="m198.361 87.481c-22.087-14.301-54.77-13.124-83.136 3.09 0 0-17.095-61.841-28.566-83.071l.577 226.197 143.643-111.299c0 .001-13.383-15.399-32.518-34.917z" fill="#ab7b64"/><path d="m135.225 90.571s-29.89-63.503-48.566-83.071c-27.812 0-25.5 65.607-17.444 126.154z" fill="#eebfb6"/><path d="m158.594 122.399s-49.793-114.899-71.936-114.899c8.494 15.72 20.071 53.705 25.509 72.364 1.767 6.063-.429 12.612-5.556 16.3-11.273 8.109-25.065 20.893-37.397 37.491 6.902 51.878 18.021 100.043 18.021 100.043z" fill="#eaa598"/><path d="m425.344 7.5c-44.393 0-144.221 114.899-144.221 114.899l143.643 111.298z" fill="#b78c7a"/><path d="m428.874 143.235s22.747-113.951-3.53-135.735c-15.834 0-45.803 58.747-61.597 92.226z" fill="#eebfb6"/><path d="m425.344 7.5c5.519 34.272 3.542 66.624.96 87.531-1.295 10.482-12.653 16.296-21.998 11.375-10.901-5.741-25.554-10.522-40.56-6.68-6.293 13.339-10.339 22.673-10.339 22.673l71.359 111.299c.001-.001 52.22-226.198.578-226.198z" fill="#eaa598"/><path d="m474.101 277.366c0-130.986-218.1-193.919-218.1-193.919-43.371 0-73.675 5.466-103.866 14.938-56.429 17.704-129.234 119.946-129.234 205.179 0 38.354 11.647 78.601 46.587 109.266 9.265 5.148 61.459 41.772 186.513 41.772s218.1-44.4 218.1-151.038z" fill="#b78c7a"/><path d="m69.488 412.83c8.344 7.323 18.034 14.091 29.194 20.165.916-2.716 2.007-5.31 3.234-7.795-11.638-3.678-22.458-7.815-32.428-12.37z" fill="#ab7b64"/><path d="m489.101 303.564c0-11.872-1.416-24.073-4-36.33-10.506 0-19.681 1.125-27.676 3.169 1.085 7.666 1.676 15.399 1.676 23.161 0 42.137-20.004 88.627-71 118.748-11.252 16.768-28.645 32.884-55.267 46.575 122.952-20.189 156.267-90.462 156.267-155.323z" fill="#ab7b64"/><path d="m457.426 270.402c0-75.472-54.555-142.774-97.559-172.017-30.191-9.472-60.495-14.938-103.866-14.938v142.115c0 41.197-31.018 51.804-53.129 51.804l-75.636-43.669c-68.966 0-65.39 108.398 18.617 108.398 0 13.538 5.487 25.795 14.359 34.667l1.818 1.723s-43.327 12.713-60.117 46.714c0 0 59.555 29.404 154.088 29.404 37.464 0 91.468-9.268 132.1-42.291 15.958-23.78 19.558-48.871 19.558-70.217 0-30.178 10.975-61.775 49.767-71.693z" fill="#eec190"/><path d="m359.867 98.385c26.124 25.666 86.734 95.507 97.559 172.017 7.995-2.044 17.17-3.169 27.676-3.169-15.968-75.743-76.665-153.61-125.235-168.848z" fill="#e9a761"/><path d="m388.101 412.311c-33.209 19.615-79.555 32.291-142.1 32.291-57.026 0-105.18-7.108-144.085-19.402-1.227 2.485-2.318 5.08-3.234 7.795 35.598 19.375 86.309 31.607 157.319 31.607 28.845 0 54.336-2.022 76.833-5.716 26.621-13.691 44.015-29.807 55.267-46.575z" fill="#e9a761"/><path d="m366.149 342.095c0-27.076-12.741-64.729-57.019-64.729-27.405 0-53.129 18.898-53.129 57.796v30.423s29.31 25.536 61.122 25.536c27.076 0 49.026-21.95 49.026-49.026" fill="#b78c7a"/><path d="m182.364 225.55c-20.886-12.059-45.568-8.411-55.128 8.148-5.545 9.604-4.774 21.439.917 32.042 19.683 19.682 55.221 18.078 64.719 1.627 5.545-9.605 4.776-28.633-10.508-41.817z" fill="#ddfdea"/><path d="m182.364 225.55s8.72 17.593.508 31.816c-9.498 16.451-33.92 20.151-54.719 8.373 4.122 7.677 10.818 14.71 19.591 19.774 20.886 12.059 45.568 8.411 55.128-8.148 9.56-16.558.378-39.757-20.508-51.815z" fill="#beeedd"/><path d="m384.767 233.697s6.176 20.076-33.208 42.814c-27.293 15.758-42.429.854-42.429.854-9.56-16.559-.378-39.758 20.508-51.816s45.569-8.41 55.129 8.148z" fill="#ddfdea"/><path d="m384.767 233.697s-5.851 14.539-37.508 32.816c-21.939 12.666-38.128 10.852-38.128 10.852 9.56 16.559 34.242 20.207 55.128 8.148s30.068-35.257 20.508-51.816z" fill="#beeedd"/></g><g><path d="m451.913 171.532c-1.927-2.932-3.891-5.801-5.88-8.617 7.145-44.097 10.337-79.809 9.48-106.137-.135-4.14-3.609-7.363-7.74-7.252-4.14.135-7.387 3.601-7.252 7.74.734 22.526-1.652 52.443-7.09 89.072-19.093-23.295-39.947-40.987-59.565-50.411 7.228-15.01 16.98-34.255 26.727-50.399 17.303-28.661 24.279-30.433 24.81-30.528 1.855.001 7.258.136 11.234 13.242 1.203 3.964 5.391 6.199 9.354 5 3.964-1.203 6.202-5.391 5-9.354-5.99-19.743-17.253-23.888-25.647-23.888-23.762 0-62.246 26.764-114.385 79.52-17.115-2.444-34.988-3.573-54.958-3.573s-37.843 1.129-54.958 3.573c-52.133-52.756-90.616-79.52-114.385-79.52-6.955 0-13.111 2.918-17.805 8.438-9.298 10.936-13.339 32.701-12.354 66.539.695 23.866 3.883 53.456 9.471 87.948-5.951 8.404-11.605 17.301-16.838 26.578-2.035 3.608-.761 8.182 2.847 10.217 3.607 2.037 8.183.76 10.217-2.847 25.987-46.066 62.171-81.916 92.183-91.332 30.465-9.558 59.001-13.993 94.121-14.535v134.555c0 15.94-5.128 27.826-15.241 35.327-6.248 4.635-13.368 6.92-19.558 8.02 1.13-7.003.243-14.48-2.693-21.899-4.493-11.353-13.334-21.281-24.895-27.956-22.892-13.217-50.076-9.761-62.967 7.267-35.528 1.984-51.77 29.777-51.77 55.677 0 17.098 6.823 33.909 18.719 46.124 8.736 8.971 24.08 19.519 48.721 21.232 1.237 9.604 4.897 18.459 10.34 25.936-10.629 4.535-27.138 13.173-40.37 27.232-2.838 3.017-2.694 7.763.322 10.602 1.449 1.363 3.295 2.038 5.139 2.038 1.996 0 3.988-.792 5.463-2.36 14.009-14.886 32.959-22.979 40.8-25.874 9.531 7.324 21.446 11.693 34.367 11.693 26.607 0 50.983-15.87 61.122-23.462 10.139 7.592 34.515 23.462 61.122 23.462 31.168 0 56.526-25.357 56.526-56.526 0-4.142-3.358-7.5-7.5-7.5s-7.5 3.358-7.5 7.5c0 22.898-18.628 41.526-41.526 41.526-23.462 0-46.144-15.853-53.622-21.624v-20.296c3.041-.665 6.834-1.784 11.114-3.683 3.786-1.68 5.493-6.112 3.813-9.898-1.681-3.786-6.11-5.49-9.898-3.813-1.61.715-3.108 1.27-4.478 1.713 3.464-28.151 22.987-39.601 41.201-41.002 6.01 7.828 15.109 12.95 26.098 14.574 2.435.36 4.908.538 7.399.538 2.054 0 4.121-.128 6.19-.368 3.489 4.063 6.392 8.936 8.62 14.523 1.171 2.937 3.989 4.724 6.969 4.724.924 0 1.865-.172 2.776-.536 3.847-1.535 5.722-5.897 4.188-9.745-1.892-4.744-4.189-9.117-6.859-13.082 2.506-1.039 4.972-2.249 7.374-3.636 11.561-6.674 20.402-16.603 24.896-27.956 4.733-11.96 4.15-24.073-1.642-34.106-11.613-20.114-40.939-25.001-65.374-10.893-11.561 6.675-20.402 16.603-24.895 27.956-3.191 8.062-3.956 16.19-2.348 23.707-12.117 1.962-23.085 7.315-31.586 15.583-10.321 10.038-16.488 23.763-18.111 40.032-1.62-.482-3.46-1.132-5.477-2.027-3.787-1.678-8.217.027-9.898 3.813-1.68 3.786.027 8.218 3.813 9.898 4.28 1.899 8.072 3.018 11.114 3.683v20.306c-7.461 5.778-30.062 21.615-53.622 21.615-22.897 0-41.526-18.628-41.526-41.526 0-4.142-3.358-7.5-7.5-7.5-18.655 0-34.22-5.857-45.011-16.938-9.193-9.439-14.465-22.436-14.465-35.659 0-17.488 9.379-35.099 30.003-39.657-1.084 6.95-.192 14.359 2.718 21.713 4.494 11.353 13.335 21.281 24.896 27.956 9.23 5.329 19.389 8.12 29.258 8.12 2.491 0 4.965-.178 7.399-.538 11.117-1.643 20.304-6.859 26.311-14.841 9.205-.495 23.195-2.884 35.234-11.812 9.719-7.208 21.305-21.279 21.305-47.375v-134.556c35.121.542 63.656 4.977 94.121 14.535 25.62 8.038 56.947 36.48 81.755 74.229 17.099 26.019 29.542 53.778 36.327 80.287-25.657 1.693-45.208 10.466-58.166 26.187-11.532 13.991-17.379 32.781-17.379 55.85 0 31.472-7.261 76.978-69.678 109.557-22.487 3.621-47.343 5.45-74.48 5.45-82.723 0-143.801-16.783-181.538-49.884-29.237-25.646-44.062-60.52-44.062-103.654 0-24.325 6.351-51.879 18.366-79.684 1.643-3.802-.107-8.217-3.91-9.86-3.801-1.642-8.216.107-9.86 3.91-12.82 29.668-19.597 59.28-19.597 85.634 0 46.973 17.003 86.715 49.171 114.931 7.434 6.521 15.677 12.446 24.703 17.785-7.452 18.822-15.145 41-22.891 66-1.226 3.957.988 8.158 4.944 9.384.739.229 1.487.338 2.222.338 3.2 0 6.165-2.065 7.162-5.282 7.411-23.922 14.756-45.17 21.869-63.286 23.853 11.67 52.375 19.81 85.431 24.355 3.898 25.489 23.259 41.768 24.135 42.492 1.396 1.154 3.084 1.716 4.763 1.716 2.151 0 4.288-.924 5.772-2.708 2.643-3.178 2.208-7.902-.961-10.555-.156-.131-13.683-11.641-18.046-29.099 16.428 1.638 33.869 2.467 52.324 2.467 63.007 0 114.565-9.638 153.426-28.65 7.11 18.112 14.453 39.355 21.862 63.268.997 3.217 3.961 5.282 7.162 5.282.735 0 1.483-.109 2.222-.338 3.957-1.226 6.17-5.427 4.944-9.384-7.744-24.995-15.435-47.169-22.886-65.989 30.644-18.137 52.075-43.003 63.751-74.009 1.459-3.876-.5-8.202-4.376-9.662-3.874-1.458-8.202.499-9.662 4.376-11.177 29.682-32.499 53.162-63.373 69.79-11.309 6.091-23.924 11.266-37.787 15.531 29.446-25.455 43.875-58.537 43.875-100.221 0-19.496 4.695-35.076 13.954-46.31 10.567-12.82 27.319-19.822 49.819-20.89 1.756 9.874 2.669 19.487 2.669 28.669 0 8.214-.564 16.282-1.677 23.979-.593 4.1 2.25 7.903 6.35 8.496.364.053.725.078 1.083.078 3.667 0 6.874-2.692 7.414-6.428 1.215-8.406 1.832-17.196 1.832-26.126.004-40.695-16.284-88.818-44.684-132.032zm-136.973 80.998c2.738-6.918 7.818-13.16 14.508-17.94v20.942c0 4.142 3.358 7.5 7.5 7.5s7.5-3.358 7.5-7.5v-28.129c3.67-1.005 7.323-1.502 10.825-1.502 9.924 0 18.626 3.974 22.999 11.547 3.455 5.984 3.698 13.472.685 21.085-3.254 8.221-9.805 15.496-18.448 20.486s-18.22 7.026-26.965 5.733c-8.1-1.197-14.463-5.152-17.918-11.136-3.456-5.984-3.699-13.472-.686-21.086zm-136.482 32.222c-8.745 1.291-18.322-.744-26.965-5.733-8.643-4.99-15.194-12.265-18.448-20.486-3.013-7.613-2.77-15.102.685-21.085 4.373-7.573 13.073-11.547 22.999-11.547 3.501 0 7.155.497 10.825 1.502v28.129c0 4.142 3.358 7.5 7.5 7.5s7.5-3.358 7.5-7.5v-20.942c6.69 4.781 11.77 11.023 14.508 17.94 3.013 7.613 2.77 15.102-.685 21.085-3.456 5.985-9.819 9.94-17.919 11.137zm215.509-256.851c-1.78 2.704-3.615 5.599-5.526 8.736-10.506 17.251-20.998 38.008-28.624 53.895-10.355-3.175-20.518-5.789-30.779-7.878 25.095-24.764 47.242-43.379 64.929-54.753zm-241.782 62.631c-7.638-15.912-18.295-37.003-28.938-54.409-1.801-2.945-3.533-5.67-5.217-8.228 17.685 11.372 39.832 29.99 64.932 54.759-10.261 2.089-20.423 4.703-30.777 7.878zm-73.6 55.863c-4.126-27.817-6.513-51.944-7.092-71.854-1.127-38.741 5.023-51.957 8.789-56.387 1.843-2.167 3.797-3.139 6.329-3.151.589.111 7.502 1.986 24.499 30.029 9.883 16.305 19.788 35.865 27.036 50.916-19.643 9.485-40.583 27.357-59.561 50.447z"/><path d="m256.001 437.036c15.851 0 30.868-2.978 42.284-8.384 3.744-1.773 5.341-6.245 3.568-9.988-1.772-3.744-6.244-5.342-9.988-3.568-9.314 4.411-22.386 6.94-35.864 6.94s-26.55-2.53-35.864-6.94c-3.743-1.773-8.215-.175-9.988 3.568-1.773 3.744-.175 8.215 3.568 9.988 11.416 5.407 26.433 8.384 42.284 8.384z"/></g></g></svg>