<svg id="Capa_1" enable-background="new 0 0 512.005 512.005" height="512" viewBox="0 0 512.005 512.005" width="512" xmlns="http://www.w3.org/2000/svg"><g><g><path d="m361.599 343.965h-236.027s9.251 71.303-6.661 140.535l263.544 10z" fill="#ffead9"/><path d="m398.455 504.5c-23.158-74.744-12.021-160.535-12.021-160.535h-24.834c-2.867 36.794-4.122 84.114 2.889 122.88 1.664 9.2-5.408 17.655-14.757 17.655h-230.82c-1.542 6.708-3.315 13.397-5.36 20z" fill="#f4dabd"/><path d="m199.814 88.964c-33.106-33.922-84.598-81.464-113.154-81.464l24.566 116.669z" fill="#e9a761"/><path d="m199.814 88.964c-16.756-13.596-46.964-14.594-77.344 6.482-13.96-35.498-28.088-74.586-35.81-87.946l.577 226.197 143.643-111.298s-12.708-14.625-31.066-33.435z" fill="#dc805a"/><path d="m139.608 106.833c-13.96-35.497-37.876-88.475-52.948-99.333-30.843 0-24.638 80.68-14.638 145.672z" fill="#ffead9"/><path d="m158.596 122.399s-49.793-114.899-71.936-114.899c6.968 12.055 19.151 45.057 31.72 77.468 2.315 5.97.623 12.779-4.292 16.883-15.752 13.151-30.083 31.427-42.066 51.321 6.744 43.829 15.215 80.525 15.215 80.525z" fill="#f4dabd"/><path d="m425.345 7.5c-44.393 0-144.221 114.899-144.221 114.899l143.643 111.298z" fill="#e9a761"/><path d="m422.835 131.848c-23.098-36.646-77.009-68.608-110.827-42.924l41.401 33.475z" fill="#dc805a"/><path d="m431.016 153.313c12.743-67.772 10.294-133.843-5.671-145.813-13.894 0-38.671 45.233-55.206 78.937z" fill="#ffead9"/><path d="m425.345 7.5c4.658 12.067 8.25 44.179 2.582 91.438-1.456 12.14-16.057 17.528-25.05 9.245-9.758-8.988-21.055-16.636-32.738-21.746-9.817 20.012-16.73 35.961-16.73 35.961l71.359 111.299s52.219-226.197.577-226.197z" fill="#f4dabd"/><path d="m431.016 263.775c0-91.171-54.054-149.209-87.082-165.39-25.56-9.472-51.214-14.938-87.932-14.938s-62.372 5.466-87.931 14.938c-47.772 17.704-107.082 92.057-107.082 175.39 0 43.603 28.457 81.968 67.14 109.391 25.06 15.511 67.353 28.737 127.874 28.737 81.777 0 175.013-61.144 175.013-148.128z" fill="#e9a761"/><path d="m343.934 98.385c17.028 8.342 77.082 72.057 77.082 155.39 0 86.983-93.236 148.128-175.014 148.128-60.521 0-95.745-8.595-117.874-18.737 38.484 27.283 87.09 43.737 127.874 43.737 81.777 0 195.014-66.145 195.014-153.128 0-83.332-59.31-157.686-107.082-175.39z" fill="#dc805a"/><path d="m182.365 225.55c-20.886-12.059-45.568-8.411-55.128 8.148-5.545 9.604-4.774 21.439.917 32.042 19.683 19.682 55.221 18.078 64.719 1.627 5.545-9.605 4.776-28.633-10.508-41.817z" fill="#ddfdea"/><path d="m182.365 225.55s8.72 17.593.508 31.816c-9.498 16.451-33.92 20.151-54.719 8.373 4.122 7.677 10.818 14.71 19.591 19.774 20.886 12.059 45.568 8.411 55.128-8.148 9.56-16.558.379-39.757-20.508-51.815z" fill="#beeedd"/><path d="m384.768 233.697s6.176 20.076-33.208 42.814c-27.293 15.758-42.429.854-42.429.854-9.56-16.559-.378-39.758 20.508-51.816s45.569-8.41 55.129 8.148z" fill="#ddfdea"/><path d="m384.768 233.697s-5.851 14.539-37.508 32.816c-21.939 12.666-38.128 10.852-38.128 10.852 9.56 16.559 34.242 20.207 55.128 8.148s30.068-35.257 20.508-51.816z" fill="#beeedd"/><path d="m207.49 370.347c33.228 0 48.512-20.185 48.512-20.185s15.285 20.185 48.512 20.185c32.545 0 37.842-25.015 37.843-25.017 0-8.755-2.662-16.889-7.22-23.636h-158.271c-4.558 6.747-7.22 14.881-7.22 23.636.002.002 5.299 25.017 37.844 25.017z" fill="#e9a761"/><path d="m319.992 355.347c-30.13 0-48.418-24.186-48.418-24.186-9.133 4.053-15.571 4-15.571 4s-6.438.053-15.571-4c0 0-18.288 24.186-48.418 24.186-15.436 0-22.365-10.015-22.366-10.017 0 23.347 18.927 42.274 42.274 42.274 27.431 0 44.082-22.019 44.082-22.019s16.65 22.019 44.082 22.019c23.347 0 42.274-18.927 42.274-42.274-.003.002-6.932 10.017-22.368 10.017z" fill="#ffead9"/></g><g><path d="m440.861 192.523c5.041-26.954 11.436-65.916 13.818-100.903 2.933-43.087-.765-70.208-11.304-82.914-4.724-5.695-10.959-8.706-18.03-8.706-23.975 0-62.887 27.197-115.655 80.808-16.683-3.334-33.991-4.861-53.688-4.861s-37.005 1.527-53.688 4.861c-52.767-53.611-91.679-80.808-115.654-80.808-6.55 0-12.428 2.604-16.998 7.53-6.561 7.07-10.594 18.895-12.329 36.149-1.373 13.655-1.291 30.968.244 51.458.296 3.94 3.584 6.94 7.472 6.94.188 0 .378-.007.568-.021 4.131-.31 7.229-3.909 6.919-8.04-4.075-54.365 3.34-71.129 8.121-76.283 1.742-1.876 3.581-2.719 5.954-2.73.603.112 8.08 2.111 26.753 33.8 10.655 18.083 21.11 39.248 28.522 55-18.49 12.539-36.708 31.288-51.512 53.509-2.813 4.222-5.471 8.526-7.981 12.894-2.726-15.959-4.99-31.144-6.74-45.304-.507-4.11-4.246-7.031-8.363-6.524-4.11.508-7.031 4.252-6.523 8.363 2.488 20.144 5.983 42.274 10.38 65.779-11.511 26.373-17.657 54.274-17.657 81.257 0 41.358 23.842 81.469 67.202 113.263.456 30.442-1.716 74.613-14.304 115.242-1.226 3.957.988 8.158 4.944 9.384.739.229 1.486.338 2.222.338 3.201 0 6.165-2.065 7.162-5.282 1.257-4.058 2.415-8.146 3.481-12.25 13.214 6.677 27.737 12.405 43.31 17.044.714.213 1.435.314 2.144.314 3.231 0 6.215-2.105 7.185-5.361 1.183-3.97-1.076-8.146-5.047-9.329-16.025-4.774-30.825-10.747-44.091-17.748 1.115-5.394 2.086-10.779 2.931-16.126 37.668 19.592 83.836 31.14 125.376 31.14 41.575 0 87.705-11.546 125.378-31.144.843 5.345 1.815 10.732 2.929 16.129-13.431 7.089-28.428 13.121-44.676 17.923-3.973 1.174-6.241 5.345-5.067 9.318.964 3.263 3.951 5.376 7.189 5.376.703 0 1.419-.1 2.128-.31 15.805-4.67 30.536-10.459 43.928-17.226 1.065 4.104 2.221 8.192 3.479 12.25.997 3.217 3.961 5.282 7.162 5.282.734 0 1.482-.109 2.222-.338 3.956-1.226 6.17-5.427 4.944-9.384-12.568-40.567-14.723-84.697-14.316-114.574.003-.225-.008-.446-.025-.666 11.345-8.322 21.715-17.497 30.66-27.344 2.785-3.066 2.558-7.809-.509-10.594-3.065-2.784-7.808-2.559-10.595.508-18.561 20.432-43.657 37.993-72.578 50.786-27.711 12.257-56.923 19.007-82.254 19.007-39.477 0-86.924-16.307-123.826-42.557-41.069-29.215-63.688-65.819-63.688-103.071 0-4.992.237-10.021.688-15.068 2.534-2.154 7.833-6.079 16.221-9.673-1.987 26.967 8.224 58.768 42.733 78.691 1.182.682 2.471 1.006 3.743 1.006 2.592 0 5.113-1.346 6.502-3.751 2.071-3.587.842-8.174-2.745-10.245-31.089-17.949-38.284-47.492-34.565-70.741 4.627-1.054 9.762-1.884 15.432-2.357-1.26 7.152-.407 14.813 2.602 22.416 4.493 11.353 13.334 21.281 24.895 27.956 9.436 5.448 19.6 8.062 29.192 8.062 15.249 0 29.054-6.609 36.182-18.956 11.612-20.114 1.181-47.954-23.254-62.062-22.862-13.2-50.004-9.768-62.915 7.203-23.397.639-40.226 6.746-51.13 12.621 5.12-25.314 15.62-50.486 30.787-73.251 19.431-29.165 44.784-51.673 67.82-60.209 12.725-4.716 25.056-8.16 37.863-10.511l.451 105.893c.018 4.131 3.372 7.468 7.499 7.468h.033c4.142-.018 7.485-3.39 7.468-7.532l-.46-108.056c7.966-.912 16.229-1.45 24.972-1.642v132.141c0 4.142 3.357 7.5 7.5 7.5s7.5-3.358 7.5-7.5v-132.142c8.742.192 17.006.729 24.972 1.642l-.46 108.056c-.018 4.142 3.326 7.514 7.468 7.532h.033c4.127 0 7.481-3.337 7.499-7.468l.451-105.893c12.806 2.351 25.138 5.795 37.863 10.511 23.036 8.537 48.39 31.045 67.82 60.21 15.167 22.764 25.667 47.937 30.787 73.25-10.905-5.875-27.733-11.982-51.13-12.621-12.911-16.971-40.055-20.402-62.915-7.203-24.435 14.107-34.866 41.948-23.254 62.062 7.129 12.348 20.931 18.956 36.182 18.956 9.592 0 19.758-2.616 29.192-8.062 11.561-6.674 20.401-16.603 24.895-27.956 3.009-7.602 3.862-15.264 2.602-22.416 5.67.473 10.805 1.303 15.432 2.357 3.719 23.249-3.476 52.792-34.565 70.741-3.587 2.071-4.816 6.658-2.745 10.245 1.389 2.406 3.91 3.751 6.502 3.751 1.272 0 2.562-.324 3.743-1.006 34.51-19.924 44.721-51.726 42.733-78.694 8.405 3.6 13.705 7.531 16.221 9.67.452 5.048.689 10.079.689 15.073 0 17.04-4.712 33.977-14.004 50.341-2.046 3.602-.784 8.18 2.818 10.226 3.602 2.045 8.18.784 10.225-2.818 10.591-18.65 15.961-38.08 15.961-57.749-.003-26.981-6.148-54.88-17.658-81.252zm-64.593 204.672c.027 4.734.125 9.727.313 14.924-36.42 23.063-82.238 37.284-120.578 37.284-11.726 0-24.252-1.314-37.233-3.907-4.056-.812-8.013 1.823-8.823 5.885-.812 4.062 1.823 8.013 5.886 8.824 13.945 2.786 27.461 4.198 40.171 4.198 38.554 0 84.03-13.346 121.499-35.291.432 5.946.994 12.064 1.716 18.298-36.415 20.074-82.172 31.993-123.216 31.993-41.008 0-86.803-11.927-123.213-31.995.721-6.222 1.286-12.338 1.718-18.289 14.86 8.71 31.2 16.223 47.879 21.975.81.279 1.635.412 2.445.412 3.111 0 6.019-1.951 7.09-5.057 1.351-3.916-.729-8.185-4.645-9.536-18.3-6.312-36.148-14.852-51.85-24.793.186-5.177.283-10.162.311-14.91 37.239 23.149 82.122 37.192 120.265 37.192 39.305.001 83.464-14.243 120.265-37.207zm-219.537-171.294c3.43 0 7.008.484 10.604 1.449v31.932c0 4.142 3.357 7.5 7.5 7.5s7.5-3.358 7.5-7.5v-24.848c14.653 10.353 20.96 27.203 14.044 39.182-7.479 12.948-27.613 15.373-44.884 5.403-8.643-4.99-15.194-12.265-18.447-20.486-3.014-7.613-2.771-15.102.685-21.085 4.372-7.574 13.072-11.547 22.998-11.547zm222.227 32.632c-3.253 8.221-9.805 15.496-18.447 20.486-17.271 9.972-37.406 7.547-44.884-5.403-7.402-12.822.341-31.224 17.258-41.266v24.799c0 4.142 3.357 7.5 7.5 7.5s7.5-3.358 7.5-7.5v-30.536c12.843-2.421 24.956 1.426 30.389 10.835 3.454 5.983 3.697 13.471.684 21.085zm-213.494-167.18c-3.513 1.302-7.066 2.89-10.636 4.726-7.705-16.315-18.365-37.764-29.229-56.054-2.64-4.445-5.151-8.473-7.555-12.127 18.214 11.712 41.157 31.112 67.2 57.015-6.56 1.84-13.116 3.97-19.78 6.44zm161.297-6.441c26.043-25.903 48.986-45.303 67.2-57.015-2.404 3.654-4.915 7.682-7.555 12.127-10.864 18.29-21.523 39.74-29.229 56.054-3.57-1.836-7.124-3.424-10.636-4.726-6.664-2.469-13.22-4.599-19.78-6.44zm43.358 18.89c7.412-15.753 17.867-36.917 28.522-55 18.651-31.652 26.135-33.684 26.752-33.799 2.578.013 4.565 1.025 6.437 3.281 12.497 15.065 11.57 71.206-2.213 151.931-2.511-4.371-5.171-8.678-7.986-12.903-14.804-22.221-33.022-40.971-51.512-53.51z"/><path d="m181.066 315.479c-3.435-2.321-8.096-1.416-10.414 2.016-5.563 8.235-8.505 17.86-8.505 27.835 0 27.445 22.329 49.774 49.774 49.774 20.97 0 36.23-11.108 44.081-18.524 7.851 7.416 23.111 18.524 44.081 18.524 27.445 0 49.774-22.329 49.774-49.774 0-9.975-2.941-19.6-8.505-27.835-2.318-3.432-6.982-4.335-10.414-2.016s-4.334 6.981-2.016 10.413c3.367 4.983 5.352 10.7 5.821 16.676-2.234 2.035-7.004 5.278-14.753 5.278-7.682 0-15.255-1.83-22.51-5.439-3.71-1.847-8.212-.334-10.056 3.375-1.845 3.708-.334 8.21 3.374 10.055 9.35 4.651 19.171 7.009 29.191 7.009 4.114 0 7.757-.589 10.95-1.516-5.801 11.142-17.452 18.772-30.859 18.772-18.938 0-32.254-12.571-36.581-17.286v-21.116c3.041-.665 6.834-1.784 11.113-3.683 3.786-1.68 5.493-6.111 3.813-9.897s-6.113-5.492-9.897-3.812c-7.322 3.25-12.495 3.355-12.512 3.355-.052 0-5.225-.106-12.547-3.355-3.783-1.68-8.218.026-9.897 3.812s.027 8.217 3.813 9.897c4.279 1.899 8.072 3.019 11.113 3.683v21.141c-4.298 4.733-17.481 17.263-36.581 17.263-13.407 0-25.057-7.631-30.859-18.772 3.193.927 6.836 1.516 10.95 1.516 10.021 0 19.842-2.358 29.191-7.009 3.708-1.845 5.219-6.347 3.374-10.055-1.845-3.709-6.346-5.22-10.056-3.375-7.255 3.609-14.828 5.439-22.51 5.439-7.749 0-12.518-3.243-14.753-5.278.469-5.976 2.454-11.693 5.821-16.676 2.325-3.434 1.423-8.096-2.009-10.415z"/><path d="m175.846 159.896c-4.142.087-7.429 3.514-7.342 7.655l.488 23.373c.085 4.088 3.426 7.343 7.495 7.343.053 0 .106 0 .159-.001 4.142-.087 7.429-3.514 7.342-7.655l-.488-23.373c-.085-4.14-3.54-7.415-7.654-7.342z"/><path d="m335.517 198.268c4.069 0 7.41-3.256 7.495-7.343l.488-23.373c.087-4.141-3.2-7.568-7.342-7.655-4.141-.074-7.568 3.202-7.654 7.342l-.488 23.373c-.087 4.141 3.2 7.568 7.342 7.655.053 0 .106.001.159.001z"/></g></g></svg>