<svg id="Capa_1" enable-background="new 0 0 512.001 512.001" height="512" viewBox="0 0 512.001 512.001" width="512" xmlns="http://www.w3.org/2000/svg"><g><g><path d="m425.344 7.5c-44.393 0-144.221 114.899-144.221 114.899l143.643 111.298z" fill="#b78c7a"/><path d="m353.407 164.074 69.146-33.697c-44.339-43.452-77.321-55.867-111.169-40.587z" fill="#ab7b64"/><path d="m425.344 7.5c-14.419 0-40.559 48.716-57.044 82.706l61.374 63.107c11.348-66.909 14.827-136-4.33-145.813z" fill="#eebfb6"/><path d="m425.344 7.5c3.288 8.358 7.184 43.083 1.253 94.543-1.361 11.809-15.22 17.461-24.414 9.925-11.997-9.833-23.189-17.056-33.884-21.762-8.83 18.207-14.892 32.193-14.892 32.193l71.359 111.299c0-.001 52.22-226.198.578-226.198z" fill="#eaa598"/><path d="m200.616 89.789c-33.071-33.97-85.168-82.289-113.958-82.289l24.566 129.089z" fill="#b78c7a"/><path d="m200.616 89.789c-25.918-13.505-56.548-3.472-77.123 9.89-14.213-30.845-36.835-92.179-36.835-92.179l.577 226.197 143.643-111.299c0 .001-12.34-14.199-30.262-32.609z" fill="#ab7b64"/><path d="m86.658 7.5c-29.341 0-25.154 73.018-16.067 136.083l72.902-33.904z" fill="#eebfb6"/><path d="m158.594 122.399s-49.793-114.899-71.936-114.899c0 0 17.902 48.536 31.861 80.969 2.766 6.427.719 13.927-4.949 18.03-16.853 12.197-32.128 26.289-42.979 37.084 6.907 47.932 16.644 90.115 16.644 90.115z" fill="#eaa598"/><path d="m464.501 494.5v-170c26.935-85.905-44.94-174.393-105.058-215.516-7.559-4.226-14.937-7.767-22.012-10.599-23.669-9.472-47.427-14.938-81.429-14.938s-57.76 5.466-81.429 14.938c-57.052 22.831-133.7 91.658-167.071 195.587v190.528z" fill="#ffead9"/><path d="m359.442 108.984c46.223 36.409 111.993 124.716 85.058 200.661-4.094 11.544-9.911 17.965-14.216 21.374-3.607 2.856-5.784 7.143-5.784 11.743v126.738c0 8.284-6.716 15-15 15h-402v20h497v-210.528c-29.231-91.039-91.671-155.141-145.058-184.988z" fill="#f4dabd"/><path d="m256.001 334.296-74.731 55.031s23.967 30.209 74.731 30.209 74.731-30.209 74.731-30.209z" fill="#b78c7a"/><path d="m256.001 123.447c-82.398 0-188.5 78.869-188.5 186.198 7.279 20.523 22.884 46.72 47.793 46.72 5.109 17.233 32.279 32.961 65.976 32.961 60.048 0 74.731-41.723 74.731-55.031 0 13.308 14.682 55.031 74.731 55.031 33.697 0 60.867-15.728 65.976-32.961 24.909 0 40.514-26.198 47.793-46.72 0-107.329-106.102-186.198-188.5-186.198z" fill="#9a695e"/><path d="m125.294 346.366c-24.909 0-50.514-16.198-57.793-36.72 0 50.717 55.956 79.681 113.769 79.681-33.697-.001-50.867-25.728-55.976-42.961z" fill="#855b51"/><path d="m386.708 346.366c-5.109 17.233-22.279 42.961-55.976 42.961 57.818 0 113.769-28.964 113.769-79.681-7.279 20.522-32.885 36.72-57.793 36.72z" fill="#855b51"/><path d="m182.364 225.55c-20.886-12.059-45.568-8.411-55.128 8.148-5.545 9.604-4.774 21.439.917 32.042 19.683 19.682 55.221 18.078 64.719 1.627 5.545-9.605 4.776-28.633-10.508-41.817z" fill="#beeedd"/><path d="m182.364 225.55s8.72 17.593.508 31.816c-9.498 16.451-33.92 20.151-54.719 8.373 4.122 7.677 10.818 14.71 19.591 19.774 20.886 12.059 45.568 8.411 55.128-8.148 9.56-16.558.378-39.757-20.508-51.815z" fill="#94ccd4"/><path d="m384.766 233.697s6.176 20.076-33.208 42.814c-27.293 15.758-42.429.854-42.429.854-9.56-16.559-.378-39.758 20.508-51.816s45.569-8.41 55.129 8.148z" fill="#beeedd"/><path d="m384.766 233.697s-5.851 14.539-37.508 32.816c-21.939 12.666-38.128 10.852-38.128 10.852 9.56 16.559 34.242 20.207 55.128 8.148s30.068-35.257 20.508-51.816z" fill="#94ccd4"/></g><g><path d="m120.74 229.947c-5.793 10.033-6.376 22.145-1.642 34.106 4.493 11.353 13.334 21.281 24.895 27.956 9.436 5.448 19.6 8.062 29.192 8.062 15.249 0 29.054-6.609 36.182-18.956 11.612-20.114 1.181-47.954-23.254-62.062s-53.76-9.22-65.373 10.894zm75.637 43.669c-7.479 12.948-27.613 15.373-44.884 5.403-8.643-4.99-15.194-12.265-18.447-20.486-3.014-7.613-2.771-15.102.685-21.085 4.373-7.573 13.073-11.546 22.999-11.546 3.501 0 7.155.497 10.824 1.502v28.129c0 4.142 3.357 7.5 7.5 7.5s7.5-3.358 7.5-7.5v-20.941c14.495 10.365 20.704 27.105 13.823 39.024z"/><path d="m302.635 281.116c7.129 12.348 20.931 18.956 36.182 18.956 9.592 0 19.758-2.616 29.192-8.062 11.561-6.674 20.401-16.603 24.895-27.956 4.734-11.961 4.151-24.073-1.642-34.106-11.612-20.114-40.94-25-65.373-10.893-24.435 14.107-34.867 41.947-23.254 62.061zm75.636-43.669c3.455 5.984 3.698 13.472.685 21.085-3.253 8.221-9.805 15.496-18.447 20.486-17.272 9.972-37.407 7.547-44.884-5.403-6.881-11.919-.672-28.659 13.823-39.025v20.941c0 4.142 3.357 7.5 7.5 7.5s7.5-3.358 7.5-7.5v-28.124c14.073-3.855 27.908-.204 33.823 10.04z"/><path d="m511.641 291.68c-15.23-47.434-39.392-88.06-66.965-120.568 3.957-23.371 6.854-44.617 8.677-63.53 7.961 2.087 15.464 4.957 22.204 8.61 1.136.616 2.359.908 3.566.908 2.663 0 5.242-1.422 6.601-3.928 1.974-3.642.621-8.194-3.021-10.167-8.554-4.636-18.057-8.167-28.083-10.608.325-4.683.579-9.209.749-13.546 1.413-35.971-2.565-58.979-12.162-70.341-4.7-5.568-10.878-8.51-17.863-8.51-24.098 0-63.242 27.436-116.35 81.516-16.465-3.826-33.467-5.569-52.993-5.569-19.525 0-36.527 1.742-52.992 5.568-53.11-54.079-92.254-81.515-116.351-81.515-6.561 0-12.446 2.612-17.021 7.554-6.611 7.142-10.654 19.129-12.358 36.646-1.26 12.951-1.225 29.15.099 48.196-10.025 2.441-19.527 5.971-28.081 10.607-3.642 1.974-4.994 6.525-3.021 10.167 1.358 2.506 3.937 3.928 6.601 3.928 1.207 0 2.431-.292 3.566-.908 27.276-14.782 67.042-16.749 99.089-5.759-18.553 11.952-37.458 27.516-55.353 46.361-1.482-9.349-2.794-18.399-3.91-27.009-.533-4.107-4.287-6.999-8.401-6.474-4.108.533-7.007 4.294-6.474 8.402 1.605 12.383 3.601 25.638 5.93 39.398-27.572 32.511-51.734 73.137-66.964 120.571-.238.741-.359 1.515-.359 2.293v210.527c0 4.142 3.357 7.5 7.5 7.5s7.5-3.358 7.5-7.5v-209.346c14.933-45.948 40.045-88.908 72.67-124.304 27.481-29.815 60.172-53.69 89.687-65.502 25.562-10.229 48.346-14.401 78.644-14.401s53.082 4.172 78.644 14.401c29.515 11.812 62.205 35.687 89.687 65.502 32.625 35.396 57.737 78.356 72.67 124.304v25.634c0 4.142 3.357 7.5 7.5 7.5s7.5-3.358 7.5-7.5v-26.815c-.002-.779-.123-1.552-.362-2.293zm-439.414-202.047c-3.356-50.824 3.757-66.854 8.419-71.89 1.742-1.883 3.583-2.728 5.959-2.741.712.166 14.831 4.472 51.293 80.389-20.802-6.72-43.939-8.626-65.671-5.758zm99.558 1.789c-5.156 2.063-10.424 4.468-15.765 7.189-7.669-16.359-18.177-37.656-29.026-56.218-3.149-5.388-6.122-10.208-8.948-14.501 18.49 11.889 41.853 31.708 68.4 58.221-4.858 1.572-9.728 3.335-14.661 5.309zm268.013-1.785c-21.74-2.873-44.886-.968-65.695 5.755 36.436-75.862 50.561-80.217 51.292-80.389 2.542.013 4.504.996 6.354 3.185 4.22 4.996 11.354 21.03 8.049 71.449zm-114.243-3.523c26.549-26.516 49.913-46.335 68.404-58.224-2.827 4.296-5.8 9.113-8.952 14.505-10.849 18.561-21.357 39.859-29.026 56.218-5.341-2.721-10.609-5.126-15.765-7.189-4.933-1.976-9.802-3.739-14.661-5.31zm50.914 24.318c19.376-6.645 41.566-8.552 62.121-5.752-1.392 14.779-3.571 32.02-6.764 52.115-17.897-18.845-36.803-34.41-55.357-46.363z"/><path d="m504.501 343.288c-4.143 0-7.5 3.358-7.5 7.5v153.712c0 4.142 3.357 7.5 7.5 7.5s7.5-3.358 7.5-7.5v-153.712c0-4.142-3.358-7.5-7.5-7.5z"/><path d="m98.544 398.662-30 30c-2.929 2.929-2.929 7.678 0 10.606 1.465 1.464 3.385 2.197 5.304 2.197s3.839-.732 5.304-2.197l30-30c2.929-2.929 2.929-7.678 0-10.606-2.931-2.929-7.679-2.929-10.608 0z"/><path d="m147.204 426.099c-3.589-2.072-8.176-.842-10.245 2.745l-21.213 36.742c-2.071 3.587-.842 8.174 2.745 10.245 1.182.682 2.471 1.006 3.743 1.006 2.592 0 5.113-1.346 6.502-3.751l21.213-36.742c2.071-3.588.842-8.175-2.745-10.245z"/><path d="m219.594 461.263c-3.59-2.072-8.175-.842-10.245 2.745l-21.213 36.742c-2.071 3.587-.842 8.174 2.745 10.245 1.182.682 2.471 1.006 3.743 1.006 2.592 0 5.113-1.346 6.502-3.751l21.213-36.742c2.071-3.588.841-8.175-2.745-10.245z"/><path d="m413.458 398.662c-2.93-2.929-7.678-2.929-10.607 0s-2.929 7.678 0 10.606l30 30c1.465 1.464 3.385 2.197 5.304 2.197s3.839-.732 5.304-2.197c2.929-2.929 2.929-7.678 0-10.606z"/><path d="m375.043 428.844c-2.07-3.588-6.659-4.816-10.245-2.745-3.587 2.071-4.816 6.658-2.745 10.245l21.213 36.742c1.389 2.406 3.91 3.751 6.502 3.751 1.272 0 2.562-.324 3.743-1.006 3.587-2.071 4.816-6.658 2.745-10.245z"/><path d="m423.526 214.748c-16.746-26.371-40.266-49.603-68.015-67.184-3.496-2.215-8.131-1.178-10.349 2.321s-1.178 8.133 2.321 10.35c55.99 35.475 89.418 91.33 89.418 149.411 0 26.63-17.264 43.272-31.746 52.543-7.348 4.704-15.786 8.649-24.939 11.743 6.632-7.926 11.166-16.949 13.681-25.433 1.178-3.971-1.087-8.145-5.059-9.322-3.969-1.178-8.145 1.087-9.322 5.059-1.14 3.845-12.187 37.537-48.702 37.59-.043 0-.086.002-.13.002-23.39-.009-42.176-6.963-54.33-20.114-9.432-10.206-12.855-21.987-12.855-27.416v-12.598c3.041-.665 6.834-1.784 11.113-3.683 3.786-1.68 5.493-6.111 3.813-9.897s-6.114-5.492-9.897-3.812c-7.322 3.25-12.495 3.355-12.512 3.355-.052 0-5.225-.106-12.547-3.355-3.783-1.68-8.218.026-9.897 3.812s.027 8.217 3.813 9.897c4.279 1.899 8.072 3.019 11.113 3.683v12.596c0 5.429-3.424 17.209-12.855 27.416-12.16 13.158-30.96 20.114-54.368 20.115-.002 0-.005 0-.007 0-36.584 0-47.646-33.745-48.786-37.592-1.178-3.972-5.354-6.236-9.322-5.059-3.972 1.177-6.236 5.351-5.059 9.322 2.53 8.535 7.106 17.614 13.803 25.575-8.092-2.724-15.66-6.12-22.477-10.169-3.561-2.114-8.162-.943-10.278 2.618-2.115 3.561-.943 8.163 2.618 10.278 20.912 12.422 47.8 19.476 76.037 19.996 7.717 8.017 33.173 30.24 78.194 30.24 44.998 0 70.317-22.2 78.011-30.24.392-.007.779-.03 1.17-.039 1.038-.025 2.072-.062 3.105-.104.792-.033 1.581-.069 2.37-.112 1.16-.063 2.315-.137 3.468-.222.644-.048 1.287-.098 1.928-.152 1.278-.108 2.55-.228 3.818-.362.497-.053.993-.109 1.489-.166 1.396-.16 2.784-.334 4.166-.526.347-.048.692-.099 1.038-.15 1.515-.22 3.022-.457 4.52-.715.19-.033.379-.068.569-.101 1.641-.289 3.271-.598 4.888-.933.022-.004.043-.009.065-.014 17.392-3.605 33.372-9.824 46.737-18.378 24.93-15.959 38.659-39.105 38.659-65.176 0-.449-.046-.887-.122-1.314-.247-32.844-9.77-64.325-28.351-93.584zm-167.525 197.288c-19.384 0-36.862-4.591-51.95-13.647-1.626-.976-3.121-1.952-4.514-2.911 23.914-3.701 38.6-14.361 47.125-23.586 3.776-4.086 6.875-8.466 9.339-12.847 2.464 4.381 5.562 8.76 9.339 12.847 8.514 9.212 23.173 19.855 47.03 23.57-1.397.968-2.898 1.953-4.532 2.938-15.021 9.048-32.46 13.636-51.837 13.636z"/><path d="m327.388 132.386c-24.046-10.754-48.732-16.438-71.388-16.438-43.386 0-92.046 20.477-130.166 54.775-42.454 38.197-65.834 87.535-65.834 138.922 0 16.415 5.198 31.376 15.45 44.47 1.479 1.889 3.684 2.876 5.91 2.876 1.617 0 3.247-.521 4.619-1.595 3.261-2.554 3.835-7.268 1.281-10.529-8.136-10.39-12.261-22.24-12.261-35.222 0-47.079 21.616-92.456 60.867-127.771 35.441-31.889 80.351-50.926 120.133-50.926 20.562 0 43.129 5.232 65.265 15.132 3.778 1.69 8.217-.003 9.908-3.785 1.692-3.782-.002-8.218-3.784-9.909z"/></g></g></svg>