<svg id="Capa_1" enable-background="new 0 0 512.002 512.002" height="512" viewBox="0 0 512.002 512.002" width="512" xmlns="http://www.w3.org/2000/svg"><g><g><path d="m361.598 343.965h-236.028s9.251 71.303-6.661 140.535l263.544 10z" fill="#7e8b96"/><path d="m398.453 504.5c-23.158-74.744-12.021-160.535-12.021-160.535h-24.834c-2.867 36.794-4.122 84.114 2.889 122.88 1.664 9.2-5.408 17.655-14.757 17.655h-230.82c-1.542 6.708-3.315 13.397-5.36 20z" fill="#5f6c75"/><path d="m199.812 88.964c-33.105-33.922-84.597-81.464-113.154-81.464l24.566 116.669z" fill="#7e8b96"/><path d="m199.812 88.964c-16.756-13.596-46.964-14.594-77.344 6.482-13.96-35.498-28.087-74.586-35.81-87.946l.577 226.197 143.643-111.299c.001.001-12.707-14.624-31.066-33.434z" fill="#5f6c75"/><path d="m139.606 106.833c-13.96-35.497-37.875-88.475-52.948-99.333-30.843 0-24.638 80.68-14.638 145.672z" fill="#b78c7a"/><path d="m158.594 122.399s-49.793-114.899-71.936-114.899c6.968 12.055 19.151 45.057 31.72 77.468 2.315 5.97.623 12.779-4.292 16.883-15.752 13.151-30.083 31.427-42.066 51.321 6.744 43.829 15.215 80.525 15.215 80.525z" fill="#ab7b64"/><path d="m425.344 7.5c-44.393 0-144.221 114.899-144.221 114.899l143.643 111.298z" fill="#7e8b96"/><path d="m422.834 131.848c-23.098-36.646-77.009-68.608-110.827-42.924l41.401 33.475z" fill="#5f6c75"/><path d="m431.015 153.313c12.743-67.772 10.294-133.843-5.671-145.813-13.894 0-38.671 45.233-55.206 78.937z" fill="#b78c7a"/><path d="m425.344 7.5c4.658 12.067 8.25 44.179 2.582 91.438-1.456 12.14-16.057 17.528-25.05 9.245-9.758-8.988-21.055-16.636-32.738-21.746-9.817 20.012-16.73 35.961-16.73 35.961l71.359 111.299s52.219-226.197.577-226.197z" fill="#ab7b64"/><path d="m431.015 263.775c0-91.171-54.054-149.209-87.082-165.39-25.56-9.472-51.214-14.938-87.932-14.938s-62.372 5.466-87.931 14.938c-47.772 17.704-107.082 92.057-107.082 175.39 0 43.603 28.457 81.968 67.14 109.391 25.06 15.511 67.353 28.737 127.874 28.737 81.776 0 175.013-61.144 175.013-148.128z" fill="#7e8b96"/><path d="m343.933 98.385c17.028 8.342 77.082 72.057 77.082 155.39 0 86.983-93.236 148.128-175.014 148.128-60.521 0-95.745-8.595-117.874-18.737 38.484 27.283 87.09 43.737 127.874 43.737 81.777 0 195.014-66.145 195.014-153.128 0-83.332-59.31-157.686-107.082-175.39z" fill="#5f6c75"/><path d="m182.364 225.55c-20.886-12.059-45.568-8.411-55.128 8.148-5.545 9.604-4.774 21.439.917 32.042 19.683 19.682 55.221 18.078 64.719 1.627 5.545-9.605 4.776-28.633-10.508-41.817z" fill="#efcb83"/><path d="m182.364 225.55s8.72 17.593.508 31.816c-9.498 16.451-33.92 20.151-54.719 8.373 4.122 7.677 10.818 14.71 19.591 19.774 20.886 12.059 45.568 8.411 55.128-8.148 9.56-16.558.378-39.757-20.508-51.815z" fill="#e9a761"/><path d="m384.767 233.697s6.176 20.076-33.208 42.814c-27.293 15.758-42.429.854-42.429.854-9.56-16.559-.378-39.758 20.508-51.816s45.569-8.41 55.129 8.148z" fill="#efcb83"/><path d="m384.767 233.697s-5.851 14.539-37.508 32.816c-21.939 12.666-38.128 10.852-38.128 10.852 9.56 16.559 34.242 20.207 55.128 8.148s30.068-35.257 20.508-51.816z" fill="#e9a761"/></g><g><path d="m397.547 468.966c-.744-4.075-4.651-6.774-8.726-6.03s-6.774 4.651-6.03 8.726c2.254 12.338 5.113 24.134 8.498 35.058.997 3.218 3.961 5.282 7.162 5.282.735 0 1.483-.109 2.222-.338 3.957-1.226 6.17-5.427 4.944-9.384-3.208-10.354-5.923-21.562-8.07-33.314z"/><path d="m237.387 338.017c4.28 1.899 8.072 3.018 11.114 3.683v21.116c-4.346 4.734-17.656 17.288-36.582 17.288-19.175 0-34.774-15.6-34.774-34.774 0-6.97 2.052-13.691 5.935-19.438 2.319-3.432 1.417-8.094-2.016-10.413-3.432-2.32-8.094-1.417-10.413 2.016-5.564 8.236-8.506 17.861-8.506 27.835 0 27.445 22.329 49.774 49.774 49.774 20.97 0 36.23-11.108 44.082-18.524 7.851 7.416 23.111 18.524 44.082 18.524 27.446 0 49.774-22.329 49.774-49.774 0-9.974-2.941-19.599-8.506-27.835-2.318-3.431-6.979-4.334-10.413-2.016-3.432 2.319-4.335 6.981-2.016 10.413 3.882 5.747 5.935 12.468 5.935 19.438 0 19.174-15.6 34.774-34.774 34.774-18.938 0-32.254-12.571-36.582-17.286v-21.118c3.041-.665 6.834-1.784 11.114-3.683 3.786-1.68 5.493-6.112 3.813-9.898-1.681-3.786-6.11-5.49-9.898-3.813-7.322 3.25-12.495 3.355-12.467 3.356-.041 0-.082 0-.123 0-.067 0-5.159-.112-12.467-3.356-3.787-1.68-8.217.027-9.898 3.813s.027 8.217 3.812 9.898z"/><path d="m221.49 199.902c-4.142 0-7.5 3.358-7.5 7.5v13.365c0 4.142 3.358 7.5 7.5 7.5s7.5-3.358 7.5-7.5v-13.365c0-4.142-3.358-7.5-7.5-7.5z"/><path d="m290.512 199.902c-4.142 0-7.5 3.358-7.5 7.5v13.365c0 4.142 3.358 7.5 7.5 7.5s7.5-3.358 7.5-7.5v-13.365c0-4.142-3.358-7.5-7.5-7.5z"/><path d="m180.651 299.591c12.725-1.881 22.923-8.442 28.715-18.475 5.793-10.033 6.376-22.145 1.642-34.105-4.493-11.353-13.334-21.281-24.895-27.956-24.435-14.107-53.761-9.221-65.374 10.893-5.792 10.033-6.375 22.146-1.642 34.106 4.494 11.353 13.335 21.281 24.896 27.956 9.23 5.329 19.389 8.12 29.258 8.12 2.492-.002 4.966-.179 7.4-.539zm-47.606-41.058c-3.013-7.613-2.77-15.102.685-21.085 4.373-7.573 13.073-11.547 22.999-11.547 3.431 0 7.009.484 10.604 1.449v31.933c0 4.142 3.358 7.5 7.5 7.5s7.5-3.358 7.5-7.5v-24.85c6.799 4.8 11.961 11.104 14.729 18.098 3.013 7.613 2.77 15.102-.685 21.085-3.455 5.984-9.818 9.939-17.918 11.136-8.745 1.292-18.322-.744-26.965-5.733-8.643-4.99-15.195-12.266-18.449-20.486z"/><path d="m302.635 281.116c5.792 10.032 15.991 16.594 28.715 18.475 2.435.36 4.908.538 7.399.538 9.869 0 20.028-2.791 29.258-8.12 11.561-6.674 20.402-16.603 24.896-27.956 4.733-11.96 4.15-24.073-1.642-34.106-11.613-20.114-40.939-25-65.374-10.893-11.561 6.675-20.402 16.603-24.895 27.956-4.733 11.961-4.15 24.073 1.643 34.106zm12.305-28.586c2.768-6.993 7.929-13.297 14.729-18.098v24.85c0 4.142 3.358 7.5 7.5 7.5s7.5-3.358 7.5-7.5v-31.933c3.595-.965 7.173-1.449 10.604-1.449 9.924 0 18.626 3.974 22.999 11.547 3.455 5.984 3.698 13.472.685 21.085-3.254 8.221-9.805 15.496-18.448 20.486s-18.22 7.027-26.965 5.733c-8.1-1.197-14.463-5.152-17.918-11.136-3.456-5.983-3.699-13.471-.686-21.085z"/><path d="m71.137 192.492c-3.226 7.383-6.061 14.913-8.446 22.546-1.235 3.954.968 8.16 4.921 9.396.745.232 1.498.343 2.24.343 3.193 0 6.153-2.056 7.156-5.265 18.421-58.942 61.064-102.012 93.668-114.095 17.842-6.612 33.78-10.507 51.679-12.628 4.113-.487 7.053-4.217 6.565-8.331-.487-4.113-4.213-7.05-8.331-6.565-6.212.736-12.277 1.699-18.289 2.9-52.761-53.6-91.668-80.793-115.642-80.793-7.071 0-13.306 3.011-18.03 8.707-10.539 12.705-14.237 39.827-11.304 82.914 2.381 34.974 8.772 73.918 13.813 100.871zm94.326-101.139c-3.512 1.301-7.066 2.888-10.639 4.721-7.706-16.315-18.364-37.763-29.226-56.049-2.637-4.439-5.147-8.473-7.548-12.123 18.21 11.711 41.145 31.105 67.179 56.997-6.511 1.83-13.06 3.968-19.766 6.454zm-85.29-73.07c1.872-2.256 3.86-3.268 6.438-3.281.612.114 8.092 2.132 26.752 33.799 10.651 18.076 21.103 39.234 28.516 54.986-12.189 8.248-24.301 19.216-35.472 32.289-9.019 10.554-17.07 22.028-24.024 34.122-13.781-80.716-14.707-136.849-2.21-151.915z"/><path d="m440.859 192.52c2.564-13.706 4.85-27.121 6.794-39.889.624-4.095-2.191-7.92-6.286-8.543-4.094-.62-7.92 2.191-8.543 6.286-.983 6.46-2.056 13.089-3.208 19.84-2.511-4.37-5.171-8.677-7.986-12.901-14.804-22.22-33.023-40.97-51.513-53.509 7.412-15.753 17.867-36.918 28.522-55.001 18.654-31.658 26.138-33.684 26.753-33.799 2.447.012 4.339.913 6.129 2.922 5.713 6.417 14.022 28.143 5.48 101.554-.479 4.114 2.468 7.838 6.583 8.316.294.034.586.051.876.051 3.754 0 6.996-2.814 7.44-6.634 7.13-61.271 4.128-98.319-9.177-113.262-4.63-5.202-10.64-7.951-17.379-7.951-23.975 0-62.887 27.197-115.655 80.808-16.683-3.334-33.99-4.861-53.688-4.861-4.142 0-7.5 3.358-7.5 7.5s3.358 7.5 7.5 7.5c32.438 0 57.957 4.328 85.325 14.471 23.036 8.537 48.39 31.045 67.82 60.21 22.163 33.265 34.368 71.672 34.368 108.147 0 37.252-22.618 73.856-63.688 103.071-36.902 26.25-84.349 42.557-123.826 42.557s-86.924-16.307-123.826-42.557c-41.069-29.215-63.688-65.819-63.688-103.071 0-7.672.534-15.502 1.586-23.274.556-4.104-2.321-7.883-6.426-8.438-4.103-.557-7.883 2.321-8.438 6.426-1.143 8.437-1.722 16.944-1.722 25.287 0 41.359 23.842 81.469 67.203 113.264.455 30.443-1.718 74.614-14.305 115.241-1.226 3.957.988 8.158 4.944 9.384.739.229 1.487.338 2.222.338 3.2 0 6.165-2.065 7.162-5.282 11.784-38.034 14.847-78.76 15.023-109.509 37.238 23.149 82.121 37.192 120.265 37.192 38.145 0 83.031-14.044 120.271-37.196.075 13.516.683 26.797 1.835 39.593.351 3.897 3.623 6.828 7.461 6.828.225 0 .453-.01.681-.031 4.125-.372 7.169-4.017 6.797-8.142-1.381-15.335-1.968-31.401-1.746-47.749.003-.217-.009-.43-.024-.642 43.382-31.799 67.238-71.919 67.238-113.289.002-26.984-6.144-54.884-17.654-81.256zm-114.099-107.608c26.039-25.899 48.979-45.297 67.192-57.01-2.401 3.65-4.911 7.684-7.548 12.123-10.863 18.29-21.523 39.739-29.228 56.054-3.57-1.836-7.124-3.424-10.637-4.726-6.664-2.47-13.219-4.6-19.779-6.441z"/></g></g></svg>