<svg id="Capa_1" enable-background="new 0 0 512.002 512.002" height="512" viewBox="0 0 512.002 512.002" width="512" xmlns="http://www.w3.org/2000/svg"><g><g><path d="m369.515 403.965h-247.39s-12.628 21.125-32.191 80.535l323.519 11c-12.144-39.196-28.334-81.289-43.938-91.535z" fill="#faf8f8"/><path d="m428.453 504.5c-23.158-74.744-38.577-100.535-38.577-100.535h-20.361c5.571 12.829 13.326 32.488 22.652 60.837 3.192 9.703-4.032 19.698-14.246 19.698h-287.987c-2.054 6.239-4.185 12.897-6.385 20z" fill="#e9edf1"/><path d="m198.361 87.481c-33.143-33.807-83.559-79.981-111.703-79.981l18.566 103.071z" fill="#faf8f8"/><path d="m198.361 87.481c-22.087-14.301-54.77-13.124-83.136 3.09 0 0-17.095-61.841-28.566-83.071l.577 226.197 143.643-111.299c0 .001-13.383-15.399-32.518-34.917z" fill="#e9edf1"/><path d="m135.225 90.571s-29.89-63.503-48.566-83.071c-27.812 0-25.5 65.607-17.444 126.154z" fill="#eebfb6"/><path d="m158.594 122.399s-49.793-114.899-71.936-114.899c8.494 15.72 20.071 53.705 25.509 72.364 1.767 6.063-.429 12.612-5.556 16.3-11.273 8.109-25.065 20.893-37.397 37.491 6.902 51.878 18.021 100.043 18.021 100.043z" fill="#eaa598"/><path d="m425.344 7.5c-44.393 0-144.221 114.899-144.221 114.899l143.643 111.298z" fill="#faf8f8"/><path d="m428.874 143.235s22.747-113.951-3.53-135.735c-15.834 0-45.803 58.747-61.597 92.226z" fill="#eebfb6"/><path d="m425.344 7.5c5.519 34.272 3.542 66.624.96 87.531-1.295 10.482-12.653 16.296-21.998 11.375-10.901-5.741-25.554-10.522-40.56-6.68-6.293 13.339-10.339 22.673-10.339 22.673l71.359 111.299c.001-.001 52.22-226.198.578-226.198z" fill="#eaa598"/><path d="m465.486 303.775c0-83.332-57.332-183.177-101.425-204.118-31.41-11.085-62.938-17.482-108.061-17.482s-76.65 6.397-108.06 17.482c-58.707 20.719-116.424 130.786-116.424 214.118 0 42.413 17.621 75.056 46.157 98.947 41.711 25.758 97.381 41.778 163.328 41.778 115.213 0 224.485-45.075 224.485-150.725z" fill="#faf8f8"/><path d="m364.061 99.657c24.489 10.913 86.425 110.785 86.425 194.118 0 105.65-109.272 150.725-224.485 150.725-54.394 0-107.456-10.053-148.328-31.778 42.546 35.621 109.367 51.778 178.328 51.778 115.213 0 224.485-45.075 224.485-150.725 0-83.332-57.717-193.398-116.425-214.118z" fill="#e9edf1"/><path d="m195.054 245.531c0-5.868-4.557-17.469-13.544-26.456-5.021-2.27-10.588-3.544-16.456-3.544-22.091 0-40 17.909-40 40 0 5.868 1.274 11.435 3.544 16.456 8.321 8.321 20.588 13.544 26.456 13.544 22.091 0 40-17.908 40-40z" fill="#efcb83"/><path d="m181.51 219.076c2.27 5.021 3.544 10.588 3.544 16.456 0 22.092-17.909 40-40 40-5.868 0-11.435-1.274-16.456-3.544 6.276 13.88 20.233 23.544 36.456 23.544 22.091 0 40-17.908 40-40 0-16.224-9.664-30.181-23.544-36.456z" fill="#e9a761"/><path d="m376.948 245.532c0-5.868-4.557-17.469-13.544-26.456-5.021-2.27-10.588-3.544-16.456-3.544-22.091 0-40 17.909-40 40 0 5.868 1.274 11.435 3.544 16.456 8.321 8.321 20.588 13.544 26.456 13.544 22.092 0 40-17.909 40-40z" fill="#efcb83"/><path d="m363.404 219.076c2.27 5.021 3.544 10.588 3.544 16.456 0 22.092-17.909 40-40 40-5.868 0-11.435-1.274-16.456-3.544 6.276 13.88 20.233 23.544 36.456 23.544 22.091 0 40-17.908 40-40 0-16.224-9.663-30.181-23.544-36.456z" fill="#e9a761"/></g><g><path d="m294.379 455.247c-12.471 1.163-25.383 1.753-38.378 1.753-59.638 0-113.496-12.328-151.652-34.712-43.352-25.433-65.333-61.941-65.333-108.513 0-16.326 2.284-34.068 6.788-52.733.972-4.026-1.505-8.079-5.531-9.05-4.029-.976-8.079 1.505-9.05 5.531-4.782 19.816-7.207 38.742-7.207 56.252 0 51.536 25.154 93.532 72.743 121.45.788.462 1.594.913 2.394 1.368-7.416 18.762-15.068 40.836-22.768 65.688-1.226 3.957.988 8.158 4.944 9.384.739.229 1.487.338 2.222.338 3.2 0 6.165-2.065 7.162-5.282 7.391-23.855 14.721-45.069 21.821-63.164 38.773 18.422 88.928 28.443 143.467 28.443 13.458 0 26.839-.612 39.771-1.818 4.124-.385 7.156-4.04 6.771-8.165-.384-4.123-4.032-7.154-8.164-6.77z"/><path d="m487.986 313.775c0-41.334-13.519-90.208-37.09-134.088-1.924-3.583-3.895-7.071-5.899-10.482 3.077-18.357 5.532-35.648 7.291-51.394.46-4.117-2.504-7.827-6.621-8.287-4.113-.463-7.827 2.504-8.287 6.621-1.193 10.679-2.72 22.104-4.543 34.095-18.252-26.059-38.693-45.106-58.844-54.579 7.195-14.93 16.761-33.788 26.349-49.72 17.409-28.929 24.46-30.829 25.05-30.939 2.332.011 4.141.821 5.856 2.626 4.349 4.578 11.289 19.165 8.915 65.435-.212 4.137 2.969 7.662 7.106 7.875 4.123.223 7.662-2.969 7.875-7.106 3.059-59.609-9.044-72.348-13.021-76.534-4.535-4.775-10.337-7.298-16.779-7.298-.326 0-.652.011-.98.034-23.686.708-61.532 27.143-112.54 78.613-17.397-2.707-35.573-3.971-55.823-3.971s-38.425 1.264-55.823 3.971c-51.008-51.47-88.855-77.905-112.54-78.613-.328-.023-.654-.034-.98-.034-6.979 0-13.153 2.938-17.853 8.495-9.539 11.279-13.53 34.044-12.203 69.597.927 24.799 4.422 55.417 10.384 90.999-9.584 16.31-18.176 34.466-25.277 53.893-1.422 3.891.579 8.197 4.469 9.619 3.892 1.424 8.197-.578 9.619-4.469 22.093-60.436 60.125-109.224 94.64-121.405 33.873-11.954 65.443-17.054 105.564-17.054 40.122 0 71.692 5.101 105.564 17.055 25.967 9.164 53.71 38.343 76.117 80.055 22.106 41.153 35.304 88.625 35.304 126.989 0 37.125-14.189 68.117-42.174 92.115-25.188 21.6-61.617 37.206-105.346 45.131-4.076.739-6.781 4.642-6.042 8.717.657 3.624 3.814 6.164 7.371 6.164.444 0 .894-.04 1.346-.122 26.919-4.879 50.794-12.356 71.351-22.166 7.092 18.083 14.415 39.276 21.798 63.105.997 3.217 3.961 5.282 7.162 5.282.735 0 1.483-.109 2.222-.338 3.957-1.226 6.17-5.427 4.944-9.384-7.694-24.834-15.341-46.894-22.752-65.647 48.542-27.642 75.12-70.051 75.12-122.856zm-335.903-223.458c-7.6-15.824-17.916-36.208-28.261-53.251-1.994-3.285-3.913-6.33-5.766-9.146 17.531 11.279 39.444 29.664 64.248 54.082-10.104 2.223-20.091 4.968-30.221 8.315zm-72.94 59.836c-15.167-99.473-4.458-125.382 1.115-131.972 1.849-2.186 3.811-3.166 6.352-3.179.593.112 7.644 2.018 25.048 30.939 9.586 15.929 19.15 34.782 26.344 49.711-20.358 9.569-40.832 28.824-58.859 54.501zm314.803-122.234c-1.853 2.816-3.772 5.861-5.766 9.146-10.345 17.043-20.661 37.427-28.261 53.251-10.131-3.347-20.118-6.092-30.221-8.315 24.804-24.418 46.718-42.803 64.248-54.082z"/><path d="m219.146 332.626c-3.587 2.071-4.816 6.658-2.745 10.245 1.389 2.406 3.91 3.751 6.502 3.751 1.272 0 2.562-.325 3.743-1.006 12.126-7.001 22.885-19.583 29.355-28.203 6.47 8.62 17.23 21.203 29.355 28.203 1.181.682 2.471 1.006 3.743 1.006 2.592 0 5.113-1.345 6.502-3.751 2.071-3.587.842-8.174-2.745-10.245-13.386-7.729-25.654-25.033-29.355-30.562v-10.364c3.041-.665 6.834-1.784 11.114-3.683 3.786-1.68 5.493-6.112 3.813-9.898-1.681-3.786-6.11-5.49-9.898-3.813-7.322 3.25-12.495 3.355-12.467 3.356-.041 0-.082 0-.123 0-.067 0-5.159-.112-12.467-3.356-3.788-1.679-8.217.026-9.898 3.813-1.68 3.786.027 8.218 3.813 9.898 4.28 1.899 8.072 3.018 11.114 3.683v10.365c-3.706 5.533-15.973 22.834-29.356 30.561z"/><path d="m210.148 388.664c-1.773 3.744-.175 8.215 3.568 9.988 11.417 5.406 26.434 8.384 42.284 8.384s30.868-2.978 42.284-8.384c3.744-1.773 5.341-6.245 3.568-9.988-1.772-3.744-6.245-5.341-9.988-3.568-9.314 4.411-22.386 6.94-35.864 6.94s-26.55-2.53-35.864-6.94c-3.742-1.773-8.214-.176-9.988 3.568z"/><path d="m165.054 275.816c4.142 0 7.5-3.358 7.5-7.5v-25.569c0-4.142-3.358-7.5-7.5-7.5s-7.5 3.358-7.5 7.5v25.569c0 4.142 3.358 7.5 7.5 7.5z"/><path d="m354.448 268.316v-25.569c0-4.142-3.358-7.5-7.5-7.5s-7.5 3.358-7.5 7.5v25.569c0 4.142 3.358 7.5 7.5 7.5s7.5-3.358 7.5-7.5z"/><path d="m394.448 255.532c0-26.191-21.309-47.5-47.5-47.5-19.86 0-29.743-4.885-36.135-9.142-3.448-2.296-8.104-1.362-10.399 2.086-2.296 3.447-1.362 8.104 2.086 10.399 3.728 2.482 8.354 5.131 14.557 7.276-10.733 8.716-17.609 22.008-17.609 36.88 0 26.191 21.309 47.5 47.5 47.5s47.5-21.308 47.5-47.499zm-80 0c0-17.92 14.58-32.5 32.5-32.5s32.5 14.58 32.5 32.5-14.58 32.5-32.5 32.5-32.5-14.58-32.5-32.5z"/><path d="m211.588 200.976c-2.296-3.449-6.953-4.381-10.399-2.086-6.392 4.256-16.275 9.142-36.135 9.142-26.191 0-47.5 21.309-47.5 47.5s21.309 47.5 47.5 47.5 47.5-21.309 47.5-47.5c0-14.872-6.875-28.164-17.609-36.88 6.203-2.145 10.829-4.794 14.557-7.276 3.448-2.296 4.382-6.953 2.086-10.4zm-14.034 54.556c0 17.92-14.58 32.5-32.5 32.5s-32.5-14.58-32.5-32.5 14.58-32.5 32.5-32.5 32.5 14.579 32.5 32.5z"/></g></g></svg>