<svg id="Capa_1" enable-background="new 0 0 512.001 512.001" height="512" viewBox="0 0 512.001 512.001" width="512" xmlns="http://www.w3.org/2000/svg"><g><g><path d="m425.344 7.5c-44.393 0-144.221 114.899-144.221 114.899l143.643 111.298z" fill="#c8d2dc"/><path d="m353.407 164.074 69.146-33.697c-44.339-43.452-77.321-55.867-111.169-40.587z" fill="#a2abb8"/><path d="m425.344 7.5c-14.419 0-40.559 48.716-57.044 82.706l61.374 63.107c11.348-66.909 14.827-136-4.33-145.813z" fill="#eebfb6"/><path d="m425.344 7.5c3.288 8.358 7.184 43.083 1.253 94.543-1.361 11.809-15.22 17.461-24.414 9.925-11.997-9.833-23.189-17.056-33.884-21.762-8.83 18.207-14.892 32.193-14.892 32.193l71.359 111.299c0-.001 52.22-226.198.578-226.198z" fill="#eaa598"/><path d="m200.616 89.789c-33.071-33.97-85.168-82.289-113.958-82.289l24.566 129.089z" fill="#c8d2dc"/><path d="m200.616 89.789c-25.918-13.505-56.548-3.472-77.123 9.89-14.213-30.845-36.835-92.179-36.835-92.179l.577 226.197 143.643-111.299c0 .001-12.34-14.199-30.262-32.609z" fill="#a2abb8"/><path d="m86.658 7.5c-29.341 0-25.154 73.018-16.067 136.083l72.902-33.904z" fill="#eebfb6"/><path d="m158.594 122.399s-49.793-114.899-71.936-114.899c0 0 17.902 48.536 31.861 80.969 2.766 6.427.719 13.927-4.949 18.03-16.853 12.197-32.128 26.289-42.979 37.084 6.907 47.932 16.644 90.115 16.644 90.115z" fill="#eaa598"/><path d="m464.501 494.5v-170c26.935-85.905-44.94-174.393-105.058-215.516-7.559-4.226-14.937-7.767-22.012-10.599-23.669-9.472-47.427-14.938-81.429-14.938s-57.76 5.466-81.429 14.938c-57.052 22.831-133.7 91.658-167.071 195.587v190.528z" fill="#e9edf1"/><path d="m359.442 108.984c46.223 36.409 111.993 124.716 85.058 200.661-4.094 11.544-20 38.441-20 83.118v76.737c0 8.284-6.716 15-15 15h-402v20h497v-210.528c-29.231-91.039-91.671-155.141-145.058-184.988z" fill="#c8d2dc"/><path d="m182.364 225.55c-20.886-12.059-45.568-8.411-55.128 8.148-5.545 9.604-4.774 21.439.917 32.042 19.683 19.682 55.221 18.078 64.719 1.627 5.545-9.605 4.776-28.633-10.508-41.817z" fill="#f4dabd"/><path d="m182.364 225.55s8.72 17.593.508 31.816c-9.498 16.451-33.92 20.151-54.719 8.373 4.122 7.677 10.818 14.71 19.591 19.774 20.886 12.059 45.568 8.411 55.128-8.148 9.56-16.558.378-39.757-20.508-51.815z" fill="#eec190"/><path d="m384.766 233.697s6.176 20.076-33.208 42.814c-27.293 15.758-42.429.854-42.429.854-9.56-16.559-.378-39.758 20.508-51.816s45.569-8.41 55.129 8.148z" fill="#f4dabd"/><path d="m384.766 233.697s-5.851 14.539-37.508 32.816c-21.939 12.666-38.128 10.852-38.128 10.852 9.56 16.559 34.242 20.207 55.128 8.148s30.068-35.257 20.508-51.816z" fill="#eec190"/></g><g><path d="m342.356 337.83c-4.143 0-7.5 3.358-7.5 7.5 0 19.174-15.6 34.774-34.774 34.774-18.938 0-32.254-12.571-36.581-17.286v-21.118c3.041-.665 6.834-1.784 11.113-3.683 3.786-1.68 5.493-6.111 3.813-9.897s-6.113-5.492-9.897-3.812c-7.322 3.25-12.495 3.355-12.468 3.355-.041 0-.082 0-.123 0-.067 0-5.159-.112-12.467-3.356-3.788-1.68-8.218.027-9.898 3.813s.027 8.218 3.813 9.898c4.28 1.899 8.072 3.018 11.114 3.683v21.141c-4.297 4.733-17.481 17.264-36.582 17.264-19.175 0-34.774-15.6-34.774-34.774 0-4.142-3.358-7.5-7.5-7.5s-7.5 3.358-7.5 7.5c0 27.445 22.329 49.774 49.774 49.774 20.97 0 36.23-11.108 44.082-18.524 7.851 7.416 23.111 18.524 44.081 18.524 27.445 0 49.774-22.329 49.774-49.774 0-4.144-3.357-7.502-7.5-7.502z"/><path d="m291.865 415.096c-9.313 4.411-22.386 6.94-35.864 6.94s-26.55-2.53-35.864-6.94c-3.742-1.772-8.215-.175-9.988 3.568-1.773 3.744-.175 8.215 3.568 9.988 11.417 5.406 26.434 8.384 42.284 8.384 15.852 0 30.868-2.978 42.284-8.384 3.743-1.773 5.341-6.245 3.568-9.988-1.773-3.744-6.248-5.339-9.988-3.568z"/><path d="m7.501 380.131c-4.142 0-7.5 3.358-7.5 7.5v116.869c0 4.142 3.358 7.5 7.5 7.5s7.5-3.358 7.5-7.5v-116.869c0-4.142-3.358-7.5-7.5-7.5z"/><path d="m511.641 291.68c-15.23-47.433-39.392-88.059-66.964-120.568 2.229-13.163 4.156-25.893 5.726-37.84.54-4.107-2.352-7.874-6.458-8.414-4.106-.539-7.874 2.351-8.413 6.458-1.073 8.153-2.317 16.688-3.71 25.476-17.895-18.845-36.8-34.408-55.353-46.361 32.047-10.99 71.813-9.023 99.089 5.759 1.136.616 2.359.908 3.566.908 2.663 0 5.242-1.422 6.601-3.928 1.974-3.642.621-8.194-3.021-10.167-8.551-4.634-18.05-8.164-28.071-10.605 1.501-20.449 3.916-67.355-12.266-84.842-4.575-4.943-10.462-7.556-17.023-7.556-24.098 0-63.242 27.436-116.35 81.516-16.465-3.826-33.467-5.569-52.993-5.569s-36.528 1.742-52.992 5.568c-53.109-54.079-92.253-81.515-116.351-81.515-6.985 0-13.163 2.942-17.864 8.508-9.597 11.362-13.575 34.371-12.162 70.342.17 4.337.424 8.863.749 13.546-10.026 2.441-19.529 5.972-28.083 10.608-3.642 1.974-4.994 6.526-3.02 10.167 1.358 2.506 3.937 3.928 6.601 3.928 1.207 0 2.431-.292 3.567-.908 6.74-3.653 14.242-6.523 22.203-8.61 1.822 18.913 4.72 40.159 8.676 63.53-27.573 32.509-51.735 73.135-66.965 120.569-.238.741-.359 1.515-.359 2.293v63.658c0 4.142 3.358 7.5 7.5 7.5s7.5-3.358 7.5-7.5v-62.477c14.933-45.948 40.045-88.908 72.67-124.304 27.482-29.815 60.172-53.69 89.688-65.502 23.402-9.365 44.495-13.642 71.143-14.299v80.074c0 4.142 3.358 7.5 7.5 7.5 4.143 0 7.5-3.358 7.5-7.5v-80.074c26.646.657 47.74 4.934 71.144 14.299 29.515 11.812 62.205 35.687 89.687 65.502 32.626 35.396 57.737 78.356 72.67 124.304v144.182c0 4.142 3.357 7.5 7.5 7.5s7.5-3.358 7.5-7.5v-145.363c-.002-.779-.123-1.552-.362-2.293zm-71.867-202.047c-21.732-2.868-44.869-.962-65.67 5.758 36.446-75.884 50.569-80.219 51.292-80.389 2.377.012 4.218.858 5.962 2.742 4.662 5.039 11.771 21.076 8.416 71.889zm-359.521-71.445c1.849-2.189 3.811-3.171 6.352-3.185.719.168 14.841 4.495 51.292 80.389-20.808-6.723-43.954-8.628-65.694-5.755-3.304-50.419 3.83-66.454 8.05-71.449zm-.077 138.608c-3.193-20.095-5.372-37.337-6.764-52.116 20.554-2.8 42.745-.892 62.121 5.752-18.554 11.953-37.461 27.517-55.357 46.364zm91.609-65.374c-5.156 2.063-10.424 4.468-15.765 7.189-7.669-16.359-18.177-37.656-29.026-56.217-3.15-5.388-6.123-10.209-8.948-14.503 18.491 11.889 41.853 31.708 68.4 58.222-4.858 1.572-9.728 3.335-14.661 5.309zm153.771-5.309c26.547-26.514 49.909-46.332 68.4-58.222-2.825 4.294-5.798 9.114-8.948 14.502-10.849 18.561-21.357 39.858-29.026 56.217-5.341-2.721-10.609-5.126-15.765-7.189-4.934-1.973-9.803-3.736-14.661-5.308z"/><path d="m504.501 461.836c-4.143 0-7.5 3.358-7.5 7.5v35.164c0 4.142 3.357 7.5 7.5 7.5s7.5-3.358 7.5-7.5v-35.164c0-4.142-3.358-7.5-7.5-7.5z"/><path d="m156.366 310.644c-52.288 0-85.175-27.081-92.453-33.724 3.124-6.12 6.428-11.3 10.125-15.719 9.99-11.94 23.034-18.033 42.463-19.584-1.265 7.158-.415 14.827 2.597 22.437 4.494 11.353 13.335 21.281 24.896 27.956 9.23 5.329 19.389 8.12 29.258 8.12 2.491 0 4.965-.178 7.399-.538 12.725-1.881 22.923-8.442 28.715-18.475 5.793-10.033 6.376-22.145 1.642-34.105-4.493-11.353-13.334-21.281-24.895-27.956-22.861-13.198-49.999-9.769-62.911 7.198-27.827.683-46.653 8.571-60.669 25.324-14.436 17.255-23.13 43.663-32.215 73.868-1.193 3.967 1.056 8.149 5.022 9.342.72.217 1.448.32 2.163.32 3.224 0 6.203-2.096 7.179-5.342 4.597-15.284 8.686-27.932 12.842-38.477 13.096 10.934 47.182 34.358 98.842 34.358 4.142 0 7.5-3.358 7.5-7.5s-3.357-7.503-7.5-7.503zm.363-84.744c3.501 0 7.155.497 10.825 1.502v28.129c0 4.142 3.358 7.5 7.5 7.5s7.5-3.358 7.5-7.5v-20.941c6.69 4.781 11.77 11.023 14.508 17.94 3.013 7.613 2.77 15.102-.685 21.085-3.455 5.984-9.818 9.939-17.918 11.136-8.747 1.292-18.322-.744-26.965-5.733-8.643-4.99-15.194-12.265-18.448-20.486-3.013-7.613-2.77-15.102.685-21.085 4.372-7.573 13.072-11.547 22.998-11.547z"/><path d="m147.204 426.099c-3.587-2.072-8.174-.843-10.245 2.745l-21.213 36.742c-2.071 3.587-.842 8.174 2.745 10.245 1.181.682 2.471 1.006 3.743 1.006 2.592 0 5.113-1.345 6.502-3.751l21.213-36.742c2.072-3.587.843-8.175-2.745-10.245z"/><path d="m219.594 461.263c-3.588-2.072-8.174-.842-10.245 2.745l-21.213 36.742c-2.071 3.587-.842 8.174 2.745 10.245 1.181.682 2.471 1.006 3.743 1.006 2.592 0 5.113-1.345 6.502-3.751l21.213-36.742c2.071-3.587.842-8.175-2.745-10.245z"/><path d="m449.468 251.576c-14.016-16.753-32.842-24.641-60.669-25.324-12.913-16.967-40.052-20.395-62.91-7.198-24.435 14.107-34.866 41.948-23.254 62.062 7.129 12.348 20.931 18.956 36.182 18.956 9.592 0 19.758-2.616 29.192-8.062 11.561-6.674 20.401-16.603 24.895-27.956 3.012-7.61 3.863-15.279 2.598-22.437 19.428 1.551 32.473 7.644 42.462 19.584 3.697 4.419 7.001 9.599 10.125 15.719-7.282 6.646-40.17 33.724-92.453 33.724-4.143 0-7.5 3.358-7.5 7.5s3.357 7.5 7.5 7.5c51.661 0 85.746-23.423 98.842-34.357 4.156 10.545 8.245 23.193 12.842 38.477.977 3.246 3.956 5.342 7.18 5.342.716 0 1.442-.103 2.163-.32 3.967-1.193 6.215-5.375 5.022-9.342-9.087-30.206-17.781-56.613-32.217-73.868zm-70.512 6.957c-3.253 8.221-9.805 15.496-18.447 20.486-17.272 9.972-37.407 7.547-44.884-5.403-6.881-11.919-.672-28.659 13.823-39.025v20.941c0 4.142 3.357 7.5 7.5 7.5s7.5-3.358 7.5-7.5v-28.124c14.073-3.855 27.908-.205 33.823 10.04 3.455 5.983 3.698 13.471.685 21.085z"/><path d="m413.458 398.662c-2.93-2.929-7.678-2.929-10.607 0s-2.929 7.678 0 10.606l30 30c1.465 1.464 3.385 2.197 5.304 2.197s3.839-.732 5.304-2.197c2.929-2.929 2.929-7.678 0-10.606z"/><path d="m375.043 428.844c-2.07-3.588-6.659-4.816-10.245-2.745-3.587 2.071-4.816 6.658-2.745 10.245l21.213 36.742c1.389 2.406 3.91 3.751 6.502 3.751 1.272 0 2.562-.324 3.743-1.006 3.587-2.071 4.816-6.658 2.745-10.245z"/><path d="m197.553 195.267v-43.019c6.879 7.436 15.429 19.309 21.352 36.604 1.342 3.919 5.605 6.009 9.525 4.665 3.918-1.342 6.007-5.606 4.665-9.525-13.141-38.37-38.082-53.931-39.137-54.575-2.315-1.412-5.213-1.463-7.577-.137-2.365 1.328-3.829 3.828-3.829 6.54v59.447c0 4.142 3.358 7.5 7.5 7.5s7.501-3.358 7.501-7.5z"/><path d="m321.948 202.767c4.143 0 7.5-3.358 7.5-7.5v-59.447c0-2.712-1.464-5.212-3.828-6.54-2.364-1.327-5.262-1.275-7.577.137-1.056.644-25.997 16.205-39.138 54.575-1.342 3.919.747 8.184 4.666 9.525 3.911 1.34 8.183-.746 9.525-4.665 5.871-17.144 14.447-29.038 21.352-36.521v42.936c0 4.142 3.357 7.5 7.5 7.5z"/></g></g></svg>