<svg id="Capa_1" enable-background="new 0 0 512.004 512.004" height="512" viewBox="0 0 512.004 512.004" width="512" xmlns="http://www.w3.org/2000/svg"><g><g><path d="m361.598 343.966h-236.027s9.251 71.303-6.661 140.535l263.544 10z" fill="#eec190"/><path d="m398.454 504.502c-23.158-74.744-12.021-160.535-12.021-160.535h-24.834c-.738 9.468-1.369 19.633-1.779 30.17-2.405 61.69-53.33 110.365-115.068 110.365h-125.842c-1.542 6.708-3.315 13.397-5.36 20z" fill="#e9a761"/><path d="m60.888 29.095c-1.953 6.199-33.835 110.637-1.058 218.866l122.416-71.952 11.546-16.441c.001 0-49.576-84.787-132.904-130.473z" fill="#ffead9"/><path d="m121.355 166.139c-23.123 19.542-46.595 48.304-61.524 81.823 6.422 21.203 15.308 42.551 27.406 63.334l95.01-135.287c-19.805-32.425-48.158-20.633-60.892-9.87z" fill="#f4dabd"/><path d="m436.518 248.988c30.396-97.732 11.63-191.241-5.103-207.998-71.38 47.06-113.204 118.578-113.204 118.578l11.546 16.441s93.309 51.891 106.761 72.979z" fill="#ffead9"/><path d="m451.116 29.095c-6.796 3.726-13.363 7.715-19.701 11.894 5.921 23.436 16.94 78.165 10.587 141.771-1.309 13.109-17.679 18.274-26.288 8.301-8.111-9.396-16.61-17.778-25.065-24.924-12.735-10.762-41.087-22.554-60.892 9.87l95.01 135.287c73.849-126.872 28.685-274.785 26.349-282.199z" fill="#f4dabd"/><path d="m435.015 322.374c0-67.332-42.39-129.634-97.764-166.39-23.617-9.472-47.322-14.938-81.25-14.938-33.927 0-57.632 5.466-81.249 14.938-44.142 17.704-113.765 92.057-113.765 175.39 0 30.844 11.491 57.076 29.722 78.54 41.528 39.367 115.074 54.588 159.292 54.588 79.922 0 185.014-44.478 185.014-142.128z" fill="#eec190"/><path d="m337.251 155.984c37.438 29.331 83.764 88.057 83.764 155.39 0 97.65-105.093 139.128-185.014 139.128-44.218 0-102.255-12.706-145.292-40.588 39.485 46.489 110.615 70.588 165.292 70.588 79.921 0 195.014-51.478 195.014-149.128 0-83.333-69.622-157.686-113.764-175.39z" fill="#e9a761"/><path d="m192.365 293.148c-20.886-12.059-45.568-8.411-55.128 8.148-5.545 9.604-4.774 21.439.917 32.042 19.683 19.682 55.221 18.078 64.719 1.627 5.545-9.605 4.776-28.632-10.508-41.817z" fill="#ddfdea"/><path d="m192.365 293.148s8.72 17.593.508 31.816c-9.498 16.451-33.92 20.151-54.719 8.373 4.122 7.677 10.818 14.71 19.591 19.774 20.886 12.059 45.568 8.411 55.128-8.148 9.56-16.557.378-39.756-20.508-51.815z" fill="#beeedd"/><path d="m374.767 301.296s6.176 20.076-33.208 42.814c-27.293 15.758-42.429.854-42.429.854-9.56-16.559-.378-39.758 20.508-51.816 20.888-12.059 45.569-8.411 55.129 8.148z" fill="#ddfdea"/><path d="m374.767 301.296s-5.851 14.539-37.508 32.816c-21.939 12.666-38.128 10.852-38.128 10.852 9.56 16.559 34.242 20.207 55.128 8.148s30.069-35.258 20.508-51.816z" fill="#beeedd"/><path d="m318.211 449.28c0 30.498-27.852 55.221-62.209 55.221s-62.209-24.723-62.209-55.221" fill="#f4dabd"/><path d="m289.118 397.421c-10.799 21.518-55.433 21.518-66.232 0-38.457 10.579-65.99 35.508-65.99 35.508 0 23.348 21.721 42.274 48.516 42.274 31.481 0 50.59-22.02 50.59-22.02s19.109 22.02 50.59 22.02c26.795 0 48.516-18.927 48.516-42.274 0-.001-27.533-24.929-65.99-35.508z" fill="#ffead9"/><path d="m256.002 422.76c5.88 0 22.317-3.821 33.116-25.339-10.355-2.849-21.5-4.661-33.116-4.661s-22.76 1.812-33.116 4.661c10.799 21.518 27.236 25.339 33.116 25.339z" fill="#9a695e"/></g><g><path d="m511.754 5.59c-1.056-4.005-5.159-6.396-9.163-5.341-61.188 16.125-109.835 57.584-139.87 89.525-19.575 20.818-33.829 40.104-42.216 52.398-19.763-5.875-40.365-8.626-64.503-8.626-24.098 0-44.349 2.655-64.493 8.641-8.386-12.293-22.643-31.587-42.226-52.413-30.035-31.94-78.682-73.4-139.87-89.525-4.004-1.054-8.108 1.336-9.163 5.341-1.056 4.005 1.335 8.108 5.341 9.164 16.428 4.329 31.927 10.634 46.361 18.134-3.187 11.47-9.741 38.242-12.793 73.855-3.692 43.095-2.614 107.585 23.217 170.902-5.864 17.976-8.888 36.06-8.888 53.729 0 33.038 12.173 62.869 36.181 88.667 8.17 8.779 17.647 16.928 28.194 24.346-2.388 21.53-6.242 40.999-11.478 57.895-1.226 3.957.988 8.158 4.944 9.384.739.229 1.486.338 2.222.338 3.201 0 6.165-2.065 7.162-5.282 4.904-15.827 8.647-33.713 11.17-53.28 11.835 6.998 24.74 13.143 38.504 18.292 7.419 5.297 16.377 8.956 26.181 10.344 12.641 18.529 35.112 29.925 59.433 29.925s46.792-11.396 59.433-29.925c9.805-1.388 18.764-5.047 26.184-10.346 13.805-5.164 26.694-11.3 38.503-18.278 2.523 19.562 6.266 37.445 11.169 53.269.997 3.217 3.961 5.282 7.162 5.282.734 0 1.482-.109 2.222-.338 3.956-1.226 6.17-5.427 4.944-9.384-5.233-16.889-9.087-36.348-11.474-57.868 12.733-8.958 23.884-18.997 33.13-29.94 2.674-3.164 2.276-7.896-.888-10.569-3.166-2.674-7.896-2.276-10.569.889-14.044 16.622-32.989 31.045-55.585 42.466 1.54-4.541 2.377-9.35 2.377-14.331 0-10.151-3.409-19.913-9.859-28.231-2.536-3.273-7.249-3.868-10.522-1.332-2.802 2.173-3.635 5.935-2.226 9.028-10.427-6.698-24.385-14.283-40.656-19.728 3.312-8.906 5.515-19.182 6.563-30.825 6.63 3.83 14.548 5.83 22.911 5.83 9.592 0 19.758-2.616 29.192-8.062 20.124-11.619 30.736-32.551 27.371-50.812h21.046c4.143 0 7.5-3.358 7.5-7.5s-3.357-7.5-7.5-7.5h-27.661c-6.009-7.915-15.157-13.09-26.219-14.725-8.361-1.237-17.175-.323-25.644 2.57 7.452-26.524 4.68-57.228-8.328-80.632-2.012-3.62-6.578-4.924-10.199-2.912-3.62 2.013-4.924 6.579-2.912 10.199 13.954 25.106 14.143 60.026.587 85.412-16.552 14.532-22.857 36.2-14.435 53.108-.171 18.456-2.868 31.943-6.716 41.787-9.152-2.081-18.841-3.343-28.898-3.343-9.419 0-19.118 1.131-28.891 3.361-3.852-9.846-6.553-23.339-6.723-41.806 8.422-16.908 2.117-38.576-14.435-53.108-13.556-25.386-13.367-60.305.587-85.412 2.012-3.621.708-8.187-2.912-10.199-3.623-2.012-8.188-.709-10.199 2.912-13.008 23.404-15.78 54.109-8.328 80.633-8.467-2.892-17.279-3.806-25.644-2.571-11.062 1.635-20.21 6.81-26.219 14.725h-27.661c-4.143 0-7.5 3.358-7.5 7.5s3.357 7.5 7.5 7.5h21.046c-3.365 18.26 7.246 39.192 27.371 50.812 9.436 5.448 19.6 8.062 29.192 8.062 8.362 0 16.28-2 22.91-5.831 2.064 22.932 8.543 40.646 19.342 52.79 8.225 9.251 16.962 13.04 23.063 14.583v20.9c-5.154 4.871-20.755 17.59-43.09 17.59-21.295 0-38.847-13.832-40.825-31.454 5.007-4.075 16.768-13.002 32.634-20.9 3.709-1.846 5.218-6.349 3.372-10.057s-6.349-5.217-10.056-3.372c-7.007 3.488-13.245 7.136-18.566 10.548 1.456-3.106.631-6.913-2.194-9.103-3.272-2.538-7.984-1.943-10.522 1.332-6.45 8.318-9.859 18.081-9.859 28.231 0 4.978.837 9.783 2.374 14.321-20.245-10.248-37.643-22.946-51.12-37.428-21.341-22.931-32.161-49.325-32.161-78.448 0-39.917 16.763-74.332 30.824-96.173 2.243-3.483 1.237-8.124-2.246-10.366-3.482-2.242-8.123-1.237-10.365 2.246-6.254 9.713-11.654 19.619-16.181 29.622-19.052-55.39-19.66-110.403-16.453-148.262 2.633-31.086 8.154-55.565 11.406-68.014 30.05 17.915 54.762 40.39 72.628 59.356 17.17 18.228 30.245 35.479 38.591 47.403-1.573.593-3.15 1.203-4.734 1.838-11.358 4.555-23.598 12.183-35.732 22.096l-44.5-40.824c-3.053-2.799-7.797-2.595-10.597.457-2.801 3.052-2.596 7.797.456 10.597l43.305 39.728c-6.216 5.853-12.319 12.257-18.171 19.106-2.69 3.149-2.319 7.883.83 10.574 1.413 1.208 3.145 1.798 4.868 1.798 2.118 0 4.223-.892 5.706-2.628 18.843-22.053 41.055-39.616 59.418-46.981 2.6-1.043 5.167-2.007 7.72-2.926 1.32 2.094 2.02 3.276 2.053 3.334 1.395 2.386 3.904 3.716 6.481 3.716 1.286 0 2.589-.331 3.778-1.026 3.576-2.09 4.78-6.684 2.689-10.26-.038-.066-.133-.227-.262-.443 15.245-4.166 30.624-6.249 48.496-6.692v95.051c0 4.142 3.357 7.5 7.5 7.5s7.5-3.358 7.5-7.5v-95.053c17.944.453 33.396 2.577 48.499 6.691-.13.218-.226.38-.264.446-2.091 3.576-.887 8.169 2.689 10.26 1.19.696 2.492 1.026 3.778 1.026 2.577 0 5.087-1.33 6.481-3.716.561-.959 46.2-77.797 121.841-122.936 3.252 12.447 8.774 36.93 11.408 68.022 3.207 37.859 2.599 92.872-16.451 148.262-5.711-12.604-12.157-23.619-18.17-32.661-10.425-15.673-22.98-30.445-36.244-42.928l43.346-39.765c3.052-2.8 3.257-7.545.456-10.597-2.799-3.052-7.543-3.256-10.597-.457l-44.537 40.859c-7.15-5.847-14.387-10.953-21.503-15.1-3.579-2.085-8.17-.875-10.256 2.704s-.876 8.17 2.703 10.256c22.513 13.121 46.491 36.797 64.142 63.335 14.914 22.423 32.692 57.804 32.692 99.025 0 17.292-3.887 33.822-11.554 49.13-1.854 3.704-.356 8.209 3.348 10.064 1.078.54 2.224.795 3.353.795 2.749 0 5.397-1.518 6.712-4.143 8.72-17.412 13.142-36.202 13.142-55.847 0-19.364-3.555-37.472-8.88-53.749 25.823-63.31 26.9-127.791 23.209-170.882-3.053-35.627-9.611-62.406-12.797-73.869 14.508-7.536 29.989-13.804 46.365-18.12 4.01-1.054 6.4-5.156 5.345-9.162zm-161.401 288.32c8.101 1.197 14.464 5.152 17.919 11.136 7.478 12.95-.491 31.599-17.763 41.571-17.271 9.97-37.406 7.548-44.884-5.403-6.916-11.979-.609-28.829 14.044-39.182v24.848c0 4.142 3.357 7.5 7.5 7.5s7.5-3.358 7.5-7.5v-31.934c5.28-1.41 10.623-1.785 15.684-1.036zm-2.937 142.344c-1.982 17.62-19.532 31.448-40.825 31.448-22.349 0-37.955-12.735-43.09-17.588v-20.902c6.102-1.543 14.838-5.331 23.063-14.583 2.238-2.517 4.273-5.293 6.139-8.285 26.913 8.666 47.61 24.15 54.713 29.91zm-185.922-89.637c-17.271-9.972-25.24-28.621-17.763-41.571 3.455-5.984 9.818-9.939 17.919-11.136 1.717-.254 3.465-.379 5.233-.379 3.445 0 6.961.491 10.45 1.424v31.927c0 4.142 3.357 7.5 7.5 7.5s7.5-3.358 7.5-7.5v-24.848c14.653 10.353 20.96 27.203 14.044 39.182-7.478 12.947-27.612 15.371-44.883 5.401zm73.212 55.74c7.224-1.388 14.359-2.097 21.296-2.097 7.305 0 14.434.776 21.292 2.103-9.813 12.641-21.091 12.897-21.292 12.897s-11.482-.257-21.296-12.903zm21.296 61.202c7.189 6.155 20.949 15.627 39.887 18.372-10.207 9.495-24.549 15.071-39.887 15.071s-29.68-5.575-39.887-15.071c18.937-2.745 32.697-12.217 39.887-18.372z"/></g></g></svg>