<svg id="Capa_1" enable-background="new 0 0 512.002 512.002" height="512" viewBox="0 0 512.002 512.002" width="512" xmlns="http://www.w3.org/2000/svg"><g><g><path d="m198.361 87.481c-33.143-33.807-83.559-79.981-111.703-79.981l18.566 103.071z" fill="#ab7b64"/><path d="m198.361 87.481c-22.087-14.301-54.77-13.124-83.136 3.09 0 0-17.095-61.841-28.566-83.071l.577 226.197 143.643-111.299c0 .001-13.383-15.399-32.518-34.917z" fill="#9a695e"/><path d="m135.225 90.571s-29.89-63.503-48.566-83.071c-27.812 0-25.5 65.607-17.444 126.154z" fill="#eebfb6"/><path d="m158.594 122.399s-49.793-114.899-71.936-114.899c8.494 15.72 20.071 53.705 25.509 72.364 1.767 6.063-.429 12.612-5.556 16.3-11.273 8.109-25.065 20.893-37.397 37.491 6.902 51.878 18.021 100.043 18.021 100.043z" fill="#eaa598"/><path d="m425.344 7.5c-44.393 0-144.221 114.899-144.221 114.899l143.643 111.298z" fill="#ab7b64"/><path d="m428.874 143.235s22.747-113.951-3.53-135.735c-15.834 0-45.803 58.747-61.597 92.226z" fill="#eebfb6"/><path d="m425.344 7.5c5.519 34.272 3.542 66.624.96 87.531-1.295 10.482-12.653 16.296-21.998 11.375-10.901-5.741-25.554-10.522-40.56-6.68-6.293 13.339-10.339 22.673-10.339 22.673l71.359 111.299c.001-.001 52.22-226.198.578-226.198z" fill="#eaa598"/><path d="m369.515 403.965h-257.39s-12.628 21.125-32.191 80.535l335.519 10c-12.144-39.196-30.866-72.626-45.938-90.535z" fill="#b78c7a"/><path d="m438.453 504.5c-23.158-74.744-38.577-100.535-38.577-100.535h-30.361c5.571 12.829 13.326 32.488 22.652 60.837 3.192 9.703-4.032 19.698-14.246 19.698h-297.987c-2.054 6.239-4.185 12.897-6.385 20z" fill="#ab7b64"/><path d="m256.001 454.602c149.315 0 218.1-101.456 218.1-171.033 0-77.796-61.78-149.515-114.234-185.184-30.191-9.472-60.495-14.938-103.866-14.938s-73.675 5.466-103.866 14.938c-56.429 17.704-129.234 99.946-129.234 185.179 0 46.686 18.671 88.118 52.176 119.526 42.638 23.692 106.84 51.512 180.924 51.512z" fill="#b78c7a"/><path d="m256.001 454.602s114.28-4.862 153.588-30.239c50.54-32.627 79.51-82.636 79.512-140.794 0-.002 0-.004 0-.005 0-85.233-72.805-167.475-129.234-185.178 28.742 28.238 99.234 89.946 99.234 175.178 0 69.578-54.51 171.038-213.1 171.038-74.079 0-127.625-21.727-170.924-41.512 8.212 7.698 17.315 14.793 27.253 21.216 39.317 25.41 153.671 30.296 153.671 30.296z" fill="#ab7b64"/><path d="m400.81 395.589c-11.908-27.397-31.149-41.994-58.453-50.259h-172.712c-33.369 10.101-54.708 29.637-65.318 70.471 30.898 21.531 83.416 38.801 141.674 38.801 70.97 0 131.992-26.425 154.809-59.013z" fill="#ffead9"/><path d="m246.001 444.602c-58.258 0-103.811-13.438-141.674-28.801-.71 2.734-1.373 5.562-1.987 8.49 39.318 25.412 91.692 40.31 153.661 40.311 61.964-.001 114.348-14.883 153.666-40.29-2.283-10.887-5.235-20.39-8.857-28.723-33.726 28.687-83.839 49.013-154.809 49.013z" fill="#f4dabd"/><path d="m335.137 321.694h-158.272c-4.558 6.747-7.22 14.881-7.22 23.636 0 23.347 18.927 42.274 42.274 42.274l44.082-52.443 44.082 52.443c23.347 0 42.274-18.927 42.274-42.274 0-8.755-2.662-16.889-7.22-23.636z" fill="#eec190"/><path d="m213.96 319.415c-6.544 20.155-8.389 44.611-2.041 68.19 27.431 0 44.082-22.019 44.082-22.019s16.65 22.019 44.082 22.019c6.348-23.579 4.503-48.035-2.041-68.19z" fill="#ffead9"/><path d="m256.001 335.161s6.438.053 15.571-4l26.469-11.747c-8.565-26.381-25.184-45.39-42.041-45.39s-33.475 19.009-42.041 45.39l26.469 11.747c9.135 4.053 15.573 4 15.573 4z" fill="#e9a761"/><path d="m182.364 225.55c-20.886-12.059-45.568-8.411-55.128 8.148-5.545 9.604-4.774 21.439.917 32.042 19.683 19.682 55.221 18.078 64.719 1.627 5.545-9.605 4.776-28.633-10.508-41.817z" fill="#f4dabd"/><path d="m182.364 225.55s8.72 17.593.508 31.816c-9.498 16.451-33.92 20.151-54.719 8.373 4.122 7.677 10.818 14.71 19.591 19.774 20.886 12.059 45.568 8.411 55.128-8.148 9.56-16.558.378-39.757-20.508-51.815z" fill="#efcb83"/><path d="m384.767 233.697s6.176 20.076-33.208 42.814c-27.293 15.758-42.429.854-42.429.854-9.56-16.559-.378-39.758 20.508-51.816s45.569-8.41 55.129 8.148z" fill="#f4dabd"/><path d="m384.767 233.697s-5.851 14.539-37.508 32.816c-21.939 12.666-38.128 10.852-38.128 10.852 9.56 16.559 34.242 20.207 55.128 8.148s30.068-35.257 20.508-51.816z" fill="#efcb83"/></g><g><path d="m451.63 161.13c-1.448-1.916-2.922-3.802-4.415-5.666 5.147-33.201 7.968-61.579 8.38-84.345.574-31.726-3.519-52.254-12.512-62.757-4.684-5.47-10.817-8.362-17.739-8.362-.325 0-.651.012-.978.034-23.828.71-61.966 27.438-113.408 79.486-17.115-2.444-34.988-3.573-54.958-3.573s-37.843 1.129-54.958 3.573c-51.441-52.048-89.578-78.776-113.406-79.486-.327-.022-.653-.034-.978-.034-6.337 0-12.063 2.445-16.562 7.072-10.135 10.422-14.586 32.497-13.609 67.488.115 4.141 3.562 7.388 7.707 7.288 4.14-.116 7.403-3.566 7.287-7.707-1.11-39.733 5.393-52.524 9.368-56.612 1.688-1.736 3.468-2.516 5.76-2.527.578.108 7.52 1.965 24.632 30.246 9.777 16.159 19.57 35.475 26.799 50.479-20.302 8.982-41.44 24.73-60.307 44.814-1.893-13.343-3.38-25.866-4.434-37.365-.379-4.125-4.02-7.167-8.153-6.785-4.125.378-7.162 4.028-6.784 8.153 1.408 15.367 3.571 32.498 6.426 50.918-1.493 1.864-2.968 3.75-4.416 5.667-29 38.386-44.972 81.867-44.972 122.434 0 53.094 23.545 101.094 66.297 135.158 3.653 2.91 7.43 5.696 11.307 8.376-6.414 15.395-15.656 39.793-26.62 75.182-1.226 3.957.988 8.158 4.944 9.384.739.229 1.487.338 2.222.338 3.201 0 6.165-2.065 7.162-5.282 10.237-33.043 18.91-56.259 25.127-71.408 40.8 24.142 92.076 36.791 150.161 36.791 57.572 0 109.391-12.896 150.135-36.854 6.219 15.148 14.902 38.383 25.153 71.472.997 3.217 3.961 5.282 7.162 5.282.734 0 1.482-.109 2.222-.338 3.956-1.226 6.17-5.427 4.944-9.384-10.967-35.398-20.211-59.8-26.625-75.194 7.826-5.384 15.165-11.222 21.97-17.5 3.044-2.809 3.235-7.554.427-10.598-2.809-3.043-7.553-3.235-10.599-.426-5.137 4.74-10.609 9.211-16.39 13.408-5.169-18.955-12.765-33.95-23.097-45.591-10.508-11.837-24.21-20.56-41.752-26.593-.884-7.976-3.674-15.593-8.199-22.291-2.318-3.432-6.982-4.335-10.414-2.016s-4.334 6.981-2.016 10.413c3.883 5.746 5.935 12.467 5.935 19.438 0 15.835-10.643 29.222-25.149 33.408 6.457-37.045-4.835-72.335-20.104-92.258-9.862-12.869-21.796-19.956-33.603-19.956s-23.74 7.087-33.603 19.956c-15.269 19.923-26.561 55.213-20.104 92.258-14.506-4.186-25.149-17.573-25.149-33.408 0-6.97 2.052-13.691 5.935-19.438 2.318-3.432 1.416-8.094-2.016-10.413-3.435-2.321-8.096-1.416-10.414 2.016-5.563 8.235-8.505 17.86-8.505 27.835 0 27.445 22.329 49.774 49.774 49.774 20.97 0 36.23-11.108 44.081-18.524 7.851 7.416 23.111 18.524 44.081 18.524 23.97 0 44.034-17.032 48.732-39.629 28.439 10.99 44.091 30.626 52.364 65.287-38.792 23.614-89.008 36.34-145.177 36.34-56.661 0-106.31-12.484-145.19-36.296 6.518-27.192 17.875-45.335 35.51-56.846 3.469-2.264 4.445-6.911 2.181-10.38-2.266-3.469-6.91-4.443-10.38-2.181-19.818 12.937-32.851 32.345-40.529 60.564-2.222-1.619-4.411-3.27-6.548-4.972-38.557-30.722-60.02-73.766-60.616-121.389 12.541-20.219 41.122-41.148 86.085-44.052-1.282 7.177-.437 14.869 2.585 22.503 4.493 11.353 13.334 21.281 24.895 27.956 9.436 5.448 19.6 8.062 29.192 8.062 15.249 0 29.054-6.609 36.182-18.956 11.612-20.114 1.181-47.954-23.254-62.062-22.86-13.199-49.998-9.769-62.91 7.198-30.359.76-66.363 10.157-90.838 33.407 4.856-30.183 18.626-61.228 39.976-89.487 24.115-31.919 54.784-56.08 82.039-64.631 32.605-10.229 62.997-14.594 101.621-14.594s69.016 4.365 101.621 14.594c27.255 8.551 57.924 32.712 82.039 64.631 21.363 28.275 35.136 59.341 39.985 89.541-10.348-9.823-23.353-17.801-38.541-23.538-3.876-1.463-8.203.49-9.667 4.366-1.463 3.875.491 8.203 4.366 9.666 20.5 7.743 36.271 19.975 45.777 35.428-.427 33.665-11.258 65.333-31.399 91.701-2.515 3.292-1.885 7.999 1.407 10.513 3.295 2.517 7.998 1.884 10.513-1.407 22.57-29.547 34.5-65.122 34.5-102.879.001-40.565-15.971-84.046-44.971-122.432zm-188.129 201.688v-21.118c3.041-.665 6.834-1.784 11.113-3.683 3.786-1.68 5.493-6.111 3.813-9.897s-6.114-5.492-9.897-3.812c-7.322 3.25-12.495 3.355-12.512 3.355-.052 0-5.225-.106-12.547-3.355-3.783-1.68-8.218.027-9.897 3.812-1.68 3.786.027 8.217 3.813 9.897 4.279 1.899 8.072 3.019 11.113 3.683v21.141c-3.845 4.234-14.805 14.701-30.746 16.862-7.004-33.73 3.29-66.798 16.549-84.098 6.959-9.08 14.664-14.081 21.697-14.081s14.738 5 21.697 14.081c13.258 17.299 23.551 50.364 16.551 84.091-15.825-2.18-26.879-12.663-30.747-16.878zm-106.772-136.917c3.501 0 7.155.497 10.824 1.502v28.129c0 4.142 3.357 7.5 7.5 7.5s7.5-3.358 7.5-7.5v-20.941c14.496 10.366 20.704 27.106 13.823 39.025-7.479 12.948-27.613 15.373-44.884 5.403-8.643-4.99-15.194-12.265-18.447-20.486-3.014-7.613-2.771-15.102.685-21.085 4.374-7.574 13.074-11.547 22.999-11.547zm-38.681-197.99c17.686 11.376 39.833 29.99 64.917 54.742-10.262 2.089-20.425 4.703-30.78 7.878-7.633-15.902-18.217-36.845-28.8-54.185-1.842-3.016-3.617-5.821-5.337-8.435zm275.906 0c-1.72 2.614-3.495 5.419-5.337 8.436-10.584 17.339-21.167 38.282-28.8 54.185-10.355-3.175-20.518-5.789-30.78-7.878 25.085-24.753 47.231-43.366 64.917-54.743zm-19.992 67.817c7.229-15.004 17.021-34.32 26.799-50.479 17.097-28.255 24.042-30.135 24.631-30.246 2.518.012 4.464.973 6.297 3.115 14.712 17.181 8.014 83.565 2.568 122.411-18.864-20.078-39.997-35.821-60.295-44.801z"/><path d="m256.001 437.036c15.852 0 30.868-2.978 42.284-8.384 3.743-1.773 5.341-6.245 3.568-9.988-1.773-3.744-6.249-5.339-9.988-3.568-9.313 4.411-22.386 6.94-35.864 6.94s-26.551-2.53-35.864-6.94c-3.743-1.773-8.215-.175-9.988 3.568-1.772 3.744-.175 8.215 3.568 9.988 11.416 5.407 26.432 8.384 42.284 8.384z"/><path d="m316.948 202.767c4.143 0 7.5-3.358 7.5-7.5 0-46.51-15.467-72.291-16.125-73.365-1.185-1.934-3.181-3.227-5.429-3.52-2.252-.29-4.509.448-6.148 2.015-.963.92-21.543 20.742-40.745 51.368-19.202-30.625-39.782-50.448-40.745-51.368-1.639-1.567-3.895-2.305-6.148-2.015-2.248.292-4.244 1.586-5.429 3.52-.658 1.075-16.125 26.855-16.125 73.365 0 4.142 3.357 7.5 7.5 7.5s7.5-3.358 7.5-7.5c0-26.706 5.59-45.882 9.684-56.347 8.857 9.726 24.179 28.037 37.23 51.185 1.33 2.358 3.826 3.816 6.533 3.816s5.203-1.458 6.533-3.816c13.052-23.148 28.373-41.459 37.229-51.184 4.098 10.472 9.685 29.647 9.685 56.346 0 4.142 3.358 7.5 7.5 7.5z"/><path d="m405.387 242.543c3.71 0 6.935-2.753 7.427-6.531.536-4.107-2.359-7.872-6.467-8.407-5.817-.759-11.698-1.197-17.538-1.341-12.909-16.977-40.057-20.411-62.92-7.21-24.435 14.107-34.866 41.948-23.254 62.062 7.129 12.348 20.931 18.956 36.182 18.956 9.592 0 19.758-2.616 29.192-8.062 11.561-6.674 20.401-16.603 24.895-27.956 3.015-7.618 3.864-15.295 2.593-22.46 2.977.212 5.953.5 8.911.885.328.043.654.064.979.064zm-26.431 15.99c-3.253 8.221-9.805 15.496-18.447 20.486-17.272 9.972-37.407 7.547-44.884-5.403-6.881-11.919-.672-28.659 13.823-39.025v20.941c0 4.142 3.357 7.5 7.5 7.5s7.5-3.358 7.5-7.5v-28.124c14.073-3.855 27.908-.205 33.823 10.04 3.456 5.983 3.699 13.471.685 21.085z"/></g></g></svg>