<svg id="Capa_1" enable-background="new 0 0 511.99 511.99" height="512" viewBox="0 0 511.99 511.99" width="512" xmlns="http://www.w3.org/2000/svg"><g><path d="m261.961 153.666c-5.312-19.828-22.379-33.604-41.862-35.546l-6.333-23.635c9.199-15.27 12.447-34.098 7.48-52.636l-10.23-38.177-154.472 41.39c-36.192 9.698-57.746 47.032-48.049 83.224l11.633 43.415c-15.899 11.424-23.792 31.889-18.48 51.715 5.603 20.91 23.995 34.959 44.636 35.761 18.043 34.165 53.541 55.042 91.396 55.04 8.883 0 17.902-1.15 26.849-3.548 47.076-12.614 78.455-56.047 76.657-103.716 17.474-11.015 26.377-32.377 20.775-53.287zm-197.652-79.626 125.494-33.626 2.465 9.199c5.416 20.214-6.623 41.065-26.836 46.482l-125.495 33.625-2.465-9.199c-5.416-20.213 6.623-41.065 26.837-46.481zm156.51 109.544-12.217 3.831 1.865 12.667c5.428 36.867-17.659 71.951-53.703 81.609-36.045 9.657-73.581-9.183-87.313-43.824l-4.718-11.902-12.496 2.791c-9.577 2.136-19.07-3.617-21.612-13.105-2.496-9.314 2.705-18.999 11.838-22.048l13.393-4.472-8.155-30.433 125.494-33.626c5.705-1.529 11.044-3.747 15.956-6.536l8.72 32.542 13.834-2.824c9.433-1.923 18.78 3.861 21.276 13.176 2.544 9.487-2.799 19.219-12.162 22.154z"/><path d="m148.603 205.79c.813 3.034.396 6.204-1.175 8.924-1.571 2.721-4.107 4.667-7.142 5.48-6.265 1.675-12.727-2.052-14.406-8.317l-28.978 7.765c4.993 18.637 21.91 30.958 40.349 30.958 3.567 0 7.193-.461 10.799-1.428 10.774-2.887 19.78-9.797 25.357-19.458s7.059-20.915 4.172-31.69z"/><path d="m491.862 365.803 11.633-43.415c4.697-17.532 2.287-35.845-6.788-51.563-9.076-15.719-23.729-26.963-41.261-31.661l-154.472-41.391-10.23 38.176c-4.697 17.532-2.286 35.844 6.789 51.563.218.378.455.741.68 1.114l-6.322 23.595c-19.479 1.946-36.549 15.721-41.861 35.545-5.603 20.91 3.301 42.273 20.776 53.288-1.799 47.669 29.579 91.102 76.656 103.716 8.949 2.398 17.962 3.548 26.848 3.548 37.853-.001 73.354-20.877 91.396-55.04 20.642-.801 39.033-14.85 44.637-35.761 5.312-19.825-2.583-40.29-18.481-51.714zm-172.14-122.088 2.465-9.199 125.494 33.626c9.791 2.624 17.976 8.904 23.044 17.683s6.415 19.007 3.791 28.799l-2.464 9.198-125.494-33.626c-9.792-2.624-17.976-8.904-23.045-17.683-5.068-8.779-6.415-19.006-3.791-28.798zm161.642 166.038c-2.543 9.488-12.04 15.24-21.61 13.104l-12.496-2.792-4.719 11.903c-13.733 34.641-51.264 53.479-87.313 43.824-36.044-9.658-59.131-44.742-53.702-81.609l1.865-12.667-12.217-3.831c-9.363-2.936-14.706-12.667-12.164-22.154 2.495-9.313 11.833-15.103 21.275-13.176l13.834 2.824 8.717-32.53c4.963 2.805 10.309 5.009 15.96 6.523l125.494 33.628-8.154 30.433 13.394 4.472c9.133 3.049 14.332 12.734 11.836 22.048z"/><path d="m380.63 413.122c-2.721 1.57-5.892 1.988-8.925 1.175-6.266-1.679-9.996-8.141-8.317-14.406l-28.979-7.764c-5.959 22.243 7.288 45.188 29.531 51.147 3.598.964 7.248 1.441 10.876 1.441 7.236 0 14.379-1.898 20.813-5.613 9.66-5.578 16.57-14.583 19.458-25.359l-28.979-7.764c-.811 3.036-2.758 5.572-5.478 7.143z"/><path d="m323.863 99.959h30v-20.448h20.447v-30h-20.447v-20.447h-30v20.447h-20.447v30h20.447z"/><path d="m71.613 373.403h-30v20.447h-20.447v30h20.447v20.448h30v-20.448h20.448v-30h-20.448z"/><path d="m446.551 107.815h30.035v30h-30.035z"/><path d="m365.168 148.45h30.035v30h-30.035z"/><path d="m148.992 358.403h30.035v30h-30.035z"/><path d="m197.09 453.428h30.035v30h-30.035z"/></g></svg>