<svg id="Capa_1" enable-background="new 0 0 512 512" height="512" viewBox="0 0 512 512" width="512" xmlns="http://www.w3.org/2000/svg"><g><g><path d="m282.956 333.081-3.157 41.407-229.177 47.461c-23.842-34.716-79.332-112.467-17.795-173.397 47.354-46.892 116.198-41.908 116.198-41.908s118.854-74.004 133.931 126.437z" fill="#f4dd45"/><path d="m103.785 374.529-3.25 84.339-49.912-36.92c-23.843-34.715-79.333-112.466-17.796-173.396 47.354-46.892 116.198-41.908 116.198-41.908-107.389 41.034-78.43 136.408-45.24 167.885z" fill="#eab14d"/><path d="m83.805 467.246c-17.428 6.659-36.954-2.07-43.613-19.498-.916-2.399-1.542-4.837-1.892-7.276-2.834-19.694 24.99-26.918 32.091-8.332l201.955-77.168c-7.102-18.586 18.449-31.757 29.47-15.191 1.365 2.052 2.525 4.285 3.442 6.684 6.659 17.428-2.07 36.954-19.498 43.613" fill="#eaac9d"/><path d="m260.13 323.016 19.668 51.472c15.53 40.643-4.826 86.187-45.475 101.719l-54.76 20.924c-40.643 15.53-86.19-4.833-101.719-45.475l-19.115-50.025c14.698-8.042 30.118-17.159 45.056-27.102 36.221-24.092 69.647-53.076 83.277-83.565 0 0 31.772 41.18 73.068 32.052z" fill="#ffcbbe"/><path d="m227.915 478.656-48.352 18.476c-40.643 15.53-86.19-4.833-101.719-45.475l-19.115-50.025c14.698-8.042 30.118-17.159 45.056-27.102l22.411 58.651c15.53 40.642 61.069 61.007 101.719 45.475z" fill="#eaac9d"/><g fill="#e490b7"><ellipse cx="240.304" cy="395.574" rx="17.695" ry="10.76" transform="matrix(.934 -.357 .357 .934 -125.365 111.83)"/><ellipse cx="121.343" cy="441.029" rx="17.695" ry="10.76" transform="matrix(.934 -.357 .357 .934 -149.426 72.363)"/></g><path d="m164.607 411.476c-2.465 0-4.789-1.499-5.721-3.939-1.207-3.159.375-6.699 3.534-7.905l19.666-7.514c3.16-1.207 6.698.375 7.905 3.534s-.375 6.699-3.534 7.905l-19.666 7.514c-.719.275-1.457.405-2.184.405z" fill="#eaac9d"/><path d="m149.448 435.954c7.019 18.37 27.601 27.572 45.971 20.552s27.572-27.601 20.552-45.971z" fill="#454045"/><g fill="#df9380"><path d="m102.446 423.003c-.835 0-1.684-.172-2.496-.535-3.088-1.38-4.472-5.002-3.092-8.089 3.327-7.441 9.351-13.141 16.965-16.05s15.904-2.68 23.345.647c3.087 1.38 4.471 5.002 3.091 8.089-1.381 3.088-5.004 4.469-8.09 3.091-4.453-1.991-9.416-2.129-13.975-.387-4.558 1.742-8.164 5.154-10.156 9.608-1.016 2.276-3.25 3.626-5.592 3.626z"/><path d="m206.055 383.414c-.836 0-1.684-.172-2.496-.535-3.088-1.38-4.472-5.002-3.092-8.089 3.327-7.441 9.351-13.141 16.965-16.05 7.615-2.91 15.906-2.679 23.346.647 3.087 1.38 4.471 5.002 3.091 8.089-1.381 3.088-5.004 4.47-8.09 3.091-4.456-1.993-9.419-2.129-13.976-.388-4.558 1.742-8.164 5.154-10.156 9.608-1.017 2.277-3.251 3.627-5.592 3.627z"/></g></g><g><path d="m238.99 216.347c-17.588-6.223-26.801-25.526-20.578-43.114.856-2.421 1.961-4.683 3.274-6.768 10.605-16.835 36.476-4.304 29.839 14.453l203.813 72.116c6.637-18.757 34.632-12.228 32.289 7.53-.29 2.447-.854 4.9-1.711 7.321-6.223 17.588-25.526 26.801-43.114 20.578" fill="#b17a4a"/><path d="m287.206 80.074-42.65 120.538c-14.513 41.017 6.977 86.043 47.994 100.556l55.264 19.554c41.024 14.516 86.043-6.977 100.556-47.994l42.65-120.538" fill="#c38959"/><path d="m339.328 317.72-46.779-16.552c-41.017-14.513-62.507-59.539-47.994-100.556l42.651-120.54 46.779 16.552-42.651 120.54c-14.513 41.017 6.977 86.043 47.994 100.556z" fill="#b17a4a"/><g fill="#e490b7"><ellipse cx="404.624" cy="263.189" rx="10.76" ry="17.695" transform="matrix(.334 -.943 .943 .334 21.539 556.848)"/><ellipse cx="284.568" cy="220.709" rx="10.76" ry="17.695" transform="matrix(.334 -.943 .943 .334 -18.423 415.357)"/></g><path d="m360.486 234.724c-.678 0-1.367-.113-2.042-.352l-19.848-7.022c-3.188-1.128-4.859-4.627-3.73-7.815 1.128-3.188 4.628-4.858 7.815-3.73l19.848 7.022c3.188 1.128 4.859 4.627 3.73 7.815-.89 2.512-3.252 4.082-5.773 4.082z" fill="#b17a4a"/><path d="m497.294 68.329-162.225-57.4c-11.484-4.064-24.088 1.952-28.152 13.437l-19.712 55.709-5.527 15.622-16.582 46.865c11.647 4.121 24.429-1.98 28.551-13.627l9.121-25.776 161.636 57.192-9.121 25.776c-4.121 11.647 1.98 24.429 13.627 28.551l16.582-46.865 5.527-15.622 19.712-55.709c4.063-11.485-1.953-24.089-13.437-28.153z" fill="#544f57"/><path d="m382.913 27.857c-11.487-4.065-24.088 1.949-28.152 13.437l-25.239 71.331-26.755-9.467-9.119 25.771c-2.06 5.821-6.29 10.262-11.451 12.731-5.165 2.459-11.279 2.955-17.099.896l41.82-118.191c4.065-11.487 16.665-17.501 28.152-13.437z" fill="#454045"/><path d="m309.262 235.058c-6.56 18.539 3.151 38.886 21.691 45.445 18.539 6.56 38.886-3.151 45.445-21.691z" fill="#454045"/><g fill="#985e33"><path d="m318.353 207.702c-2.286 0-4.48-1.286-5.53-3.487-2.102-4.403-5.792-7.725-10.392-9.352-4.6-1.628-9.558-1.366-13.961.735-3.054 1.456-6.708.163-8.164-2.888-1.456-3.052-.163-6.707 2.888-8.164 7.356-3.511 15.638-3.947 23.322-1.228 7.683 2.719 13.848 8.267 17.359 15.622 1.456 3.052.163 6.707-2.888 8.164-.852.406-1.75.598-2.634.598z"/><path d="m422.915 244.7c-2.286 0-4.48-1.286-5.53-3.487-2.102-4.403-5.792-7.725-10.392-9.352s-9.559-1.367-13.961.735c-3.053 1.457-6.707.163-8.164-2.888-1.456-3.052-.163-6.707 2.888-8.164 7.357-3.51 15.638-3.947 23.322-1.228 7.683 2.719 13.848 8.267 17.359 15.622 1.456 3.052.163 6.707-2.888 8.164-.851.405-1.75.598-2.634.598z"/></g></g><g fill="#80b4fb"><path d="m214.759 96.521c-2.102 0-4.194-.86-5.706-2.549l-20.372-22.756c-2.819-3.15-2.552-7.988.597-10.808 3.151-2.821 7.99-2.551 10.808.597l20.372 22.756c2.819 3.15 2.552 7.988-.597 10.808-1.46 1.309-3.285 1.952-5.102 1.952z"/><g><path d="m237.478 83.029c-3.235 0-6.24-2.067-7.284-5.312l-7.086-22.022c-1.295-4.024.918-8.336 4.942-9.631 4.015-1.296 8.335.917 9.63 4.942l7.086 22.022c1.295 4.024-.918 8.336-4.942 9.631-.778.251-1.568.37-2.346.37z"/><path d="m198.836 117.621c-1.047 0-2.112-.216-3.129-.672l-21.107-9.469c-3.856-1.73-5.58-6.26-3.85-10.117s6.26-5.581 10.117-3.851l21.107 9.469c3.856 1.73 5.58 6.26 3.85 10.117-1.274 2.839-4.066 4.523-6.988 4.523z"/></g></g><g fill="#f4dd45"><path d="m345.436 478.428c-1.471 0-2.958-.423-4.271-1.307l-25.329-17.068c-3.505-2.362-4.432-7.119-2.07-10.625 2.362-3.505 7.118-4.432 10.625-2.07l25.329 17.068c3.505 2.362 4.432 7.119 2.07 10.625-1.478 2.193-3.894 3.377-6.354 3.377z"/><g><path d="m313.666 499.627c-2.55 0-5.044-1.274-6.496-3.596l-12.267-19.613c-2.241-3.584-1.154-8.306 2.43-10.548 3.585-2.242 8.307-1.154 10.548 2.431l12.267 19.613c2.241 3.584 1.154 8.306-2.43 10.548-1.262.788-2.665 1.165-4.052 1.165z"/><path d="m353.165 441.01c-.441 0-.886-.038-1.334-.117l-22.784-4.005c-4.163-.732-6.944-4.7-6.213-8.864.732-4.164 4.706-6.945 8.864-6.213l22.784 4.005c4.163.732 6.944 4.7 6.213 8.864-.654 3.715-3.885 6.33-7.53 6.33z"/></g></g><g fill="#dd636e"><g><path d="m155.348 149.514-40.707-64.576c-.04-.064-.082-.127-.124-.189-2.113-3.143-5.876-4.681-9.587-3.919-3.709.763-6.561 3.66-7.262 7.382-.011.06-.022.121-.032.182l-12.348 75.417c-.683 4.172 2.145 8.107 6.317 8.79.419.069.835.102 1.246.102 3.684 0 6.931-2.666 7.544-6.419l2.223-13.577 32.464-6.635 7.315 11.605c2.253 3.576 6.982 4.647 10.556 2.393 3.578-2.253 4.65-6.979 2.395-10.556zm-50.083-12.971 4.909-29.983 16.183 25.672z"/><path d="m71.272 130.609c-.001-.004-.001-.007-.002-.011s-.002-.007-.003-.011l-7.001-34.257c-.846-4.142-4.892-6.812-9.031-5.967-4.141.847-6.813 4.89-5.966 9.032l5.471 26.769-34.115 6.972-5.471-26.769c-.846-4.142-4.891-6.812-9.031-5.967-4.141.847-6.813 4.89-5.966 9.032l7.002 34.26c0 .003.001.005.001.008s.002.006.002.009l7.499 36.693c.74 3.625 3.93 6.123 7.491 6.123.508 0 1.024-.051 1.541-.156 4.141-.847 6.813-4.89 5.966-9.032l-5.969-29.203 34.115-6.972 5.969 29.203c.74 3.625 3.93 6.123 7.491 6.123.508 0 1.024-.051 1.541-.156 4.141-.847 6.813-4.89 5.966-9.032z"/></g><g><path d="m501.196 382.347c-.109-3.705-2.421-6.944-5.89-8.25-3.468-1.306-7.342-.397-9.869 2.316-.042.045-.084.091-.125.138l-44.657 50.381c-2.805 3.163-2.512 8.001.651 10.805 3.163 2.805 8.002 2.512 10.804-.651l7.623-8.6 26.129 9.875-.005 11.456c-.002 4.227 3.423 7.656 7.65 7.658h.004c4.226 0 7.652-3.424 7.654-7.65l.033-67.249c.001-.077 0-.153-.002-.229zm-30.597 33.88 15.283-17.242-.011 23.014z"/><path d="m453.8 357.834c-3.952-1.494-8.37.499-9.866 4.454l-8.187 21.663-26.989-10.2 8.187-21.663c1.495-3.954-.499-8.371-4.454-9.866-3.951-1.494-8.371.499-9.866 4.454l-10.891 28.819c0 .001-.001.003-.002.004 0 .001-.001.003-.001.004l-11.665 30.866c-1.495 3.954.499 8.371 4.454 9.866.891.337 1.805.496 2.705.496 3.092 0 6.003-1.887 7.161-4.95l8.961-23.71 26.989 10.2-8.961 23.711c-1.495 3.954.499 8.371 4.454 9.866.891.337 1.805.496 2.705.496 3.092 0 6.003-1.887 7.161-4.95l22.56-59.693c1.494-3.955-.5-8.373-4.455-9.867z"/></g></g></g></svg>