<?xml version="1.0" encoding="iso-8859-1"?>
<!-- Generator: Adobe Illustrator 19.0.0, SVG Export Plug-In . SVG Version: 6.00 Build 0)  -->
<svg version="1.1" id="Capa_1" xmlns="http://www.w3.org/2000/svg" xmlns:xlink="http://www.w3.org/1999/xlink" x="0px" y="0px"
	 viewBox="0 0 512 512" style="enable-background:new 0 0 512 512;" xml:space="preserve">
<g>
	<g>
		<g>
			<path d="M274.539,90.096c-2.547-6.097-8.511-10.073-15.123-10.073c-6.621,0-12.575,3.967-15.122,10.073l-42.093,100.852
				c-3.479,8.351,0.461,17.945,8.813,21.432c8.36,3.488,17.945-0.47,21.432-8.813l2.386-5.715h49.2l2.391,5.724
				c2.618,6.283,8.706,10.073,15.122,10.073c2.103,0,4.233-0.408,6.292-1.269c8.351-3.488,12.292-13.081,8.804-21.432
				L274.539,90.096z M248.509,165.087l10.917-26.154l10.923,26.154H248.509z"/>
			<path d="M97.613,80.023c-9.043,0-16.383,7.331-16.383,16.383v100.852c0,9.043,7.331,16.383,16.383,16.383
				s16.383-7.331,16.383-16.383v-34.035h41.649v34.034c0,9.043,7.331,16.383,16.383,16.383c9.043,0,16.383-7.331,16.383-16.383
				V96.406c0-9.043-7.339-16.383-16.383-16.383s-16.383,7.331-16.383,16.383v34.052h-41.649V96.406
				C113.996,87.363,106.656,80.023,97.613,80.023z"/>
			<path d="M307.021,250.524l-35.441,84.916c-0.026,0.06-0.05,0.12-0.075,0.181l-6.576,15.756
				c-3.488,8.342,0.461,17.936,8.804,21.424c2.059,0.87,4.207,1.269,6.31,1.269c6.408,0,12.496-3.781,15.122-10.073l2.382-5.706
				h49.203l2.383,5.706c3.488,8.342,13.072,12.309,21.432,8.804c8.342-3.488,12.292-13.09,8.804-21.432l-42.11-100.843
				c-2.547-6.097-8.511-10.073-15.114-10.073C315.523,240.451,309.568,244.418,307.021,250.524z M311.226,325.516l10.917-26.154
				l10.92,26.154H311.226z"/>
			<path d="M430.77,256.834c0-9.043-7.331-16.383-16.383-16.383s-16.392,7.331-16.392,16.383v59.842
				c0,9.052,7.339,16.392,16.392,16.392s16.383-7.339,16.383-16.392V256.834z"/>
			<path d="M176.722,256.843c0-9.043-7.339-16.383-16.383-16.383c-9.043,0-16.383,7.331-16.383,16.383v100.843
				c0,9.052,7.331,16.383,16.383,16.383c9.043,0,16.383-7.331,16.383-16.374v-34.043h41.64v34.034
				c0,9.052,7.331,16.383,16.383,16.383c9.043,0,16.383-7.331,16.383-16.374V256.843c0-9.043-7.339-16.383-16.383-16.383
				s-16.383,7.331-16.383,16.383v34.035h-41.64V256.843z"/>
			<path d="M382.758,130.458h-34.043c-9.052,0-16.383,7.339-16.383,16.383s7.331,16.383,16.383,16.383h34.043
				c9.043,0,16.383-7.339,16.383-16.383S391.81,130.458,382.758,130.458z"/>
			<path d="M402.814,346.069c-3.115,3.106-4.792,7.286-4.792,11.626c0,4.349,1.677,8.52,4.792,11.537
				c3.106,3.115,7.188,4.801,11.537,4.801c4.437,0,8.52-1.686,11.626-4.801c3.106-3.017,4.783-7.189,4.783-11.537
				c0-4.349-1.766-8.52-4.783-11.626C419.854,340.035,408.849,340.035,402.814,346.069z"/>
			<path d="M436.006,0H75.994C34.088,0,0,34.079,0,75.976v302.148c0,41.889,34.088,75.968,75.994,75.968h32.446
				c9.043,0,16.383-7.339,16.383-16.392c0-9.052-7.331-16.383-16.383-16.383H75.994c-23.838,0-43.229-19.374-43.229-43.193V75.976
				c0-23.829,19.391-43.211,43.229-43.211h360.003c23.829,0,43.229,19.382,43.229,43.211v302.148
				c0,23.811-19.391,43.193-43.229,43.193H244.401c-3.071,0-6.079,0.861-8.679,2.494l-67.625,42.244v-28.355
				c0-9.052-7.339-16.383-16.383-16.383c-9.043,0-16.383,7.331-16.383,16.383v57.916c0,5.964,3.23,11.44,8.44,14.333
				c2.476,1.367,5.209,2.05,7.943,2.05c3.017,0,6.035-0.825,8.679-2.485l88.712-55.423h186.901
				c41.906,0,75.994-34.079,75.994-75.968V75.976C512,34.079,477.921,0,436.006,0z"/>
		</g>
	</g>
</g>
<g>
</g>
<g>
</g>
<g>
</g>
<g>
</g>
<g>
</g>
<g>
</g>
<g>
</g>
<g>
</g>
<g>
</g>
<g>
</g>
<g>
</g>
<g>
</g>
<g>
</g>
<g>
</g>
<g>
</g>
</svg>
