<?xml version="1.0" encoding="UTF-8"?>
<svg xmlns="http://www.w3.org/2000/svg" xmlns:xlink="http://www.w3.org/1999/xlink" version="1.1" id="Layer_1" x="0px" y="0px" viewBox="0 0 512 512" style="enable-background:new 0 0 512 512;" xml:space="preserve" width="512" height="512">
<g>
	<g>
		<g>
			<path style="fill:#6CF5C2;" d="M245.904,343.852l-47.999-128.445c-0.07-0.189-0.144-0.377-0.22-0.564&#10;&#9;&#9;&#9;&#9;c-3.614-8.872-12.079-14.6-21.575-14.6c-0.008,0-0.017,0-0.025,0c-9.504,0.01-17.971,5.759-21.57,14.645&#10;&#9;&#9;&#9;&#9;c-0.062,0.154-0.123,0.31-0.182,0.466l-48.439,128.439c-4.013,10.639,1.272,22.551,11.804,26.604&#10;&#9;&#9;&#9;&#9;c10.392,4.002,22.374-1.422,26.335-11.925l7.057-18.712h49.659l6.971,18.653c3.93,10.517,15.896,15.975,26.299,12.006&#10;&#9;&#9;&#9;&#9;C244.564,366.399,249.885,354.504,245.904,343.852z M166.641,298.529l9.394-24.907l9.308,24.907H166.641z"/>
			<g>
				<path style="fill:#00F2A6;" d="M245.904,343.852l-47.999-128.445c-0.07-0.189-0.144-0.377-0.22-0.564&#10;&#9;&#9;&#9;&#9;&#9;c-3.614-8.872-12.079-14.6-21.575-14.6c-0.008,0-0.017,0-0.025,0c-3.534,0.004-6.924,0.804-9.974,2.261&#10;&#9;&#9;&#9;&#9;&#9;c5.136,2.454,9.308,6.779,11.573,12.339c0.076,0.187,0.149,0.375,0.22,0.564l47.999,128.445&#10;&#9;&#9;&#9;&#9;&#9;c3.601,9.636-0.426,20.269-9.03,25.19c5.1,2.87,11.362,3.584,17.146,1.378C244.564,366.399,249.885,354.504,245.904,343.852z"/>
			</g>
			<path style="fill:#FEE45A;" d="M117.176,105.038c-11.27,0-20.407,9.23-20.407,20.616v42.288H48.314v-42.288&#10;&#9;&#9;&#9;&#9;c0-11.386-9.137-20.616-20.407-20.616S7.5,114.268,7.5,125.654v130.274c0,11.386,9.137,20.616,20.407,20.616&#10;&#9;&#9;&#9;&#9;s20.407-9.23,20.407-20.616v-46.755H96.77v46.755c0,11.386,9.137,20.616,20.407,20.616s20.407-9.23,20.407-20.616V125.654&#10;&#9;&#9;&#9;&#9;C137.583,114.268,128.447,105.038,117.176,105.038z"/>
			<g>
				<path style="fill:#FED402;" d="M117.176,105.038c-3.636,0-7.043,0.972-10,2.656c6.208,3.536,10.407,10.248,10.407,17.96v130.274&#10;&#9;&#9;&#9;&#9;&#9;c0,7.712-4.199,14.424-10.407,17.96c2.957,1.684,6.364,2.656,10,2.656c11.27,0,20.407-9.23,20.407-20.616V125.654&#10;&#9;&#9;&#9;&#9;&#9;C137.583,114.268,128.447,105.038,117.176,105.038z"/>
			</g>
		</g>
		<g>
			<path style="fill:#E8EDF2;" d="M465.852,379.096l-47.999-128.445c-0.07-0.189-0.144-0.377-0.22-0.564&#10;&#9;&#9;&#9;&#9;c-3.614-8.872-12.079-14.6-21.575-14.6c-0.008,0-0.017,0-0.025,0c-9.504,0.01-17.971,5.759-21.57,14.645&#10;&#9;&#9;&#9;&#9;c-0.062,0.154-0.123,0.31-0.182,0.466l-48.439,128.439c-4.013,10.639,1.272,22.551,11.804,26.604&#10;&#9;&#9;&#9;&#9;c10.392,4.002,22.374-1.422,26.335-11.925l7.057-18.712h49.659l6.971,18.653c3.93,10.517,15.896,15.975,26.299,12.006&#10;&#9;&#9;&#9;&#9;C464.512,401.643,469.833,389.748,465.852,379.096z M386.589,333.774l9.394-24.907l9.308,24.907H386.589z"/>
			<g>
				<path style="fill:#D9E7EC;" d="M465.852,379.096l-47.999-128.445c-0.07-0.189-0.144-0.377-0.22-0.564&#10;&#9;&#9;&#9;&#9;&#9;c-3.614-8.872-12.079-14.6-21.575-14.6c-0.008,0-0.017,0-0.025,0c-3.534,0.004-6.924,0.804-9.974,2.261&#10;&#9;&#9;&#9;&#9;&#9;c5.136,2.454,9.308,6.779,11.573,12.339c0.076,0.187,0.149,0.374,0.22,0.564l47.999,128.445&#10;&#9;&#9;&#9;&#9;&#9;c3.601,9.636-0.426,20.269-9.03,25.19c5.1,2.87,11.362,3.584,17.146,1.378C464.512,401.643,469.833,389.748,465.852,379.096z"/>
			</g>
			<path style="fill:#B6C4CF;" d="M337.125,140.283c-11.27,0-20.407,9.23-20.407,20.616v42.288h-48.456v-42.288&#10;&#9;&#9;&#9;&#9;c0-11.386-9.137-20.616-20.407-20.616s-20.407,9.23-20.407,20.616v130.274c0,11.386,9.137,20.616,20.407,20.616&#10;&#9;&#9;&#9;&#9;s20.407-9.23,20.407-20.616v-46.755h48.456v46.755c0,11.386,9.137,20.616,20.407,20.616s20.407-9.23,20.407-20.616V160.898&#10;&#9;&#9;&#9;&#9;C357.532,149.513,348.395,140.283,337.125,140.283z"/>
			<g>
				<path style="fill:#9FACBA;" d="M337.125,140.282c-3.636,0-7.043,0.972-10,2.656c6.208,3.536,10.407,10.248,10.407,17.96v130.274&#10;&#9;&#9;&#9;&#9;&#9;c0,7.712-4.199,14.424-10.407,17.96c2.957,1.684,6.364,2.656,10,2.656c11.27,0,20.407-9.23,20.407-20.616V160.898&#10;&#9;&#9;&#9;&#9;&#9;C357.532,149.513,348.395,140.282,337.125,140.282z"/>
			</g>
		</g>
		<g>
			<path style="fill:#FE73C5;" d="M484.08,310.358c-11.27,0-20.407-9.23-20.407-20.616v-90.754c0-11.386,9.137-20.616,20.407-20.616&#10;&#9;&#9;&#9;&#9;s20.407,9.23,20.407,20.616v90.754C504.487,301.128,495.35,310.358,484.08,310.358z"/>
			<path style="fill:#FE4FB7;" d="M484.08,178.373c-3.636,0-7.043,0.972-10,2.656c6.208,3.535,10.407,10.248,10.407,17.96v90.754&#10;&#9;&#9;&#9;&#9;c0,7.712-4.199,14.424-10.407,17.96c2.957,1.684,6.364,2.656,10,2.656c11.27,0,20.407-9.23,20.407-20.616v-90.754&#10;&#9;&#9;&#9;&#9;C504.487,187.603,495.35,178.373,484.08,178.373z"/>
			<path style="fill:#FE73C5;" d="M484.093,389.462c-11.27,0-20.414-9.23-20.414-20.616s9.13-20.616,20.4-20.616h0.013&#10;&#9;&#9;&#9;&#9;c11.271,0,20.407,9.23,20.407,20.616S495.364,389.462,484.093,389.462z"/>
			<path style="fill:#FE4FB7;" d="M484.093,348.231h-0.013c-3.634,0-7.038,0.97-9.992,2.652&#10;&#9;&#9;&#9;&#9;c6.211,3.535,10.413,10.249,10.413,17.964c0,7.713-4.199,14.425-10.408,17.961c2.958,1.684,6.365,2.655,10.001,2.655&#10;&#9;&#9;&#9;&#9;c11.271,0,20.407-9.23,20.407-20.616C504.5,357.461,495.364,348.231,484.093,348.231z"/>
		</g>
	</g>
	<g>
		<g>
			<path style="fill:none;stroke:#000000;stroke-width:15;stroke-linecap:round;stroke-linejoin:round;stroke-miterlimit:10;" d="&#10;&#9;&#9;&#9;&#9;M245.904,343.852l-47.999-128.445c-0.07-0.189-0.144-0.377-0.22-0.564c-3.614-8.872-12.079-14.6-21.575-14.6&#10;&#9;&#9;&#9;&#9;c-0.008,0-0.017,0-0.025,0c-9.504,0.01-17.971,5.759-21.57,14.645c-0.062,0.154-0.123,0.31-0.182,0.466l-48.439,128.439&#10;&#9;&#9;&#9;&#9;c-4.013,10.639,1.272,22.551,11.804,26.604c10.392,4.002,22.374-1.422,26.335-11.925l7.057-18.712h49.659l6.971,18.653&#10;&#9;&#9;&#9;&#9;c3.93,10.517,15.896,15.975,26.299,12.006C244.564,366.399,249.885,354.504,245.904,343.852z M166.641,298.529l9.394-24.907&#10;&#9;&#9;&#9;&#9;l9.308,24.907H166.641z"/>
			<path style="fill:none;stroke:#000000;stroke-width:15;stroke-linecap:round;stroke-linejoin:round;stroke-miterlimit:10;" d="&#10;&#9;&#9;&#9;&#9;M7.5,179.373v76.555c0,11.386,9.137,20.616,20.407,20.616s20.407-9.23,20.407-20.616v-46.755H96.77v46.755&#10;&#9;&#9;&#9;&#9;c0,11.386,9.137,20.616,20.407,20.616s20.407-9.23,20.407-20.616V125.654c0-11.386-9.137-20.616-20.407-20.616&#10;&#9;&#9;&#9;&#9;s-20.407,9.23-20.407,20.616v42.288H48.314v-42.288c0-11.386-9.137-20.616-20.407-20.616S7.5,114.268,7.5,125.654V151"/>
		</g>
		<g>
			<path style="fill:none;stroke:#000000;stroke-width:15;stroke-linecap:round;stroke-linejoin:round;stroke-miterlimit:10;" d="&#10;&#9;&#9;&#9;&#9;M465.852,379.096l-47.999-128.445c-0.07-0.189-0.144-0.377-0.22-0.564c-3.614-8.872-12.079-14.6-21.575-14.6&#10;&#9;&#9;&#9;&#9;c-0.008,0-0.017,0-0.025,0c-9.504,0.01-17.971,5.759-21.57,14.645c-0.062,0.154-0.123,0.31-0.182,0.466l-48.439,128.439&#10;&#9;&#9;&#9;&#9;c-4.013,10.639,1.272,22.551,11.804,26.604c10.392,4.002,22.374-1.422,26.335-11.925l7.057-18.712h49.659l6.971,18.653&#10;&#9;&#9;&#9;&#9;c3.93,10.517,15.896,15.975,26.299,12.006C464.512,401.643,469.833,389.748,465.852,379.096z M386.589,333.774l9.394-24.907&#10;&#9;&#9;&#9;&#9;l9.308,24.907H386.589z"/>
			<path style="fill:none;stroke:#000000;stroke-width:15;stroke-linecap:round;stroke-linejoin:round;stroke-miterlimit:10;" d="&#10;&#9;&#9;&#9;&#9;M337.125,140.283c-11.27,0-20.407,9.23-20.407,20.616v42.288h-48.456v-42.288c0-11.386-9.137-20.616-20.407-20.616&#10;&#9;&#9;&#9;&#9;s-20.407,9.23-20.407,20.616v130.274c0,11.386,9.137,20.616,20.407,20.616s20.407-9.23,20.407-20.616v-46.755h48.456v46.755&#10;&#9;&#9;&#9;&#9;c0,11.386,9.137,20.616,20.407,20.616s20.407-9.23,20.407-20.616V160.898C357.532,149.513,348.395,140.283,337.125,140.283z"/>
		</g>
		<g>
			<path style="fill:none;stroke:#000000;stroke-width:15;stroke-linecap:round;stroke-linejoin:round;stroke-miterlimit:10;" d="&#10;&#9;&#9;&#9;&#9;M504.487,273.622v16.12c0,11.386-9.137,20.616-20.407,20.616s-20.407-9.23-20.407-20.616v-90.754&#10;&#9;&#9;&#9;&#9;c0-11.386,9.137-20.616,20.407-20.616s20.407,9.23,20.407,20.616v45.377"/>
			<path style="fill:none;stroke:#000000;stroke-width:15;stroke-linecap:round;stroke-linejoin:round;stroke-miterlimit:10;" d="&#10;&#9;&#9;&#9;&#9;M484.093,389.462c-11.27,0-20.414-9.23-20.414-20.616s9.13-20.616,20.4-20.616h0.013c11.271,0,20.407,9.23,20.407,20.616&#10;&#9;&#9;&#9;&#9;S495.364,389.462,484.093,389.462z"/>
		</g>
	</g>
</g>















</svg>
