<?xml version="1.0" encoding="UTF-8"?>
<svg xmlns="http://www.w3.org/2000/svg" xmlns:xlink="http://www.w3.org/1999/xlink" version="1.1" id="Capa_1" x="0px" y="0px" viewBox="0 0 512 512" style="enable-background:new 0 0 512 512;" xml:space="preserve" width="512" height="512">
<g>
	
		<polyline style="fill:none;stroke:#000000;stroke-width:15;stroke-linecap:round;stroke-linejoin:round;stroke-miterlimit:10;" points="&#10;&#9;&#9;181.012,287.935 159.19,311.886 127.782,277.413 83.345,291.563 73.381,246.005 27.823,236.041 41.973,191.604 7.5,160.196 &#10;&#9;&#9;41.973,128.788 27.823,84.351 73.381,74.387 83.345,28.828 127.782,42.979 159.19,8.506 190.598,42.979 235.035,28.828 &#10;&#9;&#9;244.999,74.387 290.557,84.351 276.407,128.788 310.88,160.196 288.941,180.185 &#9;"/>
	<path style="fill:none;stroke:#000000;stroke-width:15;stroke-linecap:round;stroke-linejoin:round;stroke-miterlimit:10;" d="&#10;&#9;&#9;M157.327,195.453l22.198-58.284c0.454-1.109,2.023-1.111,2.479-0.003l21.996,58.286"/>
	
		<line style="fill:none;stroke:#000000;stroke-width:15;stroke-linecap:round;stroke-linejoin:round;stroke-miterlimit:10;" x1="164.25" y1="180.937" x2="197.19" y2="180.937"/>
	
		<line style="fill:none;stroke:#000000;stroke-width:15;stroke-linecap:round;stroke-linejoin:round;stroke-miterlimit:10;" x1="87.4" y1="135.462" x2="87.4" y2="194.579"/>
	
		<line style="fill:none;stroke:#000000;stroke-width:15;stroke-linecap:round;stroke-linejoin:round;stroke-miterlimit:10;" x1="128.31" y1="135.462" x2="128.31" y2="194.579"/>
	
		<line style="fill:none;stroke:#000000;stroke-width:15;stroke-linecap:round;stroke-linejoin:round;stroke-miterlimit:10;" x1="87.4" y1="164.007" x2="128.31" y2="164.007"/>
	<g>
		
			<line style="fill:none;stroke:#000000;stroke-width:15;stroke-linecap:round;stroke-linejoin:round;stroke-miterlimit:10;" x1="233.701" y1="170.914" x2="233.701" y2="134.649"/>
	</g>
	<g>
		
			<line style="fill:none;stroke:#000000;stroke-width:15;stroke-linecap:round;stroke-linejoin:round;stroke-miterlimit:10;" x1="233.701" y1="195.165" x2="233.701" y2="195.165"/>
	</g>
	
		<polygon style="fill:none;stroke:#000000;stroke-width:15;stroke-linecap:round;stroke-linejoin:round;stroke-miterlimit:10;" points="&#10;&#9;&#9;344.826,184.147 377.888,220.434 424.663,205.539 435.151,253.495 483.108,263.984 468.213,310.759 504.5,343.82 468.213,376.882 &#10;&#9;&#9;483.108,423.657 435.151,434.146 424.663,482.102 377.888,467.207 344.826,503.494 311.765,467.207 264.99,482.102 &#10;&#9;&#9;254.501,434.146 206.545,423.657 221.44,376.882 185.153,343.82 221.44,310.759 206.545,263.984 254.501,253.495 264.99,205.539 &#10;&#9;&#9;311.765,220.434 &#9;"/>
	<path style="fill:none;stroke:#000000;stroke-width:15;stroke-linecap:round;stroke-linejoin:round;stroke-miterlimit:10;" d="&#10;&#9;&#9;M342.963,379.078l22.198-58.284c0.454-1.109,2.023-1.111,2.479-0.003l21.996,58.286"/>
	
		<line style="fill:none;stroke:#000000;stroke-width:15;stroke-linecap:round;stroke-linejoin:round;stroke-miterlimit:10;" x1="349.886" y1="364.562" x2="382.826" y2="364.562"/>
	
		<line style="fill:none;stroke:#000000;stroke-width:15;stroke-linecap:round;stroke-linejoin:round;stroke-miterlimit:10;" x1="273.037" y1="319.087" x2="273.037" y2="378.204"/>
	
		<line style="fill:none;stroke:#000000;stroke-width:15;stroke-linecap:round;stroke-linejoin:round;stroke-miterlimit:10;" x1="313.946" y1="319.087" x2="313.946" y2="378.204"/>
	
		<line style="fill:none;stroke:#000000;stroke-width:15;stroke-linecap:round;stroke-linejoin:round;stroke-miterlimit:10;" x1="273.037" y1="347.632" x2="313.946" y2="347.632"/>
	<g>
		
			<line style="fill:none;stroke:#000000;stroke-width:15;stroke-linecap:round;stroke-linejoin:round;stroke-miterlimit:10;" x1="419.337" y1="354.539" x2="419.337" y2="318.274"/>
	</g>
	<g>
		
			<line style="fill:none;stroke:#000000;stroke-width:15;stroke-linecap:round;stroke-linejoin:round;stroke-miterlimit:10;" x1="419.337" y1="378.79" x2="419.337" y2="378.79"/>
	</g>
</g>















</svg>
