<?xml version="1.0" encoding="UTF-8" standalone="no"?>
<!-- Created with Inkscape (http://www.inkscape.org/) -->

<svg
   version="1.1"
   id="svg138"
   xml:space="preserve"
   width="682.66669"
   height="682.66669"
   viewBox="0 0 682.66669 682.66669"
   xmlns="http://www.w3.org/2000/svg"
   xmlns:svg="http://www.w3.org/2000/svg"><defs
     id="defs142"><clipPath
       clipPathUnits="userSpaceOnUse"
       id="clipPath152"><path
         d="M 0,512 H 512 V 0 H 0 Z"
         id="path150" /></clipPath></defs><g
     id="g144"
     transform="matrix(1.3333333,0,0,-1.3333333,0,682.66667)"><g
       id="g146"><g
         id="g148"
         clip-path="url(#clipPath152)"><g
           id="g154"
           transform="translate(501.5,307.3896)"><path
             d="m 0,0 -43.873,-46.214 38.353,-54.427 -59.646,-16.352 13.555,-66.769 -61.579,10.363 -7.942,-67.241 -56.129,30.991 -25.655,-61.143 -46.363,46.851 -40.563,-50.182 -32.204,59.274 -53.235,-33.148 -12.108,67.058 -61.314,-7.654 15.433,65.1 -57.73,26.05 43.873,46.214 -38.353,54.427 59.646,16.351 -13.555,66.77 61.579,-10.362 7.942,67.24 56.129,-30.991 25.655,61.143 46.363,-46.85 40.563,50.18 32.204,-59.274 53.235,33.149 12.108,-67.057 61.314,7.653 -15.433,-65.1 z"
             style="fill:none;stroke:#000000;stroke-width:20;stroke-linecap:round;stroke-linejoin:round;stroke-miterlimit:10;stroke-dasharray:none;stroke-opacity:1"
             id="path156" /></g><g
           id="g158"
           transform="translate(242.6958,285.4253)"><path
             d="m 0,0 14.022,83.247 c 0.308,1.592 2.392,2.01 3.29,0.661 l 44.642,-71.54"
             style="fill:none;stroke:#000000;stroke-width:20;stroke-linecap:round;stroke-linejoin:round;stroke-miterlimit:10;stroke-dasharray:none;stroke-opacity:1"
             id="path160" /></g><g
           id="g162"
           transform="translate(248.0391,306.5278)"><path
             d="M 0,0 43.724,8.728"
             style="fill:none;stroke:#000000;stroke-width:20;stroke-linecap:round;stroke-linejoin:round;stroke-miterlimit:10;stroke-dasharray:none;stroke-opacity:1"
             id="path164" /></g><g
           id="g166"
           transform="translate(137.1875,345.9614)"><path
             d="M 0,0 15.665,-78.471"
             style="fill:none;stroke:#000000;stroke-width:20;stroke-linecap:round;stroke-linejoin:round;stroke-miterlimit:10;stroke-dasharray:none;stroke-opacity:1"
             id="path168" /></g><g
           id="g170"
           transform="translate(191.4902,356.8013)"><path
             d="M 0,0 15.664,-78.471"
             style="fill:none;stroke:#000000;stroke-width:20;stroke-linecap:round;stroke-linejoin:round;stroke-miterlimit:10;stroke-dasharray:none;stroke-opacity:1"
             id="path172" /></g><g
           id="g174"
           transform="translate(144.751,308.0718)"><path
             d="M 0,0 54.303,10.84"
             style="fill:none;stroke:#000000;stroke-width:20;stroke-linecap:round;stroke-linejoin:round;stroke-miterlimit:10;stroke-dasharray:none;stroke-opacity:1"
             id="path176" /></g><g
           id="g178"
           transform="translate(69.9351,472.9209)"><path
             d="m 0,0 c -0.632,-5.486 -5.593,-9.421 -11.082,-8.79 -5.488,0.632 -9.425,5.591 -8.793,11.078 0.631,5.485 5.593,9.421 11.082,8.789 C -3.305,10.445 0.632,5.486 0,0"
             style="fill:#000000;fill-opacity:1;fill-rule:nonzero;stroke:none"
             id="path180" /></g><g
           id="g182"
           transform="translate(488.3936,444.0317)"><path
             d="m 0,0 c -0.632,-5.486 -5.594,-9.421 -11.082,-8.79 -5.489,0.632 -9.425,5.591 -8.793,11.077 0.631,5.486 5.593,9.421 11.081,8.79 C -3.305,10.445 0.632,5.486 0,0"
             style="fill:#000000;fill-opacity:1;fill-rule:nonzero;stroke:none"
             id="path184" /></g><g
           id="g186"
           transform="translate(451.7065,482.9253)"><path
             d="m 0,0 c -0.632,-5.486 -5.593,-9.421 -11.082,-8.79 -5.488,0.632 -9.425,5.591 -8.793,11.078 0.631,5.485 5.593,9.421 11.082,8.789 C -3.305,10.445 0.632,5.486 0,0"
             style="fill:#000000;fill-opacity:1;fill-rule:nonzero;stroke:none"
             id="path188" /></g><g
           id="g190"
           transform="translate(66.8237,71.3657)"><path
             d="m 0,0 c -0.631,-5.486 -5.591,-9.421 -11.077,-8.79 -5.486,0.632 -9.422,5.591 -8.79,11.077 0.632,5.486 5.591,9.421 11.077,8.79 C -3.304,10.445 0.632,5.486 0,0"
             style="fill:#000000;fill-opacity:1;fill-rule:nonzero;stroke:none"
             id="path192" /></g><g
           id="g194"
           transform="translate(415.687,32.1235)"><path
             d="m 0,0 c -0.632,-5.486 -5.594,-9.421 -11.082,-8.79 -5.489,0.632 -9.426,5.591 -8.794,11.078 0.632,5.485 5.594,9.421 11.082,8.789 C -3.305,10.446 0.632,5.486 0,0"
             style="fill:#000000;fill-opacity:1;fill-rule:nonzero;stroke:none"
             id="path196" /></g><g
           id="g198"
           transform="translate(86.8369,26.7876)"><path
             d="m 0,0 c -0.632,-5.486 -5.593,-9.422 -11.082,-8.79 -5.488,0.632 -9.425,5.591 -8.793,11.077 0.631,5.486 5.593,9.421 11.082,8.79 C -3.305,10.445 0.632,5.486 0,0"
             style="fill:#000000;fill-opacity:1;fill-rule:nonzero;stroke:none"
             id="path200" /></g><g
           id="g202"
           transform="translate(485.0581,81.3701)"><path
             d="m 0,0 c -0.632,-5.486 -5.593,-9.421 -11.082,-8.79 -5.488,0.632 -9.425,5.591 -8.793,11.077 0.631,5.486 5.593,9.421 11.082,8.79 C -3.305,10.445 0.632,5.486 0,0"
             style="fill:#000000;fill-opacity:1;fill-rule:nonzero;stroke:none"
             id="path204" /></g><g
           id="g206"
           transform="translate(379.4429,277.667)"><path
             d="M 0,0 7.226,62.757"
             style="fill:none;stroke:#000000;stroke-width:20;stroke-linecap:round;stroke-linejoin:round;stroke-miterlimit:10;stroke-dasharray:none;stroke-opacity:1"
             id="path208" /></g><g
           id="g210"
           transform="translate(278.2061,143.2085)"><path
             d="m 0,0 34,77.27 c 0.689,1.468 2.812,1.362 3.352,-0.166 L 63.095,-3.197"
             style="fill:none;stroke:#000000;stroke-width:20;stroke-linecap:round;stroke-linejoin:round;stroke-miterlimit:10;stroke-dasharray:none;stroke-opacity:1"
             id="path212" /></g><g
           id="g214"
           transform="translate(288.5591,162.3569)"><path
             d="M 0,0 44.529,-2.256"
             style="fill:none;stroke:#000000;stroke-width:20;stroke-linecap:round;stroke-linejoin:round;stroke-miterlimit:10;stroke-dasharray:none;stroke-opacity:1"
             id="path216" /></g><g
           id="g218"
           transform="translate(190.7559,227.7603)"><path
             d="M 0,0 -4.049,-79.916"
             style="fill:none;stroke:#000000;stroke-width:20;stroke-linecap:round;stroke-linejoin:round;stroke-miterlimit:10;stroke-dasharray:none;stroke-opacity:1"
             id="path220" /></g><g
           id="g222"
           transform="translate(246.0586,224.958)"><path
             d="M 0,0 -4.049,-79.916"
             style="fill:none;stroke:#000000;stroke-width:20;stroke-linecap:round;stroke-linejoin:round;stroke-miterlimit:10;stroke-dasharray:none;stroke-opacity:1"
             id="path224" /></g><g
           id="g226"
           transform="translate(188.8008,189.1729)"><path
             d="M 0,0 55.303,-2.802"
             style="fill:none;stroke:#000000;stroke-width:20;stroke-linecap:round;stroke-linejoin:round;stroke-miterlimit:10;stroke-dasharray:none;stroke-opacity:1"
             id="path228" /></g><g
           id="g230"
           transform="translate(376.2305,242.9062)"><path
             d="m 0,0 c -5.489,0.632 -10.45,-3.303 -11.082,-8.79 -0.632,-5.486 3.305,-10.445 8.793,-11.077 5.489,-0.632 10.451,3.304 11.082,8.79 C 9.425,-5.591 5.488,-0.631 0,0"
             style="fill:#000000;fill-opacity:1;fill-rule:nonzero;stroke:none"
             id="path232" /></g></g></g></g></svg>
