<?xml version="1.0" encoding="UTF-8" standalone="no"?>
<!-- Created with Inkscape (http://www.inkscape.org/) -->

<svg
   version="1.1"
   id="svg2820"
   xml:space="preserve"
   width="682.66669"
   height="682.66669"
   viewBox="0 0 682.66669 682.66669"
   xmlns="http://www.w3.org/2000/svg"
   xmlns:svg="http://www.w3.org/2000/svg"><defs
     id="defs2824"><clipPath
       clipPathUnits="userSpaceOnUse"
       id="clipPath2834"><path
         d="M 0,512 H 512 V 0 H 0 Z"
         id="path2832" /></clipPath></defs><g
     id="g2826"
     transform="matrix(1.3333333,0,0,-1.3333333,0,682.66667)"><g
       id="g2828"><g
         id="g2830"
         clip-path="url(#clipPath2834)"><g
           id="g2836"
           transform="translate(256,364.2178)"><path
             d="m 0,0 h -61.724 c -14.61,0 -26.453,-11.365 -26.453,-25.384 v -6.681"
             style="fill:none;stroke:#000000;stroke-width:15;stroke-linecap:round;stroke-linejoin:round;stroke-miterlimit:10;stroke-dasharray:none;stroke-opacity:1"
             id="path2838" /></g><g
           id="g2840"
           transform="translate(167.8228,123.7324)"><path
             d="m 0,0 v -38.743 c 0,-14.02 11.843,-25.384 26.453,-25.384 h 123.448 c 14.61,0 26.453,11.364 26.453,25.384 v 1.105 13.589"
             style="fill:none;stroke:#000000;stroke-width:15;stroke-linecap:round;stroke-linejoin:round;stroke-miterlimit:10;stroke-dasharray:none;stroke-opacity:1"
             id="path2842" /></g><g
           id="g2844"
           transform="translate(296.0806,131.75)"><path
             d="m 0,0 h 184.371 c 13.282,0 24.048,10.767 24.048,24.048 v 96.194 c 0,13.281 -10.766,24.049 -24.048,24.049 H 56.113 c -13.281,0 -24.049,-10.768 -24.049,-24.049 V 32.064 Z"
             style="fill:none;stroke:#000000;stroke-width:15;stroke-linecap:round;stroke-linejoin:round;stroke-miterlimit:10;stroke-dasharray:none;stroke-opacity:1"
             id="path2846" /></g><g
           id="g2848"
           transform="translate(429.0957,179.8467)"><path
             d="m 0,0 17.797,46.729 c 0.364,0.889 1.622,0.89 1.988,10e-4 L 37.42,0"
             style="fill:none;stroke:#000000;stroke-width:15;stroke-linecap:round;stroke-linejoin:round;stroke-miterlimit:10;stroke-dasharray:none;stroke-opacity:1"
             id="path2850" /></g><g
           id="g2852"
           transform="translate(434.646,191.4844)"><path
             d="M 0,0 H 26.409"
             style="fill:none;stroke:#000000;stroke-width:15;stroke-linecap:round;stroke-linejoin:round;stroke-miterlimit:10;stroke-dasharray:none;stroke-opacity:1"
             id="path2854" /></g><g
           id="g2856"
           transform="translate(369.9971,227.9434)"><path
             d="M 0,0 V -47.396"
             style="fill:none;stroke:#000000;stroke-width:15;stroke-linecap:round;stroke-linejoin:round;stroke-miterlimit:10;stroke-dasharray:none;stroke-opacity:1"
             id="path2858" /></g><g
           id="g2860"
           transform="translate(402.7954,227.9434)"><path
             d="M 0,0 V -47.396"
             style="fill:none;stroke:#000000;stroke-width:15;stroke-linecap:round;stroke-linejoin:round;stroke-miterlimit:10;stroke-dasharray:none;stroke-opacity:1"
             id="path2862" /></g><g
           id="g2864"
           transform="translate(369.9971,205.0586)"><path
             d="M 0,0 H 32.798"
             style="fill:none;stroke:#000000;stroke-width:15;stroke-linecap:round;stroke-linejoin:round;stroke-miterlimit:10;stroke-dasharray:none;stroke-opacity:1"
             id="path2866" /></g><g
           id="g2868"
           transform="translate(256,308.105)"><path
             d="m 0,0 h 184.371 c 13.281,0 24.048,10.767 24.048,24.048 v 96.194 c 0,13.281 -10.767,24.048 -24.048,24.048 H 56.113 c -13.281,0 -24.049,-10.767 -24.049,-24.048 V 32.064 Z"
             style="fill:none;stroke:#000000;stroke-width:15;stroke-linecap:round;stroke-linejoin:round;stroke-miterlimit:10;stroke-dasharray:none;stroke-opacity:1"
             id="path2870" /></g><g
           id="g2872"
           transform="translate(389.0146,356.2017)"><path
             d="m 0,0 17.797,46.728 c 0.364,0.889 1.622,0.891 1.988,0.002 L 37.42,0"
             style="fill:none;stroke:#000000;stroke-width:15;stroke-linecap:round;stroke-linejoin:round;stroke-miterlimit:10;stroke-dasharray:none;stroke-opacity:1"
             id="path2874" /></g><g
           id="g2876"
           transform="translate(394.5649,367.8394)"><path
             d="M 0,0 H 26.409"
             style="fill:none;stroke:#000000;stroke-width:15;stroke-linecap:round;stroke-linejoin:round;stroke-miterlimit:10;stroke-dasharray:none;stroke-opacity:1"
             id="path2878" /></g><g
           id="g2880"
           transform="translate(329.916,404.2983)"><path
             d="M 0,0 V -47.396"
             style="fill:none;stroke:#000000;stroke-width:15;stroke-linecap:round;stroke-linejoin:round;stroke-miterlimit:10;stroke-dasharray:none;stroke-opacity:1"
             id="path2882" /></g><g
           id="g2884"
           transform="translate(362.7148,404.2983)"><path
             d="M 0,0 V -47.396"
             style="fill:none;stroke:#000000;stroke-width:15;stroke-linecap:round;stroke-linejoin:round;stroke-miterlimit:10;stroke-dasharray:none;stroke-opacity:1"
             id="path2886" /></g><g
           id="g2888"
           transform="translate(329.916,381.4131)"><path
             d="M 0,0 H 32.799"
             style="fill:none;stroke:#000000;stroke-width:15;stroke-linecap:round;stroke-linejoin:round;stroke-miterlimit:10;stroke-dasharray:none;stroke-opacity:1"
             id="path2890" /></g><g
           id="g2892"
           transform="translate(215.9194,155.7983)"><path
             d="m 0,0 h -184.371 c -13.282,0 -24.048,10.767 -24.048,24.049 v 96.193 c 0,13.282 10.766,24.049 24.048,24.049 h 128.258 c 13.281,0 24.049,-10.767 24.049,-24.049 V 32.065 Z"
             style="fill:none;stroke:#000000;stroke-width:15;stroke-linecap:round;stroke-linejoin:round;stroke-miterlimit:10;stroke-dasharray:none;stroke-opacity:1"
             id="path2894" /></g><g
           id="g2896"
           transform="translate(104.583,203.8955)"><path
             d="m 0,0 17.797,46.728 c 0.364,0.889 1.622,0.891 1.988,0.002 L 37.42,0"
             style="fill:none;stroke:#000000;stroke-width:15;stroke-linecap:round;stroke-linejoin:round;stroke-miterlimit:10;stroke-dasharray:none;stroke-opacity:1"
             id="path2898" /></g><g
           id="g2900"
           transform="translate(110.1333,215.5332)"><path
             d="M 0,0 H 26.409"
             style="fill:none;stroke:#000000;stroke-width:15;stroke-linecap:round;stroke-linejoin:round;stroke-miterlimit:10;stroke-dasharray:none;stroke-opacity:1"
             id="path2902" /></g><g
           id="g2904"
           transform="translate(45.4844,251.9922)"><path
             d="M 0,0 V -47.396"
             style="fill:none;stroke:#000000;stroke-width:15;stroke-linecap:round;stroke-linejoin:round;stroke-miterlimit:10;stroke-dasharray:none;stroke-opacity:1"
             id="path2906" /></g><g
           id="g2908"
           transform="translate(78.2832,251.9922)"><path
             d="M 0,0 V -47.396"
             style="fill:none;stroke:#000000;stroke-width:15;stroke-linecap:round;stroke-linejoin:round;stroke-miterlimit:10;stroke-dasharray:none;stroke-opacity:1"
             id="path2910" /></g><g
           id="g2912"
           transform="translate(45.4844,229.1069)"><path
             d="M 0,0 H 32.799"
             style="fill:none;stroke:#000000;stroke-width:15;stroke-linecap:round;stroke-linejoin:round;stroke-miterlimit:10;stroke-dasharray:none;stroke-opacity:1"
             id="path2914" /></g><g
           id="g2916"
           transform="translate(215.9194,268.0244)"><path
             d="M 0,0 H 80.161"
             style="fill:none;stroke:#000000;stroke-width:15;stroke-linecap:round;stroke-linejoin:round;stroke-miterlimit:10;stroke-dasharray:none;stroke-opacity:1"
             id="path2918" /></g><g
           id="g2920"
           transform="translate(215.9194,235.9595)"><path
             d="M 0,0 H 80.161"
             style="fill:none;stroke:#000000;stroke-width:15;stroke-linecap:round;stroke-linejoin:round;stroke-miterlimit:10;stroke-dasharray:none;stroke-opacity:1"
             id="path2922" /></g><g
           id="g2924"
           transform="translate(215.9194,203.895)"><path
             d="M 0,0 H 80.161"
             style="fill:none;stroke:#000000;stroke-width:15;stroke-linecap:round;stroke-linejoin:round;stroke-miterlimit:10;stroke-dasharray:none;stroke-opacity:1"
             id="path2926" /></g><g
           id="g2928"
           transform="translate(247.9839,171.8306)"><path
             d="M 0,0 H 48.097"
             style="fill:none;stroke:#000000;stroke-width:15;stroke-linecap:round;stroke-linejoin:round;stroke-miterlimit:10;stroke-dasharray:none;stroke-opacity:1"
             id="path2930" /></g></g></g></g></svg>
