<?xml version="1.0" encoding="UTF-8"?>
<svg xmlns="http://www.w3.org/2000/svg" xmlns:xlink="http://www.w3.org/1999/xlink" version="1.1" id="Capa_1" x="0px" y="0px" viewBox="0 0 512.01 512.01" style="enable-background:new 0 0 512.01 512.01;" xml:space="preserve" width="512" height="512">
<g>
	<g>
		<path style="fill:#FDCD64;" d="M298.948,366.243c-10.873-60.924-60.302-108.48-122.149-116.548&#10;&#9;&#9;&#9;C45.156,256.01,52.667,401.164,117.157,420.5C198.155,429.341,298.948,411.258,298.948,366.243z"/>
		<path style="fill:#DD7A5F;" d="M504.505,45.161c0,16.597-10.743,30.693-25.653,35.704c-33.481,8.474-56.009-21.145-46.788-50.132&#10;&#9;&#9;&#9;c5.663-13.635,19.107-23.223,34.79-23.223C487.647,7.51,504.505,24.368,504.505,45.161z"/>
		<path style="fill:#E48C79;" d="M494.735,125.274C483.933,64.749,435.372,18.028,375.027,9.073&#10;&#9;&#9;&#9;c-122.537,9.085-124.545,145.73-54.269,167.25C400.276,182.719,494.735,165.703,494.735,125.274z"/>
		<path style="fill:#DD7A5F;" d="M324.193,128.898c7.56-48.679,26.427-90.89,50.835-119.825c-6.902-1.024-13.957-1.563-21.129-1.563&#10;&#9;&#9;&#9;c-70.383,0-128.889,50.814-140.837,117.764c0,29.385,49.901,46.4,107.696,51.049C320.577,161.019,321.675,145.112,324.193,128.898&#10;&#9;&#9;&#9;z"/>
		<path style="fill:#FDB245;" d="M176.798,249.695C99.693,239.637,30.456,292.38,17.274,366.243&#10;&#9;&#9;&#9;c0,30.235,45.477,48.319,99.882,54.257C116.564,360.668,136.732,294.041,176.798,249.695z"/>
		<path style="fill:#FFB09E;" d="M247.199,113.456c36.842,0,36.842,74.259,0,74.259c-22.982,3.868-43.907-13.866-43.907-37.129&#10;&#9;&#9;&#9;c0-9.739,3.695-18.615,9.769-25.302c0,0,0,0,0-0.01C221.718,115.747,234.544,111.326,247.199,113.456z"/>
		<path style="fill:#FFCEBF;" d="M494.735,125.284c6.074,6.687,9.769,15.563,9.769,25.302c0,23.283-20.936,40.996-43.907,37.129&#10;&#9;&#9;&#9;c-32.772,0-32.772-74.259,0-74.259c12.642-2.128,25.472,2.281,34.137,11.818C494.735,125.284,494.735,125.284,494.735,125.284z"/>
		<path style="fill:#FFDFCF;" d="M466.853,150.586c0-19.907-5.193-39.135-14.864-56.038c-1.963-3.432-5.861-5.182-9.772-4.605&#10;&#9;&#9;&#9;c-12.446,1.837-25.14-2.671-33.632-12.246c-2.212-2.494-5.547-3.762-8.824-3.155c-15.01,2.778-30.525-2.244-41.073-13.436&#10;&#9;&#9;&#9;c-2.648-2.81-6.928-2.811-9.576,0c-2.576,2.735-5.451,5.093-8.538,7.066c-75.763,52.942-93.374,165.75-2.597,194.248&#10;&#9;&#9;&#9;C406.435,272.068,466.853,218.932,466.853,150.586z"/>
		<path style="fill:#FFCEBF;" d="M324.193,128.898c3.376-21.735,9.01-42.176,16.381-60.727c-9.57,6.116-21.206,8.47-32.544,6.369&#10;&#9;&#9;&#9;c-3.272-0.606-6.603,0.66-8.811,3.15c-8.482,9.567-21.169,14.091-33.63,12.255c-3.917-0.577-7.82,1.176-9.786,4.613&#10;&#9;&#9;&#9;c-9.691,16.941-14.859,36.176-14.859,56.028c0,56.798,42.046,104.084,97.032,111.834&#10;&#9;&#9;&#9;C322.22,226.995,316.347,179.42,324.193,128.898z"/>
		<path style="fill:#D78878;" d="M51.412,354.426c40.523,0,40.523,74.259,0,74.259c-22.982,3.868-43.907-13.866-43.907-37.129&#10;&#9;&#9;&#9;c0-9.739,3.695-18.615,9.769-25.302c0,0,0,0,0-0.01C25.93,356.717,38.756,352.296,51.412,354.426z"/>
		<path style="fill:#EB9C8D;" d="M298.948,366.253c6.074,6.687,9.769,15.563,9.769,25.302c0,23.283-20.936,40.996-43.907,37.129&#10;&#9;&#9;&#9;c-31.821,0-31.821-74.259,0-74.259c12.642-2.128,25.472,2.281,34.137,11.818C298.948,366.253,298.948,366.253,298.948,366.253z"/>
		<path style="fill:#F1B0A2;" d="M271.065,391.555c0-20.332-5.404-39.543-14.906-56.103c-1.799-3.136-5.288-4.967-8.877-4.529&#10;&#9;&#9;&#9;c-13.321,1.622-26.597-1.873-37.323-9.685c-2.53-1.843-5.796-2.295-8.719-1.176c-20.899,7.997-45.664,11.714-70.158,11.201&#10;&#9;&#9;&#9;c-68.857,9.849-75.508,135.423,1.518,170.357C203.639,518.007,271.065,463.959,271.065,391.555z"/>
		<path style="fill:#EB9C8D;" d="M131.082,331.263c-18.977-0.398-37.792-3.332-54.52-8.8c-3.814-1.247-8.005,0.143-10.341,3.406&#10;&#9;&#9;&#9;c-13.491,18.841-21.064,41.63-21.064,65.687c0,53.449,37.231,98.481,87.443,110.064&#10;&#9;&#9;&#9;C111.207,450.117,113.259,385.581,131.082,331.263z"/>
		<path style="fill:#FCE299;" d="M375.636,452.541c11.175,6.115,11.175,22.169,0,28.284l-5.522,3.022&#10;&#9;&#9;&#9;c-2.711,1.476-4.93,3.705-6.406,6.406l-3.022,5.522c-6.115,11.185-22.169,11.185-28.284,0l-3.022-5.522&#10;&#9;&#9;&#9;c-1.476-2.701-3.705-4.93-6.406-6.406l-5.522-3.022c-11.185-6.115-11.185-22.169,0-28.284l5.522-3.022&#10;&#9;&#9;&#9;c2.701-1.476,4.93-3.695,6.406-6.406l3.022-5.522c6.115-11.175,22.169-11.175,28.284,0l3.022,5.522&#10;&#9;&#9;&#9;c1.476,2.711,3.695,4.93,6.406,6.406L375.636,452.541z"/>
		<path style="fill:#FCE299;" d="M183.433,31.677c11.185,6.115,11.185,22.169,0,28.284l-5.522,3.022&#10;&#9;&#9;&#9;c-2.701,1.476-4.93,3.705-6.406,6.406l-3.022,5.522c-6.115,11.185-22.169,11.185-28.284,0l-3.022-5.522&#10;&#9;&#9;&#9;c-1.476-2.701-3.705-4.93-6.406-6.406l-5.522-3.022c-11.175-6.115-11.175-22.169,0-28.284l5.522-3.022&#10;&#9;&#9;&#9;c2.701-1.476,4.93-3.705,6.406-6.406l3.022-5.522c6.115-11.185,22.169-11.185,28.284,0l3.022,5.522&#10;&#9;&#9;&#9;c1.476,2.701,3.705,4.93,6.406,6.406L183.433,31.677z"/>
		<path style="fill:none;stroke:#000000;stroke-width:15;stroke-linecap:round;stroke-linejoin:round;stroke-miterlimit:10;" d="&#10;&#9;&#9;&#9;M305.946,154.803c0-7.631-6.185-13.826-13.816-13.826s-13.826,6.195-13.826,13.826"/>
		<path style="fill:none;stroke:#000000;stroke-width:15;stroke-linecap:round;stroke-linejoin:round;stroke-miterlimit:10;" d="&#10;&#9;&#9;&#9;M401.852,154.803c0-7.631,6.185-13.826,13.816-13.826c7.631,0,13.826,6.195,13.826,13.826"/>
		<path style="fill:none;stroke:#000000;stroke-width:15;stroke-linecap:round;stroke-linejoin:round;stroke-miterlimit:10;" d="&#10;&#9;&#9;&#9;M339.24,170.958c7.764,8.902,21.552,8.903,29.318,0"/>
		
			<line style="fill:none;stroke:#000000;stroke-width:15;stroke-linecap:round;stroke-linejoin:round;stroke-miterlimit:10;" x1="95.409" y1="381.947" x2="95.409" y2="393.995"/>
		
			<line style="fill:none;stroke:#000000;stroke-width:15;stroke-linecap:round;stroke-linejoin:round;stroke-miterlimit:10;" x1="220.813" y1="381.947" x2="220.813" y2="393.995"/>
		<path style="fill:none;stroke:#000000;stroke-width:15;stroke-linecap:round;stroke-linejoin:round;stroke-miterlimit:10;" d="&#10;&#9;&#9;&#9;M141.584,393.634c8.749,10.04,24.303,10.041,33.053,0"/>
		<path style="fill:none;stroke:#000000;stroke-width:15;stroke-linecap:round;stroke-linejoin:round;stroke-miterlimit:10;" d="&#10;&#9;&#9;&#9;M17.274,366.243C29.222,299.294,87.728,248.48,158.111,248.48S287,299.294,298.948,366.243"/>
		<path style="fill:none;stroke:#000000;stroke-width:15;stroke-linecap:round;stroke-linejoin:round;stroke-miterlimit:10;" d="&#10;&#9;&#9;&#9;M264.81,428.685c22.982,3.868,43.907-13.866,43.907-37.129c0-9.739-3.695-18.615-9.769-25.302c0,0,0,0,0-0.01&#10;&#9;&#9;&#9;c-8.656-9.527-21.482-13.948-34.137-11.818"/>
		<path style="fill:none;stroke:#000000;stroke-width:15;stroke-linecap:round;stroke-linejoin:round;stroke-miterlimit:10;" d="&#10;&#9;&#9;&#9;M51.412,428.685c-22.982,3.868-43.907-13.866-43.907-37.129c0-9.739,3.695-18.615,9.769-25.302c0,0,0,0,0-0.01&#10;&#9;&#9;&#9;c8.656-9.527,21.482-13.948,34.137-11.818"/>
		<path style="fill:none;stroke:#000000;stroke-width:15;stroke-linecap:round;stroke-linejoin:round;stroke-miterlimit:10;" d="&#10;&#9;&#9;&#9;M448.289,88.526c-16.061,5.177-33.755-0.921-43.134-15.332c-19.003,6.008-39.972-1.141-51.256-18.123&#10;&#9;&#9;&#9;c-11.26,16.946-32.22,24.141-51.256,18.123c-9.394,14.435-27.099,20.5-43.134,15.332c-12.041,18.288-18.565,39.748-18.565,62.06&#10;&#9;&#9;&#9;c0,62.118,50.323,112.955,112.954,112.955c62.582,0,112.954-50.785,112.954-112.955&#10;&#9;&#9;&#9;C466.853,128.337,460.363,106.865,448.289,88.526z"/>
		<path style="fill:none;stroke:#000000;stroke-width:15;stroke-linecap:round;stroke-linejoin:round;stroke-miterlimit:10;" d="&#10;&#9;&#9;&#9;M168.483,16.727l3.022,5.522c1.476,2.701,3.705,4.93,6.406,6.406l5.522,3.022c11.185,6.115,11.185,22.169,0,28.284l-5.522,3.022&#10;&#9;&#9;&#9;c-2.701,1.476-4.93,3.705-6.406,6.406l-3.022,5.522c-6.115,11.185-22.169,11.185-28.284,0l-3.022-5.522&#10;&#9;&#9;&#9;c-1.476-2.701-3.705-4.93-6.406-6.406l-5.522-3.022c-11.175-6.115-11.175-22.169,0-28.284l5.522-3.022&#10;&#9;&#9;&#9;c2.701-1.476,4.93-3.705,6.406-6.406l3.022-5.522C146.314,5.542,162.368,5.542,168.483,16.727z"/>
		<path style="fill:none;stroke:#000000;stroke-width:15;stroke-linecap:round;stroke-linejoin:round;stroke-miterlimit:10;" d="&#10;&#9;&#9;&#9;M360.686,437.591l3.022,5.522c1.476,2.711,3.695,4.93,6.406,6.406l5.522,3.022c11.175,6.115,11.175,22.169,0,28.284l-5.522,3.022&#10;&#9;&#9;&#9;c-2.711,1.476-4.93,3.705-6.406,6.406l-3.022,5.522c-6.115,11.185-22.169,11.185-28.284,0l-3.022-5.522&#10;&#9;&#9;&#9;c-1.476-2.701-3.705-4.93-6.406-6.406l-5.522-3.022c-11.185-6.115-11.185-22.169,0-28.284l5.522-3.022&#10;&#9;&#9;&#9;c2.701-1.476,4.93-3.695,6.406-6.406l3.022-5.522C338.517,426.416,354.571,426.416,360.686,437.591z"/>
		<path style="fill:none;stroke:#000000;stroke-width:15;stroke-linecap:round;stroke-linejoin:round;stroke-miterlimit:10;" d="&#10;&#9;&#9;&#9;M308.416,14.9c39.805-13.371,85.743-8.928,123.648,15.834c33.007,21.56,55.763,55.831,62.672,94.54"/>
		<path style="fill:none;stroke:#000000;stroke-width:15;stroke-linecap:round;stroke-linejoin:round;stroke-miterlimit:10;" d="&#10;&#9;&#9;&#9;M213.062,125.274c7.129-39.931,30.814-74.128,63.716-95.223"/>
		<path style="fill:none;stroke:#000000;stroke-width:15;stroke-linecap:round;stroke-linejoin:round;stroke-miterlimit:10;" d="&#10;&#9;&#9;&#9;M460.598,187.715c22.982,3.868,43.907-13.866,43.907-37.129c0-9.739-3.695-18.615-9.769-25.302c0,0,0,0,0-0.01&#10;&#9;&#9;&#9;c-8.656-9.527-21.482-13.948-34.137-11.818"/>
		<path style="fill:none;stroke:#000000;stroke-width:15;stroke-linecap:round;stroke-linejoin:round;stroke-miterlimit:10;" d="&#10;&#9;&#9;&#9;M247.199,187.715c-22.982,3.868-43.907-13.866-43.907-37.129c0-9.739,3.695-18.615,9.769-25.302c0,0,0,0,0-0.01&#10;&#9;&#9;&#9;c8.656-9.527,21.482-13.948,34.137-11.818"/>
		<path style="fill:none;stroke:#000000;stroke-width:15;stroke-linecap:round;stroke-linejoin:round;stroke-miterlimit:10;" d="&#10;&#9;&#9;&#9;M478.852,80.865c14.91-5.01,25.653-19.107,25.653-35.704c0-20.794-16.858-37.651-37.651-37.651&#10;&#9;&#9;&#9;c-15.683,0-29.127,9.589-34.79,23.223"/>
		<path style="fill:none;stroke:#000000;stroke-width:15;stroke-linecap:round;stroke-linejoin:round;stroke-miterlimit:10;" d="&#10;&#9;&#9;&#9;M379.271,301.192c-0.867,2.795,4.579-14.767-17.842,57.542"/>
		<path style="fill:none;stroke:#000000;stroke-width:15;stroke-linecap:round;stroke-linejoin:round;stroke-miterlimit:10;" d="&#10;&#9;&#9;&#9;M415.236,312.337c-0.867,2.795,4.579-14.767-17.842,57.542"/>
		
			<polyline style="fill:none;stroke:#000000;stroke-width:15;stroke-linecap:round;stroke-linejoin:round;stroke-miterlimit:10;" points="&#10;&#9;&#9;&#9;370.345,329.957 370.355,329.957 406.31,341.112 &#9;&#9;"/>
		<path style="fill:none;stroke:#000000;stroke-width:15;stroke-linecap:round;stroke-linejoin:round;stroke-miterlimit:10;" d="&#10;&#9;&#9;&#9;M426.16,378.804c48.891-63.075,37.721-48.664,39.419-50.855"/>
		<path style="fill:none;stroke:#000000;stroke-width:15;stroke-linecap:round;stroke-linejoin:round;stroke-miterlimit:10;" d="&#10;&#9;&#9;&#9;M469.313,392.178c-1.342-23.072-2.993-51.474-3.735-64.228"/>
		
			<polyline style="fill:none;stroke:#000000;stroke-width:15;stroke-linecap:round;stroke-linejoin:round;stroke-miterlimit:10;" points="&#10;&#9;&#9;&#9;468.389,376.123 468.379,376.123 436.019,366.093 &#9;&#9;"/>
		<path style="fill:none;stroke:#000000;stroke-width:15;stroke-linecap:round;stroke-linejoin:round;stroke-miterlimit:10;" d="&#10;&#9;&#9;&#9;M22.475,163.427c1.746,2.343-9.238-12.394,36.005,48.304"/>
		<path style="fill:none;stroke:#000000;stroke-width:15;stroke-linecap:round;stroke-linejoin:round;stroke-miterlimit:10;" d="&#10;&#9;&#9;&#9;M52.667,140.927c1.774,2.38-9.224-12.378,35.995,48.304"/>
		
			<polyline style="fill:none;stroke:#000000;stroke-width:15;stroke-linecap:round;stroke-linejoin:round;stroke-miterlimit:10;" points="&#10;&#9;&#9;&#9;40.478,187.575 70.659,165.074 70.669,165.074 &#9;&#9;"/>
		<path style="fill:none;stroke:#000000;stroke-width:15;stroke-linecap:round;stroke-linejoin:round;stroke-miterlimit:10;" d="&#10;&#9;&#9;&#9;M112.819,171.229c-22.194-76.657-17.121-59.135-17.892-61.799"/>
		<path style="fill:none;stroke:#000000;stroke-width:15;stroke-linecap:round;stroke-linejoin:round;stroke-miterlimit:10;" d="&#10;&#9;&#9;&#9;M149.045,144.23c-67.167-43.191-51.772-33.292-54.118-34.8"/>
		
			<polyline style="fill:none;stroke:#000000;stroke-width:15;stroke-linecap:round;stroke-linejoin:round;stroke-miterlimit:10;" points="&#10;&#9;&#9;&#9;135.52,135.525 135.51,135.525 108.351,155.777 &#9;&#9;"/>
		
			<line style="fill:none;stroke:#000000;stroke-width:15;stroke-linecap:round;stroke-linejoin:round;stroke-miterlimit:10;" x1="504.505" y1="451.266" x2="483.209" y2="440.613"/>
		
			<line style="fill:none;stroke:#000000;stroke-width:15;stroke-linecap:round;stroke-linejoin:round;stroke-miterlimit:10;" x1="477.878" y1="477.883" x2="461.903" y2="461.908"/>
		
			<line style="fill:none;stroke:#000000;stroke-width:15;stroke-linecap:round;stroke-linejoin:round;stroke-miterlimit:10;" x1="451.261" y1="504.51" x2="440.608" y2="483.214"/>
		
			<line style="fill:none;stroke:#000000;stroke-width:15;stroke-linecap:round;stroke-linejoin:round;stroke-miterlimit:10;" x1="7.505" y1="60.754" x2="28.801" y2="71.407"/>
		
			<line style="fill:none;stroke:#000000;stroke-width:15;stroke-linecap:round;stroke-linejoin:round;stroke-miterlimit:10;" x1="34.132" y1="34.137" x2="50.106" y2="50.111"/>
		
			<line style="fill:none;stroke:#000000;stroke-width:15;stroke-linecap:round;stroke-linejoin:round;stroke-miterlimit:10;" x1="60.749" y1="7.51" x2="71.402" y2="28.806"/>
		<path style="fill:none;stroke:#000000;stroke-width:15;stroke-linecap:round;stroke-linejoin:round;stroke-miterlimit:10;" d="&#10;&#9;&#9;&#9;M238.233,471.156c38.093-38.319,43.171-97.38,14.559-141.198c-16.771,3.85-34.029-0.63-46.728-11.848&#10;&#9;&#9;&#9;c-39.516,16.895-94.924,17.531-135.606,2.209c-25.53,31.381-31.48,72.728-19.047,108.366&#10;&#9;&#9;&#9;c15.352,44.148,57.331,75.825,106.699,75.825c18.705,0,36.356-4.548,51.899-12.601"/>
	</g>
</g>















</svg>
