<svg id="Capa_1" enable-background="new 0 0 512 512" height="512" viewBox="0 0 512 512" width="512" xmlns="http://www.w3.org/2000/svg"><g><g><path d="m380.048 334.677-69.666-24.881c-9.571-3.418-15.96-12.484-15.96-22.648v-23.133h-80.161v23.133c0 10.164-6.389 19.229-15.96 22.648l-69.666 24.881c-15.952 5.697-26.6 20.807-26.6 37.745v83.98c0 17.708 14.356 32.065 32.065 32.065h240.484c17.709 0 32.065-14.356 32.065-32.065v-83.98c-.001-16.938-10.649-32.048-26.601-37.745z" fill="#f6d190"/><path d="m206.389 332.444c9.745-3.481 18.259-10.18 23.974-18.865 1.369-2.08 3.569-3.373 5.741-3.373.383 0 .768.04 1.147.119 5.688 1.186 11.438 1.788 17.091 1.788 15.395 0 30.563-4.156 43.989-11.918-2.466-3.807-3.908-8.293-3.908-13.046v-23.133h-80.161v23.133c0 10.164-6.389 19.229-15.96 22.648l-69.666 24.881c-15.952 5.697-26.6 20.807-26.6 37.745v83.98c0 14.924 10.243 27.355 24.048 30.931v-3.314-111.597c0-6.758 4.276-12.825 10.64-15.098z" fill="#ecbd83"/><path d="m380.048 334.677-62.001-22.143c-14.645 19.199-37.694 31.643-63.705 31.643s-49.06-12.444-63.705-31.643l-62.002 22.143c-15.952 5.697-26.6 20.807-26.6 37.745v83.98c0 17.708 14.356 32.065 32.065 32.065h240.484c17.709 0 32.065-14.356 32.065-32.065v-83.98c-.001-16.938-10.649-32.048-26.601-37.745z" fill="#b3e59f"/><path d="m190.213 159.806v64.129c0 35.417 28.712 64.129 64.129 64.129s64.129-28.712 64.129-64.129v-64.129z" fill="#ffe09f"/><path d="m254.342 288.065c9.815 0 19.075-2.269 27.392-6.21l-18.382-2.298c-21.563-2.696-39.785-17.8-46.423-38.481-.806-2.513-1.004-6.869-.922-11.455.183-10.262 6.62-19.343 16.203-23.018 48.58-18.633 70.79-38.352 70.79-38.352l-9-8.444h-103.787v64.129c0 35.417 28.712 64.129 64.129 64.129z" fill="#f6d190"/><path d="m302.439 119.726h-24.049v40.081c24.048 32.065 56.113 48.097 56.113 48.097v-56.114c0-17.708-14.356-32.064-32.064-32.064z" fill="#785353"/><path d="m285.995 151.601c-47.647 41.156-111.815 48.286-111.815 48.286v-48.097c0-22.136 17.945-40.081 40.081-40.081h64.129c8.854 0 16.032 7.178 16.032 16.032v5.511c.001 7.045-3.096 13.745-8.427 18.349z" fill="#6e4848"/><path d="m205.44 332.783 4.972-1.776c-7.584-5.004-14.273-11.261-19.774-18.473l-62.002 22.143c-15.952 5.697-26.6 20.807-26.6 37.745v83.98c0 14.924 10.243 27.355 24.048 30.931v-3.314-111.596c0-6.758 4.276-12.825 10.64-15.098z" fill="#95d6a4"/><g fill="#ffe09f"><path d="m222.277 504.5h-24.048c-8.854 0-16.032-7.178-16.032-16.032v-32.065h40.081c8.854 0 16.032 7.178 16.032 16.032v16.032c0 8.855-7.178 16.033-16.033 16.033z"/><path d="m286.407 504.5h24.048c8.854 0 16.032-7.178 16.032-16.032v-32.065h-40.081c-8.854 0-16.032 7.178-16.032 16.032v16.032c0 8.855 7.178 16.033 16.033 16.033z"/></g></g><g><path d="m382.571 327.614-69.666-24.88c-6.569-2.346-10.983-8.609-10.983-15.584v-9.733c14.741-13.129 24.048-32.234 24.048-53.48v-11.66c3.462 1.73 5.63 2.551 5.941 2.666.841.31 1.718.462 2.59.462 1.514 0 3.015-.458 4.291-1.349 2.011-1.402 3.209-3.7 3.209-6.151v-56.113c0-21.816-17.749-39.565-39.564-39.565h-6.378c-4.316-4.909-10.635-8.016-17.67-8.016h-64.129c-26.236 0-47.581 21.345-47.581 47.581v48.097c0 2.174.943 4.241 2.586 5.666 1.373 1.19 3.121 1.834 4.914 1.834.353 0 .707-.025 1.061-.075.443-.063 3.058-.451 7.472-1.355v17.979c0 21.246 9.307 40.351 24.048 53.48v9.733c0 6.975-4.414 13.238-10.982 15.584l-69.666 24.88c-18.887 6.746-31.577 24.753-31.577 44.809v83.98c0 21.816 17.749 39.564 39.564 39.564h41.829c3.139 9.308 11.946 16.032 22.3 16.032h24.048c12.976 0 23.532-10.557 23.532-23.532v-16.032c0-12.976-10.557-23.532-23.532-23.532h-8.016c-4.142 0-7.5 3.358-7.5 7.5s3.358 7.5 7.5 7.5h8.016c4.705 0 8.532 3.828 8.532 8.532v16.032c0 4.705-3.828 8.532-8.532 8.532h-24.048c-4.705 0-8.532-3.828-8.532-8.532v-32.064c0-9.125 7.423-16.548 16.548-16.548 4.142 0 7.5-3.358 7.5-7.5s-3.358-7.5-7.5-7.5c-13.483 0-25.012 8.504-29.519 20.428l-18.809-9.405c-.176-.088-.285-.265-.285-.462v-51.158c0-4.142-3.358-7.5-7.5-7.5s-7.5 3.358-7.5 7.5v51.158c0 5.915 3.287 11.233 8.577 13.878l23.487 11.744v19.929h-40.595c-13.545 0-24.564-11.02-24.564-24.564v-83.98c0-13.733 8.689-26.063 21.622-30.683l56.935-20.333c4.082 4.709 8.648 8.984 13.635 12.731 1.35 1.015 2.931 1.504 4.5 1.504 2.278 0 4.528-1.034 6.002-2.995 2.488-3.312 1.821-8.013-1.491-10.501-2.592-1.948-5.049-4.067-7.357-6.338 10.935-5.029 18.153-15.969 18.359-28.125 9.787 5.026 20.864 7.882 32.602 7.882s22.815-2.856 32.602-7.882c.207 12.157 7.426 23.098 18.363 28.126-13.533 13.354-31.667 20.868-50.965 20.868-4.898 0-9.79-.489-14.541-1.454-4.057-.821-8.018 1.799-8.842 5.858s1.798 8.018 5.858 8.842c5.73 1.164 11.627 1.753 17.525 1.753 25.634 0 49.565-10.988 66.254-30.269l56.93 20.332c12.933 4.619 21.623 16.95 21.623 30.683v83.98c0 13.545-11.02 24.564-24.564 24.564h-40.597v-19.929l23.487-11.744c5.291-2.645 8.578-7.963 8.578-13.878v-51.158c0-4.142-3.358-7.5-7.5-7.5s-7.5 3.358-7.5 7.5v51.158c0 .197-.109.374-.286.462l-18.809 9.405c-4.507-11.924-16.036-20.428-29.519-20.428-4.142 0-7.5 3.358-7.5 7.5s3.358 7.5 7.5 7.5c9.125 0 16.548 7.423 16.548 16.548v32.064c0 4.705-3.828 8.532-8.532 8.532h-24.048c-4.705 0-8.532-3.828-8.532-8.532v-16.032c0-4.705 3.828-8.532 8.532-8.532h8.016c4.142 0 7.5-3.358 7.5-7.5s-3.358-7.5-7.5-7.5h-8.016c-12.976 0-23.532 10.557-23.532 23.532v16.032c0 12.976 10.557 23.532 23.532 23.532h24.048c10.353 0 19.16-6.724 22.3-16.032h41.83c21.816 0 39.564-17.749 39.564-39.564v-83.98c-.002-20.056-12.692-38.063-31.579-44.809zm-80.649-189.481v-10.392c0-.173-.009-.344-.013-.516h.529c13.545 0 24.564 11.02 24.564 24.565v43.932c-9.25-5.477-23.473-15.805-36.761-33.099 7.3-5.975 11.681-14.954 11.681-24.49zm-120.241 52.677v-39.019c0-17.965 14.616-32.581 32.581-32.581h64.129c4.705 0 8.532 3.828 8.532 8.532v10.392c0 5.936-3.243 11.482-8.462 14.475-42.685 24.473-80.457 34.635-96.78 38.201zm72.661 89.754c-31.225 0-56.629-25.404-56.629-56.629v-21.543c3.945-1.053 8.332-2.308 13.108-3.801l13.967 9.312-14.688 9.792c-3.447 2.297-4.378 6.954-2.08 10.4 1.445 2.168 3.823 3.341 6.247 3.341 1.43 0 2.875-.408 4.153-1.261l24.048-16.032c2.086-1.391 3.34-3.732 3.34-6.24s-1.253-4.85-3.34-6.24l-13.779-9.186c14.424-5.359 30.968-12.53 48.617-22.062 4.24 5.645 8.712 10.784 12.996 15.196l-24.089 16.053c-2.086 1.391-3.34 3.732-3.34 6.24s1.253 4.85 3.34 6.24l24.048 16.032c1.279.853 2.724 1.261 4.153 1.261 2.423 0 4.802-1.173 6.247-3.341 2.298-3.446 1.367-8.103-2.08-10.4l-14.688-9.792 17.733-11.811c3.26 2.717 6.401 5.1 9.343 7.161v20.682c.002 31.225-25.402 56.628-56.627 56.628z"/><path d="m262.674 62.605c.879.335 1.781.493 2.668.493 3.022 0 5.871-1.84 7.01-4.833l2.593-6.807h18.241l2.561 6.786c1.463 3.875 5.788 5.832 9.665 4.369 3.875-1.462 5.832-5.79 4.369-9.665l-17.635-46.73c-.026-.068-.052-.136-.08-.203-1.327-3.229-4.439-5.314-7.93-5.314-.002 0-.005 0-.007 0-3.494.002-6.606 2.094-7.929 5.328-.023.057-.046.113-.067.17l-17.797 46.728c-1.475 3.871.467 8.204 4.338 9.678zm24.851-26.146h-6.867l3.449-9.056z"/><path d="m206.245 62.396c4.142 0 7.5-3.358 7.5-7.5v-17.011h17.798v17.011c0 4.142 3.358 7.5 7.5 7.5s7.5-3.358 7.5-7.5v-47.396c0-4.142-3.358-7.5-7.5-7.5s-7.5 3.358-7.5 7.5v15.385h-17.798v-15.385c0-4.142-3.358-7.5-7.5-7.5s-7.5 3.358-7.5 7.5v47.396c0 4.142 3.358 7.5 7.5 7.5z"/><path d="m489.125 136.732-17.635-46.73c-.026-.07-.054-.139-.082-.208-1.329-3.227-4.44-5.31-7.929-5.31-.003 0-.006 0-.01 0-3.492.004-6.604 2.095-7.926 5.328-.023.057-.046.113-.067.17l-17.797 46.729c-1.474 3.871.468 8.204 4.339 9.678 3.872 1.476 8.204-.469 9.678-4.339l2.593-6.808h18.24l2.561 6.786c1.134 3.003 3.987 4.854 7.019 4.854.879 0 1.775-.156 2.646-.485 3.876-1.462 5.832-5.79 4.37-9.665zm-29.123-16.49 3.449-9.056 3.418 9.056z"/><path d="m385.589 146.179c4.142 0 7.5-3.358 7.5-7.5v-17.011h17.798v17.011c0 4.142 3.358 7.5 7.5 7.5s7.5-3.358 7.5-7.5v-47.396c0-4.142-3.358-7.5-7.5-7.5s-7.5 3.358-7.5 7.5v15.385h-17.798v-15.385c0-4.142-3.358-7.5-7.5-7.5s-7.5 3.358-7.5 7.5v47.396c0 4.142 3.358 7.5 7.5 7.5z"/><path d="m452.143 231.833c-.026-.07-.054-.139-.082-.208-1.329-3.227-4.44-5.31-7.929-5.31-.003 0-.006 0-.01 0-3.492.004-6.604 2.095-7.926 5.328-.023.057-.046.113-.067.17l-17.797 46.729c-1.474 3.871.468 8.204 4.339 9.678 3.871 1.476 8.204-.469 9.678-4.339l2.593-6.808h18.24l2.561 6.786c1.134 3.003 3.987 4.854 7.019 4.854.879 0 1.775-.156 2.646-.485 3.875-1.462 5.832-5.79 4.369-9.665zm-11.487 30.241 3.449-9.056 3.418 9.056z"/><path d="m366.243 288.011c4.142 0 7.5-3.358 7.5-7.5v-17.011h17.798v17.011c0 4.142 3.358 7.5 7.5 7.5s7.5-3.358 7.5-7.5v-47.396c0-4.142-3.358-7.5-7.5-7.5s-7.5 3.358-7.5 7.5v15.385h-17.798v-15.385c0-4.142-3.358-7.5-7.5-7.5s-7.5 3.358-7.5 7.5v47.396c0 4.142 3.357 7.5 7.5 7.5z"/><path d="m98.59 135.242h18.24l2.561 6.786c1.134 3.003 3.987 4.854 7.019 4.854.879 0 1.775-.156 2.646-.485 3.875-1.462 5.832-5.79 4.369-9.665l-17.635-46.73c-.026-.068-.053-.137-.081-.205-1.328-3.228-4.439-5.313-7.93-5.313-.003 0-.005 0-.008 0-3.494.003-6.605 2.094-7.928 5.328-.023.057-.046.113-.067.17l-17.796 46.728c-1.474 3.871.468 8.204 4.339 9.678 3.873 1.476 8.204-.469 9.678-4.339zm12.58-15h-6.867l3.449-9.056z"/><path d="m55.189 121.668v17.011c0 4.142 3.358 7.5 7.5 7.5s7.5-3.358 7.5-7.5v-47.396c0-4.142-3.358-7.5-7.5-7.5s-7.5 3.358-7.5 7.5v15.385h-17.799v-15.385c0-4.142-3.358-7.5-7.5-7.5s-7.5 3.358-7.5 7.5v47.396c0 4.142 3.358 7.5 7.5 7.5s7.5-3.358 7.5-7.5v-17.011z"/><path d="m131.819 226.316c-3.494.004-6.606 2.097-7.927 5.331-.022.055-.044.111-.066.167l-17.797 46.729c-1.474 3.871.468 8.204 4.339 9.678.878.334 1.781.493 2.668.493 3.022 0 5.871-1.84 7.01-4.833l2.593-6.808h18.241l2.561 6.786c1.462 3.875 5.787 5.833 9.665 4.369 3.875-1.463 5.832-5.79 4.369-9.665l-17.636-46.73c-.026-.069-.053-.137-.081-.205-1.328-3.229-4.439-5.313-7.93-5.313-.003.001-.006.001-.009.001zm-3.467 35.758 3.449-9.056 3.418 9.056z"/><path d="m86.737 225.615c-4.142 0-7.5 3.358-7.5 7.5v15.385h-17.799v-15.385c0-4.142-3.358-7.5-7.5-7.5s-7.5 3.358-7.5 7.5v47.396c0 4.142 3.358 7.5 7.5 7.5s7.5-3.358 7.5-7.5v-17.011h17.799v17.011c0 4.142 3.358 7.5 7.5 7.5s7.5-3.358 7.5-7.5v-47.396c0-4.142-3.358-7.5-7.5-7.5z"/></g></g></svg>