<?xml version="1.0" encoding="UTF-8"?>
<svg xmlns="http://www.w3.org/2000/svg" xmlns:xlink="http://www.w3.org/1999/xlink" version="1.1" id="Capa_1" x="0px" y="0px" viewBox="0 0 512 512" style="enable-background:new 0 0 512 512;" xml:space="preserve" width="512" height="512">
<g>
	<g>
		<path style="fill:#FF5F7A;" d="M304.991,165.27c3.324-3.028,3.324-8.259,0-11.286l-24.888-22.675&#10;&#9;&#9;&#9;c-2.205-2.009-3.038-5.117-2.133-7.96l10.215-32.081c1.364-4.284-1.251-8.814-5.643-9.774l-32.891-7.194&#10;&#9;&#9;&#9;c-2.914-0.637-5.19-2.913-5.827-5.827l-7.193-32.891c-0.961-4.392-5.49-7.008-9.774-5.643l-32.081,10.216&#10;&#9;&#9;&#9;c-2.842,0.905-5.951,0.072-7.96-2.133l-22.675-24.888c-3.028-3.324-8.259-3.324-11.287,0l-22.675,24.888&#10;&#9;&#9;&#9;c-2.009,2.204-5.117,3.038-7.96,2.133L90.138,29.938c-4.284-1.364-8.814,1.251-9.774,5.643L73.17,68.472&#10;&#9;&#9;&#9;c-0.637,2.914-2.913,5.19-5.827,5.827l-32.891,7.194c-4.392,0.96-7.008,5.49-5.643,9.774l10.216,32.081&#10;&#9;&#9;&#9;c0.905,2.842,0.072,5.951-2.133,7.96l-24.888,22.675c-3.324,3.028-3.324,8.258,0,11.286l24.888,22.675&#10;&#9;&#9;&#9;c2.204,2.009,3.038,5.118,2.133,7.96l-10.216,32.081c-1.364,4.284,1.251,8.814,5.643,9.774l32.891,7.193&#10;&#9;&#9;&#9;c2.914,0.637,5.19,2.913,5.827,5.827l7.194,32.891c0.96,4.392,5.49,7.008,9.774,5.643l32.081-10.215&#10;&#9;&#9;&#9;c2.842-0.905,5.951-0.072,7.96,2.133l22.675,24.888c3.028,3.324,8.258,3.324,11.287,0l21.248-35.317&#10;&#9;&#9;&#9;c2.009-2.205,5.118-3.038,7.96-2.133l33.508,20.644l61.329-61.329l-10.215-32.081c-0.905-2.842-0.072-5.951,2.133-7.96&#10;&#9;&#9;&#9;L304.991,165.27z"/>
		<path style="fill:#FB4455;" d="M228.361,264.654l-26.313-8.377c-11.734-3.731-24.661-0.273-32.933,8.822l-10.619,11.652&#10;&#9;&#9;&#9;l-10.619-11.656c-8.296-9.099-21.207-12.545-32.925-8.818l-15.016,4.783l-3.376-15.406c-2.627-12.015-12.092-21.472-24.099-24.099&#10;&#9;&#9;&#9;l-15.398-3.364l4.787-15.02c3.735-11.718,0.273-24.645-8.818-32.929l-11.656-10.615l11.656-10.615&#10;&#9;&#9;&#9;c9.083-8.284,12.545-21.199,8.818-32.902l-4.787-15.047l3.867-0.846c6.362-1.392,11.547-5.598,14.205-11.543&#10;&#9;&#9;&#9;c2.666-5.945,2.362-12.611-0.834-18.287l-1.116-1.985l-0.015,0.07c-0.637,2.914-2.914,5.19-5.828,5.827l-32.89,7.194&#10;&#9;&#9;&#9;c-4.393,0.96-7.008,5.49-5.644,9.774l10.216,32.081c0.904,2.842,0.071,5.951-2.133,7.96l-24.888,22.675&#10;&#9;&#9;&#9;c-3.323,3.028-3.323,8.258,0,11.286l24.888,22.675c2.204,2.009,3.038,5.118,2.133,7.96l-10.216,32.081&#10;&#9;&#9;&#9;c-1.364,4.284,1.25,8.814,5.644,9.774l32.89,7.193c2.914,0.637,5.191,2.913,5.828,5.827l7.193,32.891&#10;&#9;&#9;&#9;c0.96,4.392,5.49,7.008,9.774,5.643l32.081-10.215c2.843-0.905,5.952-0.072,7.96,2.133l22.675,24.888&#10;&#9;&#9;&#9;c3.028,3.324,8.258,3.324,11.287,0l22.674-24.888c2.01-2.205,5.118-3.038,7.96-2.133l32.081,10.215l9.978-9.977L228.361,264.654z"/>
		<path style="fill:#FFE077;" d="M350.728,190.624l23.713,26.027c2.101,2.306,5.352,3.177,8.324,2.23l33.549-10.683&#10;&#9;&#9;&#9;c4.48-1.427,9.217,1.308,10.222,5.902l7.523,34.396c0.666,3.047,3.046,5.427,6.094,6.094l34.396,7.523&#10;&#9;&#9;&#9;c4.593,1.005,7.328,5.741,5.902,10.222l-10.683,33.549c-0.946,2.972-0.075,6.223,2.23,8.324l26.026,23.713&#10;&#9;&#9;&#9;c3.476,3.167,3.476,8.636,0,11.803l-26.026,23.713c-2.306,2.101-3.177,5.352-2.23,8.324l10.683,33.549&#10;&#9;&#9;&#9;c1.427,4.48-1.308,9.217-5.902,10.222l-34.396,7.523c-3.047,0.666-5.427,3.046-6.094,6.094l-7.523,34.396&#10;&#9;&#9;&#9;c-1.005,4.593-5.741,7.328-10.222,5.902l-33.549-10.683c-2.972-0.946-6.223-0.075-8.324,2.23l-23.713,26.026&#10;&#9;&#9;&#9;c-3.167,3.476-8.636,3.476-11.803,0l-23.713-26.026c-2.101-2.306-5.352-3.177-8.324-2.23l-33.549,10.683&#10;&#9;&#9;&#9;c-4.48,1.427-9.217-1.308-10.222-5.902l-7.523-34.396c-0.666-3.047-3.046-5.427-6.094-6.094l-34.396-7.523&#10;&#9;&#9;&#9;c-4.593-1.005-7.328-5.741-5.902-10.222l10.683-33.549c0.946-2.972,0.075-6.223-2.23-8.324l-26.027-23.713&#10;&#9;&#9;&#9;c-3.476-3.167-3.476-8.636,0-11.803l26.027-23.713c2.306-2.101,3.177-5.352,2.23-8.324l-10.683-33.549&#10;&#9;&#9;&#9;c-1.427-4.48,1.308-9.217,5.902-10.222l34.396-7.523c3.047-0.666,5.427-3.046,6.094-6.094l7.523-34.396&#10;&#9;&#9;&#9;c1.005-4.593,5.741-7.328,10.222-5.902l33.549,10.683c2.972,0.946,6.223,0.075,8.324-2.23l23.713-26.027&#10;&#9;&#9;&#9;C342.092,187.149,347.561,187.149,350.728,190.624z"/>
		<path style="fill:#FFD05B;" d="M435.765,431.345c-12.88-2.811-25.697,5.38-28.52,18.283l-0.366,1.676l-16.841-5.36&#10;&#9;&#9;&#9;c-11.851-3.781-24.933-0.273-33.315,8.927l-11.898,13.059l-11.929-13.094c-8.241-9.021-21.628-12.619-33.276-8.896l-16.848,5.364&#10;&#9;&#9;&#9;l-3.789-17.277c-2.651-12.147-12.217-21.713-24.364-24.372l-17.277-3.777l5.364-16.837c3.774-11.851,0.281-24.926-8.919-33.311&#10;&#9;&#9;&#9;l-13.075-11.909l13.059-11.901c9.2-8.374,12.708-21.444,8.935-33.303l-5.364-16.852l1.684-0.366&#10;&#9;&#9;&#9;c6.245-1.368,11.586-5.087,15.04-10.471c3.454-5.387,4.6-11.796,3.228-18.045l-1.33-6.075l-0.369,1.688&#10;&#9;&#9;&#9;c-0.667,3.047-3.046,5.427-6.093,6.094l-34.396,7.523c-4.593,1.004-7.329,5.741-5.902,10.222l10.683,33.549&#10;&#9;&#9;&#9;c0.947,2.972,0.076,6.224-2.23,8.324l-26.027,23.713c-3.475,3.166-3.475,8.636,0,11.803l26.027,23.713&#10;&#9;&#9;&#9;c2.306,2.101,3.177,5.352,2.23,8.324l-10.683,33.549c-1.427,4.48,1.309,9.217,5.902,10.222l34.396,7.522&#10;&#9;&#9;&#9;c3.047,0.667,5.426,3.047,6.093,6.094l7.523,34.396c1.005,4.594,5.741,7.328,10.222,5.902l33.549-10.684&#10;&#9;&#9;&#9;c2.972-0.946,6.224-0.075,8.324,2.231l23.712,26.026c3.167,3.476,8.637,3.476,11.804,0l23.712-26.026&#10;&#9;&#9;&#9;c2.1-2.306,5.351-3.177,8.324-2.231l33.549,10.684c4.481,1.426,9.217-1.308,10.222-5.902l7.523-34.396&#10;&#9;&#9;&#9;c0.667-3.047,3.047-5.427,6.093-6.094l1.705-0.373L435.765,431.345z"/>
	</g>
	<g>
		
			<polyline style="fill:none;stroke:#000000;stroke-width:15;stroke-linecap:round;stroke-linejoin:round;stroke-miterlimit:10;" points="&#10;&#9;&#9;&#9;181.012,287.935 159.19,311.886 127.782,277.413 83.345,291.563 73.381,246.005 27.823,236.041 41.973,191.604 7.5,160.196 &#10;&#9;&#9;&#9;41.973,128.788 27.823,84.351 73.381,74.387 83.345,28.828 127.782,42.979 159.19,8.506 190.598,42.979 235.035,28.828 &#10;&#9;&#9;&#9;244.999,74.387 290.557,84.351 276.407,128.788 310.88,160.196 288.941,180.185 &#9;&#9;"/>
		<path style="fill:none;stroke:#000000;stroke-width:15;stroke-linecap:round;stroke-linejoin:round;stroke-miterlimit:10;" d="&#10;&#9;&#9;&#9;M157.327,195.453l22.198-58.284c0.454-1.109,2.023-1.111,2.479-0.003l21.996,58.286"/>
		
			<line style="fill:none;stroke:#000000;stroke-width:15;stroke-linecap:round;stroke-linejoin:round;stroke-miterlimit:10;" x1="164.25" y1="180.937" x2="197.19" y2="180.937"/>
		
			<line style="fill:none;stroke:#000000;stroke-width:15;stroke-linecap:round;stroke-linejoin:round;stroke-miterlimit:10;" x1="87.4" y1="135.462" x2="87.4" y2="194.579"/>
		
			<line style="fill:none;stroke:#000000;stroke-width:15;stroke-linecap:round;stroke-linejoin:round;stroke-miterlimit:10;" x1="128.31" y1="135.462" x2="128.31" y2="194.579"/>
		
			<line style="fill:none;stroke:#000000;stroke-width:15;stroke-linecap:round;stroke-linejoin:round;stroke-miterlimit:10;" x1="87.4" y1="164.007" x2="128.31" y2="164.007"/>
		<g>
			
				<line style="fill:none;stroke:#000000;stroke-width:15;stroke-linecap:round;stroke-linejoin:round;stroke-miterlimit:10;" x1="233.701" y1="170.914" x2="233.701" y2="134.649"/>
		</g>
		<g>
			
				<line style="fill:none;stroke:#000000;stroke-width:15;stroke-linecap:round;stroke-linejoin:round;stroke-miterlimit:10;" x1="233.701" y1="195.165" x2="233.701" y2="195.165"/>
		</g>
		
			<polygon style="fill:none;stroke:#000000;stroke-width:15;stroke-linecap:round;stroke-linejoin:round;stroke-miterlimit:10;" points="&#10;&#9;&#9;&#9;344.826,184.147 377.888,220.434 424.663,205.539 435.151,253.495 483.108,263.984 468.213,310.759 504.5,343.82 468.213,376.882 &#10;&#9;&#9;&#9;483.108,423.657 435.151,434.146 424.663,482.102 377.888,467.207 344.826,503.494 311.765,467.207 264.99,482.102 &#10;&#9;&#9;&#9;254.501,434.146 206.545,423.657 221.44,376.882 185.153,343.82 221.44,310.759 206.545,263.984 254.501,253.495 264.99,205.539 &#10;&#9;&#9;&#9;311.765,220.434 &#9;&#9;"/>
		<path style="fill:none;stroke:#000000;stroke-width:15;stroke-linecap:round;stroke-linejoin:round;stroke-miterlimit:10;" d="&#10;&#9;&#9;&#9;M342.963,379.078l22.198-58.284c0.454-1.109,2.023-1.111,2.479-0.003l21.996,58.286"/>
		
			<line style="fill:none;stroke:#000000;stroke-width:15;stroke-linecap:round;stroke-linejoin:round;stroke-miterlimit:10;" x1="349.886" y1="364.562" x2="382.826" y2="364.562"/>
		
			<line style="fill:none;stroke:#000000;stroke-width:15;stroke-linecap:round;stroke-linejoin:round;stroke-miterlimit:10;" x1="273.037" y1="319.087" x2="273.037" y2="378.204"/>
		
			<line style="fill:none;stroke:#000000;stroke-width:15;stroke-linecap:round;stroke-linejoin:round;stroke-miterlimit:10;" x1="313.946" y1="319.087" x2="313.946" y2="378.204"/>
		
			<line style="fill:none;stroke:#000000;stroke-width:15;stroke-linecap:round;stroke-linejoin:round;stroke-miterlimit:10;" x1="273.037" y1="347.632" x2="313.946" y2="347.632"/>
		<g>
			
				<line style="fill:none;stroke:#000000;stroke-width:15;stroke-linecap:round;stroke-linejoin:round;stroke-miterlimit:10;" x1="419.337" y1="354.539" x2="419.337" y2="318.274"/>
		</g>
		<g>
			
				<line style="fill:none;stroke:#000000;stroke-width:15;stroke-linecap:round;stroke-linejoin:round;stroke-miterlimit:10;" x1="419.337" y1="378.79" x2="419.337" y2="378.79"/>
		</g>
	</g>
</g>















</svg>
