<?xml version="1.0" encoding="UTF-8" standalone="no"?>
<!-- Created with Inkscape (http://www.inkscape.org/) -->

<svg
   version="1.1"
   id="svg1578"
   xml:space="preserve"
   width="682.66669"
   height="682.66669"
   viewBox="0 0 682.66669 682.66669"
   xmlns="http://www.w3.org/2000/svg"
   xmlns:svg="http://www.w3.org/2000/svg"><defs
     id="defs1582"><clipPath
       clipPathUnits="userSpaceOnUse"
       id="clipPath1592"><path
         d="M 0,512 H 512 V 0 H 0 Z"
         id="path1590" /></clipPath><clipPath
       clipPathUnits="userSpaceOnUse"
       id="clipPath1736"><path
         d="M 0,512 H 512 V 0 H 0 Z"
         id="path1734" /></clipPath></defs><g
     id="g1584"
     transform="matrix(1.3333333,0,0,-1.3333333,0,682.66667)"><g
       id="g1586"><g
         id="g1588"
         clip-path="url(#clipPath1592)"><g
           id="g1594"
           transform="translate(269.6699,159.0195)"><path
             d="m 0,0 c -6.959,18.212 18.078,31.117 28.877,14.885 1.338,-2.01 2.475,-4.199 3.373,-6.549 6.524,-17.077 -2.029,-36.21 -19.105,-42.735"
             style="fill:none;stroke:#000000;stroke-width:15;stroke-linecap:butt;stroke-linejoin:round;stroke-miterlimit:10;stroke-dasharray:none;stroke-opacity:1"
             id="path1596" /></g><g
           id="g1598"
           transform="translate(84.9248,49.0063)"><path
             d="m 0,0 v 0 c -17.076,-6.525 -36.209,2.029 -42.734,19.105 -0.899,2.351 -1.511,4.74 -1.855,7.13 -2.776,19.297 24.486,26.376 31.445,8.164"
             style="fill:none;stroke:#000000;stroke-width:15;stroke-linecap:butt;stroke-linejoin:round;stroke-miterlimit:10;stroke-dasharray:none;stroke-opacity:1"
             id="path1600" /></g><g
           id="g1602"
           transform="translate(257.7021,190.3362)"><path
             d="m 0,0 c -40.464,-8.943 -71.596,31.401 -71.596,31.401 -18.865,-42.198 -76.431,-81.444 -125.75,-108.437 l 18.73,-49.017 c 15.217,-39.825 59.847,-59.777 99.672,-44.56 l 53.657,20.502 c 39.832,15.22 59.777,59.848 44.56,99.672 z"
             style="fill:none;stroke:#000000;stroke-width:15;stroke-linecap:round;stroke-linejoin:round;stroke-miterlimit:10;stroke-dasharray:none;stroke-opacity:1"
             id="path1604" /></g><g
           id="g1606"
           transform="translate(275.4707,218.3237)"><path
             d="M 0,0 C 1.99,-11.34 3.55,-23.92 4.601,-37.85"
             style="fill:none;stroke:#000000;stroke-width:15;stroke-linecap:round;stroke-linejoin:round;stroke-miterlimit:10;stroke-dasharray:none;stroke-opacity:1"
             id="path1608" /></g><g
           id="g1610"
           transform="translate(16.4902,156.4199)"><path
             d="m 0,0 c -13.03,33.79 -15.75,72.99 18.479,106.88 46.401,45.94 113.861,41.06 113.861,41.06 0,0 34.599,21.54 68.479,9.33"
             style="fill:none;stroke:#000000;stroke-width:15;stroke-linecap:round;stroke-linejoin:round;stroke-miterlimit:10;stroke-dasharray:none;stroke-opacity:1"
             id="path1612" /></g><g
           id="g1614"
           transform="translate(52.4102,93.3799)"><path
             d="M 0,0 C -6.36,9.26 -15.021,21.64 -23.03,35.97"
             style="fill:none;stroke:#000000;stroke-width:15;stroke-linecap:round;stroke-linejoin:round;stroke-miterlimit:10;stroke-dasharray:none;stroke-opacity:1"
             id="path1616" /></g><g
           id="g1618"
           transform="translate(164.0996,109.6553)"><path
             d="M 0,0 19.271,7.363"
             style="fill:none;stroke:#000000;stroke-width:12;stroke-linecap:round;stroke-linejoin:round;stroke-miterlimit:10;stroke-dasharray:none;stroke-opacity:1"
             id="path1620" /></g><g
           id="g1622"
           transform="translate(149.2471,79.6692)"><path
             d="m 0,0 c 6.878,-18 27.046,-27.017 45.046,-20.139 18,6.878 27.017,27.046 20.139,45.046 z"
             style="fill:none;stroke:#000000;stroke-width:12;stroke-linecap:round;stroke-linejoin:round;stroke-miterlimit:10;stroke-dasharray:none;stroke-opacity:1"
             id="path1624" /></g><g
           id="g1626"
           transform="translate(134.7656,110.4243)"><path
             d="M 0,0 C -12.049,5.387 -26.185,-0.014 -31.571,-12.064"
             style="fill:none;stroke:#000000;stroke-width:12;stroke-linecap:round;stroke-linejoin:round;stroke-miterlimit:10;stroke-dasharray:none;stroke-opacity:1"
             id="path1628" /></g><g
           id="g1630"
           transform="translate(236.2891,149.2166)"><path
             d="M 0,0 C -12.05,5.387 -26.186,-0.014 -31.572,-12.064"
             style="fill:none;stroke:#000000;stroke-width:12;stroke-linecap:round;stroke-linejoin:round;stroke-miterlimit:10;stroke-dasharray:none;stroke-opacity:1"
             id="path1632" /></g><g
           id="g1634"
           transform="translate(448.9795,258.9055)"><path
             d="m 0,0 c 6.503,18.38 33.935,11.982 31.639,-7.378 -0.285,-2.398 -0.837,-4.802 -1.676,-7.174 H 29.962 C 23.864,-31.786 4.95,-40.813 -12.283,-34.715"
             style="fill:none;stroke:#000000;stroke-width:15;stroke-linecap:butt;stroke-linejoin:round;stroke-miterlimit:10;stroke-dasharray:none;stroke-opacity:1"
             id="path1636" /></g><g
           id="g1638"
           transform="translate(236.9854,294.8542)"><path
             d="m 0,0 v 0 c -17.233,6.098 -26.261,25.012 -20.163,42.246 v 0 c 0.839,2.372 1.921,4.588 3.208,6.631 10.392,16.496 35.742,4.218 29.239,-14.162"
             style="fill:none;stroke:#000000;stroke-width:15;stroke-linecap:butt;stroke-linejoin:round;stroke-miterlimit:10;stroke-dasharray:none;stroke-opacity:1"
             id="path1640" /></g><g
           id="g1642"
           transform="translate(336.5879,289.7302)"><path
             d="M 0,0 19.448,-6.881"
             style="fill:none;stroke:#000000;stroke-width:12;stroke-linecap:round;stroke-linejoin:round;stroke-miterlimit:10;stroke-dasharray:none;stroke-opacity:1"
             id="path1644" /></g><g
           id="g1646"
           transform="translate(272.0449,393.9429)"><path
             d="m 0,0 -29.605,-83.67 c -14.221,-40.191 6.836,-84.311 47.027,-98.531 l 54.151,-19.161 c 40.198,-14.223 84.311,6.837 98.531,47.028 l 29.606,83.67"
             style="fill:none;stroke:#000000;stroke-width:15;stroke-linecap:round;stroke-linejoin:round;stroke-miterlimit:10;stroke-dasharray:none;stroke-opacity:1"
             id="path1648" /></g><g
           id="g1650"
           transform="translate(474.5303,445.3999)"><path
             d="M 0,0 15.56,-5.51 C 26.81,-9.49 32.71,-21.84 28.729,-33.09 L 9.41,-87.68 4,-102.99 -12.25,-148.91 c -11.42,4.04 -17.391,16.56 -13.36,27.98 l 8.94,25.25 -158.38,56.05 -8.94,-25.26 c -3.18,-8.99 -11.64,-14.61 -20.66,-14.61 -2.43,0 -4.89,0.4 -7.31,1.26 l 16.239,45.92 5.421,15.3 19.32,54.59 c 3.98,11.25 16.33,17.15 27.58,13.17 L -28.28,10"
             style="fill:none;stroke:#000000;stroke-width:15;stroke-linecap:round;stroke-linejoin:round;stroke-miterlimit:10;stroke-dasharray:none;stroke-opacity:1"
             id="path1652" /></g><g
           id="g1654"
           transform="translate(305.8428,276.52)"><path
             d="m 0,0 c -6.428,-18.166 3.088,-38.103 21.254,-44.531 18.166,-6.427 38.103,3.088 44.531,21.254 z"
             style="fill:none;stroke:#000000;stroke-width:12;stroke-linecap:round;stroke-linejoin:round;stroke-miterlimit:10;stroke-dasharray:none;stroke-opacity:1"
             id="path1656" /></g><g
           id="g1658"
           transform="translate(314.7471,309.3269)"><path
             d="M 0,0 C -5.686,11.912 -19.951,16.959 -31.862,11.274"
             style="fill:none;stroke:#000000;stroke-width:12;stroke-linecap:round;stroke-linejoin:round;stroke-miterlimit:10;stroke-dasharray:none;stroke-opacity:1"
             id="path1660" /></g><g
           id="g1662"
           transform="translate(417.2041,273.0742)"><path
             d="M 0,0 C -5.686,11.912 -19.951,16.959 -31.862,11.274"
             style="fill:none;stroke:#000000;stroke-width:12;stroke-linecap:round;stroke-linejoin:round;stroke-miterlimit:10;stroke-dasharray:none;stroke-opacity:1"
             id="path1664" /></g><g
           id="g1666"
           transform="translate(213.2402,419.7683)"><path
             d="M 0,0 -19.962,22.298"
             style="fill:none;stroke:#000000;stroke-width:15;stroke-linecap:round;stroke-linejoin:round;stroke-miterlimit:10;stroke-dasharray:none;stroke-opacity:1"
             id="path1668" /></g><g
           id="g1670"
           transform="translate(235.5068,432.991)"><path
             d="M 0,0 -6.943,21.579"
             style="fill:none;stroke:#000000;stroke-width:15;stroke-linecap:round;stroke-linejoin:round;stroke-miterlimit:10;stroke-dasharray:none;stroke-opacity:1"
             id="path1672" /></g><g
           id="g1674"
           transform="translate(197.6445,399.0952)"><path
             d="M 0,0 -20.682,9.278"
             style="fill:none;stroke:#000000;stroke-width:15;stroke-linecap:round;stroke-linejoin:round;stroke-miterlimit:10;stroke-dasharray:none;stroke-opacity:1"
             id="path1676" /></g><g
           id="g1678"
           transform="translate(316.4766,62.2747)"><path
             d="M 0,0 24.819,-16.724"
             style="fill:none;stroke:#000000;stroke-width:15;stroke-linecap:round;stroke-linejoin:round;stroke-miterlimit:10;stroke-dasharray:none;stroke-opacity:1"
             id="path1680" /></g><g
           id="g1682"
           transform="translate(298.1318,43.9971)"><path
             d="M 0,0 12.021,-19.218"
             style="fill:none;stroke:#000000;stroke-width:15;stroke-linecap:round;stroke-linejoin:round;stroke-miterlimit:10;stroke-dasharray:none;stroke-opacity:1"
             id="path1684" /></g><g
           id="g1686"
           transform="translate(326.5283,86.1401)"><path
             d="M 0,0 22.325,-3.925"
             style="fill:none;stroke:#000000;stroke-width:15;stroke-linecap:round;stroke-linejoin:round;stroke-miterlimit:10;stroke-dasharray:none;stroke-opacity:1"
             id="path1688" /></g><g
           id="g1690"
           transform="translate(93.7803,345.1208)"><path
             d="m 0,0 12.1,73.898 c 0.266,1.414 2.113,1.793 2.916,0.599 L 54.903,11.221"
             style="fill:none;stroke:#000000;stroke-width:15;stroke-linecap:round;stroke-linejoin:round;stroke-miterlimit:10;stroke-dasharray:none;stroke-opacity:1"
             id="path1692" /></g><g
           id="g1694"
           transform="translate(98.4336,363.8606)"><path
             d="M 0,0 38.748,7.919"
             style="fill:none;stroke:#000000;stroke-width:15;stroke-linecap:round;stroke-linejoin:round;stroke-miterlimit:10;stroke-dasharray:none;stroke-opacity:1"
             id="path1696" /></g><g
           id="g1698"
           transform="translate(10.3086,401.1187)"><path
             d="M 0,0 14.213,-69.541"
             style="fill:none;stroke:#000000;stroke-width:15;stroke-linecap:round;stroke-linejoin:round;stroke-miterlimit:10;stroke-dasharray:none;stroke-opacity:1"
             id="path1700" /></g><g
           id="g1702"
           transform="translate(58.4316,410.9541)"><path
             d="M 0,0 14.213,-69.541"
             style="fill:none;stroke:#000000;stroke-width:15;stroke-linecap:round;stroke-linejoin:round;stroke-miterlimit:10;stroke-dasharray:none;stroke-opacity:1"
             id="path1704" /></g><g
           id="g1706"
           transform="translate(17.1709,367.5408)"><path
             d="M 0,0 48.124,9.835"
             style="fill:none;stroke:#000000;stroke-width:15;stroke-linecap:round;stroke-linejoin:round;stroke-miterlimit:10;stroke-dasharray:none;stroke-opacity:1"
             id="path1708" /></g><g
           id="g1710"
           transform="translate(440.2041,83.5347)"><path
             d="m 0,0 43.758,49.367 c 0.863,0.927 2.417,0.342 2.454,-0.925 L 46.18,-17.453"
             style="fill:none;stroke:#000000;stroke-width:15;stroke-linecap:round;stroke-linejoin:round;stroke-miterlimit:10;stroke-dasharray:none;stroke-opacity:1"
             id="path1712" /></g><g
           id="g1714"
           transform="translate(452.4814,95.3083)"><path
             d="M 0,0 32.592,-12.317"
             style="fill:none;stroke:#000000;stroke-width:15;stroke-linecap:round;stroke-linejoin:round;stroke-miterlimit:10;stroke-dasharray:none;stroke-opacity:1"
             id="path1716" /></g><g
           id="g1718"
           transform="translate(404.3437,164.4978)"><path
             d="M 0,0 -22.105,-58.491"
             style="fill:none;stroke:#000000;stroke-width:15;stroke-linecap:round;stroke-linejoin:round;stroke-miterlimit:10;stroke-dasharray:none;stroke-opacity:1"
             id="path1720" /></g><g
           id="g1722"
           transform="translate(444.8203,149.2004)"><path
             d="M 0,0 -22.105,-58.491"
             style="fill:none;stroke:#000000;stroke-width:15;stroke-linecap:round;stroke-linejoin:round;stroke-miterlimit:10;stroke-dasharray:none;stroke-opacity:1"
             id="path1724" /></g><g
           id="g1726"
           transform="translate(393.6699,136.2554)"><path
             d="M 0,0 40.477,-15.298"
             style="fill:none;stroke:#000000;stroke-width:15;stroke-linecap:round;stroke-linejoin:round;stroke-miterlimit:10;stroke-dasharray:none;stroke-opacity:1"
             id="path1728" /></g></g></g><g
       id="g1730"><g
         id="g1732"
         clip-path="url(#clipPath1736)"><g
           id="g1738"
           transform="translate(-259.6426,109.0327)"><path
             d="m 0,0 c -8.629,35.758 -29.66,116.488 39.537,147.016 53.252,23.493 107.866,-2.036 107.866,-2.036 0,0 120.037,23.323 69.855,-144.902"
             style="fill:none;stroke:#000000;stroke-width:15;stroke-linecap:round;stroke-linejoin:round;stroke-miterlimit:10;stroke-dasharray:none;stroke-opacity:1"
             id="path1740" /></g></g></g></g></svg>
