<svg id="Capa_1" enable-background="new 0 0 512 512" height="512" viewBox="0 0 512 512" width="512" xmlns="http://www.w3.org/2000/svg"><g><g><path d="m501.98 204.51-43.959 46.305 38.428 54.533-59.762 16.383 13.581 66.901-61.699-10.383-7.958 67.372-56.238-31.052-25.705 61.262-46.454-46.941-40.643 50.278-32.267-59.389-53.339 33.213-12.131-67.189-61.434 7.669 15.463-65.228-57.843-26.1 43.959-46.305-38.428-54.533 59.762-16.384-13.581-66.9 61.699 10.383 7.958-67.373 56.238 31.053 25.705-61.263 46.454 46.942 40.643-50.279 32.267 59.39 53.339-33.214 12.131 67.189 61.434-7.668-15.463 65.227z" fill="#fff2a0"/></g><g><path d="m511.812 202.581c-.625-3.184-2.753-5.869-5.711-7.204l-50.308-22.701 13.557-57.183c.757-3.194-.098-6.557-2.291-9.001-2.192-2.445-5.444-3.66-8.7-3.252l-52.019 6.493-10.445-57.852c-.59-3.268-2.761-6.031-5.796-7.378s-6.54-1.102-9.36.653l-44.314 27.594-27.192-50.048c-1.598-2.941-4.56-4.89-7.893-5.195-3.328-.301-6.598 1.076-8.703 3.679l-33.604 41.572-38.578-38.984c-2.355-2.38-5.744-3.425-9.028-2.789-3.286.637-6.037 2.873-7.333 5.96l-21.389 50.975-46.473-25.66c-2.92-1.613-6.452-1.665-9.42-.142-2.968 1.524-4.982 4.425-5.374 7.738l-6.723 56.92-51.321-8.636c-3.255-.547-6.571.543-8.866 2.916-2.294 2.373-3.273 5.724-2.616 8.958l11.718 57.721-50.729 13.907c-3.148.863-5.678 3.205-6.781 6.277s-.64 6.489 1.24 9.157l33.697 47.819-38.304 40.35c-2.234 2.353-3.19 5.643-2.566 8.827.625 3.184 2.753 5.869 5.711 7.204l50.308 22.701-13.556 57.183c-.757 3.194.098 6.557 2.291 9.001 2.192 2.444 5.442 3.659 8.7 3.252l52.019-6.493 10.445 57.852c.59 3.268 2.761 6.031 5.796 7.378s6.54 1.102 9.36-.653l44.315-27.594 27.192 50.048c3.35 6.164 12.182 6.977 16.596 1.515l33.604-41.572 38.578 38.984c2.355 2.379 5.742 3.427 9.028 2.789 3.286-.637 6.037-2.873 7.333-5.96l21.389-50.975 46.473 25.66c2.921 1.613 6.453 1.666 9.42.142 2.968-1.524 4.982-4.425 5.374-7.738l6.723-56.92 51.321 8.637c3.256.548 6.57-.543 8.866-2.916 2.294-2.373 3.273-5.724 2.616-8.958l-11.718-57.72 50.729-13.907c3.148-.863 5.678-3.205 6.781-6.277s.64-6.489-1.24-9.157l-33.697-47.819 38.304-40.349c2.233-2.355 3.189-5.645 2.564-8.829zm-61.057 41.335c-3.288 3.463-3.675 8.766-.924 12.67l30.21 42.871-46.003 12.612c-5.085 1.394-8.219 6.49-7.17 11.657l10.68 52.605-47.316-7.962c-2.705-.454-5.478.218-7.673 1.864-2.195 1.645-3.619 4.118-3.941 6.842l-6.21 52.573-43.193-23.849c-2.489-1.374-5.446-1.626-8.133-.693-2.686.934-4.849 2.965-5.95 5.588l-19.899 47.425-35.899-36.276c-2.005-2.026-4.776-3.099-7.624-2.959-2.847.143-5.498 1.492-7.29 3.708l-31.21 38.61-25.104-46.205c-1.318-2.426-3.578-4.2-6.247-4.905-.842-.222-1.702-.332-2.557-.332-1.856 0-3.693.516-5.296 1.514l-40.806 25.409-9.508-52.659c-.946-5.238-5.82-8.825-11.101-8.162l-47.115 5.881 12.135-51.186c1.107-4.67-1.253-9.47-5.629-11.444l-44.986-20.299 34.248-36.075c3.288-3.463 3.675-8.766.924-12.67l-30.21-42.87 46.003-12.612c5.085-1.394 8.219-6.49 7.17-11.657l-10.68-52.606 47.316 7.962c2.705.454 5.478-.218 7.673-1.863s3.619-4.118 3.941-6.842l6.21-52.573 43.193 23.849c2.489 1.374 5.446 1.626 8.133.693 2.686-.934 4.849-2.965 5.95-5.588l19.899-47.425 35.899 36.276c2.005 2.025 4.781 3.101 7.624 2.959 2.847-.143 5.498-1.492 7.29-3.708l31.21-38.61 25.104 46.205c1.318 2.426 3.578 4.2 6.247 4.905 2.67.704 5.51.276 7.853-1.182l40.806-25.409 9.508 52.659c.946 5.237 5.819 8.825 11.101 8.162l47.115-5.881-12.135 51.186c-1.107 4.67 1.253 9.47 5.629 11.444l44.986 20.299z"/><path d="m296.245 219.43c2.93 4.695 9.112 6.125 13.805 3.196 4.695-2.93 6.126-9.11 3.196-13.805l-44.729-71.68c-.052-.084-.106-.166-.16-.248-2.672-4.014-7.456-5.998-12.182-5.046-4.728.949-8.375 4.622-9.292 9.356-.015.08-.03.16-.044.239l-14.049 83.41c-.895 5.315 2.732 10.505 8.023 11.508 5.438 1.031 10.819-2.723 11.738-8.179l2.352-13.964 33.871-6.761zm-37.781-26.358 4.534-26.921 14.436 23.134z"/><path d="m197.233 235.587c1.099 5.504 6.714 9.09 12.172 7.78 5.163-1.239 8.519-6.498 7.48-11.703l-8.116-40.659v-.001-.001l-7.578-37.963c-1.083-5.427-6.359-8.948-11.787-7.864-5.427 1.083-8.948 6.361-7.864 11.787l5.617 28.138-34.757 6.938-5.617-28.138c-1.083-5.427-6.363-8.948-11.787-7.864-5.427 1.083-8.948 6.361-7.864 11.787l7.578 37.961v.003c0 .001.001.002.001.004l8.116 40.657c1.099 5.504 6.714 9.09 12.172 7.78 5.163-1.24 8.519-6.498 7.48-11.703l-6.155-30.835 34.757-6.938z"/><path d="m376.465 269.119c-5.499-.633-10.47 3.31-11.104 8.807-.633 5.497 3.311 10.466 8.811 11.099 5.499.633 10.471-3.31 11.104-8.807.634-5.497-3.311-10.466-8.811-11.099z"/><path d="m58.468 47.462c5.499.633 10.471-3.31 11.104-8.807s-3.312-10.466-8.811-11.099-10.47 3.31-11.104 8.807 3.311 10.466 8.811 11.099z"/><path d="m477.744 76.407c5.499.633 10.471-3.31 11.104-8.807s-3.312-10.466-8.811-11.099-10.47 3.31-11.104 8.807c-.632 5.497 3.312 10.467 8.811 11.099z"/><path d="m440.986 37.438c5.499.633 10.471-3.31 11.104-8.807s-3.312-10.466-8.811-11.099-10.47 3.31-11.104 8.807c-.633 5.497 3.312 10.466 8.811 11.099z"/><path d="m57.647 429.897c-5.497-.633-10.466 3.31-11.099 8.807s3.31 10.466 8.807 11.099 10.466-3.31 11.099-8.807-3.31-10.466-8.807-11.099z"/><path d="m407.188 469.216c-5.499-.633-10.47 3.31-11.104 8.807-.633 5.497 3.311 10.466 8.811 11.099 5.499.633 10.471-3.31 11.104-8.807.633-5.498-3.311-10.467-8.811-11.099z"/><path d="m77.695 474.562c-5.499-.633-10.47 3.31-11.104 8.807-.633 5.497 3.311 10.466 8.811 11.099 5.499.633 10.471-3.31 11.104-8.807s-3.312-10.466-8.811-11.099z"/><path d="m476.695 419.873c-5.499-.633-10.47 3.31-11.104 8.807-.633 5.497 3.312 10.466 8.811 11.099s10.471-3.31 11.104-8.807c.634-5.497-3.311-10.466-8.811-11.099z"/><path d="m388.07 161.457c-5.509-.628-10.468 3.311-11.1 8.808l-7.24 62.88c-.624 5.423 3.384 10.476 8.808 11.1 5.423.624 10.476-3.385 11.1-8.808l7.24-62.88c.633-5.498-3.311-10.467-8.808-11.1z"/><path d="m325.216 288.699c-.03-.094-.062-.188-.094-.281-1.607-4.546-5.757-7.637-10.573-7.877-4.816-.241-9.251 2.426-11.301 6.79-.035.074-.069.149-.102.225l-34.066 77.421c-2.228 5.065.071 10.978 5.136 13.206 5.064 2.228 10.977-.07 13.206-5.136l5.703-12.961 34.495 1.748 4.309 13.44c1.739 5.426 7.84 8.323 13.154 6.285 4.888-1.875 7.524-7.425 5.928-12.402zm-23.456 51.76 10.995-24.988 8.325 25.967z"/><path d="m246.546 277.096c-5.532-.281-10.233 3.973-10.514 9.5l-1.452 28.656-35.397-1.794 1.452-28.656c.28-5.526-3.973-10.233-9.5-10.514-5.543-.279-10.233 3.973-10.514 9.5l-1.959 38.661v.002s0 .001 0 .002l-2.098 41.407c-.276 5.452 4.048 10.238 9.5 10.514s10.237-4.047 10.514-9.5l1.591-31.402 35.397 1.794-1.591 31.403c-.276 5.452 4.048 10.238 9.5 10.514s10.237-4.047 10.514-9.5l2.098-41.402c0-.003.001-.005.001-.008s0-.005 0-.008l1.958-38.655c.28-5.527-3.973-10.234-9.5-10.514z"/></g></g></svg>