<?xml version="1.0" encoding="UTF-8"?>
<svg xmlns="http://www.w3.org/2000/svg" xmlns:xlink="http://www.w3.org/1999/xlink" version="1.1" id="Capa_1" x="0px" y="0px" viewBox="0 0 511.998 511.998" style="enable-background:new 0 0 511.998 511.998;" xml:space="preserve" width="512" height="512">
<g>
	<g>
		<g>
			<path style="fill:#7A8C98;" d="M143.804,20.187L22.016,66.113C10.429,70.482,4.579,83.417,8.948,95.004l46,121.986&#10;&#9;&#9;&#9;&#9;l163.747-61.749l-46-121.986C168.326,21.668,155.391,15.818,143.804,20.187z"/>
			<path style="fill:#596C76;" d="M67.402,48.999c-11.589,4.37-17.434,17.311-13.068,28.889l46.002,121.988l-45.386,17.115&#10;&#9;&#9;&#9;&#9;L8.948,95.004c-4.366-11.579,1.479-24.519,13.068-28.889L67.402,48.999z"/>
			<path style="fill:none;stroke:#000000;stroke-width:15;stroke-linecap:round;stroke-linejoin:round;stroke-miterlimit:10;" d="&#10;&#9;&#9;&#9;&#9;M83.769,42.817l60.03-22.63c11.59-4.37,24.52,1.49,28.89,13.06l39.57,104.95"/>
			<path style="fill:none;stroke:#000000;stroke-width:15;stroke-linecap:round;stroke-linejoin:round;stroke-miterlimit:10;" d="&#10;&#9;&#9;&#9;&#9;M51.019,55.167l-29.01,10.94c-11.58,4.37-17.43,17.31-13.06,28.89l39.66,105.19l6.34,16.8"/>
			<path style="fill:#D78878;" d="M239.834,178.495L55.015,248.19c-12.189,4.597-25.797-1.559-30.393-13.748l0,0&#10;&#9;&#9;&#9;&#9;c-4.597-12.189,1.559-25.797,13.748-30.393l184.819-69.695c12.189-4.597,25.797,1.559,30.393,13.748l0,0&#10;&#9;&#9;&#9;&#9;C258.179,160.291,252.024,173.899,239.834,178.495z"/>
			<path style="fill:none;stroke:#000000;stroke-width:15;stroke-linecap:round;stroke-linejoin:round;stroke-miterlimit:10;" d="&#10;&#9;&#9;&#9;&#9;M212.944,138.217l10.247-3.864c12.184-4.594,25.795,1.562,30.39,13.746c2.301,6.102,1.91,12.551-0.577,18.051&#10;&#9;&#9;&#9;&#9;c-2.488,5.5-7.073,10.052-13.165,12.349l-10.832,4.085"/>
			<path style="fill:none;stroke:#000000;stroke-width:15;stroke-linecap:round;stroke-linejoin:round;stroke-miterlimit:10;" d="&#10;&#9;&#9;&#9;&#9;M48.616,200.185l-10.247,3.864c-6.092,2.297-10.677,6.849-13.165,12.349c-2.488,5.5-2.878,11.949-0.581,18.041&#10;&#9;&#9;&#9;&#9;c4.598,12.194,18.21,18.351,30.393,13.756l10.832-4.085"/>
			<path style="fill:#EB9C8D;" d="M212.94,138.216l12.939,34.312c17.111,45.376-5.797,96.04-51.173,113.151&#10;&#9;&#9;&#9;&#9;c-45.386,17.115-96.044-5.807-113.155-51.183l-12.939-34.312l3.646-3.437c6.298-5.935,10.515-13.481,12.387-21.56&#10;&#9;&#9;&#9;&#9;c1.862-8.075,1.397-16.701-1.66-24.81c-1.932-5.124,0.74-10.716,5.672-12.576c0.514-0.194,1.044-0.348,1.603-0.455&#10;&#9;&#9;&#9;&#9;c14.969-2.891,29.626-7.036,43.837-12.395c14.211-5.359,27.955-11.924,41.096-19.633c0.49-0.289,0.989-0.523,1.504-0.717&#10;&#9;&#9;&#9;&#9;c4.932-1.86,10.641,0.572,12.574,5.696c6.112,16.208,21.356,27.152,38.664,27.745L212.94,138.216z"/>
			<path style="fill:#D78878;" d="M196.2,273.945c-6.432,4.787-13.628,8.768-21.495,11.735&#10;&#9;&#9;&#9;&#9;c-45.386,17.115-96.044-5.807-113.155-51.184l-12.939-34.312l3.646-3.437c6.298-5.935,10.515-13.481,12.387-21.56&#10;&#9;&#9;&#9;&#9;c1.862-8.075,1.397-16.701-1.66-24.81c-1.932-5.124,0.74-10.716,5.672-12.576c0.514-0.194,1.044-0.348,1.603-0.455&#10;&#9;&#9;&#9;&#9;c2.018-0.392,4.028-0.805,6.031-1.237l30.647,81.272C121.081,254.89,158.146,277.052,196.2,273.945z"/>
			<path style="fill:none;stroke:#000000;stroke-width:15;stroke-linecap:round;stroke-linejoin:round;stroke-miterlimit:10;" d="&#10;&#9;&#9;&#9;&#9;M212.94,138.216l12.939,34.312c17.111,45.376-5.797,96.04-51.173,113.151c-45.386,17.115-96.044-5.807-113.155-51.183&#10;&#9;&#9;&#9;&#9;l-12.939-34.312l3.646-3.437c6.298-5.935,10.515-13.481,12.387-21.56c1.862-8.075,1.397-16.701-1.66-24.81&#10;&#9;&#9;&#9;&#9;c-1.932-5.124,0.74-10.716,5.672-12.576c0.514-0.194,1.044-0.348,1.603-0.455c14.969-2.891,29.626-7.036,43.837-12.395&#10;&#9;&#9;&#9;&#9;c14.211-5.359,27.955-11.924,41.096-19.633c0.49-0.289,0.989-0.523,1.504-0.717c4.932-1.86,10.641,0.572,12.574,5.696&#10;&#9;&#9;&#9;&#9;c6.112,16.208,21.356,27.152,38.664,27.745L212.94,138.216z"/>
			<g>
				<path style="fill:none;stroke:#000000;stroke-width:15;stroke-linecap:round;stroke-linejoin:round;stroke-miterlimit:10;" d="&#10;&#9;&#9;&#9;&#9;&#9;M124.577,185.504c-14.042-6.352-30.575-0.117-36.927,13.925"/>
				<path style="fill:none;stroke:#000000;stroke-width:15;stroke-linecap:round;stroke-linejoin:round;stroke-miterlimit:10;" d="&#10;&#9;&#9;&#9;&#9;&#9;M183.123,163.427c-14.042-6.352-30.575-0.117-36.927,13.925"/>
			</g>
			<path style="fill:#596C76;" d="M114.972,221.421c-3.982,1.502-5.688,6.284-3.433,9.893&#10;&#9;&#9;&#9;&#9;c10.068,16.115,30.414,23.442,48.875,16.481s28.902-25.899,25.823-44.649c-0.69-4.199-5.129-6.664-9.111-5.162L114.972,221.421z"/>
			<path style="fill:none;stroke:#000000;stroke-width:15;stroke-linecap:round;stroke-linejoin:round;stroke-miterlimit:10;" d="&#10;&#9;&#9;&#9;&#9;M114.972,221.421c-3.982,1.502-5.688,6.284-3.433,9.893c10.068,16.115,30.414,23.442,48.875,16.481s28.902-25.899,25.823-44.649&#10;&#9;&#9;&#9;&#9;c-0.69-4.199-5.129-6.664-9.111-5.162L114.972,221.421z"/>
		</g>
	</g>
	<g>
		<path style="fill:#ED74B7;" d="M490.152,449.632c-2.177,8.788-7.711,15.871-14.899,20.196c-7.19,4.335-16.027,5.925-24.816,3.748&#10;&#9;&#9;&#9;l-196.621-48.708c-17.586-4.357-28.301-22.128-23.945-39.715c2.177-8.788,7.709-15.861,14.899-20.196&#10;&#9;&#9;&#9;c3.218-1.94,6.764-3.336,10.497-4.085c-2.697-16.312-2.186-33.419,2.043-50.489c16.657-67.24,84.663-108.242,151.893-91.587&#10;&#9;&#9;&#9;c67.24,16.657,108.242,84.663,91.585,151.903c-4.229,17.07-11.762,32.438-21.762,45.604&#10;&#9;&#9;&#9;C488.556,424.076,493.305,436.906,490.152,449.632z"/>
		<path style="fill:#E759AA;" d="M336.682,330.046c-4.227,17.065-4.745,34.172-2.046,50.487c-3.729,0.753-7.282,2.138-10.496,4.085&#10;&#9;&#9;&#9;c-7.193,4.337-12.72,11.407-14.898,20.196c-4.357,17.588,6.355,35.356,23.943,39.713l-79.371-19.662&#10;&#9;&#9;&#9;c-17.588-4.357-28.3-22.125-23.943-39.713c2.177-8.789,7.704-15.859,14.898-20.196c3.225-1.944,6.767-3.332,10.496-4.085&#10;&#9;&#9;&#9;c-2.699-16.316-2.181-33.422,2.046-50.487c16.658-67.245,84.661-108.244,151.895-91.589c13.895,3.442,26.67,9.072,38.045,16.454&#10;&#9;&#9;&#9;C395.424,239.867,349.898,276.696,336.682,330.046z"/>
		<path style="fill:none;stroke:#000000;stroke-width:15;stroke-linecap:round;stroke-linejoin:round;stroke-miterlimit:10;" d="&#10;&#9;&#9;&#9;M278.969,431.097l-25.15-6.23c-17.59-4.36-28.3-22.13-23.95-39.71c2.18-8.79,7.71-15.86,14.9-20.2c3.22-1.94,6.77-3.34,10.5-4.08&#10;&#9;&#9;&#9;c-2.7-16.32-2.19-33.42,2.04-50.49c16.66-67.24,84.67-108.25,151.9-91.59c19.65,4.87,37.05,14.12,51.43,26.46"/>
		<path style="fill:none;stroke:#000000;stroke-width:15;stroke-linecap:round;stroke-linejoin:round;stroke-miterlimit:10;" d="&#10;&#9;&#9;&#9;M483.659,271.357c18.67,28.23,25.91,63.89,17.13,99.34c-4.23,17.07-11.76,32.44-21.76,45.61c9.53,7.77,14.28,20.6,11.12,33.32&#10;&#9;&#9;&#9;c-2.17,8.79-7.71,15.88-14.9,20.2c-7.19,4.34-16.02,5.93-24.81,3.75l-25.53-6.32"/>
		<path style="fill:#FFDFCF;" d="M457.303,389.839l-8.835,35.664c-11.643,47-58.886,76.646-105.972,65.353&#10;&#9;&#9;&#9;c-47.458-11.382-76.482-59.214-64.768-106.503l9.103-36.745c2.082-8.406,9.996-13.909,18.626-13.195&#10;&#9;&#9;&#9;c27.466,2.272,53.925-7.909,72.778-26.548c5.394-5.332,14.497-3.078,16.779,4.155c7.976,25.287,26.624,46.642,51.975,57.455&#10;&#9;&#9;&#9;C454.955,372.872,459.385,381.433,457.303,389.839z"/>
		<path style="fill:#FFCEBF;" d="M366.116,493.187c-7.761,0.309-15.695-0.434-23.62-2.331&#10;&#9;&#9;&#9;c-47.453-11.378-76.481-59.213-64.765-106.505l9.104-36.751c2.071-8.361,9.923-13.92,18.507-13.199&#10;&#9;&#9;&#9;c12.311,1.034,24.421-0.435,35.736-4.041l-16.264,65.654C315.184,434.884,333.08,474.131,366.116,493.187z"/>
		<path style="fill:none;stroke:#000000;stroke-width:15;stroke-linecap:round;stroke-linejoin:round;stroke-miterlimit:10;" d="&#10;&#9;&#9;&#9;M308.329,474.237c9.73,7.74,21.27,13.53,34.17,16.62c47.08,11.29,94.33-18.35,105.97-65.35l8.83-35.67&#10;&#9;&#9;&#9;c2.09-8.4-2.34-16.97-10.31-20.36c-25.35-10.82-44-32.17-51.97-57.46c-2.29-7.23-11.39-9.48-16.78-4.15&#10;&#9;&#9;&#9;c-18.86,18.64-45.31,28.82-72.78,26.55c-8.63-0.72-16.55,4.79-18.63,13.19l-9.1,36.75c-5.5,22.19-2.03,44.5,8.12,63.11"/>
		<g>
			<path style="fill:none;stroke:#000000;stroke-width:15;stroke-linecap:round;stroke-linejoin:round;stroke-miterlimit:10;" d="&#10;&#9;&#9;&#9;&#9;M358.603,375.03c-7.958-13.199-25.108-17.447-38.307-9.49"/>
			<path style="fill:none;stroke:#000000;stroke-width:15;stroke-linecap:round;stroke-linejoin:round;stroke-miterlimit:10;" d="&#10;&#9;&#9;&#9;&#9;M419.337,390.076c-7.958-13.199-25.108-17.447-38.307-9.49"/>
		</g>
		<path style="fill:#596C76;" d="M330.312,399.152c-4.131-1.023-8.25,1.946-8.441,6.197c-0.855,18.982,11.739,36.561,30.89,41.306&#10;&#9;&#9;&#9;c19.151,4.744,38.495-4.923,46.6-22.109c1.815-3.849-0.441-8.398-4.572-9.421L330.312,399.152z"/>
		<path style="fill:none;stroke:#000000;stroke-width:15;stroke-linecap:round;stroke-linejoin:round;stroke-miterlimit:10;" d="&#10;&#9;&#9;&#9;M330.312,399.152c-4.131-1.023-8.25,1.946-8.441,6.197c-0.855,18.982,11.739,36.561,30.89,41.306&#10;&#9;&#9;&#9;c19.151,4.744,38.495-4.923,46.6-22.109c1.815-3.849-0.441-8.398-4.572-9.421L330.312,399.152z"/>
	</g>
	<g>
		<g>
			<path style="fill:none;stroke:#000000;stroke-width:15;stroke-linecap:round;stroke-linejoin:round;stroke-miterlimit:10;" d="&#10;&#9;&#9;&#9;&#9;M327.795,109.16l20.607-54.106c0.421-1.029,1.878-1.031,2.302-0.002l20.419,54.108"/>
			
				<line style="fill:none;stroke:#000000;stroke-width:15;stroke-linecap:round;stroke-linejoin:round;stroke-miterlimit:10;" x1="334.221" y1="95.685" x2="364.8" y2="95.685"/>
		</g>
		<g>
			
				<line style="fill:none;stroke:#000000;stroke-width:15;stroke-linecap:round;stroke-linejoin:round;stroke-miterlimit:10;" x1="266.236" y1="54.281" x2="266.236" y2="109.16"/>
			
				<line style="fill:none;stroke:#000000;stroke-width:15;stroke-linecap:round;stroke-linejoin:round;stroke-miterlimit:10;" x1="304.213" y1="54.281" x2="304.213" y2="109.16"/>
			
				<line style="fill:none;stroke:#000000;stroke-width:15;stroke-linecap:round;stroke-linejoin:round;stroke-miterlimit:10;" x1="266.236" y1="80.78" x2="304.213" y2="80.78"/>
		</g>
	</g>
	<g>
		<g>
			<path style="fill:none;stroke:#000000;stroke-width:15;stroke-linecap:round;stroke-linejoin:round;stroke-miterlimit:10;" d="&#10;&#9;&#9;&#9;&#9;M406.996,189.562l20.607-54.106c0.421-1.029,1.878-1.031,2.302-0.002l20.419,54.108"/>
			
				<line style="fill:none;stroke:#000000;stroke-width:15;stroke-linecap:round;stroke-linejoin:round;stroke-miterlimit:10;" x1="413.423" y1="176.087" x2="444.001" y2="176.087"/>
		</g>
		<g>
			
				<line style="fill:none;stroke:#000000;stroke-width:15;stroke-linecap:round;stroke-linejoin:round;stroke-miterlimit:10;" x1="345.438" y1="134.683" x2="345.438" y2="189.562"/>
			
				<line style="fill:none;stroke:#000000;stroke-width:15;stroke-linecap:round;stroke-linejoin:round;stroke-miterlimit:10;" x1="383.415" y1="134.683" x2="383.415" y2="189.562"/>
			
				<line style="fill:none;stroke:#000000;stroke-width:15;stroke-linecap:round;stroke-linejoin:round;stroke-miterlimit:10;" x1="345.438" y1="161.182" x2="383.415" y2="161.182"/>
		</g>
	</g>
	
		<line style="fill:none;stroke:#000000;stroke-width:15;stroke-linecap:round;stroke-linejoin:round;stroke-miterlimit:10;" x1="388.421" y1="80.78" x2="412.003" y2="80.78"/>
	<g>
		
			<line style="fill:none;stroke:#000000;stroke-width:15;stroke-linecap:round;stroke-linejoin:round;stroke-miterlimit:10;" x1="147.073" y1="411.807" x2="171.923" y2="411.807"/>
		<g>
			
				<line style="fill:none;stroke:#000000;stroke-width:15;stroke-linecap:round;stroke-linejoin:round;stroke-miterlimit:10;" x1="160.644" y1="455.068" x2="182.246" y2="442.783"/>
			
				<line style="fill:none;stroke:#000000;stroke-width:15;stroke-linecap:round;stroke-linejoin:round;stroke-miterlimit:10;" x1="182.246" y1="380.832" x2="160.644" y2="368.547"/>
		</g>
	</g>
</g>















</svg>
