<?xml version="1.0" encoding="UTF-8"?>
<svg xmlns="http://www.w3.org/2000/svg" xmlns:xlink="http://www.w3.org/1999/xlink" version="1.1" id="Layer_1" x="0px" y="0px" viewBox="0 0 512 512" style="enable-background:new 0 0 512 512;" xml:space="preserve" width="512" height="512">
<g>
	
		<line style="fill:none;stroke:#000000;stroke-width:30;stroke-linecap:round;stroke-linejoin:round;stroke-miterlimit:10;" x1="111.4" y1="143.533" x2="143.533" y2="239.933"/>
	
		<line style="fill:none;stroke:#000000;stroke-width:30;stroke-linecap:round;stroke-linejoin:round;stroke-miterlimit:10;" x1="207.8" y1="111.4" x2="207.8" y2="223.867"/>
	
		<line style="fill:none;stroke:#000000;stroke-width:30;stroke-linecap:round;stroke-linejoin:round;stroke-miterlimit:10;" x1="127.467" y1="191.733" x2="207.8" y2="175.667"/>
	<path style="fill:none;stroke:#000000;stroke-width:30;stroke-linecap:round;stroke-linejoin:round;stroke-miterlimit:10;" d="&#10;&#9;&#9;M264.033,223.867c0,0,15.906-84.945,21.85-116.724c1.286-6.844,7.311-11.809,14.3-11.809c7.15,0,13.496,4.667,15.665,11.52&#10;&#9;&#9;c9.882,31.555,36.552,117.013,36.552,117.013"/>
	<path style="fill:none;stroke:#000000;stroke-width:30;stroke-linecap:round;stroke-linejoin:round;stroke-miterlimit:10;" d="&#10;&#9;&#9;M231.9,416.667c0,0,14.701-78.381,21.128-112.732c1.767-9.158,9.72-15.802,19.039-15.802c9.399,0,17.433,6.539,19.441,15.681&#10;&#9;&#9;c6.587,30.928,20.726,96.786,20.726,96.786"/>
	
		<line style="fill:none;stroke:#000000;stroke-width:30;stroke-linecap:round;stroke-linejoin:round;stroke-miterlimit:10;" x1="270.058" y1="191.733" x2="337.297" y2="175.667"/>
	
		<line style="fill:none;stroke:#000000;stroke-width:30;stroke-linecap:round;stroke-linejoin:round;stroke-miterlimit:10;" x1="240.978" y1="368.467" x2="305.164" y2="368.467"/>
	
		<line style="fill:none;stroke:#000000;stroke-width:30;stroke-linecap:round;stroke-linejoin:round;stroke-miterlimit:10;" x1="103.367" y1="288.133" x2="119.433" y2="392.567"/>
	
		<line style="fill:none;stroke:#000000;stroke-width:30;stroke-linecap:round;stroke-linejoin:round;stroke-miterlimit:10;" x1="392.567" y1="272.067" x2="372.483" y2="352.4"/>
	
		<line style="fill:none;stroke:#000000;stroke-width:30;stroke-linecap:round;stroke-linejoin:round;stroke-miterlimit:10;" x1="358.425" y1="408.633" x2="360.433" y2="400.6"/>
	
		<line style="fill:none;stroke:#000000;stroke-width:30;stroke-linecap:round;stroke-linejoin:round;stroke-miterlimit:10;" x1="111.4" y1="336.333" x2="179.683" y2="336.333"/>
	
		<line style="fill:none;stroke:#000000;stroke-width:30;stroke-linecap:round;stroke-linejoin:round;stroke-miterlimit:10;" x1="175.667" y1="384.533" x2="183.7" y2="288.133"/>
	<path style="fill:none;stroke:#000000;stroke-width:30;stroke-linecap:round;stroke-linejoin:round;stroke-miterlimit:10;" d="&#10;&#9;&#9;M55.327,389.442C29.861,351.227,15,305.333,15,256C15,122.992,122.968,15,256,15s241,107.992,241,241S389.032,497,256,497&#10;&#9;&#9;c-49.325,0-95.195-14.854-133.434-40.335L15,497L55.327,389.442z"/>
</g>















</svg>
