<svg id="Layer_1" enable-background="new 0 0 510 510" height="512" viewBox="0 0 510 510" width="512" xmlns="http://www.w3.org/2000/svg"><g><g><path d="m244.64 345.15-49.255-131.805c-.072-.194-.148-.387-.226-.578-3.708-9.104-12.395-14.982-22.139-14.982-.008 0-.017 0-.025 0-9.753.01-18.441 5.909-22.134 15.028-.064.158-.126.318-.187.479l-49.706 131.798c-4.118 10.918 1.305 23.141 12.113 27.3 10.663 4.107 22.959-1.459 27.024-12.237l7.242-19.201h50.958l7.153 19.141c4.033 10.792 16.312 16.393 26.987 12.32 10.82-4.126 16.28-16.332 12.195-27.263zm-81.337-46.508 9.639-25.559 9.551 25.559z" fill="#6cf5c2"/><g><path d="m244.64 345.15-49.255-131.805c-.072-.194-.148-.387-.226-.578-3.708-9.104-12.395-14.982-22.139-14.982-.008 0-.017 0-.025 0-3.627.004-7.105.825-10.235 2.32 5.271 2.519 9.552 6.956 11.876 12.662.078.191.153.384.226.578l49.255 131.805c3.695 9.888-.437 20.799-9.266 25.849 5.234 2.945 11.66 3.678 17.594 1.414 10.82-4.126 16.28-16.333 12.195-27.263z" fill="#00f2a6"/></g><path d="m112.545 100.089c-11.565 0-20.941 9.472-20.941 21.155v43.394h-49.723v-43.394c0-11.683-9.376-21.155-20.941-21.155s-20.94 9.472-20.94 21.155v133.682c0 11.683 9.376 21.155 20.941 21.155s20.941-9.472 20.941-21.155v-47.978h49.723v47.978c0 11.683 9.376 21.155 20.941 21.155s20.941-9.472 20.941-21.155v-133.682c-.001-11.683-9.377-21.155-20.942-21.155z" fill="#fee45a"/><g><path d="m112.545 100.09c-3.731 0-7.227.997-10.262 2.725 6.37 3.628 10.679 10.516 10.679 18.43v133.682c0 7.914-4.309 14.802-10.679 18.43 3.034 1.728 6.53 2.725 10.262 2.725 11.565 0 20.941-9.472 20.941-21.155v-133.683c0-11.683-9.376-21.154-20.941-21.154z" fill="#fed402"/></g></g><g><path d="m470.341 381.316-49.255-131.805c-.072-.194-.148-.387-.226-.578-3.708-9.104-12.395-14.982-22.139-14.982-.008 0-.017 0-.025 0-9.753.01-18.441 5.909-22.134 15.028-.064.158-.126.318-.187.479l-49.706 131.798c-4.118 10.918 1.305 23.141 12.113 27.3 10.663 4.107 22.959-1.459 27.024-12.237l7.242-19.201h50.958l7.153 19.141c4.033 10.792 16.312 16.393 26.987 12.32 10.82-4.126 16.28-16.332 12.195-27.263zm-81.336-46.508 9.639-25.559 9.551 25.559z" fill="#e8edf2"/><g><path d="m470.341 381.316-49.255-131.805c-.072-.194-.148-.387-.226-.578-3.708-9.104-12.395-14.982-22.139-14.982-.008 0-.017 0-.025 0-3.627.004-7.105.825-10.235 2.32 5.271 2.519 9.552 6.956 11.876 12.662.078.191.153.384.226.578l49.255 131.805c3.695 9.888-.437 20.799-9.266 25.849 5.234 2.945 11.66 3.678 17.594 1.414 10.82-4.126 16.28-16.332 12.195-27.263z" fill="#d9e7ec"/></g><path d="m338.247 136.256c-11.565 0-20.941 9.472-20.941 21.155v43.394h-49.723v-43.394c0-11.683-9.376-21.155-20.941-21.155s-20.941 9.472-20.941 21.155v133.682c0 11.683 9.376 21.155 20.941 21.155s20.941-9.472 20.941-21.155v-47.978h49.723v47.978c0 11.683 9.376 21.155 20.941 21.155s20.941-9.472 20.941-21.155v-133.682c-.001-11.684-9.376-21.155-20.941-21.155z" fill="#b6c4cf"/><g><path d="m338.247 136.256c-3.731 0-7.227.997-10.262 2.725 6.37 3.628 10.679 10.516 10.679 18.43v133.682c0 7.914-4.309 14.802-10.679 18.43 3.034 1.728 6.53 2.725 10.262 2.725 11.565 0 20.941-9.472 20.941-21.155v-133.682c-.001-11.684-9.376-21.155-20.941-21.155z" fill="#9facba"/></g></g><g><path d="m489.046 310.78c-11.565 0-20.941-9.472-20.941-21.155v-93.128c0-11.683 9.376-21.155 20.941-21.155s20.941 9.472 20.941 21.155v93.128c-.001 11.684-9.376 21.155-20.941 21.155z" fill="#fe73c5"/><path d="m489.046 175.342c-3.731 0-7.227.997-10.262 2.725 6.37 3.628 10.679 10.516 10.679 18.43v93.128c0 7.914-4.309 14.802-10.679 18.43 3.034 1.728 6.53 2.725 10.262 2.725 11.565 0 20.941-9.472 20.941-21.155v-93.128c-.001-11.683-9.376-21.155-20.941-21.155z" fill="#fe4fb7"/><path d="m489.059 391.953c-11.565 0-20.948-9.472-20.948-21.155s9.369-21.155 20.934-21.155h.014c11.566 0 20.941 9.472 20.941 21.155s-9.375 21.155-20.941 21.155z" fill="#fe73c5"/><path d="m489.059 349.643h-.014c-3.729 0-7.222.995-10.254 2.721 6.374 3.627 10.685 10.517 10.685 18.434 0 7.914-4.309 14.803-10.68 18.43 3.035 1.728 6.531 2.724 10.262 2.724 11.566 0 20.941-9.471 20.941-21.155.001-11.682-9.374-21.154-20.94-21.154z" fill="#fe4fb7"/></g></g></svg>