<svg height="504pt" viewBox="0 0 504.69864 504" width="504pt" xmlns="http://www.w3.org/2000/svg"><path d="m483.09375 259.726562c2.882812 1.445313 6.335938 1.113282 8.890625-.855468 2.550781-1.96875 3.75-5.222656 3.085937-8.378906-5.234374-28.597657-17.398437-55.476563-35.425781-78.285157 27.789063-18.976562 44.285157-50.5625 43.988281-84.210937.003907-3.367188-.175781-6.726563-.535156-10.074219-2.234375-28.023437-14.683594-54.25-34.984375-73.691406-4.09375-3.496094-9.664062-4.710938-14.839843-3.234375-5.507813 1.570312-9.863282 5.792968-11.601563 11.25-8.34375 23.542968-22.46875 44.609375-41.078125 61.269531-40.984375-28.285156-76.496094-30.214844-97.714844-27.351563 5.277344-5.527343 11.6875-9.847656 18.792969-12.660156 3.640625-1.207031 5.996094-4.730468 5.726563-8.558594-.273438-3.824218-3.101563-6.980468-6.875-7.664062-72.101563-13.101562-106.152344 8.34375-119.324219 20.984375-2.3125-9.019531-2.289063-18.480469.066406-27.488281.746094-2.980469-.199219-6.128906-2.457031-8.210938-2.261719-2.078125-5.476563-2.757812-8.386719-1.769531-33.890625 11.296875-45.574219 34.34375-47.898437 52.382813-12.976563-6.597657-27.230469-10.296876-41.777344-10.84375-3.394532-.003907-6.457032 2.039062-7.757813 5.175781s-.585937 6.75 1.816407 9.152343c4.820312 4.917969 9.246093 10.214844 13.226562 15.835938-22.925781-12.535156-39.636719-34.003906-46.160156-59.308594-1.5-5.644531-5.804688-10.121094-11.390625-11.832031-5.3125-1.648437-11.097657-.4375-15.300781 3.207031-20.046876 19.378906-32.347657 45.398438-34.597657 73.1875-.375 3.402344-.5585935 6.820313-.5546872 10.242188-.1171876 32.308594 15.0937502 62.761718 40.9921872 82.078125-23.910156 30.6875-38.175781 67.78125-40.9921872 106.582031-.2773438 3.496094 1.6484372 6.792969 4.8281252 8.273438 3.179687 1.476562 6.945312.820312 9.441406-1.644532 6.921875-6.25 15.285156-10.6875 24.339844-12.917968-8.175781 29.648437-25.375 105.355468-4.507813 161.011718 1.414063 3.796875 5.34375 6.042969 9.332032 5.332032 3.992187-.707032 6.90625-4.167969 6.925781-8.21875.410156-8.207032 4.285156-15.855469 10.660156-21.042969 7.035156 28.136719 34.984375 96.523437 140.421875 96.523437 3.378906-.003906 6.425781-2.03125 7.730469-5.144531 1.308593-3.117187.617187-6.710937-1.746094-9.121094-5.5-4.878906-6.484375-13.101562-2.292969-19.136719 8.101563.601563 22.664063 3.128907 28.398438 10.457032 2.652344 3.613281 3.308594 8.324218 1.734375 12.523437-.605469 2.390625-.125 4.929688 1.308593 6.9375 1.433594 2.007813 3.679688 3.28125 6.136719 3.484375 1.023438.085938 7.4375.582032 16.90625.582032 28.429688 0 84.414063-4.5 104.632813-38.183594 7.335937 6.070312 14.269531 14.058594 13.519531 19.800781-.402344 3.335937 1.222656 6.59375 4.128906 8.277344 2.910157 1.683593 6.542969 1.46875 9.234375-.546875 2.726563-2.046875 64.035156-48.859375 77.269532-128.242188l23.058593 11.574219c2.476563 1.253906 5.417969 1.199219 7.847657-.144531 2.433593-1.34375 4.039062-3.804688 4.296874-6.570313 4.992188-41.738281-7.703124-83.660156-35.015624-115.613281 4.972656 1.117188 9.824218 2.730469 14.476562 4.820312zm-25.867188-242.722656c12.933594 12.339844 21.992188 28.179688 26.078126 45.585938-6.152344-2.980469-12.488282-5.5625-18.96875-7.730469-4.40625-1.476563-9.171876.898437-10.644532 5.304687-1.472656 4.402344.902344 9.167969 5.304688 10.640626 9.652344 3.203124 18.910156 7.476562 27.605468 12.742187.09375 1.476563.246094 2.929687.246094 4.449219.332032 28.933594-14.257812 55.996094-38.613281 71.621094-7.757813-7.730469-16.417969-14.492188-25.800781-20.144532 4.792968-5.828125 12.78125-7.925781 19.816406-5.203125 3.558594 1.183594 7.472656-.136719 9.585938-3.234375 2.113281-3.097656 1.914062-7.222656-.484376-10.105468-11.132812-13.496094-23.527343-25.898438-37.023437-37.03125 19.605469-18.414063 34.34375-41.394532 42.898437-66.894532zm-440.414062 70.992188c0-1.496094.160156-2.972656.242188-4.449219 8.695312-5.28125 17.957031-9.566406 27.609374-12.773437 2.847657-.953126 4.972657-3.355469 5.570313-6.300782.597656-2.941406-.417969-5.984375-2.667969-7.972656-2.253906-1.992188-5.394531-2.628906-8.242187-1.675781-6.488281 2.171875-12.828125 4.757812-18.984375 7.738281 3.988281-17.101562 12.785156-32.707031 25.355468-44.972656 7.152344 26.75 23.808594 49.972656 46.851563 65.328125-21.972656 4.421875-40.464844 19.164062-49.671875 39.597656-1.464844 2.933594-1.089844 6.453125.964844 9.011719 2.050781 2.554687 5.40625 3.683594 8.585937 2.882812 8.488281-2.15625 17.355469-2.367187 25.9375-.613281-9.546875 6.945313-18.398437 14.800781-26.433593 23.453125-22.179688-16.078125-35.25-41.859375-35.117188-69.253906zm470.871094 268.496094-22.222656-11.113282c-2.476563-1.234375-5.402344-1.171875-7.820313.171875s-4.023437 3.789063-4.285156 6.542969c-5.992188 59.9375-43.996094 102.492188-62.347657 119.808594-6.441406-10.347656-15.21875-19.046875-25.625-25.398438-2.179687-1.34375-4.859374-1.617187-7.269531-.738281-2.40625.875-4.285156 2.804687-5.09375 5.238281-10.910156 32.660156-69.714843 37.617188-100.226562 36.730469-.074219-6.167969-2.171875-12.140625-5.964844-17.007813-12.992187-16.632812-42.085937-17.113281-45.359375-17.113281-2.226562 0-4.359375.886719-5.933594 2.460938-8.523437 7.699219-11.886718 19.597656-8.652344 30.617187-102.527343-7.109375-111.023437-88.917968-111.316406-92.527344-.210937-2.570312-1.59375-4.894531-3.742187-6.3125-2.152344-1.421874-4.832031-1.773437-7.277344-.957031-8.261719 2.648438-15.5625 7.671875-20.984375 14.445313-10.304688-61.472656 14.503906-137.265625 14.789062-138.121094.851563-2.5625.421876-5.375-1.15625-7.5625-1.578124-2.191406-4.109374-3.484375-6.808593-3.484375-10.871094.066406-21.574219 2.703125-31.230469 7.695313 8.296875-48.308594 36.289062-91.003907 77.285156-117.875 3.917969-2.1875 5.429688-7.066407 3.425782-11.082032-6.253907-12.488281-20.386719-15.273437-32.5-15.167968 14.203124-15.328126 35.917968-21.195313 55.910156-15.105469 2.554687.851562 5.363281.421875 7.550781-1.148438 2.1875-1.574219 3.484375-4.097656 3.492187-6.792969-.054687-2.945312-.535156-5.867187-1.417968-8.679687l-.050782-.160156c-2.511718-7.519531-6.195312-14.601563-10.910156-20.980469 8.613282 2.882812 16.855469 6.78125 24.550782 11.605469 2.8125 1.851562 6.457031 1.839843 9.261718-.027344 2.800782-1.863281 4.21875-5.222656 3.597656-8.53125-2.328124-17.984375 7.035157-35.453125 23.300782-43.472656-.664063 12.59375 1.410156 28.960937 15.105468 35.792969 3.898438 1.882812 8.589844.546874 10.914063-3.105469.207031-.335938 19.898437-29.957031 86.007813-24.417969-7.898438 6.921875-13.824219 15.804688-17.183594 25.75-1.050782 3.15625-.140625 6.636719 2.320312 8.871094 2.464844 2.234375 6.015625 2.804687 9.054688 1.453125.671875-.292969 63.496094-26.859375 137.257812 50.921875-11.015625 3.066406-19.632812 11.660156-22.730468 22.664062-1.375 4.132813.636718 8.628906 4.632812 10.359375 12.203125 6.09375 23.136719 14.449219 32.230469 24.617188.316406.429687.675781.828125 1.074219 1.183593 16.007812 17.964844 27.570312 39.4375 33.757812 62.6875-9.867188-2.558593-20.019531-3.851562-30.214844-3.84375-3.648437 0-6.878906 2.351563-7.996094 5.824219-1.117187 3.472657.136719 7.269531 3.101563 9.394531 31.671875 25.828126 49.34375 65.054688 47.699219 105.890626zm0 0"/><path d="m176.289062 185.023438c-18.542968 0-33.574218 15.03125-33.574218 33.574218 0 18.542969 15.03125 33.574219 33.574218 33.574219 18.542969 0 33.574219-15.03125 33.574219-33.574219 0-18.542968-15.03125-33.574218-33.574219-33.574218zm0 50.359374c-9.273437 0-16.789062-7.515624-16.789062-16.785156 0-9.273437 7.515625-16.789062 16.789062-16.789062 9.269532 0 16.785157 7.515625 16.785157 16.789062 0 9.269532-7.515625 16.785156-16.785157 16.785156zm0 0"/><path d="m327.371094 185.023438c-18.542969 0-33.574219 15.03125-33.574219 33.574218 0 18.542969 15.03125 33.574219 33.574219 33.574219 18.542968 0 33.574218-15.03125 33.574218-33.574219 0-18.542968-15.03125-33.574218-33.574218-33.574218zm0 50.359374c-9.273438 0-16.789063-7.515624-16.789063-16.785156 0-9.273437 7.515625-16.789062 16.789063-16.789062 9.269531 0 16.785156 7.515625 16.785156 16.789062 0 9.269532-7.515625 16.785156-16.785156 16.785156zm0 0"/><path d="m379.5625 157.703125c-10.589844 2.210937-21.519531 2.269531-32.132812.175781-13.820313-2.105468-26.757813-8.089844-37.316407-17.257812-2.226562-2.144532-5.449219-2.890625-8.394531-1.945313-21.871094 6.976563-39.910156 22.640625-49.890625 43.316407-9.859375-20.472657-27.65625-36.027344-49.269531-43.058594-2.929688-.960938-6.152344-.234375-8.390625 1.890625-10.542969 9.007812-23.378907 14.910156-37.074219 17.054687-10.824219 2.089844-21.957031 1.980469-32.734375-.320312-2.863281-.6875-5.875.171875-7.941406 2.269531-15.484375 15.628906-24.140625 36.765625-24.0625 58.769531-.042969 39.167969 27.035156 73.148438 65.222656 81.851563 38.191406 8.703125 77.316406-10.191407 94.25-45.507813 14.398437 29.957032 45.132813 48.585938 78.355469 47.492188s62.660156-21.707032 75.054687-52.550782c12.394531-30.839843 5.40625-66.09375-17.820312-89.871093-2.042969-2.082031-5.015625-2.957031-7.855469-2.308594zm-203.273438 128.042969c-37.066406-.042969-67.105468-30.082032-67.148437-67.148438-.054687-16.046875 5.703125-31.574218 16.207031-43.703125 11.527344 1.835938 23.28125 1.664063 34.75-.503906 15.125-2.496094 29.414063-8.636719 41.632813-17.894531 29.640625 12.1875 46.539062 43.621094 40.347656 75.070312-6.1875 31.445313-33.738281 54.132813-65.789063 54.179688zm151.082032 0c-32.203125.007812-59.875-22.84375-65.957032-54.464844-6.085937-31.621094 11.136719-63.109375 41.042969-75.046875 12.304688 9.378906 26.710938 15.613281 41.96875 18.164063 11.222657 2.136718 22.726563 2.347656 34.019531.621093 10.425782 12.121094 16.128907 27.589844 16.074219 43.578125-.042969 37.066406-30.082031 67.105469-67.148437 67.148438zm0 0"/><path d="m394.519531 310.925781c-4.636719 0-8.394531 3.757813-8.394531 8.394531 0 18.539063-15.03125 33.570313-33.574219 33.570313h-201.441406c-18.542969 0-33.574219-15.03125-33.574219-33.570313 0-4.636718-3.757812-8.394531-8.394531-8.394531s-8.394531 3.757813-8.394531 8.394531c.046875 24.546876 17.769531 45.492188 41.96875 49.605469v9.148438c0 13.90625 11.273437 25.179687 25.179687 25.179687h16.789063c13.90625 0 25.179687-11.273437 25.179687-25.179687v-8.394531h83.933594v8.394531c0 13.90625 11.273437 25.179687 25.179687 25.179687h16.789063c13.90625 0 25.179687-11.273437 25.179687-25.179687v-9.148438c24.199219-4.113281 41.921876-25.058593 41.964844-49.605469 0-4.636718-3.757812-8.394531-8.390625-8.394531zm-201.445312 67.148438c0 4.632812-3.757813 8.390625-8.390625 8.390625h-16.789063c-4.636719 0-8.394531-3.757813-8.394531-8.390625v-8.394531h33.574219zm151.082031 0c0 4.632812-3.757812 8.390625-8.390625 8.390625h-16.789063c-4.636718 0-8.394531-3.757813-8.394531-8.390625v-8.394531h33.574219zm0 0"/></svg>