<svg height="512pt" viewBox="0 0 512.0067 512" width="512pt" xmlns="http://www.w3.org/2000/svg"><path d="m512.003906 170.664062c.042969-36.40625-20.988281-69.542968-53.949218-85-32.960938-15.457031-71.886719-10.4375-99.847657 12.875-2.011719-54.992187-47.175781-98.53515575-102.203125-98.53515575-55.03125 0-100.195312 43.54296875-102.203125 98.53515575-39.570312-32.351562-97.761719-27.050781-130.835937 11.917969-33.074219 38.96875-28.84375 97.246094 9.507812 131.03125-19.972656 26.363281-31.3125 58.253907-32.46874975 91.308594-.23828125 29.359375 12.20312475 57.394531 34.13281275 76.917969v59.613281c0 23.566406 19.101562 42.667969 42.667969 42.667969 23.5625 0 42.664062-19.101563 42.664062-42.667969v-16.160156c5.460938 1.507812 11.152344 2.929687 17.066406 4.265625v20.429687c0 18.851563 15.285156 34.132813 34.136719 34.132813h42.664063c18.851562 0 34.132812-15.28125 34.132812-34.132813v-8.617187c2.851562 0 5.675781.082031 8.535156.082031s5.691406-.050781 8.53125-.082031v8.617187c0 18.851563 15.285156 34.132813 34.136719 34.132813h42.664063c18.851562 0 34.132812-15.28125 34.132812-34.132813v-20.480469c5.910156-1.335937 11.601562-2.757812 17.066406-4.265624v16.210937c0 23.566406 19.105469 42.667969 42.667969 42.667969s42.667969-19.101563 42.667969-42.667969v-59.613281c21.929687-19.523438 34.371094-47.558594 34.132812-76.917969-1.144531-33.050781-12.46875-64.941406-32.425781-91.308594 20.585937-17.773437 32.421875-43.625 32.425781-70.824219zm-93.867187-76.800781c32.28125.039063 61.09375 20.265625 72.101562 50.613281 11.007813 30.347657 1.859375 64.339844-22.890625 85.066407-1.425781 1.230469-2.933594 2.371093-4.503906 3.414062-12.96875 9.488281-28.636719 14.574219-44.707031 14.507813-42.394531-.050782-76.753907-34.40625-76.800781-76.800782.007812-4.75.488281-9.488281 1.433593-14.140624.589844-.9375 1.167969-1.878907 1.707031-2.832032.277344-.382812.523438-.785156.734376-1.203125 4.601562-8.179687 8.046874-16.957031 10.238281-26.078125 14.335937-20.425781 37.734375-32.574218 62.6875-32.546875zm-162.132813-76.800781c30.179688-.023438 58.121094 15.90625 73.476563 41.886719 15.351562 25.984375 15.828125 58.144531 1.25 84.570312-.746094.804688-1.324219 1.75-1.707031 2.78125-15.363282 25.683594-43.089844 41.40625-73.019532 41.40625-29.929687 0-57.65625-15.722656-73.019531-41.40625-.371094-1.058593-.953125-2.03125-1.707031-2.859375-14.535156-26.417968-14.039063-58.550781 1.308594-84.507812 15.347656-25.953125 43.261718-41.875 73.417968-41.871094zm-238.933594 153.601562c-.023437-33.46875 21.640626-63.09375 53.539063-73.214843 31.902344-10.121094 66.683594 1.597656 85.953125 28.960937 2.195312 9.121094 5.640625 17.898438 10.242188 26.078125.210937.417969.457031.816407.734374 1.191407.554688.957031 1.132813 1.90625 1.707032 2.84375.945312 4.652343 1.421875 9.390624 1.425781 14.140624-.050781 42.394532-34.40625 76.75-76.800781 76.800782-16.230469.046875-32.042969-5.128906-45.109375-14.757813-1.4375-.960937-2.8125-2.011719-4.121094-3.148437-17.484375-14.558594-27.585937-36.140625-27.570313-58.894532zm196.265626 324.265626h-42.664063c-9.425781 0-17.070313-7.640626-17.070313-17.066407v-17.066406c25.382813 4.441406 51.046876 7.101563 76.800782 7.960937v9.105469c0 9.425781-7.640625 17.066407-17.066406 17.066407zm128 0h-42.664063c-9.425781 0-17.070313-7.640626-17.070313-17.066407v-9.070312c25.757813-.863281 51.421876-3.535157 76.800782-7.996094v17.066406c0 9.425781-7.640625 17.066407-17.066406 17.066407zm136.535156-110.480469v-34.585938c0-4.714843-3.820313-8.535156-8.535156-8.535156-4.710938 0-8.53125 3.820313-8.53125 8.535156v119.464844c0 14.140625-11.460938 25.601563-25.601563 25.601563-14.136719 0-25.601563-11.460938-25.601563-25.601563v-76.796875c0-4.714844-3.820312-8.535156-8.53125-8.535156-4.714843 0-8.535156 3.820312-8.535156 8.535156v42.894531c-8.53125 2.492188-17.558594 4.839844-27.304687 6.828125-30.410157 5.976563-61.285157 9.261719-92.269531 9.8125-11.179688.171875-22.792969.171875-33.792969 0-31.027344-.535156-61.941407-3.8125-92.390625-9.789062-9.769532-2.011719-18.773438-4.359375-27.308594-6.824219v-42.921875c0-4.714844-3.820312-8.535156-8.53125-8.535156-4.714844 0-8.535156 3.820312-8.535156 8.535156v76.796875c0 14.140625-11.460938 25.601563-25.597656 25.601563-14.140626 0-25.601563-11.460938-25.601563-25.601563v-119.464844c0-4.714843-3.820313-8.535156-8.53125-8.535156-4.714844 0-8.535156 3.820313-8.535156 8.535156v34.585938c-11.265625-14.847657-17.269531-33.019531-17.066407-51.652344 1.304688-29.433594 11.5-57.777344 29.242188-81.296875 14.378906 8.574219 30.816406 13.078125 47.558594 13.03125 48.886718-.078125 89.546875-37.636719 93.488281-86.367188 38.875 35.507813 98.414063 35.507813 137.285156 0 3.945313 48.730469 44.601563 86.289063 93.492188 86.367188 16.746093.0625 33.191406-4.4375 47.574219-13.015625 17.730468 23.519531 27.917968 51.855469 29.226562 81.28125.199219 18.632813-5.804688 36.804687-17.066406 51.652344zm0 0"/><path d="m256.003906 145.0625c23.5625 0 42.667969-19.101562 42.667969-42.667969 0-23.5625-19.105469-42.664062-42.667969-42.664062-23.566406 0-42.667968 19.101562-42.667968 42.664062.027343 23.554688 19.113281 42.640625 42.667968 42.667969zm0-68.265625c14.136719 0 25.597656 11.460937 25.597656 25.597656 0 14.140625-11.460937 25.601563-25.597656 25.601563-14.140625 0-25.601562-11.460938-25.601562-25.601563 0-14.136719 11.460937-25.597656 25.601562-25.597656zm0 0"/><path d="m418.136719 213.328125c23.5625 0 42.667969-19.101563 42.667969-42.664063 0-23.566406-19.105469-42.667968-42.667969-42.667968s-42.667969 19.101562-42.667969 42.667968c.03125 23.550782 19.117188 42.636719 42.667969 42.664063zm0-68.265625c14.136719 0 25.601562 11.460938 25.601562 25.601562 0 14.136719-11.464843 25.597657-25.601562 25.597657s-25.601563-11.460938-25.601563-25.597657c0-14.140624 11.464844-25.601562 25.601563-25.601562zm0 0"/><path d="m93.871094 213.328125c23.5625 0 42.664062-19.101563 42.664062-42.664063 0-23.566406-19.101562-42.667968-42.664062-42.667968-23.566406 0-42.667969 19.101562-42.667969 42.667968.027344 23.550782 19.113281 42.636719 42.667969 42.664063zm0-68.265625c14.136718 0 25.597656 11.460938 25.597656 25.601562 0 14.136719-11.460938 25.597657-25.597656 25.597657-14.140625 0-25.601563-11.460938-25.601563-25.597657 0-14.140624 11.460938-25.601562 25.601563-25.601562zm0 0"/><path d="m358.402344 255.996094c-4.710938 0-8.53125 3.820312-8.53125 8.535156 0 9.425781-7.640625 17.066406-17.066406 17.066406h-153.601563c-9.425781 0-17.066406-7.640625-17.066406-17.066406 0-4.714844-3.820313-8.535156-8.535157-8.535156-4.710937 0-8.53125 3.820312-8.53125 8.535156 0 18.851562 15.28125 34.132812 34.132813 34.132812h23.117187l-13.355468 63.382813c-3.589844 16.972656.8125 34.648437 11.949218 47.949219 13.585938 16.296875 33.824219 25.5625 55.039063 25.199218h.101563c21.210937.359376 41.445312-8.90625 55.03125-25.199218 11.132812-13.300782 15.539062-30.976563 11.945312-47.949219l-13.34375-63.382813h23.117188c18.851562 0 34.132812-15.28125 34.132812-34.132812 0-4.714844-3.820312-8.535156-8.535156-8.535156zm-52.050782 109.566406c2.476563 11.945312-.667968 24.363281-8.535156 33.683594-10.414062 12.199218-25.722656 19.121094-41.761718 18.882812h-.101563c-16.039063.238282-31.347656-6.683594-41.761719-18.882812-7.867187-9.320313-11.015625-21.738282-8.535156-33.683594l14.105469-66.898438h27.707031v59.730469c0 4.714844 3.820312 8.535157 8.535156 8.535157 4.710938 0 8.53125-3.820313 8.53125-8.535157v-59.730469h27.710938zm0 0"/></svg>