<svg height="511pt" viewBox="0 -8 511.69178 511" width="511pt" xmlns="http://www.w3.org/2000/svg"><path d="m510.980469 25.09375c-.410157-3.917969-3.449219-7.046875-7.355469-7.570312-66.535156-8.890626-111.375 11.453124-139.605469 34.023437-18.722656-9.0625-39.519531-12.96875-60.253906-11.324219 4.003906-3.660156 8.628906-6.578125 13.652344-8.621094 3.683593-1.246093 6.058593-4.828124 5.773437-8.707031-.285156-3.878906-3.15625-7.074219-6.984375-7.769531-61.355469-11.09375-91.597656 6.144531-104.257812 17.511719-1.320313-7.203125-1.078125-14.605469.707031-21.710938.746094-3.015625-.207031-6.203125-2.492188-8.3125-2.28125-2.109375-5.53125-2.8125-8.480468-1.832031-29.269532 9.738281-39.988282 29.386719-42.539063 45.320312-10.175781-4.894531-21.171875-7.847656-32.429687-8.710937-36.226563-19.722656-78.023438-26.730469-118.707032-19.902344-3.902343.542969-6.925781 3.683594-7.320312 7.605469-.144531 1.304688-9.753906 102.152344 47.71875 160.316406-1.785156 3.199219-3.78125 6.664063-6.109375 10.640625-10.582031 17.917969-23.75 40.292969-25.335937 59.628907-.320313 3.824218 1.953124 7.390624 5.554687 8.714843 3.601563 1.328125 7.644531.085938 9.882813-3.03125 4.117187-5.183593 9.5625-9.148437 15.761718-11.476562-7.425781 31.640625-23.597656 113.75-5.121094 163.097656 1.34375 3.558594 4.882813 5.800781 8.675782 5.492187 3.792968-.308593 6.925781-3.09375 7.671875-6.824218 1.921875-6.539063 6.257812-12.101563 12.128906-15.566406 9.871094 26.660156 45.394531 98.734374 140.203125 98.734374 3.425781-.019531 6.511719-2.085937 7.832031-5.25 1.316407-3.164062.617188-6.808593-1.785156-9.257812-4.15625-3.742188-5.085937-9.90625-2.207031-14.703125 8.558594.101563 16.820312 3.167969 23.378906 8.667969 2.082031 2.894531 2.5625 6.644531 1.28125 9.96875-.613281 2.429687-.125 5.007812 1.332031 7.046875 1.457031 2.039062 3.738281 3.335937 6.238281 3.542969.894532.078124 6.492188.503906 14.785157.503906 24.75 0 73.515625-3.875 92.160156-32.84375 5.839844 5.050781 10.898437 11.226562 10.371094 15.417968-.433594 3.398438 1.210937 6.726563 4.171875 8.449219 2.964844 1.726563 6.667968 1.507813 9.410156-.546875 34.9375-28.167968 58.953125-67.640625 67.910156-111.617187l18.773438 9.429687c2.515625 1.257813 5.492187 1.195313 7.957031-.167968 2.460937-1.363282 4.089844-3.855469 4.355469-6.660157 5.667968-56.890625-11.613282-111.734375-20.941406-136.285156 5.628906.933594 11.046874 2.878906 15.984374 5.734375 2.859376 2.054688 6.683594 2.140625 9.632813.21875 2.949219-1.917969 4.417969-5.453125 3.695313-8.894531-4.769532-14.363281-11.460938-28.019531-19.882813-40.59375-1.953125-3.292969-3.804687-6.433594-5.339844-9.148438 60.234375-57.78125 50.328125-161.449219 50.148438-162.738281zm-494.078125 13.011719c33.089844 11.785156 58.265625 26.019531 103.578125 103.101562 2.386719 4.0625 7.617187 5.417969 11.679687 3.027344s5.417969-7.617187 3.03125-11.679687c-36.746094-62.507813-62.117187-86.539063-87.707031-100.003907 25.410156.648438 50.269531 7.535157 72.386719 20.054688.570312.425781 1.195312.777343 1.855468 1.046875 21.382813 12.472656 38.832032 30.710937 50.34375 52.625 2.128907 3.96875 6.96875 5.601562 11.0625 3.734375 4.09375-1.867188 6.035157-6.59375 4.433594-10.796875-5.753906-11.117188-13.019531-21.382813-21.597656-30.5.535156.128906 1.082031.210937 1.632812.238281 2.554688 0 4.972657-1.144531 6.59375-3.117187 1.621094-1.976563 2.273438-4.574219 1.777344-7.078126-2.054687-14.539062 5.128906-28.824218 18.03125-35.839843-.230468 11 2.164063 24.480469 13.898438 30.351562 3.957031 1.929688 8.734375.578125 11.09375-3.140625.734375-1.152344 16.929687-25.121094 71.773437-21.109375-5.871093 5.667969-10.351562 12.613281-13.097656 20.300781-.460937 1.046876-.703125 2.179688-.707031 3.328126v.304687c.003906 1.046875.203125 2.082031.585937 3.054687v.15625c.40625 1.042969 1.015625 1.992188 1.792969 2.796876 2.449219 2.433593 6.125 3.152343 9.308594 1.816406 20.175781-6.488282 42.035156-5.296875 61.390625 3.339844-10.429688 10.269531-19.183594 22.113281-25.941407 35.097656-1.820312 4.257812.089844 9.191406 4.304688 11.113281 4.214844 1.925781 9.191406.132813 11.21875-4.03125 7.359375-14.273437 17.402344-26.992187 29.574219-37.460937.886719-.519532 1.671875-1.199219 2.3125-2 26.097656-21.621094 58.777343-33.714844 92.664062-34.285157-25.601562 13.464844-50.953125 37.496094-87.695312 100.003907-2.390625 4.0625-1.035157 9.289062 3.027343 11.679687s9.292969 1.035156 11.683594-3.027344c45.234375-76.945312 70.398438-91.265625 103.578125-103.09375 1.160157 34.9375-3.253906 139.367188-94.722656 164.769531-4.664063-33.117187-30.257813-59.390624-63.242187-64.921874-32.984376-5.535157-65.753907 10.949218-80.96875 40.730468-15.222657-29.78125-47.996094-46.261718-80.984376-40.722656-32.984374 5.542969-58.574218 31.828125-63.230468 64.949219-17.164063-4.589844-33.042969-13.054688-46.421875-24.746094-.257813-.308594-.546875-.59375-.851563-.851563-45.738281-41.210937-48.300781-111.71875-47.445312-139.214843zm366.933594 175.574219c0 32.988281-26.746094 59.734374-59.734376 59.734374-32.988281 0-59.734374-26.746093-59.734374-59.734374 0-32.992188 26.746093-59.734376 59.734374-59.734376 32.972657.039063 59.695313 26.757813 59.734376 59.734376zm-136.535157 0c0 32.988281-26.742187 59.734374-59.734375 59.734374-32.988281 0-59.730468-26.746093-59.730468-59.734374 0-32.992188 26.742187-59.734376 59.730468-59.734376 32.976563.039063 59.695313 26.757813 59.734375 59.734376zm204.1875-8.003907c3.328125 5.621094 7.25 12.269531 10.597657 18.507813-6.082032-1.328125-12.292969-1.988282-18.519532-1.972656-2.90625.003906-5.613281 1.484374-7.179687 3.933593-1.570313 2.449219-1.78125 5.527344-.566407 8.167969 17.3125 40.53125 26.09375 84.191406 25.796876 128.265625l-17.980469-9.011719c-2.519531-1.261718-5.5-1.203125-7.960938.164063-2.464843 1.363281-4.097656 3.859375-4.363281 6.664062-5.074219 50.96875-36.84375 87.550781-53.179688 103.25-5.726562-8.628906-13.265624-15.910156-22.089843-21.332031-2.21875-1.363281-4.9375-1.636719-7.382813-.75-2.449218.890625-4.355468 2.847656-5.179687 5.316406-9.214844 27.5625-58.699219 32.09375-85.675781 31.417969-.265626-5.273437-2.152344-10.339844-5.402344-14.503906-11.679688-15.046875-37.75-15.445313-40.683594-15.445313-2.265625 0-4.433594.898438-6.035156 2.5-7.296875 6.636719-10.472656 16.679688-8.3125 26.308594-90.015625-8.101562-111.539063-91.105469-112.441406-94.839844-.566407-2.316406-2.078126-4.289062-4.164063-5.441406s-4.558594-1.378906-6.820313-.628906c-7.476562 2.378906-14.285156 6.496094-19.863281 12.015625-10.191406-58.152344 13.449219-145.75 13.71875-146.773438.6875-2.558593.144531-5.296875-1.46875-7.398437-1.613281-2.105469-4.113281-3.339844-6.765625-3.34375-6.410156-.011719-12.761718 1.222656-18.703125 3.636718 4.851563-10.171874 10.222657-20.089843 16.09375-29.707031 1.636719-2.78125 3.121094-5.316406 4.539063-7.78125 14.742187 11.132813 31.632812 19.09375 49.605468 23.382813 2.917969 34.101562 28.078126 62.144531 61.667969 68.734375 33.589844 6.589843 67.476563-9.871094 83.066407-40.347657 15.589843 30.476563 49.488281 46.9375 83.078124 40.339844 33.59375-6.597656 58.746094-34.652344 61.65625-68.761718 16.867188-4.03125 32.804688-11.273438 46.929688-21.335938 1.257812 2.136719 2.5625 4.363281 3.988281 6.769531zm0 0"/><path d="m397.214844 292c-2.554688-1.769531-5.871094-2.007812-8.652344-.625-13.390625 5.996094-27.335938 10.671875-41.632812 13.960938-14.8125 3.683593-29.847657 6.378906-45.015626 8.074218-30.71875 3.550782-61.746093 3.550782-92.464843 0-15.164063-1.742187-30.195313-4.445312-45.015625-8.089844-.167969-.046874-.339844-.078124-.511719-.105468-14.011719-3.285156-27.675781-7.917969-40.796875-13.832032-2.785156-1.394531-6.105469-1.164062-8.667969.605469-2.5625 1.765625-3.960937 4.789063-3.648437 7.886719 3.902344 23.066406 15.960937 43.960938 33.980468 58.878906.523438 22.519532 6.824219 44.527344 18.296876 63.914063 1.507812 2.679687 4.339843 4.339843 7.414062 4.34375 2.503906.007812 4.878906-1.085938 6.503906-2.984375 1.628906-1.898438 2.339844-4.417969 1.945313-6.886719-.839844-12.164063.863281-24.371094 5-35.839844 23.089843 8.078125 47.425781 12 71.886719 11.578125 24.386718.394532 48.652343-3.519531 71.679687-11.5625 4.113281 11.445313 5.792969 23.621094 4.941406 35.753906-.6875 4.082032 1.652344 8.066407 5.550781 9.457032 3.894532 1.386718 8.226563-.21875 10.277344-3.816406 11.445313-19.304688 17.75-41.222657 18.3125-63.65625 18.191406-14.953126 30.375-35.972657 34.304688-59.1875.296875-3.101563-1.117188-6.113282-3.6875-7.867188zm-265.0625 21.460938c5.121094 1.832031 11.460937 3.890624 18.773437 5.972656-1.890625 5.621094-3.34375 11.375-4.351562 17.21875-6.03125-6.898438-10.902344-14.730469-14.421875-23.191406zm29.644531 41.523437c.226563-10.761719 2.214844-21.410156 5.886719-31.523437 8.246094 1.847656 16.578125 3.425781 24.996094 4.726562-8.863282 11.875-16.152344 24.84375-21.683594 38.589844 0 .082031-.085938.167968-.121094.253906-2.199219 5.5-4.050781 11.132812-5.546875 16.863281-2.535156-9.421875-3.726563-19.15625-3.53125-28.910156zm28.476563 10.433594c5.910156-12.398438 13.3125-24.03125 22.042968-34.636719 28.84375 2.988281 57.917969 2.988281 86.765625 0 8.734375 10.640625 16.148438 22.296875 22.09375 34.714844-21.015625 7.214844-43.125 10.707031-65.339843 10.316406-22.292969.394531-44.484376-3.125-65.5625-10.394531zm155.859374 18.527343c-1.46875-5.6875-3.300781-11.277343-5.484374-16.734374l-.113282-.246094v-.113282c-5.582031-13.757812-12.890625-26.75-21.75-38.664062 8.648438-1.320312 16.988282-2.894531 25.027344-4.726562 3.714844 10.203124 5.691406 20.957031 5.855469 31.8125.191406 9.675781-1 19.332031-3.535157 28.671874zm18.773438-47.113281c-1.035156-5.914062-2.53125-11.734375-4.46875-17.417969 7.480469-2.082031 13.898438-4.152343 19.105469-5.972656-3.566407 8.542969-8.507813 16.445313-14.625 23.390625zm0 0"/><path d="m187.566406 188.078125c-10.351562 0-19.6875 6.238281-23.648437 15.804687-3.964844 9.566407-1.773438 20.578126 5.546875 27.898438 7.324218 7.320312 18.332031 9.511719 27.898437 5.550781 9.566407-3.964843 15.804688-13.296875 15.804688-23.652343 0-14.140626-11.460938-25.601563-25.601563-25.601563zm0 34.132813c-4.710937 0-8.53125-3.820313-8.53125-8.53125 0-4.714844 3.820313-8.535157 8.53125-8.535157 4.714844 0 8.535156 3.820313 8.535156 8.535157 0 4.710937-3.820312 8.53125-8.535156 8.53125zm0 0"/><path d="m324.101562 188.078125c-14.140624 0-25.601562 11.460937-25.601562 25.601563 0 14.136718 11.460938 25.597656 25.601562 25.597656 14.136719 0 25.601563-11.460938 25.601563-25.597656 0-14.140626-11.464844-25.601563-25.601563-25.601563zm0 34.132813c-4.714843 0-8.535156-3.820313-8.535156-8.53125 0-4.714844 3.820313-8.535157 8.535156-8.535157 4.710938 0 8.53125 3.820313 8.53125 8.535157 0 4.710937-3.820312 8.53125-8.53125 8.53125zm0 0"/></svg>