<svg height="512pt" viewBox="-43 0 512 512.00249" width="512pt" xmlns="http://www.w3.org/2000/svg"><path d="m76.546875 83.261719c-4.136719-19.15625-22.074219-32.097657-41.558594-29.976563-16.144531 1.988282-34.988281 16.042969-34.988281 49.117188 0 27.792968 21.539062 51.378906 60.894531 66.988281-3.785156 11.445313-5.957031 23.363281-6.441406 35.410156l-1.707031 37.890625c-.421875.585938-.773438 1.222656-1.042969 1.894532l-47.433594 130.429687c-5.828125 15.671875-3.523437 33.214844 6.152344 46.847656 9.585937 13.703125 25.253906 21.867188 41.972656 21.871094 11.105469-.011719 21.890625-3.730469 30.644531-10.5625 5.882813 6.402344 12.367188 12.222656 19.363282 17.390625v35.839844c0 14.136718 11.460937 25.601562 25.597656 25.601562h51.203125c14.136719 0 25.597656-11.464844 25.597656-25.601562v-8.53125h17.066407v8.53125c0 14.136718 11.460937 25.601562 25.601562 25.601562h51.199219c14.136719 0 25.601562-11.464844 25.601562-25.601562v-35.839844c6.996094-5.171875 13.480469-11.003906 19.359375-17.417969 8.75 6.847657 19.535156 10.574219 30.644532 10.589844 16.722656-.003906 32.390624-8.167969 41.976562-21.871094 9.675781-13.632812 11.976562-31.167969 6.152344-46.835937l-47.445313-130.476563c-.269531-.671875-.617187-1.308593-1.042969-1.894531l-1.699218-37.855469c-.488282-12.039062-2.65625-23.953125-6.441406-35.394531 39.355468-15.625 60.894531-39.210938 60.894531-67.003906 0-33.074219-18.839844-47.128906-34.988281-49.117188-19.488282-2.136718-37.433594 10.808594-41.554688 29.976563-3.082031 12.273437-8.917969 23.679687-17.066406 33.355469-4.804688-4.789063-9.96875-9.203126-15.445313-13.199219 27.109375-33.714844 28.449219-65.117188 20.75-82.558594-5.070312-12.734375-17.460937-21.023437-31.160156-20.85546875-45.894531 0-51.203125 29.21484375-51.203125 51.19921875-.257812 9.050781-2.15625 17.984375-5.605469 26.359375-4.828125-.507812-9.679687-.761719-14.53125-.761719h-45.058593c-4.84375 0-9.6875.253907-14.503907.761719-3.457031-8.375-5.363281-17.304688-5.632812-26.359375 0-21.984375-5.308594-51.19921875-51.199219-51.19921875-13.699219-.16406225-26.085938 8.12499975-31.15625 20.85546875-7.679688 17.441406-6.355469 48.84375 20.753906 82.558594-5.480468 3.996093-10.644531 8.410156-15.445312 13.199219-8.15625-9.675782-13.996094-21.082032-17.074219-33.355469zm3.898437 317.328125c-1.0625-1.875-2.074218-3.78125-3.03125-5.714844-.578124-1.179688-1.21875-2.320312-1.757812-3.515625-3.328125-7.390625-5.867188-15.117187-7.566406-23.042969-.257813-1.183594-.402344-2.394531-.617188-3.589844-.390625-2.167968-.707031-4.34375-.972656-6.519531 8.335938-9.121093 21.988281-10.988281 32.464844-4.441406 10.476562 6.546875 14.785156 19.636719 10.242187 31.125-4.546875 11.488281-16.644531 18.089844-28.761719 15.699219zm-28.050781 26.078125c-11.136719.003906-21.574219-5.425781-27.964843-14.550781-6.390626-9.121094-7.929688-20.789063-4.117188-31.253907l29.949219-82.363281-1.78125 39.816406c-.285157 6.074219-.105469 12.160156.535156 18.207032.597656 5.992187 1.609375 11.933593 3.03125 17.785156 1.960937 8.558594 4.773437 16.898437 8.386719 24.898437 2.0625 4.503907 4.378906 8.882813 6.9375 13.117188 1.570312 2.582031 3.222656 5.101562 4.957031 7.5625-5.71875 4.386719-12.722656 6.773437-19.933594 6.78125zm135.339844 59.734375c0 4.714844-3.820313 8.535156-8.53125 8.535156h-51.203125c-4.710938 0-8.53125-3.820312-8.53125-8.535156v-25.054688c20.125 10.8125 42.605469 16.484375 65.449219 16.523438h2.816406zm25.601563-25.601563c-33.972657 0-51.203126-8.609375-51.203126-25.597656 0-22.570313 24.109376-51.199219 51.203126-51.199219s51.199218 28.628906 51.199218 51.199219c0 16.988281-17.230468 25.597656-51.199218 25.597656zm93.867187 25.601563c0 4.714844-3.824219 8.535156-8.535156 8.535156h-51.199219c-4.714844 0-8.535156-3.820312-8.535156-8.535156v-8.53125h2.816406c22.84375-.039063 45.328125-5.710938 65.453125-16.523438zm52.050781-121.820313c-.230468 1.277344-.382812 2.558594-.65625 3.839844-.820312 3.84375-1.835937 7.644531-3.046875 11.382813l-.152343.46875c-1.257813 3.769531-2.707032 7.472656-4.34375 11.09375-.539063 1.203124-1.1875 2.363281-1.777344 3.550781-.953125 1.925781-1.953125 3.820312-3.019532 5.699219-12.117187 2.386718-24.214843-4.21875-28.753906-15.707032-4.542968-11.488281-.230468-24.578125 10.242188-31.121094 10.476562-6.546874 24.132812-4.675781 32.464844 4.441407-.300782 2.109375-.605469 4.234375-.957032 6.351562zm47.148438 16.289063c3.808594 10.472656 2.261718 22.144531-4.136719 31.265625-6.398437 9.125-16.847656 14.546875-27.992187 14.53125-7.214844-.019531-14.222657-2.417969-19.933594-6.824219 1.707031-2.457031 3.414062-4.984375 4.964844-7.570312 10.226562-16.929688 16.492187-35.949219 18.332031-55.636719v-.1875c.636719-6.035157.820312-12.105469.542969-18.167969l-1.78125-39.824219zm-306.347656-246.152344c7.582031-8.714844 16.425781-16.246094 26.238281-22.339844 2.15625-1.339844 3.601562-3.566406 3.949219-6.078125.347656-2.511719-.4375-5.046875-2.148438-6.917969-25.957031-28.46875-30.828125-56.492187-24.148438-71.679687 2.421876-6.457031 8.628907-10.707031 15.523438-10.632813 28.550781 0 34.132812 12.515626 34.132812 34.132813.382813 13.589844 3.636719 26.941406 9.546876 39.183594 1.585937 3.503906 5.316406 5.519531 9.113281 4.917969 6.136719-.960938 12.335937-1.441407 18.542969-1.433594h45.058593c6.207031-.007813 12.40625.472656 18.542969 1.433594 3.792969.582031 7.515625-1.425782 9.113281-4.917969 5.914063-12.242188 9.167969-25.59375 9.546875-39.183594 0-21.617187 5.582032-34.132813 34.136719-34.132813 6.910156-.074218 13.125 4.195313 15.539063 10.675782 6.679687 15.144531 1.808593 43.167968-24.152344 71.679687-1.707032 1.871094-2.492188 4.40625-2.144532 6.917969.347657 2.511719 1.792969 4.738281 3.945313 6.078125 9.8125 6.09375 18.652344 13.625 26.234375 22.339844 1.535156 1.765625 3.734375 2.820312 6.074219 2.917969 2.332031.066406 4.597656-.796876 6.296875-2.398438 13.496094-13.039062 23.085937-29.589844 27.683594-47.785156 2.121093-10.75 12.007812-18.164063 22.917968-17.1875 9.667969 1.109375 20.003906 10.1875 20.003906 32.09375 0 29.457031-36.078124 46.40625-57.589843 53.886718-2.222657.765626-4.027344 2.410157-4.996094 4.546876-.96875 2.136718-1.015625 4.582031-.125 6.753906 4.929687 12.066406 7.71875 24.902344 8.242187 37.929687l1.910157 41.949219v.078125l4.027343 90.164063c-14.953124-7.859376-33.136718-6.140626-46.351562 4.382812s-18.960938 27.859375-14.652344 44.195312c4.3125 16.332032 17.867188 28.574219 34.550782 31.207032-15.382813 18.355468-35.878907 31.722656-58.878907 38.398437 3.953125-6.167969 5.992188-13.367187 5.863281-20.691406 0-30.925781-30.445312-68.265625-68.265624-68.265625-37.820313 0-68.269532 37.339844-68.269532 68.265625-.128906 7.308594 1.902344 14.496094 5.839844 20.660156-23.003906-6.675781-43.5-20.042969-58.882812-38.402343 16.667968-2.648438 30.199218-14.890626 34.5-31.210938 4.300781-16.320312-1.445313-33.636719-14.640626-44.15625-13.199218-10.519531-31.363281-12.25-46.3125-4.417969l4.027344-90.15625v-.050781l1.878906-41.933594c.527344-13.019531 3.316407-25.847656 8.242188-37.914062.890625-2.171875.84375-4.613282-.125-6.75-.96875-2.136719-2.773438-3.78125-4.992188-4.546875-21.453124-7.515625-57.535156-24.464844-57.535156-53.921875 0-21.90625 10.335938-30.984375 20.003906-32.179688.75-.09375 1.503907-.136718 2.261719-.136718 10.089844.238281 18.667969 7.429687 20.660157 17.324218 4.589843 18.210938 14.175781 34.777344 27.679687 47.828125 1.695313 1.605469 3.964844 2.46875 6.296875 2.398438 2.339844-.097657 4.539062-1.152344 6.078125-2.917969zm0 0"/><path d="m128 247.46875c23.566406 0 42.667969-19.101562 42.667969-42.667969 0-23.5625-19.101563-42.664062-42.667969-42.664062-23.5625 0-42.664062 19.101562-42.664062 42.664062.027343 23.554688 19.113281 42.640625 42.664062 42.667969zm0-68.265625c14.140625 0 25.601562 11.460937 25.601562 25.597656 0 14.140625-11.460937 25.601563-25.601562 25.601563-14.136719 0-25.597656-11.460938-25.597656-25.601563 0-14.136719 11.460937-25.597656 25.597656-25.597656zm0 0"/><path d="m298.667969 247.46875c23.5625 0 42.667969-19.101562 42.667969-42.667969 0-23.5625-19.105469-42.664062-42.667969-42.664062s-42.667969 19.101562-42.667969 42.664062c.03125 23.554688 19.117188 42.640625 42.667969 42.667969zm0-68.265625c14.136719 0 25.601562 11.460937 25.601562 25.597656 0 14.140625-11.464843 25.601563-25.601562 25.601563s-25.601563-11.460938-25.601563-25.601563c0-14.136719 11.464844-25.597656 25.601563-25.597656zm0 0"/><path d="m136.535156 204.800781c0 4.714844-3.820312 8.535157-8.535156 8.535157-4.710938 0-8.53125-3.820313-8.53125-8.535157 0-4.710937 3.820312-8.53125 8.53125-8.53125 4.714844 0 8.535156 3.820313 8.535156 8.53125zm0 0"/><path d="m307.203125 204.800781c0 4.714844-3.824219 8.535157-8.535156 8.535157-4.710938 0-8.535157-3.820313-8.535157-8.535157 0-4.710937 3.824219-8.53125 8.535157-8.53125 4.710937 0 8.535156 3.820313 8.535156 8.53125zm0 0"/><path d="m209.996094 256.003906h9.808594c8.199218 1.171875 16.535156-.914062 23.21875-5.8125 2.957031-2.984375 4.566406-7.054687 4.445312-11.253906-1.625-18.136719-16-32.511719-34.132812-34.136719-18.136719 1.625-32.511719 16-34.132813 34.136719-.128906 4.207031 1.480469 8.28125 4.445313 11.269531 5.929687 5.90625 15.375 5.796875 26.347656 5.796875zm3.339844-34.132812c8.457031 0 16.390624 10.800781 17.066406 16.382812-4.519532.675782-9.09375.902344-13.65625.683594h-6.824219c-4.542969.207031-9.097656-.023438-13.59375-.691406.613281-5.574219 8.550781-16.375 17.007813-16.375zm0 0"/><path d="m110.933594 281.601562c0 14.824219 22.640625 39.59375 49.496094 54.101563 16.175781 9.058594 34.363281 13.929687 52.90625 14.167969 4.441406.007812 8.878906-.277344 13.285156-.855469 13.914062-1.988281 27.355468-6.488281 39.664062-13.277344 26.808594-14.542969 49.449219-39.3125 49.449219-54.136719 0-16.339843-22.921875-17.066406-102.398437-17.066406-79.480469 0-102.402344.726563-102.402344 17.066406zm136.621094 44.09375c-.804688.324219-1.597657.570313-2.398438.851563-2.671875 1.023437-5.351562 1.9375-8.03125 2.695313-.980469.285156-1.960938.53125-2.945312.777343-2.703126.675781-5.417969 1.230469-8.121094 1.640625-.742188.109375-1.484375.253906-2.21875.347656-6.972656.878907-14.027344.878907-21 0-.753906-.09375-1.503906-.238281-2.253906-.347656-2.6875-.417968-5.382813-.957031-8.074219-1.632812-.996094-.246094-1.996094-.5-2.992188-.785156-2.648437-.757813-5.292969-1.703126-7.945312-2.667969-.855469-.316407-1.648438-.574219-2.476563-.914063-.238281-.101562-.46875-.238281-.707031-.332031 10.398437-6.6875 22.589844-10.035156 34.945313-9.59375 12.367187-.441406 24.578124 2.910156 34.984374 9.609375-.28125.101562-.527343.25-.765624.351562zm-34.21875-44.09375c32.3125 0 71.753906 0 84.238281 3.191407-8.296875 13.273437-19.691407 24.335937-33.210938 32.230469-13.933593-12.59375-32.265625-19.1875-51.027343-18.355469-18.761719-.832031-37.097657 5.761719-51.03125 18.355469-13.519532-7.898438-24.921876-18.957032-33.226563-32.230469 12.472656-3.191407 51.933594-3.191407 84.257813-3.191407zm0 0"/></svg>