<svg height="512pt" viewBox="0 0 512 512.02891" width="512pt" xmlns="http://www.w3.org/2000/svg"><path d="m256.527344 324.292969c32.355468.042969 61.941406-18.242188 76.378906-47.199219 14.4375-28.953125 11.230469-63.589844-8.273438-89.402344 4.398438-.476562 7.703126-4.234375 7.613282-8.660156s-3.550782-8.042969-7.964844-8.339844h-136.535156c-4.710938 0-8.53125 3.820313-8.53125 8.535156 0 4.710938 3.820312 8.53125 8.53125 8.53125h.632812c-19.476562 25.820313-22.660156 60.4375-8.214844 89.375 14.441407 28.9375 44.019532 47.207032 76.363282 47.160157zm16.554687-119.46875c0 9.425781-7.640625 17.070312-17.066406 17.070312s-17.066406-7.644531-17.066406-17.070312c0-9.421875 7.640625-17.066407 17.066406-17.066407s17.066406 7.644532 17.066406 17.066407zm-46.457031-17.066407c-3.070312 5.167969-4.707031 11.058594-4.742188 17.066407 0 18.851562 15.28125 34.136719 34.132813 34.136719s34.132813-15.285157 34.132813-34.136719c-.035157-6.007813-1.675782-11.898438-4.746094-17.066407h16c14.878906 12.847657 23.417968 31.542969 23.390625 51.203126 0 37.699218-30.5625 68.265624-68.265625 68.265624s-68.265625-30.566406-68.265625-68.265624c-.035157-19.660157 8.503906-38.351563 23.378906-51.203126zm0 0"/><path d="m40.710938 337.664062c7.539062-.394531 13.910156-5.726562 15.625-13.082031 1.707031-7.234375 3.472656-13.855469 5.359374-19.71875 2.289063 29.265625 9.914063 57.863281 22.492188 84.386719 2.898438 5.621094 8.683594 9.160156 15.011719 9.179688 1.5625-.003907 3.117187-.21875 4.625-.628907 7.710937-2.042969 12.929687-9.222656 12.492187-17.1875-.585937-10.699219.019532-21.433593 1.800782-32 11.605468 19.070313 26.996093 35.558594 45.226562 48.441407 3.921875 16.570312 6.453125 33.441406 7.558594 50.433593-17.859375 10.019531-39.671875 17.921875-46.933594 14.285157-3.484375-1.863282-6.824219-3.988282-9.992188-6.359376-11.253906-7.96875-25.273437-17.875-49.492187-1.628906-7.269531 4.242188-12.132813 11.640625-13.140625 19.996094.234375 11.964844 5.636719 23.242188 14.8125 30.921875 4.789062 4.714844 11.246094 7.34375 17.960938 7.324219h128.421874c12.800782.179687 23.851563-8.9375 26.101563-21.539063 1.316406-8.265625-1.464844-16.65625-7.457031-22.503906-4.582032-3.96875-6.777344-10.03125-5.796875-16.015625 1.890625-9.230469 4.457031-18.308594 7.679687-27.160156 7.765625 1.191406 15.605469 1.820312 23.460938 1.882812 7.523437-.042968 15.039062-.613281 22.484375-1.707031 3.210937 8.691406 5.777343 17.601563 7.679687 26.667969 1.023438 6.121094-1.191406 12.335937-5.851562 16.425781-5.964844 5.847656-8.726563 14.222656-7.410156 22.46875 2.277343 12.582031 13.320312 21.667969 26.105468 21.480469h128.375c6.730469.015625 13.195313-2.632813 17.980469-7.367188 9.175781-7.679687 14.578125-18.957031 14.8125-30.921875-1.011719-8.355469-5.871094-15.757812-13.140625-20.003906-24.234375-16.210937-38.246094-6.332031-49.492188 1.640625-3.167968 2.367188-6.507812 4.492188-9.992187 6.355469-7.253906 3.679687-29.074219-4.265625-46.933594-14.285157 1.078125-16.671874 3.542969-33.226562 7.371094-49.492187 18.351563-12.742187 33.890625-29.109375 45.660156-48.09375 1.597657 10.1875 2.113281 20.515625 1.546875 30.8125-.433594 7.972656 4.808594 15.148437 12.535156 17.160156 1.507813.414063 3.0625.628907 4.625.632813 6.324219-.019532 12.113282-3.558594 15.011719-9.183594 12.574219-26.519531 20.195313-55.113281 22.492188-84.375 1.894531 5.871094 3.703125 12.507812 5.375 19.789062 1.757812 7.308594 8.089843 12.605469 15.59375 13.046876 7.5.441406 14.410156-4.078126 17.011719-11.128907 14.863281-38.921875 22.863281-80.128906 23.648437-121.789062 0-56.316407-26.566406-83.214844-42.464844-94.25-4.847656-3.34375-11.097656-3.894531-16.460937-1.449219-5.542969 2.5-9.363282 7.738281-10.042969 13.78125-2.464844 27.363281-22.359375 49.984375-49.183594 55.925781-5.742187-9.171875-12.386719-17.746093-19.832031-25.597656 6.925781-53.777344-10.394531-107.855469-47.277344-147.601563-5.113281-5.648437-13.347656-7.238281-20.195312-3.898437-7.03125 3.339844-11.085938 10.847656-10.027344 18.558594 2.78125 21.46875 5.015625 59.734375-7.929688 85.332031-21.460937-4.324219-43.578124-4.25-65.015624.214844-13.046876-25.507813-10.851563-63.890625-8.078126-85.445313 1.101563-7.746093-2.964843-15.308593-10.035156-18.660156-6.859375-3.339844-15.101562-1.7539062-20.226562 3.898437-37.03125 40.007813-54.304688 94.4375-47.121094 148.480469-7.136719 7.652344-13.519531 15.972657-19.0625 24.847657-27.121094-5.777344-47.378906-28.453126-50.074219-56.054688-.6875-6.042969-4.503906-11.28125-10.050781-13.78125-5.378906-2.453125-11.65625-1.890625-16.511719 1.484375-15.847656 11-42.410156 37.898437-42.410156 94.214844.789063 41.644531 8.789063 82.835937 23.644531 121.746093 2.574219 7.085938 9.527344 11.613282 17.050782 11.09375zm178.507812 142.507813c2.070312 2.015625 3.023438 4.914063 2.558594 7.765625-1 4.25-4.875 7.195312-9.238282 7.023438h-128.421874c-2.234376-.007813-4.378907-.894532-5.972657-2.46875-5.410156-4.203126-8.953125-10.367188-9.863281-17.160157.085938-.953125.359375-3.863281 5.648438-7.40625 14.507812-9.71875 19.722656-5.972656 30.140624 1.390625 3.867188 2.863282 7.941407 5.429688 12.195313 7.679688 20.121094 10.121094 59.875-12.714844 67.640625-17.390625 2.574219-1.539063 4.152344-4.3125 4.15625-7.3125-.339844-14.539063-1.945312-29.019531-4.792969-43.28125 10.488281 5.324219 21.53125 9.480469 32.929688 12.398437-3.066407 8.804688-5.566407 17.800782-7.484375 26.921875-2.308594 11.71875 1.675781 23.789063 10.503906 31.832031zm108.867188-20.566406c7.757812 4.675781 47.523437 27.527343 67.644531 17.390625 4.253906-2.25 8.328125-4.816406 12.195312-7.679688 10.410157-7.382812 15.667969-11.09375 30.140625-1.398437 5.289063 3.550781 5.5625 6.460937 5.648438 7.414062-.886719 6.785157-4.402344 12.949219-9.789063 17.167969-1.589843 1.574219-3.734375 2.460938-5.972656 2.46875h-128.417969c-4.363281.171875-8.234375-2.773438-9.234375-7.023438-.457031-2.847656.496094-5.734374 2.5625-7.75 8.90625-8.164062 12.898438-20.390624 10.527344-32.238281-1.890625-8.914062-4.347656-17.703125-7.355469-26.308593 11.320313-2.835938 22.296875-6.894532 32.734375-12.109376-2.824219 14.089844-4.429687 28.390626-4.804687 42.753907 0 2.988281 1.5625 5.757812 4.121094 7.304687zm131.789062-334.992188c13.097656 9.113281 35.074219 31.632813 35.074219 80.210938-.800781 39.65625-8.4375 78.875-22.582031 115.925781-6.167969-26.808594-13.769532-44.875-22.585938-53.691406-2.441406-2.4375-6.109375-3.167969-9.296875-1.847656-3.191406 1.320312-5.269531 4.429687-5.269531 7.882812 0 .65625-.300782 66.933594-22.453125 108.253906 1.296875-18.050781-1.117188-36.175781-7.097657-53.257812 18.433594-43.035156 17.207032-91.96875-3.363281-134.023438 31.648438-9.109375 54.492188-36.664062 57.574219-69.453125zm-146.414062-106.480469.8125-.851562c30.398437 32.773438 46.214843 76.472656 43.84375 121.113281-15.609376-12.621093-33.429688-22.226562-52.550782-28.332031 12.503906-27.785156 11.4375-64.535156 7.894532-91.929688zm88.132812 246.425782c.023438 33.925781-11.902344 66.773437-33.683594 92.785156l-15.5625-10.378906 13.703125-27.390625c.589844-1.183594.898438-2.492188.898438-3.816407v-17.066406c0-4.710937-3.820313-8.53125-8.535157-8.53125-4.710937 0-8.53125 3.820313-8.53125 8.53125v15.054688l-14.585937 29.175781-18.890625 6.289063-13.910156-6.957032c-4.21875-2.105468-9.34375-.394531-11.453125 3.824219-2.105469 4.21875-.394531 9.34375 3.824219 11.453125l17.066406 8.53125c1.183594.589844 2.492187.898438 3.8125.898438.917968 0 1.828125-.152344 2.699218-.445313l21.640626-7.210937 15.878906 10.589843c-5.710938 5.460938-11.859375 10.449219-18.378906 14.917969-.78125.324219-1.507813.765625-2.152344 1.3125-56.203125 36.726562-130.3125 29.84375-178.789063-16.605469l15.300781-10.238281 21.640626 7.207031c.867187.304688 1.777343.464844 2.695312.472657 1.320312.011718 2.625-.277344 3.8125-.855469l17.070312-8.53125c4.214844-2.109375 5.925782-7.234375 3.820313-11.453125s-7.234375-5.929688-11.449219-3.824219l-13.910156 6.957031-18.894531-6.289062-14.582031-29.21875v-15.054688c0-4.710937-3.820313-8.53125-8.535157-8.53125-4.710937 0-8.53125 3.820313-8.53125 8.53125v17.066406c-.003906 1.324219.304688 2.632813.894531 3.816407l13.707032 27.390625-14.933594 9.960937c-47.066406-56.769531-43.882812-139.855469 7.386719-192.855469.8125-.609374 1.507812-1.359374 2.050781-2.21875 41.5-41.414062 103.855469-53.757812 158.007812-31.28125 54.148438 22.480469 89.429688 75.359376 89.398438 133.988282zm-203.675781-247.464844.648437 1.015625c-3.546875 27.585937-4.582031 64.503906 8.074219 92.226563-19.199219 6.226562-37.066406 15.992187-52.675781 28.785156-2.542969-44.960938 13.324218-89.019532 43.953125-122.027344zm-145.851563 107.886719c3.277344 33.015625 26.566406 60.59375 58.566406 69.359375-20.269531 41.640625-21.605468 90-3.671874 132.699218-6.535157 17.257813-9.183594 35.746094-7.761719 54.144532-22.085938-41.15625-22.382813-107.433594-22.382813-108.089844-.003906-3.453125-2.082031-6.5625-5.269531-7.882812-3.1875-1.320313-6.859375-.589844-9.296875 1.847656-8.816406 8.816406-16.421875 26.882812-22.582031 53.582031-14.160157-37.011719-21.804688-76.195313-22.585938-115.816406 0-48.578125 21.972657-71.097657 34.984375-79.84375zm0 0"/></svg>