<svg id="Capa_1" enable-background="new 0 0 512.075 512.075" height="512" viewBox="0 0 512.075 512.075" width="512" xmlns="http://www.w3.org/2000/svg"><g><path d="m349.906 136.582c-32.99 0-59.733 26.744-59.733 59.733s26.744 59.733 59.733 59.733 59.733-26.744 59.733-59.733c-.042-32.972-26.76-59.69-59.733-59.733zm0 102.4c-13.359-.039-25.921-6.361-33.911-17.067h67.823c-7.991 10.706-20.553 17.028-33.912 17.067zm-8.533-42.666c0-4.713 3.821-8.533 8.533-8.533 4.713 0 8.533 3.821 8.533 8.533 0 4.713-3.821 8.533-8.533 8.533s-8.533-3.821-8.533-8.533zm50.347 8.533h-17.783c1.011-2.733 1.542-5.62 1.57-8.533 0-14.138-11.462-25.6-25.6-25.6s-25.6 11.462-25.6 25.6c.028 2.914.559 5.8 1.57 8.533h-17.783c-4.689-23.093 10.23-45.615 33.323-50.304s45.615 10.23 50.304 33.323c1.137 5.603 1.137 11.378-.001 16.981z"/><path d="m221.906 196.316c0-32.99-26.744-59.733-59.733-59.733s-59.733 26.744-59.733 59.733 26.744 59.733 59.733 59.733c32.974-.038 59.696-26.759 59.733-59.733zm-59.733-42.667c23.564-.005 42.671 19.094 42.675 42.658.001 2.869-.288 5.731-.862 8.542h-17.783c1.011-2.733 1.542-5.62 1.57-8.533 0-14.138-11.462-25.6-25.6-25.6s-25.6 11.462-25.6 25.6c.028 2.914.559 5.8 1.57 8.533h-17.783c-4.713-23.088 10.183-45.625 33.271-50.338 2.811-.574 5.673-.863 8.542-.862zm-8.533 42.667c0-4.713 3.821-8.533 8.533-8.533 4.713 0 8.533 3.821 8.533 8.533 0 4.713-3.821 8.533-8.533 8.533-4.713 0-8.533-3.821-8.533-8.533zm-25.378 25.6h67.823c-13.893 18.729-40.338 22.649-59.067 8.756-3.333-2.473-6.284-5.423-8.756-8.756z"/><path d="m256.04 162.182c32.99 0 59.733-26.744 59.733-59.733s-26.743-59.733-59.733-59.733-59.733 26.744-59.733 59.733c.042 32.972 26.76 59.691 59.733 59.733zm0-17.066c-13.359-.039-25.921-6.361-33.911-17.067h67.823c-7.991 10.706-20.553 17.028-33.912 17.067zm-8.534-42.667c0-4.713 3.821-8.533 8.533-8.533 4.713 0 8.533 3.821 8.533 8.533 0 4.713-3.821 8.533-8.533 8.533s-8.533-3.82-8.533-8.533zm8.534-42.667c23.564-.005 42.671 19.094 42.675 42.658.001 2.869-.288 5.731-.862 8.542h-17.783c1.011-2.733 1.542-5.62 1.57-8.533 0-14.138-11.462-25.6-25.6-25.6s-25.6 11.462-25.6 25.6c.028 2.914.559 5.8 1.57 8.533h-17.783c-4.713-23.088 10.183-45.625 33.271-50.338 2.811-.573 5.673-.862 8.542-.862z"/><path d="m326.184 281.649h-140.288c-15.183-.078-28.309 10.573-31.36 25.446-3.643 14.478 3.439 29.514 16.922 35.925 13.318 6.051 27.433 10.169 41.916 12.228v20.267c0 23.564 19.103 42.667 42.667 42.667s42.667-19.103 42.667-42.667v-20.267c14.493-2.061 28.616-6.184 41.941-12.245 13.486-6.399 20.577-21.431 16.939-35.908-3.062-14.885-16.208-25.538-31.404-25.446zm-44.544 93.867c0 14.138-11.462 25.6-25.6 25.6s-25.6-11.462-25.6-25.6v-34.133c0-4.713 3.821-8.533 8.533-8.533h8.533v34.133c0 4.713 3.821 8.533 8.533 8.533 4.713 0 8.533-3.821 8.533-8.533v-34.133h8.533c4.713 0 8.533 3.821 8.533 8.533v34.133zm51.618-47.889c-11.104 5.04-22.843 8.545-34.893 10.419-1.647-12.704-12.448-22.224-25.259-22.263h-34.133c-12.81.039-23.611 9.559-25.259 22.263-12.038-1.868-23.766-5.367-34.859-10.402-6.307-2.954-9.555-10.035-7.68-16.742 1.344-7.069 7.524-12.185 14.72-12.186h140.288c7.2-.002 13.383 5.119 14.72 12.194 1.878 6.692-1.355 13.76-7.645 16.717z"/><path d="m451.171 193.141c1.66-14.988 1.324-30.13-.998-45.03 7.674-6.607 14.677-13.956 20.907-21.939.188-.24.362-.491.521-.751 25.335-33.109 35.84-74.854 40.26-104.192 1.222-7.921-2.857-15.714-10.061-19.226-7.128-3.62-15.784-2.162-21.333 3.593-12.031 12.496-25.735 23.265-40.721 32-11.764 6.708-24.263 12.036-37.248 15.881-33.87-34.303-80.103-53.554-128.308-53.428h-36.301c-48.213-.112-94.449 19.154-128.316 53.47-12.988-3.863-25.489-9.206-37.257-15.923-14.98-8.746-28.678-19.523-40.703-32.026-5.558-5.741-14.21-7.187-21.333-3.567-7.217 3.523-11.288 11.344-10.035 19.277 4.369 29.269 14.899 71.006 40.218 104.107.161.271.341.53.538.777 6.228 7.988 13.231 15.339 20.907 21.948-2.331 14.896-2.666 30.037-.998 45.022l-56.604 138.444c-11.909 28.734 1.73 61.683 30.465 73.592 6.844 2.837 14.18 4.295 21.589 4.292 7.357-.004 14.645-1.417 21.47-4.164 8.94-3.547 16.825-9.323 22.903-16.777 10.633 18.425 24.509 34.776 40.96 48.265-22.804 5.782-38.895 26.141-39.253 49.664 0 14.138 11.462 25.6 25.6 25.6h68.267c20.602-.042 38.232-14.799 41.899-35.072 5.888.58 11.861.939 17.835.939 5.973 0 11.947-.358 17.835-.939 3.667 20.273 21.297 35.03 41.899 35.072h68.267c14.138 0 25.6-11.462 25.6-25.6-.633-23.413-16.614-43.611-39.253-49.613 16.453-13.506 30.329-29.874 40.96-48.316 6.076 7.459 13.961 13.238 22.903 16.785 6.824 2.74 14.108 4.151 21.461 4.156 31.105.012 56.33-25.194 56.341-56.299.003-7.404-1.454-14.736-4.288-21.577zm-36.3-125.619c8.927-3.08 17.617-6.807 26.001-11.153 9.8 19.093 14.871 40.26 14.788 61.722-3.037 3.719-6.261 7.282-9.66 10.675-6.171-22.293-16.757-43.12-31.129-61.244zm77.704-49.946c.378-.5 1.078-.623 1.604-.282.596.22.936.849.794 1.468-3.675 26.55-11.82 52.287-24.09 76.117-2.226-16.423-7.367-32.317-15.181-46.933 13.416-8.674 25.789-18.865 36.873-30.37zm-474.675-.281c.517-.333 1.201-.222 1.587.256 11.086 11.501 23.458 21.689 36.873 30.361-7.818 14.629-12.953 30.538-15.164 46.976-12.27-23.812-20.415-49.532-24.09-76.066-.156-.636.184-1.289.794-1.527zm38.511 100.779c-.087-21.456 4.985-42.619 14.788-61.705 8.382 4.355 17.072 8.089 26.001 11.17-14.368 18.124-24.954 38.947-31.13 61.235-3.402-3.397-6.626-6.969-9.659-10.7zm15.036 271.36c-10.001 4.066-21.224 3.893-31.095-.478-19.432-8.695-28.418-31.274-20.275-50.944l45.44-111.053 14.097 100.378c2.121 14.917 6.225 29.484 12.203 43.315-4.234 8.572-11.489 15.274-20.369 18.816v-.034zm124.859 105.548h-68.266c-4.713 0-8.533-3.821-8.533-8.533.248-18.748 15.386-33.885 34.133-34.133h9.941c17.843 10.682 37.404 18.189 57.813 22.187-2.448 11.911-12.927 20.465-25.088 20.479zm162.134-42.666c18.559.689 33.445 15.575 34.133 34.133 0 4.713-3.821 8.533-8.533 8.533h-68.267c-12.161-.014-22.64-8.568-25.088-20.48 20.409-3.997 39.97-11.504 57.813-22.187h9.942zm-102.4 8.533c-79.498.492-147.366-57.313-159.531-135.876l-18.15-129.271c-6.149-44.426 7.26-89.337 36.762-123.119 30.964-35.389 75.746-55.622 122.769-55.467h36.301c47.024-.159 91.807 20.074 122.769 55.467 29.499 33.772 42.906 78.676 36.753 123.093l-18.099 129.297c-12.168 78.579-80.06 136.389-159.574 135.876zm215.688-71.859c-9.864 4.375-21.084 4.547-31.078.478-8.875-3.531-16.132-10.217-20.378-18.773 5.974-13.832 10.078-28.399 12.203-43.315l14.089-100.378 45.449 111.053c8.14 19.669-.85 42.246-20.285 50.935z"/></g></svg>