<svg id="Capa_1" enable-background="new 0 0 511.915 511.915" height="512" viewBox="0 0 511.915 511.915" width="512" xmlns="http://www.w3.org/2000/svg"><g><path d="m451.667 393.768c-1.18 27.78-24.399 50.09-52.428 50.43-12.21.14-23.472-3.79-32.516-10.52-29.481 24.62-69.428 39.76-110.766 40.62v-234.05h162.377c-.081.22-.161.43-.242.65 7.017 18.76 10.859 39.05 10.859 60.24 0 1.08-.01 2.15-.03 3.23-.393 21.34 4.981 42.33 15.728 60.82 4.851 8.35 7.462 18.15 7.018 28.58z" fill="#767678"/><path d="m255.958 474.298c-41.95-.3-81.64-15.51-111.46-40.62-8.97 6.73-20.14 10.66-32.25 10.52-27.8-.34-50.83-22.65-52-50.43-.44-10.43 2.15-20.23 6.96-28.58 10.66-18.49 15.99-39.48 15.6-60.82-.02-1.08-.03-2.15-.03-3.23 0-21.19 3.81-41.48 10.77-60.24-.08-.22-.16-.43-.24-.65l162.65.691z" fill="#666667"/><path d="m376.018 504.428h-57.68s-222.92-52.69-63.59-173.17c.4-.01.81-.01 1.21-.01 22.34 0 43.69 4.23 63.3 11.94 45.66 17.94 81.86 54.72 99.02 100.77 10.93 29.3-10.99 60.47-42.26 60.47z" fill="#a8e1f6"/><path d="m318.338 504.428h-182.44c-31.27 0-53.19-31.17-42.26-60.47 17.16-46.05 53.36-82.83 99.02-100.77 19.26-7.57 40.19-11.79 62.09-11.93-3.78 30.6-11.08 136.94 63.59 173.17z" fill="#91d4f2"/><path d="m331.248 383.958c0 36.29-25.68 66.59-59.87 73.7 0 0-96.22-44.31-16.63-126.4.4-.01.81-.01 1.21-.01 22.34 0 43.69 4.23 63.3 11.94 7.59 11.75 11.99 25.75 11.99 40.77z" fill="#ffcbbe"/><path d="m271.378 457.658c-4.97 1.04-10.13 1.59-15.42 1.59-41.58 0-75.29-33.71-75.29-75.29 0-15.02 4.4-29.02 11.99-40.77 19.26-7.57 40.19-11.79 62.09-11.93-2.66 21.55-7.07 80.66 16.63 126.4z" fill="#ffbbae"/><circle cx="414.075" cy="255.958" fill="#ffcbbe" r="45.176"/><circle cx="97.84" cy="255.957" fill="#ffddcf" r="45.176"/><path d="m414.078 255.958c0 21.26-4.2 41.54-11.81 60.06-23.64 57.54-80.24 98.06-146.31 98.06 0 0-246.77-46.54-72.21-298.82 0-.01.01-.01.01-.02 21.65-11.12 46.19-17.4 72.2-17.4 87.33 0 158.12 70.79 158.12 158.12z" fill="#ffddcf"/><path d="m255.958 414.078c-66.07 0-122.67-40.52-146.31-98.06-7.61-18.52-11.81-38.8-11.81-60.06 0-61.32 34.9-114.48 85.91-140.7-30.67 53.99-105.8 219.56 72.21 298.82z" fill="#ffcbbe"/><ellipse cx="177.581" cy="272.195" fill="#ffa1ac" rx="28.919" ry="23.03"/><ellipse cx="334.334" cy="272.195" fill="#ffa1ac" rx="28.919" ry="23.03"/><path d="m429.138 185.968c0 6.83-.37 13.57-1.1 20.19-.67 6.1-5.86 10.74-11.99 10.49-4.027-1.342-53.737-1.238-112.29-75.13-23.03 20.59-47.43 35.65-71.25 46.64-156.3-52.6-6.73-177.94-6.73-177.94 9.77-1.79 19.81-2.72 30.06-2.73 24.52-.02 47.86 5.24 69.01 14.7 6.09-4.37 13.48-6.94 21.46-6.94 20.79 0 37.65 17.37 37.65 38.8 20.79 0 37.65 17.37 37.65 38.79 0 8.23-2.49 15.86-6.73 22.13 9.17 21.76 14.26 45.76 14.26 71z" fill="#767678"/><path d="m232.508 188.158c-71.504 32.993-134.465 28.383-136.99 28.6-5.99 0-10.98-4.52-11.63-10.47-3.375-30.802.906-62.108 13.22-91.22-4.28-6.29-6.8-13.95-6.8-22.23 0-21.42 16.86-38.79 37.65-38.79 0-21.43 16.86-38.8 37.65-38.8 8.02 0 15.45 2.6 21.56 7.01 12.21-5.49 25.15-9.57 38.61-12.04-20.91 36.79-49.37 110.64 6.73 177.94z" fill="#666667"/><g fill="#efedfe"><ellipse cx="89.781" cy="302.134" rx="15.059" ry="15.059" transform="matrix(.707 -.707 .707 .707 -187.345 151.978)"/><ellipse cx="423.134" cy="301.134" rx="15.059" ry="15.059" transform="matrix(.707 -.707 .707 .707 -89.001 387.401)"/></g></g><g><path d="m437.251 318.699c6.317-5.084 9.479-13.129 8.134-21.267 32.794-24.428 26.599-75.495-10.485-91.686 4.452-31.695.477-63.746-11.599-93.302 15.363-27.178-1.172-61.902-32.38-66.752-4.851-31.208-39.583-47.741-66.754-32.379-43.581-17.77-92.814-17.75-136.314.061-27.141-15.439-61.996 1.023-66.86 32.318-31.243 4.856-47.789 39.657-32.319 66.858-12.098 29.508-16.098 61.523-11.667 93.195-37.039 16.176-43.293 67.358-10.479 91.686-1.344 8.131 1.812 16.179 8.134 21.267-1.659 15.186-6.345 29.546-13.954 42.733-17.157 29.783-5.761 67.831 24.699 83.551-9.907 33.685 15.937 66.932 50.49 66.932h165.095c4.142 0 7.5-3.358 7.5-7.5s-3.358-7.5-7.5-7.5h-165.096c-26.135 0-44.328-25.965-35.232-50.352 9.507-25.515 25.253-48.337 45.715-66.386 8.792 7.813 18.326 14.595 28.443 20.293 7.793 38.369 41.64 66.265 81.134 66.265 39.373 0 73.302-27.77 81.128-66.239 10.125-5.7 19.662-12.491 28.458-20.31 20.457 18.048 36.201 40.867 45.707 66.381 9.096 24.385-9.101 50.349-35.233 50.349h-44.531c-4.142 0-7.5 3.358-7.5 7.5s3.358 7.5 7.5 7.5h44.531c34.555 0 60.397-33.251 50.49-66.932 30.444-15.712 41.866-53.75 24.696-83.556-7.607-13.182-12.293-27.543-13.951-42.728zm-20.854-20.989c1.25-2.456 3.796-4.147 6.736-4.147 4.168 0 7.559 3.391 7.559 7.559s-3.391 7.559-7.559 7.559c-4.319 0-8.764-3.256-6.736-10.971zm21.586-13.548c-4.75-4.165-11.124-6.274-17.792-5.401 2.777-20.001 1.817-40.56-2.996-60.823 1.309.014 3.549.024 7.579.04 28.491 8.535 36.81 46.515 13.209 66.184zm-334.002-169.299c3.199-7.34-6.175-9.235-6.175-24.568 0-16.619 13.525-30.14 30.15-30.14 4.142 0 7.5-3.358 7.5-7.5 0-24.44 27.622-38.567 47.407-24.707 2.141 1.499 4.906 1.776 7.3.732 41.804-18.225 89.805-18.248 131.697-.065 7.301 3.168 9.205-6.11 24.446-6.11 16.624 0 30.15 13.525 30.15 30.15 0 4.142 3.358 7.5 7.5 7.5 16.624 0 30.15 13.521 30.15 30.14 0 15.285-9.297 17.12-6.109 24.458 12.076 27.799 16.24 58.162 12.149 88.204-40.618-.21-84.397-38.113-110.582-70.176-2.674-3.274-7.527-3.694-10.724-.921-23.884 20.719-51.431 37.314-81.874 49.324-3.853 1.52-5.744 5.876-4.224 9.729s5.876 5.743 9.729 4.224c29.579-11.669 56.579-27.471 80.363-47.019 38.931 45.516 74.616 61.824 98.259 67.402 12.192 43.688 4.652 91.017-23.902 129.744-60.118 81.535-181.515 81.896-242.081.515-27.364-36.768-36.64-83.032-24.958-127.744 24.873 0 55.135-5.189 79.497-11.933 3.992-1.105 6.332-5.237 5.227-9.229-1.106-3.992-5.237-6.331-9.229-5.227-52.671 14.581-87.308 10.913-93.877 11.389-4.086-30.044.098-60.397 12.211-88.172zm-17.03 103.172h7.734c-4.795 20.233-5.718 40.76-2.945 60.728-6.584-.867-12.986 1.168-17.812 5.398-23.515-19.601-15.36-57.459 13.023-66.126zm9.358 82.513c.338 4.465-3.205 8.133-7.53 8.133-4.168 0-7.559-3.391-7.559-7.559s3.391-7.559 7.559-7.559c5.401 0 6.747 4.211 7.53 6.985zm-5.429 130.358c-21.86-12.275-29.759-40.142-17.178-61.982 8.095-14.028 13.282-29.222 15.462-45.253 5.09-.086 9.773-1.865 13.512-4.798 8.035 19.35 19.459 36.494 32.927 50.827-19.083 17.049-34.345 37.93-44.723 61.206zm102.207-21.599c39.337 16.085 85.129 16.607 125.728.024-22.766 56.258-102.882 56.494-125.728-.024zm227.945 21.599c-10.378-23.274-25.637-44.152-44.716-61.2 13.882-14.782 25.111-32.014 32.925-50.829 3.738 2.931 8.419 4.708 13.507 4.794 2.18 16.031 7.367 31.224 15.459 45.248 12.589 21.853 4.679 49.716-17.175 61.987z"/><path d="m173.168 247.122c0 4.142 3.358 7.5 7.5 7.5s7.5-3.358 7.5-7.5c0-3.455 2.811-6.265 6.265-6.265 3.455 0 6.265 2.81 6.265 6.265 0 4.142 3.358 7.5 7.5 7.5s7.5-3.358 7.5-7.5c0-11.726-9.54-21.265-21.265-21.265s-21.265 9.539-21.265 21.265z"/><path d="m303.713 254.622c4.142 0 7.5-3.358 7.5-7.5 0-3.455 2.811-6.265 6.265-6.265s6.265 2.81 6.265 6.265c0 4.142 3.358 7.5 7.5 7.5s7.5-3.358 7.5-7.5c0-11.726-9.54-21.265-21.265-21.265-11.726 0-21.265 9.539-21.265 21.265 0 4.142 3.358 7.5 7.5 7.5z"/><path d="m276.211 268.138c2.721-3.123 2.396-7.86-.727-10.582s-7.86-2.397-10.582.726c-4.793 5.501-13.195 5.391-17.894 0-2.721-3.123-7.46-3.447-10.581-.727-3.123 2.722-3.448 7.459-.727 10.582 10.72 12.301 29.804 12.287 40.511.001z"/></g></svg>