<svg id="Capa_1" enable-background="new 0 0 511.972 511.972" height="512" viewBox="0 0 511.972 511.972" width="512" xmlns="http://www.w3.org/2000/svg"><g><path d="m376.046 504.456h-76.06l-44-16.61-10.9 4.1c-22.68-17.8-47.33-60.04-16.07-158.58 82.015-12.876 160.754 34.032 189.29 110.62 10.93 29.3-10.99 60.47-42.26 60.47z" fill="#767678"/><path d="m261.176 489.806-5.19-1.96-44.1 16.61h-75.96c-31.27 0-53.19-31.17-42.26-60.47 17.23-46.24 53.65-83.13 99.57-101 11.39-4.43 23.37-7.68 35.78-9.62.05 14.71 1.59 103.75 32.16 156.44z" fill="#666667"/><circle cx="414.104" cy="255.986" fill="#ffcbbe" r="45.176"/><circle cx="97.868" cy="255.986" fill="#ffddcf" r="45.176"/><path d="m318.636 342.956-18.65 161.5h-28.71s-92.05-14.14-42.26-171.09c8.79-1.38 17.8-2.09 26.97-2.09 22.09 0 43.22 4.14 62.65 11.68z" fill="#efedfe"/><path d="m271.276 504.456h-59.39l-18.65-161.47c11.39-4.43 23.37-7.68 35.78-9.62.05 16.19 1.92 122.36 42.26 171.09z" fill="#dedef9"/><path d="m169.969 386.899-14.935 45.961c-1.992 6.129-.631 12.994 3.49 17.605l43.848 49.067c7.885 8.823 21.311 5.277 24.837-6.561l5.419-18.192c1.258-4.223.965-8.833-.814-12.815l-34.331-76.836c-5.89-13.18-23.013-12.078-27.514 1.771z" fill="#575757"/><path d="m342.003 386.899 14.935 45.961c1.992 6.129.631 12.994-3.49 17.605l-43.848 49.068c-7.885 8.823-21.311 5.277-24.837-6.561l-5.419-18.192c-1.258-4.223-.965-8.833.814-12.815l34.331-76.836c5.89-13.181 23.013-12.08 27.514 1.77z" fill="#666667"/><path d="m414.106 255.986c0 87.721-71.154 158.12-158.12 158.12-9.78 0-19.36-.89-28.65-2.59 0 0-191.26-50.73-51.26-292 23.45-13.76 50.76-21.65 79.91-21.65 87.33 0 158.12 70.79 158.12 158.12z" fill="#ffddcf"/><path d="m227.336 411.516c-74.026-13.532-129.47-78.385-129.47-155.53 0-58.18 31.42-109.02 78.21-136.47-27.41 54.09-81.88 197.59 51.26 292z" fill="#ffcbbe"/><path d="m263.981 318.074c28.412 7.877 50.192 2.638 61.223-3.836 3.515-2.063 3.096-7.262-.686-8.782-7.205-2.895-16.964-7.359-21.429-11.824-7.529-7.53-15.059-22.588-45.176-22.588-30.118 0-37.647 15.059-45.176 22.588-4.465 4.465-14.224 8.929-21.429 11.824-3.782 1.519-4.201 6.719-.686 8.781 11.031 6.474 32.811 11.713 61.223 3.836 3.968-1.099 8.169-1.099 12.136.001z" fill="#eaaa83"/><path d="m428.806 197.386c-.73 11.62-11.66 19.89-23.04 17.44-22.39-4.81-60.39-21-101.98-73.43-24.17 21.59-49.84 37.08-74.76 48.18-136.18-38.51-10.54-177.86-10.54-177.86 12.08-2.75 24.62-4.2 37.5-4.2 68.97 0 128.53 41.51 156.38 101.6 12.721 27.427 18.353 57.748 16.44 88.27z" fill="#eaaa83"/><path d="m229.026 189.576c-52.44 23.36-101.59 27.27-126.55 27.49-10.11.09-18.46-7.77-19.19-17.86-2.213-30.554 3.111-61.611 16.32-90.09 22.65-48.87 66.28-85.45 118.88-97.4-10.44 38-23.09 111.97 10.54 177.86z" fill="#e4996d"/></g><g><path d="m434.667 207.518c7.672-51.342-6.953-103.283-40.471-143.146-62.253-74.038-172.214-85.903-248.58-26.773-3.275 2.536-3.874 7.247-1.338 10.522s7.247 3.874 10.522 1.338c69.679-53.953 170.583-43.62 227.916 24.566 30.287 36.02 43.759 82.797 37.42 129.202-42.196-1.793-83.84-37.673-110.557-70.39-2.674-3.274-7.527-3.694-10.724-.921-58.229 50.517-138.449 73.941-207.022 71.52-6.503-47.111 7.381-94.459 38.541-130.75 2.698-3.143 2.338-7.878-.805-10.576-3.142-2.699-7.878-2.338-10.576.804-34.48 40.158-49.548 92.74-41.677 144.865-34.884 13.778-44.051 61.927-13.959 88.026 9.544 8.277 22.082 13.134 35.572 12.863 11.492 34.276 33.276 62.714 61.662 82.743l-12.701 39.109c-2.833 8.731-.906 18.285 5.031 24.934l37.087 41.517h-54.093c-26.135 0-44.328-25.965-35.232-50.352 6.835-18.345 16.805-35.209 29.632-50.123 2.701-3.14 2.345-7.876-.795-10.577-3.141-2.701-7.876-2.345-10.577.796-13.987 16.263-24.86 34.655-32.314 54.665-12.935 34.674 13.294 70.591 49.287 70.591h240.12c35.983 0 62.225-35.909 49.288-70.589-10.229-27.456-27.091-52.05-48.973-71.615 16.732-17.677 29.147-38.576 36.712-61.099 29.589.573 53.703-23.289 53.703-52.668-.002-21.132-12.619-40.206-32.099-48.482zm-374.483 48.484c0-19.223 14.517-35.491 33.838-37.475.189.005.388.009.582.013-5.767 24.774-5.749 50.298.027 74.998-19.567-1.689-34.447-18.064-34.447-37.536zm52.868 47.619c-9.229-27.708-10.232-57.046-2.973-85.195 67.63-2.295 138.037-25.288 192.769-70.252 39.182 45.799 75.113 61.93 98.261 67.421 17.073 61.355-6.092 126.648-58.506 163.636-83.21 58.645-198.016 19.066-229.551-75.61zm236.738 131.53c1.157 3.566.373 7.71-1.95 10.311l-43.852 49.09c-4.087 4.578-10.261 2.302-12.047-3.711l-5.42-18.194c-.746-2.506-.574-5.289.47-7.63l23.459-52.536c9.556-3.338 18.879-7.582 27.841-12.733zm-187.633.002 11.5-35.41c8.957 5.146 18.277 9.393 27.837 12.732l23.461 52.539c2.69 6.034-.981 10.286-4.949 25.832-1.8 6.056-7.988 8.253-12.048 3.705l-43.849-49.087c-2.325-2.603-3.108-6.747-1.952-10.311zm76.495 23.748-18.345-41.082c22.644 5.004 46.955 5.387 71.331.003l-18.345 41.082c-2.519 5.648-2.927 12.048-1.148 18.023 5.9 19.808 5.519 18.69 6.094 20.044h-44.544c.612-1.405.209-.248 6.106-20.046 1.779-5.972 1.371-12.373-1.149-18.024zm172.615-12.277c9.096 24.385-9.101 50.349-35.233 50.349h-54.094l37.088-41.518c5.935-6.648 7.863-16.201 5.029-24.935l-12.701-39.107c4.967-3.511 9.689-7.257 14.169-11.208 20.476 18.061 36.232 40.895 45.742 66.419zm6.09-153.09c5.645-24.237 5.838-49.868-.035-75.067 19.566 1.692 34.442 18.066 34.442 37.535 0 19.608-15.006 35.837-34.407 37.532z"/><path d="m207.422 288.346c-1.29 1.29-5.715 4.862-18.922 10.168-9.567 3.844-10.564 16.998-1.686 22.21 14.597 8.566 38.728 12.439 67.023 4.595 2.66-.737 5.47-.737 8.129 0 37.3 10.342 60.73-.902 67.023-4.595 8.894-5.219 7.865-18.372-1.686-22.209-13.208-5.307-17.632-8.879-18.922-10.168-7.44-7.44-16.774-24.785-50.48-24.785-33.547-.001-42.861 17.167-50.479 24.784zm10.606 10.607c8.121-8.121 13.408-20.392 39.873-20.392 26.448 0 31.744 12.262 39.874 20.392 3.601 3.602 9.865 7.38 18.66 11.261-11.129 4.539-28.9 6.628-50.461.65-5.28-1.464-10.863-1.465-16.144 0-21.562 5.978-39.333 3.89-50.461-.65 8.793-3.881 15.057-7.659 18.659-11.261z"/><path d="m180.693 254.679c4.142 0 7.5-3.358 7.5-7.5 0-3.455 2.811-6.265 6.265-6.265 3.455 0 6.265 2.81 6.265 6.265 0 4.142 3.358 7.5 7.5 7.5s7.5-3.358 7.5-7.5c0-11.726-9.54-21.265-21.265-21.265s-21.265 9.539-21.265 21.265c0 4.142 3.358 7.5 7.5 7.5z"/><path d="m303.738 254.679c4.142 0 7.5-3.358 7.5-7.5 0-3.455 2.81-6.265 6.265-6.265s6.265 2.81 6.265 6.265c0 4.142 3.358 7.5 7.5 7.5s7.5-3.358 7.5-7.5c0-11.726-9.539-21.265-21.265-21.265s-21.265 9.539-21.265 21.265c0 4.142 3.358 7.5 7.5 7.5z"/></g></svg>