<svg id="Capa_1" enable-background="new 0 0 511.925 511.925" height="512" viewBox="0 0 511.925 511.925" width="512" xmlns="http://www.w3.org/2000/svg"><g><path d="m451.972 319.037c-11.069-16.104-16.6-34.391-16.195-52.975.021-.935.031-1.872.031-2.812 0-18.456-359.69-18.456-359.69 0 0 .94.01 1.877.031 2.812.405 18.585-5.126 36.872-16.195 52.975-5 7.274-7.691 15.807-7.234 24.891 1.215 24.193 25.129 43.627 54 43.92 12.578.128 24.178-3.297 33.495-9.16 31.279 22.088 71.666 35.388 115.75 35.388s84.471-13.3 115.75-35.388c9.317 5.863 20.917 9.287 33.495 9.16 28.87-.293 52.784-19.726 54-43.92.453-9.084-2.237-17.616-7.238-24.891z" fill="#f6ca56"/><path d="m376.023 504.429h-112.4s-143.29-75-38.86-170.37c84.154-15.385 164.755 32.702 193.52 109.9 10.93 29.3-10.99 60.47-42.26 60.47z" fill="#7888af"/><path d="m263.623 504.429h-127.72c-31.27 0-53.19-31.17-42.26-60.47 20.929-56.153 70.333-98.848 131.12-109.9 4.68 40.28 15.92 115.54 38.86 170.37z" fill="#687daa"/><path d="m346.313 376.429c-41.33 10.33-68.48 97.06-81.45 122.56-.6 1.18-1.37 2.16-2.27 2.95 0 0-45.58-21.98-37.83-167.88 10.12-1.85 20.55-2.81 31.2-2.81 32.86 0 63.59 9.16 89.77 25.07z" fill="#ffcbbe"/><path d="m262.593 501.939c-1.78 1.59-4.03 2.42-6.3 2.49-.22.01-.44.01-.66 0-3.41-.11-6.78-1.92-8.57-5.44-12.97-25.5-40.12-112.23-81.45-122.56l-.82-19.26c18.05-11.2 38.3-19.17 59.97-23.11 4.61 39.67 15.59 113.28 37.83 167.88z" fill="#ffbbae"/><circle cx="414.08" cy="255.959" fill="#ffcbbe" r="45.176"/><circle cx="97.845" cy="255.959" fill="#ffddcf" r="45.176"/><path d="m402.273 316.019c-23.64 57.54-80.24 98.06-146.31 98.06-13.57 0-26.74-1.71-39.3-4.93 0 0-.06-.03-.17-.08-2.59-1.26-34.28-17.08-62.27-47.35-.01-.01-.03-.03-.05-.05-38.91-44.19-67.97-120.74 11.82-235.76 25.54-17.7 56.55-28.07 89.97-28.07 112.814 0 188.801 114.772 146.31 218.18z" fill="#ffddcf"/><path d="m216.663 409.149c-48.62-12.43-88.22-47.41-107.01-93.13-7.61-18.52-11.81-38.8-11.81-60.06 0-53.9 26.97-101.51 68.15-130.05l.04 1.53s-84.63 143.69 50.63 281.71z" fill="#ffcbbe"/><ellipse cx="176.406" cy="261.522" fill="#ffa1ac" rx="29.355" ry="23.377"/><ellipse cx="335.519" cy="261.522" fill="#ffa1ac" rx="29.355" ry="23.377"/><path d="m433.669 177.501c0 6.468-3.386 12.85-4.148 19.119-.699 5.776-6.115 10.17-12.511 9.934-4.202-1.271-54.773-21.328-115.871-91.301-24.031 19.498-44.79 35.348-69.645 45.755-163.092-49.81-7.022-149.933-7.022-149.933 10.195-1.695 20.671-2.576 31.366-2.585 25.586-.019 49.94 4.962 72.009 13.92 6.355-4.138 14.066-6.572 22.392-6.572 21.693 0 39.286 16.449 39.286 36.742 21.693 0 39.286 16.449 39.286 36.732 0 7.793-2.598 15.019-7.022 20.956 9.568 20.605 11.88 43.332 11.88 67.233z" fill="#f9d171"/><path d="m231.495 161.007c-74.611 31.243-136.308 45.445-138.942 45.65-6.25 0-11.457-4.28-12.135-9.915-3.522-29.168-3.054-58.813 9.795-86.381-17.992-23.996.168-57.783 32.19-57.783 0-29.872 36.03-46.972 61.783-30.104 12.741-5.199 26.243-9.062 40.288-11.401-21.82 34.84-51.517 86.204 7.021 149.934z" fill="#f3c23b"/></g><g><path d="m448.253 295.957c30.82-26.342 21.387-76.273-16.798-89.703 6.305-15.853 11.761-32.296 11.761-47.929 0-20.537-4.559-40.457-13.561-59.283 15.468-24.27-1.735-55.186-34.068-59.281-5.592-27.178-40.821-41.684-68.78-28.03-45.291-15.66-96.563-15.64-141.748.053-27.867-13.687-63.273.661-68.894 27.977-32.423 4.107-49.567 35.145-33.999 59.384-16.357 34.188-17.942 72.976-4.499 108.115-36.388 15.024-43.947 63.245-14.168 88.697-2.441 6.553-5.721 12.871-9.812 18.828-6.115 8.892-9.069 19.1-8.542 29.515 1.6 31.974 34.234 52.963 66.81 50.912-10.651 14.015-19.249 29.545-25.426 46.122-12.935 34.674 13.294 70.592 49.287 70.592h187.683c4.142 0 7.5-3.358 7.5-7.5s-3.358-7.5-7.5-7.5h-49.44c9.113-20.075 23.387-59.7 42.715-86.902 17.784-7.036 34.064-17.018 48.645-29.865 20.478 18.053 36.237 40.887 45.75 66.419 9.096 24.384-9.101 50.349-35.233 50.349h-22.085c-4.142 0-7.5 3.358-7.5 7.5s3.358 7.5 7.5 7.5h22.085c35.987 0 62.224-35.913 49.288-70.589-6.177-16.579-14.776-32.11-25.426-46.125 49.122 3.093 84.179-42.751 58.271-80.423-4.095-5.961-7.375-12.28-9.816-18.833zm3.412-40.002c0 19.474-14.882 35.842-34.435 37.535 5.742-24.649 5.753-50.324-.009-75.071 19.526 1.687 34.444 18.029 34.444 37.536zm-391.58 0c0-19.489 14.903-35.857 34.456-37.538-5.746 24.733-5.718 50.457-.001 75.076-19.572-1.684-34.455-18.068-34.455-37.538zm5.963 67.326c4.184-6.091 7.642-12.517 10.367-19.176 6.97 3.093 14.545 4.672 22.398 4.518 7.503 22.385 19.865 43.332 36.688 61.106-2.345 2.097-4.646 4.238-6.874 6.448-40.714 16.922-85.443-19.651-62.579-52.896zm34.535 123.293c9.512-25.529 25.27-48.363 45.749-66.416 14.58 12.846 30.86 22.829 48.645 29.865 19.323 27.196 33.59 66.799 42.715 86.902h-101.877c-26.134 0-44.328-25.965-35.232-50.351zm157.51 49.006c-.562 1.102-1.513 1.322-2.101 1.346-1.653 0-2.174-1.031-2.331-1.34-7.211-14.183-19.416-49.15-36.423-78.545 25.32 6.046 51.94 6.049 77.275 0-16.993 29.37-29.233 64.407-36.42 78.539zm82.619-115.151c-50.886 34.754-118.419 35.005-169.673 0-54.348-37.117-77.664-104.129-60-165.913 26.767-6.17 58.019-16.581 87.888-30.051 3.776-1.703 5.456-6.144 3.754-9.92-1.703-3.777-6.145-5.456-9.92-3.754-46.637 21.031-87.216 30.213-100.664 32.23-13.157-33.237-11.267-68.963 5.473-101.156 1.397-2.687 1.041-5.95-.902-8.272-13.973-16.704 1.122-39.258 26.277-39.258 4.142 0 7.5-3.358 7.5-7.5 0-20.663 29.474-32.578 50.201-20.403 1.932 1.135 4.272 1.346 6.377.576 43.737-16.011 93.972-16.032 137.825-.056 2.096.763 4.422.554 6.349-.57 20.706-12.091 50.108-.188 50.108 20.453 0 4.142 3.358 7.5 7.5 7.5 25.151 0 40.176 22.523 26.339 39.189-1.925 2.318-2.275 5.563-.89 8.239 9.264 17.894 13.96 36.924 13.96 56.562 0 13.305-5.069 28.299-10.916 42.936-18.593-7.391-65.884-30.748-115.345-91.32-2.694-3.299-7.553-3.672-10.724-.921-20.022 17.37-43.131 33.194-68.686 47.033-3.642 1.972-4.996 6.524-3.023 10.166s6.523 4.995 10.167 3.023c24.071-13.036 46.082-27.797 65.533-43.939 41.008 48.419 80.525 72.877 104.01 84.307 20.572 63.639-3.209 133.045-58.518 170.819zm110.913-36.878c-1.373 27.439-37.794 45.389-68.501 32.626-2.228-2.21-4.528-4.351-6.874-6.448 16.503-17.436 29.006-38.225 36.688-61.106 7.84.154 15.417-1.42 22.398-4.518 8.353 20.416 17.112 23.186 16.289 39.446z"/><path d="m193.427 219.515c-4.142 0-7.5 3.358-7.5 7.5v12c0 4.142 3.358 7.5 7.5 7.5s7.5-3.358 7.5-7.5v-12c0-4.142-3.358-7.5-7.5-7.5z"/><path d="m318.324 219.515c-4.142 0-7.5 3.358-7.5 7.5v12c0 4.142 3.358 7.5 7.5 7.5s7.5-3.358 7.5-7.5v-12c0-4.142-3.358-7.5-7.5-7.5z"/><path d="m277.267 233.004c-3.123-2.721-7.86-2.396-10.582.727-5.863 6.728-16.024 6.421-21.62 0-2.722-3.123-7.459-3.447-10.582-.727-3.122 2.722-3.448 7.459-.727 10.582 11.706 13.431 32.544 13.417 44.237 0 2.722-3.123 2.397-7.861-.726-10.582z"/></g></svg>