<svg id="Capa_1" enable-background="new 0 0 511.94 511.94" height="512" viewBox="0 0 511.94 511.94" width="512" xmlns="http://www.w3.org/2000/svg"><g><path d="m387.33 504.44h-119.29s-191.96-51.1-43.46-200.8c9.04-9.11 16.23-17.35 21.77-24.79 3.18-.19 6.39-.29 9.62-.29 81.37 0 150.76 61.15 177.6 147 11.94 38.22-12.03 78.88-46.24 78.88z" fill="#eaaa83"/><path d="m268.04 504.44h-143.43c-34.21 0-58.18-40.66-46.24-78.88 21.41-68.48 69.89-121.24 129.92-139.79l16.29 17.87s-8.15 122.66 43.46 200.8z" fill="#e4996d"/><path d="m414.09 222.09c0 85.24-70.79 154.35-158.12 154.35-14.03 0-27.64-1.79-40.6-5.14-165.91-114.46-68.83-260.63-68.83-260.63 6.8-6.38 14.18-12.15 22.06-17.26 25.03-16.22 55.07-25.68 87.37-25.68 87.33 0 158.12 69.11 158.12 154.36z" fill="#ffddcf"/><path d="m215.37 371.3c-67.66-17.49-117.52-77.67-117.52-149.21 0-53.72 28.11-101.03 70.75-128.68-33.05 82.11-51.5 196.59 46.77 277.89z" fill="#ffcbbe"/><path d="m255.97 7.5c-16.05 0-31.62 2.05-46.49 5.9 0 0-257.54 215.72 30.14 377.38 1 .09 2 .17 3 .24 4.41.32 8.86.48 13.35.48 103.96 0 188.24-85.96 188.24-192s-84.28-192-188.24-192zm0 353.88c-23.93 0-46.5-5.41-66.32-14.99-45.62-22.02-76.74-66.05-76.74-116.77 0-35.8 15.49-68.26 40.64-92.01 25.99-24.53 62.27-39.76 102.42-39.76 79.01 0 143.06 59 143.06 131.77s-64.05 131.76-143.06 131.76z" fill="#bd9cde"/><path d="m242.62 391.02c-97.73-6.98-174.89-90.06-174.89-191.52 0-89.67 60.27-164.99 141.75-186.1-16.14 25.84-41.36 71.47-55.93 124.21-25.15 23.75-40.64 56.21-40.64 92.01 0 50.72 31.12 94.75 76.74 116.77 13.9 15.9 31.35 30.91 52.97 44.63z" fill="#b18cd9"/><ellipse cx="177.594" cy="249.619" fill="#ffa1ac" rx="28.919" ry="23.03"/><ellipse cx="334.347" cy="249.619" fill="#ffa1ac" rx="28.92" ry="23.03"/><path d="m205.07 429.469 1.524 7.62c1.566 7.832 11.229 10.758 16.877 5.11l47.558-50.699-24.415-31.945-27.318 22.93c-12.299 12.298-17.637 29.929-14.226 46.984z" fill="#996acc"/><path d="m306.87 429.469-1.524 7.62c-1.566 7.832-11.229 10.758-16.877 5.11l-47.558-50.699 24.415-31.945 27.318 22.93c12.299 12.298 17.637 29.929 14.226 46.984z" fill="#a57cd2"/><circle cx="255.97" cy="376.441" fill="#b18cd9" r="22.588"/></g><g><path d="m395.342 339.522c36.814-37.983 56.363-88.715 56.363-140.022 0-110.005-87.809-199.5-195.741-199.5-31.465 0-61.516 7.38-89.316 21.935-3.67 1.921-5.087 6.454-3.166 10.123 1.921 3.67 6.456 5.088 10.123 3.166 25.632-13.42 53.342-20.224 82.359-20.224 99.661 0 180.74 82.767 180.74 184.5 0 87.94-59.765 159.608-137.362 179.133-1.854-1.982-.336-.595-14.324-12.346 70.075-12.603 121.506-69.46 121.506-136.666 0-76.794-67.541-139.27-150.56-139.27s-150.56 62.476-150.56 139.27c0 67.206 51.431 124.063 121.506 136.666-14.018 11.776-12.49 10.385-14.314 12.335-30.083-7.556-57.863-22.988-80.571-44.845-81.487-78.313-74.361-212.971 15.479-281.877 3.287-2.521 3.908-7.229 1.387-10.516-2.522-3.286-7.229-3.907-10.516-1.387-94.89 72.78-104.802 213.737-21.8 299.538-19.962 23.702-35.589 52.514-45.369 83.787-7.079 22.659-3.233 47.165 10.288 65.554 10.776 14.656 26.49 23.062 43.111 23.062h206.51c4.142 0 7.5-3.358 7.5-7.5s-3.358-7.5-7.5-7.5h-206.51c-29.39 0-49.374-36.199-39.082-69.142 9.088-29.06 23.52-55.811 41.913-77.858 21.997 19.543 47.941 33.789 75.899 41.723-6.238 11.901-8.335 25.716-5.625 39.274l1.521 7.627c2.744 13.689 19.666 18.811 29.537 8.939 2.359-2.359-7.836 8.36 27.198-28.988 36.308 38.709 24.867 26.66 27.195 28.988 9.869 9.869 26.791 4.757 29.538-8.946.227-3.717 7.991-23.806-4.099-46.883 27.942-7.953 53.939-22.307 75.878-41.753 18.4 22.05 32.838 48.809 41.928 77.874 10.256 32.828-9.636 69.144-39.082 69.144h-26.092c-4.142 0-7.5 3.358-7.5 7.5s3.358 7.5 7.5 7.5h26.092c38.451 0 67.174-44.522 53.398-88.619-9.781-31.274-25.412-60.092-45.38-83.796zm-139.378 21.831c8.32 0 15.088 6.769 15.088 15.088s-6.769 15.088-15.088 15.088-15.088-6.769-15.088-15.088c0-8.32 6.769-15.088 15.088-15.088zm-135.56-131.733c0-68.523 60.812-124.27 135.56-124.27s135.56 55.747 135.56 124.27c0 62.351-50.099 114.764-117.064 123.115-10.891-8.516-26.108-8.512-36.992 0-66.964-8.351-117.064-60.764-117.064-123.115zm97.697 207.336c-1.402 1.327-3.77.619-4.161-1.333.003-2.579-9.656-27.242 10.438-47.618l2.914-2.448c3.047 9.56 11.322 18.24 21.005 21.001zm79.89-1.34c-.393 1.959-2.758 2.669-4.163 1.339l-30.214-30.468 7.391-4.005c8.139-5.03 11.341-9.739 13.632-16.926l2.914 2.449c20.034 20.316 10.436 44.816 10.44 47.611z"/><path d="m194.442 203.293c-11.725 0-21.265 9.54-21.265 21.265 0 4.142 3.358 7.5 7.5 7.5s7.5-3.358 7.5-7.5c0-3.455 2.811-6.265 6.265-6.265 3.455 0 6.265 2.811 6.265 6.265 0 4.142 3.358 7.5 7.5 7.5s7.5-3.358 7.5-7.5c0-11.725-9.539-21.265-21.265-21.265z"/><path d="m296.222 224.559c0 4.142 3.358 7.5 7.5 7.5s7.5-3.358 7.5-7.5c0-3.455 2.811-6.265 6.265-6.265 3.455 0 6.265 2.811 6.265 6.265 0 4.142 3.358 7.5 7.5 7.5s7.5-3.358 7.5-7.5c0-11.726-9.54-21.265-21.265-21.265-11.726-.001-21.265 9.539-21.265 21.265z"/><path d="m276.22 245.575c2.721-3.123 2.396-7.86-.727-10.582-3.124-2.721-7.861-2.396-10.582.726-4.71 5.405-13.111 5.488-17.894.001-2.722-3.123-7.459-3.448-10.582-.727-3.123 2.722-3.448 7.459-.727 10.581 10.72 12.3 29.804 12.287 40.512.001z"/><path d="m306.609 172.829c4.007 1.144 8.141-1.193 9.272-5.151 1.138-3.983-1.168-8.134-5.151-9.272-35.829-10.236-73.704-10.236-109.533 0l4.122 14.423c33.132-9.467 68.159-9.467 101.29 0z"/><path d="m218.317 142.999c1.54 0 2.608-.413 4.224-1.038 28.167-10.893 52.681-5.74 68.284.502 3.862 1.546 8.218-.349 9.749-4.178 1.538-3.846-.332-8.211-4.178-9.749-18.103-7.242-46.551-13.216-79.266-.565-.271.105-.498.194-.678.262-3.24.829-5.635 3.768-5.635 7.266 0 4.143 3.358 7.5 7.5 7.5z"/><path d="m255.964 466.794c-4.158 0-7.529 3.371-7.529 7.53 0 4.158 3.371 7.529 7.529 7.529s7.529-3.371 7.529-7.529c.001-4.159-3.37-7.53-7.529-7.53z"/><path d="m255.964 436.676c-4.158 0-7.529 3.371-7.529 7.53 0 4.158 3.371 7.529 7.529 7.529s7.529-3.371 7.529-7.529c.001-4.159-3.37-7.53-7.529-7.53z"/></g></svg>