<svg id="Capa_1" enable-background="new 0 0 511.94 511.94" height="512" viewBox="0 0 511.94 511.94" width="512" xmlns="http://www.w3.org/2000/svg"><g><path d="m348.06 357.75v146.69h-74.03l-.01-.01c-1.66-.53-140.58-45.59-52.03-169.83 10.99-2.19 22.35-3.34 33.98-3.34 25.8 0 50.29 5.64 72.29 15.78 6.85 3.14 13.46 6.73 19.8 10.71z" fill="#f9d171"/><path d="m274.03 504.44h-116.84v-142.25c19.14-13.33 41.1-22.88 64.8-27.59 2.08 41.39 11.59 118.48 52.03 169.83z" fill="#f3c23b"/><circle cx="414.088" cy="255.97" fill="#ffcbbe" r="45.176"/><path d="m344.47 385.46c0 38.498-44.785 71.512-99.85 65.62-42.5-4.54-75.2-32.19-75.2-65.62 0-15.02 6.6-28.88 17.73-39.98 44.875-19.476 96.6-18.955 141.11 1.56 10.21 10.83 16.21 24.1 16.21 38.42z" fill="#ffddcf"/><path d="m244.62 451.08c-42.5-4.54-75.2-32.19-75.2-65.62 0-27.08 21.45-50.37 52.19-60.64.76 27.01 4.77 78.65 23.01 126.26z" fill="#ffcbbe"/><path d="m376.03 504.44h-75.97s.83-86.39 66.53-133.24c23.05 19.15 41.05 44.17 51.7 72.77 10.93 29.3-10.99 60.47-42.26 60.47z" fill="#ff8a98"/><path d="m211.88 504.44h-75.97c-31.27 0-53.19-31.17-42.26-60.47 10.65-28.6 28.65-53.62 51.7-72.77 65.7 46.85 66.53 133.24 66.53 133.24z" fill="#ff6e80"/><circle cx="97.852" cy="255.97" fill="#ffcbbe" r="45.176"/><path d="m406.56 248.44c0 83.17-67.42 150.59-150.59 150.59-7.28 0-14.44-.52-21.44-1.52-73.02-10.4-129.15-73.18-129.15-149.07 0-62.4 37.96-115.94 92.05-138.78 17.99-7.61 37.78-11.81 58.54-11.81 83.17 0 150.59 67.42 150.59 150.59z" fill="#ffddcf"/><path d="m234.53 397.51c-73.02-10.4-129.15-73.18-129.15-149.07 0-62.4 37.96-115.94 92.05-138.78-26.25 40.08-97.74 174.7 37.1 287.85z" fill="#ffcbbe"/><ellipse cx="176.413" cy="261.598" fill="#ffa1ac" rx="29.355" ry="23.377"/><ellipse cx="335.527" cy="261.598" fill="#ffa1ac" rx="29.355" ry="23.377"/><path d="m255.97 97.85c-8.46 0-16.77.55-24.91 1.63l87.36 20.96s-2.31 4.04-6.32 11.08c46.91 19.54 79.4 62.87 79.4 113.34 0 42.84-23.6 80.63-59.51 103.01-14.39 8.96-33.45 7.69-46.66-2.7-16.902-13.265-41.8-13.279-58.72 0-9.76 7.67-22.68 10.35-34.58 7.63-19.09 44.92 63.99 61.29 63.99 61.29 94.658 0 173.13-70.024 173.13-158.12 0-87.33-77.53-158.12-173.18-158.12z" fill="#666667"/><path d="m256.02 414.09h-.05c-38.34 0-73.76-11.38-102.46-30.63-113.128-75.926-84.968-235.88 46.09-277.04-5.18 7.62-12.92 20.02-20.5 35.96-78.585 49.773-78.034 156.215.71 205.4 3.81 2.38 7.95 4.05 12.22 5.02 15.31 20.86 36.16 41.51 63.99 61.29z" fill="#575757"/><path d="m428.453 196.329c-.767 8.563-8.531 14.815-17.036 13.56-19.754-2.915-56.715-14.969-98.297-61.399-5.28-5.89-14.2-6.68-20.43-1.81-13.07 10.22-26.46 18.83-39.85 26.09-123.45-36-20.15-163.71-20.15-163.71 7.61-1.03 15.39-1.56 23.28-1.56 68.97 0 128.53 40.32 156.38 98.69 13.775 28.854 18.801 60.022 16.103 90.139z" fill="#767678"/><path d="m252.84 172.77c-63.926 34.675-127.642 38.451-154.375 38.281-7.65-.048-14.116-5.806-14.856-13.42-2.972-30.586 2.039-62.237 15.981-91.441 24.66-51.69 74.19-89.22 133.1-97.13-10.92 33.77-26.65 107.73 20.15 163.71z" fill="#666667"/></g><g><path d="m428.045 306.777c22.688-6.193 38.715-26.87 38.715-50.807 0-21.535-12.97-40.432-32.091-48.518 7.661-51.331-6.965-103.258-40.476-143.112-58.929-70.085-158.79-83.329-232.82-37.688-3.526 2.174-4.622 6.795-2.448 10.32 2.173 3.525 6.794 4.622 10.32 2.448 68.088-41.977 159.636-29.448 213.467 34.573 30.294 36.03 43.766 82.819 37.415 129.235-15.081-.592-59.642-8.08-110.551-70.423-2.697-3.301-7.56-3.667-10.725-.921-48.717 42.264-103.865 59.375-141.55 66.288-30.518 5.598-54.856 5.607-65.473 5.232-7.476-54.099 11.893-107.978 52.476-145.137 3.055-2.797 3.264-7.542.466-10.597-2.796-3.056-7.542-3.263-10.596-.467-44.744 40.972-65.817 100.588-56.901 160.249-19.121 8.088-32.093 26.987-32.093 48.518 0 23.98 16.085 44.686 38.839 50.838 9.008 25.489 24.726 48.888 46.123 68.012-19.224 18.669-34.198 41.501-43.519 66.529-12.935 34.674 13.294 70.592 49.287 70.592h194.643c4.143 0 7.5-3.358 7.5-7.5s-3.357-7.5-7.5-7.5h-22.513c1.623-17.63 8.707-62.624 39.384-98.154 7.92-4.267 15.492-9.091 22.65-14.441 18.256 17.353 32.442 38.749 41.189 62.246 9.097 24.385-9.102 50.349-35.233 50.349h-14.559c-4.143 0-7.5 3.358-7.5 7.5s3.357 7.5 7.5 7.5h14.559c35.983 0 62.225-35.91 49.289-70.587-9.318-25.031-24.298-47.869-43.538-66.55 22.028-19.599 37.511-43.205 46.264-68.027zm5.204-18.337c4.634-21.256 4.679-43.318-.074-64.985 24.673 14.477 24.823 50.387.074 64.985zm-130.404-140.298c27.523 32.171 53.44 49.699 74.452 59.188 18.363 49.662-1.6 104.462-49.272 134.172-11.575 7.207-27.227 6.292-38.065-2.233-19.695-15.458-48.286-15.459-67.984.003-10.856 8.529-26.561 9.411-38.193 2.145-44.352-27.703-64.893-77.219-52.169-124.479 62.656-6.253 123.145-29.292 171.231-68.796zm-224.077 75.316c-4.727 21.662-4.646 43.743.033 65.043-24.773-14.501-24.823-50.491-.033-65.043zm16.682-4.932c6.713.124 13.578-.025 20.415-.382-11.724 52.122 11.488 105.714 59.971 135.998 16.893 10.553 39.677 9.289 55.404-3.071 14.099-11.064 35.362-11.064 49.453-.005 15.732 12.373 38.455 13.634 55.263 3.17 50.096-31.221 73.011-87.179 59.138-140.265 8.613 2.524 15.824 3.622 21.254 4.051 27.91 96.887-53.99 188.569-160.379 188.569-108.748-.001-187.17-93.458-160.519-188.065zm5.229 228.061c8.745-23.482 22.914-44.86 41.141-62.197 7.231 5.437 14.908 10.352 22.95 14.681 30.371 35.383 37.473 80.264 39.118 97.869h-67.978c-26.164 0-44.317-25.996-35.231-50.353zm118.31 50.353c-.784-9.772-3.139-28.091-10.205-49.068 28.121 15.131 66.585 15.233 94.452-.222-7.126 21.07-9.497 39.483-10.284 49.29zm94.812-74.537c-26.657 29.101-89.021 29.068-115.654.008-1.939-3.824-4.055-7.659-6.364-11.474 40.357 14.064 86.609 14.44 128.498-.195-2.354 3.876-4.509 7.773-6.48 11.661z"/><path d="m193.521 246.595c4.142 0 7.5-3.358 7.5-7.5v-12c0-4.142-3.358-7.5-7.5-7.5s-7.5 3.358-7.5 7.5v12c0 4.142 3.358 7.5 7.5 7.5z"/><path d="m318.418 246.595c4.143 0 7.5-3.358 7.5-7.5v-12c0-4.142-3.357-7.5-7.5-7.5s-7.5 3.358-7.5 7.5v12c0 4.142 3.358 7.5 7.5 7.5z"/><path d="m278.088 243.665c2.722-3.122 2.396-7.86-.727-10.581-3.125-2.721-7.86-2.396-10.582.727-5.875 6.741-16.035 6.408-21.62-.001-2.722-3.123-7.458-3.447-10.582-.727-3.122 2.722-3.448 7.459-.727 10.582 11.684 13.405 32.524 13.444 44.238 0z"/></g></svg>