<svg id="Capa_1" enable-background="new 0 0 512.041 512.041" height="512" viewBox="0 0 512.041 512.041" width="512" xmlns="http://www.w3.org/2000/svg"><g><circle cx="414.14" cy="248.494" fill="#ffcbbe" r="45.176"/><circle cx="97.905" cy="248.494" fill="#ffddcf" r="45.176"/><path d="m316.262 504.496h-53.78s-117.74-28.4-38.74-170.08c10.61-2.04 21.56-3.1 32.76-3.1 24.78 0 48.34 5.2 69.65 14.59 85.34 105.02-9.89 158.59-9.89 158.59z" fill="#efedfe"/><path d="m262.482 504.496h-66.7s-86.14-66.7 27.96-170.08c-1.57 40.46 1.39 116.08 38.74 170.08z" fill="#dedef9"/><path d="m414.142 248.496c0 87.32-70.79 158.12-158.12 158.12-12.57 0-24.8-1.47-36.53-4.24 0 0-.01 0-.02-.01-2.17-.9-184.49-77.49-67.9-272.58 27.85-24.53 64.42-39.41 104.45-39.41 87.33 0 158.12 70.79 158.12 158.12z" fill="#ffddcf"/><path d="m219.492 402.376c-69.72-16.49-121.59-79.13-121.59-153.88 0-47.3 20.76-89.74 53.67-118.71-16.82 47.81-51.92 186.57 67.92 272.59z" fill="#ffcbbe"/><path d="m459.312 165.666c0 29.75-24.65 53.75-54.64 52.67-23.26-.83-42.94-17.03-48.91-38.78-2.35-8.55-8.08-15.82-15.9-19.99-17.42-9.29-49.01-18.77-83.84 6.11-10.3 7.36-20.31 11.84-29.75 14.28-3.38.88-6.69 1.49-9.91 1.89-134.66-65.1 1.52-161.91 1.52-161.91.74.34 1.46.69 2.17 1.07.17.08.34.17.51.26 9.36-8.52 21.8-13.72 35.46-13.72s26.1 5.2 35.46 13.72c26.774-14.274 60.551-3.049 73.03 25.32 40.956-9.576 76.202 30.553 61.27 69.99 19.63 7.67 33.53 26.75 33.53 49.09z" fill="#f9d171"/><path d="m216.362 181.846c-18.55 2.28-34.26-2.8-44.66-7.86-6.26-3.04-13.78.2-15.78 6.86-6.88 22.93-28.96 39.29-54.54 37.38-25.95-1.94-46.82-23.01-48.54-48.97-1.57-23.87 12.75-44.6 33.42-52.68-14.97-39.535 20.399-79.545 61.27-69.99 8.16-18.55 26.69-31.51 48.25-31.51 7.9 0 15.38 1.75 22.1 4.86.74.34 1.97.95 2.68 1.33-10.58 27.19-29.97 91.73-4.2 160.58z" fill="#f3c23b"/><ellipse cx="172.459" cy="255.307" fill="#ffa1ac" rx="30.834" ry="24.555"/><ellipse cx="339.59" cy="255.307" fill="#ffa1ac" rx="30.834" ry="24.555"/><path d="m376.562 504.496h-60.3v-113.12c0-16.77 9.18-31.41 22.79-39.14 15.786-8.99 28.258-4.761 51.38-5.86 7.43 0 12.27 7.83 8.94 14.48l-13.005 26.009c-1.006 2.013.431 3.52.475 3.621 13.69 15.62 24.6 33.72 31.98 53.54 10.92 29.3-10.99 60.47-42.26 60.47z" fill="#767678"/><path d="m195.782 391.376v113.12h-59.34c-31.27 0-53.19-31.17-42.27-60.47 11.607-31.119 31.056-52.495 30.98-52.39 1.119-1.283 1.353-3.114.592-4.637l-13.072-26.143c-3.33-6.65 1.51-14.48 8.94-14.48 22.888 1.129 35.825-3.248 51.84 6.12 13.36 7.8 22.33 22.3 22.33 38.88z" fill="#666667"/></g><g><path d="m448.693 208.773c29.207-28.529 22.095-77.23-13.774-96.211 10.151-40.516-23.725-80.057-66.205-74.32-15.146-26.999-48.246-37.666-76.104-25.774-21.629-16.623-51.513-16.624-73.144 0-28.119-12.005-60.928-1.014-76.092 25.776-11.543-1.559-23.006.201-33.469 5.185-3.739 1.781-5.327 6.256-3.546 9.996 1.781 3.739 6.257 5.328 9.997 3.546 9.136-4.352 19.332-5.403 29.492-3.038 3.509.815 7.111-.981 8.564-4.284 10.818-24.579 39.964-33.823 62.633-21.724 2.799 1.494 6.233 1.065 8.579-1.07 17.338-15.777 43.486-15.777 60.824 0 2.348 2.135 5.779 2.563 8.579 1.07 22.588-12.056 51.781-2.932 62.633 21.724 1.453 3.303 5.059 5.1 8.564 4.284 35.474-8.257 65.291 26.445 52.561 60.029-1.458 3.845.452 8.146 4.282 9.644 17.473 6.83 28.763 23.358 28.763 42.108 0 25.346-20.933 46.106-46.874 45.175-19.512-.699-36.761-14.382-41.947-33.274-2.894-10.544-10.038-19.517-19.602-24.618-17.629-9.403-52.989-21.049-91.73 6.624-30.934 22.096-58.777 16.364-76.689 7.664-10.417-5.059-22.91.372-26.235 11.449-6.145 20.473-25.378 33.649-46.797 32.056-22.248-1.662-40.138-19.712-41.612-41.986-1.311-19.82 10.208-37.983 28.661-45.197 3.83-1.497 5.74-5.798 4.282-9.644-4.917-12.975-3.799-26.682 3.15-38.598 2.087-3.578.878-8.171-2.7-10.257-3.577-2.086-8.171-.877-10.257 2.701-7.954 13.638-10.15 29.614-6.33 44.76-35.641 18.909-43.142 67.423-13.734 96.171-37.359 32.451-13.145 93.414 35.571 92.469 4.49 13.387 10.706 26.229 18.568 38.193-10.782 2.55-16.698 14.628-11.577 24.854l12.098 24.196c-13.312 15.85-23.707 33.654-30.917 53.001-12.922 34.669 13.301 70.589 49.297 70.589h240.12c35.967 0 62.219-35.895 49.288-70.587-7.318-19.657-17.913-37.699-31.514-53.711l11.742-23.484c5.131-10.247-.808-22.312-11.575-24.858 7.862-11.963 14.078-24.806 18.568-38.193 49.304.956 72.522-60.296 35.608-92.436zm-285.572-25.729c.663-2.212 3.188-3.299 5.315-2.268 17.657 8.577 53.083 18.818 91.96-8.95 30.541-21.815 58.16-15.085 75.953-5.594 5.942 3.169 10.388 8.766 12.195 15.353 6.882 25.07 29.882 43.57 56.406 44.3 6.075 40.012-4.12 80.695-28.42 113.036h-15.253c-28.349 0-51.508 22.59-52.455 50.714-33.816 12.654-71.757 12.653-105.571 0-.947-28.123-24.105-50.713-52.455-50.713h-15.253c-24.3-32.34-34.495-73.022-28.421-113.033 25.904-.685 48.422-17.598 55.999-42.845zm-87.339 35.028c5.058 2.884 10.566 5.054 16.389 6.37-3.046 20.741-2.116 41.63 2.535 61.637-34.461-2.963-47.187-47.427-18.924-68.007zm25.433 228.618c7.154-19.193 17.722-36.738 31.41-52.148 1.508-1.714 2.101-3.887 1.82-5.982-.231-1.764.282-.351-15.051-31.017-.833-1.663.37-3.622 2.233-3.622h29.17c20.678 0 37.5 16.822 37.5 37.5v105.62h-51.84c-26.166 0-44.317-26-35.242-50.351zm275.362 50.351h-173.28v-91.478c34.043 11.406 71.37 11.427 105.48 0v68.979c0 4.142 3.358 7.5 7.5 7.5 4.143 0 7.5-3.358 7.5-7.5v-83.12c0-20.678 16.822-37.5 37.5-37.5h29.17c1.866 0 3.066 1.96 2.231 3.626-15.051 30.103-14.491 28.581-14.717 30.406-.278 2.229.462 4.38 1.857 5.941 13.973 15.547 24.735 33.31 31.99 52.796 9.088 24.383-9.098 50.35-35.231 50.35zm40.791-210.962c4.65-20 5.58-40.883 2.538-61.618 5.773-1.291 11.301-3.423 16.437-6.352 28.274 20.674 15.34 65.019-18.975 67.97z"/><path d="m393.064 177.676c-3.799-1.656-8.218.083-9.872 3.88-6.284 14.425 32.03 20.589 43.482-5.695 11.434-26.246-19.114-50.237-25.439-35.722-1.654 3.797.083 8.217 3.881 9.872 7.627 3.323 11.129 12.232 7.806 19.858-3.321 7.629-12.233 11.129-19.858 7.807z"/><path d="m336.099 51.238c-3.525-2.177-8.146-1.082-10.321 2.443-8.713 14.119-4.315 32.694 9.804 41.407 14.152 8.734 32.67 4.349 41.406-9.803 2.175-3.525 1.081-8.146-2.444-10.321-3.525-2.176-8.146-1.082-10.321 2.443-4.368 7.082-13.682 9.286-20.764 4.917-7.079-4.37-9.284-13.684-4.915-20.764 2.174-3.526 1.08-8.147-2.445-10.322z"/><path d="m251.048 106.316c7.851-2.756 16.478 1.391 19.233 9.242 1.372 3.908 5.648 5.967 9.56 4.593 14.814-5.197-6.682-37.481-33.76-27.989-15.689 5.506-23.936 22.66-18.429 38.354 1.379 3.928 5.672 5.96 9.561 4.593 3.908-1.371 5.965-5.652 4.594-9.56-2.763-7.869 1.371-16.472 9.241-19.233z"/><path d="m191.441 68.649c4.052.865 8.037-1.711 8.905-5.761 3.307-15.41-35.467-13.884-41.488 14.204-3.48 16.222 6.887 32.25 23.108 35.729 4.05.869 8.038-1.71 8.906-5.76.869-4.05-1.71-8.037-5.76-8.906-8.135-1.745-13.333-9.782-11.589-17.917 1.749-8.151 9.762-13.339 17.918-11.589z"/><path d="m116.146 150.975c4.05.871 8.038-1.71 8.906-5.76.869-4.05-1.71-8.037-5.76-8.906-16.229-3.48-32.251 6.888-35.729 23.11-6.002 27.992 28.695 45.448 32.016 29.968.869-4.05-1.71-8.038-5.761-8.906-8.134-1.744-13.333-9.782-11.589-17.917 1.747-8.134 9.79-13.331 17.917-11.589z"/><path d="m190.444 238.913c4.143 0 7.5-3.358 7.5-7.5v-12c0-4.142-3.357-7.5-7.5-7.5s-7.5 3.358-7.5 7.5v12c0 4.142 3.358 7.5 7.5 7.5z"/><path d="m278.987 236.267c2.722-3.123 2.395-7.86-.728-10.582-3.123-2.721-7.86-2.396-10.581.727-6.178 7.089-17.132 7.053-23.278 0-2.721-3.123-7.459-3.448-10.581-.727-3.123 2.721-3.449 7.458-.727 10.582 12.148 13.943 33.77 13.916 45.895 0z"/><path d="m310.045 238.578c4.143 0 7.5-3.358 7.5-7.5 0-3.532 2.874-6.406 6.406-6.406s6.406 2.874 6.406 6.406c0 4.142 3.357 7.5 7.5 7.5 14.178 0 7.415-28.906-13.906-28.906-11.804 0-21.406 9.603-21.406 21.406 0 4.143 3.357 7.5 7.5 7.5z"/></g></svg>