<svg id="Capa_1" enable-background="new 0 0 511.954 511.954" height="512" viewBox="0 0 511.954 511.954" width="512" xmlns="http://www.w3.org/2000/svg"><g><path d="m376.037 504.447h-108.04s-149.84-41.55-43.84-170.26c10.32-1.92 20.95-2.92 31.82-2.92 74.37 0 137.79 46.88 162.32 112.71 10.93 29.3-10.99 60.47-42.26 60.47z" fill="#ff8a98"/><path d="m267.997 504.447h-132.08c-31.27 0-53.19-31.17-42.26-60.47 20.94-56.21 70.24-98.6 130.5-109.79-3.79 23.82-13.5 113.53 43.84 170.26z" fill="#ff6e80"/><circle cx="414.095" cy="255.977" fill="#ffcbbe" r="45.176"/><circle cx="97.859" cy="255.977" fill="#ffddcf" r="45.176"/><path d="m414.097 255.977c0 87.081-70.502 158.12-158.12 158.12 0 0-240.22-38.07-81.03-293.93 23.7-14.17 51.42-22.31 81.03-22.31 87.33 0 158.12 70.79 158.12 158.12z" fill="#ffddcf"/><path d="m255.977 414.097c-35.01 0-67.35-11.38-93.55-30.63-39.779-29.237-64.57-75.941-64.57-127.49 0-57.71 30.92-108.2 77.09-135.81-30.67 57.18-91.4 210.34 81.03 293.93z" fill="#ffcbbe"/><path d="m429.157 184.797c0 10.66-.88 21.12-2.57 31.27 0 0-57.83-6.07-105.86-80.03-10.39-16-30.91-20.76-46.79-10.87-15.7 9.78-30.65 18.59-44.76 26.51-133.76-42.94-7.56-144.6-7.56-144.6 11.1-2.34 22.6-3.57 34.36-3.57 68.97 0 128.53 42.21 156.38 103.31 10.77 23.62 16.8 50.06 16.8 77.98z" fill="#767678"/><path d="m229.177 151.677c-88.35 49.61-143.81 64.39-143.81 64.39-1.69-10.15-2.57-20.61-2.57-31.27 0-27.92 6.03-54.36 16.8-77.98 23.1-50.68 68.01-88.36 122.02-99.74-10.7 33.45-21.37 91.42 7.56 144.6z" fill="#666667"/><circle cx="316.212" cy="248.447" fill="#a8e1f6" r="45.176"/><circle cx="195.742" cy="248.447" fill="#a8e1f6" r="45.176"/><path d="m263.972 318.065c28.412 7.877 50.192 2.638 61.223-3.836 3.515-2.063 3.096-7.262-.686-8.782-7.205-2.895-16.964-7.359-21.429-11.824-7.529-7.53-15.059-22.588-45.177-22.588s-37.647 15.059-45.176 22.588c-4.465 4.465-14.224 8.929-21.429 11.824-3.782 1.519-4.201 6.719-.686 8.781 11.031 6.474 32.811 11.713 61.223 3.836 3.968-1.099 8.17-1.099 12.137.001z" fill="#767678"/><path d="m319.539 467.294-41.597-21.184v-22.588l39.968-30.002c9.806-3.677 20.267 3.572 20.267 14.045v45.176c0 9.759-9.171 16.919-18.638 14.553z" fill="#666667"/><path d="m191.168 466.294 41.597-21.184v-22.588l-39.969-30.002c-9.806-3.677-20.267 3.572-20.267 14.045v45.176c.001 9.759 9.172 16.919 18.639 14.553z" fill="#666667"/><path d="m271.036 451.742h-31.365c-7.972 0-14.435-6.463-14.435-14.435v-8.777c0-7.972 6.463-14.435 14.435-14.435h31.365c7.972 0 14.435 6.463 14.435 14.435v8.776c0 7.973-6.463 14.436-14.435 14.436z" fill="#767678"/></g><g><path d="m434.704 207.511c7.604-51.361-7.036-103.273-40.527-143.096-58.024-68.996-157.264-84.124-232.56-37.818-3.528 2.17-4.63 6.789-2.46 10.318 2.171 3.528 6.791 4.629 10.317 2.459 69.058-42.469 160.036-28.547 213.224 34.696 29.984 35.655 43.499 81.875 37.637 127.882-29.699-7.398-65.175-30.328-93.407-71.9-12.604-18.561-37.569-24.105-56.836-12.623-90.52 53.942-156.528 76.924-178.576 83.768-6.594-53.503 12.896-106.464 53.06-143.071 3.062-2.79 3.281-7.534.491-10.595-2.79-3.062-7.534-3.28-10.595-.491-44.912 40.933-66.097 100.622-57.222 160.471-35.912 15.282-43.2 62.853-13.891 88.273 9.629 8.351 22.214 13.149 35.639 12.862 7.667 22.757 20.319 43.62 36.699 61.017-21.928 19.578-38.824 44.204-49.069 71.7-12.934 34.674 13.297 70.591 49.288 70.591h188.051c4.143 0 7.5-3.358 7.5-7.5s-3.357-7.5-7.5-7.5h-188.051c-26.134 0-44.33-25.966-35.232-50.351 9.518-25.543 25.292-48.394 45.793-66.464 6.741 5.981 13.976 11.419 21.632 16.237-4.212 8.276-1.746 12.776-2.453 55.368 0 12.807 10.474 22.516 22.452 22.516 2.026 0 5.251-.34 7.081-1.272l33.511-17.065c8.74 5.465 14.483 2.448 42.958 3.326 4.254 0 8.227-1.221 11.593-3.326 36.462 18.568 33.915 17.363 35.099 17.659 14.186 3.541 27.945-7.185 27.945-21.837v-45.17c0-3.595-.866-7.077-2.449-10.191 7.668-4.811 14.91-10.241 21.66-16.215 20.485 18.065 36.248 40.906 45.762 66.438 9.097 24.385-9.102 50.349-35.233 50.349h-22.045c-4.142 0-7.5 3.358-7.5 7.5s3.358 7.5 7.5 7.5h22.045c35.984 0 62.224-35.91 49.289-70.589-10.239-27.478-27.118-52.089-49.024-71.66 16.462-17.461 28.997-38.26 36.644-61.059 13.574.288 26.123-4.601 35.65-12.864 29.28-25.397 22.062-72.973-13.89-88.273zm-374.518 48.469c0-19.601 15.001-35.833 34.396-37.533-6.88 29.722-4.355 55.915.112 75.076-19.604-1.658-34.508-18.064-34.508-37.543zm129.087 203.186c-4.489.685-8.617-2.794-8.617-7.423v-45.17c0-4.978 4.679-8.424 9.268-7.293l29.599 22.221c-1.467 4.319-1.164 6.852-1.164 15.812 0 2.275.349 4.471.995 6.536zm82.386-14.918h-31.365c-3.823 0-6.935-3.111-6.935-6.935v-8.776c0-3.824 3.111-6.936 6.935-6.936h31.365c3.823 0 6.935 3.111 6.935 6.936v8.776c-.001 3.824-3.112 6.935-6.935 6.935zm59.637 7.495c0 4.639-4.14 8.107-8.617 7.423l-30.081-15.318c.646-2.065.995-4.26.995-6.536 0-8.936.309-11.477-1.164-15.812l29.599-22.221c4.599-1.134 9.268 2.325 9.268 7.293zm1.104-65.948c-5.21-2.157-11.105-2.312-16.495-.295-1.428.535.945-1.09-32.865 24.292-3.32-2.024-7.217-3.191-11.382-3.191h-31.365c-4.165 0-8.062 1.167-11.382 3.191-33.447-25.109-31.419-23.75-32.865-24.292-5.388-2.017-11.281-1.863-16.493.294-58.418-34.546-87.304-104.564-68.557-170.997.52-1.842.849-2.886.757-4.434 30.967-10.803 89.468-34.431 166.018-80.048 12.455-7.424 28.599-3.837 36.748 8.164 29.835 43.933 63.284 63.803 85.674 72.713.03.575.119 1.154.288 1.731 19.484 66.303-8.49 137.72-68.081 172.872zm84.823-92.269c5.73-24.602 5.835-50.362.19-75.073 19.532 1.734 34.353 18.097 34.353 37.527 0 19.59-15.017 35.91-34.543 37.546z"/><path d="m201.028 252.925v-12c0-4.142-3.358-7.5-7.5-7.5-4.143 0-7.5 3.358-7.5 7.5v12c0 4.142 3.357 7.5 7.5 7.5 4.142 0 7.5-3.358 7.5-7.5z"/><path d="m318.424 233.425c-4.142 0-7.5 3.358-7.5 7.5v12c0 4.142 3.358 7.5 7.5 7.5 4.143 0 7.5-3.358 7.5-7.5v-12c0-4.142-3.357-7.5-7.5-7.5z"/><path d="m316.216 195.774c-23.826 0-43.999 15.905-50.484 37.651h-19.512c-6.486-21.747-26.658-37.651-50.484-37.651-29.042 0-52.67 23.632-52.67 52.68 0 25.564 18.303 46.925 42.489 51.683-6.84 5.232-6.425 15.971 1.115 20.52 4.302 2.597 16.799 8.91 36.395 8.909 22.477 0 28.7-6.576 36.751-4.282 36.417 10.384 59.31-.916 65.46-4.628 7.565-4.567 7.926-15.29 1.133-20.507 24.106-4.845 42.479-25.808 42.479-51.696-.002-29.047-23.63-52.679-52.672-52.679zm-52.68 52.651c0 5.386.792 10.633 2.37 15.703-6.368-.789-13.595-.777-19.861-.001 1.575-5.064 2.37-10.309 2.37-15.702zm-105.47.029c0-20.777 16.898-37.68 37.67-37.68 20.777 0 37.681 16.903 37.681 37.68 0 7.84-2.363 15.29-6.848 21.649-6.765 3.691-11.293 8.365-14.838 12.463-24.822 11.689-53.665-6.508-53.665-34.112zm105.862 62.406c-5.204-1.484-10.707-1.485-15.913 0-20.908 5.962-38.12 3.868-48.872-.664 15.211-6.894 18.38-11.247 22.12-15.686 6.302-7.485 13.445-15.968 34.709-15.968 20.252 0 27.693 7.695 33.8 14.893 3.979 4.377 5.937 9.015 23.029 16.761-10.751 4.531-27.966 6.626-48.873.664zm36.272-28.309c-3.541-4.092-8.062-8.756-14.812-12.441-4.488-6.361-6.853-13.813-6.853-21.656 0-20.777 16.903-37.68 37.681-37.68 20.771 0 37.67 16.903 37.67 37.68 0 27.722-28.926 45.764-53.686 34.097z"/></g></svg>