<svg id="Capa_1" enable-background="new 0 0 511.955 511.955" height="512" viewBox="0 0 511.955 511.955" width="512" xmlns="http://www.w3.org/2000/svg"><g><circle cx="414.094" cy="218.34" fill="#ffcbbe" r="45.176"/><circle cx="97.859" cy="218.34" fill="#ffddcf" r="45.176"/><path d="m376.386 504.454h-3.38l-26.09-9.37-23.18 9.37h-45.17s-119.08-59.98-27.28-173.12c24.603 0 45.28 2.671 69.53 12.42l8.25 10.22 17.85 22.11 25.32-.28v.01c20.57 18.48 36.69 41.8 46.54 68.17 10.95 29.3-11.03 60.47-42.39 60.47z" fill="#efedfe"/><path d="m272.836 504.454h-84.62l-23.29-10.5-25.98 10.5h-3.38c-31.36 0-53.34-31.17-42.39-60.47 9.85-26.37 25.97-49.69 46.54-68.17v-.01l28.49 2.2 22.7-34.16c12.17-4.91 25.02-8.48 38.38-10.54 7.35-1.13 14.85-1.8 22.47-1.98-5.8 38.03-12.08 116.18 21.08 173.13z" fill="#dedef9"/><path d="m278.566 425.734v78.72h-5.73c-43.99-15.67-23.54-75.58-23.54-75.58 2.2.19 4.43.29 6.68.29 7.92 0 15.52-1.21 22.59-3.43z" fill="#767678"/><path d="m233.386 504.454v-78.72l-4.1-92.43c7.35-1.13 14.85-1.8 22.47-1.98-5.8 38.03-12.08 116.18 21.08 173.13z" fill="#666667"/><path d="m248.556 428.874s-.132-.998-.37-2.89c-2.08-16.506-52.76-51.58-19.48-92.59.19-.03.39-.06.58-.09 30.458-4.696 62.306-1.298 91.53 10.45l8.25 10.22c12.186 39.624-29.256 79.025-80.51 74.9z" fill="#ffcbbe"/><path d="m248.186 425.984c.12.96.24 1.93.37 2.89-38.08-2.98-67.83-28.68-67.83-59.95 0-8.24 2.06-16.09 5.8-23.24 19.302-8.518 41.563-13.728 64.76-14.35-3.74 22.05-7.65 57.58-3.1 94.65z" fill="#ffbbae"/><path d="m190.906 343.844-2.69 17.4v143.21h-49.27c6.41-52.17 4.18-97.71.77-128.64v-.01c14.94-13.44 32.23-24.32 51.19-31.96z" fill="#666667"/><path d="m323.736 504.454v-143.21l-2.92-17.49c19.05 7.64 36.42 18.56 51.42 32.05v.01c-3.41 30.93-5.64 76.47.77 128.64z" fill="#767678"/><path d="m414.096 218.344c0 87.32-70.79 158.12-158.12 158.12-3.69 0-7.35-.13-10.97-.38 0 0-212.69-42.67-87.38-281.55 26.99-21.48 61.18-34.31 98.35-34.31 87.33 0 158.12 70.79 158.12 158.12z" fill="#ffddcf"/><path d="m245.006 376.084c-82.21-5.63-147.15-74.12-147.15-157.74 0-50.15 23.35-94.85 59.77-123.81-19.15 61.04-46.08 204.12 87.38 281.55z" fill="#ffcbbe"/><path d="m466.686 146.304c-1.6 22.8-20.44 41-43.28 41.88-26.38 1.014-47.683-20.58-46.95-46.21.256-10.647-11.144-19.824-21.72-16.45-15.828 5.003-33.539 2.41-47.48-8.03-5.06-3.79-11.98-3.68-17.19-.09-9.69 6.67-21.43 10.58-34.09 10.58-3.98 0-7.86-.39-11.63-1.12-73.32-49.82-2.38-117.71-2.38-117.71 4.5-1.07 9.19-1.64 14.01-1.64 16.56 0 31.56 6.68 42.45 17.5 4.58 4.55 11.5 5.71 17.31 2.87 25.534-12.473 57.197-2.383 70.29 24 2.31 4.66 6.77 7.93 11.95 8.42 10.66 1.01 27.66 6.31 30.1 29.69.5 4.84 3.92 8.81 8.51 10.42 18.56 6.51 31.58 24.79 30.1 45.89z" fill="#f9d171"/><path d="m244.346 126.864c-8.2-1.61-15.81-4.89-22.46-9.46-5.21-3.59-12.13-3.7-17.19.09-13.938 10.438-31.648 13.034-47.48 8.03-10.598-3.381-21.976 5.823-21.72 16.45.01.35.01.71.01 1.07 0 25.54-21.2 46.13-46.96 45.14-22.75-.87-41.56-18.94-43.26-41.65-1.6-21.26 11.53-39.68 30.23-46.17 4.38-1.52 7.79-4.98 9.28-9.36 3.32-9.74 11.59-25.96 30.38-29.87 4.48-.93 8.27-3.97 10.2-8.11 8.39-17.99 26.62-30.45 47.78-30.45 8.27 0 16.1 1.91 23.06 5.31 5.81 2.84 12.73 1.68 17.31-2.87 7.72-7.67 17.5-13.26 28.44-15.86-11.74 23.47-24.36 66.57 2.38 117.71z" fill="#f3c23b"/><circle cx="316.212" cy="208.455" fill="#a8e1f6" r="45.176"/><circle cx="195.741" cy="208.455" fill="#a8e1f6" r="45.176"/><path d="m263.972 278.073c28.412 7.877 70.192 2.638 81.223-3.836 3.515-2.063 3.096-7.262-.686-8.782-7.205-2.895-35.386-8.916-41.429-11.824-9.595-4.617-15.059-22.588-45.176-22.588-30.118 0-36.458 16.475-45.176 22.588-7.716 5.41-34.224 8.929-41.429 11.824-3.782 1.519-4.201 6.719-.686 8.781 11.031 6.474 52.811 11.713 81.223 3.836 3.967-1.099 8.168-1.099 12.136.001z" fill="#f9d171"/></g><g><path d="m316.218 158.134c-26.502 0-48.486 19.67-52.138 45.174h-16.205c-3.652-25.503-25.636-45.174-52.138-45.174-29.042 0-52.67 23.627-52.67 52.67 0 20.276 11.519 37.901 28.348 46.704-1.098.324-2.075.651-2.914.988-9.565 3.845-10.565 16.999-1.686 22.209 12.681 7.443 56.432 13.078 87.023 4.595 2.658-.736 5.468-.737 8.128 0v.001c30.764 8.528 74.451 2.782 87.023-4.595 8.888-5.216 7.869-18.369-1.686-22.209-1.339-.538-3.158-1.13-5.328-1.768 16.044-9.038 26.91-26.231 26.91-45.924.003-29.043-23.625-52.671-52.667-52.671zm-68.338 60.174h16.196c.27 1.884.644 3.749 1.115 5.588-6.135-.604-12.787-.418-18.532.439.525-1.978.931-3.99 1.221-6.027zm-89.813-7.504c0-20.771 16.898-37.67 37.67-37.67 20.777 0 37.68 16.898 37.68 37.67 0 7.139-2.008 14.012-5.779 20.003-8.024 4.688-12.754 10.594-16.655 14.448-24.917 11.049-52.916-7.337-52.916-34.451zm107.909 60.041c-5.28-1.463-10.862-1.464-16.144 0-22.586 6.262-53.295 3.449-68.175-.444 12.354-2.793 28.236-5.622 35.376-10.628 10.168-7.132 14.097-21.23 40.871-21.23 27.082 0 29.821 16.023 41.925 21.847 5.582 2.686 21.99 6.336 34.866 9.867-14.664 3.969-45.854 6.929-68.719.588zm42.465-23.173c-.918-.305-1.647-.576-2.109-.799-4.397-2.115-10.387-12.252-23.34-18.3-13.35-24.962 4.752-55.439 33.226-55.439 20.771 0 37.67 16.898 37.67 37.67 0 24.011-22.202 41.808-45.447 36.868z"/><path d="m474.168 146.828c1.66-23.662-12.773-45.658-35.1-53.49-1.958-.687-3.345-2.305-3.534-4.123-2.197-21.11-15.628-34.37-36.85-36.38-2.503-.237-4.723-1.84-5.938-4.289-14.996-30.219-51.066-41.675-80.305-27.399-2.914 1.423-6.42.839-8.726-1.451-26.43-26.258-69.04-26.266-95.477 0-2.305 2.29-5.812 2.873-8.726 1.451-30.274-14.783-66.804-1.585-80.933 28.705-.943 2.023-2.786 3.497-4.927 3.942-22.561 4.694-32.209 23.811-35.952 34.788-.758 2.224-2.449 3.934-4.638 4.693-22.55 7.821-37.048 29.952-35.257 53.818 1.138 15.158 8.641 28.442 19.815 37.279-28.996 34.223-4.101 87.544 41.319 86.622 11.038 32.837 32.11 61.102 59.55 81.149-33.049 21.08-58.663 52.635-72.338 89.214-12.945 34.643 13.297 70.598 49.416 70.598h240.82c36.1 0 62.369-35.936 49.414-70.596-10.129-27.096-26.804-51.425-48.187-70.781-.224-.231-.468-.441-.721-.643-7.295-6.533-15.126-12.495-23.429-17.79 27.44-20.048 48.511-48.312 59.55-81.149 45.542.925 70.304-52.526 41.264-86.688 11.746-9.32 18.868-22.908 19.89-37.48zm-421.404-.857c-1.283-17.088 9.085-32.929 25.214-38.523 6.587-2.284 11.661-7.396 13.92-14.024 2.711-7.952 9.541-21.767 24.812-24.944 6.75-1.406 12.532-5.999 15.464-12.287 10.616-22.756 38.052-32.653 60.757-21.567 8.648 4.224 19.047 2.5 25.88-4.289 20.578-20.443 53.75-20.448 74.332 0 6.833 6.788 17.232 8.512 25.88 4.289 21.652-10.571 48.888-2.382 60.286 20.588 3.538 7.131 10.252 11.824 17.96 12.555 14.041 1.33 21.895 9.068 23.345 22.999.787 7.562 6.081 14.126 13.488 16.725 15.969 5.602 26.291 21.346 25.102 38.286-1.56 22.235-23.157 39.341-46.241 33.94-19.277-5.324-29.391-21.029-29.005-37.565.382-15.948-16.128-28.663-31.493-23.78-13.141 4.176-28.429 2.316-40.71-6.883-7.541-5.648-17.966-5.755-25.939-.266-17.877 12.307-41.666 12.399-59.678 0-7.974-5.49-18.398-5.383-25.939.266-12.266 9.188-27.552 11.065-40.709 6.883-15.018-4.774-31.885 7.475-31.494 23.775.503 21.845-17.469 39.389-39.161 38.542-18.819-.724-34.663-15.974-36.071-34.72zm18.146 46.059c6.478 2.56 13.445 3.871 21 3.652-2.779 20.305-1.801 40.673 2.736 60.186-31.661-2.687-45.88-41.23-23.736-63.838zm109.808 173.826v131.099h-33.365c5.125-47.94 3.137-89.78.235-118.056 7.496-6.446 15.703-12.362 24.771-17.645 2.739 1.608 5.522 3.149 8.359 4.602zm60.17 69.439c9.769 1.797 20.096 1.855 30.18 0v61.659h-30.18zm-15 61.66h-30.17v-87.492c7.771 9.335 18.161 16.801 30.17 21.535zm60.179-65.958c12.009-4.735 22.399-12.2 30.17-21.535v87.492h-30.17zm30.001-58.318c-2.209 27.333-28.306 48.986-60.09 48.986s-57.881-21.652-60.09-48.986c38.498 15.041 81.611 15.068 120.18 0zm-215.865 73.932c7.529-20.14 19.009-38.609 33.542-54.347 2.169 27.102 3.03 63.575-1.464 104.538-24.233-2.026-40.866-26.678-32.078-50.191zm311.549-.001c8.789 23.517-7.848 48.166-32.079 50.191-4.493-40.964-3.632-77.438-1.463-104.54 14.53 15.736 26.012 34.208 33.542 54.349zm-47.384-67.715c-2.902 28.276-4.891 70.118.234 118.059h-33.365v-131.098c2.836-1.453 5.62-2.994 8.359-4.603 8.788 5.119 17.026 10.982 24.772 17.642zm-108.39-9.93c-92.668 0-164.236-83.587-148.465-176.107 20.881-7.182 36.035-27.253 35.479-51.063-.141-5.871 6.62-10.82 11.954-9.125 17.518 5.569 37.877 3.088 54.245-9.172 2.383-1.786 5.776-1.752 8.441.084 23.025 15.852 53.577 15.912 76.689 0 2.665-1.835 6.058-1.869 8.441-.084 16.079 12.044 36.389 14.848 54.246 9.172 5.318-1.69 12.094 3.239 11.953 9.129-.557 23.621 14.459 43.844 35.482 51.074 15.727 92.308-55.569 176.092-148.465 176.092zm161.331-113.097c4.541-19.529 5.512-39.896 2.736-60.185 7.421.214 14.365-1.059 20.966-3.69 22.25 22.657 7.862 61.196-23.702 63.875z"/><path d="m199.416 213.536v-12c0-4.142-3.358-7.5-7.5-7.5s-7.5 3.358-7.5 7.5v12c0 4.142 3.358 7.5 7.5 7.5s7.5-3.358 7.5-7.5z"/><path d="m316.813 194.036c-4.142 0-7.5 3.358-7.5 7.5v12c0 4.142 3.358 7.5 7.5 7.5s7.5-3.358 7.5-7.5v-12c0-4.142-3.357-7.5-7.5-7.5z"/></g></svg>