<svg id="Capa_1" enable-background="new 0 0 511.965 511.965" height="512" viewBox="0 0 511.965 511.965" width="512" xmlns="http://www.w3.org/2000/svg"><g><path d="m135.512 165.629c-14.15 18.79-30.129 36.183-34.769 60.163-56.84-6.53-93.23-16.96-93.23-30.05 36.839-42.97 86.279-41.233 127.999-30.113z" fill="#b18cd9"/><path d="m463.969 101.819-70.141 33.692-19.561-40.722 70.141-33.692c4.331-2.08 8.818 2.551 6.601 6.814l-10.448 20.093 22.215 4.404c4.714.934 5.524 7.331 1.193 9.411z" fill="#91d4f2"/><path d="m418.392 240.922c7.504 20.227 11.143 41.688 10.74 63.47-.39 21.34 4.94 42.33 15.6 60.82 4.81 8.35 7.4 18.15 6.96 28.58-1.17 27.78-24.2 50.09-52 50.43-12.11.14-23.28-3.79-32.25-10.52-64.279 54.12-158.463 54.271-222.92 0-8.97 6.73-20.14 10.66-32.25 10.52-27.8-.34-50.83-22.65-52-50.43-.44-10.43 2.15-20.23 6.96-28.58 10.66-18.49 15.99-39.48 15.6-60.82-.403-21.743 3.222-43.207 10.74-63.47z" fill="#eaaa83"/><circle cx="414.1" cy="255.982" fill="#ffcbbe" r="45.176"/><circle cx="97.865" cy="255.982" fill="#ffddcf" r="45.176"/><path d="m383.553 503.833-62.21-11.95-62.22 12.57h-1.7s-119.67-77-4.25-173.16c.94-.01 1.87-.02 2.81-.02 74.819 0 137.971 47.334 162.32 112.71 10.029 26.89-7.611 55.35-34.75 59.85z" fill="#ffcbbe"/><path d="m257.422 504.452h-5.5l-61.76-12.94-61.75 12.32c-27.14-4.5-44.78-32.96-34.75-59.85 23.96-64.332 85.68-111.508 159.51-112.69-5.92 32.53-18.74 120.561 4.25 173.16z" fill="#ffbbae"/><path d="m251.922 504.452h-116c-2.57 0-5.08-.21-7.51-.62 22.95-32.92 17.21-88.65 9.58-126.13 12-11.19 25.59-20.68 40.4-28.11l-12.76 26.86c41.33 10.33 68.48 97.06 81.45 122.56 1.241 2.44 2.84 4.43 4.84 5.44z" fill="#b18cd9"/><path d="m383.553 503.833c-2.43.41-4.94.62-7.51.62h-116.92c2.35-1.01 4.52-3 5.76-5.44 12.97-25.5 40.12-112.23 81.45-122.56l1.47-18.85c9.36 5.86 18.13 12.6 26.17 20.1-7.631 37.479-13.371 93.209 9.58 126.13z" fill="#bd9cde"/><path d="m414.102 255.982c0 65.72-40.39 123.22-99.19 146.76-30.96 12.55-64.97 14.62-96.86 6.75 0 0-.01 0-.02-.01-2.2-.86-192.56-76.57-55.56-273.97 3.11-4.48 5.95-8.8 8.52-12.95 60.04-38.25 141.42-32.52 195.48 20.31 30.06 29.36 47.63 69.681 47.63 113.11z" fill="#ffddcf"/><path d="m218.053 409.492c-33.71-8.32-65.03-27.76-87.84-57.68-42.48-55.65-43.57-133.83-.63-190.85 8.27-10.98 17.64-20.54 27.83-28.69l5.06 3.24c-.001 0-98.341 165.26 55.58 273.98z" fill="#ffcbbe"/><path d="m504.452 191.982c0 20.68-86.103 31.577-105.41 33.86 0 0-80.68 5.39-142.03-11.12 0 0-76.02-29.2-48.01-68.02l46.98-11.19c136.48 0 248.47 33.42 248.47 56.47z" fill="#bd9cde"/><path d="m257.012 214.722c-11.24-3.03-21.82-6.79-31.15-11.45-27.49-13.74-61.25-28.3-96.28-37.64l79.42-18.93c7.98 25.03 22.7 49.03 48.01 68.02z" fill="#b18cd9"/><path d="m414.102 165.632h-221.75c-42.42-66.22 19.81-151.76 19.81-151.76 13.91-4.14 28.61-6.36 43.82-6.36 71.78 0 132.15 47.73 151.57 112.94h-.01c.001 0-28.4 29.33 6.56 45.18z" fill="#bd9cde"/><path d="m216.502 165.632h-88.52l-27.75-7.01c24.9-8.04 4.81-37.95 4.81-37.95 15.77-50.9 56.17-91.66 107.12-106.8-8.29 28.501-22.69 95.61 4.34 151.76z" fill="#b18cd9"/><path d="m414.102 165.632h-197.6c-38.39-14.54-13.52-45.18-13.52-45.18h204.56c4.4 14.8 6.56 30.101 6.56 45.18z" fill="#a8e1f6"/><path d="m216.502 165.632h-88.52l-29.81-6.423v-1.106c.75-12.03 2.84-23.74 6.14-34.97.08-.33.18-.65.28-.97.15-.5.3-1 .45-1.49.02-.07.05-.15.07-.22h97.87c2.26 15.219 6.48 30.569 13.52 45.179z" fill="#91d4f2"/><g fill="#ffa1ac"><ellipse cx="172.417" cy="294.162" rx="30.834" ry="24.555"/><ellipse cx="339.548" cy="294.162" rx="30.834" ry="24.555"/></g></g><g><path d="m420.294 144.792c-.538-4.267-1.239-8.484-2.097-12.645l49.024-23.552c10.792-5.185 8.775-21.209-2.987-23.526l-12.403-2.463 5.839-11.227c5.471-10.546-5.596-22.275-16.504-17.035l-45.765 21.986c-45.37-70.576-136.17-96.43-210.882-59.641-3.716 1.83-5.245 6.326-3.415 10.042s6.325 5.244 10.042 3.415c78.836-38.821 174.868-.146 205.943 82.818h-281.414c9.74-25.197 26.057-47.764 47.595-65.049 3.23-2.592 3.748-7.313 1.155-10.543-2.593-3.231-7.314-3.748-10.543-1.155-35.588 28.561-58.192 70.278-62.678 115.227-36.518-.527-66.501 12.739-89.385 39.43-1.165 1.359-1.806 3.091-1.806 4.882 0 13.472 16.895 23.062 54.344 30.572-18.383 26.955-8.001 63.566 20.968 77.272.318 21.416-4.612 40.575-14.59 57.882-17.154 29.779-5.768 67.829 24.698 83.551-9.906 33.685 15.937 66.932 50.49 66.932h180.292c4.142 0 7.5-3.358 7.5-7.5s-3.358-7.5-7.5-7.5h-42.049c9.094-20.034 23.397-59.73 42.739-86.936 17.772-7.099 33.868-16.706 48.683-29.78.068.06.134.122.202.182-7.015 36.399-10.795 83.18 5.158 116.534h-24.804c-4.142 0-7.5 3.358-7.5 7.5s3.358 7.5 7.5 7.5h29.898c34.554 0 60.399-33.252 50.491-66.933 30.535-15.76 41.813-53.841 24.697-83.554-14.055-24.379-14.61-46.337-14.588-57.867 30.14-14.327 39.625-52.6 19.452-79.371 19.651-4.344 55.859-13.347 55.859-32.246 0-23.048-55.121-39.098-91.659-47.202zm20.606-73.68-6.992 13.441c-2.308 4.437.298 9.845 5.193 10.817l14.862 2.951-39.558 19.005c-2.976-9.737-6.826-19.093-11.459-27.981zm-330.153 56.852h291.074c2.513 9.719 4.086 19.812 4.597 30.181h-269.961c-10.629-2.788-20.695-4.705-30.286-5.757.857-8.29 2.403-16.454 4.576-24.424zm294.071 104.749c14.408 92.625-57.84 173.978-148.611 173.976-121.344-.005-190.787-134.983-126.281-233.172 28.715 7.856 59.845 20.113 92.583 36.476 47.72 23.86 141.815 27.708 182.309 22.72zm-258.643 147.722c.09-.08.178-.162.269-.242 14.502 12.785 30.97 22.783 48.553 29.757 19.377 27.207 33.694 66.942 42.803 87.015h-96.783c15.95-33.35 12.172-80.13 5.158-116.53zm-42.394-213.17 10.646 2.69c-6.467 10.589-11.675 21.768-15.567 33.379-11.455-.212-22.68 3.315-31.972 10.08-36.519-6.414-47.477-13.248-50.644-16.182 22.16-23.837 51.005-33.738 87.537-29.967zm-43.589 88.73c0-19.605 15.006-35.836 34.402-37.532-5.665 24.536-5.64 50.466.037 75.055-19.667-1.706-34.439-18.128-34.439-37.523zm13.538 112.976c10.638-18.452 16.343-39.408 16.607-60.854 3.123.451 5.835.587 8.564.535 7.561 22.592 20.023 43.417 36.732 61.095-19.094 17.055-34.357 37.937-44.729 61.207-21.858-12.274-29.759-40.136-17.174-61.983zm26.961 77.64c7.341-19.721 18.431-37.828 32.539-53.379 9.445 57.193.116 87.429-8.318 102.124-19.335-5.825-32.157-27.47-24.221-48.745zm157.509 49.008c-.942 1.849-3.541 1.753-4.431.007-7.246-14.259-19.405-49.15-36.456-78.595 25.528 6.167 51.907 6.216 77.274.105-16.97 29.349-29.207 64.364-36.387 78.483zm128.852-.264c-8.435-14.696-17.765-44.934-8.319-102.123 14.112 15.56 25.203 33.668 32.542 53.384 7.862 21.074-4.672 42.85-24.223 48.739zm51.181-126.387c12.588 21.851 4.681 49.713-17.173 61.986-10.358-23.237-25.599-44.099-44.666-61.156 16.511-17.496 29.005-38.388 36.631-61.127 2.759.061 5.49-.071 8.648-.531.244 13.665 2.243 35.993 16.56 60.828zm13.539-112.973c0 19.74-15.213 35.921-34.471 37.554 4.696-20.164 5.67-41.435 2.383-62.828 6.752-.973 13.163-1.998 19.217-3.076 8.211 7.158 12.871 17.32 12.871 28.35zm23.017-52.228c-22.232 7.208-53.251 11.871-76.425 14.615-5.094.314-112.538 6.499-169.148-21.806-18.09-9.042-35.725-16.861-52.783-23.432h237.67c4.142 0 7.5-3.358 7.5-7.5 0-1.739-.036-3.469-.09-5.195 21.863 5.056 40.481 10.886 54.257 17.012 16.838 7.488 21.04 13.159 21.189 14.466-.012.05-1.682 5.197-22.17 11.84z"/><path d="m190.387 250.735c-4.142 0-7.5 3.358-7.5 7.5v12c0 4.142 3.358 7.5 7.5 7.5s7.5-3.358 7.5-7.5v-12c0-4.142-3.358-7.5-7.5-7.5z"/><path d="m278.204 264.508c-3.123-2.721-7.86-2.396-10.582.727-6.178 7.09-17.132 7.053-23.279 0-2.721-3.124-7.459-3.448-10.582-.727s-3.448 7.459-.727 10.582c12.12 13.909 33.741 13.949 45.896 0 2.722-3.123 2.397-7.861-.726-10.582z"/><path d="m323.895 248.495c-21.328 0-28.124 28.906-13.906 28.906 4.142 0 7.5-3.358 7.5-7.5 0-3.532 2.874-6.406 6.406-6.406s6.406 2.874 6.406 6.406c0 4.142 3.358 7.5 7.5 7.5s7.5-3.358 7.5-7.5c0-11.803-9.603-21.406-21.406-21.406z"/></g></svg>