<svg id="Capa_1" enable-background="new 0 0 511.94 511.94" height="512" viewBox="0 0 511.94 511.94" width="512" xmlns="http://www.w3.org/2000/svg"><g><circle cx="97.853" cy="255.97" fill="#ffddcf" r="45.176"/><path d="m444.21 208.02v.16c-.01 8.46-6.79 15.27-15.04 15.27h-118.37c-1.26-.58-2.55-1.17-3.87-1.76-218.44-98.13-76.71-212.32-76.71-212.32 8.42-1.24 17.02-1.87 25.75-1.87 103.96 0 188.24 89.78 188.24 200.52z" fill="#767678"/><path d="m304.45 223.45h-221.68c-8.25 0-15.03-6.81-15.04-15.27v-.16c0-101.44 70.71-185.29 162.49-198.65-12.66 36.38-25.92 111.78 49.51 171.31 17.37 13.71 24.65 28.18 24.72 42.77z" fill="#666667"/><circle cx="414.088" cy="255.97" fill="#ffcbbe" r="45.176"/><path d="m376.03 504.44h-22.18l-96.55-17.32-11.27 1.97c-36.32-26.86-92.37-86.26-7.48-156.97 5.73-.57 11.54-.86 17.42-.86 21.9 0 42.85 4.07 62.14 11.48 13.81 5.31 26.77 12.34 38.61 20.84 27.79 19.9 49.44 47.82 61.57 80.39 10.93 29.3-10.99 60.47-42.26 60.47z" fill="#ffcbbe"/><path d="m257.3 487.12-11.27 1.97-87.94 15.35h-22.18c-31.27 0-53.19-31.17-42.26-60.47 11.73-31.49 32.36-58.63 58.83-78.39 13.69-10.23 28.95-18.47 45.35-24.31 12.93-4.61 26.58-7.73 40.72-9.15-6.54 35.9-12.82 103.79 18.75 155z" fill="#ffbbae"/><path d="m354 362.11-.15 21.86v120.47h-83.76c-41.26-9.08-23.4-38.36-23.4-38.36 3.03.47 6.13.71 9.28.71 33.27 0 60.24-26.96 60.24-60.23l1.9-63.82c13.81 5.31 24.05 10.87 35.89 19.37z" fill="#7888af"/><path d="m270.09 504.44h-112v-120.47l.12-21.46c13.69-10.23 23.22-15.4 39.62-21.24l-2.1 65.29c0 30.12 22.1 55.06 50.96 59.52 5.55 13.68 13.15 26.72 23.4 38.36z" fill="#687daa"/><path d="m226.89 411.42s-155.18-56.79-83.64-192.78c6.95.32 18.06 1.29 22.37-.32 10.24-3.82 25.27-18.54 30.11-30.11 17.55-41.92 15.06-75.3 89.43-72.99 16.51.51 32.95 3.09 47.73-4.3 3.14-1.57 6.45-3.39 9.9-5.52 5.57-3.43 14.57-.87 14.76 5.67 1.8 61.18 44.35 83.93 44.65 84.66 47.42 115.227-51.533 238.791-175.31 215.69z" fill="#ffddcf"/><path d="m226.89 411.42c-23.79-4.42-45.7-14.17-64.47-27.96-12.19-8.96-23.05-19.63-32.22-31.66-8.32-10.9-15.26-22.91-20.54-35.77-7.61-18.52-11.81-38.8-11.81-60.06 0-7.09 0-15.06 1.37-20.9 3.71-15.87 30.77-16.25 40.28-16.5.99-.02 2.28.01 3.75.07-7.53 64.31 5.71 139.59 83.64 192.78z" fill="#ffcbbe"/><ellipse cx="176.413" cy="274.37" fill="#ffa1ac" rx="29.355" ry="23.377"/><ellipse cx="335.527" cy="274.37" fill="#ffa1ac" rx="29.355" ry="23.377"/><path d="m207.675 214.194h-24.568c-10.322 0-18.015 9.518-15.851 19.61l1.361 6.345c2.287 10.666 11.713 18.285 22.621 18.285h8.307c10.908 0 20.334-7.619 22.621-18.285l1.361-6.345c2.163-10.093-5.531-19.61-15.852-19.61z" fill="#495560"/><path d="m306.934 214.194h24.568c10.321 0 18.015 9.518 15.851 19.61l-1.361 6.345c-2.287 10.666-11.713 18.285-22.621 18.285h-8.307c-10.908 0-20.334-7.619-22.621-18.285l-1.361-6.345c-2.163-10.093 5.531-19.61 15.852-19.61z" fill="#495560"/><circle cx="421.617" cy="301.147" fill="#ace094" r="15.059"/></g><g><path d="m448.016 215.681c2.332-3.527 3.697-7.742 3.702-12.271 0-113.68-88.716-203.41-195.74-203.41-28.249 0-55.536 6.137-81.103 18.241-3.744 1.773-5.342 6.244-3.57 9.988 1.773 3.744 6.245 5.342 9.988 3.57 23.546-11.147 48.673-16.799 74.685-16.799 97.882 0 180.74 82.236 180.74 188.401-.005 4.091-3.388 7.419-7.54 7.419h-13.816c-1.724-6.053-3.789-12.047-6.221-17.953-2.702-6.542-42.323-22.189-44.086-82.018-.368-12.474-15.694-18.295-26.197-11.831-3.032 1.872-6.166 3.62-9.314 5.193-12.813 6.407-28.228 4.006-44.145 3.512-80.155-2.486-79.558 36.926-96.576 77.586-4.504 10.762-17.064 25.51-23.196 25.51h-82.85c-4.152 0-7.535-3.329-7.54-7.41 0-62.709 29.77-121.101 79.635-156.199 3.387-2.384 4.2-7.063 1.816-10.45-2.385-3.387-7.063-4.199-10.45-1.816-53.85 37.905-86 100.882-86 168.475.006 4.524 1.37 8.736 3.701 12.262-37.87 31.947-14.418 93.899 34.93 92.957 7.577 22.619 20.105 43.464 36.755 61.08-21.892 19.568-38.761 44.169-48.993 71.631-12.935 34.674 13.294 70.592 49.287 70.592h150.032c4.143 0 7.5-3.358 7.5-7.5s-3.357-7.5-7.5-7.5h-120.354v-102.218c7.247 4.717 14.821 8.845 22.649 12.356.161 37.315 30.807 67.211 67.733 67.211 36.997 0 67.523-29.944 67.731-67.154 7.923-3.533 15.49-7.635 22.652-12.274v102.078h-30.124c-4.143 0-7.5 3.358-7.5 7.5s3.357 7.5 7.5 7.5h59.801c35.984 0 62.225-35.91 49.289-70.589-10.22-27.427-27.056-51.997-48.903-71.551 13.63-14.463 24.571-31.344 32.367-50.08 15.501 10.697 36.902-1.357 35.313-20.454 28.455-19.736 30.486-61.169 3.912-83.585zm-234.292 8.453c.255.343.54.661.848.953 3.621 4.688.761 9.153.267 13.489-1.535 7.16-7.964 12.357-15.287 12.357h-8.307c-7.323 0-13.752-5.197-15.288-12.357l-1.36-6.345c-1.164-5.429 2.977-10.538 8.518-10.538 22.899.696 26.345-1.678 30.609 2.441zm-137.197.802c4.051 1.167 6.712.885 13.831.885-.003 30.722-.911 45.338 4.243 67.683-35.014-3.053-47.179-48.518-18.074-68.568zm74.069 159.034v112.97h-14.678c-26.134 0-44.328-25.965-35.232-50.352 9.51-25.525 25.269-48.361 45.749-66.425 4.698 4.143 4.161 3.343 4.161 3.807zm144.142 58.353c-30.978 33.47-85.76 14.32-91.121-29.253 33.774 11.287 70.41 11.596 104.71.078-1.344 10.771-6.057 21.037-13.589 29.175zm116.533 4.268c9.097 24.385-9.102 50.349-35.233 50.349h-14.677v-112.97c0-.242-.293.306 4.264-3.713 20.428 18.05 36.151 40.851 45.646 66.334zm-99.18-50.812c-97.545 39.525-206.733-32.38-206.733-139.809 0-.35 0-24.835 0-30.15 45.261 0 28.34.003 54.488.003-1.13 5.751.038 9.339 1.444 15.898 3.009 14.029 15.606 24.212 29.954 24.212h8.307c14.349 0 26.946-10.183 29.954-24.212 1.368-6.378 2.564-10.14 1.456-15.845 17.916-1.822 34.788-1.822 52.702 0-1.103 5.682.028 9.184 1.456 15.845 3.008 14.029 15.605 24.212 29.954 24.212h8.307c14.349 0 26.946-10.183 29.954-24.212l1.36-6.345c3.169-14.777-8.102-28.682-23.184-28.682h-24.568c-5.396 0-10.525 1.805-14.66 5.067-24.03-3.006-45.908-3.006-69.939 0-4.135-3.263-9.264-5.067-14.66-5.067h-14.238c4.146-5.53 7.395-11.24 9.216-15.593 17.896-42.754 13.915-70.513 82.274-68.384 17.173.531 34.611 3.264 51.317-5.088 3.547-1.773 7.075-3.741 10.478-5.842 1.006-.618 2.647-.438 3.344-.072 1.302 40.185 19.842 70.986 46.016 88.897 30.244 76.521-6.665 164.207-83.999 195.167zm-5.149-174.085h24.568c5.553 0 9.678 5.12 8.518 10.538l-1.36 6.345c-1.536 7.161-7.965 12.357-15.288 12.357h-8.307c-7.323 0-13.752-5.197-15.288-12.357l-1.36-6.345c-1.157-5.402 2.974-10.538 8.517-10.538zm107.582 82.059c.851-2.803 1.624-5.619 2.322-8.447 4.902-4.013 12.342-.548 12.342 5.844 0 8.455-11.822 10.465-14.664 2.603zm23.165-18.426c-4.554-4.621-10.893-7.14-17.62-6.676 2.47-17.563 2.079-35.361-1.178-52.83 11.069 0 12.667.23 16.538-.885 20.72 14.274 21.996 44.511 2.26 60.391z"/><path d="m277.371 245.855c-3.124-2.721-7.86-2.396-10.582.727-5.864 6.729-16.025 6.422-21.621 0-2.722-3.123-7.459-3.447-10.582-.727-12.65 11.026 23.312 33.758 43.511 10.582 2.722-3.123 2.396-7.86-.726-10.582z"/></g></svg>