<svg id="Capa_1" enable-background="new 0 0 512.006 512.006" height="512" viewBox="0 0 512.006 512.006" width="512" xmlns="http://www.w3.org/2000/svg"><g><path d="m429.424 348.026c-11.069-16.104-16.6-34.391-16.195-52.975.021-.935.031-46.811.031-47.75 0-18.456-359.69-18.456-359.69 0 0 .939.01 46.815.031 47.75.405 18.585-5.126 36.872-16.195 52.975-5 7.274-7.691 15.807-7.234 24.891 1.215 24.193 25.129 43.627 54 43.92 12.578.128 24.178-3.297 33.495-9.16 31.279 22.088 71.666 35.388 115.75 35.388s84.471-13.3 115.75-35.388c9.317 5.863 20.917 9.287 33.495 9.16 28.87-.293 52.784-19.726 53.999-43.92.454-9.084-2.237-17.616-7.237-24.891z" fill="#767678"/><ellipse cx="353.885" cy="180.753" fill="#ff6e80" rx="128" ry="75.294"/><circle cx="391.532" cy="218.402" fill="#ffcbbe" r="45.176"/><circle cx="75.297" cy="218.402" fill="#ffddcf" r="45.176"/><path d="m293.655 504.517h-37.65s-72.01-18.78-75.14-82.73c-1.13-23.28 6.87-52.56 30.8-89.1 7.12-.89 14.38-1.35 21.75-1.35 28.63 0 55.64 6.91 79.45 19.15 1.16.6 2.31 1.21 3.46 1.83.07.04.15.08.22.12 20.39 83.51-22.89 152.08-22.89 152.08z" fill="#efedfe"/><path d="m256.005 504.517h-82.83s-43.14-69.38-28.21-149.05c1.83-1.09 3.67-2.14 5.54-3.15 18.6-10.1 39.24-16.9 61.16-19.63-3.74 42.79-3.141 122.92 44.34 171.83z" fill="#dedef9"/><path d="m315.995 368.987c0 37.43-37.18 67.77-83.06 67.77-4.76 0-9.43-.33-13.98-.96 0 0-61.64-29.34-7.29-103.11 7.12-.89 14.38-1.35 21.75-1.35 28.63 0 55.64 6.91 79.45 19.15 2.04 5.88 3.13 12.09 3.13 18.5z" fill="#ffcbbe"/><path d="m218.955 435.797c-1.32-.19-2.64-.4-3.94-.63-12.72-2.28-24.35-6.94-34.15-13.38-18.9-12.41-30.99-31.46-30.99-52.8 0-6.19 1.02-12.19 2.93-17.89 18-9.43 37.84-15.79 58.86-18.41-2.26 25.8-2.93 65.18 7.29 103.11z" fill="#ffbbae"/><path d="m391.385 225.267c-3.59 84.14-72.94 151.26-157.97 151.26-14.87 0-29.26-2.05-42.9-5.89 0 0-.01 0-.02-.01-2.02-.75-177.85-67.39-48.71-265.17 5.93-9.08 10.89-17.51 14.96-25.35 22.71-12.63 48.85-19.82 76.67-19.82 56.24 0 105.62 29.36 133.65 73.58-11.901 51.89 24.32 91.4 24.32 91.4z" fill="#ffddcf"/><path d="m190.515 370.637c-64.37-18.11-112.11-75.95-115.07-145.37 0 0 35.5-21.27 21.13-86.14 9.68-16.69 22.34-31.44 37.24-43.53l7.97 9.86s-73.601 163.16 48.73 265.18z" fill="#ffcbbe"/><path d="m112.945 180.757c0 22.33-16.21 40.88-37.5 44.51-.1-2.27-.15-4.56-.15-6.86 0-28.89 7.75-55.97 21.28-79.28l13.31 25.26c1.98 5.08 3.06 10.59 3.06 16.37z" fill="#666667"/><path d="m391.535 218.407c0 2.3-.05 4.59-.15 6.86-21.29-3.63-37.5-22.18-37.5-44.51 0-5.78 1.08-11.29 3.06-16.37l10.12-30.52c15.499 24.45 24.47 53.45 24.47 84.54z" fill="#767678"/><path d="m374.875 167.837c-33.588-10.016-68.817-15.503-104.25-17.32-16.7-.86-32.97-.9-48.51-.34-93.12-59.54-.48-142.12-.48-142.12 17.72-1.71 35.73.44 52.74 6.45l49.95 17.63c23.11 8.15 40.48 27.51 46.1 51.37l17.05 72.46c1.76 7.49-5.23 14.07-12.6 11.87z" fill="#ff8a98"/><path d="m222.115 150.177c-58.45 2.08-106.84 12.48-130.74 18.58-7.28 1.86-13.93-4.66-12.21-11.97l17.24-73.28c5.62-23.86 22.99-43.22 46.1-51.37 44.134-14.743 55.497-21.81 79.13-24.08-6.75 24.58-17.46 80.05.48 142.12z" fill="#ff6e80"/><path d="m279.495 120.517h-64c-28.4-16.63-3.16-58.68-2.65-59.53.01-.01.01-.01.01-.01l14.99-6c3.58-1.43 7.56-1.43 11.14 0l23.41 9.37c5.47 2.18 9.61 6.78 11.23 12.44l10.678 37.356c.913 3.194-1.486 6.374-4.808 6.374z" fill="#767678"/><path d="m215.495 120.517h-28.161c-3.322 0-5.72-3.18-4.807-6.374l10.678-37.356c1.62-5.66 5.76-10.26 11.23-12.44l8.42-3.37c-1.171 17.65-.831 37.89 2.64 59.54z" fill="#666667"/><ellipse cx="149.852" cy="233.992" fill="#ffa1ac" rx="30.834" ry="24.555"/><ellipse cx="316.982" cy="233.992" fill="#ffa1ac" rx="30.834" ry="24.555"/><path d="m353.824 504.517h-60.17v-113.12c0-16.72 9.12-31.32 22.67-39.08 15.867-9.067 28.317-4.805 51.5-5.92 7.43 0 12.27 7.83 8.94 14.48l-12.514 25.036c-.91 1.822-.61 4 .723 5.54 13.326 15.4 23.981 33.175 31.241 52.594 10.95 29.3-11.029 60.47-42.39 60.47z" fill="#ff8a98"/><path d="m173.175 391.397v113.12h-60.17c-31.36 0-53.34-31.17-42.39-60.47 7.26-19.419 17.914-37.194 31.241-52.594 1.333-1.54 1.633-3.718.723-5.54l-12.514-25.036c-3.33-6.65 1.51-14.48 8.94-14.48 23.183 1.115 35.633-3.147 51.5 5.92 13.55 7.76 22.67 22.36 22.67 39.08z" fill="#ff6e80"/></g><g><path d="m421.667 261.586c5.5-3.841 10.275-8.669 14.16-14.706 34.072-15.657 53.566-39.663 53.566-66.134 0-39.557-44.865-73.12-107.441-81.04l-4.219-17.93c-6.236-26.476-25.266-47.681-50.903-56.723l-49.949-17.629c-28.024-9.899-58.892-9.898-86.914-.001l-49.948 17.629c-47.099 16.611-51.517 61.551-52.521 63.59-.948 4.032 1.551 8.07 5.583 9.019 4.032.948 8.07-1.551 9.019-5.583.965-1.987 4.302-39.263 42.91-52.881l49.952-17.63c24.802-8.759 52.12-8.76 76.926 0l49.952 17.63c20.797 7.335 36.234 24.538 41.293 46.015l17.05 72.464c.438 1.864-1.287 3.516-3.15 2.959-27.111-8.086-54.425-13.045-80.996-15.75 2.8-12.857-1.535-24.024-2.85-26.984l-12.34-43.187c-2.239-7.835-8.093-14.319-15.658-17.346l-23.408-9.364c-5.389-2.155-11.324-2.155-16.713 0l-23.409 9.363c-7.564 3.026-13.418 9.511-15.658 17.346l-12.494 43.73c-1.366 4.782 2.226 9.56 7.212 9.56h100.139c1.002 3.741 1.849 9.545.027 15.569-83.243-5.94-157.152 9.179-191.351 17.906-1.808.46-3.5-1.12-3.06-2.993l8.533-36.265c.948-4.032-1.551-8.07-5.583-9.019-4.029-.947-8.069 1.551-9.019 5.583l-8.533 36.265c-.864 3.672-.527 7.402.867 10.735-11.672.57-22.929 5.001-31.917 12.791-25.846 22.401-23.897 63.291 4.368 83.013.009 13.831.02 32.951.03 33.605.391 18.162-4.314 34.503-13.985 48.568-21.385 31.096-1.138 71.59 40.398 79.344-3.017 5.952-5.708 12.074-8.034 18.3-12.944 34.635 13.29 70.596 49.415 70.596h240.82c36.091 0 62.371-35.929 49.415-70.595-2.343-6.271-5.028-12.373-8.029-18.302 41.562-7.762 61.767-48.264 40.395-79.342-9.672-14.067-14.377-30.408-13.985-48.618.009-.739.029-23.193.037-33.558zm-231.007-148.58 9.762-34.169c.974-3.406 3.519-6.225 6.807-7.541l23.408-9.363c1.797-.719 3.775-.718 5.572 0l23.407 9.363c3.289 1.316 5.834 4.135 6.807 7.541l9.763 34.169zm204.108 67.849c32.594 2.806 46.848 43.99 21.438 66.011-6.076 5.266-13.599 8.39-21.454 9.062 5.727-24.627 5.713-50.51.016-75.073zm79.625-.11c0 16.411-11.208 32.469-30.693 44.853 4.293-31.093-19.249-58.646-50.132-59.835 1.686-3.519 2.152-7.542 1.215-11.522l-9.145-38.867c51.283 8.028 88.755 35.118 88.755 65.371zm-96.477-4.996c3.775 12.803 5.823 26.058 6.095 39.53-16.525-7.179-25.844-25.384-21.611-43.195 11.129 2.985 11.727 3.685 15.516 3.665zm-30.074-7.268c-6.48 26.907 9.164 54.435 35.664 62.575-6.452 77.149-71.296 137.959-150.083 137.959s-143.631-60.81-150.083-137.959c25.964-7.975 41.562-34.608 36.029-61.037 51.479-10.589 139.588-21.826 228.473-1.538zm-61.679 229.675c-22.893 41.371-82.526 41.482-105.48 0 0-8.409.33-14.536-2.807-23.734 34.759 12.412 74.206 13.172 111.094 0-3.218 9.434-2.807 16.229-2.807 23.734zm-181.451-224.931c3.602 17.563-5.833 35.084-21.877 42.055.267-13.179 2.237-26.16 5.861-38.717 3.412.031 3.501-.433 16.016-3.338zm-67.079 45.17c0-19.624 15.046-35.875 34.452-37.541-5.696 24.56-5.729 50.401.009 75.072-19.487-1.668-34.461-17.981-34.461-37.531zm5.961 133.869c11.489-16.711 17.082-36.021 16.622-57.322-.007-.781-.016-17.22-.022-26.096 5.162 1.548 10.564 2.329 16.194 2.209 8.779 26.112 23.903 49.333 43.528 67.831h-20.903c-13.019 0-21.466 13.713-15.648 25.333l11.779 23.567c-5.72 6.725-10.947 13.856-15.592 21.294-33.392-3.056-52.355-32.977-35.958-56.816zm34.055 94.396c7.026-18.801 17.712-36.824 32.026-52.715 2.124-2.358 2.469-5.689 1.134-8.367-.767-1.538-13.155-26.322-14.03-28.072-.833-1.663.37-3.622 2.233-3.622h29.17c12.173 0 15.915 4.24 24.297 8.956 8.391 7.142 13.203 17.524 13.203 28.544v105.62h-52.67c-26.232.002-44.472-25.971-35.363-50.344zm276.184 50.346h-173.15v-74.288c29.169 28.698 76.296 28.712 105.48 0v51.788c0 4.142 3.358 7.5 7.5 7.5 4.143 0 7.5-3.358 7.5-7.5 0-12.152 0-72.526 0-83.12 0-11.02 4.811-21.402 13.203-28.544 8.485-4.774 12.167-8.956 24.297-8.956h29.17c1.869 0 3.064 1.963 2.23 3.627l-14.02 28.05c-1.367 2.735-.965 6.061 1.127 8.383 13.979 15.518 24.755 33.254 32.026 52.715 9.112 24.378-9.135 50.345-35.363 50.345zm69.42-144.741c16.549 24.062-2.837 53.78-35.954 56.813-4.652-7.438-9.855-14.548-15.597-21.293l11.776-23.561c5.831-11.645-2.647-25.338-15.645-25.338h-20.903c19.625-18.498 34.749-41.719 43.528-67.831 5.622.121 11.026-.659 16.203-2.212-.028 33.049-2.298 55.947 16.592 83.422z"/><path d="m167.83 217.541c4.143 0 7.5-3.358 7.5-7.5v-12c0-4.142-3.357-7.5-7.5-7.5s-7.5 3.358-7.5 7.5v12c0 4.142 3.358 7.5 7.5 7.5z"/><path d="m256.373 214.895c2.722-3.123 2.396-7.86-.727-10.582-3.125-2.721-7.861-2.396-10.582.727-6.153 7.061-17.107 7.081-23.278 0-2.721-3.123-7.459-3.448-10.581-.727-3.123 2.721-3.449 7.458-.728 10.582 12.12 13.909 33.741 13.948 45.896 0z"/><path d="m287.431 217.206c4.143 0 7.5-3.358 7.5-7.5 0-3.532 2.874-6.406 6.406-6.406s6.406 2.874 6.406 6.406c0 4.142 3.357 7.5 7.5 7.5s7.5-3.358 7.5-7.5c0-11.803-9.603-21.406-21.406-21.406-11.804 0-21.406 9.603-21.406 21.406 0 4.142 3.357 7.5 7.5 7.5z"/></g></svg>