<svg id="Capa_1" enable-background="new 0 0 511.966 511.966" height="512" viewBox="0 0 511.966 511.966" width="512" xmlns="http://www.w3.org/2000/svg"><g><path d="m402.463 408.955v86.693c-7.33 5.498-16.4 8.805-26.42 8.805h-117.75s-111.33-58.708-31.72-176.393c9.56-1.695 19.39-2.573 29.41-2.573 61.66 0 115.8 33.307 146.48 83.468z" fill="#7888af"/><path d="m258.293 504.453h-122.37c-8.95 0-17.13-2.635-23.99-7.12l-5.53-83.097c25.31-44.746 68.89-77.113 120.17-86.176-3.63 42.36-3.41 116.765 31.72 176.393z" fill="#687daa"/><path d="m439.428 315.04-40.386 144.237-67.765-188.235h74.78c22.947 0 39.558 21.9 33.371 43.998z" fill="#767678"/><path d="m421.63 449.249c0-15.254-10.113-27.619-22.588-27.619s-22.588 12.365-22.588 27.619c0 7.308 5.185 26.632 10.586 44.781 4.076 13.694 19.928 13.694 24.004 0 5.401-18.149 10.586-37.473 10.586-44.781z" fill="#767678"/><path d="m391.512 444.218h15.059c8.317 0 15.059-6.742 15.059-15.059 0-8.317-6.742-15.059-15.059-15.059h-15.059c-8.317 0-15.059 6.742-15.059 15.059 0 8.317 6.742 15.059 15.059 15.059z" fill="#ff8a98"/><circle cx="414.1" cy="255.983" fill="#ffcbbe" r="45.176"/><path d="m72.538 315.04 40.386 144.237 67.765-188.235h-74.78c-22.948 0-39.559 21.9-33.371 43.998z" fill="#666667"/><path d="m338.803 406.573c0 29.11-37.08 52.7-82.82 52.7-6.31 0-12.45-.45-18.36-1.3 0 0-59.54-32.9-12.43-100.34 9.52-2.43 19.91-3.77 30.79-3.77 45.74 0 82.82 23.6 82.82 52.71z" fill="#ffcbbe"/><path d="m237.623 457.973c-36.9-5.31-64.46-26.31-64.46-51.4 0-22.19 21.54-41.17 52.03-48.94-.78 28.72 1.45 64.96 12.43 100.34z" fill="#ffbbae"/><circle cx="97.865" cy="255.983" fill="#ffddcf" r="45.176"/><path d="m402.293 316.043c-30.253 73.615-111.264 114.109-189.19 92.17 0 0-.01 0-.02-.01-2.02-.84-176.65-74.41-52.72-278.16 26.55-20.19 59.69-32.18 95.62-32.18 112.815 0 188.8 114.772 146.31 218.18z" fill="#ffddcf"/><path d="m213.103 408.213c-67.117-18.849-115.24-80.412-115.24-152.23 0-51.4 24.52-97.06 62.5-125.94-20.76 60.6-49.83 193.21 52.74 278.17z" fill="#ffcbbe"/><path d="m428.693 201.453c-.69 10-12.61 10.021-22.03 6.601-20.88-7.58-54.55-20.331-85.93-68.481-10.39-15.94-30.91-20.69-46.79-10.83-15.02 9.32-29.35 17.76-42.92 25.39-113.28-38.65-6.31-143.68-6.31-143.68 10.14-1.93 20.59-2.94 31.27-2.94 100.585 0 180.111 89.151 172.71 193.94z" fill="#767678"/><path d="m231.023 154.133c-57.824 22.37-104.852 43.954-128.102 52.084-9.38 3.28-19.088 4.146-19.728-5.774-.26-4.06-.39-8.16-.39-12.29 0-27.82 6.03-54.17 16.8-77.7 23.54-51.45 69.73-89.46 125.11-100-9.15 30.3-22.55 93.93 6.31 143.68z" fill="#666667"/><path d="m90.336 449.249c0-15.254 10.113-27.619 22.588-27.619s22.588 12.365 22.588 27.619c0 7.308-5.185 26.632-10.586 44.781-4.076 13.694-19.928 13.694-24.004 0-5.402-18.149-10.586-37.473-10.586-44.781z" fill="#666667"/><path d="m120.453 444.218h-15.059c-8.317 0-15.059-6.742-15.059-15.059 0-8.317 6.742-15.059 15.059-15.059h15.059c8.317 0 15.059 6.742 15.059 15.059 0 8.317-6.742 15.059-15.059 15.059z" fill="#ff8a98"/><g fill="#ffa1ac"><ellipse cx="177.606" cy="263.881" rx="28.919" ry="23.03"/><ellipse cx="334.359" cy="263.881" rx="28.92" ry="23.03"/></g></g><g><path d="m434.679 207.494c7.671-51.341-6.954-103.282-40.471-143.145-59.957-71.308-164.229-84.986-240.23-32.831-3.415 2.344-4.283 7.012-1.939 10.428 2.343 3.416 7.013 4.285 10.428 1.94 69.812-47.908 165.37-35.165 220.262 30.116 29.962 35.635 43.469 81.797 37.616 127.712-29.617-7.368-65.121-30.21-93.409-71.817-12.603-18.538-37.567-24.075-56.83-12.61-90.534 53.889-156.549 76.842-178.587 83.674-6.463-51.812 11.927-101.807 47.054-137.151 2.92-2.938 2.905-7.686-.032-10.606-2.936-2.919-7.685-2.905-10.606.032-39.277 39.519-59.425 95.89-50.645 154.258-36.623 15.565-43.328 64.442-12.612 89.374-1.434 6.631-1.233 13.514.635 20.194l26.378 94.194c-8.207 6.298-10.973 17.137-7.181 26.41-3.471 11.584-1.93 21.005 9.227 58.501 2.607 8.772 9.238 14.666 17.198 15.514 1.276.351-.145.247 17.583.252 22.134.005 75.321.017 202.518.017 4.143 0 7.5-3.358 7.5-7.5s-3.357-7.5-7.5-7.5c-121.208 0-175.21-.011-199.178-.016.085-.256.179-.504.257-.765 11.003-36.986 12.718-46.842 9.227-58.5 3.168-7.744 1.866-16.974-4.161-23.633l11.49-31.9c6.151 5.223 12.128 9.591 18.424 13.606-4.808 17.999 2.126 39.04 26.302 54.423 34.811 22.149 90.35 22.16 125.178 0 24.133-15.355 31.125-36.385 26.3-54.421 6.151-3.924 12.143-8.278 18.425-13.61l11.491 31.903c-6.031 6.664-7.327 15.895-4.161 23.633-3.469 11.586-1.929 20.999 9.227 58.499.08.267.176.521.263.783h-18.73c-4.142 0-7.5 3.358-7.5 7.5s3.358 7.5 7.5 7.5c41.1 0 38.197.113 39.6-.263 7.982-.83 14.634-6.73 17.246-15.518 10.902-36.641 10.902-44.377 10.902-46.919 0-4-.565-7.881-1.675-11.584 3.793-9.274 1.025-20.112-7.181-26.41l26.378-94.196c1.868-6.679 2.068-13.561.635-20.193 30.735-24.956 23.966-73.828-12.616-89.375zm-374.484 48.486c0-19.596 15.009-35.856 34.429-37.538-5.795 24.735-5.795 50.245.026 75.075-19.574-1.685-34.455-18.068-34.455-37.537zm18.561 49.079c6.33 2.467 13.108 3.728 20.19 3.587 7.895 23.566 20.753 44.695 37.803 62.32l-12.924 35.884c-2.4-.361-2.759-.252-17.862-.252l-26.205-93.578c-.735-2.63-1.06-5.306-1.002-7.961zm19.082 124.097c0-4.168 3.392-7.559 7.56-7.559h15.059c4.168 0 7.559 3.391 7.559 7.559s-3.391 7.559-7.559 7.559h-15.059c-4.168 0-7.56-3.391-7.56-7.559zm.053 21.27c5.838 2.067 9.352.99 22.565 1.289 2.63 0 5.155-.457 7.504-1.288-.3 3.718-2.049 13.987-10.224 41.466-1.945 6.541-7.679 6.537-9.622-.001-8.175-27.479-9.923-37.748-10.223-41.466zm212.631-12.918c-49.543 31.523-134.257 6.783-129.688-33.894 47.181 24.099 103.107 24.116 150.302 0 1.611 14.349-8.441 26.149-20.614 33.894zm32.093-58.299c-83.877 59.112-200.473 18.404-230.545-78.72-9.224-29.796-9.038-61.053.494-90.636 31.168-10.916 89.318-34.5 165.212-79.675 12.459-7.416 28.603-3.834 36.754 8.154 29.609 43.551 62.778 63.428 85.163 72.425 19.474 61.768-2.591 130.002-57.078 168.452zm63.958 42.388c4.168 0 7.56 3.391 7.56 7.559s-3.392 7.559-7.56 7.559h-15.059c-4.168 0-7.559-3.391-7.559-7.559s3.391-7.559 7.559-7.559zm-2.717 70.296c-1.939 6.528-7.673 6.549-9.622-.002-8.174-27.477-9.922-37.746-10.223-41.464 5.832 2.064 9.309.989 22.562 1.288 2.631 0 5.157-.457 7.507-1.289-.3 3.718-2.048 13.987-10.224 41.467zm2.152-85.296c-15.238 0-15.572-.092-17.862.252l-12.924-35.883c17.049-17.616 29.902-38.732 37.804-62.32 7.133.142 13.915-1.143 20.189-3.589.159 7.225.045 2.704-27.207 101.54zm11.324-113.081c5.815-24.816 5.817-50.321.018-75.074 19.377 1.678 34.426 17.906 34.426 37.538-.001 19.482-14.892 35.846-34.444 37.536z"/><path d="m194.463 217.552c-11.725 0-21.265 9.539-21.265 21.265 0 4.142 3.357 7.5 7.5 7.5s7.5-3.358 7.5-7.5c0-3.455 2.811-6.265 6.265-6.265s6.265 2.81 6.265 6.265c0 4.142 3.357 7.5 7.5 7.5s7.5-3.358 7.5-7.5c0-11.726-9.539-21.265-21.265-21.265z"/><path d="m317.508 217.552c-11.726 0-21.265 9.539-21.265 21.265 0 4.142 3.357 7.5 7.5 7.5s7.5-3.358 7.5-7.5c0-3.455 2.811-6.265 6.265-6.265s6.265 2.81 6.265 6.265c0 4.142 3.357 7.5 7.5 7.5s7.5-3.358 7.5-7.5c0-11.726-9.54-21.265-21.265-21.265z"/><path d="m275.515 249.252c-3.122-2.723-7.86-2.396-10.582.726-4.795 5.501-13.196 5.391-17.895 0-2.723-3.123-7.46-3.448-10.582-.726-3.123 2.722-3.447 7.459-.727 10.582 10.699 12.275 29.781 12.311 40.512 0 2.722-3.123 2.397-7.861-.726-10.582z"/></g></svg>