<svg id="Capa_1" enable-background="new 0 0 511.985 511.985" height="512" viewBox="0 0 511.985 511.985" width="512" xmlns="http://www.w3.org/2000/svg"><g><circle cx="414.11" cy="209.392" fill="#ffcbbe" r="45.176"/><circle cx="97.875" cy="209.392" fill="#ffddcf" r="45.176"/><path d="m135.778 156.904c-12.334 19.543-38.296 25.31-57.989 12.882-14.118-8.91-21.178-24.753-19.5-40.21-5.508-.876-10.939-2.855-15.962-6.025-19.692-12.428-25.658-38.346-13.324-57.889 9.987-15.824 28.908-22.612 46.202-18.027 1.046-4.175 2.751-8.257 5.171-12.091 12.334-19.543 38.296-25.31 57.989-12.882 1.214.766 2.375 1.584 3.483 2.449 12.766-18.048 37.694-23.062 56.752-11.035 19.692 12.428 25.658 38.346 13.324 57.889z" fill="#dedef9"/><path d="m376.207 156.904c12.334 19.543 38.296 25.31 57.989 12.882 14.118-8.91 21.178-24.753 19.5-40.21 5.508-.876 10.94-2.855 15.962-6.025 19.692-12.428 25.658-38.346 13.324-57.889-9.987-15.824-28.908-22.612-46.202-18.027-1.046-4.175-2.751-8.257-5.171-12.091-12.334-19.543-38.296-25.31-57.989-12.882-1.214.766-2.375 1.584-3.483 2.449-12.767-18.048-37.695-23.062-56.752-11.035-19.692 12.428-25.658 38.346-13.324 57.889z" fill="#efedfe"/><path d="m376.532 504.462h-22.66l-22.59-9.74-22.58 9.74h-54.45s-141.54-67.55-28.37-171.19c9.93-1.77 20.15-2.7 30.59-2.7 74.37 0 137.79 47.07 162.32 113.17 10.92 29.42-10.99 60.72-42.26 60.72z" fill="#7888af"/><path d="m254.252 504.462h-50.97l-22.58-7.85-22.59 7.85h-21.7c-31.27 0-53.19-31.3-42.27-60.72 21.09-56.82 70.92-99.58 131.74-110.47-3.32 29.72-9.16 116.95 28.37 171.19z" fill="#687daa"/><path d="m414.112 209.392c0 87.33-70.79 158.12-158.12 158.12-3.52 0-7.01-.11-10.47-.34-273.98-118.11-30.1-309.35-27.65-311.27.24-.06.49-.12.73-.18 11.99-2.91 24.51-4.45 37.39-4.45 87.33 0 158.12 70.79 158.12 158.12z" fill="#ffddcf"/><path d="m245.522 367.172c-.71-.05-1.42-.1-2.13-.16-6.4-.51-12.93-1.44-19.52-2.77-.66-.13-1.33-.27-1.99-.42-.02 0-.04 0-.06-.01-70.9-15.62-123.95-78.83-123.95-154.42 0-71.63 47.62-132.13 112.93-151.57 2.57-.77 4.464-1.299 7.094-1.929-51.04 61.39-150.024 211.149 27.626 311.279z" fill="#ffcbbe"/><path d="m325.202 260.121c3.505-2.057 3.089-7.27-.682-8.785-7.205-2.895-16.963-7.359-21.428-11.824-7.529-7.529-15.059-22.588-45.176-22.588s-37.647 15.059-45.176 22.588c-4.464 4.464-14.223 8.929-21.428 11.824-3.771 1.515-4.187 6.729-.682 8.785 10.914 6.405 32.343 8.765 60.303.823 4.568-1.297 9.398-1.297 13.966 0 27.96 7.942 49.389 5.583 60.303-.823z" fill="#efedfe"/><path d="m158.11 368.934h45.176v135.529h-45.176z" fill="#91d4f2"/><path d="m308.698 368.934h45.176v135.529h-45.176z" fill="#a8e1f6" transform="matrix(-1 0 0 -1 662.573 873.397)"/><ellipse cx="179.935" cy="206.251" fill="#ffa1ac" rx="29.355" ry="23.377"/><ellipse cx="339.048" cy="206.251" fill="#ffa1ac" rx="29.355" ry="23.377"/><path d="m427.692 257.102c-11.14 97.21-83.77 163.82-171.7 163.82-18.1 0-35.54-2.82-51.94-8.15-104.65-66.33-22.95-109.2-22.95-109.2 17.5 7.25 37.51 5.46 53.96-4.61 6.1-3.73 13.26-6.04 20.93-6.04v.17c7.67 0 14.83 2.14 20.93 5.87 18.49 11.32 41.47 12.18 60.34 1.5 39.08-22.11 76.85-44.67 76.85-83.26v-.28c10.24 10.73 15.26 25.45 13.58 40.18z" fill="#efedfe"/><path d="m204.052 412.772c-63.28-20.56-110.91-78.47-119.76-155.67-1.683-14.99 3.477-29.591 13.58-40.18-.18 38.76 37.68 61.38 76.85 83.54 2.08 1.18 4.21 2.21 6.38 3.11-8.51 24.03-17.05 70.48 22.95 109.2z" fill="#dedef9"/></g><g><path d="m489.325 61.68c-10.28-16.278-28.735-24.841-47.493-22.608-11.336-27.572-44.513-38.613-70.244-23.928-29.665-30.95-82.56-11.477-85.34 31.447-20.388-3.794-40.987-3.638-60.513-.071-1.035-15.63-9.478-30.153-23.131-38.768-20.239-12.764-46.23-9.274-62.206 7.392-12.306-7.023-27.068-8.492-40.745-3.813-13.523 4.626-24.163 14.751-29.5 27.741-18.752-2.23-37.213 6.333-47.493 22.611-8.846 14.019-10.022 31.444-3.146 46.612 6.025 13.289 17.362 23.115 31.053 27.217.341 11.998 5.055 23.86 13.983 33.089-12.133 9.887-19.348 24.75-19.348 40.814 0 21.191 12.514 39.995 31.62 48.301 4.69 42.851 22.626 85.321 53.269 117.177-18.95 18.634-33.743 41.384-42.98 66.262-12.701 34.22 12.764 70.83 49.301 70.83h119.58c4.143 0 7.5-3.358 7.5-7.5s-3.357-7.5-7.5-7.5h-45.21v-74.431c29.28 7.799 60.671 7.924 90.42 0v74.431h-15.097c-4.143 0-7.5 3.358-7.5 7.5s3.357 7.5 7.5 7.5h90.427c36.494 0 62.005-36.576 49.291-70.829-9.308-25.09-24.27-48.011-43.466-66.755 28.971-30.349 47.614-71.317 52.782-116.418.01-.089.013-.178.023-.268 36.338-15.797 42.581-64.419 12.272-89.116 8.941-9.247 13.642-21.106 13.983-33.089 13.691-4.103 25.028-13.928 31.054-27.217 6.876-15.168 5.7-32.592-3.146-46.613zm-429.863 60.507c-11.587-1.83-21.414-9.339-26.287-20.087-12.03-26.535 12.169-54.596 40.107-47.195 4.03 1.069 8.172-1.362 9.193-5.419 6.206-24.644 35.5-33.536 54.75-18.448 3.368 2.64 8.273 1.932 10.751-1.573 10.538-14.904 31.017-18.868 46.624-9.027 10.256 6.472 16.305 17.703 16.239 29.527-20.627 5.801-39.956 15.63-57.208 29.228-3.253 2.564-3.812 7.28-1.248 10.533 2.565 3.253 7.281 3.812 10.533 1.247 26.707-21.051 58.892-32.177 93.076-32.177 90.081 0 160.161 78.731 149.574 168.37-5.737 27.199-34.967 45.847-72 66.796-16.182 9.154-36.387 8.629-52.733-1.371-14.562-8.907-33.322-10.006-49.68 0-16.344 9.999-36.551 10.525-52.732 1.371-37.036-20.951-66.268-39.6-72.002-66.802-4.892-41.389 7.042-81.816 33.637-113.883 2.644-3.188 2.203-7.917-.985-10.561-3.188-2.643-7.916-2.204-10.561.985-15.999 19.291-27.163 41.337-33.122 64.798-7.879-1.152-15.206-4.999-20.701-10.987-6.752-7.358-10.009-17.238-8.937-27.105.431-3.98-2.336-7.596-6.288-8.22zm.741 87.228c0-12.761 6.378-24.446 16.859-31.392 4.775 2.537 9.936 4.297 15.292 5.178-1.595 10.099-2.241 20.402-1.93 30.807-6.732 7.819-11.158 17.167-12.987 27.084-10.584-6.815-17.234-18.611-17.234-31.677zm45.374 271.407c-7.123-10.241-8.728-22.797-4.403-34.447 8.529-22.971 22.223-43.968 39.776-61.126 3.138 2.751 6.361 5.379 9.663 7.883v103.853c-6.972-1.084-30.185 5.191-45.036-16.163zm90.206 16.163h-30.17v-93.655c9.585 5.803 19.686 10.648 30.17 14.487zm120.42-79.168c10.484-3.839 20.584-8.683 30.17-14.487v93.654h-30.17zm95.558 28.558c9.092 24.496-9.083 50.61-35.229 50.61h-15.16v-103.853c3.481-2.639 6.874-5.416 10.171-8.329 17.778 17.258 31.625 38.409 40.218 61.572zm8.476-190.099c-5.147 44.917-24.589 85.318-54.745 113.76-93.048 87.76-256.26 38.805-273.744-113.76-.726-6.335-.005-12.654 2.021-18.54 3.985 11.551 11.503 22.37 22.678 32.711 14.627 13.536 33.375 24.57 54.587 36.57 20.921 11.835 46.956 11.21 67.946-1.631 4.861-2.974 10.232-4.657 15.618-4.905.453.085.92.13 1.397.13 6.022 0 11.904 1.651 17.01 4.775 20.989 12.841 47.023 13.466 67.945 1.631 21.212-11.999 39.961-23.034 54.588-36.57 11.174-10.342 18.691-21.16 22.678-32.711 2.027 5.886 2.747 12.204 2.021 18.54zm14.31-15.184c-1.831-9.929-6.266-19.286-13.011-27.111.281-10.347-.411-20.641-2.035-30.756 5.403-.874 10.608-2.644 15.422-5.203 22.777 15.094 22.291 48.475-.376 63.07zm44.262-138.992c-4.872 10.748-14.699 18.257-26.286 20.087-3.952.624-6.719 4.241-6.286 8.218 2.028 18.665-11.339 35.483-29.771 38.111-14.669-57.513-58.726-102.365-115.315-118.422-.316-33.667 43.438-48.102 62.857-20.629 2.481 3.509 7.385 4.211 10.751 1.574 19.255-15.093 48.552-6.174 54.75 18.448 1.026 4.069 5.174 6.484 9.193 5.419 14.659-3.883 29.902 2.059 37.938 14.782 6.236 9.882 7.027 21.697 2.169 32.412z"/><path d="m186.834 266.612c14.637 8.59 39.365 9.176 66.148 1.569 3.228-.917 6.64-.917 9.868 0 20.039 5.692 48.197 8.965 66.147-1.569 8.888-5.215 7.857-18.381-1.682-22.213-16.938-6.806-18.985-10.092-22.132-13.725-7.32-8.453-18.384-21.227-47.269-21.227-33.01 0-42.09 16.395-50.479 24.785-1.29 1.289-5.714 4.861-18.92 10.167-4.428 1.779-7.399 5.845-7.754 10.611-.352 4.751 1.974 9.196 6.073 11.602zm35.154-26.119c6.514-7.522 13.896-16.047 35.929-16.047 26.449 0 31.743 12.261 39.873 20.391 3.56 3.561 9.726 7.296 18.367 11.132-9.871 3.231-26.866 4.128-49.208-2.217-5.907-1.678-12.155-1.678-18.064 0-22.339 6.345-39.336 5.449-49.207 2.217 15.171-6.735 18.398-10.959 22.31-15.476z"/><path d="m189.543 171.77v12c0 4.142 3.358 7.5 7.5 7.5s7.5-3.358 7.5-7.5v-12c0-4.142-3.358-7.5-7.5-7.5s-7.5 3.358-7.5 7.5z"/><path d="m321.941 164.27c-4.143 0-7.5 3.358-7.5 7.5v12c0 4.142 3.357 7.5 7.5 7.5s7.5-3.358 7.5-7.5v-12c0-4.142-3.358-7.5-7.5-7.5z"/><path d="m188.228 134.802c4.992 0 60.121-16.574 133.902-.179.548.122 1.095.18 1.634.18 3.438-.001 6.538-2.379 7.314-5.875.898-4.043-1.65-8.05-5.694-8.948-31-6.889-79.671-12.592-135.485-.636-.9.193-1.908.409-2.332.486-3.833.335-6.839 3.552-6.839 7.471 0 4.143 3.358 7.501 7.5 7.501zm0-15c-.18 0-.357.006-.534.019.204-.02.353-.019.534-.019z"/><path d="m204.913 104.415c43.443-9.653 58.718-9.653 102.158 0 9.804 2.18 12.84-12.513 3.254-14.643-45.701-10.156-62.965-10.156-108.666 0-4.044.899-6.593 4.905-5.694 8.948s4.902 6.594 8.948 5.695z"/></g></svg>