<svg id="Capa_1" enable-background="new 0 0 511.94 511.94" height="512" viewBox="0 0 511.94 511.94" width="512" xmlns="http://www.w3.org/2000/svg"><g><path d="m451.68 435.139c-1.17 27.78-24.2 50.09-52 50.43-12.11.14-23.28-3.79-32.25-10.52-30.12 25.36-69.01 10.512-111.46 10.512s-81.34 14.848-111.46-10.512c-8.97 6.73-20.14 10.66-32.25 10.52-27.8-.34-50.83-22.65-52-50.43-.44-10.43 2.15-20.23 6.96-28.58 10.66-18.49 15.99-80.839 15.6-102.179-.02-1.08-.03-2.15-.03-3.23 0-21.19 3.81-41.48 10.77-60.24-.08-.22-.16-.43-.24-.65h325.3c-.08.22-.16.43-.24.65 6.96 18.76 10.77 39.05 10.77 60.24 0 1.08-.01 2.15-.03 3.23-.39 21.34 4.94 83.689 15.6 102.179 4.81 8.35 7.4 18.15 6.96 28.58z" fill="#f9d171"/><path d="m376.03 504.44h-97.3s-102.57-80.06-41.96-172.12c6.3-.7 12.71-1.06 19.2-1.06 74.37 0 137.79 46.88 162.32 112.71 10.93 29.3-10.99 60.47-42.26 60.47z" fill="#bd9cde"/><path d="m278.73 504.44h-15.26l-7.5-5.039-7.5 5.039h-112.56c-31.27 0-53.19-31.17-42.26-60.47 22.39-60.09 77.18-104.38 143.12-111.65-3.84 35.51-1.91 110.99 41.96 172.12z" fill="#b18cd9"/><ellipse cx="414.088" cy="255.97" fill="#ffcbbe" rx="45.177" ry="45.176" transform="matrix(.082 -.997 .997 .082 125.076 647.711)"/><path d="m308.68 391.5c0 29.11-23.6 52.71-52.71 52.71-2.54 0-5.03-.18-7.47-.53 0 0-60.96-31.24-12.7-100.89.04-.02.07-.03.11-.04 6.18-2.56 12.95-3.96 20.06-3.96 29.11 0 52.71 23.6 52.71 52.71z" fill="#ffcbbe"/><path d="m248.5 443.681c-1.5-.21-2.97-.49-4.43-.82h-.01c-23.37-5.4-40.8-26.34-40.8-51.36 0-21.97 13.44-40.8 32.54-48.71.04-.02.07-.03.11-.04-1.5 25.059.17 62.489 12.59 100.93z" fill="#ffbbae"/><ellipse cx="97.853" cy="255.97" fill="#ffddcf" rx="45.177" ry="45.176" transform="matrix(.119 -.993 .993 .119 -167.949 322.641)"/><path d="m414.09 255.97c0 21.26-4.2 41.54-11.81 60.06-23.64 57.54-80.24 98.06-146.31 98.06-9.21 0-18.23-.79-27-2.3 0 0-195.41-66.77-74.11-277.39 27.41-22.82 62.66-36.55 101.11-36.55 87.33 0 158.12 70.79 158.12 158.12z" fill="#ffddcf"/><path d="m228.97 411.79c-54.2-9.32-98.96-46.24-119.31-95.76-7.61-18.52-11.81-38.8-11.81-60.06 0-48.88 22.17-92.57 57.01-121.57-18.93 52.481-52.41 189.99 74.11 277.39z" fill="#ffcbbe"/><ellipse cx="177.593" cy="272.207" fill="#ffa1ac" rx="28.919" ry="23.03"/><ellipse cx="334.347" cy="272.207" fill="#ffa1ac" rx="28.919" ry="23.03"/><path d="m429.15 191.43c0 3.744-.104 7.456-.311 11.138-.377 6.717-6.076 11.936-12.789 11.497-.031-.002-.051-.004-.06-.005-19.45-1.84-63.36 7.61-112.22-53.29-24.38 21.53-50.28 34.11-75.41 41.54-163-69.32-9.52-190.57-9.52-190.57 11.96-2.77 24.39-4.24 37.13-4.24 95.64 0 173.18 82.34 173.18 183.93z" fill="#f9d171"/><path d="m228.36 202.312c-43.32 12.804-84.33 10.3-111.23 11.868h-21.325c-6.096 0-11.24-4.529-12.01-10.576-.537-4.217-1.005-8.848-1.005-12.172 0-88.052 58.25-161.641 136.05-179.687-19.08 30.474-59.86 114.302 9.52 190.567z" fill="#f3c23b"/><path d="m370.64 148.34c-27.62-32.42-68.74-52.97-114.67-52.97-23.82 0-46.35 5.53-66.37 15.37-35.34-8.34 4.31-44.22 5.18-45 .01-.01.01-.01.01-.01 18.18-9.91 39.03-15.54 61.18-15.54 58.77 0 108.3 39.61 123.32 93.59 1.45 5.19-5.16 8.66-8.65 4.56z" fill="#a8e1f6"/><path d="m189.6 110.74c-18.59 9.14-35.01 21.99-48.3 37.6-3.49 4.1-10.1.63-8.65-4.56 9.36-33.63 32.11-61.68 62.14-78.05-3.67 13.74-5.9 28.97-5.19 45.01z" fill="#91d4f2"/><g fill="#a8e1f6"><ellipse cx="90.323" cy="301.147" rx="15.059" ry="15.059" transform="matrix(.842 -.54 .54 .842 -148.189 96.306)"/><ellipse cx="421.617" cy="301.147" rx="15.059" ry="15.059" transform="matrix(.528 -.849 .849 .528 -56.82 500.014)"/></g></g><g><path d="m436.887 317.71c5.091-4.731 7.741-11.603 7.196-18.438 33.498-23.225 28.993-74.064-7.929-91.12-.122-.324-.26-.64-.424-.941 10.674-109.816-71.77-207.211-179.766-207.211-24.989 0-49.148 5.187-71.807 15.417-3.775 1.704-5.454 6.146-3.749 9.922 1.705 3.775 6.147 5.455 9.922 3.749 20.706-9.348 42.788-14.088 65.634-14.088 98.709 0 173.291 88.537 165.064 188.127-9.161-.287-3.7-.395-14.614-.516-21.357-.227-57.102-.605-96.842-49.268-2.693-3.297-7.552-3.672-10.724-.921-59.611 51.711-128.497 50.541-207.973 50.625-5.14-62.286 21.922-122.295 71.657-157.919 3.368-2.412 4.142-7.097 1.73-10.464-2.412-3.368-7.097-4.143-10.464-1.73-55.005 39.398-84.465 106.17-77.51 174.992-37.44 16.81-42.03 68.066-8.436 91.351-.543 6.839 2.103 13.699 7.189 18.429-1.314 28.641-6.742 71.958-14.327 85.11-18.731 32.518-3.331 74.214 32.177 86.79 9.847 13.988 25.896 22.334 43.012 22.334h187.871c4.142 0 7.5-3.358 7.5-7.5s-3.358-7.5-7.5-7.5h-60.311v-45.702c22.375-2.827 41.589-18.135 49.217-39.517 19.387-7.022 37.283-17.667 52.865-31.514 20.459 18.048 36.204 40.868 45.711 66.384 9.08 24.343-9.042 50.349-35.233 50.349h-22.696c-4.142 0-7.5 3.358-7.5 7.5s3.358 7.5 7.5 7.5h22.696c17.117 0 33.166-8.347 43.015-22.335 35.511-12.58 50.903-54.276 32.172-86.792-7.581-13.149-13.009-56.461-14.323-85.103zm-19.835-22.597c3.682-2.84 9.671-1.671 11.62 3.33 2.435 6.144-3.987 12.48-10.272 9.539-1.773-.831-3.093-2.244-3.79-3.987.899-2.94 1.712-5.902 2.442-8.882zm20.646-9.805c-4.579-4.665-10.946-7.054-17.497-6.667 2.731-19.798 1.817-40.143-2.886-60.206 33.7 2.911 46.811 45.575 20.383 66.873zm-300.405-67.897c43.267-.934 107.925-2.328 165.561-48.785 39.481 45.068 76.468 48.48 98.781 48.921 25.233 95.32-46.675 189.044-145.67 189.044-98.703 0-170.672-93.347-145.803-188.532 15.186.006.204-.067 27.131-.648zm-50.794 90.266c-6.058-3.567-4.419-12.821 2.576-13.977 6.622-1.097 5.998 2.962 8.243 10.299-1.63 4.07-6.701 6.087-10.819 3.678zm8.111-89.243c-4.706 20.062-5.612 40.408-2.881 60.206-6.652-.393-12.99 2.071-17.502 6.665-26.559-21.408-13.076-63.977 20.383-66.871zm-20.899 191.873c10.295-17.852 14.801-65.947 16.032-86.624 4.847.127 9.415-1.274 13.299-3.925 7.785 18.452 18.893 35.412 32.57 49.967-21.891 19.558-38.76 44.156-48.994 71.624-3.2 8.579-4.066 17.508-2.728 26.132-16.224-13.605-21.454-37.601-10.179-57.174zm62.193 86.633c-26.191 0-44.312-26.009-35.232-50.352 9.507-25.515 25.253-48.337 45.715-66.386 15.582 13.846 33.476 24.49 52.858 31.514 7.626 21.384 26.841 36.695 49.219 39.522v45.702zm83.07-79.462c24.252 5.478 49.673 5.489 73.977.003-18.01 25.511-55.816 25.725-73.977-.003zm209.066 50.002c1.337-8.623.471-17.551-2.728-26.129-10.234-27.467-27.101-52.063-48.989-71.621 13.672-14.552 24.79-31.538 32.566-49.971 4.055 2.765 8.638 4.042 13.296 3.921 1.229 20.643 5.738 68.774 16.03 86.623 11.272 19.567 6.058 43.564-10.175 57.177z"/><path d="m180.677 254.646c4.142 0 7.5-3.358 7.5-7.5 0-3.455 2.811-6.265 6.265-6.265 3.455 0 6.265 2.811 6.265 6.265 0 4.142 3.358 7.5 7.5 7.5s7.5-3.358 7.5-7.5c0-11.726-9.54-21.265-21.265-21.265s-21.265 9.54-21.265 21.265c0 4.143 3.358 7.5 7.5 7.5z"/><path d="m303.722 254.646c4.142 0 7.5-3.358 7.5-7.5 0-3.455 2.811-6.265 6.265-6.265 3.455 0 6.265 2.811 6.265 6.265 0 4.142 3.358 7.5 7.5 7.5s7.5-3.358 7.5-7.5c0-11.726-9.54-21.265-21.265-21.265-11.726 0-21.265 9.54-21.265 21.265 0 4.143 3.357 7.5 7.5 7.5z"/><path d="m276.22 268.163c2.721-3.123 2.396-7.86-.727-10.582-3.123-2.721-7.86-2.396-10.582.727-4.71 5.405-13.111 5.488-17.894 0-2.721-3.123-7.46-3.447-10.581-.727-3.123 2.722-3.448 7.459-.727 10.582 10.719 12.299 29.803 12.286 40.511 0z"/><path d="m125.416 141.766c-2.305 8.28 4.065 15.874 12.065 15.874 3.565-.001 7.055-1.539 9.521-4.433 57.213-67.151 160.799-67.05 217.925 0 3.85 4.519 10.192 5.732 15.422 2.951 5.216-2.773 7.751-8.69 6.163-14.392-16.24-58.336-69.924-99.079-130.548-99.079s-114.307 40.743-130.548 99.079zm130.548-84.078c50.045 0 94.773 31.218 112.484 77.184-61.899-62.695-163.132-62.632-224.969 0 17.713-45.967 62.44-77.184 112.485-77.184z"/></g></svg>