<svg id="Capa_1" enable-background="new 0 0 511.974 511.974" height="512" viewBox="0 0 511.974 511.974" width="512" xmlns="http://www.w3.org/2000/svg"><g><ellipse cx="406.584" cy="312.457" fill="#efedfe" rx="60.235" ry="71.529"/><ellipse cx="105.408" cy="312.457" fill="#dedef9" rx="60.235" ry="71.529"/><circle cx="429.172" cy="233.398" fill="#ffcbbe" r="45.176"/><path d="m387.356 504.457h-92.97s-127.47-37.09-38.39-138.94c17.94-20.51 22.54-36.28 18.46-48.4 73.28 7.03 134.35 55.54 159.14 121.61 11.94 31.85-12.03 65.73-46.24 65.73z" fill="#ff8a98"/><path d="m294.386 504.457h-169.75c-34.21 0-58.18-33.88-46.23-65.73 18.83-50.21 58.62-90.28 108.81-109.71l68.78 36.5s-7.53 96.262 38.39 138.94z" fill="#ff6e80"/><path d="m335.246 428.187c-22.17 15.17-53.8 7.53-70.64-17.07-4.13-6.03-6.97-13.57-8.61-20.15v-25.45c2.76-10.61 8.91-20.04 18.26-26.43 22.17-15.18 53.79-7.54 70.64 17.06 16.84 24.61 12.52 56.86-9.65 72.04z" fill="#a8e1f6"/><path d="m176.746 428.187c22.17 15.17 53.8 7.53 70.64-17.07 4.13-6.03 6.97-13.57 8.61-20.15v-25.45c-2.76-10.61-8.91-20.04-18.26-26.43-22.17-15.18-53.79-7.54-70.64 17.06-16.84 24.61-12.52 56.86 9.65 72.04z" fill="#91d4f2"/><circle cx="82.819" cy="233.398" fill="#ffddcf" r="45.176"/><path d="m429.176 233.397c0 21.26-4.6 41.54-12.94 60.06-25.89 57.54-87.88 98.06-160.24 98.06 0 0-271.14-44.85-74.09-301.08 22.46-9.72 47.58-15.16 74.09-15.16 95.65 0 173.18 70.79 173.18 158.12z" fill="#ffddcf"/><path d="m255.996 391.517c-72.36 0-134.35-40.52-160.24-98.06-8.34-18.52-12.94-38.8-12.94-60.06 0-63.12 40.51-117.61 99.09-142.96-26.36 45.28-119.41 230.4 74.09 301.08z" fill="#ffcbbe"/><ellipse cx="177.619" cy="249.636" fill="#ffa1ac" rx="28.919" ry="23.03"/><ellipse cx="334.373" cy="249.636" fill="#ffa1ac" rx="28.92" ry="23.03"/><path d="m470.706 187.107c-33.804 29.228-95.57 17.325-122.48-23.38-4.17-6.34-11.3-10.17-18.87-9.69-22.061 1.383-44.881-1.935-65-10.44-5.35-2.27-11.37-2.27-16.72 0-.09.04-.18.08-.27.11-157.56-25.37-21.82-132.52-21.82-132.52 7.8 1.78 15.2 4.16 22.09 7.08 5.35 2.26 11.37 2.26 16.72 0 16.11-6.82 35.04-10.75 55.3-10.75 50.33 0 92.46 24.25 103.35 56.78 2.02 6.04 6.48 11.02 12.43 13.28 52.315 19.947 71.711 77.997 35.27 109.53z" fill="#efedfe"/><path d="m247.366 143.707c-20.205 8.485-42.948 11.696-64.73 10.33-7.57-.48-14.7 3.35-18.87 9.69-3.96 5.99-8.94 11.69-14.95 16.89-31.76 27.47-79.9 30.38-107.53 6.49-36.508-31.591-16.998-89.601 35.27-109.53 5.95-2.26 10.41-7.24 12.43-13.28 10.89-32.53 53.02-56.78 103.35-56.78 11.6 0 22.76 1.29 33.21 3.67-11.94 30.13-26.57 90.02 21.82 132.52z" fill="#dedef9"/></g><g><path d="m468.325 198.24c38.583-25.229 37.642-77.033-.24-109.798-22.866-19.779-33.884-14.246-37.986-26.508-18.269-54.577-104.877-77.575-168.684-50.56-3.51 1.485-7.373 1.485-10.881 0-28.361-12.009-62.666-14.65-94.112-7.249-4.032.949-6.531 4.987-5.583 9.019.95 4.033 4.994 6.531 9.019 5.583 28.418-6.688 59.335-4.333 84.829 6.461 7.174 3.037 15.402 3.037 22.576 0 59.164-25.049 134.254-1.386 148.611 41.507 2.8 8.367 8.951 14.896 16.876 17.913 46.1 17.545 65.539 68.716 33.024 96.839-30.127 26.057-86.777 15.355-111.306-21.836-5.725-8.682-15.541-13.679-25.604-13.044-21.807 1.377-43.109-2.034-61.602-9.864-7.174-3.037-15.402-3.037-22.576 0-18.492 7.829-39.79 11.241-61.602 9.864-10.08-.631-19.88 4.363-25.605 13.044-24.648 37.374-81.332 47.76-111.306 21.836-32.159-27.814-13.733-79.044 33.024-96.839 7.925-3.016 14.076-9.546 16.876-17.913 4.894-14.621 17.362-27.881 35.107-37.335 3.656-1.948 5.04-6.49 3.093-10.146-1.947-3.655-6.489-5.04-10.146-3.093-21.148 11.267-36.162 27.537-42.279 45.813-1.368 4.089-4.279 7.243-7.987 8.654-62.277 23.704-79.397 95.503-30.235 127.649-19.272 21.518-17.722 54.35 3.491 73.9-24.785 48.604 1.185 110.564 48.553 118.548-10.029 13.934-18.216 29.179-24.307 45.424-13.985 37.278 14.374 75.865 53.252 75.865h198.789c4.143 0 7.5-3.358 7.5-7.5s-3.357-7.5-7.5-7.5h-198.79c-29.135 0-49.291-28.718-39.207-55.597 11.617-30.981 31.484-58.035 57.614-78.585 3.052 2.255 6.169 4.423 9.362 6.48-11.947 37.35 12.305 74.199 49.852 74.199 20.595 0 41.663-11.421 53.74-31.954 12.103 20.571 33.182 31.954 53.739 31.954 37.545-.001 61.81-36.843 49.849-74.211 3.19-2.056 6.305-4.223 9.355-6.476 26.143 20.556 46.017 47.613 57.634 78.592 10.063 26.845-10.053 55.597-39.217 55.597h-33.626c-4.143 0-7.5 3.358-7.5 7.5s3.357 7.5 7.5 7.5h33.626c38.879 0 67.236-38.587 53.262-75.863-6.091-16.245-14.279-31.491-24.312-45.427 47.6-8.032 73.226-70.152 48.548-118.546 21.221-19.557 22.753-52.39 3.492-73.897zm-36.303 72.746c5.101-20.001 6.06-40.432 2.865-60.861 6.784-.829 13.294-2.439 19.4-4.763 24.579 22.077 10.825 63.103-22.265 65.624zm-262.02-103.118c2.772-4.203 7.447-6.627 12.138-6.332 24.122 1.522 47.77-2.289 68.395-11.021 3.51-1.485 7.373-1.485 10.881 0 20.622 8.732 44.27 12.544 68.395 11.021 4.693-.296 9.365 2.128 12.138 6.332 16.599 25.171 46.621 41.486 77.825 42.825 6.732 39.775-3.929 79.311-30.354 111.936-58.863 72.673-170.556 80.57-241.093 25.35-.396-.391-.825-.732-1.283-1.019-40.794-32.607-63.936-82.635-54.866-136.259 31.192-1.342 61.236-17.679 77.824-42.833zm-124.877 65.545c0-10.728 4.623-20.936 12.522-28.039 6.107 2.326 12.635 3.898 19.419 4.727-3.194 20.42-2.228 40.86 2.884 60.887-19.508-1.473-34.825-17.761-34.825-37.575zm61.812 143.055c-41.079 1.503-67.78-52.637-47.332-95.761 7.568 3.721 16.112 5.681 25.027 5.364 9.629 26.278 26.061 49.066 46.441 67.063-8.742 7.12-16.81 14.926-24.136 23.334zm74.025 45.547c-13.764-9.423-19.538-27.4-15.218-44.924 24.088 12.748 51.322 20.236 79.989 21.679-12.538 27.585-43.987 37.468-64.771 23.245zm150.027-.001c-20.838 14.26-52.271 4.262-64.773-23.244 28.658-1.445 55.891-8.936 79.986-21.692 4.326 17.529-1.447 35.511-15.213 44.936zm74.027-45.546c-7.329-8.41-15.401-16.217-24.147-23.341 20.347-17.96 36.822-40.729 46.472-67.056 8.731.306 17.28-1.567 25.003-5.365 20.584 43.411-6.612 97.257-47.328 95.762z"/><path d="m180.687 232.092c4.143 0 7.5-3.358 7.5-7.5 0-3.455 2.811-6.265 6.265-6.265s6.265 2.81 6.265 6.265c0 4.142 3.357 7.5 7.5 7.5s7.5-3.358 7.5-7.5c0-11.726-9.539-21.265-21.265-21.265-11.725 0-21.265 9.539-21.265 21.265 0 4.142 3.358 7.5 7.5 7.5z"/><path d="m303.732 232.092c4.143 0 7.5-3.358 7.5-7.5 0-3.455 2.811-6.265 6.265-6.265s6.265 2.81 6.265 6.265c0 4.142 3.357 7.5 7.5 7.5s7.5-3.358 7.5-7.5c0-11.726-9.539-21.265-21.265-21.265s-21.265 9.539-21.265 21.265c0 4.142 3.358 7.5 7.5 7.5z"/><path d="m276.23 245.608c2.722-3.123 2.395-7.86-.727-10.582s-7.86-2.396-10.582.726c-4.699 5.393-13.102 5.499-17.895 0-2.723-3.123-7.46-3.447-10.582-.726-3.123 2.722-3.447 7.459-.727 10.582 10.701 12.275 29.783 12.311 40.513 0z"/><circle cx="255.975" cy="474.356" r="7.529"/><circle cx="255.975" cy="444.239" r="7.529"/></g></svg>