<svg id="Capa_1" enable-background="new 0 0 511.945 511.945" height="512" viewBox="0 0 511.945 511.945" width="512" xmlns="http://www.w3.org/2000/svg"><g><circle cx="406.561" cy="255.974" fill="#ffcbbe" r="45.176"/><circle cx="105.384" cy="255.974" fill="#ffddcf" r="45.176"/><path d="m421.139 459.264-67.06 45.18h-83.87s-154.78-50.89-29.83-172.48c5.13-.47 10.33-.7 15.59-.7 74.37 0 137.8 46.88 162.33 112.71 1.9 5.1 2.8 10.26 2.84 15.29z" fill="#a8e1f6"/><path d="m270.209 504.444h-111.89l-67.51-45.18c.04-5.03.94-10.19 2.84-15.29 22.8-61.18 79.18-105.99 146.73-112.01-7.52 30.83-23.7 121.38 29.83 172.48z" fill="#91d4f2"/><ellipse cx="255.972" cy="379.494" fill="#ffcbbe" rx="67.765" ry="64.715"/><path d="m406.559 248.504c0 20.25-4 39.56-11.25 57.2-22.51 54.8-76.41 93.39-139.34 93.39-10.84 0-21.41-1.15-31.6-3.33 0 0-.01 0-.02-.01-2.23-.88-202.65-80.76-38.92-280.32 21.04-11.19 45.05-17.52 70.54-17.52 83.17-.001 150.59 67.42 150.59 150.59z" fill="#ffddcf"/><path d="m224.369 395.764c-48.96-10.45-89.1-44.7-107.74-90.06-7.24-17.64-11.24-36.95-11.24-57.2 0-57.68 32.42-107.78 80.04-133.07-37.16 54.9-93.75 176.459 38.94 280.33z" fill="#ffcbbe"/><ellipse cx="179.48" cy="272.211" fill="#ffa1ac" rx="28.919" ry="23.03"/><ellipse cx="336.234" cy="272.211" fill="#ffa1ac" rx="28.919" ry="23.03"/><path d="m417.789 242.834c-4.05 8.39-16.41 6.97-18.53-2.11-5.96-25.52-16.97-63.38-33.1-82.83-5.01-6.03-14.72-3.91-16.98 3.61-3.32 11.05-9.08 26.4-17.97 38.35-5.29 7.12-16.53 4.23-17.72-4.56-4.05-30.08-16.54-71.67-56.68-45.13-.18.12-.36.23-.55.36 0 0-.01.01-.06.04-7.74-5.21-14.48-7.92-20.34-8.66-80.41-41.37 14.89-102.19 14.89-102.19 7.14 1.83 15.12-.36 20.21-6.6 7.56-9.26 15.21-17.54 21.68-23.18 6.03-5.24 15.43-1.52 16.29 6.45 1.41 13.18 3.93 26.08 5.99 35.26 1.41 6.32 8.39 9.6 14.13 6.64 23.72-12.23 50.78-12.95 69.06-11.46 8.36.68 12.2 10.86 6.29 16.84-9.81 9.91-17.67 19.86-22.99 27.17-3.89 5.36-1.54 12.98 4.68 15.18 73.45 26.03 50.09 98.78 31.7 136.82z" fill="#eaaa83"/><path d="m256.199 150.564c-40.62-27.36-53.67 14.5-57.74 44.73-1.19 8.79-12.43 11.68-17.72 4.56-8.89-11.95-14.65-27.3-17.98-38.35-2.26-7.52-11.96-9.64-16.97-3.61-16.14 19.45-27.14 57.31-33.1 82.83-2.12 9.08-14.48 10.5-18.54 2.11-18.39-38.04-41.74-110.79 31.71-136.82 6.22-2.2 8.56-9.82 4.67-15.18-5.32-7.31-13.18-17.26-22.98-27.17-5.92-5.98-2.08-16.16 6.29-16.84 18.28-1.49 45.33-.77 69.06 11.46 5.74 2.96 12.72-.32 14.13-6.64 2.05-9.18 4.57-22.08 5.99-35.26.85-7.97 10.26-11.69 16.28-6.45.08.07.15.13.24.21 4.86 4.29 12.57 13.09 19.67 21.57.41.49.81.98 1.22 1.47 2.8 3.36 6.44 5.54 10.32 6.53-7.67 23.23-32.48 71.429 5.45 110.85z" fill="#e4996d"/><path d="m421.139 459.264c.17 23.91-19.27 45.18-45.1 45.18h-21.96v-30.18c0-8.28 6.72-15 15-15z" fill="#f9d171"/><path d="m158.319 474.264v30.18h-22.41c-25.83 0-45.27-21.27-45.1-45.18h52.51c8.28 0 15 6.72 15 15z" fill="#f3c23b"/></g><g><path d="m437.519 213.363c16.079-53.092 2.937-96.033-48.932-114.415-1.49-.528-2.064-2.393-1.114-3.7 4.775-6.568 12.512-16.464 22.25-26.309 10.404-10.517 3.699-28.397-11.016-29.593-19.426-1.58-47.876-.732-73.105 12.277-1.38.71-3.035-.098-3.373-1.613-1.892-8.474-4.443-21.327-5.85-34.43-1.497-13.968-18.071-20.524-28.667-11.299-6.576 5.725-14.379 14.055-22.568 24.091-4.869 5.967-14.008 5.949-18.955.01-9.993-12.002-17.384-20.111-21.967-24.101-10.59-9.22-27.168-2.678-28.667 11.298-1.406 13.1-3.957 25.954-5.85 34.431-.341 1.529-2.005 2.317-3.373 1.612-25.23-13.008-53.682-13.857-73.104-12.277-14.745 1.198-21.398 19.097-11.016 29.593 9.738 9.844 17.475 19.74 22.25 26.309.947 1.302.381 3.17-1.114 3.7-51.871 18.383-65.011 61.327-48.93 114.421-27.866 20.278-29.167 61.509-2.356 83.401 10.293 8.405 23.548 12.842 37.58 11.701 14.1 34.499 40.019 62.444 71.589 79.419 4.349 36.126 36.321 63.824 74.733 63.824 38.419 0 70.395-27.698 74.743-63.825 8.555-4.6 16.71-10.016 24.371-16.202 25.641 19.132 45.012 44.915 56.188 74.905.637 1.708 1.128 3.438 1.509 5.176h-43.698c-30.449 0-20.995 38.44-22.5 45.176h-30.289c-4.142 0-7.5 3.358-7.5 7.5s3.358 7.5 7.5 7.5h59.747c35.965 0 62.215-35.892 49.288-70.589-11.831-31.749-32.076-59.174-58.819-79.833 15.574-15.237 27.657-33.161 35.789-53.053 30.708 2.486 56.942-21.746 56.942-52.496-.002-16.956-8.19-32.771-21.716-42.609zm-61.486 283.582h-14.458v-22.676c0-4.136 3.364-7.5 7.5-7.5h43.851c-3.328 16.574-17.934 30.176-36.893 30.176zm-288.383-349.037c6.51-15.84 20.206-27.556 40.707-34.821 10.936-3.875 15.093-17.228 8.237-26.659-19.567-26.915-25.533-27.048-24.243-30.53.205-.551.748-1.492 2.092-1.602 21.753-1.769 45.381.535 65.015 10.659 10.105 5.209 22.404-.555 24.886-11.677 1.977-8.854 4.644-22.303 6.124-36.098.208-1.936 2.436-2.862 3.904-1.585 2.737 2.383 8.479 8.2 20.289 22.385 11.006 13.217 31.293 13.123 42.104-.125 7.55-9.253 14.935-17.159 20.795-22.261 1.465-1.276 3.695-.352 3.903 1.586 1.481 13.8 4.148 27.247 6.124 36.098 2.48 11.107 14.766 16.892 24.887 11.676 22.078-11.383 47.54-12.078 65.015-10.659 2.031.165 3.013 2.633 1.567 4.094-10.399 10.512-18.638 21.049-23.718 28.037-6.85 9.423-2.71 22.78 8.236 26.659 56.925 20.173 53.419 72.793 27.458 126.481-.976 2.02-3.957 1.69-4.48-.547-6.55-28.047-17.875-65.719-34.633-85.914-8.803-10.608-25.941-7.016-29.927 6.242-3.093 10.284-8.52 24.884-16.812 36.034-1.295 1.74-3.976 1.047-4.265-1.094-4.242-31.464-13.979-50.824-28.94-57.542-10.356-4.65-22.377-2.983-35.784 4.945-13.446-7.949-25.529-9.605-35.971-4.916-15.151 6.803-24.977 26.153-29.206 57.513-.289 2.141-2.97 2.834-4.264 1.094-8.292-11.15-13.719-25.75-16.812-36.034-3.985-13.254-21.123-16.854-29.927-6.242-16.757 20.194-28.083 57.867-34.634 85.915-.523 2.238-3.504 2.566-4.48.547-23.946-49.526-18.578-78.686-13.247-91.659zm-7.978 80.557c2.202 5.623 4.754 11.492 7.724 17.633 2.199 4.548 6.073 7.758 10.649 9.099.571 13.194 2.731 26.082 6.39 38.446-33.097-.821-49.674-41.862-24.763-65.178zm176.291 208.25c-27.229 0-50.406-17.188-57.788-40.982 36.933 14.485 78.626 14.495 115.587-.001-7.383 23.794-30.565 40.983-57.799 40.983zm100.949-86.787c-55.835 55.562-145.952 55.616-201.854.041-26.091-25.939-40.928-60.288-42.092-97.162 3.464-2.388 6-6.009 7.019-10.374 8.741-37.425 19.953-65.747 31.57-79.747 1.188-1.432 3.48-.813 4.02.982 3.438 11.434 9.55 27.771 19.14 40.666 9.287 12.492 29.084 7.398 31.166-8.041 3.342-24.783 10.808-41.489 20.485-45.834 6.468-2.904 15.093-.775 25.637 6.325 2.533 1.705 5.846 1.705 8.379 0 10.512-7.079 19.075-9.216 25.45-6.354 9.634 4.327 16.815 20.614 20.219 45.863 2.079 15.424 21.868 20.542 31.166 8.041 9.59-12.895 15.702-29.231 19.14-40.666.538-1.789 2.827-2.419 4.02-.982 11.618 14.001 22.83 42.322 31.57 79.747 1.02 4.366 3.557 7.988 7.022 10.376-1.165 36.844-15.989 71.178-42.057 97.119zm50.588-56.288c3.66-12.365 5.821-25.255 6.392-38.448 4.574-1.342 8.448-4.548 10.646-9.094 2.971-6.144 5.524-12.015 7.727-17.64 24.931 23.33 8.294 64.359-24.765 65.182z"/><path d="m286.169 496.945h-120.358v-22.676c0-12.407-10.093-22.5-22.5-22.5h-44.148c2.794-12.766 16.445-40.583 37.883-62.677 2.884-2.973 2.812-7.721-.16-10.605s-7.721-2.813-10.605.16c-17.561 18.099-30.906 39.197-39.665 62.71-12.915 34.667 13.291 70.588 49.288 70.588h150.266c4.142 0 7.5-3.358 7.5-7.5-.001-4.142-3.359-7.5-7.501-7.5zm-187.159-30.176h44.3c4.136 0 7.5 3.364 7.5 7.5v22.676h-14.908c-18.906 0-33.559-13.583-36.892-30.176z"/><path d="m196.328 225.886c-21.227 0-27.931 28.765-13.765 28.765 4.142 0 7.5-3.358 7.5-7.5 0-3.455 2.811-6.265 6.265-6.265s6.265 2.811 6.265 6.265c0 4.142 3.358 7.5 7.5 7.5 14.1 0 7.483-28.765-13.765-28.765z"/><path d="m319.373 225.886c-21.227 0-27.931 28.765-13.765 28.765 4.142 0 7.5-3.358 7.5-7.5 0-3.455 2.811-6.265 6.265-6.265 3.455 0 6.265 2.811 6.265 6.265 0 4.142 3.358 7.5 7.5 7.5s7.5-3.358 7.5-7.5c0-11.725-9.539-21.265-21.265-21.265z"/><path d="m277.38 257.586c-3.123-2.722-7.861-2.396-10.581.726-4.795 5.501-13.196 5.391-17.895 0-2.722-3.123-7.459-3.448-10.581-.726-3.123 2.722-3.448 7.459-.726 10.582 10.718 12.298 29.801 12.287 40.51 0 2.721-3.123 2.396-7.86-.727-10.582z"/></g></svg>