<svg id="Capa_1" enable-background="new 0 0 512.106 512.106" height="512" viewBox="0 0 512.106 512.106" width="512" xmlns="http://www.w3.org/2000/svg"><g><circle cx="459.347" cy="259.329" fill="#ffcbbe" r="45.176"/><circle cx="252.778" cy="52.759" fill="#ffddcf" r="45.176"/><path d="m460.413 264.653c-31.77 31.77-74.2 46.38-115.78 43.82-218.85-191.68-30.72-295.5-30.72-295.5 50.51-13.87 106.82-.96 146.5 38.72 58.81 58.8 58.81 154.15 0 212.96z" fill="#ffddcf"/><path d="m344.633 308.473c-35.38-2.17-70.15-16.79-97.18-43.82-58.81-58.81-58.81-154.16 0-212.96 19.12-19.12 42.12-32.03 66.46-38.72-27.55 47.1-79.45 169.76 30.72 295.5z" fill="#ffcbbe"/><ellipse cx="292.922" cy="101.709" fill="#ffa1ac" rx="24.408" ry="30.65" transform="matrix(.706 -.708 .708 .706 14.004 237.181)"/><ellipse cx="410.508" cy="219.074" fill="#ffa1ac" rx="24.408" ry="30.65" transform="matrix(.706 -.708 .708 .706 -34.546 354.856)"/><path d="m369.428 162.055c6.135-6.147 6.764-15.467 1.404-20.816-5.36-5.35-14.679-4.704-20.814 1.443s-6.764 15.467-1.404 20.817c5.36 5.349 14.679 4.702 20.814-1.444z" fill="#495560"/><path d="m49.419 470.217-7.53-7.53c-45.742-45.742-45.742-119.905 0-165.647l10.048-10.048c45.742-45.742 119.905-45.742 165.647 0l7.53 7.53c45.742 45.742 45.742 119.905 0 165.647l-10.048 10.048c-45.742 45.742-119.905 45.742-165.647 0z" fill="#bbbbef"/><path d="m420.153 355.683-35.4 39.9c-46.92 52.9-121.05 72.4-187.94 49.44l-3.78-1.3h-.01c-42.34-72.39-48.69-152.18-41.66-220.69h.01c22.03-2.91 44.72-1.62 66.85 4.17l176.98 46.29c36.38 9.51 49.9 54.07 24.95 82.19z" fill="#dedef9"/><path d="m193.023 443.723-144.98-49.77c-43.46-14.92-54.62-71.21-20.13-101.58l31.11-27.39c26.31-23.17 58.56-37.5 92.35-41.95-7.04 68.51-.7 148.29 41.65 220.69z" fill="#d2d2ff"/><path d="m247.123 453.083-26.57 30.18-.82.93c-215-99.81-33.45-404.85-33.45-404.85 22.85-1.55 45.82 12.64 52.33 37.56l46.29 176.98c14.66 56.05.5 115.72-37.78 159.2z" fill="#efedfe"/><path d="m220.553 483.263-.82.93c-30.37 34.49-86.66 23.33-101.58-20.13l-51.07-148.77c-22.96-66.89-3.46-141.02 49.44-187.94l39.9-35.4c8.85-7.86 19.35-11.9 29.86-12.61-26.77 69.33-83.48 260.19 34.27 403.92z" fill="#dedef9"/></g><g><path d="m498.038 223.503c25.829-56.87 16.666-128.207-32.251-177.116-48.934-48.942-120.28-58.066-177.117-32.252-20.113-18.695-52.458-19.241-73.07 1.371-16.043 16.043-19.232 39.186-11.141 58.103-18.732-4.879-38.365-.205-52.945 12.729l-15.715 13.941c-3.099 2.748-3.382 7.489-.633 10.587 2.749 3.099 7.489 3.382 10.587.633l15.715-13.941c23.966-21.26 61.873-9.695 69.963 21.234l46.288 176.982c14.049 53.72.532 110.672-36.159 152.348l-27.386 31.108c-26.556 30.165-75.798 20.443-88.859-17.605l-51.071-148.772c-22.046-64.222-3.471-134.836 47.323-179.897 3.099-2.749 3.382-7.489.633-10.588-2.747-3.098-7.488-3.383-10.587-.633-41.081 36.444-62.81 88.23-61.457 141.12l-27.13 23.885c-19.27 16.969-27.423 42.924-20.416 68.53-15.067 74.982 39.935 117.63 41.58 120.242 12.444 12.444 27.017 21.933 43.314 28.203 3.873 1.49 8.209-.449 9.693-4.307 1.487-3.866-.441-8.206-4.307-9.693-23.352-8.983-35.175-21.891-45.624-32.339-20.892-20.892-32.183-48.752-32.129-77.571 7.783 9.617 18.237 17.013 30.541 21.237l48.724 16.73 16.725 48.722c4.217 12.285 11.597 22.726 21.192 30.505-3.668 0-7.341-.163-11.01-.531-4.128-.415-7.798 2.593-8.21 6.714-.413 4.122 2.593 7.797 6.714 8.21 12.014 1.204 24.43.714 37.097-1.829 25.134 6.874 51.237-.789 68.523-20.423l23.937-27.19c52.946 1.307 104.522-20.194 141.064-61.395l35.399-39.9c12.935-14.578 17.608-34.21 12.729-52.943 35.497 15.185 74.996-11.587 73.485-50.427-.492-12.645-5.534-24.664-14.009-33.782zm-447.49 163.353c-38.01-13.049-47.8-62.272-17.609-88.857l18.659-16.427c3.861 29.865 11.759 42.967 36.633 118.223zm175.658-360.743c13.376-13.377 33.593-14.263 47.947-4.444-21.211 12.456-39.554 29.887-53.232 51.175-8.917-14.198-7.672-33.773 5.285-46.731zm3.391 61.31c24.741-43.421 71.187-72.34 124.41-72.34 79.069 0 143.084 63.992 143.084 143.084 0 53.011-28.798 99.625-72.34 124.414-7.316-7.8-16.776-13.522-27.579-16.346l-119.876-31.359-31.352-119.877c-2.827-10.803-8.548-20.261-16.347-27.576zm185.016 263.279-35.401 39.901c-30.235 34.092-72.325 54.089-117.301 56.21 33.046-44.124 44.408-100.965 30.319-154.833l-10.582-40.462 111.728 29.228c30.992 8.102 42.455 46.043 21.237 69.956zm71.447-64.735c-13.035 13.036-32.624 14.144-46.728 5.288 21.083-13.546 38.607-31.841 51.172-53.235 9.818 14.353 8.927 34.575-4.444 47.947z"/><path d="m335.394 107.62c4.132-.288 7.249-3.871 6.961-8.003s-3.867-7.248-8.003-6.961c-4.045.284-7.376-3.043-7.102-7.088.28-4.133-2.844-7.71-6.976-7.99-4.142-.288-7.71 2.844-7.99 6.976-.887 13.094 9.98 23.981 23.11 23.066z"/><path d="m427.694 199.746c4.132-.288 7.249-3.871 6.961-8.003s-3.864-7.242-8.003-6.961c-4.095.28-7.373-3.091-7.102-7.088.28-4.133-2.843-7.71-6.976-7.99-4.142-.284-7.71 2.844-7.99 6.976-.89 13.14 10.028 23.978 23.11 23.066z"/><path d="m343.386 168.803c8.321 8.304 22.421 7.564 31.421-1.454 9.261-9.279 9.518-23.313 1.394-31.423-8.147-8.132-22.182-7.804-31.42 1.453-9.27 9.287-9.515 23.318-1.395 31.424zm9.173-14.913c.464-6.887 9.201-11.186 13.045-7.346 2.6 2.595 1.43 7.36-1.414 10.209-4.725 4.734-12.058 3.471-11.631-2.863z"/></g></svg>