<svg id="Capa_1" enable-background="new 0 0 511.943 511.943" height="512" viewBox="0 0 511.943 511.943" width="512" xmlns="http://www.w3.org/2000/svg"><g><circle cx="406.56" cy="248.591" fill="#ffcbbe" r="45.176"/><circle cx="105.383" cy="248.591" fill="#ffddcf" r="45.176"/><path d="m376.031 504.65h-111.55s-41.88-13.01-73.6-35.77c0 0-.01 0-.02-.01-12.74-9.14-23.84-19.85-29.93-31.92-.02-.04-.03-.08-.05-.11-4.32-8.55-6.11-17.79-4.18-27.64v-.01c4.46-22.82 28.84-48.91 88.05-77.35.13-.02.26-.03.39-.03.08-.01.17-.01.25-.02h.01c3.5-.21 7.02-.32 10.57-.32 21.39 0 41.88 3.88 60.8 10.98 46.84 17.56 84.05 54.84 101.52 101.73 10.93 29.3-10.99 60.47-42.26 60.47z" fill="#a8e1f6"/><path d="m264.481 504.65h-128.57c-31.27 0-53.19-31.17-42.26-60.47 17.48-46.89 54.68-84.17 101.52-101.73 15.58-5.85 32.23-9.51 49.58-10.61.13-.02.26-.03.39-.03.08-.01.17-.01.25-.02-.06.2-.13.4-.21.6-7.882 22.538-12.455 49.111-11.9 74.67.727 36.091 11.236 69.036 31.2 97.59z" fill="#91d4f2"/><path d="m295.351 474.53h-47.73s-94.24-59-2.48-142.72c.12-.11.25-.23.37-.34h10.46c21.39 0 41.88 3.88 60.8 10.98l26.88 36.49c29.19 39.62.91 95.59-48.3 95.59z" fill="#bd9cde"/><path d="m247.621 474.53h-31.03c-9.42 0-18.08-2.05-25.71-5.65 0 0-.01 0-.02-.01-13.88-6.54-24.38-18.21-29.93-31.92-.02-.04-.03-.08-.05-.11-3.48-8.66-5-18.13-4.18-27.64v-.01c.91-10.36 4.61-20.77 11.59-30.25l26.88-36.49c15.58-5.85 32.23-9.51 49.58-10.61.13-.02.26-.03.39-.03.12-.11.25-.23.37-.34-.04.11-.08.21-.11.32h-.01c-.06.2-.13.4-.21.6-7.804 22.314-12.421 48.686-11.9 74.67.501 23.222 5.013 45.89 14.34 67.47z" fill="#a57cd2"/><path d="m406.561 241.119c0 20.25-4 39.56-11.25 57.2-22.51 54.8-76.42 93.39-139.34 93.39-10.47 0-20.69-1.07-30.56-3.11-2.25-1.44-4.61-2.91-7.09-4.42-172.35-104.91-39.25-271.71-37.98-273.3.01-.01.01-.01.01-.01 22.22-12.94 48.06-20.34 75.62-20.34 83.17.001 150.59 67.421 150.59 150.59z" fill="#ffddcf"/><path d="m225.411 388.599c-47.9-11.03-90.44-45.64-108.78-90.28-7.25-17.64-11.25-36.95-11.25-57.2 0-55.6 30.14-104.17 74.97-130.25-28.98 68.851-51.9 186.561 45.06 277.73z" fill="#ffcbbe"/><path d="m316.211 277.369c0 24.56-14.05 45.77-34.37 55.68-69.88-24.3-34.78-84.93-34.78-84.93 2.88 2.03 5.86 3.88 8.91 3.88 5.75 0 11.24-6.56 16.3-8.57 18.91-7.49 40.11 3.89 43.22 24.4.47 3.111.72 6.29.72 9.54z" fill="#bd9cde"/><path d="m281.841 333.05c-8.93 4.35-19.08 6.52-29.78 5.83-30.33-1.96-54.84-27.49-56.26-58.56-.19-4.17.03-8.26.61-12.22 3.04-20.63 24.24-32.2 43.26-24.67 2.37.95 4.85 2.89 7.39 4.69-.57 20.2 3.31 57.41 34.78 84.93z" fill="#a57cd2"/><path d="m271.031 293.829c0 6.47-4.08 11.99-9.82 14.12-23.04-7.81-10.96-28.04-10.96-28.04 1.76-.74 3.69-1.14 5.72-1.14 8.32.001 15.06 6.741 15.06 15.06z" fill="#efedfe"/><path d="m261.211 307.95c-1.63.61-3.4.94-5.24.94-8.32 0-15.06-6.75-15.06-15.06 0-6.29 3.86-11.68 9.34-13.92 2.13 9.04 5.57 18.64 10.96 28.04z" fill="#dedef9"/><path d="m255.971 98.208-61.827 24.731c-21.32 8.528-43.332-10.685-37.762-32.962 1.121-4.482 1.121-9.172 0-13.654-5.569-22.277 16.442-41.491 37.762-32.962l61.827 24.731z" fill="#ff6e80"/><path d="m255.971 98.208 61.827 24.731c21.32 8.528 43.332-10.685 37.762-32.962-1.121-4.482-1.121-9.172 0-13.654 5.569-22.277-16.442-41.491-37.762-32.962l-61.827 24.729z" fill="#ff6e80"/><ellipse cx="255.971" cy="83.149" fill="#ff8a98" rx="30.118" ry="30.118" transform="matrix(.924 -.383 .383 .924 -12.335 104.285)"/></g><g><path d="m407.584 195.742c-8.828-29.57-26.339-56.59-51.416-77.118 6.851-8.586 9.417-19.891 6.685-30.82-1.894-7.575 1.104-10.43 1.104-18.842 0-24.254-24.84-42.552-48.926-32.924l-38.373 15.352c-1.199-.792-2.447-1.514-3.736-2.167 8.329-15.671 21.324-27.368 38.729-34.827 3.808-1.632 5.571-6.04 3.939-9.848-1.632-3.807-6.041-5.57-9.848-3.939-20.929 8.969-34.047 22.415-42.243 35.122l-.013-28.232c-.002-4.141-3.359-7.497-7.5-7.497-4.131 0-7.502 3.348-7.5 7.503l.012 28.264c-8.194-12.718-21.318-26.183-42.268-35.161-3.807-1.632-8.217.132-9.848 3.939-1.632 3.808.132 8.216 3.939 9.848 17.406 7.46 30.401 19.156 38.73 34.826-1.29.653-2.538 1.375-3.737 2.167l-38.374-15.35c-27.107-10.834-54.888 13.719-47.819 41.753.818 3.275.818 6.737 0 10.012-2.732 10.929-.167 22.234 6.683 30.819-7.174 5.878-13.822 12.364-19.83 19.363-4.182 4.873-.663 12.385 5.688 12.385 2.112 0 4.211-.887 5.695-2.615 6.098-7.105 12.931-13.625 20.347-19.443 8.955 4.519 19.525 5.12 29.237 1.234l38.372-15.345c12.523 8.271 28.777 8.303 41.347 0l38.37 15.344c9.295 3.719 19.876 3.49 29.241-1.235 50.401 39.52 68.58 107.433 44.118 166.953-22.142 53.907-74.114 88.739-132.402 88.739s-110.259-34.833-132.403-88.741c-15.747-38.314-14.082-81.566 4.57-118.667 1.86-3.701.368-8.209-3.332-10.069-3.702-1.861-8.21-.369-10.069 3.332-4.211 8.377-7.625 17.041-10.264 25.882-48.549.899-70.574 62.355-32.351 93.484 10.313 8.398 23.556 12.817 37.54 11.658 9.133 21.939 22.357 41.095 40.272 57.278-28.661 20.843-50.959 50.05-63.309 83.192-12.935 34.674 13.294 70.592 49.287 70.592h172.808c4.143 0 7.5-3.358 7.5-7.5s-3.357-7.5-7.5-7.5h-172.81c-26.133 0-44.329-25.965-35.232-50.351 11.784-31.621 33.444-59.334 61.281-78.572 1.057.782 2.138 1.537 3.216 2.295l-2.924 3.969c-15.192 20.621-17.455 47.63-5.904 70.487 11.55 22.854 34.633 37.052 60.243 37.052h78.76c55.327 0 87.154-62.997 54.338-107.539l-2.924-3.969c1.079-.758 2.16-1.513 3.217-2.295 27.837 19.237 49.497 46.951 61.282 78.573 9.097 24.385-9.102 50.349-35.233 50.349h-37.382c-4.143 0-7.5 3.358-7.5 7.5s3.357 7.5 7.5 7.5h37.382c35.984 0 62.225-35.911 49.288-70.589-12.352-33.145-34.649-62.352-63.31-83.195 18.205-16.446 31.68-36.265 40.272-57.278 30.42 2.519 56.951-21.505 56.951-52.498-.001-28.384-22.629-52.048-51.663-52.64zm-216.214-80.123c-15.649 6.262-31.795-7.79-27.697-24.178 1.413-5.655 1.413-11.633-.004-17.302-4.108-16.295 12.002-30.447 27.702-24.173l32.634 13.055c-7.511 12.102-7.525 27.422-.002 39.548zm41.998-32.823c0-12.471 10.146-22.618 22.618-22.618 12.471 0 22.617 10.146 22.617 22.618s-10.146 22.618-22.617 22.618-22.618-10.147-22.618-22.618zm87.233 32.822-32.632-13.05c7.509-12.103 7.523-27.422-.002-39.548l32.632-13.054c14.046-5.615 28.356 5.162 28.356 18.996 0 5.417-3.425 11.399-.656 22.479 4.089 16.352-12.015 30.452-27.698 24.177zm-238.992 161.974c-25.753-20.973-13.548-62.462 19.129-66.571-4.793 24.834-3.582 50.573 3.713 75.037-8.255-.199-16.273-3.116-22.842-8.466zm213.757 189.231h-78.76c-43.08 0-67.881-48.868-42.262-83.642l3.539-4.804c48.104 27.406 107.728 27.62 156.205 0l3.539 4.804c25.555 34.684.928 83.642-42.261 83.642zm112.171-180.766c7.443-24.853 8.512-50.565 3.789-75.055 18.718 2.315 32.92 18.415 32.92 37.381 0 20.782-16.672 37.184-36.709 37.674z"/><path d="m261.861 240.859c-1.665 1.199-4.766 3.431-5.875 3.431-2.091 0-8.286-5.955-13.539-8.036-23.667-9.375-49.723 5.292-53.441 30.549-5.928 40.275 23.597 76.829 62.585 79.351 43.28 2.796 77.974-35.855 71.33-79.654-4.289-28.28-36.962-42.989-61.06-25.641zm32.497 73.421c-21.389 23.311-58.274 22.876-78.893-2.62-9.624-11.9-13.859-27.454-11.619-42.672 2.314-15.712 18.424-24.591 33.078-18.788 3.843 1.521 10.329 9.089 19.062 9.089 8.707 0 15.298-7.599 19.062-9.089 14.346-5.686 30.636 2.688 33.042 18.548 2.529 16.67-2.476 33.265-13.732 45.532z"/><path d="m193.537 206.355c-4.142 0-7.5 3.358-7.5 7.5v12c0 4.142 3.358 7.5 7.5 7.5s7.5-3.358 7.5-7.5v-12c0-4.142-3.357-7.5-7.5-7.5z"/><path d="m318.434 233.355c4.143 0 7.5-3.358 7.5-7.5v-12c0-4.142-3.357-7.5-7.5-7.5-4.142 0-7.5 3.358-7.5 7.5v12c0 4.142 3.358 7.5 7.5 7.5z"/><path d="m255.986 271.061c-12.439 0-22.559 10.12-22.559 22.559s10.12 22.559 22.559 22.559 22.559-10.12 22.559-22.559c0-12.44-10.12-22.559-22.559-22.559zm0 30.118c-4.168 0-7.559-3.391-7.559-7.559s3.391-7.559 7.559-7.559 7.559 3.391 7.559 7.559c0 4.167-3.391 7.559-7.559 7.559z"/></g></svg>