<svg id="Capa_1" enable-background="new 0 0 511.77 511.77" height="512" viewBox="0 0 511.77 511.77" width="512" xmlns="http://www.w3.org/2000/svg"><g><circle cx="387.65" cy="255.802" fill="#ffcbbe" r="45.176"/><circle cx="86.473" cy="255.802" fill="#ffddcf" r="45.176"/><path d="m401.542 451.701-59.07 52.57h-81.77s-159.84-38.53-47.37-171.54c1.49-.21 2.98-.39 4.48-.56 6.32-.71 12.74-1.07 19.25-1.07 74.37 0 137.79 46.88 162.32 112.7.91 2.43 1.59 4.88 2.05 7.31.039.199.07.389.11.59z" fill="#ff8a98"/><path d="m260.702 504.271h-129.05l-59.08-52.54c.47-2.64 1.19-5.29 2.17-7.93 22.38-60.06 77.15-104.35 143.07-111.63-4.87 28.929-15.8 124.92 42.89 172.1z" fill="#ff6e80"/><path d="m131.652 466.73v37.54h-14.65c-28.46 0-49.17-25.81-44.43-52.54h44.08c8.28 0 15 6.721 15 15z" fill="#f9d171"/><path d="m361.882 504.031c-.01 0-.01 0-.01 0-.78.08-1.56.14-2.35.18-.8.04-1.59.06-2.4.06h-14.65v-37.54c0-8.28 6.72-15 15-15h37.71l6.36-.03c4.5 25.23-13.69 49.64-39.66 52.33z" fill="#f9d171"/><path d="m297.302 380.211c0 31.18-26.97 56.47-60.24 56.47-6.13 0-12.05-.86-17.62-2.45 0 0-.01 0-.02-.01-1.18-.91-57.54-44.78-.56-107.86 5.74-1.71 11.86-2.63 18.2-2.63 33.27-.001 60.24 25.29 60.24 56.48z" fill="#ffcbbe"/><path d="m219.442 434.23c-24.67-7.07-42.62-28.58-42.62-54.02 0-25.24 17.67-46.62 42.04-53.85-2.3 11.721-10.65 60.751.58 107.87z" fill="#ffbbae"/><path d="m440.356 188.206h-67.765c-16.633 0-30.118-13.484-30.118-30.118 0-16.633 13.484-30.118 30.118-30.118h67.765c16.633 0 30.118 13.484 30.118 30.118-.001 16.634-13.485 30.118-30.118 30.118z" fill="#a8e1f6"/><path d="m387.802 248.501c0 20.25-3.99 39.56-11.24 57.2-22.52 54.8-76.42 93.39-139.34 93.39-9.12 0-18.05-.81-26.72-2.37 0 0-201.66-78.31-59.53-271.67 24.43-17.1 54.17-27.14 86.25-27.14 83.17-.001 150.58 67.42 150.58 150.59z" fill="#ffddcf"/><path d="m210.502 396.72c-51.17-9.16-93.37-44.16-112.62-91.02-7.25-17.64-11.25-36.95-11.25-57.2 0-51.09 25.44-96.23 64.34-123.45l1.69 2.92s-101.58 153.1 57.84 268.75z" fill="#ffcbbe"/><path d="m388.182 180.1v.07c0 2.78-2.26 5.04-5.04 5.04h-62.73c-34.69-28-66.56-37.09-93.55-36.85-11.23.09-21.62 1.81-31.01 4.45-21.87-24.89-30.21-66.57 26.53-133.06 2.55-.13 5.11-.19 7.68-.19 10.41 0 20.58 1.02 30.42 2.98 49.73 9.83 91.13 43.33 112.36 88.5 9.83 20.92 15.34 44.33 15.34 69.06z" fill="#ff8a98"/><path d="m241.862 149.361c-11.23.09-21.62 1.81-31.01 4.45-34.26 9.63-55.35 31.57-56.12 32.38l-62.8-.01c-2.77 0-4.99-2.26-4.99-5.03v-.05c0-24.73 5.51-48.14 15.34-69.06 21.23-45.17 62.63-78.67 112.36-88.5 7.41-1.48 15-2.42 22.74-2.79-6.54 32.799-12.46 85.7 4.48 128.61z" fill="#ff6e80"/><ellipse cx="157.505" cy="253.895" fill="#ffa1ac" rx="29.355" ry="23.377"/><ellipse cx="316.618" cy="253.895" fill="#ffa1ac" rx="29.355" ry="23.377"/><path d="m327.412 188.21h-69.85s-139.62-34.87-28.18-165.46c2.55-.13 5.11-.19 7.68-.19 10.41 0 20.58 1.02 30.42 2.98 34.93 24.881 59.93 90.751 59.93 162.67z" fill="#a8e1f6"/><path d="m257.562 188.21h-110.85c0-71.92 25-137.79 59.93-162.67 7.41-1.48 15-2.42 22.74-2.79-8.62 43.201-16.15 121.27 28.18 165.46z" fill="#91d4f2"/><ellipse cx="237.062" cy="22.559" fill="#767678" rx="22.588" ry="15.059"/><ellipse cx="395.179" cy="301.147" fill="#bd9cde" rx="15.059" ry="15.059" transform="matrix(.383 -.924 .924 .383 -34.273 551.001)"/></g><g><path d="m440.364 120.471h-57.823c-21.497-55.289-66.298-92.066-115.95-102.382-2.694-10.438-14.692-18.089-29.517-18.089-14.828 0-26.828 7.654-29.519 18.095-24.799 5.141-48.281 16.826-68.234 34.033-5.272 4.546-2.005 13.18 4.901 13.18 1.735 0 3.479-.599 4.896-1.82 11.07-9.547 23.327-17.204 36.305-22.769-27.005 29.519-44.708 81.514-46.108 139.992h-37.16c-4.464 0-7.865-3.851-7.47-8.243 2.81-31.45 13.981-60.94 32.307-85.282 2.491-3.309 1.828-8.011-1.481-10.502-3.31-2.492-8.011-1.828-10.503 1.481-20.01 26.58-32.203 58.728-35.263 92.965-.704 7.84 2.746 15.852 9.68 20.614-1.445 3.763-2.741 7.569-3.888 11.413-48.525.936-70.52 62.367-32.31 93.484 10.427 8.491 23.717 12.814 37.583 11.654 8.256 20.065 20.524 38.069 35.803 53.011-26.784 20.671-47.053 48.113-58.885 79.874-12.938 34.68 13.302 70.59 49.286 70.59h171.864c4.143 0 7.5-3.358 7.5-7.5s-3.357-7.5-7.5-7.5h-149.716v-30.035c0-12.407-10.094-22.5-22.5-22.5h-34.019c11.296-29.072 30.347-54.095 55.405-72.771 9.892 7.971 20.759 14.775 32.393 20.205 5.761 30.219 33.636 52.511 66.634 52.511s60.873-22.292 66.634-52.511c11.634-5.43 22.501-12.234 32.393-20.205 25.057 18.675 44.107 43.698 55.405 72.771h-34.019c-12.406 0-22.5 10.093-22.5 22.5v30.035h-14.768c-4.143 0-7.5 3.358-7.5 7.5s3.357 7.5 7.5 7.5h36.913c35.983 0 62.225-35.909 49.289-70.588-11.833-31.763-32.102-59.205-58.886-79.876 12.984-12.698 23.799-27.603 31.821-44.11 14.862 14.664 40.179 2.799 38.297-18.087 14.116-9.783 22.68-25.901 22.68-43.308 0-28.715-22.971-52.09-51.722-52.644-.752-2.523-1.568-5.029-2.449-7.518.831.109-2.851.072 54.202.072 20.744 0 37.62-16.877 37.62-37.62s-16.877-37.62-37.621-37.62zm-316.202 346.264v30.035h-7.147c-21.935 0-37.733-18.094-37.607-37.535h37.254c4.136 0 7.5 3.365 7.5 7.5zm232.972 30.035h-7.148v-30.035c0-4.136 3.364-7.5 7.5-7.5h37.255c.125 19.403-15.633 37.535-37.607 37.535zm22.331-324.298c.397 4.427-3.042 8.239-7.471 8.239h-37.16c-1.399-58.451-19.087-110.425-46.071-139.951 52.73 22.691 85.675 75.478 90.702 131.712zm-142.391-157.472c9.21 0 15.088 4.477 15.088 7.559s-5.878 7.559-15.088 7.559-15.088-4.477-15.088-7.559 5.878-7.559 15.088-7.559zm-23.548 21.75c11.908 11.17 35.197 11.162 47.096 0 33.406 19.353 57.499 77.768 59.202 143.961h-165.5c1.703-66.194 25.797-124.609 59.202-143.961zm-150.829 248.26c-25.959-21.14-13.197-62.676 19.116-66.601-4.673 24.406-3.654 50.266 3.75 75.068-8.266-.192-16.291-3.111-22.866-8.467zm125.502 113.668c31.661 10.318 66.029 10.337 97.75 0-17.711 40.606-80.047 40.586-97.75 0zm48.875-7.257c-78.9 0-143.09-64.19-143.09-143.09 0-18.215 3.356-35.893 9.981-52.62h266.217c6.625 16.727 9.981 34.405 9.981 52.62.001 78.9-64.189 143.09-143.089 143.09zm158.117-82.715c-4.168 0-7.559-3.391-7.559-7.559s3.391-7.559 7.559-7.559 7.56 3.391 7.56 7.559-3.392 7.559-7.56 7.559zm17.701-80.879c17.17 15.49 16.521 42.813-1.729 57.405-4.818-4.834-11.7-7.402-18.955-6.44 3.929-20.048 3.912-40.619.127-60.382 7.6.923 14.703 4.135 20.557 9.417zm27.472-47.116h-47.18c1.078-3.04 1.514-6.307 1.22-9.578-1.085-12.143-3.372-24.102-6.759-35.663h52.719c12.473 0 22.62 10.147 22.62 22.62s-10.147 22.621-22.62 22.621z"/><path d="m174.626 211.891c-4.143 0-7.5 3.358-7.5 7.5v12c0 4.142 3.357 7.5 7.5 7.5s7.5-3.358 7.5-7.5v-12c0-4.142-3.358-7.5-7.5-7.5z"/><path d="m299.522 211.891c-4.142 0-7.5 3.358-7.5 7.5v12c0 4.142 3.358 7.5 7.5 7.5 4.143 0 7.5-3.358 7.5-7.5v-12c0-4.142-3.357-7.5-7.5-7.5z"/><path d="m258.466 225.38c-3.124-2.721-7.86-2.396-10.582.727-5.874 6.74-16.036 6.409-21.619 0-2.721-3.123-7.459-3.448-10.581-.727-3.123 2.721-3.449 7.458-.728 10.581 11.68 13.404 32.52 13.446 44.236 0 2.722-3.122 2.396-7.859-.726-10.581z"/><path d="m267.251 105.412h-60.354c-12.406 0-22.5 10.093-22.5 22.5v15.176c0 12.407 10.094 22.5 22.5 22.5h60.354c12.406 0 22.5-10.093 22.5-22.5v-15.176c0-12.407-10.094-22.5-22.5-22.5zm7.5 37.676c0 4.136-3.364 7.5-7.5 7.5h-60.354c-4.136 0-7.5-3.364-7.5-7.5v-15.176c0-4.136 3.364-7.5 7.5-7.5h60.354c4.136 0 7.5 3.364 7.5 7.5z"/></g></svg>