<svg id="Capa_1" enable-background="new 0 0 511.604 511.604" height="512" viewBox="0 0 511.604 511.604" width="512" xmlns="http://www.w3.org/2000/svg"><g><path d="m375.865 504.104h-116.91s-176.36-41.77-53.3-165.8c87.257-26.374 180.512 19.536 212.47 105.33 10.92 29.3-10.99 60.47-42.26 60.47z" fill="#767678"/><path d="m258.955 504.104h-123.22c-31.27 0-53.18-31.17-42.26-60.47 14.31-38.4 41.85-70.35 77.09-90.3 7.8-4.43 15.98-8.26 24.48-11.44 3.48-1.31 7.02-2.51 10.61-3.59-14.607 63.598.677 124.156 53.3 165.8z" fill="#666667"/><circle cx="406.39" cy="255.634" fill="#ffcbbe" r="45.176"/><circle cx="105.214" cy="255.634" fill="#ffddcf" r="45.176"/><path d="m395.145 305.364c-22.52 54.8-76.42 93.39-139.34 93.39-21.88 0-42.67-4.67-61.43-13.06 0 0-.02-.01-.05-.03-3.28-1.93-154.93-92.4-14-255.53 6.68-7.73 12.45-14.69 17.4-20.94 17.87-7.49 37.49-11.62 58.08-11.62 107.632 0 179.734 109.508 139.34 207.79z" fill="#ffddcf"/><path d="m194.375 385.694c-35.19-15.74-63.23-44.58-77.91-80.33-7.25-17.64-11.25-36.95-11.25-57.2 0-51.28 25.63-96.57 64.78-123.76l10.33 5.73s-107.4 139.9 14.05 255.56z" fill="#ffcbbe"/><path d="m395.697 216.06c-19.857-3.556-56.311-17.491-96.412-69.086-14.5 13.217-29.59 23.988-44.69 32.748-124.95-45.104-20.45-155.963-20.45-155.963 7.03-1.016 14.21-1.534 21.5-1.534 62.97 0 117.35 38.677 142.78 94.666 12.168 26.796 17.049 56.166 14.823 84.988-.708 9.174-8.801 15.748-17.551 14.181z" fill="#eaaa83"/><path d="m254.595 179.721c-58.02 33.679-116.197 37.805-141.542 37.774-7.768-.01-14.215-6.2-14.896-14.221-.418-4.916-.632-9.894-.632-14.917 0-25.584 5.51-49.821 15.34-71.466 22.48-49.5 67.6-85.471 121.28-93.132-8.14 31.658-19.18 101.093 20.45 155.962z" fill="#e4996d"/><path d="m151.18 105.046c-25.47 0-46.117-21.836-46.117-48.773s20.647-48.773 46.117-48.773 46.117 21.836 46.117 48.773z" fill="#df8a57"/><path d="m375.175 105.046c25.47 0 46.117-21.836 46.117-48.773s-20.647-48.773-46.117-48.773-46.117 21.836-46.117 48.773z" fill="#e4996d"/><ellipse cx="176.245" cy="292.492" fill="#ffa1ac" rx="29.355" ry="23.377"/><ellipse cx="335.359" cy="292.492" fill="#ffa1ac" rx="29.355" ry="23.377"/><path d="m207.507 232.316h-24.568c-10.322 0-18.015 9.518-15.851 19.61l1.361 6.345c2.287 10.665 11.713 18.285 22.621 18.285h8.307c10.908 0 20.334-7.619 22.621-18.285l1.361-6.345c2.162-10.092-5.531-19.61-15.852-19.61z" fill="#495560"/><path d="m306.766 232.316h24.568c10.322 0 18.015 9.518 15.851 19.61l-1.361 6.345c-2.287 10.665-11.713 18.285-22.621 18.285h-8.307c-10.908 0-20.334-7.619-22.621-18.285l-1.361-6.345c-2.163-10.092 5.53-19.61 15.852-19.61z" fill="#495560"/><g fill="#ff8a98"><path d="m90.936 293.446-23.079 36.87c-4.169 6.66.619 15.306 8.476 15.306h46.158c7.858 0 12.645-8.645 8.476-15.306l-23.079-36.87c-3.917-6.259-13.034-6.259-16.952 0z"/><path d="m419.262 293.446 23.079 36.87c4.169 6.66-.619 15.306-8.476 15.306h-46.158c-7.857 0-12.645-8.645-8.476-15.306l23.079-36.87c3.917-6.259 13.034-6.259 16.952 0z"/><circle cx="255.645" cy="451.399" r="22.588"/></g></g><g><path d="m277.176 263.977c-3.125-2.721-7.86-2.396-10.582.727-5.863 6.729-16.024 6.422-21.62 0-2.723-3.124-7.46-3.448-10.582-.727s-3.448 7.459-.727 10.581c11.706 13.432 32.543 13.418 44.237.001 2.723-3.123 2.396-7.86-.726-10.582z"/><path d="m331.317 224.816h-24.568c-5.396 0-10.525 1.805-14.661 5.067-24.03-3.006-45.906-3.006-69.939 0-4.136-3.262-9.265-5.067-14.66-5.067h-24.568c-15.113 0-26.346 13.936-23.184 28.682l1.36 6.346c3.008 14.029 15.605 24.211 29.954 24.211h8.307c14.349 0 26.946-10.183 29.954-24.212 1.419-6.618 2.556-10.176 1.455-15.846 17.917-1.822 34.788-1.822 52.702 0-1.113 5.73.055 9.313 1.456 15.846 3.008 14.029 15.605 24.211 29.953 24.211h8.308c14.349 0 26.946-10.183 29.954-24.212l1.36-6.346c3.17-14.775-8.102-28.68-23.183-28.68zm-116.671 31.883c-1.536 7.16-7.965 12.357-15.288 12.357h-8.307c-7.323 0-13.752-5.197-15.288-12.357l-1.36-6.346c-1.163-5.43 2.977-10.538 8.518-10.538 26.363.804 25.72-2.101 31.443 3.375 3.644 4.691.775 9.16.282 13.509zm125.189-6.345-1.36 6.345c-1.536 7.16-7.965 12.357-15.288 12.357h-8.308c-7.322 0-13.751-5.197-15.287-12.357-.496-4.377-3.352-8.829.283-13.508.648-.62 2.634-3.374 6.875-3.374h24.568c5.552-.001 9.677 5.119 8.517 10.537z"/><path d="m433.81 300.621c30.242-18.36 33.854-60.655 7.825-84.118-6.289-5.67-13.803-9.673-21.84-11.795 4.513-34.449-1.579-69.45-17.391-99.997 15.77-9.808 26.372-27.844 26.372-48.438-.001-31.029-24.054-56.273-53.618-56.273-20.974 0-39.162 12.712-47.968 31.173-40.801-19.78-88.697-21.74-130.952-5.313-9.552-15.541-26.183-25.86-45.076-25.86-29.564 0-53.616 25.244-53.616 56.272 0 15.649 6.123 29.822 15.98 40.032-19.318 32.551-27.053 70.61-22.053 108.482-44.276 11.962-53.19 71.201-14.133 95.559l-14.917 25.662c-6.964 11.99 1.23 27.477 14.825 27.477h45.39c4.28 0 8.284-1.592 11.428-4.486 3.54 4.28 7.274 8.34 11.181 12.18-26.751 20.678-46.996 48.105-58.816 79.837-12.922 34.668 13.292 70.589 49.287 70.589h187.525c4.142 0 7.5-3.358 7.5-7.5s-3.358-7.5-7.5-7.5h-187.526c-26.128 0-44.322-25.962-35.231-50.352 11.162-29.964 30.524-55.743 56.16-74.893 2.831 2.29 5.738 4.469 8.706 6.548-.944 34.257 23.532 65.245 60.34 76.531 1.529 15.168 14.37 27.048 29.935 27.048s28.406-11.881 29.935-27.049c35.002-10.779 61.239-40.24 60.343-76.325 3.073-2.142 6.076-4.394 9.002-6.762 25.642 19.15 45.008 44.932 56.174 74.903 9.087 24.384-9.1 50.351-35.233 50.351h-22.864c-4.143 0-7.5 3.358-7.5 7.5s3.357 7.5 7.5 7.5h22.864c35.972 0 62.218-35.897 49.289-70.588-11.823-31.736-32.071-59.166-58.826-79.844 3.701-3.638 7.242-7.481 10.616-11.515 2.978 2.401 6.714 3.827 10.761 3.827h46.16c13.783 0 21.986-15.562 14.938-27.526zm-7.641-12.927-.465-.787c-3.147-5.323-8.591-8.531-14.609-8.645 3.804-19.586 3.85-39.91-.056-60.033 35.039 4.252 45.391 50.859 15.13 69.465zm-325.645-69.461c-3.897 20.127-3.839 40.451-.036 60.036-6.699-.211-12.212 3.259-15.604 9.099-29.842-19.129-18.926-64.934 15.64-69.135zm22.113 120.251h-45.39c-1.727 0-3.141-2.729-1.855-4.941l22.702-39.053c.963-1.661 2.736-1.656 3.7.004.052.103 17.178 33.532 22.986 42.106-.329.973-1.072 1.884-2.143 1.884zm132.991 128.003c-8.319 0-15.088-6.768-15.088-15.088s6.769-15.088 15.088-15.088 15.088 6.769 15.088 15.088c-.001 8.319-6.769 15.088-15.088 15.088zm27.601-27.05c-10.486-24.1-44.704-24.152-55.206.007-25.802-8.656-43.841-28.83-47.149-51.964 46.374 24.983 103.077 25.054 149.506.163-3.473 24.699-23.145 43.709-47.151 51.794zm-27.441-48.183c-91.441 0-159.008-84.411-139.923-173.139 22.602-.195 65.408-3.578 112.146-22.814 3.83-1.576 5.657-5.96 4.081-9.79-1.577-3.831-5.963-5.657-9.79-4.081-51.95 21.381-99.778 22.047-115.949 21.536-4.51-33.928 2.19-68.014 19.09-97.333 7.641 4.403 16.405 6.913 25.72 6.913 4.143 0 7.5-3.358 7.5-7.5s-3.357-7.5-7.5-7.5c-21.293 0-38.616-18.515-38.616-41.273s17.322-41.273 38.615-41.273c21.294 0 38.617 18.515 38.617 41.272 0 4.142 3.357 7.5 7.5 7.5s7.5-3.358 7.5-7.5c0-5.813-.845-11.424-2.411-16.703 38.868-14.886 82.904-12.696 120.153 6.029-.636 3.458-.98 7.024-.98 10.674 0 4.142 3.357 7.5 7.5 7.5s7.5-3.358 7.5-7.5c0-22.758 17.323-41.272 38.617-41.272s38.617 18.515 38.617 41.272-17.323 41.273-38.617 41.273c-4.143 0-7.5 3.358-7.5 7.5s3.357 7.5 7.5 7.5c4.653 0 9.168-.628 13.476-1.802 14.738 28.025 20.449 60.256 16.298 91.987-36.253-1.965-71.868-31.777-95.357-59.469 9.128-9.164 17.7-19.118 25.562-29.718 2.467-3.327 1.771-8.024-1.557-10.492-3.326-2.467-8.024-1.77-10.492 1.556-8.417 11.349-17.682 21.914-27.597 31.479-2.51 1.463-16.645 15.721-43.558 30.951-3.604 2.04-4.873 6.616-2.833 10.221 2.041 3.606 6.618 4.873 10.222 2.833 13.799-7.809 26.893-16.831 39.018-26.877 40.184 47.385 76.662 60.302 97.074 63.573 20.108 89.22-47.832 174.467-139.626 174.467zm180.098-54.089c-.344.602-.977 1.318-2.039 1.318-47.982-.339-46.474.736-47.808-.792 6.158-8.925 8.609-12.964 22.705-43.151 1.017-1.719 3.024-1.733 4.047-.001l23.075 39.042c.974 1.654.262 3.162.02 3.584z"/></g></svg>